<svg xmlns="http://www.w3.org/2000/svg" fill="none" viewBox="0 0 14 14" height="20" width="20"><path fill="#D7E0FF" d="M0.932501 10.4075C1.07855 11.7908 2.19252 12.9049 3.57508 13.0571C4.52766 13.162 5.5046 13.25 6.5 13.25C7.4954 13.25 8.47234 13.162 9.42492 13.0571C10.8075 12.9049 11.9214 11.7908 12.0675 10.4075C12.1675 9.46055 12.25 8.48942 12.25 7.5C12.25 6.51058 12.1675 5.53944 12.0675 4.59245C11.9214 3.20923 10.8075 2.09511 9.42492 1.94286C8.47234 1.83797 7.4954 1.75 6.5 1.75C5.5046 1.75 4.52766 1.83797 3.57508 1.94286C2.19252 2.09511 1.07855 3.20923 0.9325 4.59245C0.832511 5.53944 0.75 6.51058 0.75 7.5C0.75 8.48942 0.832511 9.46055 0.932501 10.4075Z"></path><path stroke="#4147D5" stroke-linecap="round" d="M8.33163 1.83476C7.72915 1.78392 7.11813 1.75 6.5 1.75C5.5046 1.75 4.52766 1.83797 3.57508 1.94286C2.19252 2.09511 1.07855 3.20923 0.9325 4.59245C0.832511 5.53944 0.75 6.51058 0.75 7.5C0.75 8.48942 0.832511 9.46055 0.932501 10.4075C1.07855 11.7908 2.19252 12.9049 3.57508 13.0571C4.52766 13.162 5.5046 13.25 6.5 13.25C7.4954 13.25 8.47234 13.162 9.42492 13.0571C10.8075 12.9049 11.9214 11.7908 12.0675 10.4075C12.1675 9.46055 12.25 8.48942 12.25 7.5C12.25 6.75949 12.2038 6.02923 12.1386 5.31167"></path><path stroke="#4147D5" stroke-linecap="round" stroke-linejoin="round" d="M4 6.5L6.90909 9.5C8.278 5.56771 9.41805 3.84218 12 1.5"></path></svg>