<svg xmlns="http://www.w3.org/2000/svg" xmlns:xlink="http://www.w3.org/1999/xlink" viewBox="0 0 283.46 283.46"><defs><pattern id="a" width="283.46" height="283.46" patternUnits="userSpaceOnUse" viewBox="0 0 283.46 283.46"><rect width="283.46" height="283.46" fill="none"/><path d="M269.16,311.59a13.83,13.83,0,0,1-2.88,9.15,20.62,20.62,0,0,1-5.42,4.68,58.59,58.59,0,0,1-8.76,4.27,16.46,16.46,0,0,1-8.35.79,22.25,22.25,0,0,1-10.45-4.34,11.64,11.64,0,0,1-3.84-4.71,19.6,19.6,0,0,1-1.7-8.87,19.28,19.28,0,0,1,3.64-10.46,43.19,43.19,0,0,1,15.23-13.82,53.94,53.94,0,0,1,11.64-5c1.3-.35,2.62-.57,3.94-.81a8.69,8.69,0,0,1,3.37.13,2.52,2.52,0,0,1,1.92,1.78.87.87,0,0,1-.14.75c-.17.19-.5.23-.76.32-.05,0-.14,0-.2-.06-1.72-1.06-3.54-.71-5.35-.36a43.1,43.1,0,0,0-11.29,4.12,41.71,41.71,0,0,0-14.17,11.24,27.77,27.77,0,0,0-4.55,7.36,18,18,0,0,0-.15,12.25,8.11,8.11,0,0,0,2.79,3.9,21.17,21.17,0,0,0,10.59,4.5,13.2,13.2,0,0,0,6.46-.68,45,45,0,0,0,10.49-5.48,12.35,12.35,0,0,0,5.4-7.82A18.73,18.73,0,0,0,265.7,304a5.51,5.51,0,0,0-1.77-2.34,12.09,12.09,0,0,0-9.72-2.62,28.71,28.71,0,0,0-6.68,2,15.46,15.46,0,0,0-5.6,4.1,7.87,7.87,0,0,0-1.73,4.05,9.22,9.22,0,0,0,1,6.15,6.45,6.45,0,0,0,5.33,3.38,9.82,9.82,0,0,0,6.8-1.87,5,5,0,0,0,2.26-4.53,2.66,2.66,0,0,0-2-2.65,15.58,15.58,0,0,0-2.29-.29c-.44-.05-.84-.13-.95-.65s.15-.89.76-1.11a4.12,4.12,0,0,1,4.35.83c3.35,3.07,2.89,6.71.23,9.51a11.58,11.58,0,0,1-11.42,2.44,9.35,9.35,0,0,1-4-3,12.05,12.05,0,0,1-.64-13.37,12.54,12.54,0,0,1,5.13-4.31,29.79,29.79,0,0,1,8.41-2.82,14.25,14.25,0,0,1,8.1.89,11.82,11.82,0,0,1,7.19,8.8C268.83,308.21,268.93,309.91,269.16,311.59Z" fill="currentColor"/><path d="M344.05,91.59a5.47,5.47,0,0,1-1.91-1.26c-2-1.7-3.9-3.49-6-5a21.78,21.78,0,0,0-13.38-4.63,41,41,0,0,0-17.23,3.89,54.38,54.38,0,0,0-15.18,10.32,25.28,25.28,0,0,0-4.5,5.59,7.63,7.63,0,0,0-.48,6.74,13,13,0,0,0,1.61,3,39.3,39.3,0,0,0,3.57,4.45,14.07,14.07,0,0,0,5.29,3.43,25.91,25.91,0,0,0,16.26.29,22.06,22.06,0,0,0,10.29-6.44c3.06-3.26,4.11-9.8,2.89-13.15a14.87,14.87,0,0,0-2.75-4.49,19.14,19.14,0,0,0-6.13-4.8A10.44,10.44,0,0,0,307,89.3a17.14,17.14,0,0,0-3.41,2.11A42.83,42.83,0,0,0,300,94.66a18,18,0,0,0-2.83,4,6,6,0,0,0,.14,6,3.78,3.78,0,0,0,2.23,1.85,20.35,20.35,0,0,0,8.74,1.23,22.32,22.32,0,0,0,3.56-.53c2.89-.7,4.57-3.86,4.65-6a3.61,3.61,0,0,0-.56-2,5.84,5.84,0,0,0-4.54-2.76c-.42,0-.85,0-1.27,0-1.81,0-2.22.39-2.44,2.17l-.08.71a1.06,1.06,0,0,1-1.46,0,1.93,1.93,0,0,1-.85-1.62,3.37,3.37,0,0,1,2.82-3.47c3.19-.34,6.23,0,8.64,2.48,1.81,1.84,2.66,3.92,1.84,6.54a10.13,10.13,0,0,1-2,3.69,7.33,7.33,0,0,1-4.09,2.48A23.38,23.38,0,0,1,307,110a28.58,28.58,0,0,1-7.5-1.25,7.69,7.69,0,0,1-5.45-5.93,5.74,5.74,0,0,1,.21-3.73,16.07,16.07,0,0,1,2.64-4.57,37.86,37.86,0,0,1,5.27-5.17c4.56-3.49,10.35-4.6,15.87-1.44a22.2,22.2,0,0,1,8.56,8.58,12.76,12.76,0,0,1,1.42,7.79,16.85,16.85,0,0,1-7.7,12.58,24.85,24.85,0,0,1-10.72,4.25,34.08,34.08,0,0,1-8.85.3,22.67,22.67,0,0,1-10-3.93,10.08,10.08,0,0,1-1.85-1.73,45.14,45.14,0,0,1-4.61-5.8c-2.38-3.78-2.58-7.59-.06-11.32a37,37,0,0,1,4-4.9,53.6,53.6,0,0,1,12.3-9.28,43.84,43.84,0,0,1,19-6A28.77,28.77,0,0,1,328,79a21.81,21.81,0,0,1,7.86,3.6,25.52,25.52,0,0,1,7.75,8C343.76,90.82,343.84,91.08,344.05,91.59Z" fill="currentColor"/><path d="M60.59,91.59a5.37,5.37,0,0,1-1.91-1.26c-2-1.7-3.91-3.49-6-5A21.74,21.74,0,0,0,39.3,80.65a41.08,41.08,0,0,0-17.23,3.89A54.48,54.48,0,0,0,6.9,94.86a25,25,0,0,0-4.51,5.59,7.63,7.63,0,0,0-.47,6.74,13.36,13.36,0,0,0,1.6,3,39.38,39.38,0,0,0,3.58,4.45,13.92,13.92,0,0,0,5.29,3.43,25.88,25.88,0,0,0,16.25.29,22,22,0,0,0,10.29-6.44c3.06-3.26,4.11-9.8,2.9-13.15a14.9,14.9,0,0,0-2.76-4.49,19,19,0,0,0-6.13-4.8,10.44,10.44,0,0,0-9.41-.16,17.73,17.73,0,0,0-3.41,2.11,44.44,44.44,0,0,0-3.62,3.25,17.92,17.92,0,0,0-2.82,4,6,6,0,0,0,.13,6A3.8,3.8,0,0,0,16,106.52a20.4,20.4,0,0,0,8.75,1.23,22.66,22.66,0,0,0,3.56-.53c2.89-.7,4.57-3.86,4.65-6a3.62,3.62,0,0,0-.57-2,5.83,5.83,0,0,0-4.53-2.76c-.42,0-.85,0-1.27,0-1.81,0-2.23.39-2.45,2.17l-.08.71a1.06,1.06,0,0,1-1.46,0,1.92,1.92,0,0,1-.84-1.62,3.36,3.36,0,0,1,2.81-3.47c3.19-.34,6.24,0,8.65,2.48,1.81,1.84,2.66,3.92,1.83,6.54a9.84,9.84,0,0,1-2,3.69A7.33,7.33,0,0,1,29,109.45a23.38,23.38,0,0,1-5.47.51,28.51,28.51,0,0,1-7.5-1.25,7.7,7.7,0,0,1-5.46-5.93,5.8,5.8,0,0,1,.22-3.73,15.84,15.84,0,0,1,2.64-4.57,36.8,36.8,0,0,1,5.27-5.17c4.55-3.49,10.35-4.6,15.86-1.44a22.13,22.13,0,0,1,8.56,8.58,12.83,12.83,0,0,1,1.43,7.79,16.85,16.85,0,0,1-7.7,12.58,24.85,24.85,0,0,1-10.72,4.25,34.09,34.09,0,0,1-8.85.3,22.57,22.57,0,0,1-10-3.93,9.83,9.83,0,0,1-1.86-1.73,46,46,0,0,1-4.61-5.8c-2.38-3.78-2.57-7.59,0-11.32a36.18,36.18,0,0,1,4-4.9,53.82,53.82,0,0,1,12.3-9.28,43.88,43.88,0,0,1,19-6,28.79,28.79,0,0,1,8.43.55,21.69,21.69,0,0,1,7.85,3.6,25.41,25.41,0,0,1,7.75,8C60.3,90.82,60.38,91.08,60.59,91.59Z" fill="currentColor"/><path d="M51.26,143.89c-.51-.19-.48-.63-.52-1a12.4,12.4,0,0,1,1.39-6.55A22.85,22.85,0,0,1,59.88,127a23.56,23.56,0,0,1,8.18-3.36c1.24-.26,2.49-.49,3.73-.74a30,30,0,0,1,8.87-.34,22.47,22.47,0,0,1,16.68,9.26,15.51,15.51,0,0,1,2.9,7.87,19.32,19.32,0,0,1-2.06,11.28A18,18,0,0,1,89,159.33c-8,3.26-15.39,2-22.16-3.11A12.28,12.28,0,0,1,62,147.57a18.79,18.79,0,0,1,1.44-9.94,13.26,13.26,0,0,1,5.68-6.09A29.28,29.28,0,0,1,79.89,128a12.14,12.14,0,0,1,2.94-.17c3.4.35,5.41,2.44,6.65,5.47s.74,6.07-.59,9a6.55,6.55,0,0,1-3.19,3.25,3.84,3.84,0,0,1-1.39.48c-1.41.08-2.82.14-4.23.08a6,6,0,0,1-3.29-1.35,4.3,4.3,0,0,1-.62-6.36,9.4,9.4,0,0,1,5.58-2.8,4.38,4.38,0,0,1,.63,0,1.78,1.78,0,0,1,1.49.68A1.45,1.45,0,0,1,84,138a8.4,8.4,0,0,1-1.16.09,6.89,6.89,0,0,0-4.15,1.37,2.78,2.78,0,0,0-.33.27c-1.55,1.45-1.29,2.93.66,3.78a7.32,7.32,0,0,0,5.19.17,4,4,0,0,0,2.38-2,17.65,17.65,0,0,0,1.47-4,6.3,6.3,0,0,0-7-7.62,26.76,26.76,0,0,0-10.83,3.43A11.57,11.57,0,0,0,65,139.88a17.37,17.37,0,0,0-.74,9,8.58,8.58,0,0,0,2.25,4.25,17.17,17.17,0,0,0,7,4.56,32.08,32.08,0,0,0,3.89,1,17.8,17.8,0,0,0,9.79-1A17.47,17.47,0,0,0,98.36,140.1a14,14,0,0,0-4.78-9.83,20.64,20.64,0,0,0-12-5.34,40.52,40.52,0,0,0-5.91-.37,52.71,52.71,0,0,0-6.06,1c-.34.06-.68.19-1,.26a19.68,19.68,0,0,0-12.49,8.07A22.68,22.68,0,0,0,54,137.53a29.33,29.33,0,0,0-2.45,6.07C51.5,143.71,51.35,143.79,51.26,143.89Z" fill="currentColor"/><path d="M59.36,33.11a13.88,13.88,0,0,1-2.88,9.15,20.69,20.69,0,0,1-5.43,4.68,58,58,0,0,1-8.75,4.27A16.36,16.36,0,0,1,34,52,22.24,22.24,0,0,1,23.5,47.66,11.66,11.66,0,0,1,19.65,43,19.73,19.73,0,0,1,18,34.08,19.37,19.37,0,0,1,21.6,23.62,43.13,43.13,0,0,1,36.83,9.79a53.9,53.9,0,0,1,11.64-5c1.29-.35,2.62-.58,3.94-.81a8.7,8.7,0,0,1,3.37.12A2.55,2.55,0,0,1,57.7,5.9a.88.88,0,0,1-.15.75c-.16.19-.49.23-.75.32a.33.33,0,0,1-.2-.06c-1.72-1.06-3.54-.71-5.35-.36A43,43,0,0,0,40,10.67,41.71,41.71,0,0,0,25.79,21.91a27.62,27.62,0,0,0-4.55,7.35,18,18,0,0,0-.15,12.26,8,8,0,0,0,2.79,3.89,21.19,21.19,0,0,0,10.58,4.51,13.06,13.06,0,0,0,6.46-.69,45,45,0,0,0,10.5-5.47,12.39,12.39,0,0,0,5.4-7.82,18.82,18.82,0,0,0-.92-10.42,5.54,5.54,0,0,0-1.77-2.35,12.14,12.14,0,0,0-9.72-2.61,28.79,28.79,0,0,0-6.69,2,15.51,15.51,0,0,0-5.6,4.1,8,8,0,0,0-1.72,4,9.24,9.24,0,0,0,1,6.16,6.47,6.47,0,0,0,5.33,3.38,9.82,9.82,0,0,0,6.8-1.87,5,5,0,0,0,2.26-4.53,2.65,2.65,0,0,0-2-2.65,15.75,15.75,0,0,0-2.29-.29c-.44-.05-.85-.13-1-.65s.15-.9.76-1.11a4.12,4.12,0,0,1,4.35.83c3.35,3.06,2.89,6.71.23,9.51a9.93,9.93,0,0,1-6,2.87,10,10,0,0,1-5.42-.43,9.46,9.46,0,0,1-4-3,12.07,12.07,0,0,1-.63-13.37A12.64,12.64,0,0,1,35,21.2a30.08,30.08,0,0,1,8.41-2.81,14.25,14.25,0,0,1,8.1.89,11.79,11.79,0,0,1,7.19,8.8C59,29.72,59.13,31.43,59.36,33.11Z" fill="currentColor"/><path d="M87.77,93.07a21.79,21.79,0,0,1,2.15-10.26,35.25,35.25,0,0,1,14.81-16.4,43.11,43.11,0,0,1,13.56-5.28,11.7,11.7,0,0,1,4.21-.26,2.29,2.29,0,0,1,2,2,.78.78,0,0,1-.63.94,11.47,11.47,0,0,1-2.74.07,13.11,13.11,0,0,0-6.24.72,37.76,37.76,0,0,0-16.67,10.1,33.37,33.37,0,0,0-6.68,10.49,22.14,22.14,0,0,0-1.34,12.46,12,12,0,0,0,5.12,8.22,27,27,0,0,0,9,4.24,12.64,12.64,0,0,0,6.29-.07,17.44,17.44,0,0,0,11.8-9.22,22.14,22.14,0,0,0,2.58-8.46,13.52,13.52,0,0,0-2.88-9.1,5.42,5.42,0,0,0-4.89-2,17.64,17.64,0,0,0-5.8,1.14,24.11,24.11,0,0,0-4,1.94,7.79,7.79,0,0,0-3.58,4.81,5.83,5.83,0,0,0,4.54,7.33,5,5,0,0,0,3.51-.35,1.6,1.6,0,0,0,.7-2.61c-.29-.48-.63-.93-.87-1.43a.93.93,0,0,1,.1-.78,1,1,0,0,1,.75-.21c1.89.21,3.67,3.86,2.23,5.67a4.79,4.79,0,0,1-3.11,2,10.57,10.57,0,0,1-4.81-.35,8.78,8.78,0,0,1-5.54-7.58,9.94,9.94,0,0,1,5.42-9.18,21.34,21.34,0,0,1,9.72-2.72,8.19,8.19,0,0,1,8.3,4.73,22.49,22.49,0,0,1,2.14,5.73,13.16,13.16,0,0,1,.09,4.64,26.45,26.45,0,0,1-3,8.8,18.14,18.14,0,0,1-8.48,8,19.18,19.18,0,0,1-10.29,1.82,5.83,5.83,0,0,1-.84-.09,27.3,27.3,0,0,1-12-6.42,15.72,15.72,0,0,1-4.56-10.45C87.71,94.77,87.77,93.92,87.77,93.07Z" fill="currentColor"/><path d="M159.49,130.06a9.32,9.32,0,0,1-1.93-3,22.73,22.73,0,0,1-2.19-9.42c0-1.91-.06-3.81.13-5.72a20.32,20.32,0,0,1,4.65-11.4,24.58,24.58,0,0,1,6.72-5.45,41.75,41.75,0,0,1,13.23-5,50.67,50.67,0,0,1,6.71-.86,16.29,16.29,0,0,1,12,3.86,13.24,13.24,0,0,1,4.35,7.35,23.44,23.44,0,0,1-2.59,16.39,13.91,13.91,0,0,1-3.79,4.25c-3.89,3.05-8.22,4.94-13.28,4.74a12,12,0,0,1-6.55-2.17,9.88,9.88,0,0,1-4.1-7.57A12.42,12.42,0,0,1,177,105.47a19.36,19.36,0,0,1,9.29-4.81,7.4,7.4,0,0,1,8.3,3.62,10,10,0,0,1,1.53,6.68c-.52,3.29-2.26,5.62-5.5,6.57a15.16,15.16,0,0,1-4.18.57c-3.16,0-4.93-2.69-4-5.71,1.19-3.9,4.69-4.42,7.24-3.77a3.62,3.62,0,0,1,2.37,2c.1.19,0,.49-.07.91a10.9,10.9,0,0,0-1.67-.72c-.45-.11-1,0-1.42-.06a4.15,4.15,0,0,0-4.81,3.63,1.29,1.29,0,0,0,1.13,1.53c4,.45,7.67-.75,9-4.9a7.41,7.41,0,0,0-2-7.4,4.69,4.69,0,0,0-3.77-1.08,15,15,0,0,0-5.82,1.83,15.64,15.64,0,0,0-6.76,6.52,10.85,10.85,0,0,0-.92,7.22,6.84,6.84,0,0,0,4.8,5.21,12.09,12.09,0,0,0,6.28.44,20.73,20.73,0,0,0,9.69-4.52c3.61-2.94,5.25-6.93,5.91-11.39a19.74,19.74,0,0,0-.1-7.58,10.85,10.85,0,0,0-5.9-7.36,15.4,15.4,0,0,0-8.63-1.62,45,45,0,0,0-18.35,5.43A21.51,21.51,0,0,0,158.84,107a19.13,19.13,0,0,0-1.22,4.27,30.34,30.34,0,0,0,.7,14.66c.27.88.65,1.72.93,2.59A12,12,0,0,1,159.49,130.06Z" fill="currentColor"/><path d="M167.81,66.56a4.58,4.58,0,0,1-2.25-1.89,19,19,0,0,1-3.66-17.55,29.19,29.19,0,0,1,6-11.55,26.42,26.42,0,0,1,7.68-6.26,39,39,0,0,1,11.56-4,28.13,28.13,0,0,1,7.39-.47A17.8,17.8,0,0,1,203.19,28a15.26,15.26,0,0,1,6.36,9.19,34.11,34.11,0,0,1,1.21,8.16,20.85,20.85,0,0,1-3.66,11.75,20.45,20.45,0,0,1-4.51,5.3c-4.35,3.37-9.07,4.35-14.31,2.3a18.79,18.79,0,0,1-6.72-4.32,12.42,12.42,0,0,1-3.76-10,9.67,9.67,0,0,1,5.37-8.3A20.6,20.6,0,0,1,190.44,40a26.93,26.93,0,0,1,4-.3c2.63.05,5.05.69,6.67,3,.68,1,1.37,2,2,3A6.47,6.47,0,0,1,204,49.3,11.69,11.69,0,0,1,202.47,55a7.48,7.48,0,0,1-8.22,3.49c-2.38-.47-3.87-2.2-5.09-4.17a5.64,5.64,0,0,1-.8-3,4.07,4.07,0,0,1,2.26-3.8,7.88,7.88,0,0,1,6.56-.35,3.68,3.68,0,0,1,2,1.78,7.38,7.38,0,0,1,.89,3,2.75,2.75,0,0,1-.86,2.3.88.88,0,0,1-1.5-.39,1.33,1.33,0,0,1,.2-1.4,2,2,0,0,0,.11-2.55A2.39,2.39,0,0,0,196,48.6a6.51,6.51,0,0,0-4.82,1.19,2.85,2.85,0,0,0-.61,3.94A5.63,5.63,0,0,0,198.25,56a7.78,7.78,0,0,0,3.16-3.07,7.9,7.9,0,0,0-.73-9.09,5.83,5.83,0,0,0-4.42-2.23,24.13,24.13,0,0,0-12.65,2.8c-4.93,2.69-5.33,10.22-2.53,13.33a17.55,17.55,0,0,0,4.68,3.92,15.35,15.35,0,0,0,6.8,2.18,12.9,12.9,0,0,0,9.28-3.53A22.77,22.77,0,0,0,209,48a20.72,20.72,0,0,0,.13-6.76c-.12-1.05-.33-2.09-.51-3.14-.73-4.37-3.29-7.41-7.05-9.53a15.32,15.32,0,0,0-7.5-2,35.13,35.13,0,0,0-11.83,2,37.59,37.59,0,0,0-8.66,4.41,19,19,0,0,0-4,3.77,31.17,31.17,0,0,0-5.87,10.71,18.15,18.15,0,0,0,2.36,16.38C166.67,64.8,167.23,65.69,167.81,66.56Z" fill="currentColor"/><path d="M148.7,5.71c.61.26,1.15.33,1.44.64A9.71,9.71,0,0,1,152,8.66a14.93,14.93,0,0,1,1.39,9.06,29.46,29.46,0,0,1-2.8,9.06A29.73,29.73,0,0,1,138.61,39a24.63,24.63,0,0,1-13.84,3.21,20.3,20.3,0,0,1-14.24-6.59,12.34,12.34,0,0,1-3-7.08,15.29,15.29,0,0,1,1.36-8.47,29.71,29.71,0,0,1,12-13.3c1.33-.8,2.7-1.52,4.1-2.19a8.57,8.57,0,0,1,2.21-.68c3.87-.68,6.59,1.19,8.55,4.23A15.73,15.73,0,0,1,133.44,28a9.5,9.5,0,0,1-8.28,2.93,6.83,6.83,0,0,1-5.67-7.29,5.09,5.09,0,0,1,1.28-2.86,13.36,13.36,0,0,1,6.09-3.66,3.62,3.62,0,0,1,1.67-.07,2,2,0,0,1,1,.7A.78.78,0,0,1,129,19a10.14,10.14,0,0,0-4.28,1.74A8.81,8.81,0,0,0,123.28,22a4.08,4.08,0,0,0-1,4.5,3,3,0,0,0,2.24,2.07,7,7,0,0,0,5.86-1.06,11.37,11.37,0,0,0,3.76-4.24,13.67,13.67,0,0,0,1.28-11.81,19.13,19.13,0,0,0-1.1-2.28,6.18,6.18,0,0,0-7.13-2.78,21.81,21.81,0,0,0-4.45,2,29.16,29.16,0,0,0-11.51,12.14,13.75,13.75,0,0,0-.15,12.28A11.13,11.13,0,0,0,116.73,38a21,21,0,0,0,10.69,2,21.62,21.62,0,0,0,9.52-2.57c7.76-4.38,12.71-10.83,14.4-19.65a18,18,0,0,0,.18-5.28,8.74,8.74,0,0,0-1.83-4.67C149.27,7.32,148.59,6.9,148.7,5.71Z" fill="currentColor"/><path d="M5.51,4.34A3.74,3.74,0,0,0,9.09,9.73,12.81,12.81,0,0,0,14.92,8a2.54,2.54,0,0,0,.87-3.92,3.81,3.81,0,0,0-3.41-1.78,4.28,4.28,0,0,1-3.52-1A5.19,5.19,0,0,0,5.51,4.34ZM12,3.91a6.4,6.4,0,0,1,1.82.41.91.91,0,0,1,.38,1.53A1,1,0,0,1,14.1,6,9.19,9.19,0,0,1,7.94,7.64a.79.79,0,0,1-.67-.92C7.36,5.6,7.75,5,9,3.89,10.09,3.89,11.07,3.85,12,3.91Z" fill="currentColor"/><path d="M127.15,131.34a5.65,5.65,0,0,1,.67.73c.65,1.08.52,1.72-.6,2.18a4.67,4.67,0,0,0-2.78,3.24.86.86,0,0,0,.86,1.16,4.15,4.15,0,0,0,4.69-4c0-.35,0-.7.06-1a.72.72,0,0,1,1.11.34,3.87,3.87,0,0,1-.38,4.7,6.48,6.48,0,0,1-4.86,2.23,3.33,3.33,0,0,1-3.43-4.23,6.28,6.28,0,0,1,1.5-3A8.61,8.61,0,0,1,127.15,131.34Z" fill="currentColor"/><path d="M270.75,127.39a13.2,13.2,0,0,0-1.8,1,2.69,2.69,0,0,0-1.07,2.79,2.79,2.79,0,0,0,2.72,1.25,3.16,3.16,0,0,0,3-3.95c-.14-.67-.31-1.34-.52-2.25.45.15.75.15.9.3a4.79,4.79,0,0,1,1,5.09,3.84,3.84,0,0,1-3.6,2.79,4.46,4.46,0,0,1-5.23-5,4.57,4.57,0,0,1,1.8-3.22,1.69,1.69,0,0,1,1.76-.43A1.47,1.47,0,0,1,270.75,127.39Z" fill="currentColor"/><path d="M139.93,71.61a3.91,3.91,0,0,0-.65,2A2.26,2.26,0,0,0,141.94,76a5.21,5.21,0,0,0,4.42-4,4.16,4.16,0,0,0-.31-2.66c-.32-.72-.61-1.43-1.67-1.66A14.2,14.2,0,0,0,139.93,71.61ZM142,73.39c.14-1.12.38-1.39,1.88-2.16C143.65,72.64,143.48,72.84,142,73.39Z" fill="currentColor"/><path d="M71.91,66.85a1.29,1.29,0,0,1,1.39,1.09,3.79,3.79,0,0,1,.08,1.86c-.63,2.36-3.83,4.17-6.24,3.61a3.88,3.88,0,0,1-2.68-3.88A5.24,5.24,0,0,1,68,64.91c1.07-.38,1.35-.21,2,1.26-.33.19-.67.4-1,.58a4.31,4.31,0,0,0-2.23,2.16,4.14,4.14,0,0,0-.25,1.43,1,1,0,0,0,1.08,1.07A3.69,3.69,0,0,0,70.72,70,5.14,5.14,0,0,0,71.91,66.85Z" fill="currentColor"/><path d="M9.69,172.28a6.66,6.66,0,0,0-.85,2.37,3,3,0,0,0,.92,2.71,2,2,0,0,0,1.71.64A5.38,5.38,0,0,0,15,176.25a3.08,3.08,0,0,0,.61-3.36c-.47-1.18-1.9-1.66-2.33-2.93-.07-.2-.45-.29-.77-.48A8.77,8.77,0,0,0,9.69,172.28Zm3.51,2.25a2.12,2.12,0,0,1-1.9.95.92.92,0,0,1-.06-1.23A4.52,4.52,0,0,1,13.46,172,2.4,2.4,0,0,1,13.2,174.53Z" fill="currentColor"/><path d="M92.32,40.25a2.94,2.94,0,0,0,.47-3.66c-.37-.68-.7-1.37-1.08-2a1.1,1.1,0,0,0-1.6-.48,8.61,8.61,0,0,0-3.54,3.8,3.46,3.46,0,0,0-.31,1.42,2.67,2.67,0,0,0,2.27,2.6A6.13,6.13,0,0,0,92.32,40.25Zm-1.74-3.76a.63.63,0,0,1,.5.82,2.46,2.46,0,0,1-1.58,2.07,3.35,3.35,0,0,1-1,0A4.45,4.45,0,0,1,90.58,36.49Z" fill="currentColor"/><path d="M181.24,11a2.09,2.09,0,0,0,.24-1.63A4.41,4.41,0,0,0,180.08,7a3,3,0,0,0-2.33-.83,4.59,4.59,0,0,0-3.42,2.26,3.45,3.45,0,0,0,.1,3.63,2.56,2.56,0,0,0,2.42,1.22C178.71,13.12,180.31,12.68,181.24,11Zm-3-.24a2.25,2.25,0,0,1-2.22.06c-.09-1.24.84-1.67,1.67-2.16s1.33-.11,1.92.47A2,2,0,0,1,178.24,10.74Z" fill="currentColor"/><path d="M265.75,104.68a5.43,5.43,0,0,1-.35-2.26c-.07-2.62,0-5.24-.28-7.83a21.78,21.78,0,0,0-5.56-13A41,41,0,0,0,245.12,71.4a54.47,54.47,0,0,0-17.84-4.31,24.68,24.68,0,0,0-7.17.42,7.59,7.59,0,0,0-5.31,4.17,13,13,0,0,0-1.13,3.18,38.63,38.63,0,0,0-.9,5.65,14.06,14.06,0,0,0,1,6.22A25.93,25.93,0,0,0,224.48,99a22.13,22.13,0,0,0,11.68,3.3c4.48.08,10-3.54,11.69-6.68a14.71,14.71,0,0,0,1.47-5.06,19.09,19.09,0,0,0-.55-7.77,10.48,10.48,0,0,0-6.2-7.08,18.26,18.26,0,0,0-3.85-1.11,43.79,43.79,0,0,0-4.85-.5,17.52,17.52,0,0,0-4.82.57,6,6,0,0,0-4.4,4.16,3.81,3.81,0,0,0,.13,2.89,20.37,20.37,0,0,0,5,7.31,22.47,22.47,0,0,0,2.78,2.28c2.46,1.68,5.93.8,7.55-.57a3.59,3.59,0,0,0,1.1-1.75,5.82,5.82,0,0,0-1-5.21c-.26-.34-.54-.66-.82-1-1.23-1.33-1.78-1.39-3.25-.36l-.58.42a1.07,1.07,0,0,1-1-1.07,2,2,0,0,1,.63-1.72,3.39,3.39,0,0,1,4.47-.24c2.39,2.14,4.15,4.65,4,8.08-.14,2.57-1.12,4.6-3.61,5.75a10,10,0,0,1-4.09,1,7.29,7.29,0,0,1-4.58-1.36,23,23,0,0,1-4-3.71,27.94,27.94,0,0,1-4.11-6.4,7.68,7.68,0,0,1,.72-8,5.8,5.8,0,0,1,2.92-2.35,15.88,15.88,0,0,1,5.15-1.11,37.2,37.2,0,0,1,7.38.44c5.64,1,10.35,4.58,11.71,10.78A22.18,22.18,0,0,1,250.42,95a12.77,12.77,0,0,1-4.82,6.29A16.86,16.86,0,0,1,231.11,104a24.9,24.9,0,0,1-10.34-5.09,33.78,33.78,0,0,1-6.17-6.36,22.56,22.56,0,0,1-3.77-10,9.82,9.82,0,0,1,0-2.54,45.51,45.51,0,0,1,1.21-7.31c1.2-4.3,3.89-7,8.35-7.64a37.15,37.15,0,0,1,6.33-.31,53.53,53.53,0,0,1,15.13,2.88,43.82,43.82,0,0,1,17.2,10.09,28.53,28.53,0,0,1,5.25,6.62,21.78,21.78,0,0,1,2.61,8.24,25.47,25.47,0,0,1-.73,11.11A9.71,9.71,0,0,1,265.75,104.68Z" fill="currentColor"/><path d="M269.16,28.12a13.81,13.81,0,0,1-2.88,9.15A20.84,20.84,0,0,1,260.86,42a57.58,57.58,0,0,1-8.76,4.26,16.35,16.35,0,0,1-8.35.79,22.24,22.24,0,0,1-10.45-4.33A11.67,11.67,0,0,1,229.46,38a19.56,19.56,0,0,1-1.7-8.86,19.22,19.22,0,0,1,3.64-10.46A43.21,43.21,0,0,1,246.63,4.81a53.41,53.41,0,0,1,11.64-5c1.3-.35,2.62-.58,3.94-.81a8.5,8.5,0,0,1,3.37.12A2.54,2.54,0,0,1,267.5.92a.87.87,0,0,1-.14.75,1.79,1.79,0,0,1-.76.31c-.05,0-.14,0-.2-.05-1.72-1.06-3.54-.71-5.35-.36a42.4,42.4,0,0,0-11.29,4.12,41.59,41.59,0,0,0-14.17,11.24A27.72,27.72,0,0,0,231,24.28a18.06,18.06,0,0,0-.15,12.26,8.08,8.08,0,0,0,2.79,3.89,21.18,21.18,0,0,0,10.59,4.51,13.32,13.32,0,0,0,6.46-.69,45,45,0,0,0,10.49-5.47,12.4,12.4,0,0,0,5.4-7.83,18.74,18.74,0,0,0-.92-10.42,5.51,5.51,0,0,0-1.77-2.34,12.12,12.12,0,0,0-9.72-2.61,28.22,28.22,0,0,0-6.68,2,15.48,15.48,0,0,0-5.6,4.11,7.88,7.88,0,0,0-1.73,4,9.25,9.25,0,0,0,1,6.16,6.47,6.47,0,0,0,5.33,3.38,9.82,9.82,0,0,0,6.8-1.87,5,5,0,0,0,2.26-4.54,2.64,2.64,0,0,0-2-2.64,14.34,14.34,0,0,0-2.29-.29c-.44-.05-.84-.13-.95-.66s.15-.89.76-1.1a4.12,4.12,0,0,1,4.35.82c3.35,3.07,2.89,6.72.23,9.52a11.64,11.64,0,0,1-11.42,2.44,9.43,9.43,0,0,1-4-3,12.05,12.05,0,0,1-.64-13.37,12.49,12.49,0,0,1,5.13-4.32,30.08,30.08,0,0,1,8.41-2.81,14.25,14.25,0,0,1,8.1.89,11.79,11.79,0,0,1,7.19,8.8C268.83,24.74,268.93,26.45,269.16,28.12Z" fill="currentColor"/><path d="M223.82,132.13a6.66,6.66,0,0,0-.85,2.37,3,3,0,0,0,.91,2.7,2,2,0,0,0,1.72.64,5.33,5.33,0,0,0,3.53-1.75,3.06,3.06,0,0,0,.6-3.36c-.46-1.18-1.89-1.66-2.32-2.92-.07-.2-.45-.3-.77-.49A8.79,8.79,0,0,0,223.82,132.13Zm3.51,2.25a2.09,2.09,0,0,1-1.9.94.92.92,0,0,1-.06-1.23,4.48,4.48,0,0,1,2.22-2.29A2.44,2.44,0,0,1,227.33,134.38Z" fill="currentColor"/><path d="M64.86,263.74a5.31,5.31,0,0,1-1.14-2c-1-2.42-1.91-4.88-3.06-7.21a21.75,21.75,0,0,0-9.85-10.18,40.84,40.84,0,0,0-17.13-4.32,54.45,54.45,0,0,0-18.2,2.35,24.69,24.69,0,0,0-6.54,2.95,7.6,7.6,0,0,0-3.47,5.8,13.11,13.11,0,0,0,.08,3.37,41,41,0,0,0,1.18,5.6,13.88,13.88,0,0,0,3.17,5.44,25.89,25.89,0,0,0,14.37,7.61,22.1,22.1,0,0,0,12.09-1.09c4.2-1.53,8.09-6.89,8.52-10.42a14.68,14.68,0,0,0-.43-5.25,19,19,0,0,0-3.29-7.06A10.43,10.43,0,0,0,32.84,245a16.82,16.82,0,0,0-4,.34,40.75,40.75,0,0,0-4.7,1.26,17.89,17.89,0,0,0-4.31,2.25,6,6,0,0,0-2.61,5.47,3.81,3.81,0,0,0,1.15,2.65A20.46,20.46,0,0,0,25.62,262,22.75,22.75,0,0,0,29,263.12c2.89.68,5.82-1.38,6.85-3.23a3.57,3.57,0,0,0,.39-2,5.81,5.81,0,0,0-2.79-4.52c-.36-.22-.74-.42-1.12-.61-1.61-.8-2.15-.66-3.16.83l-.39.6a1.06,1.06,0,0,1-1.31-.64,1.92,1.92,0,0,1,0-1.83,3.35,3.35,0,0,1,4.07-1.82c3,1.13,5.55,2.85,6.59,6.12.79,2.45.61,4.7-1.31,6.66A9.84,9.84,0,0,1,33.37,265a7.23,7.23,0,0,1-4.77.37,23.44,23.44,0,0,1-5.11-2,28.41,28.41,0,0,1-6.12-4.5,7.71,7.71,0,0,1-2.19-7.76,5.76,5.76,0,0,1,1.88-3.23A15.82,15.82,0,0,1,21.48,245a36.94,36.94,0,0,1,7-2.23c5.64-1.06,11.31.58,14.8,5.88a22.26,22.26,0,0,1,3.76,11.53,12.83,12.83,0,0,1-2.25,7.59,16.85,16.85,0,0,1-12.56,7.74,24.85,24.85,0,0,1-11.48-1,34.12,34.12,0,0,1-8-3.73,22.7,22.7,0,0,1-7.11-8,10.34,10.34,0,0,1-.87-2.39,43.38,43.38,0,0,1-1.49-7.25c-.42-4.45,1.13-7.93,5.07-10.13a36.47,36.47,0,0,1,5.79-2.55,53.6,53.6,0,0,1,15.17-2.72A44,44,0,0,1,49,241a28.9,28.9,0,0,1,7.27,4.31A21.63,21.63,0,0,1,61.64,252a25.4,25.4,0,0,1,3.29,10.64C64.94,262.93,64.9,263.19,64.86,263.74Z" fill="currentColor"/><path d="M65.42,196.45a13.79,13.79,0,0,1-2.87,9.15,20.89,20.89,0,0,1-5.43,4.69,57.48,57.48,0,0,1-8.75,4.26,16.37,16.37,0,0,1-8.35.79A22.15,22.15,0,0,1,29.57,211a11.69,11.69,0,0,1-3.85-4.72,19.56,19.56,0,0,1-1.7-8.86A19.23,19.23,0,0,1,27.67,187,43.13,43.13,0,0,1,42.9,173.14a53.69,53.69,0,0,1,11.64-5c1.29-.35,2.62-.58,3.94-.81a8.51,8.51,0,0,1,3.37.12,2.54,2.54,0,0,1,1.92,1.79.88.88,0,0,1-.15.75c-.16.19-.49.23-.75.32a.31.31,0,0,1-.2-.06c-1.72-1.06-3.55-.71-5.35-.36A42.62,42.62,0,0,0,46,174a41.59,41.59,0,0,0-14.17,11.24,27.75,27.75,0,0,0-4.56,7.35,18.12,18.12,0,0,0-.15,12.26,8,8,0,0,0,2.8,3.89,21.11,21.11,0,0,0,10.58,4.51,13.19,13.19,0,0,0,6.46-.69,45,45,0,0,0,10.49-5.47,12.42,12.42,0,0,0,5.41-7.83A18.79,18.79,0,0,0,62,188.87a5.65,5.65,0,0,0-1.77-2.35,12.14,12.14,0,0,0-9.72-2.61,28.32,28.32,0,0,0-6.69,2,15.43,15.43,0,0,0-5.6,4.1,7.86,7.86,0,0,0-1.72,4,9.13,9.13,0,0,0,1,6.16,6.47,6.47,0,0,0,5.33,3.38,9.82,9.82,0,0,0,6.8-1.87,5,5,0,0,0,2.26-4.54,2.64,2.64,0,0,0-2-2.64,15.93,15.93,0,0,0-2.29-.29c-.45-.05-.85-.13-1-.66s.15-.89.76-1.1a4.1,4.1,0,0,1,4.35.83c3.35,3.06,2.9,6.71.24,9.51a9.93,9.93,0,0,1-6,2.87,10,10,0,0,1-5.41-.43,9.46,9.46,0,0,1-4-3,12,12,0,0,1-.63-13.37A12.64,12.64,0,0,1,41,184.55a30.08,30.08,0,0,1,8.41-2.81,14.23,14.23,0,0,1,8.09.89,11.78,11.78,0,0,1,7.2,8.8C65.09,193.07,65.2,194.78,65.42,196.45Z" fill="currentColor"/><path d="M91.9,250.56a21.67,21.67,0,0,1,2.15-10.26,35.22,35.22,0,0,1,14.81-16.41,43,43,0,0,1,13.56-5.27,11.69,11.69,0,0,1,4.21-.26,2.28,2.28,0,0,1,1.94,2,.77.77,0,0,1-.62.94,10.51,10.51,0,0,1-2.74.07,13.1,13.1,0,0,0-6.24.73,37.67,37.67,0,0,0-16.67,10.1,33.33,33.33,0,0,0-6.68,10.48,22.09,22.09,0,0,0-1.34,12.47,12,12,0,0,0,5.12,8.22,27.18,27.18,0,0,0,8.95,4.23,12.53,12.53,0,0,0,6.29-.07,17.39,17.39,0,0,0,11.8-9.22,22.27,22.27,0,0,0,2.58-8.45,13.65,13.65,0,0,0-2.88-9.11,5.43,5.43,0,0,0-4.9-2,17.73,17.73,0,0,0-5.8,1.13,24.45,24.45,0,0,0-4,2,7.76,7.76,0,0,0-3.58,4.8,5.84,5.84,0,0,0,4.54,7.34,5,5,0,0,0,3.51-.36,1.6,1.6,0,0,0,.7-2.6,14.12,14.12,0,0,1-.87-1.44.91.91,0,0,1,.1-.77,1,1,0,0,1,.75-.21c1.89.2,3.67,3.86,2.23,5.66a4.71,4.71,0,0,1-3.12,2,10.4,10.4,0,0,1-4.8-.34,8.79,8.79,0,0,1-5.54-7.59,10,10,0,0,1,5.42-9.18,21.45,21.45,0,0,1,9.71-2.71,8.2,8.2,0,0,1,8.31,4.72,22.3,22.3,0,0,1,2.13,5.74,12.88,12.88,0,0,1,.1,4.63,26.45,26.45,0,0,1-3,8.8,18.25,18.25,0,0,1-8.48,8,19.28,19.28,0,0,1-10.29,1.81,4.6,4.6,0,0,1-.84-.09,27.1,27.1,0,0,1-12-6.42,15.63,15.63,0,0,1-4.56-10.44C91.84,252.26,91.9,251.41,91.9,250.56Z" fill="currentColor"/><path d="M207.49,257.45a9.29,9.29,0,0,1-1.66,3.13,22.5,22.5,0,0,1-7.14,6.52c-1.68.92-3.3,1.92-5.05,2.69a20.4,20.4,0,0,1-12.22,1.52,24.59,24.59,0,0,1-8-3.2A41.61,41.61,0,0,1,162.59,259a49.54,49.54,0,0,1-4-5.43,16.29,16.29,0,0,1-2.5-12.34,13.23,13.23,0,0,1,4.29-7.39,23.48,23.48,0,0,1,15.56-5.76,14,14,0,0,1,5.56,1.23c4.57,1.91,8.33,4.76,10.63,9.27a11.88,11.88,0,0,1,1.31,6.77,9.92,9.92,0,0,1-4.6,7.29,12.41,12.41,0,0,1-11.33,1.57,19.47,19.47,0,0,1-8.74-5.75,7.41,7.41,0,0,1-.9-9,9.94,9.94,0,0,1,5.07-4.6c3.13-1.16,6-.79,8.43,1.58a15.22,15.22,0,0,1,2.54,3.37c1.53,2.75.06,5.62-3,6.28-4,.86-6.14-1.93-6.83-4.47a3.64,3.64,0,0,1,.56-3c.12-.17.44-.21.83-.38a10.94,10.94,0,0,0,.19,1.81c.12.45.48.83.64,1.27a4.14,4.14,0,0,0,5.51,2.42,1.28,1.28,0,0,0,.79-1.73c-1.58-3.75-4.4-6.32-8.68-5.45a7.39,7.39,0,0,0-5.44,5.4,4.64,4.64,0,0,0,.89,3.81,15.19,15.19,0,0,0,4.45,4.19,15.56,15.56,0,0,0,9,2.7,10.92,10.92,0,0,0,6.75-2.72,6.88,6.88,0,0,0,2.2-6.74,12.16,12.16,0,0,0-2.69-5.69,20.59,20.59,0,0,0-8.68-6.24c-4.33-1.71-8.62-1.2-12.83.41a19.81,19.81,0,0,0-6.56,3.79,10.93,10.93,0,0,0-3.54,8.75,15.48,15.48,0,0,0,2.81,8.32,44.81,44.81,0,0,0,13.72,13.35,21.44,21.44,0,0,0,13.72,3.48,19.41,19.41,0,0,0,4.32-1,30.41,30.41,0,0,0,12.45-7.78c.63-.66,1.18-1.4,1.8-2.08A11.69,11.69,0,0,1,207.49,257.45Z" fill="currentColor"/><path d="M171.94,216.44a4.58,4.58,0,0,1-2.25-1.89A19,19,0,0,1,166,197a29.19,29.19,0,0,1,6-11.55,26.26,26.26,0,0,1,7.68-6.26,38.94,38.94,0,0,1,11.56-4,28.09,28.09,0,0,1,7.38-.47,17.8,17.8,0,0,1,8.64,3.19,15.31,15.31,0,0,1,6.36,9.19,33.46,33.46,0,0,1,1.2,8.16A20.78,20.78,0,0,1,211.22,207a20.22,20.22,0,0,1-4.5,5.3c-4.35,3.37-9.08,4.35-14.32,2.3a18.84,18.84,0,0,1-6.71-4.32,12.42,12.42,0,0,1-3.76-10,9.65,9.65,0,0,1,5.37-8.3,20.77,20.77,0,0,1,7.27-2.16,26.82,26.82,0,0,1,4-.29c2.63.05,5,.69,6.66,3,.69,1,1.37,2,2,3a6.4,6.4,0,0,1,.92,3.65,11.59,11.59,0,0,1-1.55,5.66,7.47,7.47,0,0,1-8.21,3.49c-2.38-.47-3.87-2.2-5.1-4.17a5.63,5.63,0,0,1-.79-3,4.06,4.06,0,0,1,2.26-3.8,7.88,7.88,0,0,1,6.56-.35,3.68,3.68,0,0,1,2,1.78,7.53,7.53,0,0,1,.89,3,2.75,2.75,0,0,1-.86,2.3.88.88,0,0,1-1.5-.39,1.32,1.32,0,0,1,.2-1.4,2.06,2.06,0,0,0,.11-2.55,2.41,2.41,0,0,0-2.08-1.27,6.49,6.49,0,0,0-4.81,1.19,2.84,2.84,0,0,0-.61,3.94,5.62,5.62,0,0,0,7.7,2.24,7.78,7.78,0,0,0,3.16-3.07,7.92,7.92,0,0,0-.72-9.1,5.85,5.85,0,0,0-4.42-2.22,24.18,24.18,0,0,0-12.66,2.8c-4.92,2.69-5.32,10.21-2.52,13.33a17.4,17.4,0,0,0,4.68,3.92,15.31,15.31,0,0,0,6.79,2.18,12.92,12.92,0,0,0,9.29-3.53,22.84,22.84,0,0,0,7.16-12.24,20.72,20.72,0,0,0,.13-6.76c-.13-1-.33-2.09-.51-3.14a13.14,13.14,0,0,0-7.05-9.53,15.21,15.21,0,0,0-7.5-2,34.88,34.88,0,0,0-11.83,2,37.59,37.59,0,0,0-8.66,4.41,19,19,0,0,0-4,3.77,31.17,31.17,0,0,0-5.87,10.71,18.15,18.15,0,0,0,2.36,16.38C170.8,214.68,171.36,215.56,171.94,216.44Z" fill="currentColor"/><path d="M148.14,160.67a4.65,4.65,0,0,1,1.44.65,9.33,9.33,0,0,1,1.81,2.31,14.88,14.88,0,0,1,1.39,9.05,29.37,29.37,0,0,1-2.8,9.06A29.69,29.69,0,0,1,138.05,194a24.65,24.65,0,0,1-13.85,3.21,20.26,20.26,0,0,1-14.23-6.6,12.31,12.31,0,0,1-3-7.08,15.27,15.27,0,0,1,1.36-8.46,29.62,29.62,0,0,1,12-13.31c1.33-.79,2.7-1.51,4.1-2.19a8.55,8.55,0,0,1,2.21-.67c3.87-.68,6.59,1.18,8.55,4.23,4.42,6.85,2.65,14.83-2.3,19.83a9.53,9.53,0,0,1-8.28,2.93,6.83,6.83,0,0,1-5.67-7.29,5.06,5.06,0,0,1,1.28-2.86,13.29,13.29,0,0,1,6.09-3.67A3.62,3.62,0,0,1,128,172a2,2,0,0,1,1,.69.78.78,0,0,1-.49,1.29,10,10,0,0,0-4.28,1.75,8.81,8.81,0,0,0-1.48,1.18,4.07,4.07,0,0,0-1,4.49,3,3,0,0,0,2.24,2.07,7,7,0,0,0,5.86-1.05,11.45,11.45,0,0,0,3.76-4.24,13.67,13.67,0,0,0,1.28-11.81,20,20,0,0,0-1.1-2.29,6.18,6.18,0,0,0-7.13-2.78,21.31,21.31,0,0,0-4.45,2,29.13,29.13,0,0,0-11.51,12.13,13.75,13.75,0,0,0-.15,12.28,11.11,11.11,0,0,0,5.64,5.25,20.91,20.91,0,0,0,10.69,2,21.49,21.49,0,0,0,9.52-2.57c7.76-4.38,12.71-10.83,14.4-19.65a18,18,0,0,0,.18-5.28,8.77,8.77,0,0,0-1.83-4.67C148.71,162.28,148,161.87,148.14,160.67Z" fill="currentColor"/><path d="M12.7,147.4a3.74,3.74,0,0,0,3.58,5.39,12.81,12.81,0,0,0,5.83-1.72,2.54,2.54,0,0,0,.87-3.92,3.81,3.81,0,0,0-3.41-1.78,4.28,4.28,0,0,1-3.52-1A5.22,5.22,0,0,0,12.7,147.4Zm6.53-.43a6.33,6.33,0,0,1,1.82.41.91.91,0,0,1,.38,1.53.66.66,0,0,1-.14.15,9.19,9.19,0,0,1-6.16,1.64.79.79,0,0,1-.67-.92c.09-1.12.49-1.74,1.74-2.83C17.28,147,18.26,146.91,19.23,147Z" fill="currentColor"/><path d="M80.28,272.6a6.49,6.49,0,0,1,.67.73c.65,1.08.52,1.72-.6,2.18a4.64,4.64,0,0,0-2.78,3.24.85.85,0,0,0,.85,1.16,4.16,4.16,0,0,0,4.7-4c0-.35,0-.7.06-1a.73.73,0,0,1,1.11.34,3.89,3.89,0,0,1-.38,4.7,6.48,6.48,0,0,1-4.86,2.23,3.32,3.32,0,0,1-3.43-4.23,6.35,6.35,0,0,1,1.49-3A8.73,8.73,0,0,1,80.28,272.6Z" fill="currentColor"/><path d="M144.06,229.1a3.78,3.78,0,0,0-.65,2,2.26,2.26,0,0,0,2.66,2.47,5.23,5.23,0,0,0,4.42-4,4.19,4.19,0,0,0-.31-2.67c-.32-.72-.61-1.43-1.67-1.65A14.07,14.07,0,0,0,144.06,229.1Zm2.06,1.78c.14-1.12.38-1.4,1.88-2.17C147.78,230.13,147.61,230.33,146.12,230.88Z" fill="currentColor"/><path d="M76,224.33a1.31,1.31,0,0,1,1.39,1.1,3.76,3.76,0,0,1,.08,1.85c-.63,2.36-3.83,4.17-6.24,3.62A3.87,3.87,0,0,1,68.59,227a5.24,5.24,0,0,1,3.5-4.61c1.08-.38,1.36-.22,2,1.25-.34.19-.67.41-1,.59a4.28,4.28,0,0,0-2.23,2.16,3.86,3.86,0,0,0-.26,1.43,1,1,0,0,0,1.09,1.07,3.69,3.69,0,0,0,3.16-1.4A5.12,5.12,0,0,0,76,224.33Z" fill="currentColor"/><path d="M91,188.6a3,3,0,0,0,.47-3.67c-.37-.67-.69-1.37-1.07-2a1.12,1.12,0,0,0-1.61-.48,8.73,8.73,0,0,0-3.54,3.8,3.62,3.62,0,0,0-.31,1.42,2.69,2.69,0,0,0,2.27,2.61A6.2,6.2,0,0,0,91,188.6Zm-1.74-3.77a.63.63,0,0,1,.5.83,2.45,2.45,0,0,1-1.58,2.06,3.35,3.35,0,0,1-1,0A4.51,4.51,0,0,1,89.22,184.83Z" fill="currentColor"/><path d="M179.08,151.14a2.05,2.05,0,0,0,.25-1.63,4.49,4.49,0,0,0-1.41-2.32,2.93,2.93,0,0,0-2.32-.83,4.62,4.62,0,0,0-3.43,2.26,3.45,3.45,0,0,0,.11,3.63,2.56,2.56,0,0,0,2.42,1.22C176.56,153.28,178.15,152.84,179.08,151.14Zm-3-.25a2.27,2.27,0,0,1-2.22.07c-.09-1.24.83-1.67,1.67-2.16s1.32-.12,1.91.47A1.92,1.92,0,0,1,176.09,150.89Z" fill="currentColor"/><path d="M2.58,223.15c.72-.42.71-1.1.89-1.69a.66.66,0,0,1,1-.44,2.48,2.48,0,0,1,.64,3.35,2.28,2.28,0,0,1-3.29.74,4.19,4.19,0,0,1-1.7-4.25,6.42,6.42,0,0,1,3.27-4.2,1.21,1.21,0,0,1,1.8.49c.41.67.3,1.16-.48,1.48a4.58,4.58,0,0,0-2.55,3.14A1,1,0,0,0,2.58,223.15Z" fill="currentColor"/><path d="M274.17,252.61a5.65,5.65,0,0,1-.83-2.08c-.67-2.48-1.24-5-2.06-7.44a21,21,0,0,0-7.88-11,34.31,34.31,0,0,0-15-5.81,44.8,44.8,0,0,0-16.63.74,21.22,21.22,0,0,0-6.19,2.36,7.75,7.75,0,0,0-3.69,5.46,14.65,14.65,0,0,0-.25,3.37,42.67,42.67,0,0,0,.51,5.67,14.43,14.43,0,0,0,2.33,5.7,23,23,0,0,0,12.21,8.84,18.3,18.3,0,0,0,11,0c3.94-1.15,8-6.14,8.69-9.62a16,16,0,0,0,.13-5.26,20.14,20.14,0,0,0-2.29-7.32,9.25,9.25,0,0,0-7.07-5.1,14.3,14.3,0,0,0-3.64,0,34.56,34.56,0,0,0-4.36.84,15.9,15.9,0,0,0-4.1,1.86c-1.93,1.14-2.67,3-2.89,5.21a4,4,0,0,0,.79,2.74,18.65,18.65,0,0,0,6,5.67,19.66,19.66,0,0,0,3,1.43c2.54.93,5.38-.86,6.49-2.62a3.79,3.79,0,0,0,.55-2,5.92,5.92,0,0,0-2.08-4.74c-.3-.25-.62-.48-.94-.71-1.38-.94-1.88-.84-2.93.55-.16.21-.31.43-.42.56-.67.11-.94-.28-1.11-.75a2.12,2.12,0,0,1,.15-1.82,3,3,0,0,1,3.86-1.46c2.59,1.4,4.71,3.33,5.34,6.68.47,2.51.09,4.73-1.83,6.51a9.23,9.23,0,0,1-3.35,2.07,6.07,6.07,0,0,1-4.34-.06,19.64,19.64,0,0,1-4.4-2.46,25.69,25.69,0,0,1-5.08-5,8.24,8.24,0,0,1-1.23-7.91,6.06,6.06,0,0,1,2-3.05,14.31,14.31,0,0,1,4.26-2.48,31.5,31.5,0,0,1,6.57-1.6,12.05,12.05,0,0,1,12.77,7.16,23.86,23.86,0,0,1,2.27,11.8,13.84,13.84,0,0,1-2.77,7.36,15.15,15.15,0,0,1-12.07,6.6,20.62,20.62,0,0,1-10.25-2.06,29.48,29.48,0,0,1-6.87-4.42,22,22,0,0,1-5.63-8.6,11,11,0,0,1-.56-2.44,48.84,48.84,0,0,1-.63-7.36c.05-4.46,1.79-7.79,5.55-9.63a31.85,31.85,0,0,1,5.47-2,44.32,44.32,0,0,1,13.93-1.37,36.38,36.38,0,0,1,17.41,5,25.61,25.61,0,0,1,6.14,4.93,21.43,21.43,0,0,1,4.19,7.2,27.41,27.41,0,0,1,1.94,10.88C274.33,251.81,274.26,252.07,274.17,252.61Z" fill="currentColor"/><path d="M270.73,180.85a13.83,13.83,0,0,1-2.88,9.15,20.81,20.81,0,0,1-5.42,4.68,58.59,58.59,0,0,1-8.76,4.27,16.45,16.45,0,0,1-8.35.78,22.24,22.24,0,0,1-10.45-4.33,11.6,11.6,0,0,1-3.84-4.72,19.56,19.56,0,0,1-1.7-8.86A19.25,19.25,0,0,1,233,171.36a43.21,43.21,0,0,1,15.23-13.83,53.9,53.9,0,0,1,11.64-5c1.3-.35,2.62-.58,3.94-.81a8.5,8.5,0,0,1,3.37.12,2.54,2.54,0,0,1,1.92,1.79.87.87,0,0,1-.14.75c-.17.19-.5.23-.76.32a.33.33,0,0,1-.2-.06c-1.72-1.06-3.54-.71-5.35-.36a43.1,43.1,0,0,0-11.29,4.12,41.59,41.59,0,0,0-14.17,11.24,27.88,27.88,0,0,0-4.55,7.35,18.06,18.06,0,0,0-.15,12.26,8.08,8.08,0,0,0,2.79,3.89,21.18,21.18,0,0,0,10.59,4.51,13.08,13.08,0,0,0,6.46-.69,45,45,0,0,0,10.49-5.47,12.35,12.35,0,0,0,5.4-7.82,18.73,18.73,0,0,0-.92-10.42,5.54,5.54,0,0,0-1.77-2.35,12.12,12.12,0,0,0-9.72-2.61,28.71,28.71,0,0,0-6.68,2,15.34,15.34,0,0,0-5.6,4.1,7.88,7.88,0,0,0-1.73,4,9.24,9.24,0,0,0,1,6.16,6.47,6.47,0,0,0,5.33,3.38A9.86,9.86,0,0,0,255,186.1a5,5,0,0,0,2.25-4.53,2.65,2.65,0,0,0-2-2.65,15.58,15.58,0,0,0-2.29-.29c-.44,0-.84-.13-1-.65s.15-.9.76-1.11a4.12,4.12,0,0,1,4.35.83c3.35,3.06,2.89,6.71.23,9.51a9.9,9.9,0,0,1-6,2.87,10,10,0,0,1-5.42-.43,9.43,9.43,0,0,1-4-3,12.05,12.05,0,0,1-.64-13.37,12.64,12.64,0,0,1,5.13-4.32,30.08,30.08,0,0,1,8.41-2.81,14.25,14.25,0,0,1,8.1.89,11.79,11.79,0,0,1,7.19,8.8C270.4,177.46,270.5,179.17,270.73,180.85Z" fill="currentColor"/><path d="M208.85,160a3.75,3.75,0,0,0,3.58,5.4,12.94,12.94,0,0,0,5.83-1.72,2.54,2.54,0,0,0,.87-3.92,3.82,3.82,0,0,0-3.4-1.79,4.28,4.28,0,0,1-3.53-1A5.23,5.23,0,0,0,208.85,160Zm6.53-.42a6.24,6.24,0,0,1,1.82.4.91.91,0,0,1,.38,1.53.54.54,0,0,1-.14.16,9.19,9.19,0,0,1-6.16,1.64.8.8,0,0,1-.67-.92c.09-1.12.49-1.74,1.74-2.83C213.43,159.51,214.41,159.46,215.38,159.53Z" fill="currentColor"/><path d="M219.77,271.65a6.66,6.66,0,0,0-.85,2.37,3,3,0,0,0,.92,2.7,2,2,0,0,0,1.71.64,5.33,5.33,0,0,0,3.53-1.75,3.08,3.08,0,0,0,.61-3.36c-.47-1.18-1.9-1.66-2.33-2.92-.07-.2-.45-.29-.77-.49A8.79,8.79,0,0,0,219.77,271.65Zm3.51,2.25a2.09,2.09,0,0,1-1.9.94.92.92,0,0,1-.06-1.23,4.52,4.52,0,0,1,2.22-2.29A2.44,2.44,0,0,1,223.28,273.9Z" fill="currentColor"/></pattern></defs><rect width="283.46" height="283.46" fill="url(#a)"/></svg>
