<svg xmlns="http://www.w3.org/2000/svg" xmlns:xlink="http://www.w3.org/1999/xlink" viewBox="0 0 283.46 283.46"><defs><pattern id="a" width="283.46" height="283.46" patternUnits="userSpaceOnUse" viewBox="0 0 283.46 283.46"><rect width="283.46" height="283.46" fill="none"/><path d="M60.69,286.79V277.7a1.24,1.24,0,0,1,.73-1.37,1.48,1.48,0,0,1,1.68.57,3.17,3.17,0,0,1,.49,1.31c.08.71,0,1.44,0,2.15,0,4.63-.05,9.25.11,13.87a42.28,42.28,0,0,0,1.17,10.44.79.79,0,0,1-1.09,1,2.51,2.51,0,0,1-1.8-1.75,8.47,8.47,0,0,1-.32-1.39c-.3-2.94-.66-5.86-.83-8.8-.14-2.31,0-4.63,0-6.94Z" fill="currentColor"/><path d="M133.09,268.39a2.11,2.11,0,0,1,1.64,1.15,5.84,5.84,0,0,1,.44,1.36q1.11,4.67,2.17,9.33A61.5,61.5,0,0,0,141,291.86c.24.52.5,1,0,1.52a1.44,1.44,0,0,1-2,0,5,5,0,0,1-1.07-1.53,45.56,45.56,0,0,1-2.59-7.7c-.77-2.84-1.35-5.74-2-8.61-.39-1.63-.8-3.25-1.19-4.88a4.61,4.61,0,0,1-.19-1.16A1.32,1.32,0,0,1,133.09,268.39Z" fill="currentColor"/><path d="M172.41,283.34a2.75,2.75,0,0,1,.87.41,4.69,4.69,0,0,1,1,1.29q4.22,8.44,8.4,16.9a7.53,7.53,0,0,1,.38.88,1.35,1.35,0,0,1-.6,1.64,1.29,1.29,0,0,1-1.51-.4,4.35,4.35,0,0,1-.82-1.16q-3-5.85-5.93-11.73-1.33-2.66-2.63-5.36a5.27,5.27,0,0,1-.44-1.34C171.07,284,171.7,283.37,172.41,283.34Z" fill="currentColor"/><path d="M291.27,80.72a6.16,6.16,0,0,1,1,.68c.53.56.57.94.19,1.49-.28.39-.61.74-.91,1.11-3.15,3.94-6.63,7.58-10.11,11.23a26.61,26.61,0,0,0-2.64,3.09,40.17,40.17,0,0,0-2,3.52,1.66,1.66,0,0,1-1.7-2.11,5.16,5.16,0,0,1,.85-2c1.1-1.47,2.22-2.94,3.45-4.3,3.27-3.61,6.6-7.17,9.91-10.75C289.93,82.09,290.55,81.48,291.27,80.72Z" fill="currentColor"/><path d="M289.29,184.87a1.54,1.54,0,0,1-2-1.15,11.46,11.46,0,0,0-3-4.26c-.12-.11-.22-.24-.33-.35a32.81,32.81,0,0,1-7.35-10.82,12.35,12.35,0,0,0-2.42-4.07,5.35,5.35,0,0,1-.89-2.64,1.12,1.12,0,0,1,.6-.88,1.14,1.14,0,0,1,1,.24,10,10,0,0,1,1.55,2.11c.81,1.55,1.59,3.14,2.25,4.76a30.89,30.89,0,0,0,6.28,9.54c1.2,1.27,2.3,2.65,3.38,4A4.1,4.1,0,0,1,289.29,184.87Z" fill="currentColor"/><path d="M286.84,133.55c-1.47-.19-3-.32-4.47-.58a3.76,3.76,0,0,1-2.64-1.49c-.29-.44-.43-.94,0-1.31a1.28,1.28,0,0,1,1.06-.28c4.25,1.53,8.52.71,12.79.23,1-.11,2.06-.21,3.09-.27a3.67,3.67,0,0,1,1.19.1,1.39,1.39,0,0,1,1.06,1.17c.08.46-.41.88-1.12,1-1.65.28-3.28.62-4.94.83C290.85,133.2,288.87,133.35,286.84,133.55Z" fill="currentColor"/><path d="M40,22a5.52,5.52,0,0,1-1.16.76c-3.27,1.14-6.11,3.09-9,4.91a86.38,86.38,0,0,0-16,13.22c-.23.23-.42.49-.66.7a1.31,1.31,0,0,1-1.75,0,1.37,1.37,0,0,1-.37-1.9,9,9,0,0,1,1.26-1.43c2-1.9,4.06-3.81,6.17-5.64a84.63,84.63,0,0,1,11.17-8.15q2.64-1.64,5.42-3a12.94,12.94,0,0,1,2.93-1C39.11,20.22,39.43,20.52,40,22Z" fill="currentColor"/><path d="M53.94,92.49c2.09-.46,2.58-.21,2.93,1.32.26,1.17.46,2.35.69,3.52A87.49,87.49,0,0,0,63,114.65q1.44,3.42,2.86,6.84c.18.43.42.92,0,1.33s-1,.28-1.58.11a2.73,2.73,0,0,1-1.61-1.68c-1.43-3.37-2.92-6.73-4.22-10.16a96.61,96.61,0,0,1-4.33-16.4A20.4,20.4,0,0,1,53.94,92.49Z" fill="currentColor"/><path d="M147.51,18.75c-.11.15-.24.51-.49.62a10.25,10.25,0,0,1-1.8.59q-8.5,2.09-17,4.14A54.27,54.27,0,0,0,116.66,28a1.17,1.17,0,0,1-1.7-.27c-.58-.67-.56-1.43.19-1.81a31.27,31.27,0,0,1,4.8-2.17c3.81-1.19,7.66-2.26,11.53-3.27,4-1.05,8.07-2,12.11-3a17,17,0,0,1,2.35-.42A1.66,1.66,0,0,1,147.51,18.75Z" fill="currentColor"/><path d="M29.57,179.14a13.71,13.71,0,0,1,1.16,1.26,1.24,1.24,0,0,1-.07,1.56,21.86,21.86,0,0,1-1.7,2c-4,3.92-8,7.77-12,11.73-1.52,1.52-2.83,3.24-4.21,4.9a5.17,5.17,0,0,1-2.48,1.88,2.94,2.94,0,0,1-.76-.44c-.67-.68-.75-1.2-.17-1.9,1.58-1.9,3.09-3.87,4.85-5.61,4.65-4.6,9.42-9.09,13.75-14A17.44,17.44,0,0,1,29.57,179.14Z" fill="currentColor"/><path d="M147.16,178.13a9.44,9.44,0,0,1-.63,1.11c-1.29,1.72-2.58,3.44-3.91,5.13a91.81,91.81,0,0,1-7.74,9.08c-1.76,1.73-3.58,3.4-5.37,5.09a6.19,6.19,0,0,1-.55.47,1.19,1.19,0,0,1-1.53.11,1.43,1.43,0,0,1-.21-1.94,8.83,8.83,0,0,1,1-1.05,122.49,122.49,0,0,0,13-14.92c1.1-1.46,2.24-2.89,3.4-4.31a1.19,1.19,0,0,1,1.48-.44A2.13,2.13,0,0,1,147.16,178.13Z" fill="currentColor"/><path d="M105.32,9.2c-3.23-.4-5.82,1-8.45,2.38a70.86,70.86,0,0,0-11.89,8c-.93.75-1.72,1.67-2.61,2.47a1.23,1.23,0,0,1-1.73.17,1.48,1.48,0,0,1-.38-2.12,19.41,19.41,0,0,1,2.84-2.89c2-1.57,4.17-3,6.21-4.49a52.21,52.21,0,0,1,7.85-4.58,17.55,17.55,0,0,1,5.49-1.62,2.3,2.3,0,0,1,2.55,1.37A4.23,4.23,0,0,1,105.32,9.2Z" fill="currentColor"/><path d="M17.67,161.44c.9-1.91,1.69-3.65,2.54-5.36,1.69-3.43,3.41-6.84,5.13-10.26l4.07-8.11c.28-.57.5-1.17.79-1.74.4-.81.95-1.12,1.47-.89a1.66,1.66,0,0,1,1,1.94,12.29,12.29,0,0,1-.7,1.77c-1.35,2.8-2.69,5.6-4.07,8.38q-3.24,6.53-6.52,13a5.33,5.33,0,0,1-.86,1.42,2.53,2.53,0,0,1-1.37.82A1.36,1.36,0,0,1,17.67,161.44Z" fill="currentColor"/><path d="M98.05,216.11c-.39.32-.68.74-1,.75a6,6,0,0,1-1.87-.3,50.5,50.5,0,0,1-8.31-3.68,69,69,0,0,1-10.6-7c-1.56-1.25-3.2-2.4-4.82-3.56a2.37,2.37,0,0,1-1.08-1.51c-.14-.71.64-1.51,1.31-1.28a5.61,5.61,0,0,1,1.47.78c1.49,1.07,3,2.16,4.42,3.3A68.55,68.55,0,0,0,95.23,213.7a7.63,7.63,0,0,1,1.91,1A5.33,5.33,0,0,1,98.05,216.11Z" fill="currentColor"/><path d="M124.12,50c-2.56-.35-4.85-.65-7.14-1-6.24-.9-12.39-2.25-18.54-3.67-.62-.14-1.23-.32-1.84-.5a2.55,2.55,0,0,1-.66-.27,1.63,1.63,0,0,1-.7-1.65,1.28,1.28,0,0,1,1.58-.72c2.11.44,4.22.86,6.31,1.38,5,1.24,10,2,15.06,2.75,1.57.24,3.16.36,4.74.56a6,6,0,0,1,1.39.33,1.72,1.72,0,0,1,1,1.77A1.18,1.18,0,0,1,124.12,50Z" fill="currentColor"/><path d="M179.23,208a24.57,24.57,0,0,1-1.59,2.1c-1.64,1.76-3.33,3.45-5,5.18q-4.41,4.58-8.81,9.17c-.49.51-.88,1.13-1.32,1.69a5.29,5.29,0,0,1-.77.91c-.44.34-.92.73-1.52.37a1.63,1.63,0,0,1-.78-2,8.63,8.63,0,0,1,1.22-1.76c2.74-3,5.45-6.07,8.28-9,2.44-2.53,5.11-4.84,7.19-7.71a3,3,0,0,1,.5-.51,1.29,1.29,0,0,1,1.9.24A10,10,0,0,1,179.23,208Z" fill="currentColor"/><path d="M54.63,140.08c2.78,3.72,6.69,6.14,10.28,8.93,2.71,2.11,5.45,4.19,8.14,6.32a17.76,17.76,0,0,1,2.07,2,2.44,2.44,0,0,1,.42,2.69,1,1,0,0,1-1.41.41,1.4,1.4,0,0,1-.38-.3c-1.76-2.44-4.35-4-6.63-5.83-3.65-3-7.4-5.83-11.06-8.81a27.4,27.4,0,0,1-3-3.1,2,2,0,0,1-.34-2.24,1,1,0,0,1,1.56-.4C54.41,139.85,54.52,140,54.63,140.08Z" fill="currentColor"/><path d="M53.14,59.18s-.27.31-.53.3a4,4,0,0,1-1.56-.36c-.39-.19-.36-.92,0-1.53a10.75,10.75,0,0,1,.67-1c3.46-4.69,6.86-9.41,10.69-13.82,1.78-2,3.43-4.2,5.16-6.29a1.78,1.78,0,0,1,2.51-.57,1.06,1.06,0,0,1,.45,1.24A5.25,5.25,0,0,1,70,38c-2.12,2.59-4.27,5.17-6.36,7.78S59.26,51.22,57.1,54C55.82,55.62,54.58,57.28,53.14,59.18Z" fill="currentColor"/><path d="M60.69,3.33V-5.76a1.25,1.25,0,0,1,.73-1.38,1.49,1.49,0,0,1,1.68.58,3.17,3.17,0,0,1,.49,1.31c.08.71,0,1.43,0,2.15,0,4.62-.05,9.25.11,13.87A42.2,42.2,0,0,0,64.91,21.2a.8.8,0,0,1-1.09,1A2.53,2.53,0,0,1,62,20.46a8.58,8.58,0,0,1-.32-1.4c-.3-2.93-.66-5.86-.83-8.8-.14-2.3,0-4.62,0-6.93Z" fill="currentColor"/><path d="M164.14,134a14.9,14.9,0,0,1,1.16,1.2,1.14,1.14,0,0,1-.13,1.53,13.88,13.88,0,0,1-1,1l-11.55,11.11c-.92.89-1.84,1.77-2.74,2.68a9.49,9.49,0,0,0-2.71,4.43c-.11.48-.3.93-.84,1.06s-1.25-.46-1.44-1.05a1.82,1.82,0,0,1-.12-.94,8,8,0,0,1,.71-2.24,13.68,13.68,0,0,1,2.05-2.63c2.9-2.85,5.88-5.62,8.79-8.46,2.11-2.06,4.15-4.19,6.24-6.27C163,135,163.47,134.56,164.14,134Z" fill="currentColor"/><path d="M55.11,213.43c-.13.15-.28.49-.53.59a3.91,3.91,0,0,1-1.38.32c-4.63.27-9.25.48-13.88.78a59.46,59.46,0,0,0-12.1,1.52,4.27,4.27,0,0,1-.93.19A1.63,1.63,0,0,1,25,215.61a1.13,1.13,0,0,1,.84-1.27,21,21,0,0,1,5.36-1.21q4.65-.45,9.31-.8c3.66-.28,7.33-.51,11-.73a12.86,12.86,0,0,1,2.15,0A2,2,0,0,1,55.11,213.43Z" fill="currentColor"/><path d="M186,160.9l-.95-.45a1.41,1.41,0,0,1-.8-1.58c.11-1,.28-2.05.36-3.08q.78-9.64,1.53-19.3a5.92,5.92,0,0,1,.21-1.4,1.21,1.21,0,0,1,1.8-.49,2.92,2.92,0,0,1,1.22,3.13c-.92,4.87-1.07,9.81-1.52,14.73q-.32,3.33-.69,6.65C187.06,159.82,187,160.56,186,160.9Z" fill="currentColor"/><path d="M65.05,167.92a11,11,0,0,1-.65,1.51c-1.12,1.84-2.19,3.71-3.44,5.45-2.5,3.5-5.05,7-7.7,10.34a44.21,44.21,0,0,1-4,4.08c-.47.46-1,.39-1.5,0a.91.91,0,0,1-.26-1.26,4.79,4.79,0,0,1,.57-.77c3.71-4,6.66-8.53,9.73-13,1.49-2.16,2.81-4.44,4.2-6.67a9.29,9.29,0,0,1,.48-.82,1.31,1.31,0,0,1,1.48-.51A1.71,1.71,0,0,1,65.05,167.92Z" fill="currentColor"/><path d="M130.05,101.58a4.29,4.29,0,0,1,1.31-.26,1.36,1.36,0,0,1,1.23,1,19.54,19.54,0,0,1,.45,3.3c.08,4.47.07,9,.11,13.42,0,2.55.11,5.11.14,7.66a14.61,14.61,0,0,1-.14,2.39,1.27,1.27,0,0,1-.6.89,1.56,1.56,0,0,1-1.09-.29,2,2,0,0,1-.73-1.7c-.12-1.83-.29-3.66-.32-5.49-.07-3.68,0-7.35-.09-11-.06-2.95-.23-5.9-.34-8.85C130,102.33,130,102,130.05,101.58Z" fill="currentColor"/><path d="M109.86,136.13a2,2,0,0,1,1.83,1.13,3.46,3.46,0,0,1,.17,1.84,17.17,17.17,0,0,0-.62,4.71c-.07,1.75-.09,3.5-.14,5.25a40.38,40.38,0,0,0,.83,9.5,17,17,0,0,1,.31,2.85,5.43,5.43,0,0,1-.24,1.64,1.09,1.09,0,0,1-1.58.54,2.07,2.07,0,0,1-1.11-1.73c-.56-5.93-1.42-11.86-.93-17.85.15-1.91.3-3.81.49-5.72a6,6,0,0,1,.43-1.6C109.4,136.44,109.71,136.26,109.86,136.13Z" fill="currentColor"/><path d="M133.09-15.08a2.09,2.09,0,0,1,1.64,1.16,5.55,5.55,0,0,1,.44,1.36q1.11,4.65,2.17,9.32A61.5,61.5,0,0,0,141,8.39c.24.52.5,1,0,1.53a1.44,1.44,0,0,1-2,0,5.14,5.14,0,0,1-1.07-1.53,45.56,45.56,0,0,1-2.59-7.7c-.77-2.85-1.35-5.74-2-8.62-.39-1.63-.8-3.25-1.19-4.87a4.76,4.76,0,0,1-.19-1.17A1.33,1.33,0,0,1,133.09-15.08Z" fill="currentColor"/><path d="M28.52,81.42a7.56,7.56,0,0,1,0,1.43,1,1,0,0,1-.55.69,1.46,1.46,0,0,1-1.09-.16,2.76,2.76,0,0,1-.93-2.12c-.19-1.66-.42-3.32-.57-5q-.54-5.59-1-11.2a27.29,27.29,0,0,0-1.73-7.41c-.14-.38-.32-.74-.43-1.12a1,1,0,0,1,.53-1.39.91.91,0,0,1,1.24.39,19,19,0,0,1,1.62,3.17,28.77,28.77,0,0,1,1.46,7c.31,3.49.61,7,.95,10.48.17,1.74.4,3.48.6,5.22Z" fill="currentColor"/><path d="M191.65,87.1l-4.14-.46c-4.83-.53-9.67-1-14.51-1.57-1.26-.15-2.51-.46-3.76-.7a3,3,0,0,1-2-1.24,1.18,1.18,0,0,1-.18-1.34,1.07,1.07,0,0,1,1.24-.48c.62.14,1.22.4,1.84.51,1.81.31,3.62.64,5.45.85,4.76.52,9.53,1,14.29,1.47.71.08,1.42.21,2.12.36a2.43,2.43,0,0,1,.86.41c.52.37.87,1.3.62,1.67S192.63,87.25,191.65,87.1Z" fill="currentColor"/><path d="M99.06,65.82c.13-.19.27-.69.54-.77a1.87,1.87,0,0,1,1.34.12A2.44,2.44,0,0,1,102,67c.32,2.22.64,4.43.94,6.64a25.82,25.82,0,0,1,.26,2.62c.16,4.18,1.16,8.21,1.95,12.29a7.58,7.58,0,0,1,.19,1.89,1.18,1.18,0,0,1-.64.87,1.24,1.24,0,0,1-1.08-.25,3.13,3.13,0,0,1-.83-1.41c-.73-3.43-1.57-6.86-2-10.33-.56-4.19-.75-8.43-1.53-12.6C99.13,66.48,99.12,66.24,99.06,65.82Z" fill="currentColor"/><path d="M7.81,80.72a7.16,7.16,0,0,1,1,.68c.52.56.56.94.18,1.49-.28.39-.6.74-.9,1.11C5,87.94,1.49,91.58-2,95.23a28.71,28.71,0,0,0-2.64,3.09,40.17,40.17,0,0,0-2,3.52,1.66,1.66,0,0,1-1.7-2.11,5.18,5.18,0,0,1,.86-2c1.09-1.47,2.22-2.94,3.45-4.3,3.27-3.61,6.6-7.17,9.91-10.75C6.47,82.09,7.08,81.48,7.81,80.72Z" fill="currentColor"/><path d="M154.14,44c0,.69,0,1.24,0,1.77-.51,3.56-1.1,7.11-1.56,10.68-.29,2.22-.41,4.45-.59,6.68a17,17,0,0,1-.19,2.15,3.75,3.75,0,0,1-.66,1.5,1.22,1.22,0,0,1-1,.4,1.3,1.3,0,0,1-.75-.8,5.72,5.72,0,0,1-.2-1.66,44.91,44.91,0,0,1,.25-7.42c.53-3.55,1-7.12,1.55-10.68a11,11,0,0,1,.75-2.51,1.19,1.19,0,0,1,.9-.63A6.13,6.13,0,0,1,154.14,44Z" fill="currentColor"/><path d="M153,93.11a.84.84,0,0,1-.92.67,2.33,2.33,0,0,1-.69-.17,62.37,62.37,0,0,0-9-3.26c-3.72-1.22-7.49-2.27-11.23-3.41a4.58,4.58,0,0,1-1.34-.5,2.7,2.7,0,0,1-.88-1.07,1.09,1.09,0,0,1,1.21-1.52c1,.24,2,.6,3,.86A153.39,153.39,0,0,1,150,90.17a12.4,12.4,0,0,1,1.94.94A2.29,2.29,0,0,1,153,93.11Z" fill="currentColor"/><path d="M206.21,121.83c0,.94-.71,1.45-1.32,1.12a3.46,3.46,0,0,1-.94-.72c-2.81-3.26-5.68-6.48-8.38-9.84-1.94-2.43-3.66-5-5.45-7.58a6.94,6.94,0,0,1-.77-1.48,1.08,1.08,0,0,1,.37-1.48,1,1,0,0,1,1.49.21c.71.86,1.36,1.78,2,2.69,1.57,2.21,3.05,4.49,4.72,6.62,2.12,2.7,4.41,5.27,6.61,7.89a19.36,19.36,0,0,1,1.32,1.7A3.38,3.38,0,0,1,206.21,121.83Z" fill="currentColor"/><path d="M13.24,6,2.49,5.45a2.11,2.11,0,0,1-2-1,1.08,1.08,0,0,1,.89-1.71h.48q9.56.44,19.1.89a20.81,20.81,0,0,1,2.6.35,1.68,1.68,0,0,1,1.34,1.22c.24.73-.12,1.3-.91,1.27-2.7-.12-5.41-.29-8.11-.41C15,6,14.11,6,13.24,6Z" fill="currentColor"/><path d="M172.41-.12a2.75,2.75,0,0,1,.87.41,4.41,4.41,0,0,1,1,1.29q4.22,8.43,8.4,16.9a6.74,6.74,0,0,1,.38.87,1.36,1.36,0,0,1-.6,1.65,1.29,1.29,0,0,1-1.51-.41,4.3,4.3,0,0,1-.82-1.15c-2-3.9-4-7.82-5.93-11.73Q172.89,5,171.59,2.35A5.34,5.34,0,0,1,171.15,1C171.07.53,171.7-.1,172.41-.12Z" fill="currentColor"/><path d="M192.21,188.17c-1.48-.47-3-.84-4.35-1.42A27.66,27.66,0,0,1,181,182.5a65.66,65.66,0,0,1-6.81-6.74,3,3,0,0,1-.88-1.91c0-.64.8-1.25,1.33-.9a12,12,0,0,1,1.6,1.42c1.83,1.78,3.57,3.67,5.5,5.34a24.48,24.48,0,0,0,9.55,5.32,8.47,8.47,0,0,1,1.14.38,2.94,2.94,0,0,1,.77.55c.44.42.63,1.18.3,1.51A5.77,5.77,0,0,1,192.21,188.17Z" fill="currentColor"/><path d="M114.1,276.34c-1.48-.47-3-.84-4.35-1.42a27.58,27.58,0,0,1-6.92-4.26A65.56,65.56,0,0,1,96,263.93a3,3,0,0,1-.88-1.91c0-.65.8-1.26,1.33-.9a12,12,0,0,1,1.6,1.42c1.84,1.78,3.57,3.67,5.5,5.34a24.52,24.52,0,0,0,9.56,5.32,6.53,6.53,0,0,1,1.13.38,3,3,0,0,1,.77.54c.44.43.63,1.19.3,1.51A5.31,5.31,0,0,1,114.1,276.34Z" fill="currentColor"/><path d="M20,105.83a3.71,3.71,0,0,1,.84.12,5.2,5.2,0,0,1,1,.61c4.06,3.23,8.74,5.23,13.57,6.93,1.05.37,2.08.81,3.09,1.28a3.1,3.1,0,0,1,1.8,2.38,1.45,1.45,0,0,1-.06.93,1.87,1.87,0,0,1-.84.76.91.91,0,0,1-.77-.38,4.78,4.78,0,0,0-3-2.12,56.93,56.93,0,0,1-11.94-5.44c-1.2-.78-2.34-1.66-3.48-2.53a1.62,1.62,0,0,1-.74-1.65A2.85,2.85,0,0,1,20,105.83Z" fill="currentColor"/><path d="M59,71.79a5,5,0,0,1,1.16.58,17.83,17.83,0,0,0,6.59,3.28,43.79,43.79,0,0,0,8.38,2,21.31,21.31,0,0,1,3,.63,2.78,2.78,0,0,1,2,1.88.92.92,0,0,1-1,1.22c-.31,0-.61-.17-.92-.24-1.08-.26-2.15-.59-3.25-.75a53.56,53.56,0,0,1-11.54-3.07,10.58,10.58,0,0,1-4.76-3.08,1.94,1.94,0,0,1-.47-1.27C58.3,72.55,58.73,72.22,59,71.79Z" fill="currentColor"/><path d="M5.83,184.87a1.53,1.53,0,0,1-2-1.15,11.37,11.37,0,0,0-3-4.26c-.11-.11-.21-.24-.32-.35a33,33,0,0,1-7.36-10.82,12.18,12.18,0,0,0-2.42-4.07,5.45,5.45,0,0,1-.88-2.64,1.1,1.1,0,0,1,.6-.88,1.14,1.14,0,0,1,1.05.24A10.29,10.29,0,0,1-7,163.05c.82,1.55,1.59,3.14,2.26,4.76a30.54,30.54,0,0,0,6.28,9.54c1.2,1.27,2.3,2.65,3.37,4A4.11,4.11,0,0,1,5.83,184.87Z" fill="currentColor"/><path d="M176.32,55.29a4.49,4.49,0,0,1-.85-.42,1.76,1.76,0,0,1-.63-1.73,17.09,17.09,0,0,1,.64-2.3,33.34,33.34,0,0,1,3.2-6.16c1.27-2,2.51-4.08,3.75-6.13.17-.27.28-.58.46-.84a1.36,1.36,0,0,1,1.85-.57c.86.52,1.18,1.17.82,2a28,28,0,0,1-1.56,3c-.9,1.51-1.85,3-2.82,4.46a33.9,33.9,0,0,0-3.48,6.81,6.67,6.67,0,0,1-.6,1.3A3.79,3.79,0,0,1,176.32,55.29Z" fill="currentColor"/><path d="M136.38,227.93c-.33.22-.7.68-1.06.67a6.24,6.24,0,0,1-2.06-.48,30.79,30.79,0,0,1-8.59-5.08c-2-1.68-3.9-3.51-5.83-5.28a3.29,3.29,0,0,1-.57-.76c-.45-.75-.43-1.29,0-1.73a1.18,1.18,0,0,1,1.71,0,16.48,16.48,0,0,1,1.24,1.12c.81.77,1.59,1.56,2.41,2.32a32.23,32.23,0,0,0,10.84,6.81,2.42,2.42,0,0,1,1.69,1.52A7.11,7.11,0,0,1,136.38,227.93Z" fill="currentColor"/><path d="M86.22,124.87c1-1,2.16-2.08,3.23-3.25,2.26-2.46,4.48-5,6.71-7.46a10.8,10.8,0,0,1,1-1.06,1.86,1.86,0,0,1,2.39.23,1.47,1.47,0,0,1-.16,2c-.66.68-1.44,1.26-2,2-2.77,3.51-6.11,6.48-9.17,9.73a3.3,3.3,0,0,1-1,.7,1.64,1.64,0,0,1-1.89-.65c-.33-.47-.09-.9.19-1.3S85.9,125.27,86.22,124.87Z" fill="currentColor"/><path d="M160.39,115.26c1.66,1.17,3.81,2.67,6,4.2a7.27,7.27,0,0,1,1.22,1.13,2,2,0,0,1,.36,1.8.8.8,0,0,1-1.12.54c-.67-.43-1.3-.92-1.93-1.4a82.86,82.86,0,0,0-13.7-8.67c-.64-.31-1.36-.47-2-.82a2.76,2.76,0,0,1-.94-1,1,1,0,0,1,.22-1.3,1.37,1.37,0,0,1,1.09-.24,26,26,0,0,1,3.73,1.57C155.51,112.31,157.68,113.65,160.39,115.26Z" fill="currentColor"/><path d="M91.15,173.93a3.11,3.11,0,0,1,.84.38,22.54,22.54,0,0,1,1.82,1.55,67.17,67.17,0,0,0,10.94,8.49,11.1,11.1,0,0,1,2.18,1.82,1.1,1.1,0,0,1,.12,1.52,1.6,1.6,0,0,1-1.9.58,2.21,2.21,0,0,1-1-.69,6.25,6.25,0,0,0-2.33-2c-3.9-2.53-7.26-5.72-10.78-8.72A2.94,2.94,0,0,1,90,175.07,1.05,1.05,0,0,1,91.15,173.93Z" fill="currentColor"/><path d="M156.22,273.21a3.23,3.23,0,0,1,.65-.66,21.33,21.33,0,0,1,2.09-1.16,67.28,67.28,0,0,0,11.78-7.27,11.57,11.57,0,0,1,2.47-1.4,1.11,1.11,0,0,1,1.47.42,1.61,1.61,0,0,1-.12,2,2.19,2.19,0,0,1-1,.65,6.28,6.28,0,0,0-2.69,1.47c-3.74,2.77-7.9,4.8-11.94,7.05a2.92,2.92,0,0,1-2.06.42A1,1,0,0,1,156.22,273.21Z" fill="currentColor"/><path d="M3.38,133.55c-1.48-.19-3-.32-4.48-.58a3.76,3.76,0,0,1-2.63-1.49c-.29-.44-.43-.94,0-1.31a1.27,1.27,0,0,1,1.06-.28c4.24,1.53,8.51.71,12.78.23,1-.11,2.07-.21,3.1-.27a3.61,3.61,0,0,1,1.18.1,1.37,1.37,0,0,1,1.06,1.17c.08.46-.41.88-1.11,1-1.65.28-3.29.62-4.94.83C7.39,133.2,5.4,133.35,3.38,133.55Z" fill="currentColor"/><path d="M254.23,16.86a5.74,5.74,0,0,1-1.16.75c-3.27,1.15-6.11,3.1-9,4.92a85.92,85.92,0,0,0-16,13.22,8.53,8.53,0,0,1-.65.69,1.31,1.31,0,0,1-1.75,0,1.38,1.38,0,0,1-.37-1.91,9,9,0,0,1,1.26-1.43c2-1.9,4.06-3.8,6.16-5.63a85.47,85.47,0,0,1,11.18-8.16c1.75-1.09,3.57-2.09,5.41-3a13.19,13.19,0,0,1,2.94-1C253.31,15.05,253.62,15.35,254.23,16.86Z" fill="currentColor"/><path d="M254,83.79c2.09-.47,2.58-.22,2.93,1.31.26,1.17.46,2.35.69,3.52A87.49,87.49,0,0,0,263,105.94q1.44,3.42,2.86,6.85c.17.43.42.91,0,1.33s-1,.27-1.57.1a2.71,2.71,0,0,1-1.61-1.68c-1.43-3.37-2.92-6.73-4.22-10.16A96.26,96.26,0,0,1,254.15,86,20.62,20.62,0,0,1,254,83.79Z" fill="currentColor"/><path d="M240.61,187.84a13.71,13.71,0,0,1,1.16,1.26,1.24,1.24,0,0,1-.06,1.56,20.48,20.48,0,0,1-1.71,2c-4,3.92-8,7.77-12,11.73-1.52,1.52-2.83,3.24-4.21,4.9a5.17,5.17,0,0,1-2.48,1.88,2.94,2.94,0,0,1-.76-.44c-.67-.68-.75-1.2-.17-1.9,1.58-1.9,3.1-3.87,4.85-5.61,4.65-4.6,9.42-9.09,13.75-14A17.44,17.44,0,0,1,240.61,187.84Z" fill="currentColor"/><path d="M228.71,171.92c.9-1.91,1.69-3.65,2.54-5.36,1.69-3.43,3.42-6.84,5.13-10.26l4.07-8.11c.28-.57.5-1.18.79-1.74.4-.81.95-1.12,1.47-.9a1.69,1.69,0,0,1,1,1.95,11.28,11.28,0,0,1-.71,1.77c-1.35,2.8-2.69,5.6-4.07,8.38q-3.24,6.53-6.52,13a5.58,5.58,0,0,1-.85,1.42,2.61,2.61,0,0,1-1.38.82A1.37,1.37,0,0,1,228.71,171.92Z" fill="currentColor"/><path d="M257.68,136.32c3.62,2.92,8,4.29,12.18,6.1,3.15,1.37,6.32,2.7,9.46,4.1a17.24,17.24,0,0,1,2.5,1.42,2.44,2.44,0,0,1,1.08,2.49,1,1,0,0,1-1.27.76,1.6,1.6,0,0,1-.44-.2c-2.32-1.93-5.2-2.76-7.87-4-4.28-2-8.62-3.81-12.9-5.79a26.16,26.16,0,0,1-3.67-2.25,2,2,0,0,1-.89-2.09,1,1,0,0,1,1.41-.77Z" fill="currentColor"/><path d="M247.45,59.64s-.4,0-.56-.19a4,4,0,0,1-.79-1.4c-.13-.41.44-.88,1.13-1a9.55,9.55,0,0,1,1.18-.16c5.8-.6,11.59-1.27,17.42-1.39,2.71-.06,5.42-.29,8.13-.42a1.78,1.78,0,0,1,2.11,1.47,1.05,1.05,0,0,1-.62,1.16,4.34,4.34,0,0,1-.94.13c-3.35.18-6.7.33-10,.53-3.5.22-7,.47-10.5.73C251.9,59.23,249.84,59.43,247.45,59.64Z" fill="currentColor"/><path d="M275.12,232.11c-.13.15-.28.48-.53.59a4.34,4.34,0,0,1-1.38.32c-4.63.27-9.25.47-13.88.77a60.07,60.07,0,0,0-12.09,1.52,3.83,3.83,0,0,1-.94.19,1.63,1.63,0,0,1-1.32-1.21,1.14,1.14,0,0,1,.84-1.28,20.6,20.6,0,0,1,5.36-1.2c3.1-.3,6.2-.58,9.31-.81,3.66-.27,7.33-.5,11-.73a12.85,12.85,0,0,1,2.15,0A2,2,0,0,1,275.12,232.11Z" fill="currentColor"/><path d="M268.9,192.5a10.45,10.45,0,0,1-.65,1.5c-1.11,1.84-2.19,3.72-3.44,5.46-2.5,3.5-5.05,7-7.7,10.34a41.81,41.81,0,0,1-4,4.08c-.47.46-1,.39-1.49,0a.91.91,0,0,1-.26-1.26,4.74,4.74,0,0,1,.56-.77c3.72-4,6.67-8.53,9.74-13,1.49-2.16,2.8-4.44,4.19-6.67.17-.27.29-.58.48-.83a1.31,1.31,0,0,1,1.48-.5A1.71,1.71,0,0,1,268.9,192.5Z" fill="currentColor"/><path d="M228.82,93.47a7.47,7.47,0,0,1,0,1.42,1,1,0,0,1-.55.69,1.51,1.51,0,0,1-1.09-.15,2.78,2.78,0,0,1-.93-2.13c-.19-1.66-.42-3.32-.57-5-.35-3.73-.69-7.46-1-11.19a27.76,27.76,0,0,0-1.74-7.42c-.14-.37-.31-.73-.43-1.11A1,1,0,0,1,223,67.2a.9.9,0,0,1,1.24.38,20.22,20.22,0,0,1,1.63,3.17,29.43,29.43,0,0,1,1.45,7c.31,3.49.62,7,.95,10.48.17,1.74.4,3.48.61,5.22Z" fill="currentColor"/><path d="M213.57,48.92a6.63,6.63,0,0,1,1,.68c.53.56.57.94.18,1.48s-.6.75-.9,1.12c-3.15,3.94-6.64,7.58-10.11,11.22a26.71,26.71,0,0,0-2.64,3.1c-.77,1.09-1.34,2.32-2,3.52a1.66,1.66,0,0,1-1.69-2.11,5,5,0,0,1,.85-2,55,55,0,0,1,3.45-4.3c3.27-3.61,6.6-7.17,9.91-10.75C212.23,50.29,212.84,49.67,213.57,48.92Z" fill="currentColor"/><path d="M212.77,18.54,202,18a2.11,2.11,0,0,1-2-1,1.08,1.08,0,0,1,.89-1.71h.48q9.56.43,19.1.89a20.81,20.81,0,0,1,2.6.35,1.66,1.66,0,0,1,1.34,1.22c.24.73-.12,1.3-.91,1.27-2.7-.12-5.41-.29-8.11-.41C214.52,18.51,213.64,18.54,212.77,18.54Z" fill="currentColor"/><path d="M228,125.46a3,3,0,0,1,.29-.8,5.14,5.14,0,0,1,.79-.89c4-3.34,6.85-7.53,9.47-11.93.57-1,1.2-1.88,1.86-2.78a3.12,3.12,0,0,1,2.69-1.3,1.56,1.56,0,0,1,.9.25,1.84,1.84,0,0,1,.58,1,.9.9,0,0,1-.53.68,4.76,4.76,0,0,0-2.67,2.58,56.22,56.22,0,0,1-7.69,10.63c-1,1-2.09,2-3.16,2.91a1.65,1.65,0,0,1-1.78.4C228.43,126.05,228.22,125.69,228,125.46Z" fill="currentColor"/><path d="M261.86,26.38A5.19,5.19,0,0,1,263,27a17.83,17.83,0,0,0,6.59,3.28,43.62,43.62,0,0,0,8.38,2,21.31,21.31,0,0,1,3,.63,2.75,2.75,0,0,1,2,1.88.91.91,0,0,1-1,1.22c-.31,0-.61-.17-.92-.24-1.08-.26-2.15-.59-3.25-.75a53.41,53.41,0,0,1-11.54-3.07,10.66,10.66,0,0,1-4.77-3.08,2,2,0,0,1-.46-1.27C261.13,27.14,261.55,26.81,261.86,26.38Z" fill="currentColor"/><path d="M47.31,251a5.48,5.48,0,0,1-1.16.75c-3.27,1.15-6.11,3.1-9,4.92a85.92,85.92,0,0,0-16,13.22,8.64,8.64,0,0,1-.66.69,1.3,1.3,0,0,1-1.74,0,1.39,1.39,0,0,1-.38-1.91,10.08,10.08,0,0,1,1.26-1.43c2-1.9,4.07-3.8,6.17-5.63A84.7,84.7,0,0,1,37,253.43c1.76-1.09,3.57-2.09,5.42-3a12.94,12.94,0,0,1,2.93-1C46.39,249.17,46.71,249.47,47.31,251Z" fill="currentColor"/><path d="M157.35,244.74c-.11.15-.24.5-.48.61a9.61,9.61,0,0,1-1.81.6l-17,4.13A53.48,53.48,0,0,0,126.51,254a1.19,1.19,0,0,1-1.71-.28c-.58-.66-.56-1.43.19-1.81a32.26,32.26,0,0,1,4.8-2.17c3.81-1.19,7.66-2.25,11.53-3.26,4-1.06,8.07-2,12.11-3a15.9,15.9,0,0,1,2.35-.43A1.65,1.65,0,0,1,157.35,244.74Z" fill="currentColor"/><path d="M112.83,235.23c-3.22-.4-5.82,1-8.45,2.38a71.27,71.27,0,0,0-11.89,8c-.93.75-1.72,1.67-2.6,2.47a1.23,1.23,0,0,1-1.73.17,1.49,1.49,0,0,1-.39-2.12,20,20,0,0,1,2.85-2.89c2-1.57,4.16-3,6.21-4.49a51.72,51.72,0,0,1,7.85-4.58,17.27,17.27,0,0,1,5.49-1.61,2.28,2.28,0,0,1,2.55,1.36A4.28,4.28,0,0,1,112.83,235.23Z" fill="currentColor"/><path d="M69.26,244.45v-9.09A1.26,1.26,0,0,1,70,234a1.49,1.49,0,0,1,1.69.57,3.31,3.31,0,0,1,.49,1.31,19.25,19.25,0,0,1,0,2.15c0,4.62,0,9.25.11,13.87a41.69,41.69,0,0,0,1.18,10.43.8.8,0,0,1-1.1,1,2.53,2.53,0,0,1-1.8-1.75,8.33,8.33,0,0,1-.31-1.4c-.3-2.93-.67-5.86-.84-8.8-.13-2.3,0-4.62,0-6.93Z" fill="currentColor"/><path d="M200.63,208.18a2.11,2.11,0,0,1,1.65,1.15,6.27,6.27,0,0,1,.44,1.37q1.09,4.65,2.17,9.32a60.78,60.78,0,0,0,3.63,11.63c.23.52.5,1,0,1.53a1.44,1.44,0,0,1-2,0,5.17,5.17,0,0,1-1.08-1.53,45.52,45.52,0,0,1-2.58-7.7c-.77-2.85-1.36-5.75-2-8.62-.38-1.63-.8-3.25-1.19-4.87a6,6,0,0,1-.19-1.17A1.34,1.34,0,0,1,200.63,208.18Z" fill="currentColor"/><path d="M19.26,236.84c-2.08-2.93-4.15-5.85-6.24-8.77a2.12,2.12,0,0,1-.44-2.21,1.07,1.07,0,0,1,1.89-.37c.11.12.2.24.3.37,3.73,5.17,7.48,10.33,11.2,15.5a23.16,23.16,0,0,1,1.34,2.26,1.62,1.62,0,0,1-.13,1.8.87.87,0,0,1-1.55.08c-1.59-2.19-3.15-4.41-4.73-6.6C20.38,238.19,19.81,237.52,19.26,236.84Z" fill="currentColor"/><path d="M175.45,234a2.66,2.66,0,0,1,.87.41,4.41,4.41,0,0,1,1,1.29q4.23,8.43,8.4,16.9a6.74,6.74,0,0,1,.38.87,1.33,1.33,0,0,1-.6,1.65,1.28,1.28,0,0,1-1.5-.41,4.33,4.33,0,0,1-.83-1.15c-2-3.9-4-7.82-5.93-11.73q-1.33-2.67-2.63-5.36a5.34,5.34,0,0,1-.44-1.35C174.11,234.65,174.74,234,175.45,234Z" fill="currentColor"/><path d="M255.52,255.86a5.41,5.41,0,0,1-1.15.75c-3.28,1.15-6.11,3.1-9,4.92a85.92,85.92,0,0,0-16,13.22,8.53,8.53,0,0,1-.65.69,1.31,1.31,0,0,1-1.75,0,1.39,1.39,0,0,1-.38-1.91,9.56,9.56,0,0,1,1.27-1.43c2-1.9,4.06-3.8,6.16-5.63a85.29,85.29,0,0,1,11.17-8.15c1.76-1.09,3.58-2.1,5.42-3a12.86,12.86,0,0,1,2.94-1C254.6,254.05,254.92,254.35,255.52,255.86Z" fill="currentColor"/><path d="M213.69,259.89l-3.42,10.21a2.11,2.11,0,0,1-1.53,1.66,1.08,1.08,0,0,1-1.41-1.32,4,4,0,0,1,.13-.46c2-6.06,3.95-12.12,6-18.17a21.29,21.29,0,0,1,1-2.41,1.65,1.65,0,0,1,1.53-1c.77,0,1.22.46,1,1.21-.84,2.57-1.72,5.14-2.56,7.71C214.13,258.19,213.93,259.05,213.69,259.89Z" fill="currentColor"/><path d="M270.18,257.81a6.55,6.55,0,0,1,1.16.58,17.62,17.62,0,0,0,6.59,3.29,45.24,45.24,0,0,0,8.37,2,20.76,20.76,0,0,1,3,.63,2.75,2.75,0,0,1,2,1.88.92.92,0,0,1-1,1.22c-.31-.05-.61-.18-.92-.25-1.08-.26-2.16-.59-3.26-.75a54,54,0,0,1-11.53-3.06,10.66,10.66,0,0,1-4.77-3.08,2,2,0,0,1-.46-1.28C269.44,258.58,269.87,258.24,270.18,257.81Z" fill="currentColor"/><path d="M220.11,187.08a1.53,1.53,0,0,1-2-1.15,11.37,11.37,0,0,0-3-4.26c-.11-.11-.21-.24-.32-.35a33,33,0,0,1-7.36-10.82,12,12,0,0,0-2.42-4.07,5.45,5.45,0,0,1-.88-2.64,1.1,1.1,0,0,1,.6-.88,1.14,1.14,0,0,1,1.05.24,10.29,10.29,0,0,1,1.54,2.11,51.78,51.78,0,0,1,2.26,4.76,30.65,30.65,0,0,0,6.28,9.54c1.2,1.27,2.3,2.65,3.38,4A4.13,4.13,0,0,1,220.11,187.08Z" fill="currentColor"/><path d="M217.4,144.32c-.41,1.43-.77,2.91-1.26,4.34a3.74,3.74,0,0,1-1.88,2.37c-.47.22-1,.28-1.29-.17a1.3,1.3,0,0,1-.12-1.1c2.17-3.95,2-8.3,2.2-12.59,0-1,.12-2.07.21-3.1a3.81,3.81,0,0,1,.29-1.15,1.35,1.35,0,0,1,1.31-.87c.46,0,.81.54.82,1.25,0,1.68.1,3.35,0,5C217.68,140.31,217.52,142.29,217.4,144.32Z" fill="currentColor"/><path d="M-13.29,257.81a5.92,5.92,0,0,1,1.16.58,17.7,17.7,0,0,0,6.59,3.29,45.35,45.35,0,0,0,8.38,2,21.31,21.31,0,0,1,3,.63,2.77,2.77,0,0,1,2,1.88.93.93,0,0,1-1,1.22c-.31-.05-.61-.18-.92-.25-1.08-.26-2.15-.59-3.25-.75a54.12,54.12,0,0,1-11.54-3.06,10.58,10.58,0,0,1-4.76-3.08,2,2,0,0,1-.47-1.28C-14,258.58-13.59,258.24-13.29,257.81Z" fill="currentColor"/></pattern></defs><rect width="283.46" height="283.46" fill="url(#a)"/></svg>
