<svg xmlns="http://www.w3.org/2000/svg" xmlns:xlink="http://www.w3.org/1999/xlink" viewBox="0 0 283.46 283.46"><defs><pattern id="a" width="283.46" height="283.46" patternUnits="userSpaceOnUse" viewBox="0 0 283.46 283.46"><rect width="283.46" height="283.46" fill="none"/><path d="M55.22,304.6c.53.51,1.07,1,1.56,1.53a1.52,1.52,0,0,1,.48.83,8.69,8.69,0,0,1,0,3.05,3,3,0,0,0,1.35,3.28,8.83,8.83,0,0,0,3.66,1.63,6.71,6.71,0,0,0,3.15.06,7.72,7.72,0,0,1,.93-.13c0-.22,0-.41.33-.47s.52-.08.78-.14c.69-.15,1.42-.25,2.08-.46a16.56,16.56,0,0,0,4.49-2c.49-.35,1-.68,1.49-1l.67-.44c.25-.17.51-.33.73-.51s.39-.42.63-.59a9.75,9.75,0,0,0,1.88-1.86,7.62,7.62,0,0,1,2.56-2.2,3.37,3.37,0,0,0,1.08-.84,9.34,9.34,0,0,0,1.87-3.54,14.46,14.46,0,0,0,.39-2,3.28,3.28,0,0,0,0-1.73c-.24-.63-.61-1.24-.84-1.88a12.33,12.33,0,0,1-.51-1.94,1.33,1.33,0,0,1,.17-.73c.38-.86.81-1.72,1.19-2.58a3.42,3.42,0,0,0,.06-2.61,5.06,5.06,0,0,0-1.68-2.13,3.72,3.72,0,0,0-2.07-1,5.2,5.2,0,0,1-.79-.18c-.21-.89-1.1-1.15-2.22-1.24a7.77,7.77,0,0,0-3.34.38,7.61,7.61,0,0,1-.85.25l-1.23.32c-.26-.24-.52-.44-.73-.66a5.05,5.05,0,0,0-3.27-1.34,1.86,1.86,0,0,0-.88.14c-1,.46-2,.91-2.92,1.45a20.82,20.82,0,0,0-2.16,1.6,8,8,0,0,1-2.46,1.69l-.09.06a26.66,26.66,0,0,0-3.92,3.33,1.56,1.56,0,0,0-.34.52,3.6,3.6,0,0,0,.13,3.78,1.43,1.43,0,0,1,0,1.75,30.26,30.26,0,0,1-1.82,2.48,5.26,5.26,0,0,0-1,1.66,4.07,4.07,0,0,0,1,4A4.23,4.23,0,0,0,55.22,304.6Zm9.51-10.18,1.42-1.88a2.6,2.6,0,0,1,1.15-.77,6.84,6.84,0,0,1,3.15-.63,2.43,2.43,0,0,1,.77.09c.46.13.9.3,1.31.45.34.79.61,1.48.94,2.15a1.33,1.33,0,0,1-.11,1.43,9.55,9.55,0,0,1-4,3.4,3.86,3.86,0,0,1-1.49.39c-1.76.1-2.43-.31-3.14-1.25A2.57,2.57,0,0,1,64.73,294.42Z" fill="currentColor"/><path d="M244.65,278.72a5.59,5.59,0,0,1-2.71.34c-.59-.05-.87-.25-1-.7a2.22,2.22,0,0,1,0-.77,11.25,11.25,0,0,1,.41-1.59,4.42,4.42,0,0,0,0-3,1.6,1.6,0,0,0-1-1,6.41,6.41,0,0,0-.87-.31,8.67,8.67,0,0,0-5.27.45,1.84,1.84,0,0,0-1.13,1.08,4.54,4.54,0,0,0-.27,1.07,4.86,4.86,0,0,1-.33,1.44,1.27,1.27,0,0,0,0,1.28.69.69,0,0,1-.07.75,8.93,8.93,0,0,0-.89,2.62,4.25,4.25,0,0,0-.08,1.7,3.4,3.4,0,0,0,3,2.91q1.13.25,2.22.57a4.49,4.49,0,0,1,3,2.06c.19.36.37.73.53,1.1s.18.49.29.74a2.31,2.31,0,0,0,1.27,1.2,5.07,5.07,0,0,0,2.13.48,32.63,32.63,0,0,0,3.42-.1A3.67,3.67,0,0,0,250,289.4a.44.44,0,0,0,0-.59c-.24-.28-.44-.58-.67-.89.64-.46,1.25-.93,1.92-1.36a5.22,5.22,0,0,0,1-.81,10.51,10.51,0,0,1,.83-.8,2.75,2.75,0,0,0,.91-1.3,5.24,5.24,0,0,1,.72-1.36,4.1,4.1,0,0,0,.58-.91,3.54,3.54,0,0,1,.67-1.45,3.41,3.41,0,0,0-1.08-4.41,9.14,9.14,0,0,0-2-1.32c-.48-.22-.82-.49-.71-.95a.49.49,0,0,0,0-.38c-.23-.35,0-.65.07-1a8.11,8.11,0,0,0,.36-1.28.77.77,0,0,0-.12-.6,5,5,0,0,0-2-1.8,8.45,8.45,0,0,0-6.81-.12,1.56,1.56,0,0,0-.81.69,2.07,2.07,0,0,0,0,2.18c.29.5.65,1,1,1.52a2.42,2.42,0,0,1-.12.23,2.31,2.31,0,0,0,0,2.88c.1.14.23.27.34.4.38.43.79.85,1.13,1.31S245.58,278.31,244.65,278.72Z" fill="currentColor"/><path d="M289.1,147c-1.69-1.77-4.73-2-7-1.31-.68.2-1.3.52-2,.78a3.2,3.2,0,0,0-1.87,1.74c-.24.57-.5,1.13-.72,1.7-.29.81-.5,1.63-.84,2.43a6.69,6.69,0,0,0-.57,2.38,4.38,4.38,0,0,0,1.45,3.4,2.39,2.39,0,0,0,.79.57,11.41,11.41,0,0,0,3.11.57,7.24,7.24,0,0,0,1.23-.06c.93-.09,1.87-.14,2.77-.3a17.88,17.88,0,0,1,2.2-.28,2.77,2.77,0,0,1,1.67.35,11.08,11.08,0,0,1,1.43,1c.9.8,1.78,1.6,2.59,2.44a10.92,10.92,0,0,1,1.57,1.95,18.83,18.83,0,0,1,1.25,2.85,5.19,5.19,0,0,0,2.22,2.65,8.57,8.57,0,0,0,4.7,1.3c.37,0,.75,0,1.12,0a9.67,9.67,0,0,0,3.4-.36,12.54,12.54,0,0,0,4.65-1.88,10,10,0,0,0,1.51-1.08c.86-.74,1.61-1.56,2.5-2.28,1.22-1,2.54-1.9,3.81-2.85a4.6,4.6,0,0,1,.44-.25l2.7-1.59a16.65,16.65,0,0,0,4-3.56c.65-.75,1.23-1.54,1.81-2.32a5.14,5.14,0,0,0,1.26-4.19,8.94,8.94,0,0,1-.12-1,2.26,2.26,0,0,0-.37-1.09,1.74,1.74,0,0,1-.32-.85,5.29,5.29,0,0,1,.28-2.72,2.74,2.74,0,0,0-.21-2.53,3.36,3.36,0,0,0-1.22-1.24l-1.11-.68a2.33,2.33,0,0,0-1.4-.43,12.51,12.51,0,0,1-2.45-.15,5.37,5.37,0,0,0-2.84.28c-.71.29-1.47.52-2.18.82-2.86,1.21-4.5,3-4.6,5.4a22.13,22.13,0,0,0,.25,6.29,3.22,3.22,0,0,1-.48,2.83l-.83,1.15a2.46,2.46,0,0,1-2.49,1.07.5.5,0,0,0-.21,0,1.2,1.2,0,0,1-.95-.09,17,17,0,0,0-4.07-1.1,8.18,8.18,0,0,0-1.21-.16,10.71,10.71,0,0,0-4.59.56,18.73,18.73,0,0,1-2,.67c-1.3.3-1.34.34-2.08-.52a19,19,0,0,0-2.14-2.28,2.13,2.13,0,0,1-.56-.78,9.05,9.05,0,0,1-.82-2.67,1.44,1.44,0,0,1,.06-.8,1.27,1.27,0,0,0,0-1,3.32,3.32,0,0,0-1.08-1.48A17,17,0,0,1,289.1,147Z" fill="currentColor"/><path d="M272.18,190.81a3.21,3.21,0,0,0-.33-.12,1.36,1.36,0,0,0-1.26.17,10.16,10.16,0,0,0-1.62,1.26c-.52.58-1.13,1.12-1.69,1.69a3.19,3.19,0,0,0-.88,2.14,4.49,4.49,0,0,0,.41,1.5c.06.2.23.39.24.59a2.93,2.93,0,0,0,.31,1.06,10.57,10.57,0,0,1,.67,1.65,10.76,10.76,0,0,0,1.78,3.46,4.49,4.49,0,0,1,.61,1.27c.29,1,.49,2,.74,2.94a4.55,4.55,0,0,0,.95,2,10.37,10.37,0,0,0,.84.77,9.91,9.91,0,0,0,2.77,1.81,22.39,22.39,0,0,0,2.14.73,2.72,2.72,0,0,0,1.44.18,4,4,0,0,0,2.24-.49c.79-.39,1.6-.78,2.45-1.1a3.61,3.61,0,0,0,1.41-.86c.25-.28.54-.54.81-.81a3.13,3.13,0,0,0,.56-4.28c-.32-.49-.66-1-1-1.45-.52-.68-1.08-1.36-1.61-2-.15-.18-.27-.37-.41-.56a18.86,18.86,0,0,0-1.3-2c-.39-.41-.88-.72-1.29-1.1a15,15,0,0,0-2.06-1.58c-1.07-.69-2.08-1.41-3.07-2.15a4.05,4.05,0,0,1-.87-1,3.35,3.35,0,0,1-.53-1.48c-.06-.68-.68-1.21-1.2-1.76C273.09,190.81,272.57,191,272.18,190.81Z" fill="currentColor"/><path d="M274.3,179.08c-.13.15-.11.35-.16.53a6.44,6.44,0,0,0,.38,3.67,1.25,1.25,0,0,0,.29.49c.41.46.85.9,1.28,1.35a6.54,6.54,0,0,0,3.16,1.55,2,2,0,0,0,.5.05c.45,0,.91,0,1.36.09a3.86,3.86,0,0,0,3.26-.81l.09-.07a1.13,1.13,0,0,1,1.42-.18c.15.05.28.14.43.18a11,11,0,0,0,2,.48c1.2.08,2.43.06,3.64,0a6.68,6.68,0,0,0,1.34-.21,3.84,3.84,0,0,0,1.87-1,1.41,1.41,0,0,0,.48-1.45c0-.12.1-.28.18-.41a7.46,7.46,0,0,0,.65-1,2.1,2.1,0,0,0,.27-1.24,3.78,3.78,0,0,0-2.45-2.81,13.48,13.48,0,0,0-2-.53,14.09,14.09,0,0,0-1.47-.25,1.7,1.7,0,0,1-1.51-1.07,4.16,4.16,0,0,1-.3-.88,2.84,2.84,0,0,0-.91-1.28,2.19,2.19,0,0,0-1.25-.56l-2.36-.24a13.72,13.72,0,0,0-3.31.56,3.45,3.45,0,0,0-2.22,1.52,1.92,1.92,0,0,1-1.18.88A7.48,7.48,0,0,0,274.3,179.08Z" fill="currentColor"/><path d="M282.8,273.73c-.11-.52-.24-1.12-.35-1.72a1.17,1.17,0,0,0-.62-.76,2.61,2.61,0,0,0-2.34-.21c-.92.36-1.81.76-2.69,1.16-1.49.69-2.32,1.65-2.19,2.95a1.71,1.71,0,0,1-1,1.67,5,5,0,0,0-2.25,4.64,4.5,4.5,0,0,1,.16,2.06c0,.33,0,.66,0,1a1.23,1.23,0,0,0,.65.94,2.24,2.24,0,0,0,1.36.39,16.88,16.88,0,0,1,2.13,0,2.36,2.36,0,0,0,1.94-.63l.85-.79a2.67,2.67,0,0,1,1.43-.68l3.16-.58a5.13,5.13,0,0,0,.7-.19,7.74,7.74,0,0,0,2.36-1.33,2.7,2.7,0,0,0,1.15-2.14,2.88,2.88,0,0,1,0-.72,2.11,2.11,0,0,0-.9-2.1C285.27,275.68,284,274.73,282.8,273.73Z" fill="currentColor"/><path d="M107.38,221.91a2.15,2.15,0,0,1-.08.55A2.15,2.15,0,0,0,107.38,221.91Z" fill="currentColor"/><path d="M107.38,221.91a1.67,1.67,0,0,0-.63-1.29l-.12-.05.12.05A1.67,1.67,0,0,1,107.38,221.91Z" fill="currentColor"/><path d="M118.66,50.45a6.33,6.33,0,0,0-.78,2.57,2.24,2.24,0,0,1-.31,1,8.11,8.11,0,0,1-.88,1.19,4.62,4.62,0,0,0-.94,1.7,9,9,0,0,1-.31,1,6,6,0,0,0-.41,1.57,1.52,1.52,0,0,0,.21,1,6.22,6.22,0,0,1,.54,1.21,1.28,1.28,0,0,1-.5,1.48c-.34.28-.66.58-1,.87a3.37,3.37,0,0,0-.88,1.1A14.06,14.06,0,0,0,112,70.39a2.88,2.88,0,0,0,.14.87c.31,1.26.67,2.51,1,3.77a23.89,23.89,0,0,0,.86,2.81,2.81,2.81,0,0,0,.46.8,8.15,8.15,0,0,0,3,2.41,1.8,1.8,0,0,1,.91.68,7.77,7.77,0,0,1,1.14,2.66,2.4,2.4,0,0,0,.65,1.26,9.05,9.05,0,0,0,2.64,2,5.26,5.26,0,0,0,2.66.69,4.2,4.2,0,0,0,1.73-.09c.1,0,.29,0,.44,0l.7,0a4.59,4.59,0,0,1,.86-.43,2.66,2.66,0,0,0,.89-.45c.31-.23.66-.43,1-.64a2.86,2.86,0,0,0,1.05-1,2.63,2.63,0,0,1,2.46-1.25c.11,0,.22,0,.33,0a12.27,12.27,0,0,0,3.34-.8,11.72,11.72,0,0,0,4.72-3.41c.46-.6.93-1.21,1.33-1.84a4,4,0,0,0,.27-2.75,1.81,1.81,0,0,0-.52-1.21,1.45,1.45,0,0,1-.24-.44,5.15,5.15,0,0,1-.29-2.45,1,1,0,0,1,.5-.78c.51-.35.94-.76,1.49-1.07a13.07,13.07,0,0,0,2.27-1.85,1.06,1.06,0,0,0,.35-.57c.08-.76.28-1.54-.4-2.24a.79.79,0,0,1-.12-1,8,8,0,0,1,.86-1.29c.35-.44.81-.83,1.2-1.25a2.9,2.9,0,0,0,1-1.71c.37-.26.74-.41.87-.63a5.55,5.55,0,0,0,.62-3.3,23,23,0,0,0-1.09-2.08,7.58,7.58,0,0,0-2.39-2,6.75,6.75,0,0,0-3.33-1c-.88,0-1.77-.09-2.65-.18a13.14,13.14,0,0,0-2.43,0,5.07,5.07,0,0,1-.55,0,14.86,14.86,0,0,0-3.4.24l-.72.09a2.32,2.32,0,0,1-.89-1c-.15-.3-.28-.61-.45-.9A3.11,3.11,0,0,0,133,47.88a8.6,8.6,0,0,0-3.16-.89c-1.49-.12-3,.09-4.43,0a2.36,2.36,0,0,0-.65.07,24.5,24.5,0,0,0-3.47,1.06A4.92,4.92,0,0,0,118.66,50.45Zm5.68,14.34a8.25,8.25,0,0,0,1.41-2.66c.16-.41.36-.81.56-1.21a1.7,1.7,0,0,1,1.37-.85,2.68,2.68,0,0,0,1.95-1c.32-.42.76-.76.7-1.31,0-.31.3-.58.67-.79a4.46,4.46,0,0,1,1.43-.4,1.2,1.2,0,0,1,.53.07,12.13,12.13,0,0,1,4.43,2.46c.23.24.4.51.64.75a1.5,1.5,0,0,1,.28,1.61c-.18.73-.48,1.45-.72,2.18A2.68,2.68,0,0,0,137.3,65a.82.82,0,0,1-.09.39,4.81,4.81,0,0,0-.36,1.89.8.8,0,0,1-.42.78,4.48,4.48,0,0,0-1.8,2.25,16.66,16.66,0,0,1-1,2,6,6,0,0,1-2.71,2.26l-.38.17a3.6,3.6,0,0,0-1.93,1.68,7.51,7.51,0,0,1-1.67,1.9,1.8,1.8,0,0,1-.43-.1c-1.17-.71-2.06-1.54-2-2.71a12.37,12.37,0,0,1,.25-1.9c.21-1.06.45-2.1.69-3.16a1.13,1.13,0,0,0,.06-.31,6.55,6.55,0,0,0-.88-2.79,3,3,0,0,0-.28-.34A1.5,1.5,0,0,1,124.34,64.79Z" fill="currentColor"/><path d="M115.49,100.48a2.36,2.36,0,0,0-.54-.88c-.38-.47-.84-.9-1.17-1.38-.55-.79-1-1.61-1.5-2.43a5.31,5.31,0,0,0-1.21-1.54c-1-.87-2-1.73-3.07-2.58-.79-.64-1.57-1.29-2.38-1.93-.35-.27-.76-.52-1.14-.77s-.93-.55-1.34-.86a3.7,3.7,0,0,0-1.84-.72,27.08,27.08,0,0,0-3.24-.19,28.72,28.72,0,0,0-3.35.26,27,27,0,0,0-8.51,2.4l-.38.16A13.5,13.5,0,0,0,81,93.33c-.38.43-.8.85-1.22,1.26a31.6,31.6,0,0,0-2,2.69.35.35,0,0,0,0,.08,12.63,12.63,0,0,0-.38,2.48,7.56,7.56,0,0,0,.59,2.38A4.52,4.52,0,0,0,81,104.84c.17,0,.32.14.48.19.64.23,1.26.49,1.92.66a3.14,3.14,0,0,0,1.64.1,6.94,6.94,0,0,1,1.88-.18,5.89,5.89,0,0,0,3.6-1.11A12.74,12.74,0,0,0,93.62,101a2,2,0,0,0,.18-.46l.9-2.25a2,2,0,0,1,1.8-1.06c.84-.1,1.7-.18,2.55-.25.67,0,1.35-.08,2-.08a5.18,5.18,0,0,1,2.44.74c.56.29.55.75.68,1.16.08.23.14.47.22.71a25,25,0,0,1,.77,3.59,2.65,2.65,0,0,1-.06,1.12,7.48,7.48,0,0,1-.56,1.31,6.38,6.38,0,0,0-.92,2.07,18,18,0,0,1-.41,2.4,12.66,12.66,0,0,1-.78,2.52c-.54,1.13-1,1-2.28.56a12.32,12.32,0,0,1-1.6-.75,13.82,13.82,0,0,1-1.3-.76c-.69-.46-1.32-1-2-1.4a5.34,5.34,0,0,0-4.55-.69,8.9,8.9,0,0,0-1.6.57c-.36.19-.76.35-1.13.53a9.26,9.26,0,0,0-1.09.55c-1.38.88-1.35.88-1.77,2.15a4.91,4.91,0,0,0,0,3.21,16.32,16.32,0,0,0,1.5,2.69c.26.45.64.86.89,1.3a16.27,16.27,0,0,0,2.38,2.63.22.22,0,0,0,.07.06,2.49,2.49,0,0,1,1.22,1.22A4,4,0,0,0,94.43,126a18,18,0,0,0,4.21-.28c.37-.06.71-.18,1.07-.23a7.18,7.18,0,0,0,3.2-1.43c.85-.61,1.61-1.27,2.39-1.93a5.09,5.09,0,0,1,1.28-.78l2.53-1a8.4,8.4,0,0,0,1.87-1,22.54,22.54,0,0,0,3.48-3.16,5.72,5.72,0,0,0,.83-1.24c.38-.84.66-1.71,1-2.56a2.6,2.6,0,0,0-.3-2.66,3.54,3.54,0,0,1-.71-2,.69.69,0,0,0,0-.32c-.19-.39,0-.73.14-1.1a4.09,4.09,0,0,0,.61-2.46A10.17,10.17,0,0,0,115.49,100.48Z" fill="currentColor"/><path d="M38.46,106.68a4.37,4.37,0,0,0-2.14,2.75,2.18,2.18,0,0,0,0,.76c.08.63.18,1.27.27,1.9a3,3,0,0,1-.65,2.07c-.37.55-.79,1.09-1.16,1.64a8,8,0,0,0-1,1.86,10.11,10.11,0,0,0-.75,2.76,1.92,1.92,0,0,0,.29,1.27c.24.35.49.68.74,1a6.31,6.31,0,0,0,2.06,1.64c.77.4,1.56.79,2.36,1.18a4.32,4.32,0,0,1,1.88,1.62,5.16,5.16,0,0,0,.59.9,4.15,4.15,0,0,0,3.48,1.33l1,0a14.56,14.56,0,0,0,1.48,0,7.47,7.47,0,0,1,2.83.22,13.16,13.16,0,0,0,4.61.4c.17,0,.34,0,.59,0,0,.41.08.79.12,1.17a1.65,1.65,0,0,0,.82,1.36,5.22,5.22,0,0,1,.45.33,5.47,5.47,0,0,0,3,.94c.64.05,1.28.09,1.91.11s1.42,0,2.13,0a2.38,2.38,0,0,0,.73-.11,7,7,0,0,0,2.55-1.47,3.49,3.49,0,0,1,.78-.62,14.56,14.56,0,0,0,2.33-1.89,17.17,17.17,0,0,1,1.58-1.34,6.28,6.28,0,0,0,1.66-1.58c.27-.42.65-.79.93-1.2a2.87,2.87,0,0,0,.38-.79,11.71,11.71,0,0,0,.34-1.51c.08-.46.23-.92-.22-1.33-.08-.07-.06-.2-.09-.3a7.06,7.06,0,0,0-.28-.89,3.44,3.44,0,0,1-.22-.82,3.56,3.56,0,0,0-.68-1.76c-.29-.38-.5-.79-.76-1.18a7.61,7.61,0,0,0-.83-1.15c-.61-.63-1.3-1.22-1.94-1.83s-1.19-1.15-1.8-1.72a1.56,1.56,0,0,1-.55-1.44,3,3,0,0,1,.12-.6c.23-.75.43-1.51.72-2.25a4,4,0,0,0,0-2.87A4.14,4.14,0,0,0,64.28,103a9.08,9.08,0,0,1-1.17-.07,16.58,16.58,0,0,0-5.76.4,1.52,1.52,0,0,0-.2.06,9.45,9.45,0,0,0-3,1.45,3.15,3.15,0,0,0-1.51,2.29c-.08,1.18-.17,2.35-.26,3.52a.22.22,0,0,1,0,.08,2.56,2.56,0,0,0,1,2.21A4,4,0,0,0,55.75,114a13.88,13.88,0,0,1,1.46.23,9.53,9.53,0,0,0,1.77.23c1.74.06,1.77.08,2.82,1.08a3.47,3.47,0,0,0,1.05.85.8.8,0,0,1,.43.51,5.66,5.66,0,0,1,.28,1.13.71.71,0,0,1-.11.44,12.94,12.94,0,0,1-1.86,2.51,5.19,5.19,0,0,1-2.17,1.33l-2.36.69a4.57,4.57,0,0,1-.82.16,4.69,4.69,0,0,0-1.94.59,4,4,0,0,1-.63.29,4.35,4.35,0,0,0-1.28.8,1.16,1.16,0,0,1-.71.43c-.52-.27-.52-.27-.55-.51a1,1,0,0,1,0-.38,2.7,2.7,0,0,0-.52-1.93,3,3,0,0,0-1.25-1.12,9.76,9.76,0,0,0-2.49-.86,5.29,5.29,0,0,1-1.07-.31c-.39-.17-.6-.43-.53-.78s.11-.66.18-1a9.65,9.65,0,0,1,1.21-3A5.37,5.37,0,0,1,48,113.7a6.36,6.36,0,0,0,.72-.85c.15-.17.31-.34.45-.52a8.81,8.81,0,0,0,.69-1c.29-.52.53-1,.78-1.58a.71.71,0,0,0,.12-.45,4.5,4.5,0,0,0-1.05-2.22A4.1,4.1,0,0,0,47.06,106c-1.44-.14-2.9-.23-4.35-.26A7.73,7.73,0,0,0,38.46,106.68Z" fill="currentColor"/><path d="M233.6,253.77c-.08-.52-.56-.84-1-1.08a7.92,7.92,0,0,0-3.1-.87,31.36,31.36,0,0,0-5.13-.06,4.67,4.67,0,0,1-2.82-.58,1.25,1.25,0,0,1-.73-1,5.29,5.29,0,0,0-.06-.8,1.89,1.89,0,0,0-1.74-1.51c-.36-.07-.72-.15-1.09-.19a13.16,13.16,0,0,0-4.2.21,19.47,19.47,0,0,0-4.38,1.17.76.76,0,0,1-.73-.05,4.32,4.32,0,0,1-1.7-1.66c-.28-.67-.63-1.33-.87-2a3.13,3.13,0,0,0-1.52-1.64c-1.09-.61-2.19-1.21-3.34-1.76a10.21,10.21,0,0,1-2-1.25c-.75-.65-.85-1.06-.3-1.83a2.2,2.2,0,0,0,.49-1.21,17.15,17.15,0,0,1,.22-2,3.45,3.45,0,0,0,0-1.43,1.75,1.75,0,0,1,0-.72,9.64,9.64,0,0,1,.25-1,2.84,2.84,0,0,1,.77-1.48c.31,0,.57,0,.82.1.54.1,1.09.19,1.61.33a8.94,8.94,0,0,0,3.75.07,3.13,3.13,0,0,0,2.67-1.85,4.32,4.32,0,0,0-.15-2.94.35.35,0,0,0-.16-.2,1.08,1.08,0,0,1-.55-.93,7.76,7.76,0,0,0-1.49-2.93,2.54,2.54,0,0,0-.32-.34,28.2,28.2,0,0,0-2.29-1.87,1.93,1.93,0,0,1-.9-1.66,7.77,7.77,0,0,1,.08-1,2.11,2.11,0,0,0,0-.56c-.16-.66-.32-1.32-.53-2a3.88,3.88,0,0,0-1.34-1.74,3.22,3.22,0,0,0-2.71-.63,4.48,4.48,0,0,1-1.55,0,1.81,1.81,0,0,0-.87,0,3.26,3.26,0,0,0-2.08,1.48,4.47,4.47,0,0,0-.37,1.25,3,3,0,0,0,.38,2.44c.15.19.3.37.46.55a.47.47,0,0,1,0,.68,3.85,3.85,0,0,1-1.42,1.12c-.56.26-1.07.58-1.59.88l-.62.34a10.55,10.55,0,0,0-3,2.28,7.39,7.39,0,0,0-1.77,3.71,2.33,2.33,0,0,0,.17,1.51c.56,1.11,1.08,2.22,1.68,3.32s1.2,2,1.77,3A20.17,20.17,0,0,1,191.6,238a9.75,9.75,0,0,1,.46,4.72,2.12,2.12,0,0,1-.14.55,29.35,29.35,0,0,0-1,3.71c0,.18-.12.4,0,.55a1.39,1.39,0,0,1,.11.87c0,.43,0,.86,0,1.29a3.39,3.39,0,0,0,.95,2.11,12.21,12.21,0,0,0,4.16,2.88,14.48,14.48,0,0,0,2.83.95,2.79,2.79,0,0,0,.58,0c0-.21-.4-.25-.15-.48.56,0,1.15,0,1.75,0a2.18,2.18,0,0,0,1-.15,21.74,21.74,0,0,0,2.18-1,2.08,2.08,0,0,1,1.65-.23c.92.22,1.83.46,2.76.66a7.27,7.27,0,0,1,3.73,2.09c.3.3.58.62.87.93,2.38,2.55,5.78,3.79,10,4l.89.07a9.74,9.74,0,0,0,4.06-.22,5.7,5.7,0,0,1,.76-.14,8.3,8.3,0,0,0,2.9-1,2.4,2.4,0,0,1,.56-.26,2.1,2.1,0,0,0,1.18-1,6.12,6.12,0,0,0,.62-2.69,4.71,4.71,0,0,0-.15-1.34A10.74,10.74,0,0,1,233.6,253.77Z" fill="currentColor"/><path d="M190.82,149.58a13.1,13.1,0,0,0-5.25,3.7,13.24,13.24,0,0,1-5.48,3.51,2.38,2.38,0,0,1-2-.11c-1.42-.65-2.88-1.24-4.32-1.87a4.08,4.08,0,0,0-1.79-.33c-.55,0-1.1,0-1.64,0a6.7,6.7,0,0,0-4.09,1.16c-.35.26-.72.51-1.1.74a2.74,2.74,0,0,0-1.14,1.29,15.24,15.24,0,0,0-.58,1.85,1.57,1.57,0,0,0,.35,1.48,1.41,1.41,0,0,1,.26,1.31,5,5,0,0,0-.17,1.26,11.72,11.72,0,0,0,.47,3.15,7.79,7.79,0,0,1,.28,1.34,6.12,6.12,0,0,0,3.08,4.13,15.66,15.66,0,0,0,2,1.07,7.68,7.68,0,0,0,3,.65,19.22,19.22,0,0,0,4.09-.48,9.64,9.64,0,0,0,3.23-1.16,6.78,6.78,0,0,1,1.05-.5,5.78,5.78,0,0,0,2.89-2.31,1.27,1.27,0,0,0,.21-1.3,1.5,1.5,0,0,1,0-.89,4.81,4.81,0,0,1,.3-.88,4.13,4.13,0,0,1,1.83-2.22,5.48,5.48,0,0,0,.58-.48,6,6,0,0,1,4.46-1.32l.5,0a4.54,4.54,0,0,0,2.6-.53c.42-.24.88-.46,1.27-.73a3.93,3.93,0,0,1,2.4-.66,8.43,8.43,0,0,1,2,.29,5.07,5.07,0,0,0,1.08.23c.94,0,1.81.26,2.73.31s1.15.34,1.31.9a9.42,9.42,0,0,0,.8,2c.6,1.1,1.29,2.17,2,3.25,1.3,2.13,3.53,3.57,6.5,4.43a6.9,6.9,0,0,0,3.56.24,5.8,5.8,0,0,1,.74-.07,12.63,12.63,0,0,0,2.77-.59,2.29,2.29,0,0,0,1.1-.71,11,11,0,0,1,2-2,2.74,2.74,0,0,0,.8-.91,9.24,9.24,0,0,0,1.15-2.55c0-.33.08-.67.16-1a9.54,9.54,0,0,0,.43-2.82,5.43,5.43,0,0,0-1.6-4,8.81,8.81,0,0,0-1.69-1.32,17.29,17.29,0,0,0-4.9-2.51c-1.11-.36-2.25-.66-3.36-1s-2-.7-3-1.09a2.81,2.81,0,0,1-.8-.56c-.51-.44-1-.9-1.47-1.36a10.67,10.67,0,0,0-2.46-1.68,7.29,7.29,0,0,0-2.46-.89,37.91,37.91,0,0,0-4-.36,17.07,17.07,0,0,0-6.28,1.13C193.67,148.42,192.25,149,190.82,149.58Z" fill="currentColor"/><path d="M249,36.79a5.88,5.88,0,0,0-2.61,1.62c-.08.09-.2.17-.3.26a16.47,16.47,0,0,0-3.21,4.17,2.63,2.63,0,0,0-.4,1.3,14.11,14.11,0,0,0,.32,2.58,2,2,0,0,1-.11,1.16,14.83,14.83,0,0,1-2.7,4,15.64,15.64,0,0,0-2.2,3.42,4.65,4.65,0,0,0,.67,5.18,37.28,37.28,0,0,1,2.88,4.12,4.7,4.7,0,0,0,1.78,1.63c.83.46,1.67.93,2.54,1.34A17.4,17.4,0,0,0,251,69.17a8.13,8.13,0,0,0,3-.08,24.77,24.77,0,0,0,4.23-1.58,3.2,3.2,0,0,0,.54-.32,8.94,8.94,0,0,0,2.88-3,3.66,3.66,0,0,0,.47-2.29,2.84,2.84,0,0,0-1-1.76,3.8,3.8,0,0,1-1-1.29,1.49,1.49,0,0,0-.88-.75,9.28,9.28,0,0,1-2.11-1.31c-.32-.24-.69-.45-1-.67a9.32,9.32,0,0,1-1.3-.83c-.67-.62-1.28-1.27-1.9-1.91A2.14,2.14,0,0,1,252.3,52a10.15,10.15,0,0,1,.13-3,1.68,1.68,0,0,0-.39-1.69.52.52,0,0,1-.1-.64,2.27,2.27,0,0,0,.25-1.32.41.41,0,0,1,.13-.31c.41-.41.81-.82,1.26-1.21a2.55,2.55,0,0,1,.73-.4,1.31,1.31,0,0,1,1.51.3c.12.15.21.3.32.45s.4.54.62.81A3.13,3.13,0,0,0,259,46.09c.5,0,1,0,1.51.1a6.3,6.3,0,0,0,3.52-.67c.32-.16.62-.34,1-.49a5.2,5.2,0,0,1,3.13-.23,1.9,1.9,0,0,1-.34,1.25,5.9,5.9,0,0,0-.46,1,12.17,12.17,0,0,0-.55,3.91,3.42,3.42,0,0,0,2.12,2.85,4.56,4.56,0,0,0,2.41.53l1.63-.08a1.19,1.19,0,0,0,.82-.26,1.35,1.35,0,0,1,.89-.34,2,2,0,0,0,1.2-.47,9.18,9.18,0,0,0,1-.81c.94-1,1.86-1.93,2.77-2.9.48-.51.92-1,1.42-1.54a18.54,18.54,0,0,0,1.88-2.12c.43-.59.89-1.18,1.38-1.75a3,3,0,0,0,.79-2.39c0-.14-.1-.29-.06-.42a3.15,3.15,0,0,0-.4-1.8,3.67,3.67,0,0,0-2.14-1.9,9.22,9.22,0,0,0-1.77-.6,12,12,0,0,0-1.6-.13c-.43,0-.86,0-1.28-.09a42.88,42.88,0,0,0-6.61-.19,2,2,0,0,0-.34,0,1.68,1.68,0,0,1-1.29-.24,12.53,12.53,0,0,0-1.41-.74,12.73,12.73,0,0,0-7-.62c-.88.13-1.73.32-2.6.47a8.24,8.24,0,0,1-2.43.1,7.78,7.78,0,0,0-1.74,0c-.53,0-1.07.11-1.61.12a5.81,5.81,0,0,0-2.69.71A8,8,0,0,1,249,36.79Z" fill="currentColor"/><path d="M5.64,147c-1.7-1.77-4.74-2-7-1.31a21,21,0,0,0-2,.78,3.17,3.17,0,0,0-1.87,1.74c-.24.57-.51,1.13-.72,1.7-.3.81-.51,1.63-.85,2.43a6.47,6.47,0,0,0-.56,2.38,4.38,4.38,0,0,0,1.45,3.4,2.29,2.29,0,0,0,.79.57,11.34,11.34,0,0,0,3.11.57,7.29,7.29,0,0,0,1.23-.06c.92-.09,1.87-.14,2.76-.3a18.12,18.12,0,0,1,2.2-.28,2.81,2.81,0,0,1,1.68.35,11.08,11.08,0,0,1,1.43,1c.89.8,1.77,1.6,2.58,2.44a10.1,10.1,0,0,1,1.57,1.95,17.88,17.88,0,0,1,1.25,2.85,5.21,5.21,0,0,0,2.23,2.65,8.51,8.51,0,0,0,4.69,1.3c.38,0,.75,0,1.12,0a9.7,9.7,0,0,0,3.41-.36,12.68,12.68,0,0,0,4.65-1.88,10.43,10.43,0,0,0,1.5-1.08c.86-.74,1.61-1.56,2.51-2.28,1.22-1,2.53-1.9,3.81-2.85.13-.09.29-.17.43-.25.9-.53,1.81-1,2.7-1.59a16.47,16.47,0,0,0,4-3.56c.66-.75,1.23-1.54,1.82-2.32a5.17,5.17,0,0,0,1.26-4.19,9,9,0,0,1-.13-1,2.16,2.16,0,0,0-.37-1.09,1.83,1.83,0,0,1-.31-.85,5.29,5.29,0,0,1,.28-2.72,2.77,2.77,0,0,0-.21-2.53,3.31,3.31,0,0,0-1.23-1.24c-.36-.23-.73-.46-1.11-.68a2.33,2.33,0,0,0-1.4-.43,12.51,12.51,0,0,1-2.45-.15,5.34,5.34,0,0,0-2.83.28c-.71.29-1.48.52-2.19.82-2.85,1.21-4.49,3-4.6,5.4a22.5,22.5,0,0,0,.25,6.29,3.19,3.19,0,0,1-.48,2.83l-.83,1.15a2.44,2.44,0,0,1-2.48,1.07.55.55,0,0,0-.22,0,1.2,1.2,0,0,1-1-.09,16.83,16.83,0,0,0-4.07-1.1,8,8,0,0,0-1.21-.16,10.66,10.66,0,0,0-4.58.56,19.47,19.47,0,0,1-2,.67c-1.31.3-1.34.34-2.09-.52A19,19,0,0,0,9.46,155a2.15,2.15,0,0,1-.57-.78,9,9,0,0,1-.81-2.67,1.54,1.54,0,0,1,.05-.8,1.31,1.31,0,0,0,0-1A3.35,3.35,0,0,0,7,148.24,16.89,16.89,0,0,1,5.64,147Z" fill="currentColor"/><path d="M199.6,94.85a4.56,4.56,0,0,1-1,1.05,1.57,1.57,0,0,0-.41.45,4.71,4.71,0,0,0-.56,2.21,10.18,10.18,0,0,0,1.49,4.65,3.26,3.26,0,0,0,1.28,1.21,4.45,4.45,0,0,1,1.56,1.4,6.79,6.79,0,0,0,.88,1,10.72,10.72,0,0,0,5.46,2.43,6.34,6.34,0,0,0,3.09-.17c.38-.13.78-.23,1.16-.36a15.37,15.37,0,0,0,3.8-1.75,3.62,3.62,0,0,0,1.47-1.86,5.18,5.18,0,0,0,.19-2.34,4.48,4.48,0,0,0-1.64-2.9,32.49,32.49,0,0,1-2.86-2.75,1.61,1.61,0,0,1-.54-1.27,3.62,3.62,0,0,1,2.14-3.4c.14-.07.25-.16.38-.24a1.3,1.3,0,0,1,1.06-.12,4.21,4.21,0,0,1,2.77,1.59,2.34,2.34,0,0,0,.24.31,5.64,5.64,0,0,1,1.14,4.73c-.13.84-.27,1.68-.39,2.52a2.56,2.56,0,0,0,.18,1.44,1,1,0,0,1,0,.89c-.2.37,0,.7.25,1a5.14,5.14,0,0,0,3.07,1.76c.6.13,1.22.23,1.83.35a15.88,15.88,0,0,0,4.62.12,7.05,7.05,0,0,0,2.23-.59,16,16,0,0,0,3.48-1.92,6.29,6.29,0,0,1,.67-.41,5.88,5.88,0,0,0,3-3.44,9.93,9.93,0,0,0,.34-2.52,1.49,1.49,0,0,0-.66-1.23,7,7,0,0,0-2-1.08,13,13,0,0,0-2.37-.82,5.48,5.48,0,0,1-3-1.5,2.19,2.19,0,0,1-.8-2.12c.09-.39.19-.78.3-1.16a2.52,2.52,0,0,1,1.32-1.49A16,16,0,0,0,236,86.36a5.07,5.07,0,0,0,1.36-1.72,5.54,5.54,0,0,0-.49-5.56,1.73,1.73,0,0,0-1.95-.84s-.08,0-.19,0a4.76,4.76,0,0,0-2.25-1.33c-.73-.22-1.44-.49-2.14-.76a5.15,5.15,0,0,0-2-.39c-.67,0-1.34,0-2,0a6.84,6.84,0,0,1-2-.2,9.22,9.22,0,0,0-3.23-.12c-.33,0-.65.11-1,.15a2.75,2.75,0,0,1-1.34.08.9.9,0,0,0-.47.08,4.37,4.37,0,0,0-.95.44,6.56,6.56,0,0,1-2,.83l-1.75,2.25c-.1.13-.19.27-.28.41a5,5,0,0,0-.85,3.61,5.71,5.71,0,0,1,0,1.17.58.58,0,0,1-.43.53,16.74,16.74,0,0,0-2.29,1.25,19.38,19.38,0,0,0-4.33,3,2.43,2.43,0,0,1-.25.2,3.43,3.43,0,0,0-1.74,2.24,3.46,3.46,0,0,1-2.69,2.43A1.76,1.76,0,0,0,199.6,94.85Z" fill="currentColor"/><path d="M260.56,194.23a17.59,17.59,0,0,0-6.42-6,21.29,21.29,0,0,0-2.31-1.09,17.42,17.42,0,0,0-5.55-1.39,19.27,19.27,0,0,0-2,0,4.19,4.19,0,0,1-2.35-.49c-.53-.29-1.12-.53-1.68-.8a12.66,12.66,0,0,0-7-1,21.11,21.11,0,0,0-5.48,1.52,27.39,27.39,0,0,0-4.12,2.08,11.56,11.56,0,0,0-2.7,2.13l-1.74,1.89a2.71,2.71,0,0,1-1.13.83,21.45,21.45,0,0,0-2.87,1.46,3,3,0,0,0-1.69,3.49,4.94,4.94,0,0,0,1.5,2.47,10,10,0,0,1,1.49,1.89,3.79,3.79,0,0,1,.63,2.1c0,.73,0,1.46,0,2.18a7.43,7.43,0,0,0,1.64,4.42,3.66,3.66,0,0,0,1.77,1.25,4.63,4.63,0,0,1,1.73.87,1,1,0,0,0,1,.17,7.9,7.9,0,0,1,2.19-.36,8.58,8.58,0,0,0,2.63-.57,2.75,2.75,0,0,0,1.76-1.46,7.14,7.14,0,0,0,0-6.4,11,11,0,0,1-.87-2.91c-.12-.53-.11-1.08-.19-1.62a.93.93,0,0,1,.32-.85,2.61,2.61,0,0,1,1.05-.63c.5-.15,1-.33,1.47-.52a3.19,3.19,0,0,0,2.11-1.92,2.76,2.76,0,0,1,.08-.27,1.74,1.74,0,0,1,1.54-1.17,1.55,1.55,0,0,0,.75-.31,2.9,2.9,0,0,1,1.91-.58,9.36,9.36,0,0,1,6.51,1.92,2.37,2.37,0,0,1,.89,3.19,22.4,22.4,0,0,1-1.08,2.13,6.78,6.78,0,0,1-2.49,2.47,11.8,11.8,0,0,0-1.6,1.14,10.82,10.82,0,0,0-2.26,2.39,3.76,3.76,0,0,0-.77,2.45,6.46,6.46,0,0,0,1.9,4.25,7.8,7.8,0,0,0,6.4,2.14c.59,0,1.17-.09,1.75-.13a12.37,12.37,0,0,0,7.28-2.74,1.89,1.89,0,0,0,.66-2.53,3.45,3.45,0,0,0-.25-.41c-1.19-1.58-.69-2.47.89-3.5,1,.1,1.06.09,1.48-.53a7.77,7.77,0,0,1,1-1.26,7.45,7.45,0,0,0,2-3c.17-.5.26-1,.47-1.5a6.36,6.36,0,0,0,.16-3.76A3.11,3.11,0,0,0,260.56,194.23Z" fill="currentColor"/><path d="M118.09,267.84a5.17,5.17,0,0,0-1.38-2.4,4.87,4.87,0,0,0-3-1.64,2.09,2.09,0,0,1-1.47-.89c-.32-.5-.61-1-.9-1.51a.4.4,0,0,1-.06-.3c.07-.33-.18-.57-.43-.81a5.85,5.85,0,0,0-2.32-1.36l-.85-.29a12.53,12.53,0,0,0-3.93-.61,2.61,2.61,0,0,0-1.36.32,7.17,7.17,0,0,1-1.17.48,2.1,2.1,0,0,0-1.16.83,4.37,4.37,0,0,0-.51,2.27.1.1,0,0,0,0,.07,7.88,7.88,0,0,0,.92,1.25c.59.55,1.3,1,2,1.56s1.11.83,1.63,1.26.93,1,.57,1.64a7.46,7.46,0,0,0-.33.94,1.11,1.11,0,0,1-1.55.41,2.59,2.59,0,0,1-.39-.25l-.93-.7a8.24,8.24,0,0,0-3.78-1.64,21.27,21.27,0,0,0-3.83-.27,3.32,3.32,0,0,0-1.2.2,6.72,6.72,0,0,0-2.37,1.31,5.59,5.59,0,0,1-1,.76,1.11,1.11,0,0,1-1.3-.07,1.24,1.24,0,0,1-.59-1.3c.08-.29.15-.59.25-.88.2-.61.43-1.21.63-1.82a1.87,1.87,0,0,0-.33-1.74,10.74,10.74,0,0,0-1.81-1.82,7,7,0,0,1-.89-.92c-.14-.17-.05-.35.2-.45a6.07,6.07,0,0,0,1.4-.77.7.7,0,0,1,.46-.12,1.17,1.17,0,0,0,.85-.16c1.11-.53,2-1.24,3-1.83a4.16,4.16,0,0,0,2-2.39,2.44,2.44,0,0,1,.39-.77,2.26,2.26,0,0,0,.26-2.25.77.77,0,0,0-.36-.44,3.41,3.41,0,0,0-1.17-.46,16.05,16.05,0,0,0-4.33-.21l-1.07.15c-.28-.26-.57-.5-.84-.76a3.23,3.23,0,0,0-2.43-.84h-.52c-1.68,0-3.14.38-4,1.51a1.42,1.42,0,0,1-.12.13,3.32,3.32,0,0,0-1,3,.79.79,0,0,1-.09.58l-1.41,2.34a7.32,7.32,0,0,0-1,3,2.07,2.07,0,0,0,.07.74,9.78,9.78,0,0,0,1,2.53,2.93,2.93,0,0,1,.49,1.67,14,14,0,0,0,.75,4.91,4.53,4.53,0,0,0,2,2.56c.53.35,1.11.67,1.7,1a32.82,32.82,0,0,0,4.42,1.84,10.08,10.08,0,0,0,1.58.35,15.07,15.07,0,0,0,3.22,0,32.6,32.6,0,0,0,4.22-.42,8.6,8.6,0,0,1,4.28.19c.35.12.72.2,1.08.29a17.4,17.4,0,0,0,3,.56c1.29.1,2.57.12,3.85.1a7.32,7.32,0,0,0,.93-.09,42.55,42.55,0,0,0,5.24-1.24,1.46,1.46,0,0,0,1-.78,3,3,0,0,1,.23-.39,7.11,7.11,0,0,1,.77-.14A2.25,2.25,0,0,0,117,272c1-1.17,1.79-2.38,1.18-3.82A1.2,1.2,0,0,1,118.09,267.84Z" fill="currentColor"/><path d="M240.81,121.77a3.11,3.11,0,0,0-1.48-2.42c-.39-.23-.75-.49-1.16-.7a20.49,20.49,0,0,0-7.27-2.12,8.07,8.07,0,0,0-2.25,0,10.72,10.72,0,0,1-1.5.13,8.89,8.89,0,0,0-2.88.57,71.32,71.32,0,0,0-7.78,3.32,7.36,7.36,0,0,1-2.15.62L214,121a5.91,5.91,0,0,0-2.58-1,5.24,5.24,0,0,0-1.11-.08,43,43,0,0,0-5.08.65,5,5,0,0,0-2.46,1.18,4.7,4.7,0,0,1-.85.66,3,3,0,0,0-1.38,1.69,16.68,16.68,0,0,0-1,3.17,10.82,10.82,0,0,0,.06,2c.38.27.24.6.21.93a1.27,1.27,0,0,0,.17.7,19.41,19.41,0,0,0,1.55,2.86,3.17,3.17,0,0,1,.36.68,18.26,18.26,0,0,0,2,3.33,8.37,8.37,0,0,0,2.4,2.2,3.09,3.09,0,0,0,.94.43c1.34.3,2.51.84,3.77,1.25a10.34,10.34,0,0,0,2.5.57,1.56,1.56,0,0,1,1.39.8c.18.37.35.75.55,1.11a3.76,3.76,0,0,0,2.13,1.73,31.27,31.27,0,0,0,3.38,1,5.89,5.89,0,0,0,4-.47c.71-.37,1.38-.8,2-1.22a2.4,2.4,0,0,0,1.14-1.57,5.42,5.42,0,0,0-.17-2.88,4.77,4.77,0,0,0-2.31-2.64,14.53,14.53,0,0,0-4.29-1.67,11.38,11.38,0,0,1-3.2-1.23,1.89,1.89,0,0,1-.69-.62,7.85,7.85,0,0,1-.38-.77c-.26-.44-.06-.76.49-1l.45.12a8.18,8.18,0,0,0,5.44-.22,18.15,18.15,0,0,0,1.77-.87,7.56,7.56,0,0,0,3.35-2.86,1.84,1.84,0,0,1,1.81-.79,6.3,6.3,0,0,1,.9.13,8.73,8.73,0,0,1,1.57,3.41,2.83,2.83,0,0,1,0,1.26,11,11,0,0,0,.19,4.43,1.92,1.92,0,0,0,.82,1.19,11.87,11.87,0,0,0,1.25.76,5.63,5.63,0,0,0,2.83.6A11.78,11.78,0,0,0,242,139c.51-.21,1-.44,1.53-.63a5.57,5.57,0,0,0,2-1.19c.38-.37.78-.71,1.12-1.09a4.11,4.11,0,0,0,1.14-1.9c.07-.36.18-.71.25-1.07a3.53,3.53,0,0,0,.08-.72,4,4,0,0,0-1.68-2.85,14.18,14.18,0,0,0-3.44-2.1,3.22,3.22,0,0,1-2-2.21,5,5,0,0,1-.22-2.42A2.59,2.59,0,0,0,240.81,121.77Z" fill="currentColor"/><path d="M55.22,21.14c.53.5,1.07,1,1.56,1.53a1.47,1.47,0,0,1,.48.82,8.69,8.69,0,0,1,0,3.05,3,3,0,0,0,1.35,3.28,8.58,8.58,0,0,0,3.66,1.63,6.71,6.71,0,0,0,3.15.07,7.63,7.63,0,0,1,.93-.14c0-.21,0-.41.33-.46l.78-.14a20.25,20.25,0,0,0,2.08-.47A16.24,16.24,0,0,0,74,28.36c.49-.35,1-.69,1.49-1l.67-.45a7.81,7.81,0,0,0,.73-.5c.23-.19.39-.42.63-.59a10.09,10.09,0,0,0,1.88-1.87A7.6,7.6,0,0,1,82,21.73,3.54,3.54,0,0,0,83,20.88a9.3,9.3,0,0,0,1.87-3.53,14.77,14.77,0,0,0,.39-2,3.28,3.28,0,0,0,0-1.73c-.24-.64-.61-1.25-.84-1.88a12.17,12.17,0,0,1-.51-1.95,1.28,1.28,0,0,1,.17-.72c.38-.86.81-1.72,1.19-2.59a3.4,3.4,0,0,0,.06-2.6,5.06,5.06,0,0,0-1.68-2.13,3.65,3.65,0,0,0-2.07-1,6.77,6.77,0,0,1-.79-.18C80.61-.25,79.72-.52,78.6-.6a7.62,7.62,0,0,0-3.34.37,7.63,7.63,0,0,1-.85.26L73.18.34a9.63,9.63,0,0,1-.73-.66,5,5,0,0,0-3.27-1.33,1.85,1.85,0,0,0-.88.13c-1,.47-2,.92-2.92,1.46a18.29,18.29,0,0,0-2.16,1.6,8.38,8.38,0,0,1-2.46,1.69l-.09,0a26.12,26.12,0,0,0-3.92,3.34,1.56,1.56,0,0,0-.34.52,3.6,3.6,0,0,0,.13,3.78,1.41,1.41,0,0,1,0,1.74,30.41,30.41,0,0,1-1.82,2.49,5.11,5.11,0,0,0-1,1.65,4.06,4.06,0,0,0,1,4A4.29,4.29,0,0,0,55.22,21.14ZM64.73,11c.47-.63.94-1.26,1.42-1.88A2.61,2.61,0,0,1,67.3,8.3a7.1,7.1,0,0,1,3.15-.63,2.43,2.43,0,0,1,.77.1c.46.13.9.3,1.31.44.34.8.61,1.48.94,2.15a1.35,1.35,0,0,1-.11,1.44,9.53,9.53,0,0,1-4,3.39,3.86,3.86,0,0,1-1.49.39c-1.76.11-2.43-.31-3.14-1.24A2.57,2.57,0,0,1,64.73,11Z" fill="currentColor"/><path d="M80.71,197.4a3.63,3.63,0,0,0,1.46-.71c.29-.22.59-.44.86-.68a6.88,6.88,0,0,0,.81-.81,9.92,9.92,0,0,0,1.24-2.09,2,2,0,0,0,0-1.87,4,4,0,0,1-.21-.47,4,4,0,0,0-1.79-1.93,4.29,4.29,0,0,1-1.73-1.5q.26-1.22.51-2.4a.8.8,0,0,0-.16-.62,3.42,3.42,0,0,1-.58-1,9.62,9.62,0,0,0-1.4-3,13.6,13.6,0,0,0-4-3.81,30.22,30.22,0,0,0-3.33-1.79,2.35,2.35,0,0,0-.44-.17,29,29,0,0,0-2.82-.68,1.4,1.4,0,0,1-1.35-1,7.13,7.13,0,0,0-.62-1.35A4.73,4.73,0,0,0,65,169.38a8.52,8.52,0,0,0-3.21-.6.74.74,0,0,0-.29.05c-.68.18-1.36.36-2,.56a4.54,4.54,0,0,0-.73.37c-.41.23-.81.49-1.24.71a3.16,3.16,0,0,0-1,.78,4.31,4.31,0,0,0-.79,1.68,3.13,3.13,0,0,1-.87,1.65.59.59,0,0,0-.12.2c-.19.48-.41.95-.55,1.44a4.66,4.66,0,0,0-.19,2.34c.21.92,1.1,1.41,2.17,1.7a7.32,7.32,0,0,0,3.13.08,10.34,10.34,0,0,0,2.74-1c.46-.23.91-.47,1.39-.68a3.35,3.35,0,0,1,2-.19,5.46,5.46,0,0,1,3,1.54,7.49,7.49,0,0,1,1.51,2.31c.51,1.26,1,2.51,1.52,3.77a9.7,9.7,0,0,1,.64,2,4.91,4.91,0,0,0,1,2.32,7.4,7.4,0,0,1,.85,1.59c.41.88.79,1.77,1.15,2.66a12.21,12.21,0,0,1,.65,1.87,8.18,8.18,0,0,1,.08,1.57c0,.25-.14.46-.48.6a1.09,1.09,0,0,1-.85-.53,9.56,9.56,0,0,1-.82-1.45c-.4-1.08-1.55-1.75-2.54-2.51a4.59,4.59,0,0,0-1.07-.5,2.14,2.14,0,0,0-.75-.16c-.66,0-1.32,0-2,0a1.41,1.41,0,0,0-.63.18,7.06,7.06,0,0,0-1.09.82,8.06,8.06,0,0,0-1,1.09,2.63,2.63,0,0,0-.37.8,1.91,1.91,0,0,0-.1.71,3.31,3.31,0,0,0,.38,1.89,29,29,0,0,1,1.3,2.62A11.48,11.48,0,0,0,67.22,204c.5.58,1,1.17,1.53,1.75a5.52,5.52,0,0,0,.88.86A12.55,12.55,0,0,1,71,207.72a6.38,6.38,0,0,0,2.53,1.57,4.64,4.64,0,0,1,.75.34,4.52,4.52,0,0,0,3.45.37c.61-.18,1.21-.39,1.8-.61,1.09-.39,1.7-1,1.77-1.92a2,2,0,0,1,.07-.42,11.74,11.74,0,0,0,.41-2.19,2.05,2.05,0,0,0-.56-1.62,2.47,2.47,0,0,1-.54-.83,2.39,2.39,0,0,0-.87-1.19,1.84,1.84,0,0,1-.61-.88,6.07,6.07,0,0,1-.23-.91A2.1,2.1,0,0,1,80.71,197.4Z" fill="currentColor"/><path d="M104.09,176.24a1,1,0,0,0-.42-.68,6.61,6.61,0,0,0-1.94-1c-.41-.14-.84-.25-1.22-.42a4.07,4.07,0,0,0-2.42-.28c-.88.15-1.76.32-2.61.53a4.44,4.44,0,0,0-1.88.93c-.35.31-.68.63-1,.94a1.83,1.83,0,0,0-.65,1c-.13.62-.26,1.24-.34,1.87a7.8,7.8,0,0,0,0,1.28,1.07,1.07,0,0,0,.83,1.05,1.77,1.77,0,0,0,.73,1.78c.11.1.19.21.31.3a1.06,1.06,0,0,1,.41,1.06c0,.2-.06.39-.1.59a9.56,9.56,0,0,0-.2,1.27,2.68,2.68,0,0,0,.92,2.26c.5.45,1,.92,1.45,1.38a16.23,16.23,0,0,0,1.61,1.48,10.71,10.71,0,0,0,5.92,2c.38,0,.77,0,1.14.08a4,4,0,0,0,4.37-2.06c.12-.31.23-.63.32-1a3.35,3.35,0,0,1,1.54-1.91,10.12,10.12,0,0,1,4.72-1.64,8.14,8.14,0,0,0,2.19-.5c.92-.35,1.82-.73,2.73-1.11a3,3,0,0,0,1.17-.84,7.75,7.75,0,0,0,.89-1.36,1.6,1.6,0,0,0,.09-1.4,1.63,1.63,0,0,1,.07-1.33,2.32,2.32,0,0,0,.32-1.84c-.08-.21-.12-.44-.2-.66-.27-.65-.56-1.29-.81-1.94a5.73,5.73,0,0,0-1.06-1.8c-.41-.47-.82-.93-1.2-1.41a2.22,2.22,0,0,1-.53-.81,2.47,2.47,0,0,1,.29-2,4.74,4.74,0,0,0,.77-1.94,1.79,1.79,0,0,1,.33-.78,1.18,1.18,0,0,0,.28-.79,10.9,10.9,0,0,0,0-1.28,3.47,3.47,0,0,0-.3-1,3.54,3.54,0,0,0-2.27-1.67c-1.42-.48-2.81-1-4.31-1.36a6.61,6.61,0,0,0-2.26-.13,7.37,7.37,0,0,1-.93.11,5.38,5.38,0,0,0-2.09.43,4.74,4.74,0,0,1-.75.26,5.16,5.16,0,0,0-2.9,1.63c-.19.21-.42.41-.59.62a5.65,5.65,0,0,0-.64.95,16.2,16.2,0,0,0-.74,1.72,3.46,3.46,0,0,0-.19,1c0,.65,0,1.31.07,2a.79.79,0,0,0,.07.37,2.52,2.52,0,0,1,.31,1,3.56,3.56,0,0,0,.24.89c.55,1.35.87,1.31,2.51,1.58a2.94,2.94,0,0,0,.42,0,4.21,4.21,0,0,1,.51,0,3.68,3.68,0,0,0,2.88-.52l.75-.51a6,6,0,0,1,2.08.91.82.82,0,0,1,.46.72c0,.52.14,1,.11,1.57a3.7,3.7,0,0,1-.85,2.23,15.62,15.62,0,0,1-3,2.54,3.26,3.26,0,0,1-2.2.51c-.42,0-.83,0-1.25,0a5.87,5.87,0,0,1-.84,0,1,1,0,0,1-.52-.2c-.47-.45-.88-.9-.69-1.52a6,6,0,0,0,.09-1.2,2.21,2.21,0,0,1,0-.68A3.36,3.36,0,0,0,104.09,176.24Z" fill="currentColor"/><path d="M79.73,42a4.46,4.46,0,0,1-.9.16c-.54,0-1.08.06-1.62.08a9.45,9.45,0,0,0-2.39.34,7.3,7.3,0,0,0-2.92,2.21,4.19,4.19,0,0,0-.2.49,3.62,3.62,0,0,0-.11,2.16A3,3,0,0,0,72,48.68,7.87,7.87,0,0,1,72.72,50a2.41,2.41,0,0,0,.42.6c.73.72,1.48,1.43,2.22,2.15s1.41,1.27,2,1.95c.79.9,1.49,1.83,2.19,2.77a9,9,0,0,1,1,1.52A4.91,4.91,0,0,1,81,61.37c-.08,1.29-.18,2.57-.31,3.85a3.1,3.1,0,0,0,.1,1.42c.82,2.22,2.83,3.6,5.85,4.26a29,29,0,0,0,3.23.15c.8.09,1.62.06,2.44.07a5.49,5.49,0,0,0,.91-.06,4.63,4.63,0,0,0,2.4-1.12c.67-.58,1.31-1.17,2-1.75a6.17,6.17,0,0,1,.66-.48,2.85,2.85,0,0,1,1.77-.54c.66,0,1.32,0,2,0a5,5,0,0,0,3.16-1.08,7.89,7.89,0,0,0,1-1c.27-.31.49-.63.73-1a7.29,7.29,0,0,0,1.6-4.08,7.56,7.56,0,0,0,0-.83,3.73,3.73,0,0,0-1.39-2.79c-.64-.53-.89-1.07-.42-1.76a2.24,2.24,0,0,0,.36-1c.14-1,.25-2,.32-3a3,3,0,0,0-1.5-2.71,4.57,4.57,0,0,0-2.36-.82,20.09,20.09,0,0,0-4.39.24A8.4,8.4,0,0,0,96,48.56a4.63,4.63,0,0,0-2.54,3.08c-.31,1.64-1.68,2.86-3.32,3.94a8.22,8.22,0,0,1-1.11.48c-1-.61-1.11-.81-1.12-1.58a13.05,13.05,0,0,1,1.35-5.33A2.45,2.45,0,0,1,90.54,48l1.27-.58a1,1,0,0,0,.36-.2,3.88,3.88,0,0,1,2.11-1.11c.44-.1.65-.3.68-.6a4.17,4.17,0,0,0-.58-2.87,2.34,2.34,0,0,0-1.27-.93c-.71-.23-1.43-.46-2.16-.62a8.91,8.91,0,0,0-1.71-.23c-1.24,0-2.49,0-3.73,0a10.68,10.68,0,0,0-3.05.47C81.57,41.59,80.65,41.8,79.73,42Z" fill="currentColor"/><path d="M98.21,16.63a1.75,1.75,0,0,1,.82,1.3,25,25,0,0,0,1.54,4.93,3.5,3.5,0,0,0,.29.54,4.79,4.79,0,0,0,4,2.06c.45,0,.9,0,1.34.1,1.53.22,2.69.77,3.17,1.94a7.92,7.92,0,0,1,.33.8c.33,1,.63,2.09,1,3.13a11,11,0,0,0,.7,2,6.59,6.59,0,0,0,4,3.07,11.49,11.49,0,0,0,6.22.29,10.28,10.28,0,0,0,4-1.52,4.21,4.21,0,0,1,1-.47,5.81,5.81,0,0,0,3.26-3.2,10.47,10.47,0,0,1,1.06-2,4.32,4.32,0,0,0,.7-1.41c.21-.84.43-1.68.71-2.52a12,12,0,0,0,.59-3,12.5,12.5,0,0,1,.41-2.87,2.48,2.48,0,0,0,0-1.05,5,5,0,0,0-.34-1,.73.73,0,0,0-.27-.34,5.56,5.56,0,0,1-2-2.07,2.64,2.64,0,0,0-.43-.46c-1.36-1.22-3.36-1.41-5.56-.52l-.77.32a14.6,14.6,0,0,0-3.53,2,3,3,0,0,0-.62.61c-.38.54-.72,1.09-1,1.64a2.25,2.25,0,0,0-.39,1.68c.13.53.25,1.06.4,1.59s.28.75.4,1.14a1.26,1.26,0,0,1-.15,1.05.77.77,0,0,1-.88.35,6.1,6.1,0,0,1-1-.46c-1-.66-2.08-1.34-3.17-2a5.9,5.9,0,0,0,1.36-1.71,1.25,1.25,0,0,0-.09-1.57,2.24,2.24,0,0,1-.47-.92c-.17-.76-.26-1.53-.37-2.31a1.07,1.07,0,0,1,.2-.91c.45-.07.92-.13,1.38-.23a14.32,14.32,0,0,0,2.19-.55,7.26,7.26,0,0,1,2.86-.62c.27,0,.54,0,.81,0A1.67,1.67,0,0,0,123,13l1.26-1.23a.88.88,0,0,0,.31-.86c-.13-.62-.23-1.25-.38-1.86a6.7,6.7,0,0,0-.44-1.4c-.28-.59-.66-1.15-1-1.73a1.87,1.87,0,0,0-1.2-.87,21.9,21.9,0,0,0-3.5-.69,8.57,8.57,0,0,0-3.46.28c-.8.23-1.62.41-2.42.65a11.93,11.93,0,0,0-1.44.56,7.14,7.14,0,0,0-2.34,1.79c-.4,0-.73-.09-1-.11a8.28,8.28,0,0,0-3.34.22,15.29,15.29,0,0,1-2.73.81,2.34,2.34,0,0,0-.55.22A10.75,10.75,0,0,0,97.48,11a2.47,2.47,0,0,0-.79,2.59,15.08,15.08,0,0,0,.6,1.71A2.64,2.64,0,0,0,98.21,16.63Z" fill="currentColor"/><path d="M201.43,25.77a3.24,3.24,0,0,1,.51.6A9.17,9.17,0,0,0,204.76,29a23.52,23.52,0,0,0,2.12,1.1,8.48,8.48,0,0,0,3.32.67,4.66,4.66,0,0,0,1.71-.22,20.62,20.62,0,0,1,2.41-.49c.43.08.31.49.74.46s.33-.54.84-.61a1.74,1.74,0,0,1,1,1.26,6.87,6.87,0,0,0,1.71,3.11,6.79,6.79,0,0,0,3.51,2.15,14.63,14.63,0,0,0,3.4.53,3.35,3.35,0,0,0,1.46-.24,4.21,4.21,0,0,1,1.79-.53.93.93,0,0,0,.38-.14,2,2,0,0,0,1.2-1.07,1.14,1.14,0,0,1,.82-.67,8.8,8.8,0,0,0,1.33-.54c.74-.42,1.45-.88,2.14-1.34a1.54,1.54,0,0,0,.53-.58,6,6,0,0,1,1.3-1.71,4.58,4.58,0,0,0,1.26-2.07,3.56,3.56,0,0,1,.63-1.16,7.32,7.32,0,0,0,1.25-2.26,15.41,15.41,0,0,0,.48-1.77,1.29,1.29,0,0,0,0-.7,6.47,6.47,0,0,1-.36-2.25,2.17,2.17,0,0,0-.24-.92,9.48,9.48,0,0,0-1.62-2.17c-.34.32-.56.09-.75,0a5.22,5.22,0,0,0-2.24-.9,1.1,1.1,0,0,1-.43-.22c-.51-.4-1-.81-1.51-1.23a3.29,3.29,0,0,0-1.45-.67,15.1,15.1,0,0,0-3.44-.35,52.61,52.61,0,0,0-5.49.56c-.72.08-1.41.29-2.12.32l-3.7.18a16.33,16.33,0,0,0-3.48.59,13.31,13.31,0,0,0-3.69,1.65,7.8,7.8,0,0,1-2.69,1.15,6.39,6.39,0,0,0-1.63.62c-.71.36-1.36.78-2,1.17a5.05,5.05,0,0,0-2.83,4.08,1.22,1.22,0,0,0,.13.69A3.56,3.56,0,0,0,201.43,25.77Zm15.07-3.89c.12-.28.53-.22.84-.28q.69-.11,1.38-.24a19.51,19.51,0,0,0,3.69-1.44c.33-.2.67-.4,1-.62a1.32,1.32,0,0,1,.9-.2,4,4,0,0,1,3.1,1.37c.46.66.93,1.3,1.39,2a.89.89,0,0,1,0,1.05c-.31.53-.56,1.08-.83,1.62a1.71,1.71,0,0,1-1.18.86c-.27.07-.53.17-.8.25a3.26,3.26,0,0,0-1.12.61c-.37.32-.78.62-1.13.95a1.59,1.59,0,0,1-1,.41,7.43,7.43,0,0,1-3-.46c-.33-.13-.45-.33-.4-.59s.08-.25.1-.38c.37-1.74-.3-3.2-2.25-4.32C216.87,22.28,216.36,22.22,216.5,21.88Z" fill="currentColor"/><path d="M88.47,238.66a9.71,9.71,0,0,1,1.1.2,14.05,14.05,0,0,0,4.35.31l.88,0a12.43,12.43,0,0,1,3.71.39,7.39,7.39,0,0,1,2.63,1.21c.9.67,1.78,1.36,2.68,2a11.3,11.3,0,0,0,3.46,1.77,9.12,9.12,0,0,1,1.71.75c.56.32,1.17.6,1.77.87a5.85,5.85,0,0,0,3.14.44c1.08-.13,2.13-.33,3.19-.52a3.77,3.77,0,0,0,2.35-1.27,15.07,15.07,0,0,0,1.07-1.22,4.51,4.51,0,0,1,2.75-1.75c1.28-.36,2.52-.81,3.79-1.2a3.88,3.88,0,0,0,1.31-.69,8.8,8.8,0,0,0,1.9-2c.49-.74.9-1.5,1.33-2.25.16-.28.25-.58.38-.86a1.71,1.71,0,0,0-.32-1.66,17.15,17.15,0,0,0-1.37-1.63,2.46,2.46,0,0,0-1.08-.73,3.79,3.79,0,0,1-1-.54,8,8,0,0,0-7-1,22.82,22.82,0,0,0-3.52,1.39.73.73,0,0,0-.33.26,5.8,5.8,0,0,1-1.14,1.19,2.84,2.84,0,0,0-.62.78c-.24.51-.4,1-.59,1.56a3.22,3.22,0,0,1-.24.61,1.25,1.25,0,0,1-1.17.55,6.22,6.22,0,0,1-2.64-.5c-1-.44-2-.89-3-1.32a14.9,14.9,0,0,0-4.88-1.38,5.28,5.28,0,0,1-1-.16,38,38,0,0,0-5-.78c-.37,0-.72-.15-1.09-.23s-.71-.35-.7-.74a4.14,4.14,0,0,0-.19-1,1.29,1.29,0,0,1,.26-1A3.15,3.15,0,0,1,98,227.11c.37,0,.74-.08,1.12-.1.91-.06,1.83-.1,2.75-.17a6.36,6.36,0,0,0,3.72-1.35,5.69,5.69,0,0,0,1.66-2.31c0-.09.07-.19.1-.28a2.23,2.23,0,0,0,.08-.56,1.7,1.7,0,0,0-.63-1.29l-.12-.05a.2.2,0,0,0-.11,0,1.37,1.37,0,0,1-1.38-.59,6.45,6.45,0,0,0-1.24-1.13,18.83,18.83,0,0,0-1.79-1.14,10.11,10.11,0,0,0-1.65-.81c-1-.35-2-.65-3-.93a23,23,0,0,0-2.52-.55,14.34,14.34,0,0,0-7.43.77,3.67,3.67,0,0,0-1.44.86,4.11,4.11,0,0,0-.92,4.09,8.25,8.25,0,0,1,.92,2.15,1.73,1.73,0,0,1-.21,1.74,10.43,10.43,0,0,1-.64,1,5.29,5.29,0,0,0-.86,1.5,18.35,18.35,0,0,0-1.11,5.82,4.09,4.09,0,0,0,1.92,3.52A6.71,6.71,0,0,0,88.47,238.66Z" fill="currentColor"/><path d="M73.55,236.54c-.61-2.29-2.32-4.11-4.86-5.54a6.12,6.12,0,0,1-1.52-1,6,6,0,0,1,.45-.92,11.22,11.22,0,0,1,2.81-3.1,2.63,2.63,0,0,0,1.15-1.67,6.4,6.4,0,0,0,.11-1.63,3.08,3.08,0,0,0-.46-1.77,1.88,1.88,0,0,1-.32-1.13,4.05,4.05,0,0,0-1.44-2.94c-.23-.21-.52-.39-.73-.62a6.73,6.73,0,0,0-3.92-1.64,17.1,17.1,0,0,0-5,0,6.29,6.29,0,0,0-1.75.48,7.06,7.06,0,0,0-3.33,3,1.7,1.7,0,0,0-.21.79,7.27,7.27,0,0,0,0,1,6.17,6.17,0,0,1,.88.8A3.4,3.4,0,0,0,58,222a9,9,0,0,1,1.94.36,6.09,6.09,0,0,0,2.28.4,1.81,1.81,0,0,1,.41.11,3,3,0,0,1-.14.51,17,17,0,0,1-3,3.57l-2.89-.07a3.89,3.89,0,0,1-1.7-.21,1,1,0,0,0-.49-.05,5.6,5.6,0,0,0-1.8.37c-.74.34-1.46.71-2.18,1.07-.24.12-.45.26-.72.41a10.45,10.45,0,0,1-3.77-2.07,2.08,2.08,0,0,1-.6-2.42,5.87,5.87,0,0,1,1.1-1.51,4.78,4.78,0,0,1,1.74-1.16,12.63,12.63,0,0,0,2.43-1.43c.6-.42.82-.89.43-1.47-.2-.3-.33-.63-.54-.92a1,1,0,0,1,.07-1.29,4.16,4.16,0,0,1,.32-.39,2.11,2.11,0,0,0,.51-1.83c-.07-.63-.65-1-1.23-1.41a3.23,3.23,0,0,0-1.79-.57,28.78,28.78,0,0,0-4.64.2,8.79,8.79,0,0,0-4.5,1.84,3.09,3.09,0,0,0-1.08,1.41,4.12,4.12,0,0,1-.51.91c-.24.36-.52.69-.79,1a5.24,5.24,0,0,0-1.14,4.71c.18.74.28,1.49.5,2.23a4.68,4.68,0,0,0,2.37,2.89c1,.53,1.86,1.13,2.8,1.68a2.48,2.48,0,0,1,1.32,1.78c.07.51.18,1,.3,1.53a2.71,2.71,0,0,0,1.71,2c.61.27,1.21.54,1.84.78a2.57,2.57,0,0,1,1.07.56c-.11.72-.2,1.41-.34,2.09a1.76,1.76,0,0,0,.86,1.82l.37.25A9.68,9.68,0,0,0,53.81,241a1.37,1.37,0,0,1,1.26.44c0,.05.1.09.15.14a7.31,7.31,0,0,0,3.57,1.92,21.62,21.62,0,0,0,7.19.59,8.26,8.26,0,0,0,1.58-.25,12.21,12.21,0,0,0,3.3-1.46,7.31,7.31,0,0,0,1.59-1.28A4.82,4.82,0,0,0,73.55,236.54Z" fill="currentColor"/><path d="M62,156.06a4.2,4.2,0,0,0,.72,2.19,2.84,2.84,0,0,0,2,1.23c.28.06.56.11.83.18a9.39,9.39,0,0,0,3,.29,3.32,3.32,0,0,1,1.82.37A8.49,8.49,0,0,1,72,161.53a11.28,11.28,0,0,0,5.09,2.54,19.62,19.62,0,0,0,3.51.47,8.81,8.81,0,0,0,3.89-.42,3.27,3.27,0,0,0,1.27-.81c.34-.39.72-.78,1-1.19a7.18,7.18,0,0,0,1.38-2.27,8.13,8.13,0,0,1,.74-1.55,3.61,3.61,0,0,1,2-1.67A3,3,0,0,0,92.84,155a1.05,1.05,0,0,1,.38-.46A4,4,0,0,0,95,152.26a6.42,6.42,0,0,0,.19-2.95c-.14-.72-.37-1.44-.5-2.16a2.4,2.4,0,0,0-1.41-1.85.92.92,0,0,1-.64-1.07,1.25,1.25,0,0,0,0-.21l0-.34a1.85,1.85,0,0,0-1.11-1.93c-.37-.21-.73-.43-1.12-.61a34.33,34.33,0,0,0-6.36-2.32,11.83,11.83,0,0,0-3.72-.44l-1.71.13a.65.65,0,0,0-.21,0,14.79,14.79,0,0,0-2.1,1.09c-1.18.88-2.26,1.83-3.36,2.75a3.74,3.74,0,0,0-.53.6c-.45.56-.91,1.12-1.33,1.7a4.92,4.92,0,0,1-2.46,1.69l-1,.35a13.23,13.23,0,0,0-2.9,1.5,4.27,4.27,0,0,0-.84.8,12.45,12.45,0,0,0-.86,1.09,6.18,6.18,0,0,0-1,2.62.74.74,0,0,0,0,.39,3.81,3.81,0,0,1-.08,2.47A1.17,1.17,0,0,0,62,156.06Zm12.71-4.71c1.23-.6,2.45-1.2,3.64-1.83a13,13,0,0,0,1.41-1c.17-.13.33-.27.54-.45l.5.31A10.09,10.09,0,0,0,84.5,150c.38.08.74.21,1.14.33a3.11,3.11,0,0,1,.08.44,4.33,4.33,0,0,1,0,.52c-1.64,1.32-3.42,2.62-4.42,4.34-.33-.08-.58-.13-.8-.2a23.41,23.41,0,0,0-3.94-.86,20.7,20.7,0,0,0-2.37-.08c-.54,0-1.08,0-1.64.05a11.36,11.36,0,0,1-.81-1.79C72.8,152.25,73.77,151.81,74.72,151.35Z" fill="currentColor"/><path d="M273.07,266.15a3.65,3.65,0,0,0,1.5-1.27,2.4,2.4,0,0,0,.36-2c0-.24-.1-.47-.13-.71a7.91,7.91,0,0,0-.72-2.46,2.82,2.82,0,0,1-.29-1.56,7,7,0,0,1,.43-1.71,9.72,9.72,0,0,0,.39-4.85,16.55,16.55,0,0,0-.74-2.93,7.47,7.47,0,0,0-1.57-2.94,2.84,2.84,0,0,0-1.05-.76c-.42-.14-.84-.32-1.27-.44a6.31,6.31,0,0,0-2.24-.37,6.59,6.59,0,0,1-1.46-.09,3.1,3.1,0,0,1-2-1.07,2.55,2.55,0,0,0-1.89-1,.81.81,0,0,1-.48-.16,3.48,3.48,0,0,0-2.37-.65,5.63,5.63,0,0,0-2.4.79c-.52.34-1,.75-1.55,1.08a2.09,2.09,0,0,0-1,1.71c0,.53-.26.77-.64.85a.39.39,0,0,0-.16.07l-.29.07a1.58,1.58,0,0,0-1.17,1.5,9.38,9.38,0,0,0-.13,1.08,29.63,29.63,0,0,0,.18,5.78,9.75,9.75,0,0,0,.84,3.08l.65,1.32a.56.56,0,0,0,.1.15,11.65,11.65,0,0,0,1.53,1.32c1.07.66,2.16,1.21,3.25,1.79a3.77,3.77,0,0,0,.64.23c.59.17,1.18.36,1.77.51A4.21,4.21,0,0,1,263.3,264l.58.66a11.2,11.2,0,0,0,2.11,1.82,3.63,3.63,0,0,0,.9.41c.38.13.76.25,1.14.34a5.29,5.29,0,0,0,2.38-.08.83.83,0,0,0,.3-.14,3.21,3.21,0,0,1,2-.73A.87.87,0,0,0,273.07,266.15Zm-7.78-8.58c-.86-.78-1.73-1.56-2.61-2.3a11.6,11.6,0,0,0-1.21-.81c-.16-.1-.32-.17-.53-.29,0-.18.05-.34.09-.49a8.68,8.68,0,0,0,.08-3.42c-.06-.33-.08-.65-.11-1a3.7,3.7,0,0,1,.33-.21l.4-.17a15.17,15.17,0,0,0,4.85,2.13c0,.28.08.49.1.69a19.84,19.84,0,0,0,.57,3.39,15.05,15.05,0,0,0,.69,1.91c.17.43.37.84.56,1.29-.32.53-.8.76-1.16,1.2C266.62,258.81,266,258.18,265.29,257.57Z" fill="currentColor"/><path d="M264.57,155.73c-.62-.09-1.24-.14-1.86-.21a1.87,1.87,0,0,1-1.67-1,3.57,3.57,0,0,1-.36-.77,3,3,0,0,0-1.72-2.22c-.1-.06-.16-.15-.25-.2-.62-.36-1.22-.75-1.87-1.07s-1.28-.46-1.85-.76a18.35,18.35,0,0,0-2.43-.72,1.64,1.64,0,0,0-.5,0c-.54,0-1.09,0-1.63,0a5.63,5.63,0,0,1-2-.22,6.52,6.52,0,0,0-3.91,0,13.55,13.55,0,0,0-2,.75,2.69,2.69,0,0,1-2.44.14,12.38,12.38,0,0,0-3.84-.79,3.86,3.86,0,0,0-2.25.39c-.3.17-.56.36-.85.53a3.57,3.57,0,0,1-.79.43,1.81,1.81,0,0,0-1.2.87,5.84,5.84,0,0,0-.46.94c-.36.87-.32,1.79-.59,2.67a4.3,4.3,0,0,0,.14,2.51c.09.33.26.65.32,1,.26,1.45,1.33,2.66,2.13,3.95a23.57,23.57,0,0,0,4.28,3.66c.61.37,1.15.8,1.71,1.21.89.64,1.79,1.27,2.66,1.92a5.32,5.32,0,0,1,.85.78,14.5,14.5,0,0,1,1.9,2.86,6.32,6.32,0,0,0,2.26,2.25,20,20,0,0,0,5.1,2.1,18.44,18.44,0,0,0,3,.69c1.4.18,2.83.22,4.25.32v0h.63a8,8,0,0,0,4.49-1.4,8.67,8.67,0,0,0,3.67-4.54s0-.06,0-.09a5.82,5.82,0,0,0,.46-2.23c0-1.72.1-3.44.14-5.16a4.92,4.92,0,0,1,.45-1.78,2.13,2.13,0,0,0,.23-.88c0-.78,0-1.57,0-2.35C268.66,157.47,267,156.1,264.57,155.73Zm-5,10a7.45,7.45,0,0,1-1.12,2.46,2.44,2.44,0,0,1-2.19,1H256a6.86,6.86,0,0,1-4.44-1.21,19.38,19.38,0,0,1-1.62-1.13,9,9,0,0,1-1.22-1.26,11.26,11.26,0,0,0-1.86-1.93,2.22,2.22,0,0,1-.66-1,3.73,3.73,0,0,0-.87-1.29,1.9,1.9,0,0,1-.59-2.13.75.75,0,0,0,.05-.36c-.08-.57.36-.9,1-1.13a8.41,8.41,0,0,1,.93-.26c1.4-.3,1.69-.26,2.33.64a2.72,2.72,0,0,0,2.3,1.06,17.22,17.22,0,0,0,1.76,0,7.74,7.74,0,0,1,4.93,1.51,1.31,1.31,0,0,1,.41.55c.35.74.69,1.49,1,2.24A3.34,3.34,0,0,1,259.54,165.74Z" fill="currentColor"/><path d="M35.34,53.33a12.32,12.32,0,0,0-2.7,2.26A3.58,3.58,0,0,0,31.54,58a2.29,2.29,0,0,1-.65,1.45,3.39,3.39,0,0,1-2.46,1.1,8,8,0,0,1-4.62-.88c-.33-.18-.66-.37-1-.53a6.41,6.41,0,0,0-1-.41,6.25,6.25,0,0,0-4,.12,22.36,22.36,0,0,0-3.59,1.82,3.43,3.43,0,0,0-1.69,2.27,2.9,2.9,0,0,0,.68,2.62,1.46,1.46,0,0,1,.39,1.39,8.08,8.08,0,0,1-.32,1.24,16.42,16.42,0,0,0-1,5.55,3.65,3.65,0,0,0,1.83,2.89A2.72,2.72,0,0,0,15,77a24.56,24.56,0,0,0,2.41.51A3.23,3.23,0,0,0,19.87,77a6.43,6.43,0,0,0,.75-.61l2.95-2.59a3.82,3.82,0,0,0,1.39-2c.16-.84.34-1.67.49-2.51.08-.39.1-.78.18-1.17a1.47,1.47,0,0,1,1.75-.81c.56.13,1.09.33,1.66.41a12.45,12.45,0,0,0,8.1-1.22c.36-.21.72-.42,1.07-.64.76-.47,1.52-.94,2.27-1.43a13.52,13.52,0,0,1,5.13-1.82,1.83,1.83,0,0,1,1.19.15l.53.25a12.19,12.19,0,0,0,6.32,1.15,10.51,10.51,0,0,0,4.82-1.58.61.61,0,0,0,.23-.22,1.36,1.36,0,0,1,1-.59,2.78,2.78,0,0,0,.75-.32c.47-.25.92-.52,1.49-.85a2.51,2.51,0,0,1,.44-1.49,1.75,1.75,0,0,0,.25-.78c.05-.6,0-1.21.08-1.81.14-1.47-.69-2.58-2.46-3.3-.8-.32-1.65-.6-2.49-.87a9,9,0,0,0-4.91-.11c-.59.14-1.21.23-1.81.37a2.23,2.23,0,0,1-2-.42c-.49-.38-1-.74-1.49-1.11a4.42,4.42,0,0,0-2.48-.77,13.83,13.83,0,0,0-4.18.55A23.45,23.45,0,0,0,35.34,53.33Z" fill="currentColor"/><path d="M11,38.72c0,.49.07,1,.13,1.48a3,3,0,0,0,.15.9c.25.55.56,1.08.87,1.62a2.32,2.32,0,0,0,1.34,1,10.39,10.39,0,0,0,2.64.52,11.5,11.5,0,0,0,3.05-.32A18.26,18.26,0,0,0,24,42.36c.87-.45,1.83-.81,2.72-1.23a3.29,3.29,0,0,1,2.71-.05,11.42,11.42,0,0,0,2.37.59,15.72,15.72,0,0,0,4.11.2,19.91,19.91,0,0,0,6.28-1.71,7.75,7.75,0,0,1,1-.44A3.77,3.77,0,0,0,45,38.43c.11-.14.25-.35.42-.38a14.89,14.89,0,0,0,1.8-.69A2.1,2.1,0,0,0,49,35.74a9.15,9.15,0,0,0-.05-3.13,3.55,3.55,0,0,0-1.29-2.16,5.12,5.12,0,0,0-1.55-1.09,18.27,18.27,0,0,1-1.75-.78,12.59,12.59,0,0,0-3.35-1,5.69,5.69,0,0,0-1.36-.12,30.2,30.2,0,0,0-4.26.65,9.72,9.72,0,0,0-2.47,1,19.22,19.22,0,0,0-3,1.86,3,3,0,0,1-.59.39A1,1,0,0,1,28,31.26a1.46,1.46,0,0,1-.51-.82c-.3-.88-.55-1.77-.91-2.64-.56-1.38-1.86-2.21-3.85-2.37-2.77-.23-1.92-.38-4.45.33a10.07,10.07,0,0,0-4.05,1.95.8.8,0,0,1-.23.18,3.49,3.49,0,0,0-1.43,1.56,30.29,30.29,0,0,0-1.28,3.6c-.08.17,0,.38,0,.57,0,.39-.11.77-.17,1.15s-.11.76-.15,1.15,0,.55,0,.82h0C11,37.4,11,38.06,11,38.72Z" fill="currentColor"/><path d="M163.16,178.38a1.7,1.7,0,0,0-.3-1.79,3,3,0,0,1-.4-.63,2.45,2.45,0,0,0-.7-.78,1.16,1.16,0,0,0-1-.28,2.52,2.52,0,0,1-1.34-.16,2.67,2.67,0,0,0-1.35-.19c-.92.13-1.84.25-2.75.4-.45.08-.87.25-1.32.32a23,23,0,0,0-2.83.75,8.35,8.35,0,0,0-2.66,1.3,7,7,0,0,1-1.82,1,17.12,17.12,0,0,0-4.62,2.54,5.89,5.89,0,0,0-.91,1,5.72,5.72,0,0,0-1.15,2.89,5.65,5.65,0,0,0,.15,2.94c.2.55.42,1.1.58,1.66a9.15,9.15,0,0,0,1.27,2.3,3.71,3.71,0,0,1,.5,1,6.2,6.2,0,0,1-.67,4.81c-.1.17-.19.34-.29.5a3.2,3.2,0,0,0-.49,1.75,4.58,4.58,0,0,0,1.06,3.28,7,7,0,0,0,4.33,2.51,5,5,0,0,0,3.09-.37c.33-.16.62-.35.95-.52a6.26,6.26,0,0,0,2.63-2.41c.22-.36.43-.71.61-1.08a4.26,4.26,0,0,0,.42-2.91,22.25,22.25,0,0,0-.9-2.56,1.33,1.33,0,0,1,.25-1.49c.31-.35.6-.71.89-1.07a8.38,8.38,0,0,0,1.44-2.42,2.93,2.93,0,0,0,0-2.52,5.35,5.35,0,0,1-.39-.89c-.36-1.15-.66-1,.76-1.95.5-.34,1-.64,1.5-1,.94-.72,1.85-1.46,2.75-2.2A9.41,9.41,0,0,0,163.16,178.38Z" fill="currentColor"/><path d="M156.51,74.75a3.85,3.85,0,0,0,3.6,1.2l1.36-.15a5.14,5.14,0,0,0,3.1-1.27A5.78,5.78,0,0,0,166,72.4a4,4,0,0,0,.4-2,2.1,2.1,0,0,1,0-.66c.12-.57.25-1.14.41-1.7a.79.79,0,0,1,.25-.44,7,7,0,0,1,.82-.57,1,1,0,0,1,1-.08c.87.31,1.5.72,1.52,1.5s.15,1.37.18,2.06a3.45,3.45,0,0,0,.75,1.88,11.5,11.5,0,0,0,4.7,3.53,21.12,21.12,0,0,0,2.41.76,7.29,7.29,0,0,0,3.25.25,32.91,32.91,0,0,0,4.1-.76A5.4,5.4,0,0,0,188,75.11c.44-.38.9-.75,1.37-1.11a6.4,6.4,0,0,0,1.42-1.59,1.41,1.41,0,0,0,.18-1.52,3.4,3.4,0,0,0-1.37-1.37l-.61.17a2.34,2.34,0,0,0-1.12-1.21,8.08,8.08,0,0,0-4-1.23c-.61,0-1.21-.1-1.82-.14a.91.91,0,0,1-.72-.36,3.9,3.9,0,0,1-.7-1.21,3.74,3.74,0,0,0-.52-.9c-.12-.18-.29-.33-.4-.5-.68-1-1.36-2-2-3.06a11.29,11.29,0,0,0-3.37-3.5,13.38,13.38,0,0,0-3.79-1.66,4.87,4.87,0,0,0-2-.15,9.19,9.19,0,0,1-1.48.09,7.76,7.76,0,0,0-3.37.69A9.55,9.55,0,0,0,159,60.42a14.06,14.06,0,0,0-1.21,3.51,1.61,1.61,0,0,0,0,.49,4.84,4.84,0,0,1-.57,2.59,9.41,9.41,0,0,0-1.18,3.93.88.88,0,0,1,0,.16,6,6,0,0,0,.18,3.12A1,1,0,0,0,156.51,74.75Z" fill="currentColor"/><path d="M132.42,200a.89.89,0,0,0,.45-.67,5.24,5.24,0,0,0-.34-2.89,2.61,2.61,0,0,1-.17-.68,2.23,2.23,0,0,0-1-1.5,5.09,5.09,0,0,0-2.16-.79,18,18,0,0,0-6.63.41,1,1,0,0,0-.35.15c-.29.18-.57.37-.85.57s-.71.5-1,.77a1.93,1.93,0,0,0-.7,1.58,6.71,6.71,0,0,0,.13,1,2.74,2.74,0,0,0,1.17,1.85,5.76,5.76,0,0,0,1.08.63,2.26,2.26,0,0,1,1.12,1.17.5.5,0,0,1,0,.38,1.89,1.89,0,0,1-.72,1,1.74,1.74,0,0,1-1.83.18A1.59,1.59,0,0,1,119.6,202c-.1-.68-.22-1.37-.3-2.06-.12-.94-.93-1.77-2.45-1.95a13.85,13.85,0,0,0-4.12-.24,8.46,8.46,0,0,0-5.33,1.81,3.71,3.71,0,0,0-1.39,2,1.51,1.51,0,0,0,0,.52,2.75,2.75,0,0,0,.18,1.6,2.43,2.43,0,0,1,.17.52,2.86,2.86,0,0,0,1,1.75c.34.29.7.58,1.08.85.83.59,1.69,1.17,2.54,1.76a14,14,0,0,1,2.27,2.12,10.74,10.74,0,0,0,1.43,1.34,8.62,8.62,0,0,0,6.45,1.65c.21,0,.43,0,.64-.06a24.21,24.21,0,0,0,4.67-.76,9.45,9.45,0,0,0,3.05-1.5c.34-.26.66-.54,1-.78a5.24,5.24,0,0,0,1.85-2.13,3,3,0,0,0,.16-2.85c-.45-.92-.86-1.85-1.26-2.77a1.22,1.22,0,0,1-.16-.68A3.36,3.36,0,0,1,132.42,200Z" fill="currentColor"/><path d="M124.75,135.41a6.5,6.5,0,0,1-3.17.39c-.7-.06-1-.29-1.14-.82a2.28,2.28,0,0,1,0-.9,11.13,11.13,0,0,1,.47-1.87,5.11,5.11,0,0,0-.06-3.49,1.89,1.89,0,0,0-1.2-1.21,8.64,8.64,0,0,0-1-.36,10.15,10.15,0,0,0-6.18.52A2.17,2.17,0,0,0,111.1,129a5,5,0,0,0-.31,1.24,5.56,5.56,0,0,1-.4,1.69,1.53,1.53,0,0,0,0,1.51.81.81,0,0,1-.08.88,10.45,10.45,0,0,0-1,3.07,5.34,5.34,0,0,0-.09,2c.25,1.6,1.18,2.89,3.51,3.42.88.19,1.75.42,2.6.66a5.28,5.28,0,0,1,3.52,2.42c.22.43.43.86.62,1.29.13.28.22.58.34.87a2.68,2.68,0,0,0,1.5,1.41,6.06,6.06,0,0,0,2.49.56,38.53,38.53,0,0,0,4-.12,4.29,4.29,0,0,0,3.26-1.91.52.52,0,0,0,0-.69c-.27-.33-.51-.68-.78-1,.76-.55,1.47-1.1,2.25-1.6a6.32,6.32,0,0,0,1.15-.95c.32-.31.62-.65,1-.94a3.28,3.28,0,0,0,1.07-1.52,5.62,5.62,0,0,1,.85-1.6,4.58,4.58,0,0,0,.68-1.07,4,4,0,0,1,.78-1.69,4,4,0,0,0-1.27-5.18,11.14,11.14,0,0,0-2.28-1.55c-.56-.26-1-.57-.84-1.11a.58.58,0,0,0,0-.45c-.27-.4,0-.76.08-1.14a10.57,10.57,0,0,0,.43-1.5,1,1,0,0,0-.14-.7,5.82,5.82,0,0,0-2.31-2.12,9.92,9.92,0,0,0-8-.14,1.86,1.86,0,0,0-1,.81,2.46,2.46,0,0,0-.05,2.56c.34.58.76,1.14,1.19,1.78,0,.1-.08.19-.13.27a2.69,2.69,0,0,0,0,3.38,5.58,5.58,0,0,0,.39.46c.45.51.93,1,1.32,1.54C125.93,134.45,125.85,134.93,124.75,135.41Z" fill="currentColor"/><path d="M244.65-4.74a5.59,5.59,0,0,1-2.71.34c-.59-.06-.87-.26-1-.71a2.16,2.16,0,0,1,0-.76,11,11,0,0,1,.41-1.6,4.39,4.39,0,0,0,0-3,1.61,1.61,0,0,0-1-1,6.38,6.38,0,0,0-.87-.3,8.67,8.67,0,0,0-5.27.44A1.85,1.85,0,0,0,233-10.25a4.46,4.46,0,0,0-.27,1.06,4.86,4.86,0,0,1-.33,1.44,1.29,1.29,0,0,0,0,1.29.69.69,0,0,1-.07.75,8.83,8.83,0,0,0-.89,2.62,4.2,4.2,0,0,0-.08,1.69,3.39,3.39,0,0,0,3,2.91c.75.17,1.49.37,2.22.57a4.5,4.5,0,0,1,3,2.07c.19.36.37.72.53,1.09s.18.5.29.75a2.3,2.3,0,0,0,1.27,1.19,5.08,5.08,0,0,0,2.13.49,32.65,32.65,0,0,0,3.42-.11A3.66,3.66,0,0,0,250,5.94a.44.44,0,0,0,0-.59c-.24-.28-.44-.58-.67-.89.64-.46,1.25-.94,1.92-1.36a6.12,6.12,0,0,0,1-.81,10.62,10.62,0,0,1,.83-.81A2.72,2.72,0,0,0,254,.19a5.15,5.15,0,0,1,.72-1.37,4,4,0,0,0,.58-.9,3.49,3.49,0,0,1,.67-1.45,3.41,3.41,0,0,0-1.08-4.41,9.56,9.56,0,0,0-2-1.33c-.48-.22-.82-.49-.71-1a.5.5,0,0,0,0-.38c-.23-.34,0-.65.07-1a8.42,8.42,0,0,0,.36-1.28.76.76,0,0,0-.12-.6,4.94,4.94,0,0,0-2-1.8,8.41,8.41,0,0,0-6.81-.12,1.47,1.47,0,0,0-.81.69,2.07,2.07,0,0,0,0,2.18c.29.5.65,1,1,1.52a2.18,2.18,0,0,1-.12.22,2.33,2.33,0,0,0,0,2.89c.1.13.23.26.34.39.38.44.79.86,1.13,1.31C245.65-5.55,245.58-5.15,244.65-4.74Z" fill="currentColor"/><path d="M60,81.54a.93.93,0,0,1-1.26-.44c-.36-.8-.72-1.6-1.1-2.4a3.47,3.47,0,0,0-.37-.57c-.41-.53-.85-1-1.24-1.57a3.9,3.9,0,0,0-2.83-1.5c-.91-.11-1.83-.18-2.74-.27a4.63,4.63,0,0,0-1.83.28c-.61.21-1.23.39-1.86.56a4.1,4.1,0,0,0-2.53,1.66,3.62,3.62,0,0,0-.65,2.9,5.6,5.6,0,0,1,.1.81,7,7,0,0,0,1.38,3.55c.56.77,1.19,1.52,1.72,2.31a32.71,32.71,0,0,0,2.78,3,2.14,2.14,0,0,0,.53.39c.6.38,1.19.76,1.82,1.12a9.34,9.34,0,0,0,3.5,1.17,30.33,30.33,0,0,0,5.39.14,11.18,11.18,0,0,0,1.84-.27,14.86,14.86,0,0,0,7.68-4.33,13.43,13.43,0,0,1,1.29-1.33,9,9,0,0,0,1.75-2,4,4,0,0,1,.36-.48,18.46,18.46,0,0,0,2.19-3,7.87,7.87,0,0,0,.9-2.15,3.71,3.71,0,0,0-.19-2.58A10.52,10.52,0,0,0,76,75.53a3.18,3.18,0,0,1-.45-1.12,2.24,2.24,0,0,0-.45-1.21,9.15,9.15,0,0,0-7.72-2.87,26.78,26.78,0,0,0-4.07.54c-2.32.47-3.87,1.58-4.21,3.35a5,5,0,0,0,.79,4.07c.39.53.76,1.07,1.13,1.62s.28.89-.33,1.29A2.88,2.88,0,0,1,60,81.54Z" fill="currentColor"/><path d="M215.2,271.81a10.36,10.36,0,0,0-5-2.1,24.84,24.84,0,0,0-4.88-.24c-1.64.06-3.27.15-4.9.23l-3.27.15H196c-.24-.67-.45-1.25-.65-1.83s-.31-.94-.48-1.41c-.24-.63-1-1-1.63-1.31a4.49,4.49,0,0,0-1.68-.33,15.51,15.51,0,0,0-5.86.82,4.16,4.16,0,0,0-2.72,2.36,6.32,6.32,0,0,0-.24,2.51,1.72,1.72,0,0,0,.61,1.35.81.81,0,0,1,.35.57,5,5,0,0,0,.75,2.18,41.1,41.1,0,0,1,2.6,5.29,5.23,5.23,0,0,0,2,2.5c.38.28.76.56,1.12.86a9.41,9.41,0,0,0,3.4,1.67c1,.28,2,.49,3,.77a5.7,5.7,0,0,0,2.1.16c.33,0,.66-.09,1-.13,1.55-.18,2.54-.85,2.88-2,.16-.53.29-1.07.45-1.6a1.26,1.26,0,0,1,1.07-.81c.43-.09.85-.23,1.27-.36a4.66,4.66,0,0,1,2.67-.18l1.66.43c.52.13,1,.28,1.55.36a10.87,10.87,0,0,0,3.12.13l1.72-.22c.42,0,.84-.06,1.25-.11a2.92,2.92,0,0,0,2.29-1.27,4,4,0,0,0,.68-2.1,3.27,3.27,0,0,0-.77-2.34A30.53,30.53,0,0,0,215.2,271.81Z" fill="currentColor"/><path d="M32.59,91.4a.9.9,0,0,1-.58-.76c0-.15,0-.3,0-.45a1.82,1.82,0,0,0-1.27-1.47,8,8,0,0,0-1.62-.49A17.75,17.75,0,0,0,24.47,88a3.8,3.8,0,0,0-.84.18,15.56,15.56,0,0,1-2.38.56A2.58,2.58,0,0,1,19,88.13,2.87,2.87,0,0,1,18.17,87a10.26,10.26,0,0,1-1-3.35c0-.15-.06-.3-.08-.43a8.41,8.41,0,0,1-1-.7,4,4,0,0,0-2.37-.93,5.17,5.17,0,0,0-2.35.06,10,10,0,0,0-3.22,1.56c-.32.27-.69.51-1,.77a9.3,9.3,0,0,0-2.51,2.67c-.27.44-.54.89-.76,1.34a7.29,7.29,0,0,0-1,3.71c.06.87.19,1.75.29,2.62A5,5,0,0,0,4.33,97a3.17,3.17,0,0,0,1.21.91c.57.24,1.14.5,1.71.76a11.17,11.17,0,0,0,3.4.85c1.07.14,1.64.49,1.88,1.25a4.52,4.52,0,0,1,.11.53c.16.81.26,1.63.47,2.43A4.26,4.26,0,0,0,15,106.33a1.65,1.65,0,0,0,.63.29,5,5,0,0,0,2.33,0,3.35,3.35,0,0,1,1.34-.18,7.22,7.22,0,0,0,3-.5,4.84,4.84,0,0,0,2.44-1.51,4.57,4.57,0,0,0,.8-1.7,6.59,6.59,0,0,1,.63-1.66,2.7,2.7,0,0,1,1.42-1.23A9.24,9.24,0,0,0,29.18,99a8.88,8.88,0,0,0,4.19-6.12A1.29,1.29,0,0,0,32.59,91.4Z" fill="currentColor"/><path d="M176.77,280a5.57,5.57,0,0,0-.54-1.38,6.52,6.52,0,0,0-2.6-2,4.48,4.48,0,0,0-1.14-.37c-.73-.13-1.48-.2-2.22-.3a8.1,8.1,0,0,0-1.86.25c-.78.22-1.6.37-2.37.6a5.76,5.76,0,0,0-3.44,2.27,15.71,15.71,0,0,0-1,1.67,9.38,9.38,0,0,0-.49,1.5,1.39,1.39,0,0,0,.26,1.23c.36.48.69,1,1.1,1.43a13.59,13.59,0,0,1,2.12,3.28,2.77,2.77,0,0,1-.25,3,2.92,2.92,0,0,0-.59,2.63,2.11,2.11,0,0,1-1.22,2.43,10.53,10.53,0,0,1-2.13.95c-1.39.49-2.77,1-4.14,1.52a4.84,4.84,0,0,0-1.88,1.18c-1.51,1.71-1.28,3.44-.16,5.18a.63.63,0,0,0,.21.22,6.36,6.36,0,0,1,1.33,1.31,4.17,4.17,0,0,0,4,1.23,2.92,2.92,0,0,1,.5-.05,5.75,5.75,0,0,0,2.55-.68c.58-.31,1.15-.62,1.74-.91a7.83,7.83,0,0,0,2.5-1.76,9.91,9.91,0,0,1,3.18-2.15l.52-.25a22.93,22.93,0,0,0,6.36-4.35,4.48,4.48,0,0,0,1.34-3,7.92,7.92,0,0,0-.77-3.92,2.34,2.34,0,0,1-.09-1.87,17.22,17.22,0,0,0,.93-4.38,4.26,4.26,0,0,0-1.41-3.84A1.14,1.14,0,0,1,176.77,280Z" fill="currentColor"/><path d="M245.33,236.62c0-.06,0-.15,0-.23a3.52,3.52,0,0,0-1.75-3.18,22,22,0,0,0-4.59-2.42,15.55,15.55,0,0,0-2.6-.72,23.85,23.85,0,0,1-2.86-.68,36.68,36.68,0,0,0-3.78-1c-1.28-.29-2.59-.22-3.87-.38a1.75,1.75,0,0,0-.45,0c-1.09.15-2.19.29-3.29.46a4.37,4.37,0,0,0-2.55,1.21,13.65,13.65,0,0,0-1.07,1.23c-.31.42-.54.88-.82,1.32a4.43,4.43,0,0,0-.61,3.07c.07.51.15,1,.2,1.33s0,.3,0,.35c.15,1,.28,1.92.46,2.88a1.22,1.22,0,0,0,.41.55,2.9,2.9,0,0,0,1.32.58l2.25.47a1.6,1.6,0,0,0,.44,0,5,5,0,0,0,2.8-.63.77.77,0,0,1,.27-.14,2.09,2.09,0,0,0,1.15-1,7.58,7.58,0,0,1,1.58-1.74,4.7,4.7,0,0,1,1.75-.86,1.08,1.08,0,0,1,1.29.38,2.1,2.1,0,0,1,.28.61,15.09,15.09,0,0,1,.53,2.71,5.37,5.37,0,0,0,.8,2.58,6.48,6.48,0,0,0,3.87,2.65,4.48,4.48,0,0,0,3.3-.06.5.5,0,0,1,.21-.05,5.56,5.56,0,0,0,2-.51,3.89,3.89,0,0,0,2.52-2.15,8.67,8.67,0,0,1,.67-1.93c.06-.09,0-.21.05-.32.1-.56.22-1.11.32-1.67a4.76,4.76,0,0,0,.13-1.12A3.45,3.45,0,0,0,245.33,236.62Z" fill="currentColor"/><path d="M207.79,58.94a20.55,20.55,0,0,0-2.86.68,4.67,4.67,0,0,0-1.81,1A19.45,19.45,0,0,0,201.56,62a3.62,3.62,0,0,0-1.12,1.9,3.75,3.75,0,0,0,.81,3,1.84,1.84,0,0,1,.33.49,4,4,0,0,0,1.14,1.5,7.93,7.93,0,0,0,4,2.22,8.41,8.41,0,0,0,5.55-.48,2.43,2.43,0,0,1,.67-.24,9.61,9.61,0,0,0,2.53-1.16,2.08,2.08,0,0,0,.61-.57,7.52,7.52,0,0,1,.5-.62,5.92,5.92,0,0,1,1.71-1.43,11.11,11.11,0,0,0,3.59-2.24,7.57,7.57,0,0,1,.91-.75,6.09,6.09,0,0,0,2.57-3.76c.21-1,.3-2,.44-3a6.17,6.17,0,0,1,.5-2,4.25,4.25,0,0,0,0-2.24.12.12,0,0,0,0-.08,10,10,0,0,0-1-1.14,13.77,13.77,0,0,0-1.67-1.22c-.39-.24-.6-.49-.48-.79l-2.92-1.94c-.37-.25-.74-.49-1.1-.75a3.85,3.85,0,0,0-1.3-.52,13.55,13.55,0,0,0-3.24-.19,3.78,3.78,0,0,0-1.67.34c-.46.22-.88.47-1.35.67a8,8,0,0,0-3.05,2.24,4.69,4.69,0,0,0-.75,1,4.12,4.12,0,0,0,1,4.75,4.84,4.84,0,0,1,.95,1.37C210.29,57.54,209.45,58.72,207.79,58.94Z" fill="currentColor"/><path d="M148.88,112.43a5.53,5.53,0,0,0-1.41,1.71,1.83,1.83,0,0,0-.11,1.87,9.62,9.62,0,0,0,1.41,2,1.63,1.63,0,0,1,.51,1.89,3.2,3.2,0,0,0-.12,2.24,4.6,4.6,0,0,0,2.52,3,3.8,3.8,0,0,0,1.26.35,19.74,19.74,0,0,0,3.17,0,4.4,4.4,0,0,0,2.13-.73,4.18,4.18,0,0,0,1.61-2,6.81,6.81,0,0,1,1.87-2.46,3.71,3.71,0,0,1,1.49-.89,5.36,5.36,0,0,0,2.56-1.73,8.84,8.84,0,0,0,1.2-2.07,13.09,13.09,0,0,0,.93-4.52,12.74,12.74,0,0,0-.45-2.51,7.74,7.74,0,0,0-2-3.86,3.92,3.92,0,0,0-1.59-1.5.57.57,0,0,1-.27-.43c0-.47-.35-.73-.79-1a5.35,5.35,0,0,0-2.72-.49,13.41,13.41,0,0,0-4.42,1c-1.67.77-2.94,1.78-3.05,3.33a.82.82,0,0,1-.56.69c-.19.09-.38.17-.57.27-1.36.72-1.95,1.67-1.74,2.9a11.91,11.91,0,0,1,.12,1.34,1.59,1.59,0,0,1-.51,1.18C149.18,112.17,149,112.3,148.88,112.43Z" fill="currentColor"/><path d="M191.72,81.41a3.24,3.24,0,0,0-2.51-1.65c-.82-.11-1.66-.15-2.5-.23v0h-1.15a3.35,3.35,0,0,0-1.39.34,7.75,7.75,0,0,0-2.86,2.21c-.43.59-.93,1.14-1.39,1.71a1.55,1.55,0,0,1-.75.48c-.84.27-1.64.6-2.49.83a4.76,4.76,0,0,1-3.18-.07,6.82,6.82,0,0,1-3.85-2.91q-.26-.5-.54-1a9.89,9.89,0,0,0-.6-1,1.78,1.78,0,0,0-1-.68c-.66-.2-1.35-.37-2-.61a6.33,6.33,0,0,0-3.12-.24A19.68,19.68,0,0,1,160,79a.8.8,0,0,0-.8.5.73.73,0,0,1-.28.43,4.49,4.49,0,0,0-1.48,1.64,2.45,2.45,0,0,0-.4,1.93,9.83,9.83,0,0,0,1.21,2.92,1.73,1.73,0,0,0,.41.49c1.1.87,2,1.91,3.56,2.4a2.12,2.12,0,0,1,.36.21,51,51,0,0,0,6.08,2.94c.75.32,1.51.64,2.24,1a8.82,8.82,0,0,0,4.82.69,22.66,22.66,0,0,0,4.85-1.21c1.11-.37,2.17-.81,3.24-1.24.67-.26,1.29-.59,2-.84,2.74-1,4.52-2.57,5.31-4.71a2.56,2.56,0,0,0,.26-1.79,1.44,1.44,0,0,1,.29-1.57A1.12,1.12,0,0,0,191.72,81.41Z" fill="currentColor"/><path d="M253,116a6.16,6.16,0,0,0,1.72,2.5c.68.65,1.32,1.32,2,2a7.2,7.2,0,0,0,1.37,1,3.87,3.87,0,0,1,1.79,1.92,1.2,1.2,0,0,1,.12.8,22.13,22.13,0,0,0-.47,2.51,4.85,4.85,0,0,0,.62,3.37,7.57,7.57,0,0,0,2.73,2.69,7.47,7.47,0,0,0,5.26,1,34.17,34.17,0,0,0,4-.79,4,4,0,0,0,1.41-.56c.83-.71,1.8-1.38,2-2.37a1.44,1.44,0,0,1,1.1-1,4.59,4.59,0,0,0,2.09-1.27,1.3,1.3,0,0,1,.35-.25,2.62,2.62,0,0,0,1.25-1.74,8.85,8.85,0,0,1,.28-1,2.82,2.82,0,0,0-1.51-3.5,8,8,0,0,0-2-.8c-1.18-.31-2.37-.61-3.55-.93a6.05,6.05,0,0,1-3.28-1.73,1.3,1.3,0,0,1-.39-1c.15-.77.27-1.55.41-2.37a3.57,3.57,0,0,1-.42-.5,2.1,2.1,0,0,0-2-1,3.14,3.14,0,0,1-2.47-1l-.3-.3a3.35,3.35,0,0,0-1.27-.72,15.44,15.44,0,0,0-1.51-.45,4.4,4.4,0,0,0-1.35-.14c-1.16.1-2.33.14-3.49.34a16.54,16.54,0,0,0-4.12,1.31c-1.25.58-1.64,1.63-1.06,2.63A7.46,7.46,0,0,1,253,116Z" fill="currentColor"/><path d="M189.43,40.61c-1.06,1.2-2.16,2.37-3.28,3.54-.61.65-1.28,1.27-2,1.89a5.21,5.21,0,0,0-1.34,2.13,2.12,2.12,0,0,0,0,1.53c.12.29.24.58.34.87a3.46,3.46,0,0,0,1.25,1.65,2.92,2.92,0,0,1,.88,1,12.66,12.66,0,0,0,2,2.19,2.73,2.73,0,0,0,.54.38,10.1,10.1,0,0,0,1,.59,6.27,6.27,0,0,0,1.38.6A11.36,11.36,0,0,0,198,56.3a8.19,8.19,0,0,1,.85-.39,10.89,10.89,0,0,0,3-1.64,2,2,0,0,0,.84-1.18,4.59,4.59,0,0,0-.07-2.52c-.11-.36-.23-.71-.32-1.07a.79.79,0,0,1,.1-.8,1.35,1.35,0,0,1,.34-.06,6.53,6.53,0,0,0,3.3-.75c1-.47,1.9-1,2.86-1.48a4.23,4.23,0,0,0,2-1.94c.15-.31.17-.67.58-.89.05,0,.11-.12.08-.16-.29-.5.24-.84.49-1.19l-.41-.93h.54c-.26-1.15-1.56-1.6-2.68-2.17a3.08,3.08,0,0,1-1.7-.15,1.52,1.52,0,0,0-.71-.07c-.75.06-1.49.16-2.23.25a2.44,2.44,0,0,1-1.65-.29,2.15,2.15,0,0,0-.64-.26,2.33,2.33,0,0,1-1.45-.89,2.27,2.27,0,0,0-.84-.66,7,7,0,0,0-3.08-.66A7.4,7.4,0,0,0,193,37.6,17.18,17.18,0,0,0,189.43,40.61Z" fill="currentColor"/><path d="M29,247.85a5,5,0,0,1,.73-.73c.74-.48.78-1.18,1.19-1.76a3.77,3.77,0,0,0-.47-2.43,2.41,2.41,0,0,0-1.66-.93c-.51-.1-1.05-.13-1.57-.22a3.57,3.57,0,0,0-1.9.16c-.78.3-1.54.63-2.32.92a3.74,3.74,0,0,0-2.19,1.74A3.11,3.11,0,0,1,19.2,246a10.7,10.7,0,0,0-1,.58,2.52,2.52,0,0,0-1.15,1.3,11.89,11.89,0,0,1-.76,1.57,2.16,2.16,0,0,1-.36.39,1.46,1.46,0,0,1-.85-.6,3.48,3.48,0,0,0-2-1.17l-.33-.08c-.8-.25-1.33-.61-1.28-1.31A3.05,3.05,0,0,0,11,245a2.94,2.94,0,0,0-3-1.33c-.39,0-.77,0-1.15,0a4.14,4.14,0,0,0-2.29.7,3.68,3.68,0,0,0-2,3.71,9.61,9.61,0,0,0,.53,2.62c.22.48.52.92.76,1.38a12,12,0,0,0,1.59,2.3,5.21,5.21,0,0,1,1,1.83,4.79,4.79,0,0,0,.61,1.16,3.65,3.65,0,0,0,1.73,1.29,11.17,11.17,0,0,0,2.66.5,4.36,4.36,0,0,0,1.14,0,3.79,3.79,0,0,1,1,0,21.21,21.21,0,0,0,6.06.07A4,4,0,0,0,22.4,258a5.1,5.1,0,0,0,1-1.65,3.14,3.14,0,0,1,.52-.92,2,2,0,0,0,.44-1.25c.44-.26.85-.52,1.27-.75a2.8,2.8,0,0,0,1.23-1.08,4.61,4.61,0,0,0,.56-1.86,2.46,2.46,0,0,1,1.19-2.24A1.78,1.78,0,0,0,29,247.85Z" fill="currentColor"/><path d="M159.94,240.2a3.87,3.87,0,0,1-.74-.71,8.69,8.69,0,0,0-1.74-1.8,10.86,10.86,0,0,1-2.09-2c-.25-.4-.58-.83-.46-1.24a2.92,2.92,0,0,1,.68-1.46,7.19,7.19,0,0,0,1.17-1.85,3,3,0,0,0-.2-3,15.92,15.92,0,0,1-.66-1.46c-.9-2.53-3.67-4.62-7.11-5.39a2.64,2.64,0,0,0-1.74.13,4.46,4.46,0,0,1-1,.3,1.59,1.59,0,0,0-1.3.93,1.62,1.62,0,0,0,.07,1.67.94.94,0,0,1-.22,1.37,16.28,16.28,0,0,0-1.79,2.54,12.79,12.79,0,0,0-1,4.55,6.13,6.13,0,0,0,.08,1,2.1,2.1,0,0,0,.46,1,23.93,23.93,0,0,0,2.48,2.33,11.75,11.75,0,0,1,2.11,2.12,3.15,3.15,0,0,1,.61,1.47c.08.65.18,1.3.28,2a6.62,6.62,0,0,0,.84,2.29,2.51,2.51,0,0,0,.62.77,6.63,6.63,0,0,0,5.33,1.23,4.15,4.15,0,0,1,.78-.09,4.52,4.52,0,0,0,3.07-1.19,7.61,7.61,0,0,0,1-1,3.67,3.67,0,0,0,1.08-2.62,3.22,3.22,0,0,1,0-.82A1.14,1.14,0,0,0,159.94,240.2Z" fill="currentColor"/><path d="M184.52,203.18a8.27,8.27,0,0,0,2.34-2.55,3,3,0,0,0,.38-2.31,6.25,6.25,0,0,0-.68-1.55,8.06,8.06,0,0,1-.83-1.89,3.42,3.42,0,0,0-1.89-2,2,2,0,0,1-1-.87,1.8,1.8,0,0,0-.85-.75,13.68,13.68,0,0,0-2.92-1.06,5.88,5.88,0,0,0-4.73.45c-.23.13-.5.22-.75.33a4.58,4.58,0,0,0-3.11,3.43,22.42,22.42,0,0,0-.22,3.17,3.86,3.86,0,0,0,.54,2.22,1,1,0,0,1,.05,1c-.33.59-.7,1.16-1.07,1.74a2.49,2.49,0,0,1-1.2.89,7.69,7.69,0,0,0-1.86,1.08c-.58.44-1.13.9-1.76,1.3a3.45,3.45,0,0,0-1.65,2.37,2.66,2.66,0,0,0,.37,2.2,6.38,6.38,0,0,1,.44.75,6.49,6.49,0,0,0,2.36,2.32,6.94,6.94,0,0,0,4,1,15.23,15.23,0,0,0,6.94-1.65A6.73,6.73,0,0,0,181,208.4a5.77,5.77,0,0,0,.05-1.9,1.64,1.64,0,0,1,1.19-1.77A10.09,10.09,0,0,0,184.52,203.18Z" fill="currentColor"/><path d="M196.52,112.79a7.06,7.06,0,0,0-2.76-2.65,5.39,5.39,0,0,1-.91-.62,19.76,19.76,0,0,0-2.84-1.78,1.43,1.43,0,0,1-.62-.65c-.23-.48-.47-1-.73-1.44a3.32,3.32,0,0,0-1.12-1.19c-.59-.38-1.19-.77-1.79-1.14a5.22,5.22,0,0,0-2.85-.56,2.87,2.87,0,0,0-1.85.85c-.28.22-.51.48-.81.69a8.57,8.57,0,0,0-2,2,5.43,5.43,0,0,0-.87,5.35c.14.38.24.76.37,1.15a11.33,11.33,0,0,0,2.21,3.92c1,1.17,1.81,2.39,1.52,3.83a2.92,2.92,0,0,0,0,.72h0v.91a5.41,5.41,0,0,0,1.25,3.47,10.25,10.25,0,0,0,2.6,2.31,21.45,21.45,0,0,1,1.81,1.25,4,4,0,0,0,4.38.18l.09-.07c.42-.29.86-.57,1.26-.88a3.1,3.1,0,0,0,1.19-1.26,5.59,5.59,0,0,0,.55-2.58c-.13-.84-.23-1.68-.4-2.52a1.05,1.05,0,0,1,.34-1c.44-.44.85-.9,1.26-1.35a5,5,0,0,0,1.18-2.09c.17-.68.36-1.36.49-2a2.74,2.74,0,0,0,0-.9A5.34,5.34,0,0,0,196.52,112.79Z" fill="currentColor"/><path d="M165,132.73a2.14,2.14,0,0,1-1.77-.11c-.39-.19-.77-.37-1.16-.54a3.93,3.93,0,0,0-2.54-.23,6.18,6.18,0,0,1-1.22.16,5.24,5.24,0,0,0-3.23,1,8.67,8.67,0,0,0-.72.62c-1.14,1.07-1.15,1.07-.84,2.4a6.09,6.09,0,0,0,3.07,3.84,12,12,0,0,0,2.95,1.35,2.25,2.25,0,0,1,1.8,1.5,4.38,4.38,0,0,0,.5,1,3.44,3.44,0,0,0,2.06,1.63,4.34,4.34,0,0,1,.66.27,7.86,7.86,0,0,0,3.9.86,17.23,17.23,0,0,0,4.43-.53c.66-.19,1.33-.37,2-.52a5.08,5.08,0,0,0,2.3-1c.74-.62,1.49-1.23,2.18-1.87a7.9,7.9,0,0,0,1-1.25,6.14,6.14,0,0,1,1.14-1.5.74.74,0,0,0,.25-.41c.16-.71.32-1.43.44-2.14a1,1,0,0,0-.12-.71,6.8,6.8,0,0,1-.91-1.88,1.57,1.57,0,0,0-.24-.41,1.1,1.1,0,0,0-1.15-.56,1.22,1.22,0,0,1-.8-.21,21.3,21.3,0,0,0-2.74-1.23,8,8,0,0,0-1.51-.43c-.6-.15-1.2-.27-1.8-.39a8.66,8.66,0,0,0-1-.18,10.62,10.62,0,0,0-5,.7C166.35,132.24,165.66,132.47,165,132.73Z" fill="currentColor"/><path d="M9.6,226.66a15,15,0,0,0-2,2.87,3.71,3.71,0,0,1-1.7,1.53,2,2,0,0,1-.83.25,3,3,0,0,0-1.65.51,3.17,3.17,0,0,0-1.72,1.61,3.86,3.86,0,0,1-.54,1.42c-.1.13-.06.33-.05.49a6,6,0,0,1,.09.83,1.2,1.2,0,0,0,.65,1,3.05,3.05,0,0,0,1.29.52,16,16,0,0,0,2.86.16,3.19,3.19,0,0,0,2.53-1.11c.22-.26.47-.5.72-.75s.6-.57.91-.85l.55-.49.4,0c1.11,0,2.22,0,3.33-.11a9.62,9.62,0,0,0,3.18-.69c.43-.17.88-.34,1.29-.54a4.26,4.26,0,0,1,1.86-.35,2.27,2.27,0,0,1,2,.89c.49.69,1,1.38,1.44,2.08A6.13,6.13,0,0,0,28,238.19a13.53,13.53,0,0,0,3.76.22,2.37,2.37,0,0,0,1.76-.64,12.57,12.57,0,0,1,1.09-1c.89-.78.51-1.91-.72-2.36s-2.5-1-3.73-1.47a3.06,3.06,0,0,1-2.08-2.27,4.3,4.3,0,0,0-1.42-2.23,2.21,2.21,0,0,0-1.29-.65,1.4,1.4,0,0,1-1.17-.81,4,4,0,0,0-.93-1.32A9.21,9.21,0,0,0,18.53,224a12.14,12.14,0,0,0-4.73.48,14,14,0,0,0-2.24.86A5.61,5.61,0,0,0,9.6,226.66Z" fill="currentColor"/><path d="M37.59,199.84a2.27,2.27,0,0,0,1,1.23,9.29,9.29,0,0,0,3.64,1.34,4.63,4.63,0,0,1,1.18.29,2.61,2.61,0,0,0,1.21.14,9.31,9.31,0,0,1,1.36-.16,6.56,6.56,0,0,0,3-.5c.28-.13.68-.11.94-.25,1-.58,1.93-1.25,1.91-2.3a7.32,7.32,0,0,1,.1-1.24c.06-.42.49-.71.87-1a6.94,6.94,0,0,0,1.89-2.11,2.41,2.41,0,0,0,.35-2.37A6.22,6.22,0,0,0,53.37,190c-.31-.25-.65-.47-.95-.72a8,8,0,0,1-1-.83,6.33,6.33,0,0,0-3.57-1.85c-.84-.18-1.69-.36-2.52-.56s-1.24-.69-1.23-1.32a7.37,7.37,0,0,1,0-.82c.1-.9.22-1.8.31-2.71a2.37,2.37,0,0,0-1.07-2.32,2.72,2.72,0,0,0-1.79-.54q-1.12,0-2.25.15c-2,.17-3.79,1.4-3.52,3.18a14.58,14.58,0,0,1,.26,1.7c0,.56.34,1.06.4,1.6.18,1.35.28,2.71.48,4.06.12.81,0,1.63.14,2.43a5.12,5.12,0,0,1,0,1.79,17.15,17.15,0,0,0-.07,1.89,8.19,8.19,0,0,0,.1.88,3.94,3.94,0,0,0-.06.47A7.57,7.57,0,0,0,37.59,199.84Z" fill="currentColor"/><path d="M1.24,129.64a4.75,4.75,0,0,0,.14,1.07,18.22,18.22,0,0,0,1.46,3.64A3,3,0,0,0,5,135.75a11.43,11.43,0,0,0,4.08-.14,10.75,10.75,0,0,0,2.67-1,4,4,0,0,1,1.63-.4c1.21-.07,2.41-.21,3.62-.34a4.62,4.62,0,0,0,2.15-.68,1.79,1.79,0,0,1,.42-.19,5,5,0,0,0,2.33-1.72,9.27,9.27,0,0,1,.91-1,3.1,3.1,0,0,0,.93-4c-.07-.14-.16-.28-.22-.42a.64.64,0,0,1,.15-.77,4.7,4.7,0,0,0,.57-.8A1.71,1.71,0,0,0,23.8,122a10.14,10.14,0,0,0-1.81-1.1,11,11,0,0,0-3.16-.86,17.33,17.33,0,0,0-5.24-.21,20.13,20.13,0,0,0-5.74,1.77,22.59,22.59,0,0,0-2,1.09,3,3,0,0,0-.73.5,20.14,20.14,0,0,0-1.79,2.06C2.71,126.1,2.25,127,1.7,128A3,3,0,0,0,1.24,129.64Z" fill="currentColor"/><path d="M-11.28,190.81a3.4,3.4,0,0,0-.34-.12,1.37,1.37,0,0,0-1.26.17,10.54,10.54,0,0,0-1.61,1.26c-.52.58-1.13,1.12-1.69,1.69a3.19,3.19,0,0,0-.88,2.14,4.72,4.72,0,0,0,.4,1.5,2.44,2.44,0,0,1,.24.59,2.76,2.76,0,0,0,.32,1.06,10.52,10.52,0,0,1,.66,1.65,11.17,11.17,0,0,0,1.78,3.46,4.27,4.27,0,0,1,.62,1.27c.28,1,.48,2,.74,2.94a4.53,4.53,0,0,0,.94,2c.24.28.58.51.84.77A10.21,10.21,0,0,0-7.75,213a22.59,22.59,0,0,0,2.15.73,2.71,2.71,0,0,0,1.44.18,3.93,3.93,0,0,0,2.23-.49c.8-.39,1.6-.78,2.45-1.1a3.58,3.58,0,0,0,1.42-.86c.25-.28.53-.54.8-.81a3.11,3.11,0,0,0,.56-4.28c-.31-.49-.65-1-1-1.45-.53-.68-1.08-1.36-1.62-2-.14-.18-.27-.37-.41-.56a17.44,17.44,0,0,0-1.3-2c-.38-.41-.88-.72-1.29-1.1a14.37,14.37,0,0,0-2.06-1.58c-1.06-.69-2.08-1.41-3.06-2.15a3.67,3.67,0,0,1-.87-1,3.23,3.23,0,0,1-.53-1.48c-.07-.68-.69-1.21-1.2-1.76C-10.38,190.81-10.89,191-11.28,190.81Z" fill="currentColor"/><path d="M155.4,271.8c-.22-.42-.42-.85-.65-1.27a5.82,5.82,0,0,0-3.06-2.54,4.36,4.36,0,0,0-1.81-.34c-.46,0-.92,0-1.37.09a33.4,33.4,0,0,0-4.95,1,20.52,20.52,0,0,0-2.12.78,1.69,1.69,0,0,0-1,.9c-.49,1.39-.89,2.75.44,4.07.82.81.39,1.43-.94,1.82-.12,0-.25,0-.37.05-.28.06-.55.13-.82.21s-.68.24-1,.31a2.66,2.66,0,0,0-2.24,1.67,12.4,12.4,0,0,0-.36,1.69,8.69,8.69,0,0,0,2.08,5.36,5.39,5.39,0,0,0,4,1.83,31.59,31.59,0,0,0,3.64,0,3.26,3.26,0,0,0,3-1.76,12.63,12.63,0,0,0,.68-1.83,4.14,4.14,0,0,0,.22-1.34c0-.87-.18-1.74-.28-2.62,0-.27-.06-.54-.07-.81,0-.47.22-.82.84-1,.42-.13.83-.29,1.25-.42a13.34,13.34,0,0,0,2.45-1.11,3.45,3.45,0,0,0,1.45-1.34c.4-.76.74-1.54,1.09-2.31A1.13,1.13,0,0,0,155.4,271.8Z" fill="currentColor"/><path d="M27.19,194.25a2.52,2.52,0,0,0,0-2,2.67,2.67,0,0,0-1.65-1.64,13.63,13.63,0,0,0-2.18-.89,13,13,0,0,0-2.73-.28,3.13,3.13,0,0,0-3,1.44,6.53,6.53,0,0,0-.8,3.18,1.15,1.15,0,0,1-.27.77,23.44,23.44,0,0,0-1.46,1.9,10,10,0,0,0-1.36,2.53,10.19,10.19,0,0,1-.79,2.09,5.66,5.66,0,0,0-.61,2.31c.07.35.14.89.28,1.43.42,1.6,1.74,2.73,3.72,3.44a14.87,14.87,0,0,0,4.74.8,3.54,3.54,0,0,0,3.18-1.32,3.44,3.44,0,0,1,.92-.85,7,7,0,0,0,2.93-3.5,9.12,9.12,0,0,0,.45-3.42,3.28,3.28,0,0,0-1.15-2.53,1.09,1.09,0,0,1-.43-.84c0-.2-.13-.41-.14-.62a4.88,4.88,0,0,1,0-1.08A4.64,4.64,0,0,1,27.19,194.25Z" fill="currentColor"/><path d="M62.69,262.05a1.46,1.46,0,0,0-.81-.53,1.74,1.74,0,0,1-1.17-.89,1.77,1.77,0,0,0-.85-.76c-.43-.23-.9-.43-1.38-.63a14.68,14.68,0,0,0-3.42-.88,2.63,2.63,0,0,1-2.41-1.62,12.24,12.24,0,0,0-.6-1.27c-.55-.23-1-.4-1.4-.59a5.63,5.63,0,0,0-4.29-.33c-.38.13-.78.22-1.17.33a4.1,4.1,0,0,0-2.79,2.3.68.68,0,0,0,0,.62,3.3,3.3,0,0,1,.38,1.5c.15,1.48,1.34,2.35,3.19,2.83.66.17,1.36.3,2,.45a9.28,9.28,0,0,1,2.13.76,2.14,2.14,0,0,1,1.32,1.57c.12.81.28,1.62.41,2.42a2.89,2.89,0,0,1-.39,2.22,2.3,2.3,0,0,0-.18.43,2.17,2.17,0,0,0,.3,2.28c.24.32.47.64.72.95a2.72,2.72,0,0,0,2.48,1c.91-.06,1.83-.14,2.74-.26A3.26,3.26,0,0,0,59.6,273,5.88,5.88,0,0,0,61,271a6.49,6.49,0,0,1,.54-1.21,2,2,0,0,1,.58-.68A10.12,10.12,0,0,0,64,267.3a2.32,2.32,0,0,0,.35-3C63.86,263.52,63.26,262.79,62.69,262.05Z" fill="currentColor"/><path d="M126.4,105.92a1.34,1.34,0,0,0,.76,1.34c.38.23.77.46,1.17.67a2.73,2.73,0,0,1,1.47,1.74c.08.33.17.66.23,1a1.76,1.76,0,0,0,.58,1.08c.26.23.44.52.7.76a13,13,0,0,0,1.12,1,3.24,3.24,0,0,0,2.39.6,8.43,8.43,0,0,1,2.46.11,1.57,1.57,0,0,0,1.17-.21,3.21,3.21,0,0,0,1.49-1.64c.05-.17-.05-.36-.09-.65l.24-.15a6,6,0,0,0,2-1.91c.43-.72.83-1.44,1.27-2.15a2.73,2.73,0,0,0,.41-1.47c0-.5.07-1,.07-1.5a1.16,1.16,0,0,0-.14-.66,9.59,9.59,0,0,0-2.13-2.46,21.62,21.62,0,0,0-3.24-1.7,2,2,0,0,0-.74-.2,9.36,9.36,0,0,0-3.5.05l-.55.1a12.19,12.19,0,0,0-5.63,2.41c-.78.67-1.46,1.35-1.29,2.32a2.66,2.66,0,0,1-.1.83C126.46,105.42,126.43,105.67,126.4,105.92Z" fill="currentColor"/><path d="M177.34,24.73a.83.83,0,0,0,.47.82c.24.15.48.28.73.42a1.65,1.65,0,0,1,.9,1.07c.06.2.11.41.15.61a1,1,0,0,0,.35.66c.17.15.28.33.44.48a6.6,6.6,0,0,0,.69.58,2,2,0,0,0,1.47.38,5.15,5.15,0,0,1,1.52.06,1,1,0,0,0,.73-.12,1.94,1.94,0,0,0,.91-1,1.05,1.05,0,0,0,0-.4l.15-.09A3.73,3.73,0,0,0,187,27c.27-.45.51-.89.79-1.33a1.76,1.76,0,0,0,.25-.91c0-.31,0-.62,0-.93a.8.8,0,0,0-.08-.4,5.87,5.87,0,0,0-1.32-1.52,13.55,13.55,0,0,0-2-1.05,1.36,1.36,0,0,0-.46-.13,5.81,5.81,0,0,0-2.16,0l-.34.07a7.62,7.62,0,0,0-3.48,1.48c-.48.42-.9.84-.79,1.44a1.53,1.53,0,0,1-.07.51Z" fill="currentColor"/><path d="M13.48,9a1.44,1.44,0,0,0,.84,1.44q.63.38,1.29.72a2.93,2.93,0,0,1,1.62,1.88c.1.36.19.71.26,1.07a1.87,1.87,0,0,0,.64,1.16c.29.26.49.57.77.83a15.48,15.48,0,0,0,1.23,1,3.65,3.65,0,0,0,2.64.65,9.87,9.87,0,0,1,2.72.12,1.78,1.78,0,0,0,1.29-.22,3.5,3.5,0,0,0,1.64-1.78,2,2,0,0,0-.1-.7l.26-.16A6.56,6.56,0,0,0,30.78,13c.47-.77.9-1.55,1.4-2.32a3,3,0,0,0,.45-1.58c0-.54.07-1.08.07-1.63a1.22,1.22,0,0,0-.15-.7A10.09,10.09,0,0,0,30.2,4.1a24.11,24.11,0,0,0-3.58-1.84A2.36,2.36,0,0,0,25.8,2a10.83,10.83,0,0,0-3.85,0c-.2.06-.41.07-.61.11a13.63,13.63,0,0,0-6.21,2.61c-.86.72-1.61,1.46-1.43,2.5a2.81,2.81,0,0,1-.11.9C13.55,8.48,13.51,8.75,13.48,9Z" fill="currentColor"/><path d="M261.05,95a1.93,1.93,0,0,0,2.05-.59c.43-.41.84-.84,1.24-1.29a3.83,3.83,0,0,1,2.79-1.37c.48,0,1,0,1.43,0a2.6,2.6,0,0,0,1.64-.42c.4-.27.84-.42,1.24-.67a19.7,19.7,0,0,0,1.61-1.15,4,4,0,0,0,1.47-2.86,10.49,10.49,0,0,1,.8-3.1,2,2,0,0,0,0-1.55,4.45,4.45,0,0,0-1.88-2.36,2.68,2.68,0,0,0-.92-.07l-.14-.35a8.12,8.12,0,0,0-2.12-3.08c-.87-.75-1.77-1.46-2.63-2.23a4.15,4.15,0,0,0-1.91-1c-.69-.16-1.37-.37-2.06-.52a1.76,1.76,0,0,0-.94,0,12.88,12.88,0,0,0-4,2,28,28,0,0,0-3.21,3.63,2.58,2.58,0,0,0-.48.88,11.34,11.34,0,0,0-.86,4.45c0,.24,0,.49,0,.74A15.31,15.31,0,0,0,256.06,92c.71,1.18,1.48,2.24,2.86,2.3a4.24,4.24,0,0,1,1.12.38Z" fill="currentColor"/><path d="M-9.17,179.08c-.12.15-.1.35-.15.53a6.53,6.53,0,0,0,.37,3.67,1.28,1.28,0,0,0,.3.49c.41.46.85.9,1.27,1.35a6.57,6.57,0,0,0,3.17,1.55,2,2,0,0,0,.49.05c.46,0,.92,0,1.37.09A3.88,3.88,0,0,0,.91,186l.08-.07a1.15,1.15,0,0,1,1.43-.18,4.27,4.27,0,0,0,.43.18,11.08,11.08,0,0,0,2,.48c1.21.08,2.43.06,3.64,0a6.78,6.78,0,0,0,1.35-.21,3.77,3.77,0,0,0,1.86-1,1.39,1.39,0,0,0,.48-1.45c0-.12.1-.28.19-.41a6.49,6.49,0,0,0,.64-1,2.11,2.11,0,0,0,.28-1.24,3.82,3.82,0,0,0-2.45-2.81,14.18,14.18,0,0,0-2-.53,14.55,14.55,0,0,0-1.47-.25,1.71,1.71,0,0,1-1.52-1.07,5.71,5.71,0,0,1-.3-.88,2.82,2.82,0,0,0-.9-1.28,2.22,2.22,0,0,0-1.26-.56l-2.36-.24a13.81,13.81,0,0,0-3.31.56,3.51,3.51,0,0,0-2.22,1.52,1.87,1.87,0,0,1-1.17.88A7.51,7.51,0,0,0-9.17,179.08Z" fill="currentColor"/><path d="M48,275.24a2.61,2.61,0,0,1-1.61-1.75c-.06-.18-.07-.36-.13-.54a3.51,3.51,0,0,0-1.7-2.16,7.12,7.12,0,0,0-1-.5,2.53,2.53,0,0,1-1.69-1.6c0-.12-.1-.23-.15-.35-.48-1.14-.49-1.14-1.78-1.87a3.79,3.79,0,0,0-1.47-.47c-.62-.08-1.24-.15-1.85-.27a3.33,3.33,0,0,0-3,.7,3.57,3.57,0,0,0-1.13,1.49,16.6,16.6,0,0,1-.73,1.83,4.25,4.25,0,0,1-.46.83,5.37,5.37,0,0,0-1.13,2.18,10.92,10.92,0,0,0-.33,2.89,2.53,2.53,0,0,0,1.64,2.22,17.93,17.93,0,0,1,1.75,1,7.24,7.24,0,0,1,2.32,2,2.81,2.81,0,0,0,2,1.11c.69.11,1.41.13,1.94.18,1-.08,1.77-.17,2.56-.2a5,5,0,0,0,1.67-.37c.4-.16.78-.35,1.21-.48a3.87,3.87,0,0,0,2.73-2.1,1.09,1.09,0,0,1,1-.64,3.47,3.47,0,0,0,1.22-.45c.35-.19.46-.43.27-.72A4.16,4.16,0,0,0,48,275.24Z" fill="currentColor"/><path d="M204.62,182.57a2.59,2.59,0,0,1-1.62-.92,5.84,5.84,0,0,0-2-1.51c-1.58-.81-3.31-1.43-5-2.11a2.57,2.57,0,0,0-.48-.11,46.47,46.47,0,0,0-4.91-.51,9.12,9.12,0,0,0-6.17,2c-.76.6-.67,1.21.07,1.84a4.67,4.67,0,0,1,.83.9,7.34,7.34,0,0,0,2.78,2.3l1.35.67a1.49,1.49,0,0,1,.93,1c.05.3.11.6.16.9s.12.72.21,1.08a3.94,3.94,0,0,0,3,2.72c1.11.34,2.29.57,3.45.85a3.86,3.86,0,0,0,1.85-.05,6.54,6.54,0,0,1,1.8-.37.49.49,0,0,0,.3-.12,5.26,5.26,0,0,1,1.89-.68,3.6,3.6,0,0,0,1-.32,4.9,4.9,0,0,0,1.25-1.13,6.91,6.91,0,0,0,1.22-2.36,7.88,7.88,0,0,0,.13-2C206.67,183.67,206.07,182.87,204.62,182.57Z" fill="currentColor"/><path d="M149.52,155.66a3.69,3.69,0,0,1-1.65-.58,7.12,7.12,0,0,0-2.62-1.06,9.7,9.7,0,0,0-7.29,1.09c-.31.2-.68.36-1,.57a13.34,13.34,0,0,0-1.9,1.44,6.57,6.57,0,0,0-1.17,1.69,4.09,4.09,0,0,0-.31,1.33,3.88,3.88,0,0,0,.57,2.48,2.4,2.4,0,0,0,1.75,1.09,12,12,0,0,0,3,.17c.66,0,1.33-.08,2-.12a3.44,3.44,0,0,1,2.47.7,8.43,8.43,0,0,0,5.1,1.54c.79-.08,1.57-.18,2.36-.22a12.14,12.14,0,0,0,5.62-2.07.7.7,0,0,0,.24-.21,2.76,2.76,0,0,0,.85-2.12,4,4,0,0,0-2.34-3.32,4.69,4.69,0,0,1-1-.7,5.56,5.56,0,0,0-2.31-1.22A16.06,16.06,0,0,0,149.52,155.66Z" fill="currentColor"/><path d="M270.34,13.71a3.65,3.65,0,0,1-1.65-.57,7,7,0,0,0-2.61-1.06,9.66,9.66,0,0,0-7.29,1.09c-.31.2-.68.35-1,.57a13.34,13.34,0,0,0-1.9,1.44,6.33,6.33,0,0,0-1.17,1.69,4,4,0,0,0-.31,1.33,3.82,3.82,0,0,0,.57,2.48,2.44,2.44,0,0,0,1.75,1.09,11.92,11.92,0,0,0,3,.17l2-.13a3.52,3.52,0,0,1,2.47.71,8.43,8.43,0,0,0,5.1,1.54c.78-.08,1.57-.18,2.36-.23a12.06,12.06,0,0,0,5.62-2.06.77.77,0,0,0,.23-.21,2.72,2.72,0,0,0,.85-2.12,4,4,0,0,0-2.33-3.33,4.65,4.65,0,0,1-1-.69,5.63,5.63,0,0,0-2.31-1.22A16.21,16.21,0,0,0,270.34,13.71Z" fill="currentColor"/><path d="M163.73,39.63a5.3,5.3,0,0,0,.14-1.93,1.73,1.73,0,0,0-.5-.91,3.15,3.15,0,0,0-1.43-.87c-1-.3-2-.61-3-.85-1.28-.29-2.58-.54-3.89-.72a3.49,3.49,0,0,1-2-.84,10.29,10.29,0,0,0-1-.8c-.58-.43-1.15-.87-1.75-1.3a2.88,2.88,0,0,0-1.77-.6,15.45,15.45,0,0,0-4.15.66,1.28,1.28,0,0,0-.81.54,2.25,2.25,0,0,0,.2,2.78,4,4,0,0,1,.61.88A9,9,0,0,1,145,37.5c.22.83.65,1.62.95,2.44a20.72,20.72,0,0,0,1.67,3.5A14.53,14.53,0,0,0,149,45.28a4.5,4.5,0,0,0,1.95,1.24,11.12,11.12,0,0,0,6.11.38,1.9,1.9,0,0,0,.74-.31,4,4,0,0,0,.8-.8,4.24,4.24,0,0,0,.91-1.87,1.68,1.68,0,0,1,.63-1.06c.45-.39.84-.83,1.28-1.23.25-.22.56-.42.93-.69C162.19,40.27,162.63,39.76,163.73,39.63Z" fill="currentColor"/><path d="M163.87,227.76a16.19,16.19,0,0,0,2.22,2.15,6.1,6.1,0,0,0,.6.38c.23.14.47.27.72.4a4.39,4.39,0,0,1,1.92,1.78,7.4,7.4,0,0,0,.88,1.32,4.9,4.9,0,0,0,4.11,2,3.35,3.35,0,0,1,2.12.63,3.65,3.65,0,0,0,.58-.5,3.74,3.74,0,0,1,1.61-1.12,3.52,3.52,0,0,0,.39-.18,1.87,1.87,0,0,0,.95-.88,2.72,2.72,0,0,0,.13-1.29,18.82,18.82,0,0,0-.69-2.73c-.27-.79-.67-1.56-1-2.34a4.25,4.25,0,0,0-2.66-2.32l-.5-.19a1.73,1.73,0,0,1-1.2-1.21c-.07-.27-.09-.54-.16-.81-.16-.55-.23-1.15-1.14-1.39l-.09,0a7.17,7.17,0,0,0-2.72-1.41,2.82,2.82,0,0,0-3.05.38,12.51,12.51,0,0,0-3,3.12A3.89,3.89,0,0,0,163.87,227.76Z" fill="currentColor"/><path d="M176.47,250.92a2.92,2.92,0,0,0-1.92-1.7A8.25,8.25,0,0,0,169,249a5.23,5.23,0,0,1-.66.15c-.1,0-.24,0-.31.06a7.22,7.22,0,0,0-1.53,1.26c-.75,1-1.25,2.15-1.91,3.22a2.13,2.13,0,0,0-.13.43,5.49,5.49,0,0,0-.09,2.09,9.64,9.64,0,0,1-1.62,1.5,6.39,6.39,0,0,0-1.46,2.09.5.5,0,0,0-.06.31,4.13,4.13,0,0,0,1.66,3.19,2.42,2.42,0,0,0,2.73-.22c.77-.49,1.57-.88,2.36-1.3a2.62,2.62,0,0,1,1.62-.32l1.4.19c1.89.28,2.25.16,4.23-1.05a6.11,6.11,0,0,0,2.54-3.06c.18-.43.31-.86.48-1.29a4.08,4.08,0,0,0-.07-3.67,3.68,3.68,0,0,0-1.26-1.28C176.78,251.2,176.54,251.1,176.47,250.92Z" fill="currentColor"/><path d="M135.51,261.76a19.64,19.64,0,0,0,5.79-.69,2.94,2.94,0,0,0,2.35-2,4.15,4.15,0,0,0,0-3.1,1.19,1.19,0,0,1-.14-.44c-.08-.8-.7-1.32-1.61-1.73a46.44,46.44,0,0,0-4.66-1.6,3.87,3.87,0,0,0-1-.12c-.46,0-.92,0-1.38,0a7.23,7.23,0,0,1-2.23-.2,22.13,22.13,0,0,0-2.18-.44,5.72,5.72,0,0,0-4.48.95c-.41.3-.84.6-1.29.87a1.8,1.8,0,0,0-1,2.3,4.78,4.78,0,0,0,1.62,2.22,34.29,34.29,0,0,0,5.19,3.15,5.29,5.29,0,0,0,2,.55C133.5,261.65,134.5,261.7,135.51,261.76Z" fill="currentColor"/><path d="M-.67,273.73c-.11-.52-.24-1.12-.35-1.72a1.17,1.17,0,0,0-.62-.76A2.59,2.59,0,0,0-4,271c-.93.36-1.82.76-2.7,1.16-1.48.69-2.31,1.65-2.18,2.95a1.74,1.74,0,0,1-1,1.67,5,5,0,0,0-2.26,4.64,4.5,4.5,0,0,1,.16,2.06c0,.33,0,.66,0,1a1.22,1.22,0,0,0,.64.94,2.25,2.25,0,0,0,1.37.39,16.72,16.72,0,0,1,2.12,0,2.36,2.36,0,0,0,1.94-.63c.3-.26.57-.53.85-.79a2.66,2.66,0,0,1,1.44-.68l3.15-.58a5.13,5.13,0,0,0,.7-.19,7.62,7.62,0,0,0,2.36-1.33,2.71,2.71,0,0,0,1.16-2.14,3.45,3.45,0,0,1,0-.72,2.08,2.08,0,0,0-.89-2.1C1.8,275.68.58,274.73-.67,273.73Z" fill="currentColor"/><path d="M260.43,227a2.82,2.82,0,0,0,1.85,3.07,15.85,15.85,0,0,0,4.83,1.12,1.6,1.6,0,0,0,.7-.15,3.57,3.57,0,0,0,.78-.57,27.17,27.17,0,0,0,1.85-2,4.56,4.56,0,0,1,3.19-1.72,2.43,2.43,0,0,0,1.18-.49c.47-.38.89-.79,1.33-1.2a1.2,1.2,0,0,0,.13-1.77c-.38-.52-1-.93-1.45-1.43a.68.68,0,0,0-.31-.14c-.5-.16-1-.34-1.5-.45-.76-.16-1.54-.28-2.32-.39A2.51,2.51,0,0,1,269,220a1.7,1.7,0,0,0-1.14-.66l-2.37-.32c-.86.13-1.75.2-2.57.4s-1.68.63-1.8,1.38a7.75,7.75,0,0,0-.14,2.88,2.34,2.34,0,0,1-.06,1.08A12.29,12.29,0,0,0,260.43,227Z" fill="currentColor"/><path d="M-34.43,36.79A6,6,0,0,0-37,38.41c-.08.09-.2.17-.29.26a16.47,16.47,0,0,0-3.21,4.17,2.65,2.65,0,0,0-.41,1.3,15,15,0,0,0,.32,2.58,2.09,2.09,0,0,1-.1,1.16,14.83,14.83,0,0,1-2.7,4,15.28,15.28,0,0,0-2.2,3.42A4.65,4.65,0,0,0-45,60.46a40.19,40.19,0,0,1,2.88,4.12,4.56,4.56,0,0,0,1.78,1.63c.83.46,1.66.93,2.54,1.34a17.43,17.43,0,0,0,5.33,1.62,8.12,8.12,0,0,0,3-.08,24.46,24.46,0,0,0,4.23-1.58,2.85,2.85,0,0,0,.54-.32,9.07,9.07,0,0,0,2.89-3,3.66,3.66,0,0,0,.47-2.29,2.84,2.84,0,0,0-1-1.76,3.72,3.72,0,0,1-1.05-1.29,1.44,1.44,0,0,0-.87-.75,9.28,9.28,0,0,1-2.11-1.31c-.32-.24-.69-.45-1-.67a9.83,9.83,0,0,1-1.29-.83c-.68-.62-1.28-1.27-1.9-1.91a2.15,2.15,0,0,1-.6-1.35A10.5,10.5,0,0,1-31,49a1.73,1.73,0,0,0-.39-1.69.53.53,0,0,1-.11-.64,2.27,2.27,0,0,0,.25-1.32.42.42,0,0,1,.14-.31c.4-.41.81-.82,1.25-1.21a2.75,2.75,0,0,1,.74-.4,1.3,1.3,0,0,1,1.5.3c.13.15.21.3.32.45s.41.54.63.81a3.11,3.11,0,0,0,2.23,1.09c.5,0,1,0,1.5.1a6.27,6.27,0,0,0,3.52-.67c.32-.16.63-.34.95-.49a5.23,5.23,0,0,1,3.14-.23,1.9,1.9,0,0,1-.34,1.25,7,7,0,0,0-.47,1,12.16,12.16,0,0,0-.54,3.91,3.4,3.4,0,0,0,2.11,2.85,4.6,4.6,0,0,0,2.41.53l1.63-.08A1.17,1.17,0,0,0-9.74,54a1.38,1.38,0,0,1,.9-.34,2,2,0,0,0,1.2-.47,10.09,10.09,0,0,0,1-.81c.95-1,1.86-1.93,2.78-2.9.48-.51.91-1,1.42-1.54A18.44,18.44,0,0,0-.57,45.77c.44-.59.9-1.18,1.38-1.75a3,3,0,0,0,.79-2.39,1.26,1.26,0,0,1-.06-.42,3,3,0,0,0-.4-1.8A3.64,3.64,0,0,0-1,37.51a9.22,9.22,0,0,0-1.77-.6,11.78,11.78,0,0,0-1.6-.13c-.42,0-.86,0-1.27-.09a42.92,42.92,0,0,0-6.61-.19,2,2,0,0,0-.35,0,1.65,1.65,0,0,1-1.28-.24,14.53,14.53,0,0,0-1.41-.74,12.76,12.76,0,0,0-7-.62c-.87.13-1.73.32-2.6.47a8.17,8.17,0,0,1-2.42.1,7.8,7.8,0,0,0-1.74,0c-.54,0-1.08.11-1.62.12a5.81,5.81,0,0,0-2.69.71A7,7,0,0,1-34.43,36.79Z" fill="currentColor"/><path d="M282.8-9.73c-.11-.53-.24-1.12-.35-1.72a1.17,1.17,0,0,0-.62-.76,2.58,2.58,0,0,0-2.34-.21c-.92.35-1.81.75-2.69,1.16-1.49.68-2.32,1.64-2.19,2.95a1.72,1.72,0,0,1-1,1.67A5,5,0,0,0,271.39-2a4.55,4.55,0,0,1,.16,2.07c0,.33,0,.66,0,1a1.25,1.25,0,0,0,.65,1,2.31,2.31,0,0,0,1.36.39,19,19,0,0,1,2.13,0,2.33,2.33,0,0,0,1.94-.63c.29-.25.56-.52.85-.79a2.82,2.82,0,0,1,1.43-.68C281,.07,282-.13,283.09-.33a7.15,7.15,0,0,0,.7-.18,7.74,7.74,0,0,0,2.36-1.33A2.71,2.71,0,0,0,287.3-4a2.9,2.9,0,0,1,0-.72,2.09,2.09,0,0,0-.9-2.09C285.27-7.79,284-8.73,282.8-9.73Z" fill="currentColor"/><path d="M215.2-11.66a10.46,10.46,0,0,0-5-2.1,26.48,26.48,0,0,0-4.88-.24c-1.64.06-3.27.16-4.9.23l-3.27.15c-.33,0-.66,0-1.13,0-.24-.66-.45-1.24-.65-1.83s-.31-.94-.48-1.4c-.24-.63-1-1-1.63-1.31a4.49,4.49,0,0,0-1.68-.34,15.72,15.72,0,0,0-5.86.83A4.14,4.14,0,0,0,183-15.32a6.37,6.37,0,0,0-.24,2.52,1.73,1.73,0,0,0,.61,1.35.77.77,0,0,1,.35.56,5,5,0,0,0,.75,2.19A41.1,41.1,0,0,1,187-3.41a5.27,5.27,0,0,0,2,2.5c.38.27.76.56,1.12.85a9.25,9.25,0,0,0,3.4,1.67c1,.28,2,.5,3,.78a5.49,5.49,0,0,0,2.1.15c.33,0,.66-.09,1-.13,1.55-.17,2.54-.84,2.88-1.95.16-.54.29-1.07.45-1.6A1.26,1.26,0,0,1,204-1.95a11.49,11.49,0,0,0,1.27-.37,4.74,4.74,0,0,1,2.67-.17l1.66.43c.52.12,1,.27,1.55.36a10.87,10.87,0,0,0,3.12.12L216-1.79c.42-.05.84-.07,1.25-.11a2.93,2.93,0,0,0,2.29-1.28,4,4,0,0,0,.68-2.09,3.27,3.27,0,0,0-.77-2.34A30.59,30.59,0,0,0,215.2-11.66Z" fill="currentColor"/><path d="M176.77-3.42a5.42,5.42,0,0,0-.54-1.38,6.43,6.43,0,0,0-2.6-2,3.82,3.82,0,0,0-1.14-.37c-.73-.13-1.48-.21-2.22-.3a8.1,8.1,0,0,0-1.86.25c-.78.22-1.6.37-2.37.6a5.76,5.76,0,0,0-3.44,2.27,15.71,15.71,0,0,0-1,1.67,9,9,0,0,0-.49,1.49A1.41,1.41,0,0,0,161.4,0c.36.48.69,1,1.1,1.42a13.79,13.79,0,0,1,2.12,3.28,2.79,2.79,0,0,1-.25,3,2.9,2.9,0,0,0-.59,2.62,2.1,2.1,0,0,1-1.22,2.43,11.14,11.14,0,0,1-2.13,1c-1.39.49-2.77,1-4.14,1.52a4.62,4.62,0,0,0-1.88,1.18c-1.51,1.7-1.28,3.43-.16,5.18a.73.73,0,0,0,.21.22,6.32,6.32,0,0,1,1.33,1.3,4.18,4.18,0,0,0,4,1.24l.5-.06a5.5,5.5,0,0,0,2.55-.68c.58-.3,1.15-.61,1.74-.9a7.7,7.7,0,0,0,2.5-1.77,10,10,0,0,1,3.18-2.14l.52-.26a22.9,22.9,0,0,0,6.36-4.34,4.48,4.48,0,0,0,1.34-3,8,8,0,0,0-.77-3.92,2.34,2.34,0,0,1-.09-1.87,17.05,17.05,0,0,0,.93-4.37,4.26,4.26,0,0,0-1.41-3.84A1.17,1.17,0,0,1,176.77-3.42Z" fill="currentColor"/><path d="M155.4-11.66c-.22-.42-.42-.85-.65-1.27a5.79,5.79,0,0,0-3.06-2.55,4.52,4.52,0,0,0-1.81-.34c-.46,0-.92,0-1.37.1a33.39,33.39,0,0,0-4.95,1,18.48,18.48,0,0,0-2.12.79,1.69,1.69,0,0,0-1,.9c-.49,1.38-.89,2.74.44,4.06.82.81.39,1.44-.94,1.83-.12,0-.25,0-.37,0l-.82.22a9.49,9.49,0,0,1-1,.3,2.68,2.68,0,0,0-2.24,1.67,12.23,12.23,0,0,0-.36,1.7,8.66,8.66,0,0,0,2.08,5.35,5.35,5.35,0,0,0,4,1.83,29.49,29.49,0,0,0,3.64,0,3.26,3.26,0,0,0,3-1.75,13.08,13.08,0,0,0,.68-1.83A4.19,4.19,0,0,0,148.74-1c0-.87-.18-1.74-.28-2.61,0-.27-.06-.54-.07-.81,0-.47.22-.82.84-1,.42-.14.83-.3,1.25-.43a13.32,13.32,0,0,0,2.45-1.1,3.47,3.47,0,0,0,1.45-1.35c.4-.76.74-1.53,1.09-2.31A1.11,1.11,0,0,0,155.4-11.66Z" fill="currentColor"/><path d="M-.67-9.73c-.11-.53-.24-1.12-.35-1.72a1.17,1.17,0,0,0-.62-.76A2.55,2.55,0,0,0-4-12.42c-.93.35-1.82.75-2.7,1.16C-8.15-10.58-9-9.62-8.85-8.31a1.75,1.75,0,0,1-1,1.67A5,5,0,0,0-12.08-2,4.55,4.55,0,0,1-11.92.06c0,.33,0,.66,0,1a1.23,1.23,0,0,0,.64,1,2.32,2.32,0,0,0,1.37.39,18.84,18.84,0,0,1,2.12,0,2.33,2.33,0,0,0,1.94-.63c.3-.25.57-.52.85-.79A2.81,2.81,0,0,1-3.53.25c1-.18,2.1-.38,3.15-.58a7.15,7.15,0,0,0,.7-.18A7.62,7.62,0,0,0,2.68-1.84,2.73,2.73,0,0,0,3.84-4a3.47,3.47,0,0,1,0-.72A2.07,2.07,0,0,0,3-6.8C1.8-7.79.58-8.73-.67-9.73Z" fill="currentColor"/></pattern></defs><rect width="283.46" height="283.46" fill="url(#a)"/></svg>
