<svg xmlns="http://www.w3.org/2000/svg" xmlns:xlink="http://www.w3.org/1999/xlink" viewBox="0 0 283.46 283.46"><defs><pattern id="a" width="283.46" height="283.46" patternUnits="userSpaceOnUse" viewBox="0 0 283.46 283.46"><rect width="283.46" height="283.46" fill="none"/><path d="M314.88,195.55c1.39.15,2.78.3,4.17.43a34.08,34.08,0,0,0,8.26-.3c1.9-.29,3.78-.69,5.66-1.11,3.56-.8,7.11-1.67,10.69-2.45,2.54-.55,5.11-1,7.66-1.51a39.51,39.51,0,0,1,4.33-.59,66.34,66.34,0,0,1,8.1,0c1.64.07,3.28.26,4.91.45,2.53.3,5,.73,7.53,1.19,2,.37,4.06.83,6.09,1.25,1.6.33,3.2.7,4.82,1q3.16.54,6.37.79a50.55,50.55,0,0,0,7.07,0c1.86-.11,3.72-.28,5.57-.47,1.7-.17,3.39-.37,5.08-.62s3.42-.6,5.14-.87c2.45-.4,4.9-.8,7.35-1.16a68.2,68.2,0,0,1,9.37-.79,62,62,0,0,1,9.82.77c2.73.41,5.44.92,8.15,1.44,3.71.7,7.43,1.36,11.2,1.7,2.17.19,4.33.34,6.51.32a88.42,88.42,0,0,0,10.41-.64c1.84-.23,3.69-.48,5.53-.73,2.34-.32,4.67-.67,7-1,1.82-.23,3.62-.6,5.46-.65,1.36,0,2.73-.08,4.09-.08,1.74,0,3.48,0,5.21.2,1.12.1,2.23.2,3.35.26a103.91,103.91,0,0,1,11,1.21c3.15.5,6.3,1,9.45,1.55,3.33.54,6.67,1,10,1.27a40.76,40.76,0,0,0,10.29-.63c1.86-.35,3.7-.75,5.52-1.27,2.17-.62,4.41-1,6.56-1.72a6.85,6.85,0,0,1,1.36-.29c.92-.1,1.85-.16,2.78-.24.4,0,.81-.06,1.21-.11.17,0,.33-.11.68-.22-.91-.07-1.62-.15-2.33-.18q-1.4,0-2.79,0a10.18,10.18,0,0,0-1.57.15c-.77.14-1.52.34-2.27.5-.94.19-1.88.38-2.83.55l-5.39,1c-.45.08-.91.19-1.37.24a78.83,78.83,0,0,1-8,.41c-1.12,0-2.23-.08-3.35-.15-.71-.05-1.41-.18-2.12-.21-1.59-.08-3.14-.37-4.7-.59-1.29-.19-2.57-.4-3.86-.61l-4.31-.7c-1.28-.22-2.56-.46-3.84-.67-1.56-.24-3.12-.5-4.69-.64-1-.09-2-.25-3-.33s-1.86-.12-2.79-.16c-1.33-.05-2.66-.11-4-.14-1.89,0-3.78-.15-5.68-.12a58.45,58.45,0,0,0-6.87.36c-1.08.15-2.16.25-3.24.37l-3.89.41c-.28,0-.56,0-.83.08l-3,.38c-.86.1-1.74.15-2.59.29a64.81,64.81,0,0,1-6.95.65,75.45,75.45,0,0,1-12.93-.37c-2.93-.36-5.83-.83-8.72-1.42-3.76-.76-7.51-1.56-11.35-2a37.41,37.41,0,0,0-4.73-.28c-1.46,0-2.92.11-4.37.23q-3.57.31-7.14.71c-1.14.12-2.27.33-3.4.51-.86.13-1.71.29-2.57.43-1.38.21-2.76.41-4.13.63-.89.14-1.77.34-2.66.46-1.1.14-2.22.22-3.33.32l-3.62.28c-1.92.13-3.83.35-5.76.35s-3.84-.06-5.76-.22a60.78,60.78,0,0,1-6.16-.84c-1.31-.25-2.61-.49-3.91-.75-.91-.19-1.8-.42-2.71-.6-1.52-.3-3-.57-4.56-.84l-.47-.06c-.42-.06-.86-.09-1.28-.17a19.67,19.67,0,0,0-2.67-.33,10.81,10.81,0,0,1-1.37-.21c-.73-.12-1.46-.29-2.19-.37-1.17-.12-2.35-.19-3.52-.27a3.23,3.23,0,0,0-.93,0,4.18,4.18,0,0,0-.85.34,4.11,4.11,0,0,0-1-.32c-.77,0-1.55,0-2.32,0-1.71.08-3.37.54-5.09.53l-.19,0c-1,.24-1.94.36-2.9.58-1.27.29-2.51.66-3.78.92-1.06.21-2.1.5-3.16.74-1.54.34-3.09.65-4.63,1-1,.22-2,.49-3.08.7-.48.1-1,.07-1.47.17a27.61,27.61,0,0,1-3.13.4c-.34,0-.67.12-1,.18s-.53.13-.8.18a3.3,3.3,0,0,0-.64.13,5.43,5.43,0,0,1-2.82.29A3.18,3.18,0,0,0,324,194a2.82,2.82,0,0,1-.83.09c-1.26.06-2.53,0-3.8,0-.74,0-1.49,0-2.23-.07-1.29-.11-2.58-.27-3.88-.41-.33,0-.67-.1-1-.13-.61,0-1.22-.13-1.85-.13a11.62,11.62,0,0,1-2-.3c-.67-.12-1.33-.27-2-.4-1-.2-2-.38-3-.57a12.18,12.18,0,0,0-1.8-.25c0,.12,0,.18,0,.23s0,.29-.2.31c-.35,0-.5-.05-.6-.39a.43.43,0,0,0-.27-.31,8,8,0,0,0-.87-.28c-.69-.16-1.39-.3-2.08-.45-.21,0-.43-.06-.64-.09-.49-.05-1-.08-1.48-.14-1.26-.13-2.53-.29-3.79-.41a9.63,9.63,0,0,0-1.86,0,17.31,17.31,0,0,1-2,.07,11.33,11.33,0,0,0-3.13.38c-.83.26-1.69.41-2.51.66-.62.19-1.25.38-1.85.61a14,14,0,0,0-1.41.67c-.18.1-.35.26-.18.54l2-.27a.49.49,0,0,0,.17-.06,6.43,6.43,0,0,1,1.75-.58,21,21,0,0,1,4.07-.92,9.43,9.43,0,0,1,1.3-.06,47.12,47.12,0,0,1,5.18.55c1.38.16,2.75.43,4.12.69,2.46.47,4.91,1,7.36,1.46.88.17,1.77.31,2.66.45.17,0,.45,0,.51-.08.27-.42.64-.28,1-.22a.27.27,0,0,1,.21.41s0,.1.07.18a20,20,0,0,0,2.48.25c-.65-.14-1.31-.16-2.09-.39.22-.12.31-.21.41-.22a3,3,0,0,1,.74,0c1,.28,2.08.29,3.12.47a2.33,2.33,0,0,1,.36.08,3.34,3.34,0,0,1,.43.23l-.79.14C314.15,195.42,314.52,195.51,314.88,195.55Zm-9.34-1.76a3.34,3.34,0,0,1,1.93.26A2,2,0,0,1,305.54,193.79Zm2.29-.31c-.08,0-.11-.17-.16-.25s.16-.11.22-.1a1.68,1.68,0,0,1,.36.25C308,193.44,307.91,193.51,307.83,193.48Z" fill="currentColor"/><path d="M248.36,139.18c1.38.15,2.77.3,4.16.43a34.16,34.16,0,0,0,8.27-.3c1.89-.29,3.78-.69,5.65-1.11,3.57-.79,7.12-1.67,10.69-2.44,2.54-.56,5.11-1,7.66-1.51a37.25,37.25,0,0,1,4.33-.6,68.57,68.57,0,0,1,8.11,0c1.64.07,3.27.26,4.91.45,2.53.3,5,.73,7.52,1.19,2,.37,4.06.83,6.09,1.25,1.61.33,3.21.7,4.82,1q3.17.54,6.37.79a50.56,50.56,0,0,0,7.07,0c1.86-.11,3.72-.28,5.57-.47s3.4-.37,5.09-.62,3.42-.59,5.13-.87c2.45-.4,4.9-.8,7.36-1.16a69.66,69.66,0,0,1,9.36-.79,63.25,63.25,0,0,1,9.83.77c2.72.41,5.44.92,8.14,1.44,3.71.7,7.43,1.36,11.21,1.7a64.15,64.15,0,0,0,6.5.32,86.2,86.2,0,0,0,10.41-.64c1.85-.23,3.7-.48,5.54-.73,2.34-.32,4.67-.67,7-1a52.3,52.3,0,0,1,5.45-.66c1.37,0,2.73-.07,4.1-.08,1.74,0,3.48,0,5.21.2,1.11.1,2.23.2,3.34.26a104.1,104.1,0,0,1,11,1.21c3.15.5,6.29,1.05,9.44,1.56,3.34.54,6.67,1,10.06,1.26a40.79,40.79,0,0,0,10.29-.63c1.86-.34,3.7-.75,5.52-1.27,2.17-.62,4.4-1,6.55-1.72a7,7,0,0,1,1.36-.29c.93-.1,1.86-.16,2.79-.23.4,0,.8-.07,1.2-.12a6,6,0,0,0,.69-.22c-.92-.07-1.63-.15-2.34-.17-.93,0-1.86-.05-2.79,0a10.43,10.43,0,0,0-1.57.15c-.76.14-1.51.34-2.27.5-.94.19-1.88.38-2.82.55l-5.39,1c-.46.09-.92.19-1.38.24a78.68,78.68,0,0,1-8,.41c-1.11,0-2.23-.08-3.34-.15-.71,0-1.42-.18-2.13-.21-1.58-.08-3.14-.36-4.7-.59-1.29-.19-2.57-.4-3.85-.61l-4.31-.7c-1.29-.22-2.56-.46-3.85-.66-1.55-.25-3.11-.51-4.69-.65-1-.09-2-.25-3-.33s-1.85-.12-2.78-.15l-4-.15c-1.9,0-3.79-.15-5.68-.11a54.49,54.49,0,0,0-6.88.36c-1.07.15-2.16.24-3.24.36l-3.89.41-.83.08-3.05.38c-.86.1-1.73.15-2.59.29a64.81,64.81,0,0,1-6.95.65A74.48,74.48,0,0,1,393,136c-2.92-.35-5.83-.83-8.71-1.42-3.77-.76-7.52-1.56-11.35-2a35.7,35.7,0,0,0-4.74-.29c-1.45,0-2.91.11-4.37.24-2.38.2-4.76.44-7.13.7-1.14.12-2.27.33-3.41.51-.85.13-1.7.3-2.56.43l-4.14.63c-.89.14-1.76.35-2.66.46-1.1.14-2.21.22-3.32.32s-2.42.2-3.62.28c-1.92.14-3.83.35-5.76.35s-3.85-.05-5.77-.22a60.78,60.78,0,0,1-6.16-.84c-1.3-.25-2.61-.49-3.91-.75-.9-.18-1.8-.42-2.71-.6-1.51-.3-3-.56-4.56-.84-.15,0-.31,0-.46-.06-.43-.05-.86-.09-1.29-.17a19.73,19.73,0,0,0-2.66-.33,10.54,10.54,0,0,1-1.37-.21c-.73-.12-1.46-.29-2.2-.37-1.17-.12-2.34-.19-3.52-.27a3.56,3.56,0,0,0-.92,0,4.28,4.28,0,0,0-.86.34,4.43,4.43,0,0,0-1-.32c-.77,0-1.55,0-2.32,0-1.71.08-3.37.55-5.09.54a.37.37,0,0,0-.18,0c-1,.23-1.94.35-2.91.57-1.26.3-2.5.66-3.77.92-1.07.21-2.11.5-3.17.74-1.54.34-3.09.65-4.63,1-1,.23-2,.49-3.07.7-.49.1-1,.08-1.48.17a27.32,27.32,0,0,1-3.13.4c-.34,0-.67.12-1,.18l-.81.19a2.51,2.51,0,0,0-.63.12,5.47,5.47,0,0,1-2.83.3,3.06,3.06,0,0,0-1.37.13,2.46,2.46,0,0,1-.82.09c-1.27.07-2.54,0-3.81,0-.74,0-1.49,0-2.22-.07-1.3-.11-2.59-.27-3.88-.41-.34,0-.68-.1-1-.13-.62,0-1.23-.13-1.85-.13a11.59,11.59,0,0,1-2-.3c-.67-.12-1.33-.27-2-.4-1-.19-2-.37-3-.57a12,12,0,0,0-1.8-.25.84.84,0,0,0,0,.23c.08.2,0,.29-.2.31-.35,0-.51-.05-.6-.38a.43.43,0,0,0-.27-.32,9,9,0,0,0-.88-.28c-.69-.16-1.38-.3-2.07-.44a4.84,4.84,0,0,0-.65-.09l-1.48-.14c-1.26-.14-2.52-.3-3.79-.41a8.8,8.8,0,0,0-1.85,0,20.07,20.07,0,0,1-2,.08,11,11,0,0,0-3.13.37c-.83.26-1.68.41-2.51.66-.62.19-1.24.38-1.85.61a15.12,15.12,0,0,0-1.41.67c-.17.1-.35.26-.17.54l2-.27a.55.55,0,0,0,.18-.06,6.21,6.21,0,0,1,1.75-.58,20.87,20.87,0,0,1,4.07-.92,11.21,11.21,0,0,1,1.3-.06,50.27,50.27,0,0,1,5.18.55c1.38.16,2.75.43,4.11.69,2.46.47,4.91,1,7.37,1.46.88.17,1.77.31,2.65.45.17,0,.45,0,.51-.08.28-.42.65-.28,1-.21a.25.25,0,0,1,.2.4s0,.1.07.18a20,20,0,0,0,2.48.25c-.64-.14-1.31-.16-2.08-.39.22-.12.31-.21.4-.22a3,3,0,0,1,.74.05,30.12,30.12,0,0,0,3.12.47c.12,0,.25,0,.37.08a3.47,3.47,0,0,1,.42.23l-.78.15C247.63,139.06,248,139.14,248.36,139.18ZM239,137.42a3.3,3.3,0,0,1,1.94.27A2,2,0,0,1,239,137.42Zm2.29-.31c-.07,0-.11-.16-.16-.25s.17-.11.23-.1a2.41,2.41,0,0,1,.36.25C241.51,137.07,241.38,137.14,241.3,137.11Z" fill="currentColor"/><path d="M313.34,25.44c1.38.15,2.77.31,4.16.43a34.08,34.08,0,0,0,8.26-.29c1.9-.3,3.78-.7,5.66-1.12,3.57-.79,7.12-1.66,10.69-2.44,2.54-.55,5.11-1,7.66-1.51a37.23,37.23,0,0,1,4.33-.59,64.39,64.39,0,0,1,8.1,0c1.64.06,3.28.25,4.91.44,2.53.3,5,.74,7.53,1.19,2,.37,4.06.83,6.09,1.25,1.61.33,3.2.7,4.82,1q3.17.54,6.37.78a50.56,50.56,0,0,0,7.07.05q2.79-.18,5.57-.47c1.7-.18,3.4-.38,5.08-.63s3.42-.59,5.14-.87c2.45-.4,4.9-.8,7.35-1.16a69.93,69.93,0,0,1,9.37-.78,62,62,0,0,1,9.83.76c2.72.42,5.43.92,8.14,1.44,3.71.71,7.43,1.37,11.2,1.71,2.17.19,4.33.33,6.51.31a88.4,88.4,0,0,0,10.41-.63c1.85-.24,3.69-.48,5.54-.74,2.33-.32,4.67-.66,7-1a52.79,52.79,0,0,1,5.46-.65c1.36,0,2.73-.08,4.1-.09,1.74,0,3.47.05,5.21.2,1.11.11,2.22.21,3.34.27a103.91,103.91,0,0,1,11,1.21c3.15.49,6.3,1,9.45,1.55,3.33.54,6.67,1,10,1.26A41.22,41.22,0,0,0,549,25.69c1.86-.35,3.71-.76,5.52-1.28,2.17-.62,4.41-1,6.56-1.72a7,7,0,0,1,1.36-.28c.92-.11,1.86-.16,2.78-.24.41,0,.81-.06,1.21-.12a4.1,4.1,0,0,0,.68-.22c-.91-.07-1.62-.14-2.33-.17-.93,0-1.86-.05-2.79,0a10.18,10.18,0,0,0-1.57.14c-.76.14-1.51.34-2.27.5-.94.2-1.88.38-2.83.56l-5.39,1c-.45.08-.91.18-1.37.23a76,76,0,0,1-8,.41c-1.12,0-2.23-.07-3.34-.14-.72-.05-1.42-.19-2.13-.22a46.06,46.06,0,0,1-4.7-.59c-1.29-.19-2.57-.4-3.86-.6l-4.31-.71c-1.28-.21-2.56-.45-3.84-.66-1.56-.25-3.12-.51-4.69-.65-1-.09-2-.24-3-.33s-1.86-.11-2.79-.15c-1.33-.06-2.66-.11-4-.15-1.89,0-3.78-.14-5.68-.11a56.37,56.37,0,0,0-6.87.36c-1.08.15-2.16.25-3.24.36l-3.89.41-.83.08-3.05.38c-.86.11-1.73.16-2.59.3a62.32,62.32,0,0,1-6.95.64A74.45,74.45,0,0,1,458,22.29c-2.93-.35-5.83-.83-8.72-1.41-3.76-.77-7.51-1.57-11.34-2a35.8,35.8,0,0,0-4.74-.29c-1.46,0-2.92.11-4.37.24-2.38.2-4.76.44-7.13.7-1.14.13-2.28.33-3.41.51-.86.14-1.71.3-2.57.43-1.37.22-2.76.41-4.13.63-.89.14-1.77.35-2.66.46-1.1.14-2.22.23-3.33.32s-2.41.2-3.62.28c-1.91.14-3.83.35-5.76.36s-3.84-.06-5.76-.22c-2.07-.18-4.12-.47-6.16-.85-1.3-.24-2.61-.49-3.91-.75-.91-.18-1.8-.42-2.71-.6-1.52-.29-3-.56-4.56-.84l-.46-.06c-.43-.05-.86-.09-1.29-.17a19.71,19.71,0,0,0-2.66-.32,13.15,13.15,0,0,1-1.38-.21c-.73-.13-1.45-.3-2.19-.38-1.17-.12-2.35-.18-3.52-.27a3.63,3.63,0,0,0-.93,0,4.18,4.18,0,0,0-.85.35,4.17,4.17,0,0,0-1-.33c-.77,0-1.55,0-2.32,0-1.71.07-3.37.54-5.09.53a.52.52,0,0,0-.18,0c-1,.24-1.95.36-2.91.58-1.26.29-2.51.66-3.78.91-1.06.21-2.1.51-3.16.74-1.54.34-3.09.66-4.63,1-1,.23-2.05.49-3.08.7-.48.1-1,.08-1.47.18a30.09,30.09,0,0,1-3.13.4,8.92,8.92,0,0,0-1,.18c-.27.05-.53.12-.8.18a2.69,2.69,0,0,0-.64.13,5.41,5.41,0,0,1-2.82.29,3,3,0,0,0-1.37.14,2.79,2.79,0,0,1-.82.08c-1.27.07-2.54,0-3.81,0-.74,0-1.49,0-2.23-.06-1.29-.11-2.58-.27-3.87-.41-.34,0-.68-.1-1-.13-.61-.06-1.22-.13-1.85-.13a12.7,12.7,0,0,1-2-.31c-.67-.12-1.33-.27-2-.4-1-.19-2-.37-3-.57a12,12,0,0,0-1.8-.24c0,.11,0,.18,0,.23s0,.29-.2.3c-.34,0-.5-.05-.6-.38a.38.38,0,0,0-.27-.31,6.31,6.31,0,0,0-.87-.28c-.69-.16-1.38-.31-2.08-.45-.21,0-.42-.07-.64-.09l-1.48-.14c-1.26-.14-2.52-.3-3.79-.41a8.9,8.9,0,0,0-1.86,0,19.77,19.77,0,0,1-2,.08,11,11,0,0,0-3.13.37c-.83.26-1.68.42-2.51.67-.62.19-1.25.37-1.85.6a12.19,12.19,0,0,0-1.41.68c-.18.09-.35.26-.18.53l2-.26a.36.36,0,0,0,.17-.07,7.2,7.2,0,0,1,1.75-.58,21.72,21.72,0,0,1,4.08-.92,11.14,11.14,0,0,1,1.29-.06,49.69,49.69,0,0,1,5.18.55c1.38.17,2.75.43,4.12.69l7.37,1.46c.88.17,1.76.32,2.65.45.17,0,.45,0,.51-.08.27-.41.64-.28,1-.21s.29.19.2.41c0,0,0,.09.07.17a18.27,18.27,0,0,0,2.48.26c-.64-.14-1.31-.17-2.09-.39.22-.13.32-.22.41-.22a2.27,2.27,0,0,1,.74.05c1,.28,2.08.29,3.12.47a2.09,2.09,0,0,1,.36.07c.1,0,.19.1.43.23l-.79.15C312.6,25.32,313,25.4,313.34,25.44ZM304,23.68a3.3,3.3,0,0,1,1.94.27A2,2,0,0,1,304,23.68Zm2.29-.3c-.08,0-.11-.17-.16-.26s.16-.11.22-.09a1.54,1.54,0,0,1,.36.24C306.48,23.33,306.36,23.41,306.28,23.38Z" fill="currentColor"/><path d="M173.14,254.91c1.38.16,2.77.31,4.16.44a34.16,34.16,0,0,0,8.27-.3c1.89-.29,3.78-.7,5.65-1.11,3.57-.8,7.12-1.67,10.69-2.45,2.54-.55,5.11-1,7.66-1.51a39.51,39.51,0,0,1,4.33-.59,66.5,66.5,0,0,1,8.11,0c1.64.06,3.27.26,4.91.45,2.52.29,5,.73,7.52,1.18,2,.38,4.06.84,6.09,1.26,1.61.33,3.21.7,4.82,1q3.17.54,6.37.79a50.56,50.56,0,0,0,7.07,0q2.79-.18,5.57-.47c1.7-.17,3.4-.38,5.09-.63s3.42-.59,5.13-.87c2.45-.39,4.9-.79,7.35-1.15a68.33,68.33,0,0,1,9.37-.79,60.89,60.89,0,0,1,9.83.77c2.72.41,5.44.92,8.14,1.43,3.71.71,7.43,1.37,11.21,1.71,2.16.19,4.32.34,6.5.32a90.48,90.48,0,0,0,10.41-.64l5.54-.73c2.34-.32,4.67-.67,7-1a52.28,52.28,0,0,1,5.45-.65c1.37,0,2.73-.08,4.1-.09,1.74,0,3.48.05,5.21.21,1.11.1,2.22.2,3.34.26a104.1,104.1,0,0,1,11,1.21c3.15.5,6.29,1,9.44,1.55,3.33.54,6.67,1,10.06,1.26a40.33,40.33,0,0,0,10.29-.62c1.86-.35,3.7-.76,5.52-1.28,2.17-.61,4.4-1,6.55-1.71a6.34,6.34,0,0,1,1.36-.29c.93-.1,1.86-.16,2.79-.24.4,0,.8-.06,1.2-.11a6.65,6.65,0,0,0,.69-.23c-.92-.06-1.63-.14-2.34-.17q-1.39,0-2.79,0a9.27,9.27,0,0,0-1.57.15c-.76.13-1.51.34-2.27.49-.94.2-1.88.39-2.83.56l-5.38,1c-.46.08-.92.19-1.38.24a78.68,78.68,0,0,1-8,.41c-1.11,0-2.23-.08-3.34-.15-.71-.05-1.42-.18-2.13-.22-1.58-.07-3.14-.36-4.7-.58-1.29-.19-2.57-.4-3.85-.61l-4.31-.7c-1.29-.22-2.56-.46-3.85-.67-1.56-.25-3.11-.5-4.69-.65-1-.08-2-.24-3-.32s-1.86-.12-2.78-.16c-1.34-.05-2.67-.11-4-.14-1.9-.06-3.79-.15-5.68-.12a56.42,56.42,0,0,0-6.88.36c-1.07.15-2.16.25-3.24.36l-3.89.42c-.27,0-.55,0-.83.08l-3,.38c-.86.1-1.73.15-2.59.29a62.32,62.32,0,0,1-6.95.64,75.48,75.48,0,0,1-12.93-.36q-4.38-.54-8.72-1.42c-3.76-.76-7.51-1.57-11.34-2a37.58,37.58,0,0,0-4.74-.29c-1.45,0-2.91.12-4.37.24q-3.57.31-7.13.7c-1.14.13-2.27.33-3.41.51l-2.56.44-4.14.62c-.89.15-1.77.35-2.66.47-1.1.14-2.21.22-3.33.32l-3.61.28c-1.92.13-3.83.35-5.76.35s-3.85-.06-5.77-.22a60.8,60.8,0,0,1-6.16-.85c-1.3-.24-2.61-.48-3.91-.75-.91-.18-1.8-.42-2.71-.59-1.51-.3-3-.57-4.56-.84-.15,0-.31,0-.46-.06-.43-.06-.86-.1-1.29-.17a18.24,18.24,0,0,0-2.66-.33,10.54,10.54,0,0,1-1.37-.21c-.74-.13-1.46-.29-2.2-.37-1.17-.13-2.35-.19-3.52-.28a4.15,4.15,0,0,0-.93,0,5.18,5.18,0,0,0-.85.35,3.72,3.72,0,0,0-1-.32c-.77,0-1.55,0-2.32,0-1.71.07-3.37.54-5.09.53l-.18,0c-1,.24-1.94.36-2.91.58-1.26.29-2.5.66-3.78.91-1.06.22-2.1.51-3.16.74-1.54.35-3.09.66-4.63,1-1,.22-2.05.49-3.08.7-.48.1-1,.07-1.47.17a27.61,27.61,0,0,1-3.13.4,8.37,8.37,0,0,0-1,.18l-.81.18a3.06,3.06,0,0,0-.63.13,5.46,5.46,0,0,1-2.83.29,3.2,3.2,0,0,0-1.37.14,3.13,3.13,0,0,1-.82.09c-1.27.06-2.54,0-3.81,0-.74,0-1.49,0-2.23-.07-1.29-.11-2.58-.27-3.87-.41-.34,0-.68-.1-1-.13-.61-.05-1.22-.13-1.84-.13a11.59,11.59,0,0,1-2-.3c-.67-.13-1.33-.28-2-.4l-3-.57a12,12,0,0,0-1.8-.25.84.84,0,0,0,0,.23c.07.19,0,.29-.2.3-.35,0-.51,0-.6-.38a.41.41,0,0,0-.27-.31,6.92,6.92,0,0,0-.88-.28c-.69-.16-1.38-.3-2.08-.45-.21,0-.42-.07-.64-.09-.49-.05-1-.08-1.48-.14-1.26-.13-2.52-.29-3.79-.41a8.91,8.91,0,0,0-1.86,0,19.77,19.77,0,0,1-2,.07,11,11,0,0,0-3.13.38c-.83.25-1.68.41-2.51.66-.62.19-1.24.37-1.85.61a11.33,11.33,0,0,0-1.41.67c-.18.1-.35.26-.18.53l2-.26a.49.49,0,0,0,.17-.06,6.76,6.76,0,0,1,1.76-.59,20.85,20.85,0,0,1,4.07-.91,11.2,11.2,0,0,1,1.3-.07c1.74,0,3.45.35,5.17.55,1.39.17,2.76.44,4.12.7,2.46.47,4.91,1,7.37,1.45.88.18,1.77.32,2.65.45.17,0,.45,0,.51-.07.28-.42.65-.28,1-.22s.29.19.2.41c0,0,0,.1.07.18a20,20,0,0,0,2.48.25c-.64-.14-1.31-.17-2.09-.39.23-.12.32-.22.41-.22a2.59,2.59,0,0,1,.74,0c1,.28,2.09.29,3.12.47a2.09,2.09,0,0,1,.36.08,2.87,2.87,0,0,1,.43.22l-.79.15C172.41,254.79,172.77,254.87,173.14,254.91Zm-9.35-1.76a3.47,3.47,0,0,1,1.94.27A2,2,0,0,1,163.79,253.15Zm2.29-.3c-.07,0-.11-.17-.16-.26s.16-.11.23-.09a2.45,2.45,0,0,1,.35.24C166.29,252.8,166.16,252.88,166.08,252.85Z" fill="currentColor"/><path d="M31.42,195.55c1.39.15,2.77.3,4.16.43a34.16,34.16,0,0,0,8.27-.3c1.9-.29,3.78-.69,5.65-1.11,3.57-.8,7.12-1.67,10.69-2.45,2.54-.55,5.11-1,7.66-1.51a39.84,39.84,0,0,1,4.33-.59,66.5,66.5,0,0,1,8.11,0c1.64.07,3.27.26,4.91.45,2.53.3,5,.73,7.52,1.19,2,.37,4.06.83,6.09,1.25,1.61.33,3.21.7,4.82,1q3.16.54,6.37.79a50.7,50.7,0,0,0,7.08,0c1.85-.11,3.71-.28,5.56-.47s3.4-.37,5.09-.62,3.42-.6,5.13-.87c2.45-.4,4.9-.8,7.36-1.16a68.06,68.06,0,0,1,9.36-.79,62.05,62.05,0,0,1,9.83.77c2.73.41,5.44.92,8.14,1.44,3.72.7,7.43,1.36,11.21,1.7,2.16.19,4.33.34,6.5.32a88.15,88.15,0,0,0,10.41-.64c1.85-.23,3.7-.48,5.54-.73,2.34-.32,4.67-.67,7-1,1.81-.23,3.61-.6,5.45-.65,1.37,0,2.73-.08,4.1-.08,1.74,0,3.48,0,5.21.2,1.11.1,2.23.2,3.34.26a104.1,104.1,0,0,1,11,1.21c3.15.5,6.29,1,9.44,1.55,3.34.54,6.68,1,10.06,1.27a40.79,40.79,0,0,0,10.29-.63c1.86-.35,3.7-.75,5.52-1.27,2.17-.62,4.4-1,6.55-1.72a7,7,0,0,1,1.36-.29c.93-.1,1.86-.16,2.79-.24.4,0,.8-.06,1.2-.11.17,0,.33-.11.69-.22-.92-.07-1.63-.15-2.34-.18q-1.39,0-2.79,0a10.43,10.43,0,0,0-1.57.15c-.76.14-1.51.34-2.27.5-.94.19-1.88.38-2.82.55l-5.39,1c-.46.08-.91.19-1.38.24a78.68,78.68,0,0,1-8,.41c-1.11,0-2.23-.08-3.34-.15-.71-.05-1.42-.18-2.13-.21-1.58-.08-3.14-.37-4.7-.59-1.28-.19-2.57-.4-3.85-.61l-4.31-.7c-1.28-.22-2.56-.46-3.85-.67-1.55-.24-3.11-.5-4.69-.64-1-.09-2-.25-3-.33s-1.85-.12-2.78-.16c-1.34-.05-2.67-.11-4-.14-1.9,0-3.79-.15-5.68-.12a58.5,58.5,0,0,0-6.88.36c-1.07.15-2.16.25-3.24.37l-3.88.41c-.28,0-.56,0-.84.08l-3,.38c-.87.1-1.74.15-2.6.29a64.81,64.81,0,0,1-6.95.65A75.51,75.51,0,0,1,176,192.4c-2.92-.36-5.83-.83-8.71-1.42-3.77-.76-7.52-1.56-11.35-2a37.41,37.41,0,0,0-4.73-.28c-1.46,0-2.92.11-4.38.23q-3.57.31-7.13.71c-1.14.12-2.27.33-3.4.51-.86.13-1.71.29-2.57.43l-4.14.63c-.89.14-1.76.34-2.65.46-1.11.14-2.22.22-3.33.32l-3.62.28c-1.92.13-3.83.35-5.76.35s-3.85-.06-5.77-.22a60.2,60.2,0,0,1-6.15-.84c-1.31-.25-2.62-.49-3.92-.75-.9-.19-1.8-.42-2.7-.6-1.52-.3-3-.57-4.57-.84-.15,0-.31,0-.46-.06-.43-.06-.86-.09-1.28-.17a20.07,20.07,0,0,0-2.67-.33,10.54,10.54,0,0,1-1.37-.21c-.73-.12-1.46-.29-2.2-.37-1.17-.12-2.34-.19-3.52-.27a3.17,3.17,0,0,0-.92,0,4.28,4.28,0,0,0-.86.34,3.85,3.85,0,0,0-1-.32c-.77,0-1.55,0-2.32,0-1.71.08-3.37.54-5.09.53l-.18,0c-1,.24-1.94.36-2.91.58-1.26.29-2.5.66-3.77.92-1.07.21-2.11.5-3.17.74-1.54.34-3.09.65-4.63,1-1,.22-2,.49-3.07.7-.49.1-1,.07-1.48.17a27.32,27.32,0,0,1-3.13.4c-.34,0-.67.12-1,.18s-.54.13-.81.18a3.06,3.06,0,0,0-.63.13,5.46,5.46,0,0,1-2.83.29,3.21,3.21,0,0,0-1.37.14,2.72,2.72,0,0,1-.82.09c-1.27.06-2.54,0-3.81,0-.74,0-1.49,0-2.22-.07-1.3-.11-2.59-.27-3.88-.41-.34,0-.67-.1-1-.13-.62,0-1.23-.13-1.85-.13a11.59,11.59,0,0,1-2-.3c-.67-.12-1.33-.27-2-.4-1-.2-2-.38-3-.57a12,12,0,0,0-1.8-.25.84.84,0,0,0,0,.23c.08.19,0,.29-.2.31-.35,0-.51-.05-.6-.39a.43.43,0,0,0-.27-.31,9,9,0,0,0-.88-.28l-2.07-.45c-.21,0-.43-.06-.64-.09-.5-.05-1-.08-1.48-.14-1.27-.13-2.53-.29-3.8-.41a9.54,9.54,0,0,0-1.85,0,17.56,17.56,0,0,1-2,.07,11.33,11.33,0,0,0-3.13.38c-.83.26-1.68.41-2.51.66-.62.19-1.24.38-1.85.61a15.12,15.12,0,0,0-1.41.67c-.17.1-.35.26-.17.54l2-.27a.55.55,0,0,0,.18-.06,6.21,6.21,0,0,1,1.75-.58,20.87,20.87,0,0,1,4.07-.92,9.43,9.43,0,0,1,1.3-.06,47.64,47.64,0,0,1,5.18.55c1.38.16,2.75.43,4.11.69,2.46.47,4.91,1,7.37,1.46.88.17,1.77.31,2.65.45.17,0,.45,0,.51-.08.28-.42.65-.28,1-.22a.26.26,0,0,1,.2.41s0,.1.07.18A20.22,20.22,0,0,0,28,195c-.64-.14-1.31-.16-2.08-.39.22-.12.31-.21.4-.22a3,3,0,0,1,.74,0c1,.28,2.09.29,3.12.47a2.45,2.45,0,0,1,.37.08,3.47,3.47,0,0,1,.42.23l-.78.14C30.69,195.42,31.05,195.51,31.42,195.55Zm-9.35-1.76a3.38,3.38,0,0,1,1.94.26A2,2,0,0,1,22.07,193.79Zm2.3-.31c-.08,0-.12-.17-.17-.25s.17-.11.23-.1.17.12.36.25C24.57,193.44,24.44,193.51,24.37,193.48Z" fill="currentColor"/><path d="M-35.11,139.18c1.39.15,2.78.3,4.17.43a34.08,34.08,0,0,0,8.26-.3c1.9-.29,3.78-.69,5.66-1.11,3.56-.79,7.11-1.67,10.69-2.44,2.54-.56,5.11-1,7.66-1.51a37.25,37.25,0,0,1,4.33-.6,68.4,68.4,0,0,1,8.1,0c1.64.07,3.28.26,4.91.45,2.53.3,5,.73,7.53,1.19,2,.37,4.06.83,6.09,1.25,1.6.33,3.2.7,4.82,1q3.16.54,6.37.79a50.55,50.55,0,0,0,7.07,0c1.86-.11,3.72-.28,5.57-.47s3.39-.37,5.08-.62,3.42-.59,5.14-.87c2.45-.4,4.9-.8,7.35-1.16a69.8,69.8,0,0,1,9.37-.79,63.22,63.22,0,0,1,9.82.77c2.73.41,5.44.92,8.15,1.44,3.71.7,7.43,1.36,11.2,1.7a64.34,64.34,0,0,0,6.51.32,86.32,86.32,0,0,0,10.41-.64c1.84-.23,3.69-.48,5.53-.73,2.34-.32,4.67-.67,7-1a52.82,52.82,0,0,1,5.46-.66c1.36,0,2.73-.07,4.09-.08,1.74,0,3.48,0,5.21.2,1.12.1,2.23.2,3.35.26a103.91,103.91,0,0,1,11,1.21c3.15.5,6.3,1.05,9.45,1.56,3.33.54,6.67,1,10.05,1.26a40.76,40.76,0,0,0,10.29-.63c1.86-.34,3.7-.75,5.52-1.27,2.17-.62,4.41-1,6.56-1.72a6.85,6.85,0,0,1,1.36-.29c.92-.1,1.85-.16,2.78-.23.4,0,.81-.07,1.21-.12a5.39,5.39,0,0,0,.68-.22c-.91-.07-1.62-.15-2.33-.17-.93,0-1.86-.05-2.79,0a10.18,10.18,0,0,0-1.57.15c-.77.14-1.52.34-2.27.5-.94.19-1.88.38-2.83.55l-5.39,1c-.45.09-.91.19-1.37.24a78.83,78.83,0,0,1-8,.41c-1.12,0-2.23-.08-3.35-.15-.71,0-1.41-.18-2.12-.21-1.59-.08-3.14-.36-4.7-.59-1.29-.19-2.57-.4-3.86-.61l-4.31-.7c-1.28-.22-2.56-.46-3.84-.66-1.56-.25-3.12-.51-4.69-.65-1-.09-2-.25-3-.33s-1.86-.12-2.79-.15c-1.33-.06-2.66-.11-4-.15-1.89,0-3.78-.15-5.68-.11a54.43,54.43,0,0,0-6.87.36c-1.08.15-2.16.24-3.24.36l-3.89.41-.83.08-3,.38c-.86.1-1.74.15-2.59.29a64.81,64.81,0,0,1-7,.65,74.45,74.45,0,0,1-12.93-.37c-2.93-.35-5.83-.83-8.72-1.42-3.76-.76-7.51-1.56-11.35-2a35.65,35.65,0,0,0-4.73-.29c-1.46,0-2.92.11-4.37.24-2.38.2-4.76.44-7.14.7-1.14.12-2.27.33-3.4.51-.86.13-1.71.3-2.57.43-1.38.21-2.76.41-4.13.63-.89.14-1.77.35-2.66.46-1.1.14-2.22.22-3.33.32s-2.41.2-3.62.28c-1.92.14-3.83.35-5.76.35s-3.84-.05-5.76-.22a60.78,60.78,0,0,1-6.16-.84c-1.31-.25-2.61-.49-3.91-.75-.91-.18-1.8-.42-2.71-.6-1.52-.3-3-.56-4.56-.84l-.47-.06c-.42-.05-.86-.09-1.28-.17a19.67,19.67,0,0,0-2.67-.33,10.81,10.81,0,0,1-1.37-.21c-.73-.12-1.46-.29-2.19-.37-1.17-.12-2.35-.19-3.52-.27a3.63,3.63,0,0,0-.93,0,4.18,4.18,0,0,0-.85.34,4.59,4.59,0,0,0-1-.32c-.77,0-1.55,0-2.32,0-1.71.08-3.37.55-5.09.54a.41.41,0,0,0-.19,0c-1,.23-1.94.35-2.9.57-1.27.3-2.51.66-3.78.92-1.06.21-2.1.5-3.16.74-1.54.34-3.09.65-4.63,1-1,.23-2,.49-3.08.7-.48.1-1,.08-1.47.17a27.61,27.61,0,0,1-3.13.4c-.34,0-.67.12-1,.18l-.8.19a2.68,2.68,0,0,0-.64.12,5.43,5.43,0,0,1-2.82.3,3,3,0,0,0-1.37.13,2.52,2.52,0,0,1-.83.09c-1.26.07-2.53,0-3.8,0-.74,0-1.49,0-2.23-.07-1.29-.11-2.58-.27-3.88-.41-.33,0-.67-.1-1-.13-.61,0-1.22-.13-1.85-.13a11.62,11.62,0,0,1-2-.3c-.67-.12-1.33-.27-2-.4-1-.19-2-.37-3-.57a12.18,12.18,0,0,0-1.8-.25c0,.12,0,.18,0,.23s0,.29-.2.31c-.35,0-.5-.05-.6-.38a.43.43,0,0,0-.27-.32,8,8,0,0,0-.87-.28c-.69-.16-1.39-.3-2.08-.44a4.69,4.69,0,0,0-.64-.09l-1.48-.14c-1.26-.14-2.53-.3-3.79-.41a8.9,8.9,0,0,0-1.86,0,19.77,19.77,0,0,1-2,.08,11,11,0,0,0-3.13.37c-.83.26-1.69.41-2.51.66-.62.19-1.25.38-1.85.61a14,14,0,0,0-1.41.67c-.18.1-.35.26-.18.54l2-.27a.49.49,0,0,0,.17-.06,6.43,6.43,0,0,1,1.75-.58,21,21,0,0,1,4.07-.92,11.31,11.31,0,0,1,1.3-.06,49.69,49.69,0,0,1,5.18.55c1.38.16,2.75.43,4.12.69,2.46.47,4.91,1,7.36,1.46.88.17,1.77.31,2.66.45.17,0,.45,0,.51-.08.27-.42.64-.28,1-.21a.26.26,0,0,1,.21.4s0,.1.07.18a20,20,0,0,0,2.48.25c-.65-.14-1.31-.16-2.09-.39.22-.12.31-.21.41-.22a3,3,0,0,1,.74.05,29.72,29.72,0,0,0,3.12.47c.12,0,.24,0,.36.08a3.34,3.34,0,0,1,.43.23l-.79.15C-35.84,139.06-35.47,139.14-35.11,139.18Zm-9.34-1.76a3.26,3.26,0,0,1,1.93.27A2,2,0,0,1-44.45,137.42Zm2.29-.31c-.08,0-.11-.16-.16-.25s.16-.11.22-.1a1.68,1.68,0,0,1,.36.25C-42,137.07-42.08,137.14-42.16,137.11Z" fill="currentColor"/><path d="M101.37,83.81c1.39.15,2.77.31,4.16.43a33.67,33.67,0,0,0,8.27-.3c1.9-.29,3.78-.69,5.65-1.11,3.57-.79,7.12-1.66,10.69-2.44,2.54-.56,5.11-1,7.67-1.51a37,37,0,0,1,4.33-.6,66.33,66.33,0,0,1,8.1,0c1.64.06,3.27.25,4.91.44,2.53.3,5,.73,7.53,1.19,2,.37,4.06.83,6.08,1.25,1.61.33,3.21.7,4.83,1,2.1.36,4.23.62,6.36.78A52.28,52.28,0,0,0,187,83c1.86-.12,3.71-.29,5.57-.47,1.69-.18,3.39-.38,5.08-.63s3.42-.59,5.13-.87c2.45-.4,4.9-.8,7.36-1.16a68.18,68.18,0,0,1,9.36-.78,62,62,0,0,1,9.83.76c2.73.41,5.44.92,8.15,1.44a110.83,110.83,0,0,0,11.2,1.7,64.15,64.15,0,0,0,6.5.32,88.44,88.44,0,0,0,10.42-.63l5.53-.74c2.34-.32,4.67-.66,7-1,1.81-.24,3.61-.6,5.45-.66,1.37,0,2.74-.07,4.1-.08,1.74,0,3.48,0,5.21.2,1.11.1,2.23.21,3.34.26a106.79,106.79,0,0,1,11,1.21c3.15.5,6.29,1,9.44,1.56,3.34.54,6.68,1,10.06,1.26a41.25,41.25,0,0,0,10.29-.62c1.86-.35,3.7-.76,5.52-1.28,2.17-.62,4.41-1,6.55-1.72a7.09,7.09,0,0,1,1.37-.28c.92-.11,1.85-.16,2.78-.24l1.2-.12a4.13,4.13,0,0,0,.69-.22c-.92-.07-1.63-.15-2.34-.17q-1.39-.06-2.79,0a9.26,9.26,0,0,0-1.57.14c-.76.14-1.51.34-2.27.5-.94.19-1.88.38-2.82.55l-5.39,1c-.46.08-.91.18-1.37.23a79,79,0,0,1-8,.41c-1.11,0-2.23-.07-3.34-.15-.71,0-1.41-.18-2.12-.21a46.61,46.61,0,0,1-4.71-.59l-3.85-.6-4.31-.71c-1.28-.21-2.56-.46-3.84-.66-1.56-.25-3.12-.51-4.7-.65-1-.09-2-.24-2.95-.33S297,78.8,296,78.76c-1.33-.06-2.67-.11-4-.15-1.89,0-3.79-.15-5.68-.11a56.63,56.63,0,0,0-6.88.36c-1.07.15-2.15.24-3.23.36l-3.89.41-.84.08-3,.38c-.87.11-1.74.15-2.59.3a65.22,65.22,0,0,1-7,.64A74.51,74.51,0,0,1,246,80.66c-2.92-.35-5.83-.83-8.71-1.41-3.76-.77-7.52-1.57-11.35-2A35.65,35.65,0,0,0,221.2,77c-1.46,0-2.92.11-4.37.24-2.39.2-4.76.44-7.14.7-1.14.13-2.27.33-3.4.51-.86.13-1.71.3-2.57.43-1.38.22-2.76.41-4.14.63-.89.14-1.76.35-2.65.46-1.11.14-2.22.23-3.33.32s-2.41.2-3.62.28c-1.92.14-3.83.35-5.76.36s-3.85-.06-5.77-.22-4.12-.47-6.15-.85c-1.31-.25-2.62-.49-3.92-.75-.9-.18-1.8-.42-2.7-.6-1.52-.29-3.05-.56-4.57-.84-.15,0-.31,0-.46-.06-.43,0-.86-.09-1.28-.17a18.36,18.36,0,0,0-2.67-.32,10.84,10.84,0,0,1-1.37-.22c-.73-.12-1.46-.29-2.2-.37-1.17-.12-2.34-.19-3.52-.27a3.56,3.56,0,0,0-.92,0,4.53,4.53,0,0,0-.86.34,4.36,4.36,0,0,0-1-.32,22.64,22.64,0,0,0-2.33,0c-1.7.07-3.37.54-5.08.53a.58.58,0,0,0-.19,0c-1,.23-1.94.35-2.91.58-1.26.29-2.5.66-3.77.91-1.06.21-2.11.51-3.16.74l-4.64,1c-1,.23-2,.49-3.07.7-.48.1-1,.08-1.48.17a27.32,27.32,0,0,1-3.13.4,8.8,8.8,0,0,0-1,.19c-.27,0-.54.12-.81.18a2.61,2.61,0,0,0-.63.13,5.54,5.54,0,0,1-2.82.29,3.24,3.24,0,0,0-1.38.13,2.43,2.43,0,0,1-.82.09c-1.27.07-2.54,0-3.8,0-.75,0-1.49,0-2.23-.06-1.3-.11-2.59-.27-3.88-.42-.34,0-.67-.09-1-.12-.62-.06-1.23-.13-1.85-.14a11.73,11.73,0,0,1-2-.3c-.66-.12-1.33-.27-2-.4-1-.19-2-.37-3-.57A10.94,10.94,0,0,0,88,80c0,.11,0,.18,0,.22.08.2,0,.3-.2.31-.35,0-.5,0-.6-.38a.44.44,0,0,0-.27-.32,8.94,8.94,0,0,0-.88-.27q-1-.24-2.07-.45a4.69,4.69,0,0,0-.64-.09l-1.48-.14c-1.27-.14-2.53-.3-3.8-.41a8.8,8.8,0,0,0-1.85,0,20.07,20.07,0,0,1-2,.08,11,11,0,0,0-3.13.37c-.83.26-1.68.42-2.51.67-.62.18-1.24.37-1.84.6a12.33,12.33,0,0,0-1.42.68c-.17.09-.35.25-.17.53l2-.27a.3.3,0,0,0,.18-.06,6.67,6.67,0,0,1,1.75-.58,21,21,0,0,1,4.07-.92,11.31,11.31,0,0,1,1.3-.06,50.27,50.27,0,0,1,5.18.55c1.38.17,2.75.43,4.12.69,2.45.47,4.9,1,7.36,1.46.88.17,1.77.31,2.66.45.16,0,.44,0,.51-.08.27-.42.64-.28,1-.21a.26.26,0,0,1,.21.4s0,.1.06.18a18.6,18.6,0,0,0,2.48.25,20,20,0,0,1-2.08-.39c.22-.12.31-.21.41-.21a2.23,2.23,0,0,1,.73,0c1,.28,2.09.29,3.12.47a2.2,2.2,0,0,1,.37.07,4.36,4.36,0,0,1,.42.23l-.78.15C100.64,83.69,101,83.77,101.37,83.81ZM92,82.05a3.28,3.28,0,0,1,1.93.27A2,2,0,0,1,92,82.05Zm2.29-.31c-.08,0-.11-.16-.17-.25s.17-.11.23-.09.18.11.36.24C94.52,81.7,94.39,81.78,94.32,81.74Z" fill="currentColor"/><path d="M29.87,25.44c1.39.15,2.77.31,4.16.43a34.16,34.16,0,0,0,8.27-.29c1.9-.3,3.78-.7,5.65-1.12,3.57-.79,7.12-1.66,10.69-2.44,2.54-.55,5.11-1,7.67-1.51a36.94,36.94,0,0,1,4.33-.59,64.38,64.38,0,0,1,8.1,0c1.64.06,3.27.25,4.91.44,2.53.3,5,.74,7.53,1.19,2,.37,4.06.83,6.08,1.25,1.61.33,3.21.7,4.83,1,2.1.36,4.23.62,6.36.78a50.7,50.7,0,0,0,7.08.05c1.86-.12,3.71-.28,5.57-.47,1.69-.18,3.39-.38,5.08-.63s3.42-.59,5.13-.87c2.45-.4,4.9-.8,7.36-1.16a69.78,69.78,0,0,1,9.36-.78,62,62,0,0,1,9.83.76c2.73.42,5.44.92,8.15,1.44,3.71.71,7.42,1.37,11.2,1.71,2.16.19,4.33.33,6.5.31a88.44,88.44,0,0,0,10.42-.63c1.84-.24,3.69-.48,5.53-.74,2.34-.32,4.67-.66,7-1a52.28,52.28,0,0,1,5.45-.65c1.37,0,2.74-.08,4.1-.09,1.74,0,3.48.05,5.21.2,1.11.11,2.23.21,3.34.27a104.1,104.1,0,0,1,11,1.21c3.15.49,6.29,1,9.44,1.55,3.34.54,6.68,1,10.06,1.26a41.25,41.25,0,0,0,10.29-.62c1.86-.35,3.7-.76,5.52-1.28,2.17-.62,4.41-1,6.55-1.72a7.09,7.09,0,0,1,1.37-.28c.92-.11,1.85-.16,2.78-.24.4,0,.8-.06,1.2-.12a4.13,4.13,0,0,0,.69-.22c-.92-.07-1.63-.14-2.34-.17-.93,0-1.86-.05-2.79,0a10.41,10.41,0,0,0-1.57.14c-.76.14-1.51.34-2.27.5-.94.2-1.88.38-2.82.56l-5.39,1c-.46.08-.91.18-1.37.23a76.21,76.21,0,0,1-8,.41c-1.11,0-2.23-.07-3.34-.14-.71-.05-1.41-.19-2.12-.22a46.61,46.61,0,0,1-4.71-.59l-3.85-.6-4.31-.71L235,21.52c-1.56-.25-3.12-.51-4.7-.65-1-.09-2-.24-3-.33s-1.86-.11-2.79-.15c-1.33-.06-2.67-.11-4-.15-1.89,0-3.79-.14-5.68-.11a56.63,56.63,0,0,0-6.88.36c-1.07.15-2.15.25-3.23.36l-3.89.41-.84.08-3,.38c-.87.11-1.74.16-2.59.3a62.72,62.72,0,0,1-7,.64,74.36,74.36,0,0,1-12.92-.37c-2.93-.35-5.84-.83-8.72-1.41-3.76-.77-7.52-1.57-11.35-2a35.65,35.65,0,0,0-4.73-.29c-1.46,0-2.92.11-4.37.24-2.39.2-4.76.44-7.14.7-1.14.13-2.27.33-3.4.51-.86.14-1.71.3-2.57.43l-4.14.63c-.89.14-1.76.35-2.65.46-1.11.14-2.22.23-3.33.32s-2.41.2-3.62.28c-1.92.14-3.83.35-5.76.36s-3.85-.06-5.77-.22c-2.07-.18-4.12-.47-6.15-.85-1.31-.24-2.62-.49-3.92-.75-.9-.18-1.8-.42-2.7-.6-1.52-.29-3.05-.56-4.57-.84l-.46-.06c-.43-.05-.86-.09-1.28-.17a19.86,19.86,0,0,0-2.67-.32,13,13,0,0,1-1.37-.21c-.73-.13-1.46-.3-2.2-.38-1.17-.12-2.34-.18-3.52-.27a3.56,3.56,0,0,0-.92,0,4.53,4.53,0,0,0-.86.35,4,4,0,0,0-1-.33c-.78,0-1.55,0-2.33,0-1.7.07-3.37.54-5.08.53a.58.58,0,0,0-.19,0c-1,.24-1.94.36-2.91.58-1.26.29-2.5.66-3.77.91-1.06.21-2.11.51-3.16.74l-4.64,1c-1,.23-2,.49-3.07.7-.48.1-1,.08-1.48.18a29.75,29.75,0,0,1-3.13.4,8.75,8.75,0,0,0-1,.18l-.81.18a2.61,2.61,0,0,0-.63.13,5.44,5.44,0,0,1-2.82.29,3.09,3.09,0,0,0-1.38.14,2.72,2.72,0,0,1-.82.08c-1.27.07-2.54,0-3.8,0-.75,0-1.49,0-2.23-.06-1.3-.11-2.59-.27-3.88-.41-.34,0-.67-.1-1-.13-.62-.06-1.23-.13-1.85-.13a12.82,12.82,0,0,1-2-.31c-.66-.12-1.33-.27-2-.4-1-.19-2-.37-3-.57a12.12,12.12,0,0,0-1.81-.24.85.85,0,0,0,0,.23c.08.19,0,.29-.2.3-.35,0-.5-.05-.6-.38a.41.41,0,0,0-.27-.31,6.92,6.92,0,0,0-.88-.28q-1-.24-2.07-.45c-.21,0-.43-.07-.64-.09l-1.48-.14c-1.27-.14-2.53-.3-3.8-.41a8.8,8.8,0,0,0-1.85,0,20,20,0,0,1-2.05.08,11,11,0,0,0-3.13.37c-.82.26-1.68.42-2.51.67-.62.19-1.24.37-1.84.6a12.33,12.33,0,0,0-1.42.68c-.17.09-.35.26-.17.53l2-.26a.41.41,0,0,0,.17-.07,7.06,7.06,0,0,1,1.75-.58,21.8,21.8,0,0,1,4.07-.92,11.31,11.31,0,0,1,1.3-.06,50,50,0,0,1,5.18.55c1.38.17,2.75.43,4.12.69l7.36,1.46c.88.17,1.77.32,2.66.45.16,0,.44,0,.51-.08.27-.41.64-.28,1-.21a.27.27,0,0,1,.21.41s0,.09.06.17a18.61,18.61,0,0,0,2.48.26c-.64-.14-1.31-.17-2.08-.39.22-.13.31-.22.41-.22a2.23,2.23,0,0,1,.73.05c1,.28,2.09.29,3.12.47a2.2,2.2,0,0,1,.37.07,4.36,4.36,0,0,1,.42.23l-.78.15C29.14,25.32,29.5,25.4,29.87,25.44Zm-9.34-1.76a3.28,3.28,0,0,1,1.93.27A1.94,1.94,0,0,1,20.53,23.68Zm2.29-.3c-.08,0-.11-.17-.17-.26s.17-.11.23-.09a1.54,1.54,0,0,1,.36.24C23,23.33,22.89,23.41,22.82,23.38Z" fill="currentColor"/><path d="M-110.33,254.91c1.39.16,2.78.31,4.17.44a34.1,34.1,0,0,0,8.26-.3c1.9-.29,3.78-.7,5.65-1.11,3.57-.8,7.12-1.67,10.69-2.45,2.55-.55,5.12-1,7.67-1.51a39.51,39.51,0,0,1,4.33-.59,66.34,66.34,0,0,1,8.1,0c1.64.06,3.28.26,4.91.45,2.53.29,5,.73,7.53,1.18,2,.38,4.06.84,6.09,1.26,1.6.33,3.2.7,4.82,1,2.1.36,4.23.62,6.37.79a50.55,50.55,0,0,0,7.07,0q2.79-.18,5.57-.47c1.7-.17,3.39-.38,5.08-.63s3.42-.59,5.14-.87c2.44-.39,4.89-.79,7.35-1.15a68.2,68.2,0,0,1,9.37-.79,60.86,60.86,0,0,1,9.82.77c2.73.41,5.44.92,8.15,1.43,3.71.71,7.42,1.37,11.2,1.71,2.17.19,4.33.34,6.51.32a90.62,90.62,0,0,0,10.41-.64l5.53-.73c2.34-.32,4.67-.67,7-1a52.79,52.79,0,0,1,5.46-.65c1.36,0,2.73-.08,4.09-.09,1.74,0,3.48.05,5.21.21,1.12.1,2.23.2,3.35.26a104.2,104.2,0,0,1,11,1.21c3.15.5,6.3,1,9.45,1.55,3.33.54,6.67,1,10,1.26a40.3,40.3,0,0,0,10.29-.62c1.86-.35,3.7-.76,5.52-1.28,2.17-.61,4.41-1,6.56-1.71a6.21,6.21,0,0,1,1.36-.29c.92-.1,1.85-.16,2.78-.24.4,0,.81-.06,1.21-.11a6,6,0,0,0,.68-.23c-.91-.06-1.62-.14-2.33-.17q-1.4,0-2.79,0a9.29,9.29,0,0,0-1.58.15c-.76.13-1.51.34-2.26.49-.94.2-1.89.39-2.83.56l-5.39,1c-.46.08-.91.19-1.37.24a78.88,78.88,0,0,1-8,.41c-1.11,0-2.22-.08-3.34-.15-.71-.05-1.41-.18-2.12-.22-1.59-.07-3.14-.36-4.7-.58-1.29-.19-2.57-.4-3.86-.61l-4.31-.7c-1.28-.22-2.56-.46-3.84-.67-1.56-.25-3.12-.5-4.69-.65-1-.08-2-.24-3-.32s-1.86-.12-2.79-.16c-1.33-.05-2.67-.11-4-.14-1.89-.06-3.79-.15-5.68-.12a56.63,56.63,0,0,0-6.88.36c-1.07.15-2.15.25-3.23.36l-3.89.42c-.28,0-.56,0-.83.08l-3,.38c-.86.1-1.74.15-2.59.29a62.32,62.32,0,0,1-7,.64,75.45,75.45,0,0,1-12.93-.36c-2.93-.36-5.83-.83-8.72-1.42-3.76-.76-7.52-1.57-11.35-2a37.42,37.42,0,0,0-4.73-.29c-1.46,0-2.92.12-4.37.24q-3.57.31-7.14.7c-1.14.13-2.27.33-3.4.51L-8,250l-4.14.62c-.88.15-1.76.35-2.65.47-1.11.14-2.22.22-3.33.32l-3.62.28c-1.92.13-3.83.35-5.76.35s-3.84-.06-5.76-.22A60.8,60.8,0,0,1-39.4,251c-1.31-.24-2.61-.48-3.91-.75-.91-.18-1.8-.42-2.71-.59-1.52-.3-3-.57-4.57-.84-.15,0-.3,0-.46-.06-.43-.06-.86-.1-1.28-.17a18.38,18.38,0,0,0-2.67-.33,10.81,10.81,0,0,1-1.37-.21c-.73-.13-1.46-.29-2.19-.37-1.17-.13-2.35-.19-3.53-.28a4.06,4.06,0,0,0-.92,0,4.84,4.84,0,0,0-.85.35,3.72,3.72,0,0,0-1-.32c-.77,0-1.55,0-2.33,0-1.7.07-3.37.54-5.08.53l-.19,0c-1,.24-1.94.36-2.9.58-1.27.29-2.51.66-3.78.91-1.06.22-2.11.51-3.16.74-1.54.35-3.09.66-4.63,1-1,.22-2,.49-3.08.7-.48.1-1,.07-1.48.17a27.15,27.15,0,0,1-3.12.4,8.92,8.92,0,0,0-1,.18l-.8.18a3.15,3.15,0,0,0-.64.13,5.44,5.44,0,0,1-2.82.29,3.18,3.18,0,0,0-1.37.14,3.2,3.2,0,0,1-.83.09c-1.27.06-2.53,0-3.8,0-.74,0-1.49,0-2.23-.07-1.3-.11-2.59-.27-3.88-.41-.34,0-.67-.1-1-.13-.61-.05-1.22-.13-1.85-.13a11.62,11.62,0,0,1-2-.3c-.67-.13-1.33-.28-2-.4l-3-.57a12.18,12.18,0,0,0-1.8-.25c0,.12,0,.18,0,.23s0,.29-.2.3c-.35,0-.5,0-.6-.38a.41.41,0,0,0-.27-.31,6.78,6.78,0,0,0-.87-.28c-.69-.16-1.39-.3-2.08-.45-.21,0-.43-.07-.64-.09-.49-.05-1-.08-1.48-.14-1.27-.13-2.53-.29-3.79-.41a8.9,8.9,0,0,0-1.86,0,20,20,0,0,1-2,.07,10.89,10.89,0,0,0-3.12.38c-.83.25-1.69.41-2.51.66-.62.19-1.25.37-1.85.61a10.12,10.12,0,0,0-1.41.67c-.18.1-.35.26-.18.53l2-.26a.49.49,0,0,0,.17-.06,6.69,6.69,0,0,1,1.75-.59,21,21,0,0,1,4.07-.91,11.33,11.33,0,0,1,1.3-.07c1.75,0,3.46.35,5.18.55,1.38.17,2.75.44,4.12.7,2.46.47,4.91,1,7.36,1.45.88.18,1.77.32,2.66.45.17,0,.45,0,.51-.07.27-.42.64-.28,1-.22a.27.27,0,0,1,.21.41s0,.1.06.18a20.39,20.39,0,0,0,2.49.25c-.65-.14-1.31-.17-2.09-.39.22-.12.31-.22.41-.22a2.64,2.64,0,0,1,.74,0c1,.28,2.08.29,3.12.47a2.33,2.33,0,0,1,.36.08,2.87,2.87,0,0,1,.43.22l-.79.15C-111.06,254.79-110.7,254.87-110.33,254.91Zm-9.34-1.76a3.44,3.44,0,0,1,1.93.27A1.94,1.94,0,0,1-119.67,253.15Zm2.29-.3c-.08,0-.11-.17-.17-.26s.17-.11.23-.09a2,2,0,0,1,.36.24C-117.18,252.8-117.3,252.88-117.38,252.85Z" fill="currentColor"/><path d="M-252,195.55c1.39.15,2.78.3,4.17.43a34.08,34.08,0,0,0,8.26-.3c1.9-.29,3.78-.69,5.66-1.11,3.56-.8,7.11-1.67,10.69-2.45,2.54-.55,5.11-1,7.66-1.51a39.51,39.51,0,0,1,4.33-.59,66.34,66.34,0,0,1,8.1,0c1.64.07,3.28.26,4.91.45,2.53.3,5,.73,7.53,1.19,2,.37,4.06.83,6.09,1.25,1.6.33,3.2.7,4.82,1q3.17.54,6.37.79a50.55,50.55,0,0,0,7.07,0c1.86-.11,3.72-.28,5.57-.47,1.7-.17,3.4-.37,5.08-.62s3.42-.6,5.14-.87c2.45-.4,4.9-.8,7.35-1.16a68.2,68.2,0,0,1,9.37-.79,62,62,0,0,1,9.82.77c2.73.41,5.44.92,8.15,1.44,3.71.7,7.43,1.36,11.2,1.7,2.17.19,4.33.34,6.51.32a88.42,88.42,0,0,0,10.41-.64c1.85-.23,3.69-.48,5.54-.73,2.33-.32,4.67-.67,7-1,1.82-.23,3.62-.6,5.46-.65,1.36,0,2.73-.08,4.1-.08,1.73,0,3.47,0,5.21.2,1.11.1,2.22.2,3.34.26a103.91,103.91,0,0,1,11,1.21c3.15.5,6.3,1,9.45,1.55,3.33.54,6.67,1,10,1.27a40.76,40.76,0,0,0,10.29-.63c1.86-.35,3.71-.75,5.52-1.27,2.17-.62,4.41-1,6.56-1.72a7,7,0,0,1,1.36-.29c.92-.1,1.85-.16,2.78-.24.41,0,.81-.06,1.21-.11.17,0,.33-.11.68-.22-.91-.07-1.62-.15-2.33-.18q-1.39,0-2.79,0a10.18,10.18,0,0,0-1.57.15c-.77.14-1.51.34-2.27.5-.94.19-1.88.38-2.83.55l-5.39,1c-.45.08-.91.19-1.37.24a78.83,78.83,0,0,1-8,.41c-1.12,0-2.23-.08-3.35-.15-.71-.05-1.41-.18-2.12-.21-1.59-.08-3.14-.37-4.7-.59-1.29-.19-2.57-.4-3.86-.61l-4.31-.7c-1.28-.22-2.56-.46-3.84-.67-1.56-.24-3.12-.5-4.69-.64-1-.09-2-.25-3-.33s-1.86-.12-2.79-.16c-1.33-.05-2.66-.11-4-.14-1.89,0-3.78-.15-5.68-.12a58.45,58.45,0,0,0-6.87.36c-1.08.15-2.16.25-3.24.37l-3.89.41c-.28,0-.56,0-.83.08l-3,.38c-.86.1-1.73.15-2.59.29a64.81,64.81,0,0,1-6.95.65,75.45,75.45,0,0,1-12.93-.37c-2.93-.36-5.83-.83-8.72-1.42-3.76-.76-7.51-1.56-11.35-2a37.3,37.3,0,0,0-4.73-.28c-1.46,0-2.92.11-4.37.23q-3.57.31-7.14.71c-1.14.12-2.27.33-3.4.51-.86.13-1.71.29-2.57.43-1.37.21-2.76.41-4.13.63-.89.14-1.77.34-2.66.46-1.1.14-2.22.22-3.33.32l-3.62.28c-1.92.13-3.83.35-5.76.35s-3.84-.06-5.76-.22a60.78,60.78,0,0,1-6.16-.84c-1.3-.25-2.61-.49-3.91-.75-.91-.19-1.8-.42-2.71-.6-1.52-.3-3-.57-4.56-.84l-.47-.06c-.42-.06-.86-.09-1.28-.17a19.73,19.73,0,0,0-2.66-.33,11,11,0,0,1-1.38-.21c-.73-.12-1.45-.29-2.19-.37-1.17-.12-2.35-.19-3.52-.27a3.23,3.23,0,0,0-.93,0,4.18,4.18,0,0,0-.85.34,4.11,4.11,0,0,0-1-.32c-.77,0-1.55,0-2.32,0-1.71.08-3.37.54-5.09.53l-.19,0c-.95.24-1.94.36-2.9.58-1.26.29-2.51.66-3.78.92-1.06.21-2.1.5-3.16.74-1.54.34-3.09.65-4.63,1-1,.22-2,.49-3.08.7-.48.1-1,.07-1.47.17a27.61,27.61,0,0,1-3.13.4c-.34,0-.67.12-1,.18s-.53.13-.8.18a3.3,3.3,0,0,0-.64.13,5.43,5.43,0,0,1-2.82.29A3.18,3.18,0,0,0-243,194a2.79,2.79,0,0,1-.82.09c-1.27.06-2.54,0-3.81,0-.74,0-1.49,0-2.23-.07-1.29-.11-2.58-.27-3.88-.41-.33,0-.67-.1-1-.13-.61,0-1.22-.13-1.85-.13a11.62,11.62,0,0,1-2-.3c-.67-.12-1.33-.27-2-.4-1-.2-2-.38-3-.57a12.18,12.18,0,0,0-1.8-.25c0,.12,0,.18,0,.23s0,.29-.2.31c-.35,0-.5-.05-.6-.39a.41.41,0,0,0-.27-.31,8,8,0,0,0-.87-.28c-.69-.16-1.38-.3-2.08-.45-.21,0-.42-.06-.64-.09-.49-.05-1-.08-1.48-.14-1.26-.13-2.53-.29-3.79-.41a9.64,9.64,0,0,0-1.86,0,17.31,17.31,0,0,1-2,.07,11.33,11.33,0,0,0-3.13.38c-.83.26-1.68.41-2.51.66-.62.19-1.25.38-1.85.61a14,14,0,0,0-1.41.67c-.18.1-.35.26-.18.54l2-.27a.49.49,0,0,0,.17-.06,6.43,6.43,0,0,1,1.75-.58,21,21,0,0,1,4.07-.92,9.5,9.5,0,0,1,1.3-.06,47.12,47.12,0,0,1,5.18.55c1.38.16,2.75.43,4.12.69,2.46.47,4.91,1,7.37,1.46.88.17,1.76.31,2.65.45.17,0,.45,0,.51-.08.27-.42.64-.28,1-.22a.27.27,0,0,1,.2.41s0,.1.07.18a20,20,0,0,0,2.48.25c-.65-.14-1.31-.16-2.09-.39.22-.12.31-.21.41-.22a3,3,0,0,1,.74,0c1,.28,2.08.29,3.12.47a2.09,2.09,0,0,1,.36.08,3.34,3.34,0,0,1,.43.23l-.79.14C-252.78,195.42-252.41,195.51-252,195.55Zm-9.34-1.76a3.34,3.34,0,0,1,1.93.26A2,2,0,0,1-261.39,193.79Zm2.29-.31c-.08,0-.11-.17-.16-.25s.16-.11.22-.1a1.68,1.68,0,0,1,.36.25C-258.9,193.44-259,193.51-259.1,193.48Z" fill="currentColor"/><path d="M-182.09,83.81c1.38.15,2.77.31,4.16.43a33.57,33.57,0,0,0,8.26-.3c1.9-.29,3.78-.69,5.66-1.11,3.57-.79,7.12-1.66,10.69-2.44,2.54-.56,5.11-1,7.66-1.51a37.25,37.25,0,0,1,4.33-.6,66.34,66.34,0,0,1,8.1,0c1.64.06,3.28.25,4.91.44,2.53.3,5,.73,7.53,1.19,2,.37,4.06.83,6.09,1.25,1.61.33,3.2.7,4.82,1q3.16.54,6.37.78a52.13,52.13,0,0,0,7.07,0c1.86-.12,3.72-.29,5.57-.47s3.4-.38,5.08-.63,3.42-.59,5.14-.87c2.45-.4,4.9-.8,7.35-1.16a68.32,68.32,0,0,1,9.37-.78,62,62,0,0,1,9.83.76c2.72.41,5.43.92,8.14,1.44A111.27,111.27,0,0,0-34.76,83a64.34,64.34,0,0,0,6.51.32,88.28,88.28,0,0,0,10.41-.63l5.54-.74c2.33-.32,4.67-.66,7-1,1.81-.24,3.61-.6,5.45-.66,1.36,0,2.73-.07,4.1-.08,1.74,0,3.47,0,5.21.2,1.11.1,2.22.21,3.34.26a106.6,106.6,0,0,1,11,1.21c3.16.5,6.3,1,9.45,1.56,3.33.54,6.67,1,10.05,1.26a41.33,41.33,0,0,0,10.3-.62c1.85-.35,3.7-.76,5.52-1.28,2.17-.62,4.4-1,6.55-1.72A7,7,0,0,1,67,80.78c.93-.11,1.86-.16,2.78-.24.41,0,.81-.07,1.21-.12a4.1,4.1,0,0,0,.68-.22c-.91-.07-1.62-.15-2.33-.17Q68,80,66.59,80a9.08,9.08,0,0,0-1.57.14c-.76.14-1.51.34-2.27.5-.94.19-1.88.38-2.83.55l-5.39,1c-.45.08-.91.18-1.37.23a78.83,78.83,0,0,1-8,.41c-1.12,0-2.23-.07-3.34-.15-.71,0-1.42-.18-2.13-.21a46.06,46.06,0,0,1-4.7-.59c-1.29-.19-2.57-.4-3.86-.6l-4.31-.71c-1.28-.21-2.55-.46-3.84-.66-1.56-.25-3.11-.51-4.69-.65-1-.09-2-.24-3-.33s-1.86-.11-2.79-.15c-1.33-.06-2.66-.11-4-.15-1.89,0-3.78-.15-5.67-.11A56.42,56.42,0,0,0-4,78.86c-1.08.15-2.16.24-3.24.36l-3.89.41-.83.08-3.05.38c-.86.11-1.73.15-2.59.3a64.79,64.79,0,0,1-6.95.64,74.45,74.45,0,0,1-12.93-.37c-2.93-.35-5.83-.83-8.72-1.41-3.76-.77-7.51-1.57-11.34-2A35.8,35.8,0,0,0-62.27,77c-1.46,0-2.92.11-4.37.24-2.38.2-4.76.44-7.13.7-1.14.13-2.27.33-3.41.51-.85.13-1.71.3-2.56.43-1.38.22-2.76.41-4.14.63-.89.14-1.77.35-2.66.46-1.1.14-2.22.23-3.33.32s-2.41.2-3.62.28c-1.91.14-3.83.35-5.75.36s-3.85-.06-5.77-.22-4.12-.47-6.16-.85c-1.3-.25-2.61-.49-3.91-.75-.91-.18-1.8-.42-2.71-.6-1.52-.29-3-.56-4.56-.84-.15,0-.31,0-.46-.06-.43,0-.86-.09-1.29-.17a18.23,18.23,0,0,0-2.66-.32,11,11,0,0,1-1.38-.22c-.73-.12-1.45-.29-2.19-.37-1.17-.12-2.35-.19-3.52-.27a3.63,3.63,0,0,0-.93,0,4.18,4.18,0,0,0-.85.34,4.59,4.59,0,0,0-1-.32,22.44,22.44,0,0,0-2.32,0c-1.71.07-3.37.54-5.09.53a.55.55,0,0,0-.18,0c-1,.23-1.95.35-2.91.58-1.26.29-2.5.66-3.78.91-1.06.21-2.1.51-3.16.74-1.54.34-3.09.65-4.63,1-1,.23-2.05.49-3.08.7-.48.1-1,.08-1.47.17a27.61,27.61,0,0,1-3.13.4,9,9,0,0,0-1,.19l-.8.18a2.69,2.69,0,0,0-.64.13,5.52,5.52,0,0,1-2.82.29,3.18,3.18,0,0,0-1.37.13,2.49,2.49,0,0,1-.82.09c-1.27.07-2.54,0-3.81,0-.74,0-1.49,0-2.23-.06-1.29-.11-2.58-.27-3.87-.42-.34,0-.68-.09-1-.12-.61-.06-1.22-.13-1.85-.14a11.62,11.62,0,0,1-2-.3c-.67-.12-1.33-.27-2-.4-1-.19-2-.37-3-.57a10.82,10.82,0,0,0-1.8-.24c0,.11,0,.18,0,.22.07.2,0,.3-.21.31-.34,0-.5,0-.59-.38a.44.44,0,0,0-.27-.32,8.94,8.94,0,0,0-.88-.27c-.69-.16-1.38-.31-2.08-.45a4.48,4.48,0,0,0-.64-.09l-1.48-.14c-1.26-.14-2.52-.3-3.79-.41a8.9,8.9,0,0,0-1.86,0,19.77,19.77,0,0,1-2,.08,11,11,0,0,0-3.13.37c-.83.26-1.68.42-2.51.67-.62.18-1.25.37-1.85.6a12.19,12.19,0,0,0-1.41.68c-.18.09-.35.25-.18.53l2-.27a.27.27,0,0,0,.17-.06,6.79,6.79,0,0,1,1.75-.58,21,21,0,0,1,4.08-.92,11.14,11.14,0,0,1,1.29-.06,49.69,49.69,0,0,1,5.18.55c1.38.17,2.75.43,4.12.69,2.46.47,4.91,1,7.37,1.46.88.17,1.76.31,2.65.45.17,0,.45,0,.51-.08.27-.42.65-.28,1-.21a.26.26,0,0,1,.2.4s0,.1.07.18a18.27,18.27,0,0,0,2.48.25,20.7,20.7,0,0,1-2.09-.39c.22-.12.32-.21.41-.21a2.27,2.27,0,0,1,.74,0c1,.28,2.08.29,3.12.47a2.09,2.09,0,0,1,.36.07c.1,0,.19.1.43.23l-.79.15C-182.82,83.69-182.46,83.77-182.09,83.81Zm-9.35-1.76a3.3,3.3,0,0,1,1.94.27A2,2,0,0,1-191.44,82.05Zm2.29-.31c-.08,0-.11-.16-.16-.25s.16-.11.22-.09.18.11.36.24C-188.95,81.7-189.07,81.78-189.15,81.74Z" fill="currentColor"/><path d="M-253.59,25.44c1.38.15,2.77.31,4.16.43a34.06,34.06,0,0,0,8.26-.29c1.9-.3,3.78-.7,5.66-1.12,3.57-.79,7.12-1.66,10.69-2.44,2.54-.55,5.11-1,7.66-1.51a37.23,37.23,0,0,1,4.33-.59,64.39,64.39,0,0,1,8.1,0c1.64.06,3.28.25,4.91.44,2.53.3,5,.74,7.53,1.19,2,.37,4.06.83,6.09,1.25,1.61.33,3.2.7,4.82,1q3.16.54,6.37.78a50.57,50.57,0,0,0,7.07.05q2.79-.18,5.57-.47c1.7-.18,3.4-.38,5.08-.63s3.43-.59,5.14-.87c2.45-.4,4.9-.8,7.35-1.16a69.93,69.93,0,0,1,9.37-.78,62,62,0,0,1,9.83.76c2.72.42,5.43.92,8.14,1.44,3.71.71,7.43,1.37,11.2,1.71,2.17.19,4.33.33,6.51.31a88.28,88.28,0,0,0,10.41-.63c1.85-.24,3.69-.48,5.54-.74,2.33-.32,4.67-.66,7-1a52.28,52.28,0,0,1,5.45-.65c1.36,0,2.73-.08,4.1-.09,1.74,0,3.47.05,5.21.2,1.11.11,2.22.21,3.34.27a103.91,103.91,0,0,1,11,1.21c3.16.49,6.3,1,9.45,1.55,3.33.54,6.67,1,10.05,1.26a41.33,41.33,0,0,0,10.3-.62c1.85-.35,3.7-.76,5.52-1.28,2.17-.62,4.4-1,6.55-1.72a7,7,0,0,1,1.36-.28c.93-.11,1.86-.16,2.78-.24.41,0,.81-.06,1.21-.12a4.1,4.1,0,0,0,.68-.22c-.91-.07-1.62-.14-2.33-.17-.93,0-1.86-.05-2.79,0a10.18,10.18,0,0,0-1.57.14c-.76.14-1.51.34-2.27.5-.94.2-1.88.38-2.83.56l-5.38,1c-.46.08-.92.18-1.38.23a76,76,0,0,1-8,.41c-1.12,0-2.23-.07-3.34-.14-.71-.05-1.42-.19-2.13-.22a46.06,46.06,0,0,1-4.7-.59c-1.29-.19-2.57-.4-3.85-.6l-4.32-.71c-1.28-.21-2.55-.45-3.84-.66-1.56-.25-3.11-.51-4.69-.65-1-.09-2-.24-3-.33s-1.86-.11-2.79-.15c-1.33-.06-2.66-.11-4-.15-1.89,0-3.78-.14-5.67-.11a56.42,56.42,0,0,0-6.88.36c-1.08.15-2.16.25-3.24.36l-3.89.41-.83.08-3,.38c-.86.11-1.73.16-2.59.3a62.32,62.32,0,0,1-7,.64A74.45,74.45,0,0,1-109,22.29c-2.93-.35-5.83-.83-8.72-1.41-3.76-.77-7.51-1.57-11.34-2a35.8,35.8,0,0,0-4.74-.29c-1.46,0-2.92.11-4.37.24-2.38.2-4.76.44-7.13.7-1.14.13-2.27.33-3.41.51-.85.14-1.71.3-2.56.43l-4.14.63c-.89.14-1.77.35-2.66.46-1.1.14-2.22.23-3.33.32s-2.41.2-3.62.28c-1.91.14-3.83.35-5.75.36s-3.85-.06-5.77-.22c-2.07-.18-4.12-.47-6.16-.85-1.3-.24-2.61-.49-3.91-.75-.91-.18-1.8-.42-2.71-.6l-4.56-.84-.46-.06c-.43-.05-.86-.09-1.29-.17a19.71,19.71,0,0,0-2.66-.32,13.15,13.15,0,0,1-1.38-.21c-.73-.13-1.45-.3-2.19-.38-1.17-.12-2.35-.18-3.52-.27a3.63,3.63,0,0,0-.93,0,4.18,4.18,0,0,0-.85.35,4.17,4.17,0,0,0-1-.33c-.77,0-1.55,0-2.32,0-1.71.07-3.37.54-5.09.53a.55.55,0,0,0-.18,0c-1,.24-1.95.36-2.91.58-1.26.29-2.5.66-3.78.91-1.06.21-2.1.51-3.16.74-1.54.34-3.09.66-4.63,1-1,.23-2.05.49-3.08.7-.48.1-1,.08-1.47.18a30.09,30.09,0,0,1-3.13.4,8.37,8.37,0,0,0-1,.18c-.27.05-.54.12-.81.18a2.69,2.69,0,0,0-.64.13,5.41,5.41,0,0,1-2.82.29,3,3,0,0,0-1.37.14,2.79,2.79,0,0,1-.82.08c-1.27.07-2.54,0-3.81,0-.74,0-1.49,0-2.23-.06-1.29-.11-2.58-.27-3.87-.41-.34,0-.68-.1-1-.13-.61-.06-1.22-.13-1.85-.13a12.7,12.7,0,0,1-2-.31c-.67-.12-1.33-.27-2-.4-1-.19-2-.37-3-.57a12,12,0,0,0-1.8-.24.85.85,0,0,0,0,.23c.07.19,0,.29-.21.3-.34,0-.5-.05-.59-.38a.41.41,0,0,0-.27-.31,6.92,6.92,0,0,0-.88-.28c-.69-.16-1.38-.31-2.08-.45-.21,0-.42-.07-.64-.09l-1.48-.14c-1.26-.14-2.52-.3-3.79-.41a8.9,8.9,0,0,0-1.86,0,19.77,19.77,0,0,1-2,.08,11,11,0,0,0-3.13.37c-.83.26-1.68.42-2.51.67-.62.19-1.24.37-1.85.6a12.19,12.19,0,0,0-1.41.68c-.18.09-.35.26-.18.53l2-.26a.36.36,0,0,0,.17-.07,7.13,7.13,0,0,1,1.76-.58,21.45,21.45,0,0,1,4.07-.92,11.21,11.21,0,0,1,1.3-.06,49.79,49.79,0,0,1,5.17.55c1.38.17,2.76.43,4.12.69l7.37,1.46c.88.17,1.76.32,2.65.45.17,0,.45,0,.51-.08.27-.41.65-.28,1-.21s.29.19.2.41c0,0,0,.09.07.17a18.27,18.27,0,0,0,2.48.26c-.64-.14-1.31-.17-2.09-.39.22-.13.32-.22.41-.22a2.27,2.27,0,0,1,.74.05c1,.28,2.08.29,3.12.47a2.09,2.09,0,0,1,.36.07c.1,0,.19.1.43.23l-.79.15C-254.32,25.32-254,25.4-253.59,25.44Zm-9.35-1.76A3.3,3.3,0,0,1-261,24,2,2,0,0,1-262.94,23.68Zm2.29-.3c-.08,0-.11-.17-.16-.26s.16-.11.22-.09a1.54,1.54,0,0,1,.36.24C-260.45,23.33-260.57,23.41-260.65,23.38Z" fill="currentColor"/></pattern></defs><rect width="283.46" height="283.46" fill="url(#a)"/></svg>
