<svg xmlns="http://www.w3.org/2000/svg" xmlns:xlink="http://www.w3.org/1999/xlink" viewBox="0 0 283.46 283.46"><defs><pattern id="a" width="283.46" height="283.46" patternUnits="userSpaceOnUse" viewBox="0 0 283.46 283.46"><rect width="283.46" height="283.46" fill="none"/><path d="M316.07,284.14c.17-.56.08-.69-.34-.91a1.1,1.1,0,0,0-1.16,0,2.19,2.19,0,0,1-1.33.33l-5.07-.08-1.87,0c-.84,0-1.69-.07-2.53-.06-1.78,0-3.57.11-5.36.15-.81,0-1.62,0-2.43,0-1.31,0-2.61,0-3.91.15-1.08.1-2.17,0-3.25.11a25.82,25.82,0,0,1-2.78,0,5.23,5.23,0,0,0-2.18.38.53.53,0,0,0-.25.3,1.51,1.51,0,0,0-.06.52c0,.84,0,1.68,0,2.52,0,.6,0,1.19,0,1.79,0,.88.12,1.77.14,2.66,0,.62,0,1.24-.06,1.86,0,1-.07,2-.13,3-.07,1.34-.17,2.68-.24,4-.06,1.15-.05,2.31-.15,3.46-.07.81-.08,1.61-.08,2.42s0,1.34,0,2c0,.46,0,.93,0,1.39s-.06,1.08-.08,1.63c0,1.14-.06,2.28-.1,3.42,0,.42-.11.83-.13,1.25a1,1,0,0,0,.46.9,1.88,1.88,0,0,0,.88.22,1.7,1.7,0,0,0,1.09-.06.8.8,0,0,1,.27,0c.63,0,1.26.05,1.88,0,.86-.07,1.71-.18,2.58-.17a23.19,23.19,0,0,0,2.35-.16c.72-.07,1.44-.18,2.17-.24s1.51-.12,2.26-.17,1.39-.11,2.08-.14,1.15,0,1.72,0l1.86-.05c.34,0,.69,0,1-.06s.63.28,1,.09h.05c.25.2.48.06.67-.07l.56.41.2-.36,2.13.09,3,.13c1.35.06,2.71.11,4.06.2a.76.76,0,0,0,.59-.17,1.5,1.5,0,0,0,.41-1.39,2.53,2.53,0,0,1-.15-1.24,1.87,1.87,0,0,0,0-.88,3.27,3.27,0,0,1-.1-1.25,6.52,6.52,0,0,0,0-1.17c0-.56-.07-1.12-.08-1.68s0-1.29,0-1.93c0-.48,0-1,0-1.44s0-1.22,0-1.83,0-1.43.06-2.15l0-2.26c0-.26,0-.53,0-.79s-.05-.68-.06-1c0-.8-.07-1.6-.09-2.41,0-.57-.06-1.15,0-1.72.05-.93.1-1.86.07-2.8,0-.67,0-1.35,0-2s0-1.06.06-1.59A11.66,11.66,0,0,1,316.07,284.14Z" fill="currentColor"/><path d="M104.24,284.14c.17-.56.09-.69-.33-.91a1.12,1.12,0,0,0-1.17,0,2.16,2.16,0,0,1-1.32.33l-5.08-.08-1.87,0c-.84,0-1.68-.07-2.52-.06l-5.37.15c-.81,0-1.62,0-2.43,0-1.3,0-2.61,0-3.91.15-1.07.1-2.16,0-3.25.11a25.82,25.82,0,0,1-2.78,0,5.23,5.23,0,0,0-2.18.38.53.53,0,0,0-.25.3,1.8,1.8,0,0,0,0,.52q0,1.26,0,2.52c0,.6,0,1.19,0,1.79,0,.88.12,1.77.14,2.66,0,.62,0,1.24-.06,1.86,0,1-.07,2-.12,3-.08,1.34-.18,2.68-.25,4-.06,1.15,0,2.31-.14,3.46-.07.81-.08,1.61-.08,2.42s-.05,1.34-.05,2c0,.46.05.93.05,1.39s-.07,1.08-.08,1.63c0,1.14-.06,2.28-.11,3.42,0,.42-.11.83-.12,1.25a1,1,0,0,0,.45.9,1.91,1.91,0,0,0,.88.22,1.73,1.73,0,0,0,1.1-.06.8.8,0,0,1,.27,0c.62,0,1.25.05,1.88,0,.85-.07,1.7-.18,2.57-.17a23.58,23.58,0,0,0,2.36-.16c.72-.07,1.44-.18,2.16-.24s1.51-.12,2.26-.17,1.39-.11,2.09-.14,1.14,0,1.72,0l1.86-.05c.34,0,.68,0,1-.06s.64.28,1,.09h0c.25.2.48.06.67-.07l.57.41.2-.36,2.12.09,3,.13c1.35.06,2.7.11,4,.2a.76.76,0,0,0,.59-.17,1.54,1.54,0,0,0,.42-1.39,2.32,2.32,0,0,1-.15-1.24,1.87,1.87,0,0,0,0-.88A3.72,3.72,0,0,1,104,312a7.6,7.6,0,0,0,0-1.17c0-.56-.08-1.12-.09-1.68s0-1.29,0-1.93c0-.48,0-1,0-1.44s0-1.22,0-1.83,0-1.43.06-2.15,0-1.51,0-2.26c0-.26,0-.53,0-.79s0-.68-.06-1c0-.8-.07-1.6-.09-2.41,0-.57-.06-1.15,0-1.72.06-.93.1-1.86.07-2.8,0-.67,0-1.35,0-2s0-1.06.06-1.59A12.1,12.1,0,0,1,104.24,284.14Z" fill="currentColor"/><path d="M32.61,284.14c.16-.56.08-.69-.34-.91a1.1,1.1,0,0,0-1.16,0,2.2,2.2,0,0,1-1.33.33l-5.08-.08-1.87,0c-.84,0-1.68-.07-2.52-.06l-5.37.15c-.81,0-1.62,0-2.43,0-1.3,0-2.6,0-3.91.15-1.07.1-2.16,0-3.25.11a25.6,25.6,0,0,1-2.77,0,5.28,5.28,0,0,0-2.19.38.53.53,0,0,0-.25.3,1.8,1.8,0,0,0-.05.52v2.52c0,.6,0,1.19.05,1.79,0,.88.11,1.77.13,2.66,0,.62,0,1.24-.05,1.86,0,1-.08,2-.13,3-.07,1.34-.18,2.68-.25,4,0,1.15,0,2.31-.14,3.46-.07.81-.08,1.61-.08,2.42s0,1.34,0,2c0,.46,0,.93,0,1.39s-.06,1.08-.08,1.63c0,1.14-.06,2.28-.11,3.42,0,.42-.11.83-.12,1.25a1,1,0,0,0,.45.9,1.91,1.91,0,0,0,.88.22,1.73,1.73,0,0,0,1.1-.06.8.8,0,0,1,.27,0c.62,0,1.26.05,1.88,0,.86-.07,1.71-.18,2.57-.17a23.38,23.38,0,0,0,2.36-.16c.72-.07,1.44-.18,2.16-.24s1.51-.12,2.27-.17,1.38-.11,2.08-.14,1.15,0,1.72,0l1.86-.05c.34,0,.68,0,1-.06s.64.28,1,.09h0c.26.2.48.06.68-.07l.56.41.2-.36,2.12.09,3,.13c1.35.06,2.7.11,4.05.2a.78.78,0,0,0,.6-.17,1.56,1.56,0,0,0,.41-1.39,2.42,2.42,0,0,1-.15-1.24,1.87,1.87,0,0,0,0-.88,3.72,3.72,0,0,1-.1-1.25,7.6,7.6,0,0,0,0-1.17c0-.56-.08-1.12-.09-1.68s0-1.29,0-1.93c0-.48,0-1,0-1.44s0-1.22,0-1.83,0-1.43.06-2.15,0-1.51,0-2.26c0-.26,0-.53,0-.79s0-.68-.06-1l-.09-2.41c0-.57-.06-1.15,0-1.72.06-.93.1-1.86.07-2.8,0-.67,0-1.35,0-2s0-1.06.07-1.59A11.66,11.66,0,0,1,32.61,284.14Z" fill="currentColor"/><path d="M247,282.6c.16-.56.08-.69-.34-.91a1.1,1.1,0,0,0-1.16,0,2.2,2.2,0,0,1-1.33.33l-5.07-.08-1.87,0c-.85,0-1.69-.07-2.53-.06-1.79,0-3.57.11-5.36.15-.81,0-1.63,0-2.44,0-1.3,0-2.6,0-3.9.15-1.08.1-2.17,0-3.25.11a25.79,25.79,0,0,1-2.78,0,5.23,5.23,0,0,0-2.18.38.52.52,0,0,0-.26.3,1.77,1.77,0,0,0-.05.52c0,.84,0,1.68,0,2.52,0,.59,0,1.19,0,1.79,0,.88.11,1.77.13,2.66,0,.62,0,1.24-.05,1.86,0,1-.07,2-.13,3-.07,1.34-.17,2.68-.24,4-.06,1.15-.05,2.31-.15,3.46-.07.81-.08,1.61-.08,2.42s0,1.34,0,2c0,.46.06.92,0,1.39s-.06,1.08-.08,1.63c0,1.14-.06,2.28-.11,3.42,0,.42-.1.83-.12,1.25a1,1,0,0,0,.46.9,1.88,1.88,0,0,0,.88.22,1.7,1.7,0,0,0,1.09-.06.8.8,0,0,1,.27,0c.63,0,1.26.05,1.88,0,.86-.07,1.71-.18,2.58-.17a23.19,23.19,0,0,0,2.35-.16c.72-.07,1.44-.18,2.16-.24s1.51-.12,2.27-.17,1.39-.11,2.08-.14,1.15,0,1.72,0l1.86,0c.34,0,.68,0,1-.06s.64.28,1,.09h0c.26.2.48.06.68-.07l.56.41.2-.36,2.12.09,3,.13c1.35.06,2.7.11,4.05.2a.77.77,0,0,0,.6-.17,1.54,1.54,0,0,0,.41-1.4,2.48,2.48,0,0,1-.15-1.23,1.87,1.87,0,0,0,0-.88,3.74,3.74,0,0,1-.1-1.25,7.6,7.6,0,0,0,0-1.17c0-.56-.08-1.12-.09-1.68s0-1.29,0-1.93v-1.44c0-.61,0-1.22,0-1.83s0-1.43.06-2.15l0-2.26c0-.26,0-.53,0-.79s0-.68-.05-1c0-.8-.07-1.6-.1-2.41,0-.57-.06-1.15,0-1.72.05-.93.1-1.87.07-2.8,0-.67,0-1.35,0-2s.05-1.06.07-1.59A11.66,11.66,0,0,1,247,282.6Z" fill="currentColor"/><path d="M175.39,282.6c.17-.56.08-.69-.34-.91a1.1,1.1,0,0,0-1.16,0,2.19,2.19,0,0,1-1.33.33l-5.07-.08-1.87,0c-.84,0-1.68-.07-2.53-.06-1.78,0-3.57.11-5.36.15-.81,0-1.62,0-2.43,0-1.31,0-2.61,0-3.91.15-1.08.1-2.17,0-3.25.11a25.82,25.82,0,0,1-2.78,0,5.23,5.23,0,0,0-2.18.38.5.5,0,0,0-.25.3,1.49,1.49,0,0,0-.06.52c0,.84,0,1.68,0,2.52,0,.59,0,1.19,0,1.79,0,.88.12,1.77.14,2.66,0,.62,0,1.24-.06,1.86,0,1-.07,2-.13,3-.07,1.34-.17,2.68-.24,4-.06,1.15,0,2.31-.15,3.46-.07.81-.08,1.61-.08,2.42s0,1.34,0,2c0,.46,0,.92,0,1.39s-.06,1.08-.08,1.63c0,1.14-.06,2.28-.1,3.42,0,.42-.11.83-.13,1.25a1,1,0,0,0,.46.9,1.88,1.88,0,0,0,.88.22,1.7,1.7,0,0,0,1.09-.06.8.8,0,0,1,.27,0c.63,0,1.26.05,1.88,0,.86-.07,1.71-.18,2.58-.17a23.19,23.19,0,0,0,2.35-.16c.72-.07,1.44-.18,2.17-.24s1.51-.12,2.26-.17,1.39-.11,2.09-.14,1.14,0,1.71,0l1.86,0c.34,0,.69,0,1-.06s.63.28,1,.09h.05c.25.2.48.06.67-.07l.56.41.2-.36,2.13.09,3,.13c1.35.06,2.71.11,4.06.2a.76.76,0,0,0,.59-.17,1.52,1.52,0,0,0,.41-1.4,2.48,2.48,0,0,1-.15-1.23,1.87,1.87,0,0,0,0-.88,3.28,3.28,0,0,1-.1-1.25,6.52,6.52,0,0,0,0-1.17c0-.56-.07-1.12-.08-1.68s0-1.29,0-1.93c0-.48,0-1,0-1.44s0-1.22,0-1.83,0-1.43.06-2.15l0-2.26c0-.26,0-.53,0-.79s0-.68-.06-1c0-.8-.07-1.6-.09-2.41,0-.57-.06-1.15,0-1.72,0-.93.1-1.87.07-2.8,0-.67,0-1.35,0-2s0-1.06.06-1.59A11.66,11.66,0,0,1,175.39,282.6Z" fill="currentColor"/><path d="M316.07.67c.17-.55.08-.69-.34-.9a1.12,1.12,0,0,0-1.16,0,2.12,2.12,0,0,1-1.33.33c-1.69,0-3.38,0-5.07-.08L306.3,0c-.84,0-1.69-.08-2.53-.06C302,0,300.2,0,298.41.08c-.81,0-1.62,0-2.43,0-1.31,0-2.61,0-3.91.15-1.08.11-2.17,0-3.25.12-.92,0-1.85,0-2.78,0a5.39,5.39,0,0,0-2.18.38.56.56,0,0,0-.25.31,1.46,1.46,0,0,0-.06.51c0,.84,0,1.68,0,2.52,0,.6,0,1.2,0,1.79,0,.89.12,1.77.14,2.66,0,.62,0,1.25-.06,1.87,0,1-.07,2-.13,3-.07,1.35-.17,2.68-.24,4-.06,1.15-.05,2.31-.15,3.46-.07.81-.08,1.61-.08,2.42s0,1.33,0,2c0,.47,0,.93,0,1.4s-.06,1.08-.08,1.62c0,1.14-.06,2.29-.1,3.43,0,.42-.11.83-.13,1.25a1,1,0,0,0,.46.9,2.16,2.16,0,0,0,.88.22A1.7,1.7,0,0,0,285.2,34a.61.61,0,0,1,.27,0c.63,0,1.26,0,1.88,0,.86-.07,1.71-.17,2.58-.16a23.19,23.19,0,0,0,2.35-.16c.72-.07,1.44-.18,2.17-.25s1.51-.11,2.26-.17,1.39-.11,2.08-.13,1.15,0,1.72,0,1.24,0,1.86-.05c.34,0,.69,0,1,0s.63.28,1,.09c0,0,0,0,.05,0,.25.2.48.06.67-.08l.56.41.2-.35,2.13.09,3,.12c1.35.06,2.71.12,4.06.21a.8.8,0,0,0,.59-.17,1.53,1.53,0,0,0,.41-1.4,2.51,2.51,0,0,1-.15-1.24,1.82,1.82,0,0,0,0-.87,3.28,3.28,0,0,1-.1-1.25,6.53,6.53,0,0,0,0-1.17c0-.57-.07-1.13-.08-1.69s0-1.28,0-1.92c0-.48,0-1,0-1.44s0-1.23,0-1.84,0-1.43.06-2.15l0-2.25c0-.27,0-.53,0-.79s-.05-.69-.06-1c0-.8-.07-1.61-.09-2.41,0-.58-.06-1.15,0-1.73.05-.93.1-1.86.07-2.79,0-.68,0-1.35,0-2s0-1.07.06-1.6A11.74,11.74,0,0,1,316.07.67Z" fill="currentColor"/><path d="M316.07,72c.17-.56.08-.69-.34-.91a1.1,1.1,0,0,0-1.16,0,2.19,2.19,0,0,1-1.33.33l-5.07-.08-1.87,0c-.84,0-1.69-.07-2.53-.06-1.78,0-3.57.11-5.36.15-.81,0-1.62,0-2.43,0-1.31,0-2.61,0-3.91.15-1.08.1-2.17,0-3.25.11a25.82,25.82,0,0,1-2.78,0,5.23,5.23,0,0,0-2.18.38.53.53,0,0,0-.25.3,1.51,1.51,0,0,0-.06.52c0,.84,0,1.68,0,2.52,0,.6,0,1.19,0,1.79,0,.88.12,1.77.14,2.66,0,.62,0,1.24-.06,1.86,0,1-.07,2-.13,3-.07,1.34-.17,2.68-.24,4-.06,1.15-.05,2.31-.15,3.46-.07.81-.08,1.61-.08,2.42s0,1.34,0,2c0,.46,0,.93,0,1.39S283,99.05,283,99.6c0,1.14-.06,2.28-.1,3.42,0,.42-.11.83-.13,1.25a1,1,0,0,0,.46.9,1.88,1.88,0,0,0,.88.22,1.7,1.7,0,0,0,1.09-.06.8.8,0,0,1,.27,0c.63,0,1.26,0,1.88,0,.86-.07,1.71-.18,2.58-.17a23.19,23.19,0,0,0,2.35-.16c.72-.07,1.44-.18,2.17-.24s1.51-.12,2.26-.17,1.39-.11,2.08-.14,1.15,0,1.72,0l1.86-.05c.34,0,.69,0,1-.06s.63.28,1,.09h.05c.25.2.48.06.67-.07l.56.41.2-.36,2.13.09,3,.13c1.35.06,2.71.11,4.06.2a.76.76,0,0,0,.59-.17,1.5,1.5,0,0,0,.41-1.39,2.53,2.53,0,0,1-.15-1.24,1.87,1.87,0,0,0,0-.88,3.27,3.27,0,0,1-.1-1.25,6.52,6.52,0,0,0,0-1.17c0-.56-.07-1.12-.08-1.68s0-1.29,0-1.93c0-.48,0-1,0-1.44s0-1.22,0-1.83,0-1.43.06-2.15l0-2.26c0-.26,0-.53,0-.79s-.05-.68-.06-1c0-.8-.07-1.6-.09-2.41,0-.57-.06-1.15,0-1.72.05-.93.1-1.86.07-2.8,0-.67,0-1.35,0-2s0-1.06.06-1.59A11.66,11.66,0,0,1,316.07,72Z" fill="currentColor"/><path d="M104.24.67c.17-.55.09-.69-.33-.9a1.14,1.14,0,0,0-1.17,0,2.09,2.09,0,0,1-1.32.33C99.73.09,98,.05,96.34,0L94.47,0C93.63,0,92.79-.09,92-.07c-1.79,0-3.58.11-5.37.15-.81,0-1.62,0-2.43,0-1.3,0-2.61,0-3.91.15-1.07.11-2.16,0-3.25.12-.92,0-1.85,0-2.78,0A5.39,5.39,0,0,0,72,.69a.56.56,0,0,0-.25.31,1.73,1.73,0,0,0,0,.51q0,1.26,0,2.52c0,.6,0,1.2,0,1.79,0,.89.12,1.77.14,2.66,0,.62,0,1.25-.06,1.87,0,1-.07,2-.12,3-.08,1.35-.18,2.68-.25,4-.06,1.15,0,2.31-.14,3.46-.07.81-.08,1.61-.08,2.42s-.05,1.33-.05,2c0,.47.05.93.05,1.4s-.07,1.08-.08,1.62c0,1.14-.06,2.29-.11,3.43,0,.42-.11.83-.12,1.25a1,1,0,0,0,.45.9,2.2,2.2,0,0,0,.88.22,1.73,1.73,0,0,0,1.1-.06.61.61,0,0,1,.27,0c.62,0,1.25,0,1.88,0,.85-.07,1.7-.17,2.57-.16a23.58,23.58,0,0,0,2.36-.16c.72-.07,1.44-.18,2.16-.25s1.51-.11,2.26-.17,1.39-.11,2.09-.13,1.14,0,1.72,0,1.24,0,1.86-.05c.34,0,.68,0,1,0s.64.28,1,.09c0,0,0,0,0,0,.25.2.48.06.67-.08l.57.41.2-.35,2.12.09,3,.12c1.35.06,2.7.12,4,.21a.8.8,0,0,0,.59-.17,1.56,1.56,0,0,0,.42-1.4,2.3,2.3,0,0,1-.15-1.24,1.82,1.82,0,0,0,0-.87,3.74,3.74,0,0,1-.1-1.25,7.62,7.62,0,0,0,0-1.17c0-.57-.08-1.13-.09-1.69s0-1.28,0-1.92c0-.48,0-1,0-1.44s0-1.23,0-1.84,0-1.43.06-2.15,0-1.5,0-2.25c0-.27,0-.53,0-.79s0-.69-.06-1c0-.8-.07-1.61-.09-2.41,0-.58-.06-1.15,0-1.73.06-.93.1-1.86.07-2.79,0-.68,0-1.35,0-2s0-1.07.06-1.6A12.18,12.18,0,0,1,104.24.67Z" fill="currentColor"/><path d="M32.61.67c.16-.55.08-.69-.34-.9a1.12,1.12,0,0,0-1.16,0A2.14,2.14,0,0,1,29.78.1C28.09.09,26.4.05,24.7,0L22.83,0C22,0,21.15-.09,20.31-.07c-1.79,0-3.58.11-5.37.15-.81,0-1.62,0-2.43,0-1.3,0-2.6,0-3.91.15C7.53.35,6.44.29,5.35.36c-.92,0-1.85,0-2.77,0A5.44,5.44,0,0,0,.39.69.56.56,0,0,0,.14,1a1.73,1.73,0,0,0-.05.51V4c0,.6,0,1.2.05,1.79,0,.89.11,1.77.13,2.66,0,.62,0,1.25-.05,1.87,0,1-.08,2-.13,3C0,14.68-.09,16-.16,17.36c0,1.15,0,2.31-.14,3.46-.07.81-.08,1.61-.08,2.42s0,1.33,0,2c0,.47,0,.93,0,1.4s-.06,1.08-.08,1.62c0,1.14-.06,2.29-.11,3.43,0,.42-.11.83-.12,1.25a1,1,0,0,0,.45.9,2.2,2.2,0,0,0,.88.22A1.73,1.73,0,0,0,1.74,34,.61.61,0,0,1,2,34c.62,0,1.26,0,1.88,0,.86-.07,1.71-.17,2.57-.16a23.38,23.38,0,0,0,2.36-.16c.72-.07,1.44-.18,2.16-.25s1.51-.11,2.27-.17,1.38-.11,2.08-.13,1.15,0,1.72,0,1.24,0,1.86-.05c.34,0,.68,0,1,0s.64.28,1,.09c0,0,0,0,0,0,.26.2.48.06.68-.08l.56.41.2-.35,2.12.09,3,.12c1.35.06,2.7.12,4.05.21a.82.82,0,0,0,.6-.17,1.59,1.59,0,0,0,.41-1.4,2.4,2.4,0,0,1-.15-1.24,1.82,1.82,0,0,0,0-.87,3.74,3.74,0,0,1-.1-1.25,7.62,7.62,0,0,0,0-1.17c0-.57-.08-1.13-.09-1.69s0-1.28,0-1.92c0-.48,0-1,0-1.44s0-1.23,0-1.84,0-1.43.06-2.15,0-1.5,0-2.25c0-.27,0-.53,0-.79s0-.69-.06-1l-.09-2.41c0-.58-.06-1.15,0-1.73.06-.93.1-1.86.07-2.79,0-.68,0-1.35,0-2s0-1.07.07-1.6A11.74,11.74,0,0,1,32.61.67Z" fill="currentColor"/><path d="M139.89,33.13c.16-.55.08-.69-.34-.9a1.1,1.1,0,0,0-1.16,0,2.19,2.19,0,0,1-1.33.33c-1.69,0-3.38-.05-5.07-.08l-1.87,0c-.85,0-1.69-.07-2.53,0-1.79,0-3.57.1-5.36.15-.81,0-1.63,0-2.44,0-1.3,0-2.6,0-3.9.15-1.08.1-2.17,0-3.25.11a25.79,25.79,0,0,1-2.78,0,5.39,5.39,0,0,0-2.18.38.49.49,0,0,0-.25.31,1.46,1.46,0,0,0-.06.51c0,.84,0,1.68,0,2.52,0,.6,0,1.2,0,1.79,0,.89.11,1.77.14,2.66,0,.62,0,1.24-.06,1.87,0,1-.07,2-.13,3-.07,1.34-.17,2.68-.24,4-.06,1.16,0,2.32-.15,3.46-.07.81-.08,1.62-.08,2.43,0,.66,0,1.33-.05,2,0,.46.06.93.05,1.39s-.06,1.09-.08,1.63c0,1.14-.06,2.29-.1,3.43,0,.41-.11.83-.13,1.24a1,1,0,0,0,.46.9,1.88,1.88,0,0,0,.88.22,1.63,1.63,0,0,0,1.09-.05.62.62,0,0,1,.27,0c.63,0,1.26,0,1.88,0,.86-.07,1.71-.17,2.58-.16a23.21,23.21,0,0,0,2.35-.17c.72-.06,1.44-.17,2.16-.24s1.51-.11,2.27-.17,1.39-.11,2.08-.13,1.15,0,1.72,0,1.24,0,1.86,0c.34,0,.68,0,1,0s.64.28,1,.09c0,0,0,0,0,0,.26.2.48,0,.68-.08l.56.41.2-.36,2.13.1,3,.12c1.35.06,2.7.12,4,.21a.86.86,0,0,0,.6-.17,1.56,1.56,0,0,0,.41-1.4,2.52,2.52,0,0,1-.15-1.24,1.82,1.82,0,0,0,0-.87,3.74,3.74,0,0,1-.1-1.25,7.73,7.73,0,0,0,0-1.18c0-.56-.08-1.12-.09-1.68s0-1.28,0-1.92V54.79c0-.61,0-1.22,0-1.83s0-1.43.06-2.15l0-2.26c0-.26,0-.52,0-.78s0-.69-.05-1c0-.81-.07-1.61-.1-2.41,0-.58-.06-1.15,0-1.73,0-.93.1-1.86.07-2.8,0-.67,0-1.34,0-2s.05-1.06.07-1.59A11.74,11.74,0,0,1,139.89,33.13Z" fill="currentColor"/><path d="M68.25,35.19c.17-.56.08-.69-.34-.91a1.1,1.1,0,0,0-1.16,0,2.1,2.1,0,0,1-1.32.32c-1.7,0-3.39,0-5.08-.08l-1.87,0c-.84,0-1.68-.08-2.53-.06-1.78,0-3.57.11-5.36.15-.81,0-1.62,0-2.43,0-1.31,0-2.61,0-3.91.15-1.08.1-2.17,0-3.25.11a23.49,23.49,0,0,1-2.78,0,5.4,5.4,0,0,0-2.18.39.5.5,0,0,0-.25.3,1.46,1.46,0,0,0-.06.51c0,.85,0,1.69,0,2.53,0,.59,0,1.19,0,1.78,0,.89.12,1.78.14,2.66,0,.62,0,1.25-.06,1.87,0,1-.07,2-.13,3-.07,1.34-.17,2.68-.24,4-.06,1.15-.05,2.31-.15,3.46-.07.81-.08,1.61-.08,2.42s0,1.34,0,2c0,.47.05.93,0,1.4s-.06,1.08-.08,1.62c0,1.15-.06,2.29-.1,3.43,0,.42-.11.83-.13,1.25a1,1,0,0,0,.46.9,2.2,2.2,0,0,0,.88.22,1.7,1.7,0,0,0,1.09-.06.61.61,0,0,1,.27,0c.63,0,1.26,0,1.88,0,.86-.07,1.71-.17,2.58-.16a23.19,23.19,0,0,0,2.35-.16c.73-.07,1.44-.18,2.17-.25s1.51-.11,2.26-.16,1.39-.12,2.09-.14,1.14,0,1.71,0l1.86,0c.34,0,.69,0,1-.06s.63.28,1,.09c0,0,0,0,0,0,.25.2.48.06.67-.07l.56.4.2-.35,2.13.09,3,.13c1.35.06,2.71.11,4.06.2a.76.76,0,0,0,.59-.17,1.53,1.53,0,0,0,.41-1.4,2.51,2.51,0,0,1-.15-1.24,1.83,1.83,0,0,0,0-.87,3.28,3.28,0,0,1-.1-1.25,6.52,6.52,0,0,0,0-1.17c0-.56-.07-1.12-.08-1.69s0-1.28,0-1.92c0-.48,0-1,0-1.44s0-1.22,0-1.83,0-1.44.06-2.15,0-1.51,0-2.26c0-.27,0-.53,0-.79s0-.69-.06-1c0-.8-.07-1.6-.09-2.41,0-.57-.06-1.15,0-1.72.05-.94.1-1.87.07-2.8,0-.68,0-1.35,0-2s0-1.06.06-1.59A11.66,11.66,0,0,1,68.25,35.19Z" fill="currentColor"/><path d="M105.26,70c.17-.55.09-.68-.33-.9a1.12,1.12,0,0,0-1.17,0,2.08,2.08,0,0,1-1.32.32c-1.69,0-3.39,0-5.08-.08l-1.87,0c-.84,0-1.68-.08-2.52-.06-1.79,0-3.58.11-5.37.15-.81,0-1.62,0-2.43,0-1.3,0-2.61,0-3.91.15-1.07.11-2.16,0-3.25.12-.92,0-1.85,0-2.78,0a5.57,5.57,0,0,0-2.18.38.56.56,0,0,0-.25.31,1.73,1.73,0,0,0,0,.51c0,.84,0,1.68,0,2.53,0,.59,0,1.19,0,1.78,0,.89.12,1.77.14,2.66,0,.62,0,1.25-.06,1.87,0,1-.07,2-.12,3-.08,1.35-.18,2.69-.25,4-.06,1.15,0,2.31-.14,3.46-.07.81-.08,1.61-.08,2.42s0,1.33,0,2c0,.47,0,.93,0,1.4s-.07,1.08-.08,1.62c0,1.15-.06,2.29-.11,3.43,0,.42-.11.83-.12,1.25a1,1,0,0,0,.45.9,2.2,2.2,0,0,0,.88.22,1.73,1.73,0,0,0,1.1-.06.61.61,0,0,1,.27,0c.62,0,1.25.05,1.88,0,.85-.07,1.7-.17,2.57-.16a23.58,23.58,0,0,0,2.36-.16c.72-.07,1.44-.18,2.16-.25s1.51-.11,2.26-.17,1.39-.11,2.09-.13,1.14,0,1.72,0,1.24,0,1.86-.05c.34,0,.68,0,1,0s.64.28,1,.09c0,0,0,0,.05,0,.25.2.48.06.67-.07l.57.4.2-.35,2.12.09,3,.12c1.35.07,2.7.12,4,.21a.8.8,0,0,0,.59-.17,1.56,1.56,0,0,0,.42-1.4,2.3,2.3,0,0,1-.15-1.24,1.82,1.82,0,0,0,0-.87,3.74,3.74,0,0,1-.1-1.25,7.62,7.62,0,0,0,0-1.17c0-.57-.08-1.13-.09-1.69s0-1.28,0-1.92c0-.48,0-1,0-1.44s0-1.22,0-1.83,0-1.44.06-2.15,0-1.51,0-2.26c0-.27,0-.53,0-.79s0-.69-.06-1c0-.8-.07-1.61-.09-2.41,0-.57-.06-1.15,0-1.72.06-.94.1-1.87.07-2.8,0-.68,0-1.35,0-2s0-1.07.06-1.6A12.18,12.18,0,0,1,105.26,70Z" fill="currentColor"/><path d="M32.61,72c.16-.56.08-.69-.34-.91a1.1,1.1,0,0,0-1.16,0,2.2,2.2,0,0,1-1.33.33l-5.08-.08-1.87,0c-.84,0-1.68-.07-2.52-.06-1.79,0-3.58.11-5.37.15-.81,0-1.62,0-2.43,0-1.3,0-2.6,0-3.91.15-1.07.1-2.16,0-3.25.11a25.6,25.6,0,0,1-2.77,0A5.28,5.28,0,0,0,.39,72a.53.53,0,0,0-.25.3,1.8,1.8,0,0,0-.05.52v2.52c0,.6,0,1.19.05,1.79,0,.88.11,1.77.13,2.66,0,.62,0,1.24-.05,1.86,0,1-.08,2-.13,3C0,86-.09,87.35-.16,88.69c0,1.15,0,2.31-.14,3.46-.07.81-.08,1.61-.08,2.42s0,1.34,0,2c0,.46,0,.93,0,1.39s-.06,1.08-.08,1.63c0,1.14-.06,2.28-.11,3.42,0,.42-.11.83-.12,1.25a1,1,0,0,0,.45.9,1.91,1.91,0,0,0,.88.22,1.73,1.73,0,0,0,1.1-.06.8.8,0,0,1,.27,0c.62,0,1.26,0,1.88,0,.86-.07,1.71-.18,2.57-.17A23.38,23.38,0,0,0,8.82,105c.72-.07,1.44-.18,2.16-.24s1.51-.12,2.27-.17,1.38-.11,2.08-.14,1.15,0,1.72,0l1.86-.05c.34,0,.68,0,1-.06s.64.28,1,.09h0c.26.2.48.06.68-.07l.56.41.2-.36,2.12.09,3,.13c1.35.06,2.7.11,4.05.2a.78.78,0,0,0,.6-.17,1.56,1.56,0,0,0,.41-1.39,2.42,2.42,0,0,1-.15-1.24,1.87,1.87,0,0,0,0-.88,3.72,3.72,0,0,1-.1-1.25,7.6,7.6,0,0,0,0-1.17c0-.56-.08-1.12-.09-1.68s0-1.29,0-1.93c0-.48,0-1,0-1.44s0-1.22,0-1.83,0-1.43.06-2.15,0-1.51,0-2.26c0-.26,0-.53,0-.79s0-.68-.06-1l-.09-2.41c0-.57-.06-1.15,0-1.72.06-.93.1-1.86.07-2.8,0-.67,0-1.35,0-2s0-1.06.07-1.59A11.66,11.66,0,0,1,32.61,72Z" fill="currentColor"/><path d="M140.57,105.75c.17-.55.09-.69-.33-.91a1.12,1.12,0,0,0-1.17,0,2.16,2.16,0,0,1-1.32.33c-1.7,0-3.39-.05-5.08-.08l-1.87,0c-.84,0-1.68-.07-2.52-.06-1.79,0-3.58.11-5.37.16-.81,0-1.62,0-2.43,0-1.31,0-2.61,0-3.91.15-1.08.1-2.16.05-3.25.11a25.82,25.82,0,0,1-2.78,0,5.23,5.23,0,0,0-2.18.38.52.52,0,0,0-.25.31,1.73,1.73,0,0,0,0,.51q0,1.26,0,2.52c0,.6,0,1.19,0,1.79,0,.89.12,1.77.14,2.66,0,.62,0,1.24-.06,1.86,0,1-.07,2-.12,3-.08,1.34-.18,2.68-.25,4-.06,1.15,0,2.31-.14,3.46-.07.81-.08,1.62-.08,2.42s0,1.34,0,2c0,.46,0,.93,0,1.39s-.06,1.09-.08,1.63c0,1.14-.06,2.28-.1,3.43,0,.41-.11.83-.12,1.24a1,1,0,0,0,.45.9,1.91,1.91,0,0,0,.88.22,1.73,1.73,0,0,0,1.1-.06.75.75,0,0,1,.26,0c.63,0,1.26.05,1.89,0,.85-.07,1.7-.18,2.57-.17a23.19,23.19,0,0,0,2.35-.16c.73-.07,1.45-.17,2.17-.24s1.51-.12,2.26-.17,1.39-.11,2.09-.14,1.14,0,1.71,0l1.87,0c.34,0,.68,0,1-.05s.64.28,1,.08l.05,0c.25.19.48.05.67-.08l.56.41.21-.36,2.12.09,3,.13c1.35.06,2.7.11,4.05.2a.76.76,0,0,0,.59-.17,1.5,1.5,0,0,0,.41-1.39,2.41,2.41,0,0,1-.14-1.24,2,2,0,0,0,0-.87,3.5,3.5,0,0,1-.1-1.25,6.64,6.64,0,0,0,0-1.18c0-.56-.07-1.12-.08-1.68s0-1.29,0-1.93c0-.48,0-1,0-1.44s0-1.22,0-1.83.05-1.43.06-2.15,0-1.51,0-2.26c0-.26,0-.52,0-.79s0-.68-.06-1c0-.81-.07-1.61-.09-2.41,0-.58-.06-1.16,0-1.73.06-.93.1-1.86.07-2.8,0-.67,0-1.35,0-2s.05-1.06.06-1.59A11.7,11.7,0,0,1,140.57,105.75Z" fill="currentColor"/><path d="M68.94,107.8c.16-.55.08-.69-.34-.9a1.12,1.12,0,0,0-1.16,0,2.14,2.14,0,0,1-1.33.33c-1.69,0-3.38,0-5.08-.08l-1.87,0c-.84,0-1.68-.08-2.52-.06-1.79,0-3.58.11-5.37.15-.81,0-1.62,0-2.43,0-1.3,0-2.6,0-3.91.15-1.07.11-2.16,0-3.25.12-.92.05-1.85,0-2.77,0a5.41,5.41,0,0,0-2.19.38.56.56,0,0,0-.25.31,1.73,1.73,0,0,0,0,.51q0,1.26,0,2.52c0,.6,0,1.2,0,1.79,0,.89.12,1.77.14,2.66,0,.62,0,1.25-.06,1.87,0,1-.07,2-.12,3-.08,1.35-.18,2.68-.25,4-.06,1.15,0,2.31-.14,3.46-.07.81-.08,1.61-.08,2.42s-.05,1.33-.05,2c0,.47.05.93.05,1.4s-.07,1.08-.08,1.62c0,1.14-.06,2.29-.11,3.43,0,.42-.11.83-.12,1.25a1,1,0,0,0,.45.9,2.2,2.2,0,0,0,.88.22,1.73,1.73,0,0,0,1.1-.06.61.61,0,0,1,.27,0c.62,0,1.25,0,1.88,0,.86-.07,1.71-.17,2.57-.16a23.38,23.38,0,0,0,2.36-.16c.72-.07,1.44-.18,2.16-.25s1.51-.11,2.27-.17,1.38-.11,2.08-.13,1.14,0,1.72,0,1.24,0,1.86-.05c.34,0,.68,0,1,0s.64.28,1,.09c0,0,0,0,0,0,.25.2.48.06.67-.08l.57.41.2-.35,2.12.09,3,.12c1.35.06,2.7.12,4,.21a.82.82,0,0,0,.6-.17,1.59,1.59,0,0,0,.41-1.4,2.4,2.4,0,0,1-.15-1.24,1.82,1.82,0,0,0,0-.87,3.74,3.74,0,0,1-.1-1.25,7.62,7.62,0,0,0,0-1.17c0-.57-.08-1.13-.09-1.69s0-1.28,0-1.92c0-.48,0-1,0-1.44s0-1.22,0-1.84,0-1.43.06-2.15,0-1.5,0-2.25c0-.27,0-.53,0-.79s0-.69-.06-1L68.59,119c0-.58-.06-1.15,0-1.73.06-.93.1-1.86.07-2.79,0-.68,0-1.35,0-2s0-1.07.06-1.6A11.75,11.75,0,0,1,68.94,107.8Z" fill="currentColor"/><path d="M247-.87c.16-.55.08-.69-.34-.9a1.12,1.12,0,0,0-1.16,0,2.14,2.14,0,0,1-1.33.33c-1.69,0-3.38-.05-5.07-.08l-1.87,0c-.85,0-1.69-.08-2.53-.06-1.79,0-3.57.1-5.36.15-.81,0-1.63,0-2.44,0-1.3,0-2.6,0-3.9.15-1.08.11-2.17.05-3.25.12-.92.05-1.86,0-2.78-.05a5.39,5.39,0,0,0-2.18.38.57.57,0,0,0-.26.31,1.73,1.73,0,0,0-.05.51c0,.84,0,1.68,0,2.52,0,.6,0,1.2,0,1.79,0,.89.11,1.77.13,2.66,0,.62,0,1.25-.05,1.87,0,1-.07,2-.13,3-.07,1.34-.17,2.68-.24,4-.06,1.15-.05,2.31-.15,3.46-.07.81-.08,1.61-.08,2.42s0,1.33,0,2c0,.47.06.93,0,1.39s-.06,1.09-.08,1.63c0,1.14-.06,2.29-.11,3.43,0,.42-.1.83-.12,1.25a1,1,0,0,0,.46.9,2.16,2.16,0,0,0,.88.22,1.7,1.7,0,0,0,1.09-.06.61.61,0,0,1,.27,0c.63,0,1.26,0,1.88,0,.86-.07,1.71-.17,2.58-.16a20.63,20.63,0,0,0,2.35-.17c.72-.06,1.44-.17,2.16-.24s1.51-.11,2.27-.17,1.39-.11,2.08-.13,1.15,0,1.72,0,1.24,0,1.86-.05c.34,0,.68,0,1-.05s.64.28,1,.09c0,0,0,0,0,0,.26.2.48.05.68-.08l.56.41.2-.35,2.12.09,3,.12c1.35.06,2.7.12,4.05.21a.86.86,0,0,0,.6-.17,1.56,1.56,0,0,0,.41-1.4,2.51,2.51,0,0,1-.15-1.24,1.82,1.82,0,0,0,0-.87,3.74,3.74,0,0,1-.1-1.25,7.62,7.62,0,0,0,0-1.17c0-.57-.08-1.13-.09-1.69s0-1.28,0-1.92V20.8c0-.62,0-1.23,0-1.84s0-1.43.06-2.15l0-2.26c0-.26,0-.52,0-.78s0-.69-.05-1c0-.8-.07-1.61-.1-2.41,0-.58-.06-1.15,0-1.73.05-.93.1-1.86.07-2.8,0-.67,0-1.34,0-2,0-.53.05-1.06.07-1.59A11.74,11.74,0,0,1,247-.87Z" fill="currentColor"/><path d="M175.39-.87c.17-.55.08-.69-.34-.9a1.12,1.12,0,0,0-1.16,0,2.12,2.12,0,0,1-1.33.33c-1.69,0-3.38-.05-5.07-.08l-1.87,0c-.84,0-1.68-.08-2.53-.06-1.78,0-3.57.1-5.36.15-.81,0-1.62,0-2.43,0-1.31,0-2.61,0-3.91.15-1.08.11-2.17.05-3.25.12-.92.05-1.85,0-2.78-.05a5.39,5.39,0,0,0-2.18.38.56.56,0,0,0-.25.31,1.46,1.46,0,0,0-.06.51c0,.84,0,1.68,0,2.52,0,.6,0,1.2,0,1.79,0,.89.12,1.77.14,2.66,0,.62,0,1.25-.06,1.87,0,1-.07,2-.13,3-.07,1.34-.17,2.68-.24,4-.06,1.15,0,2.31-.15,3.46-.07.81-.08,1.61-.08,2.42s0,1.33,0,2c0,.47,0,.93,0,1.39s-.06,1.09-.08,1.63c0,1.14-.06,2.29-.1,3.43,0,.42-.11.83-.13,1.25a1,1,0,0,0,.46.9,2.16,2.16,0,0,0,.88.22,1.7,1.7,0,0,0,1.09-.06.61.61,0,0,1,.27,0c.63,0,1.26,0,1.88,0,.86-.07,1.71-.17,2.58-.16a20.63,20.63,0,0,0,2.35-.17c.72-.06,1.44-.17,2.17-.24s1.51-.11,2.26-.17,1.39-.11,2.09-.13,1.14,0,1.71,0,1.24,0,1.86-.05c.34,0,.69,0,1-.05s.63.28,1,.09c0,0,0,0,.05,0,.25.2.48.05.67-.08l.56.41.2-.35,2.13.09,3,.12c1.35.06,2.71.12,4.06.21a.84.84,0,0,0,.59-.17,1.53,1.53,0,0,0,.41-1.4,2.51,2.51,0,0,1-.15-1.24,1.82,1.82,0,0,0,0-.87,3.28,3.28,0,0,1-.1-1.25,6.53,6.53,0,0,0,0-1.17c0-.57-.07-1.13-.08-1.69s0-1.28,0-1.92c0-.48,0-1,0-1.44s0-1.23,0-1.84,0-1.43.06-2.15l0-2.26c0-.26,0-.52,0-.78s0-.69-.06-1c0-.8-.07-1.61-.09-2.41,0-.58-.06-1.15,0-1.73,0-.93.1-1.86.07-2.8,0-.67,0-1.34,0-2,0-.53,0-1.06.06-1.59A11.74,11.74,0,0,1,175.39-.87Z" fill="currentColor"/><path d="M282.67,36.59c.17-.55.09-.69-.33-.9a1.12,1.12,0,0,0-1.17,0,2.16,2.16,0,0,1-1.32.33c-1.69,0-3.39-.05-5.08-.08l-1.87,0c-.84,0-1.68-.07-2.52,0-1.79,0-3.58.1-5.37.15-.81,0-1.62,0-2.43,0-1.3,0-2.61,0-3.91.15-1.07.1-2.16.05-3.25.11a25.82,25.82,0,0,1-2.78,0,5.39,5.39,0,0,0-2.18.38.52.52,0,0,0-.25.31,1.73,1.73,0,0,0-.05.51q0,1.26,0,2.52c0,.6,0,1.19,0,1.79,0,.89.12,1.77.14,2.66,0,.62,0,1.24-.06,1.87,0,1-.07,2-.12,3-.08,1.34-.18,2.68-.25,4-.06,1.16,0,2.32-.14,3.46-.07.81-.08,1.62-.08,2.43s-.05,1.33-.05,2c0,.46.05.93.05,1.39s-.07,1.09-.08,1.63c0,1.14-.06,2.29-.11,3.43,0,.41-.11.83-.12,1.24a1,1,0,0,0,.45.9,1.91,1.91,0,0,0,.88.22,1.73,1.73,0,0,0,1.1,0,.62.62,0,0,1,.27,0c.62,0,1.25,0,1.88,0,.85-.07,1.7-.17,2.57-.16a23.61,23.61,0,0,0,2.36-.17c.72-.06,1.44-.17,2.16-.24s1.51-.11,2.26-.17S264.7,69,265.4,69s1.14,0,1.72,0,1.24,0,1.86-.05c.34,0,.68,0,1,0s.64.28,1,.09c0,0,0,0,0,0,.25.2.48,0,.67-.08l.57.41.2-.36,2.12.09,3,.13c1.35.06,2.7.12,4.05.21a.84.84,0,0,0,.59-.17,1.56,1.56,0,0,0,.42-1.4,2.31,2.31,0,0,1-.15-1.24,1.82,1.82,0,0,0,0-.87,3.74,3.74,0,0,1-.1-1.25,7.73,7.73,0,0,0,0-1.18c0-.56-.08-1.12-.09-1.68s0-1.28,0-1.92,0-1,0-1.45,0-1.22,0-1.83,0-1.43.06-2.15,0-1.5,0-2.26c0-.26,0-.52,0-.78s0-.69-.06-1c0-.81-.07-1.61-.09-2.41,0-.58-.06-1.16,0-1.73.06-.93.1-1.86.07-2.8,0-.67,0-1.34,0-2s0-1.06.06-1.59A12.18,12.18,0,0,1,282.67,36.59Z" fill="currentColor"/><path d="M211,33.65c.16-.56.08-.69-.34-.91a1.1,1.1,0,0,0-1.16,0,2.13,2.13,0,0,1-1.33.32c-1.69,0-3.38,0-5.08-.08l-1.87,0c-.84,0-1.68-.08-2.52-.06-1.79,0-3.58.11-5.37.15-.81,0-1.62,0-2.43,0-1.3,0-2.6,0-3.91.15-1.07.1-2.16,0-3.25.11-.92.05-1.85,0-2.77,0a5.45,5.45,0,0,0-2.19.39.5.5,0,0,0-.25.3,1.73,1.73,0,0,0,0,.51V37c0,.59,0,1.19,0,1.78,0,.89.11,1.78.13,2.66,0,.62,0,1.25,0,1.87,0,1-.08,2-.13,3-.07,1.34-.18,2.68-.25,4-.05,1.15,0,2.31-.14,3.46-.07.81-.08,1.61-.08,2.42s-.05,1.33-.05,2c0,.47.05.93.05,1.4s-.06,1.08-.08,1.62c0,1.15-.06,2.29-.11,3.43,0,.42-.11.83-.12,1.25a1,1,0,0,0,.45.9,2.2,2.2,0,0,0,.88.22,1.73,1.73,0,0,0,1.1-.06.61.61,0,0,1,.27,0c.62,0,1.26,0,1.88,0,.86-.07,1.71-.17,2.57-.16a23.38,23.38,0,0,0,2.36-.16c.72-.07,1.44-.18,2.16-.25s1.51-.11,2.27-.16,1.38-.12,2.08-.14,1.15,0,1.72,0,1.24,0,1.86,0c.34,0,.68,0,1-.06s.64.28,1,.09c0,0,0,0,0,0,.26.2.48.06.68-.07l.56.4.2-.35,2.12.09,3,.13c1.35.06,2.7.11,4,.2a.78.78,0,0,0,.6-.17,1.59,1.59,0,0,0,.41-1.4,2.4,2.4,0,0,1-.15-1.24,1.82,1.82,0,0,0,0-.87,3.74,3.74,0,0,1-.1-1.25,7.6,7.6,0,0,0,0-1.17c0-.56-.08-1.13-.09-1.69s0-1.28,0-1.92c0-.48,0-1,0-1.44s0-1.22,0-1.83,0-1.44.06-2.15,0-1.51,0-2.26c0-.27,0-.53,0-.79s0-.69-.06-1l-.09-2.41c0-.57-.06-1.15,0-1.72.06-.94.1-1.87.07-2.8,0-.68,0-1.35,0-2s0-1.06.07-1.59A11.66,11.66,0,0,1,211,33.65Z" fill="currentColor"/><path d="M248.05,68.41c.16-.55.08-.69-.34-.9a1.12,1.12,0,0,0-1.16,0,2.14,2.14,0,0,1-1.33.33c-1.69,0-3.38,0-5.07-.08l-1.87,0c-.85,0-1.69-.08-2.53-.06-1.79,0-3.57.11-5.36.15-.81,0-1.63,0-2.44,0-1.3,0-2.6,0-3.9.15-1.08.11-2.17,0-3.25.12-.92.05-1.86,0-2.78,0a5.39,5.39,0,0,0-2.18.38.57.57,0,0,0-.26.31,1.73,1.73,0,0,0-.05.51c0,.84,0,1.68,0,2.52,0,.6,0,1.2,0,1.79,0,.89.11,1.77.13,2.66,0,.62,0,1.25-.05,1.87,0,1-.07,2-.13,3-.07,1.34-.17,2.68-.24,4-.06,1.15,0,2.31-.15,3.46-.07.81-.08,1.61-.08,2.42s0,1.33-.05,2c0,.47.06.93.05,1.4S215,95.46,215,96c0,1.14-.06,2.29-.11,3.43,0,.42-.1.83-.12,1.25a1,1,0,0,0,.46.9,2.16,2.16,0,0,0,.88.22,1.7,1.7,0,0,0,1.09-.06.61.61,0,0,1,.27,0c.63,0,1.26,0,1.88,0,.86-.07,1.71-.17,2.58-.16a23.19,23.19,0,0,0,2.35-.16c.72-.07,1.44-.18,2.16-.25s1.51-.11,2.27-.17,1.39-.11,2.08-.13,1.15,0,1.72,0,1.24,0,1.86,0c.34,0,.68,0,1,0s.64.28,1,.09c0,0,0,0,0,0,.26.2.48,0,.68-.08l.56.41.2-.35,2.12.09,3,.12c1.35.06,2.7.12,4.05.21a.81.81,0,0,0,.6-.17,1.56,1.56,0,0,0,.41-1.4,2.51,2.51,0,0,1-.15-1.24,1.82,1.82,0,0,0,0-.87,3.74,3.74,0,0,1-.1-1.25,7.62,7.62,0,0,0,0-1.17c0-.57-.08-1.13-.09-1.69s0-1.28,0-1.92V90.08c0-.61,0-1.23,0-1.84s0-1.43.06-2.15l0-2.25c0-.27,0-.53,0-.79s0-.69,0-1c0-.8-.07-1.61-.1-2.41,0-.58-.06-1.15,0-1.73,0-.93.1-1.86.07-2.79,0-.68,0-1.35,0-2s.05-1.07.07-1.6A11.74,11.74,0,0,1,248.05,68.41Z" fill="currentColor"/><path d="M175.39,70.47c.17-.56.08-.69-.34-.91a1.1,1.1,0,0,0-1.16,0,2.19,2.19,0,0,1-1.33.33l-5.07-.08-1.87,0c-.84,0-1.68-.07-2.53-.06-1.78,0-3.57.11-5.36.15-.81,0-1.62,0-2.43,0-1.31,0-2.61,0-3.91.15-1.08.1-2.17,0-3.25.11a25.82,25.82,0,0,1-2.78,0,5.23,5.23,0,0,0-2.18.38.5.5,0,0,0-.25.3,1.49,1.49,0,0,0-.06.52c0,.84,0,1.68,0,2.52,0,.59,0,1.19,0,1.79,0,.88.12,1.77.14,2.66,0,.62,0,1.24-.06,1.86,0,1-.07,2-.13,3-.07,1.34-.17,2.68-.24,4-.06,1.15,0,2.31-.15,3.46-.07.81-.08,1.61-.08,2.42s0,1.34,0,2c0,.46,0,.92,0,1.39s-.06,1.08-.08,1.63c0,1.14-.06,2.28-.1,3.42,0,.42-.11.83-.13,1.25a1,1,0,0,0,.46.9,1.88,1.88,0,0,0,.88.22,1.7,1.7,0,0,0,1.09-.06.8.8,0,0,1,.27,0c.63,0,1.26,0,1.88,0,.86-.07,1.71-.18,2.58-.17a23.19,23.19,0,0,0,2.35-.16c.72-.07,1.44-.18,2.17-.24s1.51-.12,2.26-.17,1.39-.11,2.09-.14,1.14,0,1.71,0l1.86,0c.34,0,.69,0,1-.06s.63.28,1,.09h.05c.25.2.48.06.67-.07l.56.41.2-.36,2.13.09,3,.13c1.35.06,2.71.11,4.06.2a.76.76,0,0,0,.59-.17,1.52,1.52,0,0,0,.41-1.4,2.48,2.48,0,0,1-.15-1.23,1.87,1.87,0,0,0,0-.88,3.28,3.28,0,0,1-.1-1.25,6.52,6.52,0,0,0,0-1.17c0-.56-.07-1.12-.08-1.68s0-1.29,0-1.93c0-.48,0-1,0-1.44s0-1.22,0-1.83,0-1.43.06-2.15l0-2.26c0-.26,0-.53,0-.79s0-.68-.06-1c0-.8-.07-1.6-.09-2.41,0-.57-.06-1.15,0-1.72,0-.93.1-1.87.07-2.8,0-.67,0-1.35,0-2s0-1.06.06-1.59A11.66,11.66,0,0,1,175.39,70.47Z" fill="currentColor"/><path d="M283.36,108.21c.16-.56.08-.69-.34-.91a1.1,1.1,0,0,0-1.16,0,2.2,2.2,0,0,1-1.33.33c-1.69,0-3.38,0-5.07-.08l-1.88,0c-.84,0-1.68-.07-2.52-.06-1.79,0-3.58.11-5.36.16-.82,0-1.63,0-2.44,0-1.3,0-2.6,0-3.9.15-1.08.1-2.17,0-3.25.11a25.75,25.75,0,0,1-2.78,0,5.3,5.3,0,0,0-2.19.38.56.56,0,0,0-.25.31,1.73,1.73,0,0,0,0,.51v2.52c0,.6,0,1.19,0,1.79,0,.88.11,1.77.13,2.66,0,.62,0,1.24-.05,1.86,0,1-.08,2-.13,3-.07,1.34-.18,2.68-.24,4-.06,1.15,0,2.31-.15,3.46-.07.81-.08,1.62-.08,2.42s0,1.34-.05,2c0,.46.06.93.05,1.39s-.06,1.09-.08,1.63c0,1.14-.06,2.28-.11,3.43,0,.41-.1.83-.12,1.24a1,1,0,0,0,.45.9,1.92,1.92,0,0,0,.89.22,1.7,1.7,0,0,0,1.09-.06.8.8,0,0,1,.27,0c.63,0,1.26,0,1.88,0,.86-.07,1.71-.18,2.57-.17a23.19,23.19,0,0,0,2.36-.16c.72-.07,1.44-.18,2.16-.24s1.51-.12,2.27-.17,1.39-.11,2.08-.14,1.15,0,1.72,0l1.86,0c.34,0,.68,0,1-.05s.64.28,1,.08l0,0c.26.19.48.05.68-.08l.56.41.2-.36,2.12.09,3,.13c1.35.06,2.7.11,4.05.2a.77.77,0,0,0,.6-.17,1.53,1.53,0,0,0,.41-1.39,2.42,2.42,0,0,1-.15-1.24,1.87,1.87,0,0,0,0-.88,3.66,3.66,0,0,1-.1-1.24,7.75,7.75,0,0,0,0-1.18c0-.56-.08-1.12-.09-1.68s0-1.29,0-1.93v-1.44q0-.92,0-1.83c0-.72,0-1.43.06-2.15l0-2.26c0-.26,0-.52,0-.79s0-.68-.05-1c0-.8-.07-1.6-.1-2.4a16.67,16.67,0,0,1,0-1.73c.05-.93.1-1.86.06-2.8,0-.67,0-1.35,0-2s.05-1.06.07-1.59A11.7,11.7,0,0,1,283.36,108.21Z" fill="currentColor"/><path d="M211.72,106.26c.16-.55.08-.69-.34-.9a1.12,1.12,0,0,0-1.16,0,2.12,2.12,0,0,1-1.33.33c-1.69,0-3.38,0-5.07-.08l-1.87,0c-.84,0-1.69-.08-2.53-.06-1.79,0-3.57.1-5.36.15-.81,0-1.62,0-2.44,0-1.3,0-2.6,0-3.9.15-1.08.11-2.17,0-3.25.12-.92,0-1.85,0-2.78,0a5.39,5.39,0,0,0-2.18.38.56.56,0,0,0-.25.31,1.46,1.46,0,0,0-.06.51c0,.84,0,1.68,0,2.52,0,.6,0,1.2,0,1.79,0,.89.11,1.77.14,2.66,0,.62,0,1.25-.06,1.87,0,1-.07,2-.13,3-.07,1.34-.17,2.68-.24,4-.06,1.15-.05,2.31-.15,3.46-.07.81-.08,1.61-.08,2.42s0,1.33,0,2c0,.47.05.93,0,1.39s-.06,1.09-.08,1.63c0,1.14-.06,2.29-.1,3.43,0,.42-.11.83-.13,1.25a1,1,0,0,0,.46.9,2.16,2.16,0,0,0,.88.22,1.7,1.7,0,0,0,1.09-.06.61.61,0,0,1,.27,0c.63,0,1.26,0,1.88,0,.86-.07,1.71-.17,2.58-.16a20.63,20.63,0,0,0,2.35-.17c.72-.06,1.44-.17,2.16-.24s1.51-.11,2.27-.17,1.39-.11,2.08-.13,1.15,0,1.72,0,1.24,0,1.86-.05c.34,0,.69,0,1,0s.64.28,1,.09c0,0,0,0,0,0,.26.2.49,0,.68-.08l.56.41.2-.35,2.13.09,3,.12c1.35.06,2.71.12,4.05.21a.86.86,0,0,0,.6-.17,1.56,1.56,0,0,0,.41-1.4,2.51,2.51,0,0,1-.15-1.24,1.82,1.82,0,0,0,0-.87,3.28,3.28,0,0,1-.1-1.25,9.14,9.14,0,0,0,0-1.17c0-.57-.08-1.13-.08-1.69s0-1.28,0-1.92v-1.44c0-.62,0-1.23,0-1.84s0-1.43.06-2.15l0-2.25c0-.27,0-.53,0-.79s-.05-.69-.06-1c0-.8-.07-1.61-.09-2.41a16.65,16.65,0,0,1,0-1.73c.05-.93.1-1.86.07-2.8,0-.67,0-1.34,0-2,0-.53,0-1.06.06-1.59A11.74,11.74,0,0,1,211.72,106.26Z" fill="currentColor"/><path d="M105,142.85c.17-.56.09-.69-.33-.91a1.12,1.12,0,0,0-1.17,0,2.16,2.16,0,0,1-1.32.33c-1.69,0-3.39-.05-5.08-.08l-1.87,0c-.84,0-1.68-.07-2.52-.06-1.79,0-3.58.11-5.37.16-.81,0-1.62,0-2.43,0-1.31,0-2.61,0-3.91.15-1.07.1-2.16.05-3.25.11a25.82,25.82,0,0,1-2.78,0,5.23,5.23,0,0,0-2.18.38.52.52,0,0,0-.25.31,1.73,1.73,0,0,0,0,.51q0,1.26,0,2.52c0,.6,0,1.19,0,1.79,0,.88.12,1.77.14,2.66,0,.62,0,1.24-.06,1.86,0,1-.07,2-.12,3-.08,1.34-.18,2.68-.25,4-.06,1.15,0,2.31-.14,3.46-.07.81-.08,1.62-.08,2.42s0,1.34,0,2c0,.46,0,.93,0,1.39s-.06,1.09-.08,1.63c0,1.14,0,2.28-.1,3.43,0,.41-.11.83-.12,1.24a1,1,0,0,0,.45.9,1.91,1.91,0,0,0,.88.22,1.73,1.73,0,0,0,1.1-.06.8.8,0,0,1,.27,0c.62,0,1.25.05,1.88,0,.85-.07,1.7-.18,2.57-.17a23.58,23.58,0,0,0,2.36-.16c.72-.07,1.44-.17,2.16-.24s1.51-.12,2.26-.17,1.39-.11,2.09-.14,1.14,0,1.71,0l1.87-.05c.34,0,.68,0,1-.05s.64.28,1,.08l0,0c.25.19.48,0,.67-.08l.57.41.2-.36,2.12.09,3,.13c1.35.06,2.7.11,4,.2a.76.76,0,0,0,.59-.17,1.54,1.54,0,0,0,.42-1.39,2.32,2.32,0,0,1-.15-1.24,1.82,1.82,0,0,0,0-.87,3.5,3.5,0,0,1-.1-1.25,6.64,6.64,0,0,0,0-1.18c0-.56-.07-1.12-.08-1.68s0-1.29,0-1.93c0-.48,0-1,0-1.44s0-1.22,0-1.83,0-1.43.06-2.15,0-1.51,0-2.26c0-.26,0-.52,0-.79s0-.68-.06-1c0-.8-.07-1.6-.09-2.4,0-.58-.06-1.16,0-1.73.06-.93.1-1.86.07-2.8,0-.67,0-1.35,0-2s0-1.06.06-1.59A12.14,12.14,0,0,1,105,142.85Z" fill="currentColor"/><path d="M33.33,142.85c.16-.56.08-.69-.34-.91a1.1,1.1,0,0,0-1.16,0,2.2,2.2,0,0,1-1.33.33c-1.69,0-3.38-.05-5.08-.08l-1.87,0c-.84,0-1.68-.07-2.52-.06-1.79,0-3.58.11-5.37.16-.81,0-1.62,0-2.43,0-1.3,0-2.6,0-3.91.15-1.07.1-2.16.05-3.25.11a25.6,25.6,0,0,1-2.77,0,5.28,5.28,0,0,0-2.19.38.52.52,0,0,0-.25.31,1.73,1.73,0,0,0,0,.51c0,.84,0,1.68,0,2.52,0,.6,0,1.19,0,1.79,0,.88.11,1.77.13,2.66,0,.62,0,1.24-.05,1.86,0,1-.08,2-.13,3-.08,1.34-.18,2.68-.25,4-.05,1.15,0,2.31-.14,3.46-.07.81-.08,1.62-.08,2.42s-.05,1.34-.05,2c0,.46.05.93.05,1.39s-.06,1.09-.08,1.63c0,1.14-.06,2.28-.11,3.43,0,.41-.11.83-.12,1.24a1,1,0,0,0,.45.9,1.91,1.91,0,0,0,.88.22,1.73,1.73,0,0,0,1.1-.06.8.8,0,0,1,.27,0c.62,0,1.26.05,1.88,0,.86-.07,1.71-.18,2.57-.17a23.38,23.38,0,0,0,2.36-.16c.72-.07,1.44-.17,2.16-.24s1.51-.12,2.27-.17,1.38-.11,2.08-.14,1.14,0,1.72,0l1.86-.05c.34,0,.68,0,1-.05s.64.28,1,.08l0,0c.26.19.48,0,.68-.08l.56.41.2-.36,2.12.09,3,.13c1.35.06,2.7.11,4,.2a.78.78,0,0,0,.6-.17,1.56,1.56,0,0,0,.41-1.39,2.42,2.42,0,0,1-.15-1.24,1.82,1.82,0,0,0,0-.87,3.74,3.74,0,0,1-.1-1.25,7.75,7.75,0,0,0,0-1.18c0-.56-.08-1.12-.09-1.68s0-1.29,0-1.93c0-.48,0-1,0-1.44s0-1.22,0-1.83,0-1.43.06-2.15,0-1.51,0-2.26c0-.26,0-.52,0-.79s0-.68-.06-1l-.09-2.4c0-.58-.06-1.16,0-1.73.06-.93.1-1.86.07-2.8,0-.67,0-1.35,0-2s0-1.06.06-1.59A12.15,12.15,0,0,1,33.33,142.85Z" fill="currentColor"/><path d="M140.61,175.31c.16-.56.08-.69-.34-.91a1.1,1.1,0,0,0-1.16,0,2.2,2.2,0,0,1-1.33.33l-5.07-.08-1.87,0c-.85,0-1.69-.07-2.53-.06-1.79,0-3.57.11-5.36.15-.81,0-1.63,0-2.44,0-1.3,0-2.6,0-3.9.15-1.08.1-2.17,0-3.25.11a25.79,25.79,0,0,1-2.78,0,5.23,5.23,0,0,0-2.18.38.52.52,0,0,0-.26.3,1.77,1.77,0,0,0,0,.52c0,.84,0,1.68,0,2.52,0,.59,0,1.19,0,1.79,0,.88.11,1.77.13,2.65,0,.63,0,1.25,0,1.87,0,1-.07,2-.13,3-.07,1.34-.17,2.68-.24,4-.06,1.15,0,2.31-.15,3.46-.07.81-.08,1.61-.08,2.42s0,1.34-.05,2c0,.47.06.93.05,1.4s-.06,1.08-.08,1.63c0,1.14-.06,2.28-.11,3.42,0,.42-.1.83-.12,1.25a1,1,0,0,0,.45.9,2.09,2.09,0,0,0,.89.22,1.7,1.7,0,0,0,1.09-.06.8.8,0,0,1,.27,0c.63,0,1.26,0,1.88,0a24.65,24.65,0,0,1,2.58-.17,23.19,23.19,0,0,0,2.35-.16c.72-.07,1.44-.18,2.16-.24s1.51-.12,2.27-.17,1.39-.11,2.08-.14,1.15,0,1.72,0l1.86,0c.34,0,.68,0,1-.06s.64.28,1,.09h0c.26.2.48.06.68-.07l.56.41.2-.36,2.12.09,3,.13c1.35.06,2.7.11,4.05.2a.77.77,0,0,0,.6-.17,1.55,1.55,0,0,0,.41-1.4,2.48,2.48,0,0,1-.15-1.23,1.87,1.87,0,0,0,0-.88,3.74,3.74,0,0,1-.1-1.25,7.6,7.6,0,0,0,0-1.17c0-.56-.08-1.12-.09-1.69s0-1.28,0-1.92V197c0-.61,0-1.22,0-1.83s0-1.43.06-2.15l0-2.26c0-.26,0-.53,0-.79s0-.68,0-1c0-.8-.07-1.6-.1-2.41,0-.57-.06-1.15,0-1.72,0-.93.1-1.87.07-2.8,0-.67,0-1.35,0-2s.05-1.06.07-1.59A11.66,11.66,0,0,1,140.61,175.31Z" fill="currentColor"/><path d="M69,177.36c.17-.55.08-.69-.34-.9a1.1,1.1,0,0,0-1.16,0,2.19,2.19,0,0,1-1.33.33c-1.69,0-3.38,0-5.07-.08l-1.87,0c-.84,0-1.69-.07-2.53,0-1.78,0-3.57.1-5.36.15-.81,0-1.62,0-2.43,0-1.31,0-2.61,0-3.91.15-1.08.1-2.17,0-3.25.11a25.82,25.82,0,0,1-2.78,0,5.39,5.39,0,0,0-2.18.38.52.52,0,0,0-.25.31,1.46,1.46,0,0,0-.06.51c0,.84,0,1.68,0,2.52,0,.6,0,1.2,0,1.79,0,.89.12,1.77.14,2.66,0,.62,0,1.24-.06,1.87,0,1-.07,2-.13,3-.07,1.34-.17,2.68-.24,4-.06,1.16-.05,2.32-.15,3.46-.07.81-.08,1.62-.08,2.43,0,.66,0,1.33,0,2,0,.46.05.93,0,1.39s-.06,1.09-.08,1.63c0,1.14-.06,2.29-.1,3.43,0,.41-.11.83-.13,1.24a1,1,0,0,0,.46.9,1.88,1.88,0,0,0,.88.22,1.7,1.7,0,0,0,1.09-.05.62.62,0,0,1,.27-.05c.63,0,1.26.05,1.88,0,.86-.07,1.71-.17,2.58-.16a23.21,23.21,0,0,0,2.35-.17c.72-.06,1.44-.17,2.17-.24s1.51-.11,2.26-.17,1.39-.11,2.09-.13,1.14,0,1.71,0,1.24,0,1.86-.05c.34,0,.69,0,1,0s.63.28,1,.09c0,0,0,0,0,0,.25.2.48.05.67-.08l.56.41.2-.36,2.13.1,3,.12c1.35.06,2.71.12,4.06.21a.84.84,0,0,0,.59-.17,1.53,1.53,0,0,0,.41-1.4,2.52,2.52,0,0,1-.15-1.24,1.82,1.82,0,0,0,0-.87,3.28,3.28,0,0,1-.1-1.25,6.64,6.64,0,0,0,0-1.18c0-.56-.07-1.12-.08-1.68s0-1.28,0-1.92c0-.49,0-1,0-1.45s0-1.22,0-1.83,0-1.43.06-2.15l0-2.26c0-.26,0-.52,0-.78s0-.69-.06-1c0-.81-.07-1.61-.09-2.41,0-.58-.06-1.15,0-1.73.05-.93.1-1.86.07-2.8,0-.67,0-1.34,0-2,0-.53,0-1.06.06-1.59A11.74,11.74,0,0,1,69,177.36Z" fill="currentColor"/><path d="M106,212.13c.17-.55.09-.69-.33-.91a1.12,1.12,0,0,0-1.17,0,2.16,2.16,0,0,1-1.32.33c-1.69,0-3.39-.05-5.08-.08l-1.87,0c-.84,0-1.68-.07-2.52-.06-1.79,0-3.58.11-5.37.16-.81,0-1.62,0-2.43,0-1.31,0-2.61,0-3.91.15-1.07.1-2.16.05-3.25.11a25.82,25.82,0,0,1-2.78,0,5.23,5.23,0,0,0-2.18.38.52.52,0,0,0-.25.31,1.73,1.73,0,0,0,0,.51q0,1.26,0,2.52c0,.6,0,1.19,0,1.79,0,.89.12,1.77.14,2.66,0,.62,0,1.24-.06,1.86,0,1-.07,2-.12,3-.08,1.34-.18,2.68-.25,4-.06,1.16,0,2.31-.14,3.46-.07.81-.08,1.62-.08,2.42s0,1.34,0,2c0,.46,0,.93,0,1.39s-.06,1.09-.08,1.63c0,1.14,0,2.28-.1,3.43,0,.41-.11.83-.12,1.24a1,1,0,0,0,.45.9,1.91,1.91,0,0,0,.88.22,1.73,1.73,0,0,0,1.1-.06.8.8,0,0,1,.27,0c.62,0,1.25.05,1.88,0,.85-.07,1.7-.18,2.57-.17a23.58,23.58,0,0,0,2.36-.16c.72-.07,1.44-.17,2.16-.24s1.51-.12,2.26-.17,1.39-.11,2.09-.14,1.14,0,1.71,0l1.87-.05c.34,0,.68,0,1-.05s.64.28,1,.08l0,0c.25.19.48,0,.67-.08l.57.41.2-.36,2.12.09,3,.13c1.35.06,2.7.11,4,.2a.76.76,0,0,0,.59-.17,1.54,1.54,0,0,0,.42-1.39,2.32,2.32,0,0,1-.15-1.24,1.82,1.82,0,0,0,0-.87,3.5,3.5,0,0,1-.1-1.25,6.64,6.64,0,0,0,0-1.18c0-.56-.07-1.12-.08-1.68s0-1.28,0-1.93c0-.48,0-1,0-1.44s0-1.22,0-1.83,0-1.43.06-2.15,0-1.51,0-2.26c0-.26,0-.52,0-.79s0-.68-.06-1c0-.81-.07-1.61-.09-2.41,0-.58-.06-1.16,0-1.73.06-.93.1-1.86.07-2.8,0-.67,0-1.35,0-2s0-1.06.06-1.59A12.14,12.14,0,0,1,106,212.13Z" fill="currentColor"/><path d="M33.33,214.18c.16-.55.08-.69-.34-.9a1.12,1.12,0,0,0-1.16,0,2.14,2.14,0,0,1-1.33.33c-1.69,0-3.38-.05-5.08-.08l-1.87,0c-.84,0-1.68-.08-2.52-.06-1.79,0-3.58.11-5.37.15-.81,0-1.62,0-2.43,0-1.3,0-2.6,0-3.91.15-1.07.11-2.16.05-3.25.12-.92,0-1.85,0-2.77-.05a5.44,5.44,0,0,0-2.19.38.56.56,0,0,0-.25.31,1.73,1.73,0,0,0,0,.51c0,.84,0,1.68,0,2.53,0,.59,0,1.19,0,1.78,0,.89.11,1.77.13,2.66,0,.62,0,1.25-.05,1.87,0,1-.08,2-.13,3-.08,1.35-.18,2.68-.25,4-.05,1.15,0,2.31-.14,3.46-.07.81-.08,1.61-.08,2.42s-.05,1.33-.05,2c0,.47.05.93.05,1.4s-.06,1.08-.08,1.62c0,1.15-.06,2.29-.11,3.43,0,.42-.11.83-.12,1.25a1,1,0,0,0,.45.9,2.2,2.2,0,0,0,.88.22,1.73,1.73,0,0,0,1.1-.06.61.61,0,0,1,.27,0c.62,0,1.26,0,1.88,0,.86-.07,1.71-.17,2.57-.16a23.38,23.38,0,0,0,2.36-.16c.72-.07,1.44-.18,2.16-.25s1.51-.11,2.27-.17,1.38-.11,2.08-.13,1.14,0,1.72,0,1.24,0,1.86,0c.34,0,.68,0,1-.05s.64.28,1,.09c0,0,0,0,0,0,.26.2.48.06.68-.07l.56.4.2-.35,2.12.09,3,.12c1.35.07,2.7.12,4,.21a.82.82,0,0,0,.6-.17,1.59,1.59,0,0,0,.41-1.4,2.4,2.4,0,0,1-.15-1.24,1.82,1.82,0,0,0,0-.87,3.74,3.74,0,0,1-.1-1.25,7.62,7.62,0,0,0,0-1.17c0-.57-.08-1.13-.09-1.69s0-1.28,0-1.92c0-.48,0-1,0-1.44s0-1.22,0-1.83,0-1.44.06-2.16,0-1.5,0-2.25c0-.27,0-.53,0-.79s0-.69-.06-1L33,225.38c0-.57-.06-1.15,0-1.72.06-.94.1-1.87.07-2.8,0-.68,0-1.35,0-2s0-1.07.06-1.6A12.19,12.19,0,0,1,33.33,214.18Z" fill="currentColor"/><path d="M141.29,247.93c.17-.56.09-.69-.33-.91a1.12,1.12,0,0,0-1.17,0,2.1,2.1,0,0,1-1.32.32c-1.7,0-3.39,0-5.08-.08l-1.87,0c-.84,0-1.68-.08-2.52-.06-1.79,0-3.58.11-5.37.15-.81,0-1.62,0-2.43,0-1.31,0-2.61,0-3.91.15-1.08.1-2.16,0-3.25.11-.92,0-1.85,0-2.78-.05a5.4,5.4,0,0,0-2.18.39.5.5,0,0,0-.25.3,2.16,2.16,0,0,0-.06.51c0,.84,0,1.69,0,2.53,0,.59,0,1.19,0,1.78,0,.89.12,1.78.14,2.66,0,.62,0,1.25-.06,1.87,0,1-.07,2-.13,3-.07,1.34-.17,2.68-.24,4-.06,1.15,0,2.31-.14,3.46a21.74,21.74,0,0,0-.08,2.42c0,.67,0,1.34,0,2,0,.47,0,.93,0,1.4s-.06,1.08-.08,1.62c0,1.15-.06,2.29-.1,3.43,0,.42-.11.83-.13,1.25a1,1,0,0,0,.46.9,2.2,2.2,0,0,0,.88.22,1.73,1.73,0,0,0,1.1-.06.57.57,0,0,1,.26,0c.63,0,1.26.05,1.89,0,.85-.07,1.7-.17,2.57-.16a23.19,23.19,0,0,0,2.35-.16c.73-.07,1.45-.18,2.17-.25s1.51-.11,2.26-.16,1.39-.12,2.09-.14,1.14,0,1.71,0,1.24,0,1.87,0l1-.06c.33,0,.64.28,1,.09,0,0,0,0,.05,0,.25.2.48.06.67-.07l.56.4.21-.35,2.12.09,3,.13c1.36.06,2.71.11,4.06.2a.76.76,0,0,0,.59-.17,1.53,1.53,0,0,0,.41-1.4,2.39,2.39,0,0,1-.14-1.24,2,2,0,0,0,0-.87,3.5,3.5,0,0,1-.1-1.25,6.52,6.52,0,0,0,0-1.17c0-.56-.07-1.13-.08-1.69s0-1.28,0-1.92c0-.48,0-1,0-1.44s0-1.22,0-1.83,0-1.44.06-2.15,0-1.51,0-2.26c0-.27,0-.53,0-.79s0-.69-.06-1c0-.8-.07-1.61-.09-2.41,0-.57-.06-1.15,0-1.72.06-.94.1-1.87.07-2.8,0-.68,0-1.35,0-2s.05-1.06.06-1.59A11.66,11.66,0,0,1,141.29,247.93Z" fill="currentColor"/><path d="M69.66,250c.16-.56.08-.69-.34-.91a1.1,1.1,0,0,0-1.16,0,2.2,2.2,0,0,1-1.33.33c-1.69,0-3.39,0-5.08-.08l-1.87,0c-.84,0-1.68-.07-2.52-.06-1.79,0-3.58.11-5.37.16-.81,0-1.62,0-2.43,0-1.3,0-2.6,0-3.91.15-1.07.1-2.16,0-3.25.11a25.82,25.82,0,0,1-2.78,0,5.23,5.23,0,0,0-2.18.38.52.52,0,0,0-.25.31,1.73,1.73,0,0,0,0,.51q0,1.26,0,2.52c0,.6,0,1.19,0,1.79,0,.88.12,1.77.14,2.66,0,.62,0,1.24-.06,1.86,0,1-.07,2-.12,3-.08,1.34-.18,2.68-.25,4-.06,1.15,0,2.31-.14,3.46-.07.81-.08,1.62-.08,2.42s-.05,1.34-.05,2c0,.46.05.93.05,1.39s-.07,1.09-.08,1.63c0,1.14-.06,2.28-.11,3.43,0,.41-.11.83-.12,1.24a1,1,0,0,0,.45.9,1.91,1.91,0,0,0,.88.22,1.73,1.73,0,0,0,1.1-.06.8.8,0,0,1,.27,0c.62,0,1.25.05,1.88,0,.85-.07,1.71-.18,2.57-.17a23.38,23.38,0,0,0,2.36-.16l2.16-.24c.75-.07,1.51-.12,2.26-.17s1.39-.11,2.09-.14,1.14,0,1.72,0l1.86,0c.34,0,.68,0,1-.05s.64.28,1,.08l0,0c.25.19.48.05.67-.08l.57.41.2-.36,2.12.09,3,.13c1.35.06,2.7.11,4,.2a.78.78,0,0,0,.6-.17,1.56,1.56,0,0,0,.41-1.39,2.32,2.32,0,0,1-.15-1.24,1.82,1.82,0,0,0,0-.87,3.74,3.74,0,0,1-.1-1.25,7.75,7.75,0,0,0,0-1.18c0-.56-.08-1.12-.09-1.68s0-1.29,0-1.93c0-.48,0-1,0-1.44s0-1.22,0-1.83,0-1.43.06-2.15,0-1.51,0-2.26c0-.26,0-.52,0-.79s0-.68-.06-1l-.09-2.4c0-.58-.06-1.16,0-1.73.06-.93.1-1.86.07-2.8,0-.67,0-1.35,0-2s0-1.06.06-1.59A11.71,11.71,0,0,1,69.66,250Z" fill="currentColor"/><path d="M247.75,141.31c.16-.56.08-.69-.34-.91a1.1,1.1,0,0,0-1.16,0,2.2,2.2,0,0,1-1.33.33l-5.07-.08-1.87,0c-.85,0-1.69-.07-2.53-.06-1.79,0-3.57.11-5.36.15-.81,0-1.63,0-2.44,0-1.3,0-2.6,0-3.9.15-1.08.1-2.17.05-3.25.11a25.75,25.75,0,0,1-2.78,0,5.23,5.23,0,0,0-2.18.38.54.54,0,0,0-.26.31,1.7,1.7,0,0,0-.05.51c0,.84,0,1.68,0,2.52,0,.6,0,1.19,0,1.79,0,.88.11,1.77.13,2.66,0,.62,0,1.24,0,1.86,0,1-.07,2-.13,3-.07,1.34-.17,2.68-.24,4-.06,1.15-.05,2.31-.15,3.46-.07.81-.08,1.61-.08,2.42s0,1.34,0,2c0,.46.06.93,0,1.39s-.06,1.08-.08,1.63c0,1.14-.06,2.28-.11,3.43,0,.41-.1.82-.12,1.24a1,1,0,0,0,.45.9,2,2,0,0,0,.89.22,1.7,1.7,0,0,0,1.09-.06.8.8,0,0,1,.27,0c.63,0,1.26,0,1.88,0,.86-.07,1.71-.18,2.57-.17a23.19,23.19,0,0,0,2.36-.16c.72-.07,1.44-.18,2.16-.24s1.51-.12,2.27-.17,1.39-.11,2.08-.14,1.15,0,1.72,0l1.86,0c.34,0,.68,0,1-.05s.64.27,1,.08h0c.26.2.48.06.68-.07l.56.41.2-.36,2.12.09,3,.13c1.35.06,2.7.11,4.05.2a.77.77,0,0,0,.6-.17,1.53,1.53,0,0,0,.41-1.39,2.53,2.53,0,0,1-.15-1.24,1.87,1.87,0,0,0,0-.88,3.7,3.7,0,0,1-.1-1.25,7.6,7.6,0,0,0,0-1.17c0-.56-.08-1.12-.09-1.68s0-1.29,0-1.93V163q0-.91,0-1.83c0-.72,0-1.43.06-2.15l0-2.26c0-.26,0-.52,0-.79s0-.68-.05-1c0-.8-.07-1.6-.1-2.41,0-.57-.06-1.15,0-1.72.05-.93.1-1.86.07-2.8,0-.67,0-1.35,0-2s.05-1.06.07-1.59A11.66,11.66,0,0,1,247.75,141.31Z" fill="currentColor"/><path d="M176.11,141.31c.17-.56.08-.69-.34-.91a1.1,1.1,0,0,0-1.16,0,2.19,2.19,0,0,1-1.33.33l-5.07-.08-1.87,0c-.84,0-1.69-.07-2.53-.06-1.78,0-3.57.11-5.36.15-.81,0-1.62,0-2.43,0-1.31,0-2.61,0-3.91.15-1.08.1-2.17.05-3.25.11a25.82,25.82,0,0,1-2.78,0,5.23,5.23,0,0,0-2.18.38.52.52,0,0,0-.25.31,1.43,1.43,0,0,0-.06.51c0,.84,0,1.68,0,2.52,0,.6,0,1.19,0,1.79,0,.88.12,1.77.14,2.66,0,.62,0,1.24-.06,1.86,0,1-.07,2-.13,3-.07,1.34-.17,2.68-.24,4-.06,1.15,0,2.31-.15,3.46-.07.81-.08,1.61-.08,2.42s0,1.34,0,2c0,.46,0,.93,0,1.39s-.06,1.08-.08,1.63c0,1.14-.06,2.28-.1,3.43,0,.41-.11.82-.13,1.24a1,1,0,0,0,.46.9,1.88,1.88,0,0,0,.88.22,1.7,1.7,0,0,0,1.09-.06.8.8,0,0,1,.27,0c.63,0,1.26,0,1.88,0,.86-.07,1.71-.18,2.58-.17a23.19,23.19,0,0,0,2.35-.16c.72-.07,1.44-.18,2.17-.24s1.51-.12,2.26-.17,1.39-.11,2.08-.14,1.15,0,1.72,0l1.86,0c.34,0,.69,0,1-.05s.63.27,1,.08h.05c.25.2.48.06.67-.07l.56.41.2-.36,2.13.09,3,.13c1.35.06,2.71.11,4.06.2a.76.76,0,0,0,.59-.17,1.53,1.53,0,0,0,.41-1.39,2.53,2.53,0,0,1-.15-1.24,1.87,1.87,0,0,0,0-.88,3.25,3.25,0,0,1-.1-1.25,6.52,6.52,0,0,0,0-1.17c0-.56-.07-1.12-.08-1.68s0-1.29,0-1.93c0-.48,0-1,0-1.44s0-1.22,0-1.83,0-1.43.06-2.15l0-2.26c0-.26,0-.52,0-.79s0-.68-.06-1c0-.8-.07-1.6-.09-2.41,0-.57-.06-1.15,0-1.72,0-.93.1-1.86.07-2.8,0-.67,0-1.35,0-2s0-1.06.06-1.59A11.66,11.66,0,0,1,176.11,141.31Z" fill="currentColor"/><path d="M283.39,179.77c.17-.56.09-.69-.33-.91a1.12,1.12,0,0,0-1.17,0,2.08,2.08,0,0,1-1.32.32c-1.69,0-3.39-.05-5.08-.08l-1.87,0c-.84,0-1.68-.07-2.52-.06-1.79,0-3.58.11-5.37.15-.81,0-1.62,0-2.43,0-1.31,0-2.61,0-3.91.15-1.07.1-2.16,0-3.25.11a25.82,25.82,0,0,1-2.78,0,5.23,5.23,0,0,0-2.18.38.5.5,0,0,0-.25.3,1.77,1.77,0,0,0-.05.52q0,1.26,0,2.52c0,.59,0,1.19,0,1.79,0,.88.12,1.77.14,2.65,0,.63,0,1.25-.06,1.87,0,1-.07,2-.12,3-.08,1.34-.18,2.68-.25,4-.06,1.15,0,2.31-.14,3.46-.07.81-.08,1.61-.08,2.42s0,1.34,0,2c0,.47,0,.93,0,1.4s-.06,1.08-.08,1.63c0,1.14,0,2.28-.1,3.42,0,.42-.11.83-.12,1.25a1,1,0,0,0,.45.9,2,2,0,0,0,.88.22,1.73,1.73,0,0,0,1.1-.06.8.8,0,0,1,.27,0c.62,0,1.25,0,1.88,0a24.28,24.28,0,0,1,2.57-.17,23.58,23.58,0,0,0,2.36-.16c.72-.07,1.44-.18,2.16-.24s1.51-.12,2.26-.17,1.39-.12,2.09-.14,1.14,0,1.71,0l1.87-.05c.34,0,.68,0,1-.06s.64.28,1,.09h.05c.25.2.48.06.67-.07l.57.41.2-.36,2.12.09,3,.13c1.35.06,2.7.11,4,.2a.76.76,0,0,0,.59-.17,1.55,1.55,0,0,0,.42-1.4,2.27,2.27,0,0,1-.15-1.23,1.86,1.86,0,0,0,0-.88,3.5,3.5,0,0,1-.1-1.25,6.52,6.52,0,0,0,0-1.17c0-.56-.07-1.12-.08-1.69s0-1.28,0-1.92c0-.48,0-1,0-1.44s0-1.22,0-1.83.05-1.44.06-2.15,0-1.51,0-2.26c0-.26,0-.53,0-.79s0-.68-.06-1c0-.8-.07-1.6-.09-2.41,0-.57-.06-1.15,0-1.72.06-.93.1-1.87.07-2.8,0-.67,0-1.35,0-2s.05-1.06.06-1.59A12.1,12.1,0,0,1,283.39,179.77Z" fill="currentColor"/><path d="M211.76,175.82c.16-.55.08-.69-.34-.9a1.08,1.08,0,0,0-1.16,0,2.2,2.2,0,0,1-1.33.33c-1.69,0-3.38-.05-5.08-.08l-1.87,0c-.84,0-1.68-.07-2.52,0-1.79,0-3.58.1-5.37.15-.81,0-1.62,0-2.43,0-1.3,0-2.6,0-3.91.15-1.07.1-2.16.05-3.25.11a25.6,25.6,0,0,1-2.77,0,5.28,5.28,0,0,0-2.19.38.52.52,0,0,0-.25.31,1.73,1.73,0,0,0,0,.51c0,.84,0,1.68,0,2.52,0,.6,0,1.19,0,1.79,0,.89.11,1.77.13,2.66,0,.62,0,1.24,0,1.87,0,1-.08,2-.13,3-.08,1.34-.18,2.68-.25,4-.05,1.16,0,2.31-.14,3.46-.07.81-.08,1.62-.08,2.43s-.05,1.33-.05,2c0,.46.05.93.05,1.39s-.06,1.09-.08,1.63c0,1.14-.06,2.29-.11,3.43,0,.41-.11.83-.12,1.24a1,1,0,0,0,.45.9,1.91,1.91,0,0,0,.88.22,1.73,1.73,0,0,0,1.1,0,.62.62,0,0,1,.27-.05c.62,0,1.26.05,1.88,0,.86-.07,1.71-.17,2.57-.17a20.79,20.79,0,0,0,2.36-.16c.72-.06,1.44-.17,2.16-.24s1.51-.12,2.27-.17,1.38-.11,2.08-.14,1.14,0,1.72,0,1.24,0,1.86-.05c.34,0,.68,0,1-.05s.64.28,1,.09c0,0,0,0,0,0,.26.2.48,0,.68-.08l.56.41.2-.36,2.12.09,3,.13c1.35.06,2.7.11,4,.21a.83.83,0,0,0,.6-.18,1.56,1.56,0,0,0,.41-1.39,2.42,2.42,0,0,1-.15-1.24,1.82,1.82,0,0,0,0-.87,3.74,3.74,0,0,1-.1-1.25,7.75,7.75,0,0,0,0-1.18c0-.56-.08-1.12-.09-1.68s0-1.28,0-1.93c0-.48,0-1,0-1.44s0-1.22,0-1.83,0-1.43.06-2.15,0-1.5,0-2.26c0-.26,0-.52,0-.78s0-.69-.06-1l-.09-2.41c0-.58-.06-1.16,0-1.73.06-.93.1-1.86.07-2.8,0-.67,0-1.34,0-2,0-.53,0-1.06.06-1.59A12.15,12.15,0,0,1,211.76,175.82Z" fill="currentColor"/><path d="M248.77,210.59c.16-.56.08-.69-.34-.91a1.1,1.1,0,0,0-1.16,0,2.2,2.2,0,0,1-1.33.33c-1.69,0-3.38-.05-5.07-.08l-1.87,0c-.85,0-1.69-.07-2.53-.06-1.79,0-3.57.11-5.36.16-.81,0-1.63,0-2.44,0-1.3,0-2.6,0-3.9.15-1.08.1-2.17.05-3.25.11a25.75,25.75,0,0,1-2.78,0,5.23,5.23,0,0,0-2.18.38.54.54,0,0,0-.26.31,1.73,1.73,0,0,0-.05.51c0,.84,0,1.68,0,2.52,0,.6,0,1.19,0,1.79,0,.88.11,1.77.13,2.66,0,.62,0,1.24-.05,1.86,0,1-.07,2-.13,3-.07,1.34-.17,2.68-.24,4-.06,1.15,0,2.31-.15,3.46-.07.81-.08,1.61-.08,2.42s0,1.34-.05,2c0,.46.06.93.05,1.39s-.06,1.09-.08,1.63c0,1.14-.06,2.28-.11,3.43,0,.41-.1.83-.12,1.24a1,1,0,0,0,.45.9,2,2,0,0,0,.89.22,1.7,1.7,0,0,0,1.09-.06.8.8,0,0,1,.27,0c.63,0,1.26,0,1.88,0,.86-.07,1.71-.18,2.57-.17a23.19,23.19,0,0,0,2.36-.16c.72-.07,1.44-.18,2.16-.24s1.51-.12,2.27-.17,1.39-.11,2.08-.14,1.15,0,1.72,0l1.86,0c.34,0,.68,0,1-.05s.64.28,1,.08l0,0c.26.19.48.05.68-.08l.56.41.2-.36,2.12.09,3,.13c1.35.06,2.7.11,4.05.2a.77.77,0,0,0,.6-.17,1.53,1.53,0,0,0,.41-1.39,2.53,2.53,0,0,1-.15-1.24,1.87,1.87,0,0,0,0-.88,3.66,3.66,0,0,1-.1-1.24,7.75,7.75,0,0,0,0-1.18c0-.56-.08-1.12-.09-1.68s0-1.29,0-1.93v-1.44q0-.92,0-1.83c0-.72,0-1.43.06-2.15l0-2.26c0-.26,0-.52,0-.79s0-.68,0-1c0-.8-.07-1.6-.1-2.4,0-.58-.06-1.16,0-1.73,0-.93.1-1.86.07-2.8,0-.67,0-1.35,0-2s.05-1.06.07-1.59A11.7,11.7,0,0,1,248.77,210.59Z" fill="currentColor"/><path d="M176.11,212.64c.17-.55.08-.69-.34-.9a1.12,1.12,0,0,0-1.16,0,2.12,2.12,0,0,1-1.33.33c-1.69,0-3.38,0-5.07-.08l-1.87,0c-.84,0-1.69-.08-2.53-.06-1.78,0-3.57.1-5.36.15-.81,0-1.62,0-2.43,0-1.31,0-2.61,0-3.91.15-1.08.11-2.17,0-3.25.12-.92,0-1.85,0-2.78-.05a5.39,5.39,0,0,0-2.18.38.56.56,0,0,0-.25.31,1.46,1.46,0,0,0-.06.51c0,.84,0,1.68,0,2.52,0,.6,0,1.2,0,1.79,0,.89.12,1.77.14,2.66,0,.62,0,1.25-.06,1.87,0,1-.07,2-.13,3-.07,1.34-.17,2.68-.24,4-.06,1.15,0,2.31-.15,3.46-.07.81-.08,1.61-.08,2.42s0,1.33,0,2c0,.47,0,.93,0,1.39s-.06,1.09-.08,1.63c0,1.14-.06,2.29-.1,3.43,0,.42-.11.83-.13,1.25a1,1,0,0,0,.46.9,2.16,2.16,0,0,0,.88.22,1.7,1.7,0,0,0,1.09-.06.61.61,0,0,1,.27,0c.63,0,1.26,0,1.88,0,.86-.07,1.71-.17,2.58-.16a23.19,23.19,0,0,0,2.35-.16c.72-.07,1.44-.18,2.17-.25s1.51-.11,2.26-.17,1.39-.11,2.08-.13,1.15,0,1.72,0,1.24,0,1.86-.05c.34,0,.69,0,1,0s.63.28,1,.09c0,0,0,0,.05,0,.25.2.48.05.67-.08l.56.41.2-.35,2.13.09,3,.12c1.35.06,2.71.12,4.06.21a.84.84,0,0,0,.59-.17,1.56,1.56,0,0,0,.41-1.4,2.51,2.51,0,0,1-.15-1.24,1.82,1.82,0,0,0,0-.87,3.28,3.28,0,0,1-.1-1.25,6.53,6.53,0,0,0,0-1.17c0-.57-.07-1.13-.08-1.69s0-1.28,0-1.92c0-.48,0-1,0-1.44s0-1.23,0-1.84,0-1.43.06-2.15l0-2.25c0-.27,0-.53,0-.79s0-.69-.06-1c0-.8-.07-1.61-.09-2.41,0-.58-.06-1.15,0-1.73,0-.93.1-1.86.07-2.79,0-.68,0-1.35,0-2s0-1.07.06-1.6A11.74,11.74,0,0,1,176.11,212.64Z" fill="currentColor"/><path d="M284.08,250.39c.16-.56.08-.69-.34-.91a1.1,1.1,0,0,0-1.16,0,2.13,2.13,0,0,1-1.33.32c-1.69,0-3.38-.05-5.07-.08l-1.88,0c-.84,0-1.68-.08-2.52-.06-1.79,0-3.58.11-5.36.15-.82,0-1.63,0-2.44,0-1.3,0-2.6,0-3.9.15-1.08.1-2.17,0-3.25.11-.93.05-1.86,0-2.78,0a5.48,5.48,0,0,0-2.19.39.54.54,0,0,0-.25.3,1.73,1.73,0,0,0-.05.51v2.53c0,.59,0,1.19.05,1.78,0,.89.11,1.78.13,2.66,0,.62,0,1.25-.05,1.87,0,1-.08,2-.13,3-.07,1.34-.18,2.68-.24,4-.06,1.15,0,2.31-.15,3.46-.07.81-.08,1.61-.08,2.42s0,1.33-.05,2c0,.47.05.93.05,1.4S251,277.43,251,278c0,1.15-.06,2.29-.11,3.43,0,.42-.1.83-.12,1.25a1,1,0,0,0,.45.9,2.2,2.2,0,0,0,.88.22,1.73,1.73,0,0,0,1.1-.06.61.61,0,0,1,.27,0c.63,0,1.26.05,1.88,0,.86-.07,1.71-.17,2.57-.16a23.19,23.19,0,0,0,2.36-.16c.72-.07,1.44-.18,2.16-.25s1.51-.11,2.27-.16,1.39-.12,2.08-.14,1.15,0,1.72,0,1.24,0,1.86,0c.34,0,.68,0,1-.06s.64.28,1,.09c0,0,0,0,0,0,.26.2.48.06.68-.07l.56.4.2-.35,2.12.09,3,.12c1.35.07,2.7.12,4.05.21a.77.77,0,0,0,.6-.17,1.56,1.56,0,0,0,.41-1.4,2.4,2.4,0,0,1-.15-1.24,1.82,1.82,0,0,0,0-.87,3.74,3.74,0,0,1-.1-1.25,7.6,7.6,0,0,0,0-1.17c0-.56-.08-1.13-.09-1.69s0-1.28,0-1.92c0-.48,0-1,0-1.44s0-1.22,0-1.83,0-1.44.06-2.15l0-2.26c0-.27,0-.53,0-.79s0-.69-.05-1c0-.8-.07-1.61-.1-2.41a16.45,16.45,0,0,1,0-1.72c.05-.94.09-1.87.06-2.8,0-.68,0-1.35,0-2s.05-1.06.07-1.6A11.62,11.62,0,0,1,284.08,250.39Z" fill="currentColor"/><path d="M212.44,248.44c.16-.56.08-.69-.34-.91a1.1,1.1,0,0,0-1.16,0,2.19,2.19,0,0,1-1.33.33l-5.07-.08-1.87,0c-.84,0-1.69-.07-2.53-.06-1.79,0-3.57.11-5.36.15-.81,0-1.62,0-2.44,0-1.3,0-2.6,0-3.9.15-1.08.1-2.17.05-3.25.11a25.82,25.82,0,0,1-2.78,0,5.23,5.23,0,0,0-2.18.38.49.49,0,0,0-.25.31,1.43,1.43,0,0,0-.06.51c0,.84,0,1.68,0,2.52,0,.6,0,1.19,0,1.79,0,.88.11,1.77.14,2.66,0,.62,0,1.24-.06,1.86,0,1-.07,2-.13,3-.07,1.34-.17,2.68-.24,4-.06,1.15-.05,2.31-.15,3.46-.07.81-.08,1.61-.08,2.42s0,1.34,0,2c0,.46.05.93,0,1.39s-.06,1.08-.08,1.63c0,1.14-.06,2.28-.1,3.43,0,.41-.11.82-.13,1.24a1,1,0,0,0,.46.9,1.88,1.88,0,0,0,.88.22,1.7,1.7,0,0,0,1.09-.06.8.8,0,0,1,.27,0c.63,0,1.26,0,1.88,0,.86-.07,1.71-.18,2.58-.17a23.19,23.19,0,0,0,2.35-.16c.72-.07,1.44-.18,2.16-.24s1.51-.12,2.27-.17,1.39-.11,2.08-.14,1.15,0,1.72,0l1.86-.05c.34,0,.68,0,1-.05s.64.27,1,.08h0c.26.2.49.06.68-.07l.56.41.2-.36,2.13.09,3,.13c1.35.06,2.7.11,4.05.2a.77.77,0,0,0,.6-.17,1.53,1.53,0,0,0,.41-1.39,2.53,2.53,0,0,1-.15-1.24,1.87,1.87,0,0,0,0-.88,3.22,3.22,0,0,1-.1-1.24,9.29,9.29,0,0,0,0-1.18c0-.56-.08-1.12-.08-1.68s0-1.29,0-1.93V270.1c0-.61,0-1.22,0-1.83s0-1.43.06-2.15l0-2.26c0-.26,0-.52,0-.79s0-.68-.05-1c0-.8-.07-1.6-.1-2.41,0-.57-.06-1.15,0-1.72.05-.93.1-1.86.07-2.8,0-.67,0-1.35,0-2s0-1.06.06-1.59A11.66,11.66,0,0,1,212.44,248.44Z" fill="currentColor"/><path d="M-.07,179.77c.16-.56.08-.69-.34-.91a1.1,1.1,0,0,0-1.16,0,2.11,2.11,0,0,1-1.33.32c-1.69,0-3.38-.05-5.07-.08l-1.87,0c-.85,0-1.69-.07-2.53-.06-1.79,0-3.57.11-5.36.15-.81,0-1.63,0-2.44,0-1.3,0-2.6,0-3.9.15-1.08.1-2.17,0-3.25.11a25.79,25.79,0,0,1-2.78,0,5.23,5.23,0,0,0-2.18.38.47.47,0,0,0-.25.3,1.49,1.49,0,0,0-.06.52c0,.84,0,1.68,0,2.52,0,.59,0,1.19,0,1.79,0,.88.11,1.77.14,2.65,0,.63,0,1.25-.06,1.87,0,1-.07,2-.13,3-.07,1.34-.17,2.68-.24,4-.06,1.15-.05,2.31-.15,3.46-.07.81-.08,1.61-.08,2.42s0,1.34,0,2c0,.47.06.93,0,1.4s-.06,1.08-.08,1.63c0,1.14-.06,2.28-.1,3.42,0,.42-.11.83-.13,1.25a1,1,0,0,0,.46.9,2,2,0,0,0,.88.22,1.7,1.7,0,0,0,1.09-.06.8.8,0,0,1,.27,0c.63,0,1.26,0,1.88,0a24.65,24.65,0,0,1,2.58-.17,23.19,23.19,0,0,0,2.35-.16c.72-.07,1.44-.18,2.16-.24s1.51-.12,2.27-.17,1.39-.12,2.08-.14,1.15,0,1.72,0l1.86-.05c.34,0,.68,0,1-.06s.64.28,1,.09h0c.26.2.48.06.68-.07l.56.41.2-.36,2.13.09,3,.13c1.35.06,2.7.11,4.05.2a.77.77,0,0,0,.6-.17A1.55,1.55,0,0,0-.06,211a2.48,2.48,0,0,1-.15-1.23,1.86,1.86,0,0,0,0-.88,3.74,3.74,0,0,1-.1-1.25,7.6,7.6,0,0,0,0-1.17c0-.56-.08-1.12-.09-1.69s0-1.28,0-1.92v-1.44c0-.61,0-1.22,0-1.83s0-1.44.06-2.15l0-2.26c0-.26,0-.53,0-.79s0-.68,0-1c0-.8-.07-1.6-.1-2.41,0-.57-.06-1.15,0-1.72,0-.93.1-1.87.07-2.8,0-.67,0-1.35,0-2s.05-1.06.07-1.59A11.66,11.66,0,0,1-.07,179.77Z" fill="currentColor"/><path d="M.61,250.39c.17-.56.09-.69-.33-.91a1.12,1.12,0,0,0-1.17,0,2.08,2.08,0,0,1-1.32.32c-1.7,0-3.39-.05-5.08-.08l-1.87,0c-.84,0-1.68-.08-2.52-.06-1.79,0-3.58.11-5.37.15-.81,0-1.62,0-2.43,0-1.31,0-2.61,0-3.91.15-1.08.1-2.16,0-3.25.11-.92.05-1.85,0-2.78,0a5.4,5.4,0,0,0-2.18.39.5.5,0,0,0-.25.3,1.73,1.73,0,0,0,0,.51c0,.84,0,1.69,0,2.53,0,.59,0,1.19,0,1.78,0,.89.12,1.78.14,2.66,0,.62,0,1.25-.06,1.87,0,1-.07,2-.12,3-.08,1.34-.18,2.68-.25,4-.06,1.15,0,2.31-.14,3.46-.07.81-.08,1.61-.08,2.42s-.05,1.33-.05,2c0,.47.05.93,0,1.4s-.06,1.08-.08,1.62c0,1.15-.06,2.29-.1,3.43,0,.42-.11.83-.12,1.25a1,1,0,0,0,.45.9,2.2,2.2,0,0,0,.88.22,1.73,1.73,0,0,0,1.1-.06.57.57,0,0,1,.26,0c.63,0,1.26.05,1.89,0,.85-.07,1.7-.17,2.57-.16a23.19,23.19,0,0,0,2.35-.16c.73-.07,1.45-.18,2.17-.25s1.51-.11,2.26-.16,1.39-.12,2.09-.14,1.14,0,1.71,0,1.25,0,1.87,0c.34,0,.68,0,1-.06s.64.28,1,.09c0,0,0,0,.05,0,.25.2.48.06.67-.07l.56.4.21-.35,2.12.09,3,.12c1.35.07,2.7.12,4.05.21A.76.76,0,0,0,.21,283a1.53,1.53,0,0,0,.41-1.4,2.39,2.39,0,0,1-.14-1.24,2,2,0,0,0,0-.87,3.5,3.5,0,0,1-.1-1.25,6.52,6.52,0,0,0,0-1.17c0-.56-.07-1.13-.08-1.69s0-1.28,0-1.92c0-.48,0-1,0-1.44s0-1.22,0-1.83.05-1.44.06-2.15,0-1.51,0-2.26c0-.27,0-.53,0-.79s0-.69-.06-1c0-.8-.07-1.61-.09-2.41,0-.57-.06-1.15,0-1.72.06-.94.1-1.87.07-2.8,0-.68,0-1.35,0-2s.05-1.06.06-1.6A11.62,11.62,0,0,1,.61,250.39Z" fill="currentColor"/><path d="M284.08-33.08c.16-.55.08-.69-.34-.91a1.1,1.1,0,0,0-1.16,0,2.2,2.2,0,0,1-1.33.33c-1.69,0-3.38-.05-5.07-.08l-1.88,0c-.84,0-1.68-.07-2.52-.06-1.79,0-3.58.11-5.36.16-.82,0-1.63,0-2.44,0-1.3,0-2.6,0-3.9.15-1.08.1-2.17,0-3.25.11a25.75,25.75,0,0,1-2.78,0,5.3,5.3,0,0,0-2.19.38.56.56,0,0,0-.25.31,1.73,1.73,0,0,0-.05.51v2.52c0,.6,0,1.19.05,1.79,0,.89.11,1.77.13,2.66,0,.62,0,1.24-.05,1.86,0,1-.08,2-.13,3-.07,1.34-.18,2.68-.24,4-.06,1.16,0,2.31-.15,3.46-.07.81-.08,1.62-.08,2.42s0,1.34-.05,2c0,.46.05.93.05,1.39S251-6,251-5.49c0,1.14-.06,2.28-.11,3.43,0,.41-.1.83-.12,1.24a1,1,0,0,0,.45.9,1.91,1.91,0,0,0,.88.22,1.73,1.73,0,0,0,1.1,0,.62.62,0,0,1,.27,0c.63,0,1.26,0,1.88,0,.86-.07,1.71-.18,2.57-.17a23.19,23.19,0,0,0,2.36-.16c.72-.06,1.44-.17,2.16-.24s1.51-.12,2.27-.17,1.39-.11,2.08-.14,1.15,0,1.72,0l1.86,0c.34,0,.68,0,1-.05s.64.28,1,.08l0,0c.26.2.48.05.68-.08l.56.41.2-.36L276-.6l3,.13c1.35.06,2.7.11,4.05.21a.81.81,0,0,0,.6-.18,1.53,1.53,0,0,0,.41-1.39,2.42,2.42,0,0,1-.15-1.24,1.82,1.82,0,0,0,0-.87,3.74,3.74,0,0,1-.1-1.25,7.75,7.75,0,0,0,0-1.18c0-.56-.08-1.12-.09-1.68s0-1.28,0-1.93c0-.48,0-1,0-1.44s0-1.22,0-1.83,0-1.43.06-2.15l0-2.26c0-.26,0-.52,0-.79s0-.68-.05-1c0-.81-.07-1.61-.1-2.41a16.67,16.67,0,0,1,0-1.73c.05-.93.09-1.86.06-2.8,0-.67,0-1.34,0-2s.05-1.06.07-1.59A11.7,11.7,0,0,1,284.08-33.08Z" fill="currentColor"/><path d="M.61-33.08c.17-.55.09-.69-.33-.91A1.12,1.12,0,0,0-.89-34a2.16,2.16,0,0,1-1.32.33c-1.7,0-3.39-.05-5.08-.08l-1.87,0c-.84,0-1.68-.07-2.52-.06-1.79,0-3.58.11-5.37.16-.81,0-1.62,0-2.43,0-1.31,0-2.61,0-3.91.15-1.08.1-2.16,0-3.25.11a25.82,25.82,0,0,1-2.78,0,5.23,5.23,0,0,0-2.18.38.52.52,0,0,0-.25.31,1.73,1.73,0,0,0,0,.51q0,1.26,0,2.52c0,.6,0,1.19,0,1.79,0,.89.12,1.77.14,2.66,0,.62,0,1.24-.06,1.86,0,1-.07,2-.12,3-.08,1.34-.18,2.68-.25,4-.06,1.16,0,2.31-.14,3.46-.07.81-.08,1.62-.08,2.42s-.05,1.34-.05,2c0,.46.05.93,0,1.39s-.06,1.09-.08,1.63c0,1.14-.06,2.28-.1,3.43,0,.41-.11.83-.12,1.24a1,1,0,0,0,.45.9,1.91,1.91,0,0,0,.88.22,1.73,1.73,0,0,0,1.1,0A.58.58,0,0,1-30,.2c.63,0,1.26,0,1.89,0C-27.25.13-26.4,0-25.53,0a23.19,23.19,0,0,0,2.35-.16c.73-.06,1.45-.17,2.17-.24s1.51-.12,2.26-.17,1.39-.11,2.09-.14,1.14,0,1.71,0l1.87,0c.34,0,.68,0,1-.05s.64.28,1,.08l.05,0c.25.2.48.05.67-.08l.56.41.21-.36,2.12.09,3,.13c1.35.06,2.7.11,4.05.21A.8.8,0,0,0,.21-.44,1.5,1.5,0,0,0,.62-1.83,2.41,2.41,0,0,1,.48-3.07a2,2,0,0,0,0-.87,3.5,3.5,0,0,1-.1-1.25,6.64,6.64,0,0,0,0-1.18C.34-6.93.28-7.49.27-8s0-1.28,0-1.93c0-.48,0-1,0-1.44s0-1.22,0-1.83.05-1.43.06-2.15,0-1.5,0-2.26c0-.26,0-.52,0-.79s0-.68-.06-1c0-.81-.07-1.61-.09-2.41,0-.58-.06-1.16,0-1.73.06-.93.1-1.86.07-2.8,0-.67,0-1.34,0-2S.34-29.49.35-30A11.7,11.7,0,0,1,.61-33.08Z" fill="currentColor"/></pattern></defs><rect width="283.46" height="283.46" fill="url(#a)"/></svg>
