<svg xmlns="http://www.w3.org/2000/svg" xmlns:xlink="http://www.w3.org/1999/xlink" viewBox="0 0 283.46 283.46"><defs><pattern id="a" width="283.46" height="283.46" patternUnits="userSpaceOnUse" viewBox="0 0 283.46 283.46"><rect width="283.46" height="283.46" fill="none"/><path d="M293.16,159.3a2.74,2.74,0,0,0-.39-1.27,7.13,7.13,0,0,0-1-1.55,14.82,14.82,0,0,0-1.28-1.35,4.74,4.74,0,0,0-.86-.63c-.21-.12-.51-.12-.67-.27a1.48,1.48,0,0,0-1-.33,9.1,9.1,0,0,0-1.56.07,5.71,5.71,0,0,0-.82.18c-.49.14-1,.25-1.48.43a6.22,6.22,0,0,0-.92.48.75.75,0,0,0-.18.13,3.26,3.26,0,0,1-.53.58,3.58,3.58,0,0,0-.94,1c-.28.37-.48.77-.72,1.15a2.93,2.93,0,0,0-.42,1.42,10.38,10.38,0,0,0,0,2,15.29,15.29,0,0,0,.68,2.92,3.73,3.73,0,0,0,.67,1.37c.31.34.58.71.89,1.06s.57.6.87.89a3.6,3.6,0,0,0,.68.5,11.13,11.13,0,0,0,1.06.48c.05,0,.11,0,.16,0s.38-.06.51,0a1.21,1.21,0,0,0,1,0l.44-.08a6.65,6.65,0,0,0,.78-.09c.39-.11.76-.26,1.14-.39a3.09,3.09,0,0,0,.43-.14c.36-.18.71-.38,1.05-.58a2.08,2.08,0,0,0,.48-.34c.28-.32.54-.67.81-1s.53-.61.77-.95a5.9,5.9,0,0,0,.9-2.63,9.1,9.1,0,0,0-.22-2.28A2,2,0,0,1,293.16,159.3Z" fill="currentColor"/><path d="M292.19,230.92a2.74,2.74,0,0,0-.39-1.27,6.58,6.58,0,0,0-1-1.55,14.93,14.93,0,0,0-1.28-1.36,4.82,4.82,0,0,0-.86-.62c-.2-.12-.5-.12-.66-.28a1.57,1.57,0,0,0-1-.32,9.1,9.1,0,0,0-1.56.07,4.71,4.71,0,0,0-.81.18c-.5.13-1,.25-1.48.42a7.28,7.28,0,0,0-.92.48.86.86,0,0,0-.18.14,3.22,3.22,0,0,1-.53.57,3.81,3.81,0,0,0-.95,1c-.27.36-.48.76-.71,1.14a3.12,3.12,0,0,0-.43,1.43,9.64,9.64,0,0,0,0,2,15.19,15.19,0,0,0,.68,2.91,3.67,3.67,0,0,0,.66,1.38c.31.34.59.71.9,1.05a10.42,10.42,0,0,0,.87.89,3.45,3.45,0,0,0,.68.51c.34.18.7.32,1.06.47,0,0,.1,0,.16,0s.37-.06.5,0a1.21,1.21,0,0,0,.95,0l.44-.08a6.65,6.65,0,0,0,.78-.1c.39-.1.77-.26,1.15-.39a2.92,2.92,0,0,0,.42-.13c.36-.18.71-.38,1.06-.58a2,2,0,0,0,.47-.34c.29-.32.54-.67.82-1s.53-.61.77-.95a6.24,6.24,0,0,0,.72-1.63,7,7,0,0,0,.18-1,8.66,8.66,0,0,0-.23-2.28A2.33,2.33,0,0,1,292.19,230.92Z" fill="currentColor"/><path d="M292.91,18.82a2.74,2.74,0,0,0-.39-1.27,7.08,7.08,0,0,0-1-1.55,14.93,14.93,0,0,0-1.29-1.35,4.53,4.53,0,0,0-.86-.63c-.2-.12-.5-.12-.66-.27a1.5,1.5,0,0,0-1-.33,9,9,0,0,0-1.56.07,5.71,5.71,0,0,0-.82.18c-.5.14-1,.25-1.48.43a5.76,5.76,0,0,0-.92.48.59.59,0,0,0-.18.13,3.3,3.3,0,0,1-.53.58,3.77,3.77,0,0,0-.95,1c-.27.37-.48.77-.71,1.15a2.93,2.93,0,0,0-.42,1.42,9.64,9.64,0,0,0,0,2,15.29,15.29,0,0,0,.68,2.92,3.56,3.56,0,0,0,.66,1.37c.32.34.59.71.9,1.06a12.13,12.13,0,0,0,.87.89,3.31,3.31,0,0,0,.68.5,10.11,10.11,0,0,0,1.06.48s.1,0,.16,0,.37-.06.5,0a1.21,1.21,0,0,0,1,0L287,28a6.65,6.65,0,0,0,.78-.09c.39-.11.77-.26,1.15-.39a3,3,0,0,0,.42-.14c.36-.18.71-.37,1.06-.58a1.83,1.83,0,0,0,.47-.34c.29-.32.54-.67.82-1s.53-.62.77-1a6.09,6.09,0,0,0,.72-1.63,7,7,0,0,0,.18-1,8.66,8.66,0,0,0-.23-2.28A2.21,2.21,0,0,1,292.91,18.82Z" fill="currentColor"/><path d="M292,90.44a2.74,2.74,0,0,0-.39-1.27,6.9,6.9,0,0,0-1-1.55,14.93,14.93,0,0,0-1.28-1.36,5.21,5.21,0,0,0-.86-.62c-.21-.12-.51-.12-.67-.28a1.52,1.52,0,0,0-1-.32,9.1,9.1,0,0,0-1.56.07,4.62,4.62,0,0,0-.82.18c-.49.13-1,.25-1.48.42a9,9,0,0,0-.92.48,1.24,1.24,0,0,0-.18.14,2.89,2.89,0,0,1-.53.57,3.77,3.77,0,0,0-.94,1,11.35,11.35,0,0,0-.71,1.14,2.9,2.9,0,0,0-.43,1.43,10.37,10.37,0,0,0,0,2,15.47,15.47,0,0,0,.68,2.92,3.89,3.89,0,0,0,.67,1.37c.31.34.58.71.89,1.05s.57.61.87.89a4.16,4.16,0,0,0,.68.51c.34.18.71.32,1.06.47.05,0,.11,0,.16,0s.38-.06.51,0a1.21,1.21,0,0,0,.95,0l.44-.08a6.65,6.65,0,0,0,.78-.1c.39-.1.76-.26,1.14-.39a2.13,2.13,0,0,0,.43-.13c.36-.18.71-.38,1.05-.58a2.08,2.08,0,0,0,.48-.34c.28-.32.54-.67.81-1s.53-.61.77-1a5.92,5.92,0,0,0,.72-1.63,5.84,5.84,0,0,0,.18-1,9.1,9.1,0,0,0-.22-2.28A2.12,2.12,0,0,1,292,90.44Z" fill="currentColor"/><path d="M54.53,159a0,0,0,0,0,0-.05c-.15-.47-.27-.94-.45-1.39a7.92,7.92,0,0,0-.95-1.61,8.77,8.77,0,0,0-2-1.7c-.16-.12-.37-.27-.53-.25s-.42-.1-.63-.19-.65-.41-1.07-.22c-.11,0-.27,0-.4,0l-.51,0h-.15l-.82.08c-.44.06-.88.1-1.31.19a2.46,2.46,0,0,0-1.17.44c-.07.06-.17.08-.25.14-.31.2-.61.43-.94.6s-.29.48-.51.67a1.56,1.56,0,0,0-.37.4c-.15.27-.23.56-.36.84-.23.47-.48.94-.7,1.41-.06.12,0,.28-.09.41a11.21,11.21,0,0,0-.47,1.07,4.33,4.33,0,0,0-.1.89c0,.23,0,.46-.06.69a2.43,2.43,0,0,0,0,.38l0,0a2.48,2.48,0,0,1,0,.27c0,.09,0,.19,0,.29.11.64.22,1.29.35,1.93a2,2,0,0,0,.21.69c.18.32.19.72.47,1,.06.05.08.27.19.35l1.13.77a.88.88,0,0,0,.17.12c.63.22,1.26.45,1.89.65a1.83,1.83,0,0,0,.57.08c.41,0,.82,0,1.23,0l.69,0c.08,0,.17,0,.26-.05l1.31-.08a.6.6,0,0,0,.21-.13s.1-.1.15-.1a5.79,5.79,0,0,0,1.78-.52,3.2,3.2,0,0,0,.63-.43c.26-.18.57-.29.71-.62a.78.78,0,0,1,.25-.34c.38-.2.38-.63.59-.94a4.49,4.49,0,0,0,.39-1,4,4,0,0,0,.15-.45c.06-.36.09-.72.15-1.07s.17-.71.2-1.06,0-.86,0-1.29S54.34,159.28,54.53,159Z" fill="currentColor"/><path d="M128.4,194.77a0,0,0,0,0,0-.05c-.15-.47-.27-.94-.45-1.39a7.92,7.92,0,0,0-1-1.61,8.77,8.77,0,0,0-2-1.7c-.16-.12-.37-.27-.53-.25s-.43-.1-.63-.19-.65-.41-1.07-.23c-.11.05-.27,0-.4,0l-.51,0h-.15l-.82.08c-.44.06-.88.1-1.32.19a2.46,2.46,0,0,0-1.16.44c-.07.06-.17.08-.25.14-.31.2-.61.43-.94.6s-.29.48-.51.67a1.4,1.4,0,0,0-.37.4c-.15.27-.23.56-.36.84-.23.47-.48.94-.7,1.41-.06.12,0,.28-.09.41a11.21,11.21,0,0,0-.47,1.07,4.33,4.33,0,0,0-.1.89c0,.23,0,.46-.06.69a2.43,2.43,0,0,0,0,.38l0,0a2.48,2.48,0,0,1,0,.27c0,.09,0,.19,0,.28.11.65.22,1.3.35,1.94a2,2,0,0,0,.21.69c.18.32.19.72.47,1,0,.05.08.27.19.35l1.13.77a.88.88,0,0,0,.17.12c.63.22,1.26.45,1.89.65a1.83,1.83,0,0,0,.57.08c.41,0,.82,0,1.23,0l.69,0c.08,0,.17,0,.26-.05l1.31-.08a.6.6,0,0,0,.21-.13s.1-.1.15-.1a5.79,5.79,0,0,0,1.78-.52,3.2,3.2,0,0,0,.63-.43c.26-.18.57-.29.71-.62a.78.78,0,0,1,.25-.34c.38-.21.38-.63.59-.94a4.49,4.49,0,0,0,.39-1,4,4,0,0,0,.15-.45c.06-.36.09-.72.15-1.07s.17-.71.2-1.06,0-.86,0-1.29S128.21,195.06,128.4,194.77Z" fill="currentColor"/><path d="M9.69,159.3A2.74,2.74,0,0,0,9.3,158a7.08,7.08,0,0,0-1-1.55A14.93,14.93,0,0,0,7,155.13a4.14,4.14,0,0,0-.86-.63c-.2-.12-.5-.12-.66-.27a1.5,1.5,0,0,0-1-.33,9,9,0,0,0-1.56.07,5.71,5.71,0,0,0-.82.18c-.5.14-1,.25-1.48.43a5.76,5.76,0,0,0-.92.48.59.59,0,0,0-.18.13,3.69,3.69,0,0,1-.53.58,3.61,3.61,0,0,0-.95,1c-.27.37-.48.77-.71,1.15a2.93,2.93,0,0,0-.42,1.42,9.64,9.64,0,0,0,0,2,15.29,15.29,0,0,0,.68,2.92,3.56,3.56,0,0,0,.66,1.37c.32.34.59.71.9,1.06s.56.6.87.89a3.06,3.06,0,0,0,.68.5,10.11,10.11,0,0,0,1.06.48s.1,0,.16,0,.37-.06.5,0a1.21,1.21,0,0,0,.95,0l.44-.08a6.65,6.65,0,0,0,.78-.09c.39-.11.77-.26,1.15-.39a3,3,0,0,0,.42-.14c.36-.18.71-.38,1.06-.58a2,2,0,0,0,.47-.34c.29-.32.54-.67.82-1s.53-.61.77-.95a6.09,6.09,0,0,0,.72-1.63,7,7,0,0,0,.18-1,8.66,8.66,0,0,0-.23-2.28A2.21,2.21,0,0,1,9.69,159.3Z" fill="currentColor"/><path d="M79.22,193.93a2.74,2.74,0,0,0-.39-1.27,7.13,7.13,0,0,0-1-1.55,14.93,14.93,0,0,0-1.28-1.36,5.21,5.21,0,0,0-.86-.62c-.21-.12-.51-.12-.67-.27a1.48,1.48,0,0,0-1-.33,9.06,9.06,0,0,0-1.56.07,4.62,4.62,0,0,0-.82.18c-.49.13-1,.25-1.48.43a7.26,7.26,0,0,0-.92.47,1.24,1.24,0,0,0-.18.14,2.89,2.89,0,0,1-.53.57,3.77,3.77,0,0,0-.94,1c-.28.36-.48.76-.72,1.14a3,3,0,0,0-.42,1.43,10.38,10.38,0,0,0,0,2,15.29,15.29,0,0,0,.68,2.92,3.89,3.89,0,0,0,.67,1.37c.31.34.58.71.89,1.05s.57.61.87.89a3.66,3.66,0,0,0,.68.51c.34.18.71.32,1.06.47,0,0,.11,0,.16,0s.38-.06.51,0a1.25,1.25,0,0,0,.95,0l.44-.08a6.65,6.65,0,0,0,.78-.1c.39-.1.76-.25,1.14-.38a3.09,3.09,0,0,0,.43-.14c.36-.18.71-.38,1-.58a2.08,2.08,0,0,0,.48-.34c.28-.32.54-.67.81-1s.53-.61.77-.95a5.92,5.92,0,0,0,.72-1.63,5.84,5.84,0,0,0,.18-1,9.1,9.1,0,0,0-.22-2.28A2.07,2.07,0,0,1,79.22,193.93Z" fill="currentColor"/><path d="M103.73,157.87c-.46-1.71-2-2.34-3.17-3.4a3,3,0,0,0-1-.52,17.59,17.59,0,0,0-1.85-.64,3.78,3.78,0,0,0-1.72-.25,10.29,10.29,0,0,0-2.61,1,13.22,13.22,0,0,0-2.08,1.5,4.8,4.8,0,0,0-1.24,1.22,6.51,6.51,0,0,0-1.17,2.48c-.09.77-.58,1.51-.12,2.33a2.23,2.23,0,0,1,.4,1.35c-.14.6.2.94.38,1.38a5.12,5.12,0,0,0,.46.94,4,4,0,0,0,1.08,1.38,7.88,7.88,0,0,0,3.55,1.45c.34,0,.67.39,1,.41a7.22,7.22,0,0,0,3-.84,4,4,0,0,1,1.62-.2,3.08,3.08,0,0,0,1.6-.2,4.86,4.86,0,0,0,1.94-2.63c.39-1.28,1-2.53.63-4l.27,0C104.38,159.72,104,158.81,103.73,157.87Z" fill="currentColor"/><path d="M53.56,230.61a.13.13,0,0,0,0-.06c-.15-.46-.28-.93-.46-1.38a7.88,7.88,0,0,0-.94-1.61,9.13,9.13,0,0,0-2-1.71c-.15-.11-.37-.27-.53-.24s-.42-.11-.62-.19-.66-.42-1.08-.23c-.11.05-.26,0-.39,0a4.35,4.35,0,0,0-.51,0l-.16,0-.82.08c-.44.06-.88.1-1.31.19a2.4,2.4,0,0,0-1.17.44,2,2,0,0,1-.25.13,9.29,9.29,0,0,1-.93.61c-.29.15-.3.48-.51.66a1.79,1.79,0,0,0-.38.4c-.14.27-.23.57-.36.85-.22.47-.47.93-.7,1.41-.06.12,0,.28-.09.41-.15.36-.35.7-.47,1.07a5.16,5.16,0,0,0-.1.88c0,.23,0,.47-.06.7a1.69,1.69,0,0,0,0,.38h0a2.51,2.51,0,0,1,0,.27,1.4,1.4,0,0,0,0,.29c.11.65.21,1.3.34,1.94a2.23,2.23,0,0,0,.22.69c.18.32.19.71.46,1,.06.06.09.27.2.35.37.27.75.52,1.13.77,0,0,.1.11.16.13l1.9.65a1.83,1.83,0,0,0,.57.08c.41,0,.82,0,1.23,0l.68,0,.26-.05c.44,0,.88-.05,1.31-.09.08,0,.14-.08.21-.12s.1-.1.16-.1a5.49,5.49,0,0,0,1.77-.53,2.88,2.88,0,0,0,.63-.42c.26-.18.58-.29.71-.62a.69.69,0,0,1,.26-.34c.37-.21.38-.64.59-.94a4.89,4.89,0,0,0,.38-1,2.41,2.41,0,0,0,.16-.45c.06-.35.09-.71.15-1.06s.16-.71.19-1.07,0-.85,0-1.28S53.37,230.9,53.56,230.61Z" fill="currentColor"/><path d="M8.73,230.92a2.74,2.74,0,0,0-.39-1.27,6.9,6.9,0,0,0-1-1.55A14.93,14.93,0,0,0,6,226.74a5.21,5.21,0,0,0-.86-.62c-.21-.12-.51-.12-.67-.28a1.52,1.52,0,0,0-1-.32,9.06,9.06,0,0,0-1.56.07,4.62,4.62,0,0,0-.82.18c-.49.13-1,.25-1.48.42a9,9,0,0,0-.92.48,1.24,1.24,0,0,0-.18.14,2.89,2.89,0,0,1-.53.57,3.77,3.77,0,0,0-.94,1c-.28.36-.48.76-.72,1.14a3,3,0,0,0-.42,1.43,10.37,10.37,0,0,0,0,2,15.19,15.19,0,0,0,.68,2.91,3.85,3.85,0,0,0,.67,1.38c.31.34.58.71.89,1.05s.57.61.87.89a4.16,4.16,0,0,0,.68.51c.34.18.71.32,1.06.47.05,0,.11,0,.16,0s.38-.06.51,0a1.21,1.21,0,0,0,1,0l.44-.08a6.65,6.65,0,0,0,.78-.1c.39-.1.76-.26,1.14-.39a3.06,3.06,0,0,0,.43-.13c.36-.18.71-.38,1-.58a2.08,2.08,0,0,0,.48-.34c.28-.32.54-.67.81-1s.53-.61.77-.95A5.92,5.92,0,0,0,9,235a5.84,5.84,0,0,0,.18-1,9.1,9.1,0,0,0-.22-2.28A2.12,2.12,0,0,1,8.73,230.92Z" fill="currentColor"/><path d="M102.77,229.49c-.47-1.71-2-2.35-3.17-3.4a3,3,0,0,0-.95-.52,15.71,15.71,0,0,0-1.86-.64,3.89,3.89,0,0,0-1.72-.26,10.47,10.47,0,0,0-2.61,1,14.36,14.36,0,0,0-2.08,1.49,4.92,4.92,0,0,0-1.23,1.22A6.65,6.65,0,0,0,88,230.91c-.09.76-.58,1.5-.11,2.33a2.1,2.1,0,0,1,.39,1.34c-.14.61.2.95.39,1.39a6.25,6.25,0,0,0,.45.94c.33.49.61,1.12,1.08,1.37a8,8,0,0,0,3.56,1.46c.34,0,.66.39,1,.41a7.27,7.27,0,0,0,3-.85,4,4,0,0,1,1.61-.19,3.08,3.08,0,0,0,1.6-.21,4.71,4.71,0,0,0,1.94-2.62c.39-1.29,1-2.54.63-4l.28-.05C103.42,231.34,103,230.43,102.77,229.49Z" fill="currentColor"/><path d="M17.88,196.22a8.87,8.87,0,0,0,1.65,4.3,10.66,10.66,0,0,0,1.83,1.72,4.89,4.89,0,0,0,1.74,1c1.19.26,2.41.8,3.67.21.1-.05.25,0,.38,0,1.46.14,2.6-.73,3.81-1.3a2.68,2.68,0,0,0,1-1.5,28.34,28.34,0,0,0,1-3c.42-1.93-.45-3.39-1.12-4.94a9.3,9.3,0,0,0-1.47-1.83,10.23,10.23,0,0,0-1.24-1.64,6.45,6.45,0,0,0-5.43-1.09c-1.89.3-3,1.58-4.09,3-.24.34-.64.62-.77,1-.4,1.13-.7,2.29-1,3.44l.09,0A2,2,0,0,0,17.88,196.22Z" fill="currentColor"/><path d="M131,265.42s0,0,0-.05c-.15-.47-.28-.94-.46-1.39a8.16,8.16,0,0,0-.94-1.61,8.82,8.82,0,0,0-2-1.7.9.9,0,0,0-.53-.25c-.27.05-.42-.1-.62-.19s-.66-.41-1.08-.22c-.1,0-.26,0-.39,0l-.51,0h-.16l-.82.08c-.44.06-.88.1-1.31.2a2.38,2.38,0,0,0-1.17.43,2,2,0,0,1-.25.14c-.31.2-.6.43-.93.6s-.3.48-.51.67a1.6,1.6,0,0,0-.38.4c-.14.27-.23.57-.36.84-.22.47-.47.94-.7,1.41-.06.12,0,.28-.09.41-.15.36-.35.7-.47,1.07a5.16,5.16,0,0,0-.1.89c0,.23,0,.46-.06.7a1.61,1.61,0,0,0,0,.37l0,0a2.51,2.51,0,0,1,0,.27,1.4,1.4,0,0,0,0,.29c.11.64.21,1.29.34,1.94a2.42,2.42,0,0,0,.22.69c.18.31.19.71.46,1,.06.05.09.27.2.35.37.27.75.51,1.13.77a.61.61,0,0,0,.16.12c.63.22,1.26.45,1.9.65a2.19,2.19,0,0,0,.57.09l1.23,0c.23,0,.45,0,.68,0a2.38,2.38,0,0,0,.26-.05l1.31-.08c.08,0,.14-.08.21-.13s.1-.1.16-.1a5.73,5.73,0,0,0,1.77-.52,2.93,2.93,0,0,0,.63-.43c.26-.18.58-.29.71-.62a.71.71,0,0,1,.26-.33c.37-.21.38-.64.59-1a5.05,5.05,0,0,0,.38-1,2.69,2.69,0,0,0,.16-.45c.06-.36.09-.72.15-1.07s.16-.71.19-1.06a11.1,11.1,0,0,0,0-1.29C130.9,266,130.78,265.71,131,265.42Z" fill="currentColor"/><path d="M81.79,264.58a2.74,2.74,0,0,0-.39-1.27,7.08,7.08,0,0,0-1-1.55,15,15,0,0,0-1.29-1.35,4.42,4.42,0,0,0-.86-.63c-.2-.12-.5-.12-.66-.27a1.52,1.52,0,0,0-1-.33,9.1,9.1,0,0,0-1.56.07,4.71,4.71,0,0,0-.81.18,14.78,14.78,0,0,0-1.48.43,6.64,6.64,0,0,0-.92.47.86.86,0,0,0-.18.14,3.69,3.69,0,0,1-.53.58,3.61,3.61,0,0,0-1,1c-.27.37-.48.76-.71,1.15a2.93,2.93,0,0,0-.42,1.42,9,9,0,0,0,0,2,15.29,15.29,0,0,0,.68,2.92,3.63,3.63,0,0,0,.66,1.37c.31.34.59.71.9,1.06a12,12,0,0,0,.87.88,2.82,2.82,0,0,0,.68.51c.34.19.7.32,1.06.48,0,0,.1,0,.16,0s.37-.06.5,0a1.25,1.25,0,0,0,1,0l.44-.08a5,5,0,0,0,.78-.1c.39-.1.77-.25,1.15-.38a3,3,0,0,0,.42-.14c.36-.18.71-.38,1.06-.58a2,2,0,0,0,.47-.34c.29-.32.54-.67.82-1s.53-.61.77-1a6.09,6.09,0,0,0,.72-1.63,7,7,0,0,0,.18-1,8.66,8.66,0,0,0-.23-2.28A2.27,2.27,0,0,1,81.79,264.58Z" fill="currentColor"/><path d="M20.45,266.87a9,9,0,0,0,1.66,4.3,10,10,0,0,0,1.83,1.72,4.89,4.89,0,0,0,1.74,1c1.19.27,2.4.8,3.66.21a.75.75,0,0,1,.39,0c1.46.14,2.6-.73,3.8-1.3a2.62,2.62,0,0,0,1-1.49,27.1,27.1,0,0,0,1-3c.42-1.93-.44-3.39-1.12-4.94A9.62,9.62,0,0,0,33,261.56a10.9,10.9,0,0,0-1.25-1.64,6.44,6.44,0,0,0-5.43-1.09c-1.89.3-3,1.58-4.08,3-.25.34-.64.62-.77,1-.4,1.13-.7,2.29-1,3.44l.09,0A3.48,3.48,0,0,0,20.45,266.87Z" fill="currentColor"/><path d="M187.09,159a0,0,0,0,0,0-.05c-.15-.47-.27-.94-.45-1.39a7.92,7.92,0,0,0-.95-1.61,8.77,8.77,0,0,0-1.95-1.7c-.16-.12-.37-.27-.53-.25s-.43-.1-.63-.19-.65-.41-1.07-.22c-.11,0-.27,0-.4,0l-.51,0h-.15l-.82.08c-.44.06-.88.1-1.32.19a2.46,2.46,0,0,0-1.16.44c-.07.06-.17.08-.25.14-.31.2-.61.43-.94.6s-.29.48-.51.67a1.4,1.4,0,0,0-.37.4c-.15.27-.23.56-.36.84-.23.47-.48.94-.7,1.41-.06.12,0,.28-.09.41a11.21,11.21,0,0,0-.47,1.07,4.33,4.33,0,0,0-.1.89c0,.23-.05.46-.06.69a2.43,2.43,0,0,0,0,.38l0,0a2.48,2.48,0,0,1,0,.27c0,.09,0,.19,0,.29.11.64.22,1.29.35,1.93a2,2,0,0,0,.21.69c.18.32.19.72.47,1,0,.05.08.27.19.35l1.13.77a.88.88,0,0,0,.17.12c.63.22,1.26.45,1.89.65a1.83,1.83,0,0,0,.57.08c.41,0,.82,0,1.23,0l.69,0c.08,0,.17,0,.26-.05l1.31-.08a.6.6,0,0,0,.21-.13s.1-.1.15-.1a5.79,5.79,0,0,0,1.78-.52,3.2,3.2,0,0,0,.63-.43c.26-.18.57-.29.71-.62a.78.78,0,0,1,.25-.34c.38-.2.38-.63.59-.94a4.49,4.49,0,0,0,.39-1,4,4,0,0,0,.15-.45c.06-.36.09-.72.15-1.07s.17-.71.2-1.06,0-.86,0-1.29S186.9,159.28,187.09,159Z" fill="currentColor"/><path d="M261,194.77a0,0,0,0,0,0-.05c-.15-.47-.27-.94-.45-1.39a7.92,7.92,0,0,0-.95-1.61,8.6,8.6,0,0,0-2-1.7.87.87,0,0,0-.52-.25c-.27,0-.43-.1-.63-.19s-.65-.41-1.08-.23c-.1.05-.26,0-.39,0l-.51,0h-.15l-.82.08c-.44.06-.88.1-1.32.19a2.46,2.46,0,0,0-1.16.44c-.07.06-.17.08-.25.14-.31.2-.61.43-.94.6s-.29.48-.51.67a1.4,1.4,0,0,0-.37.4c-.15.27-.23.56-.36.84-.23.47-.48.94-.7,1.41-.06.12,0,.28-.09.41a11.21,11.21,0,0,0-.47,1.07,4.33,4.33,0,0,0-.1.89c0,.23,0,.46-.06.69a2.43,2.43,0,0,0,0,.38l0,0a2.48,2.48,0,0,1,0,.27c0,.09,0,.19,0,.28.11.65.22,1.3.34,1.94a2.23,2.23,0,0,0,.22.69c.18.32.19.72.47,1,0,.05.08.27.19.35l1.13.77a.88.88,0,0,0,.17.12c.63.22,1.26.45,1.89.65a1.83,1.83,0,0,0,.57.08c.41,0,.82,0,1.23,0l.69,0c.08,0,.17,0,.26-.05l1.31-.08a.6.6,0,0,0,.21-.13c.05,0,.1-.1.15-.1a5.79,5.79,0,0,0,1.78-.52,3.2,3.2,0,0,0,.63-.43c.26-.18.57-.29.71-.62a.78.78,0,0,1,.25-.34c.37-.21.38-.63.59-.94a5.08,5.08,0,0,0,.39-1,4,4,0,0,0,.15-.45c.06-.36.09-.72.15-1.07s.17-.71.2-1.06,0-.86,0-1.29S260.77,195.06,261,194.77Z" fill="currentColor"/><path d="M142.25,159.3a2.74,2.74,0,0,0-.39-1.27,7.08,7.08,0,0,0-1-1.55,14.93,14.93,0,0,0-1.29-1.35,4.14,4.14,0,0,0-.86-.63c-.2-.12-.5-.12-.66-.27a1.51,1.51,0,0,0-1-.33,9.17,9.17,0,0,0-1.57.07,5.88,5.88,0,0,0-.81.18c-.5.14-1,.25-1.48.43a5.76,5.76,0,0,0-.92.48.59.59,0,0,0-.18.13,3.69,3.69,0,0,1-.53.58,3.61,3.61,0,0,0-1,1c-.27.37-.48.77-.71,1.15a2.93,2.93,0,0,0-.42,1.42,9.64,9.64,0,0,0,0,2,15.29,15.29,0,0,0,.68,2.92,3.56,3.56,0,0,0,.66,1.37c.31.34.59.71.9,1.06s.56.6.87.89a3.06,3.06,0,0,0,.68.5,10.11,10.11,0,0,0,1.06.48s.1,0,.16,0,.37-.06.5,0a1.21,1.21,0,0,0,.95,0l.44-.08a6.65,6.65,0,0,0,.78-.09c.39-.11.77-.26,1.15-.39a3,3,0,0,0,.42-.14c.36-.18.71-.38,1.06-.58a2,2,0,0,0,.47-.34c.29-.32.54-.67.82-1s.53-.61.77-.95a6.09,6.09,0,0,0,.72-1.63,7,7,0,0,0,.18-1,8.66,8.66,0,0,0-.23-2.28A2.21,2.21,0,0,1,142.25,159.3Z" fill="currentColor"/><path d="M211.78,193.93a2.74,2.74,0,0,0-.39-1.27,7.13,7.13,0,0,0-1-1.55,14.93,14.93,0,0,0-1.28-1.36,5.21,5.21,0,0,0-.86-.62c-.21-.12-.51-.12-.67-.27a1.5,1.5,0,0,0-1-.33,9.06,9.06,0,0,0-1.56.07,4.62,4.62,0,0,0-.82.18c-.49.13-1,.25-1.48.43a7.26,7.26,0,0,0-.92.47,1.24,1.24,0,0,0-.18.14,3.22,3.22,0,0,1-.53.57,4,4,0,0,0-.95,1c-.27.36-.47.76-.71,1.14a3,3,0,0,0-.42,1.43,10.38,10.38,0,0,0,0,2,15.29,15.29,0,0,0,.68,2.92,3.72,3.72,0,0,0,.67,1.37c.31.34.58.71.89,1.05s.57.61.87.89a3.66,3.66,0,0,0,.68.51c.34.18.71.32,1.06.47.05,0,.11,0,.16,0s.38-.06.51,0a1.25,1.25,0,0,0,.95,0l.44-.08a6.65,6.65,0,0,0,.78-.1c.38-.1.76-.25,1.14-.38a3.09,3.09,0,0,0,.43-.14c.35-.18.71-.38,1.05-.58a2.08,2.08,0,0,0,.48-.34c.28-.32.54-.67.81-1s.53-.61.77-.95A6.24,6.24,0,0,0,212,198a5.84,5.84,0,0,0,.18-1,9.1,9.1,0,0,0-.22-2.28A2.07,2.07,0,0,1,211.78,193.93Z" fill="currentColor"/><path d="M236.29,157.87c-.46-1.71-2-2.34-3.17-3.4a3,3,0,0,0-1-.52,17.59,17.59,0,0,0-1.85-.64,3.78,3.78,0,0,0-1.72-.25,10.29,10.29,0,0,0-2.61,1,13.22,13.22,0,0,0-2.08,1.5,4.8,4.8,0,0,0-1.24,1.22,6.51,6.51,0,0,0-1.17,2.48c-.09.77-.59,1.51-.12,2.33a2.23,2.23,0,0,1,.4,1.35c-.14.6.19.94.38,1.38a5.12,5.12,0,0,0,.46.94c.32.49.6,1.12,1.08,1.38,1.12.61,2.17,1.42,3.55,1.45.34,0,.67.39,1,.41a7.22,7.22,0,0,0,3-.84,4,4,0,0,1,1.62-.2,3.08,3.08,0,0,0,1.6-.2,4.86,4.86,0,0,0,1.94-2.63c.39-1.28,1-2.53.63-4l.27,0C236.94,159.72,236.55,158.81,236.29,157.87Z" fill="currentColor"/><path d="M186.12,230.61a.13.13,0,0,0,0-.06c-.15-.46-.28-.93-.46-1.38a7.88,7.88,0,0,0-.94-1.61,9.13,9.13,0,0,0-2-1.71c-.16-.11-.37-.27-.53-.24s-.42-.11-.62-.19-.66-.42-1.08-.23c-.11.05-.26,0-.39,0a4.35,4.35,0,0,0-.51,0l-.16,0-.82.08c-.44.06-.88.1-1.31.19a2.4,2.4,0,0,0-1.17.44,2,2,0,0,1-.25.13,9.29,9.29,0,0,1-.93.61c-.29.15-.3.48-.51.66a1.79,1.79,0,0,0-.38.4c-.14.27-.23.57-.36.85-.22.47-.47.93-.7,1.41-.06.12,0,.28-.09.41-.15.36-.35.7-.47,1.07a5.16,5.16,0,0,0-.1.88c0,.23,0,.47-.06.7a1.69,1.69,0,0,0,0,.38h0a2.51,2.51,0,0,1,0,.27,1.4,1.4,0,0,0,0,.29c.11.65.21,1.3.34,1.94a2.23,2.23,0,0,0,.22.69c.18.32.18.71.46,1,.06.06.09.27.2.35.36.27.75.52,1.13.77.05,0,.1.11.16.13l1.89.65a1.93,1.93,0,0,0,.58.08c.41,0,.82,0,1.23,0l.68,0,.26-.05c.44,0,.88-.05,1.31-.09.08,0,.14-.08.21-.12s.1-.1.16-.1a5.49,5.49,0,0,0,1.77-.53,2.88,2.88,0,0,0,.63-.42c.26-.18.58-.29.71-.62a.69.69,0,0,1,.26-.34c.37-.21.38-.64.58-.94a4.37,4.37,0,0,0,.39-1,2.41,2.41,0,0,0,.16-.45c.06-.35.09-.71.15-1.06s.16-.71.19-1.07,0-.85,0-1.28S185.93,230.9,186.12,230.61Z" fill="currentColor"/><path d="M141.29,230.92a2.74,2.74,0,0,0-.39-1.27,6.9,6.9,0,0,0-1-1.55,14.93,14.93,0,0,0-1.28-1.36,5.21,5.21,0,0,0-.86-.62c-.21-.12-.51-.12-.67-.28a1.54,1.54,0,0,0-1-.32,9.06,9.06,0,0,0-1.56.07,4.62,4.62,0,0,0-.82.18c-.49.13-1,.25-1.48.42a9,9,0,0,0-.92.48,1.24,1.24,0,0,0-.18.14,3.22,3.22,0,0,1-.53.57,4,4,0,0,0-1,1c-.27.36-.47.76-.71,1.14a3,3,0,0,0-.42,1.43,10.37,10.37,0,0,0,0,2,15.19,15.19,0,0,0,.68,2.91,3.69,3.69,0,0,0,.67,1.38c.31.34.58.71.89,1.05s.57.61.87.89a4.16,4.16,0,0,0,.68.51c.34.18.71.32,1.06.47,0,0,.11,0,.16,0s.38-.06.51,0a1.21,1.21,0,0,0,.95,0l.44-.08a6.65,6.65,0,0,0,.78-.1c.38-.1.76-.26,1.14-.39a3.06,3.06,0,0,0,.43-.13c.35-.18.71-.38,1-.58a2.08,2.08,0,0,0,.48-.34c.28-.32.54-.67.81-1s.53-.61.77-.95a6.24,6.24,0,0,0,.72-1.63,5.84,5.84,0,0,0,.18-1,9.1,9.1,0,0,0-.22-2.28A2.12,2.12,0,0,1,141.29,230.92Z" fill="currentColor"/><path d="M235.33,229.49c-.47-1.71-2-2.35-3.17-3.4a3,3,0,0,0-.95-.52,15.71,15.71,0,0,0-1.86-.64,3.89,3.89,0,0,0-1.72-.26,10.47,10.47,0,0,0-2.61,1,14.36,14.36,0,0,0-2.08,1.49,4.92,4.92,0,0,0-1.23,1.22,6.65,6.65,0,0,0-1.18,2.49c-.09.76-.58,1.5-.11,2.33a2.1,2.1,0,0,1,.39,1.34c-.14.61.2.95.39,1.39a6.25,6.25,0,0,0,.45.94c.33.49.61,1.12,1.08,1.37a8,8,0,0,0,3.56,1.46c.34,0,.66.39,1,.41a7.32,7.32,0,0,0,3-.85,4,4,0,0,1,1.61-.19,3.08,3.08,0,0,0,1.6-.21,4.76,4.76,0,0,0,1.94-2.62c.39-1.29,1-2.54.63-4l.28-.05C236,231.34,235.58,230.43,235.33,229.49Z" fill="currentColor"/><path d="M150.44,196.22a8.87,8.87,0,0,0,1.65,4.3,10.66,10.66,0,0,0,1.83,1.72,4.89,4.89,0,0,0,1.74,1c1.19.26,2.41.8,3.67.21.1-.05.25,0,.38,0,1.46.14,2.6-.73,3.81-1.3a2.61,2.61,0,0,0,1-1.5,26.3,26.3,0,0,0,1-3c.41-1.93-.45-3.39-1.12-4.94a9.3,9.3,0,0,0-1.47-1.83,9.72,9.72,0,0,0-1.25-1.64,6.42,6.42,0,0,0-5.42-1.09c-1.89.3-3.05,1.58-4.09,3-.25.34-.64.62-.77,1-.4,1.13-.7,2.29-1,3.44l.09,0A2,2,0,0,0,150.44,196.22Z" fill="currentColor"/><path d="M263.53,265.42s0,0,0-.05c-.15-.47-.28-.94-.46-1.39a8.16,8.16,0,0,0-.94-1.61,8.82,8.82,0,0,0-2-1.7c-.16-.12-.37-.27-.53-.25s-.42-.1-.62-.19-.66-.41-1.08-.22c-.11,0-.26,0-.39,0l-.51,0h-.16l-.82.08c-.44.06-.88.1-1.31.2a2.38,2.38,0,0,0-1.17.43,2,2,0,0,1-.25.14c-.31.2-.6.43-.93.6s-.3.48-.51.67a1.6,1.6,0,0,0-.38.4c-.14.27-.23.57-.36.84-.22.47-.47.94-.7,1.41-.06.12,0,.28-.09.41-.15.36-.35.7-.47,1.07a5.16,5.16,0,0,0-.1.89c0,.23-.05.46-.06.7a1.61,1.61,0,0,0,0,.37l0,0a2.51,2.51,0,0,1,0,.27,1.4,1.4,0,0,0,0,.29c.11.64.21,1.29.34,1.94a2.42,2.42,0,0,0,.22.69c.18.31.19.71.46,1,.06.05.09.27.2.35.36.27.75.51,1.13.77a.61.61,0,0,0,.16.12c.63.22,1.26.45,1.9.65a2.19,2.19,0,0,0,.57.09l1.23,0c.23,0,.45,0,.68,0a2.38,2.38,0,0,0,.26-.05l1.31-.08c.08,0,.14-.08.21-.13s.1-.1.16-.1a5.73,5.73,0,0,0,1.77-.52,2.93,2.93,0,0,0,.63-.43c.26-.18.58-.29.71-.62a.71.71,0,0,1,.26-.33c.37-.21.38-.64.58-1a4.49,4.49,0,0,0,.39-1,2.69,2.69,0,0,0,.16-.45c.06-.36.09-.72.15-1.07s.16-.71.19-1.06,0-.86,0-1.29S263.34,265.71,263.53,265.42Z" fill="currentColor"/><path d="M214.35,264.58a2.74,2.74,0,0,0-.39-1.27,6.79,6.79,0,0,0-1-1.55,13.62,13.62,0,0,0-1.28-1.35,4.42,4.42,0,0,0-.86-.63c-.2-.12-.5-.12-.66-.27a1.52,1.52,0,0,0-1-.33,9.1,9.1,0,0,0-1.56.07,4.71,4.71,0,0,0-.81.18,14.78,14.78,0,0,0-1.48.43,6.13,6.13,0,0,0-.92.47.86.86,0,0,0-.18.14,3.69,3.69,0,0,1-.53.58,3.61,3.61,0,0,0-1,1c-.27.37-.48.76-.71,1.15a3.05,3.05,0,0,0-.43,1.42,9.64,9.64,0,0,0,0,2,15.29,15.29,0,0,0,.68,2.92,3.63,3.63,0,0,0,.66,1.37c.31.34.59.71.9,1.06a12,12,0,0,0,.87.88,2.82,2.82,0,0,0,.68.51c.34.19.7.32,1.06.48,0,0,.1,0,.16,0s.37-.06.5,0a1.25,1.25,0,0,0,.95,0l.44-.08a5,5,0,0,0,.78-.1c.39-.1.77-.25,1.15-.38a3,3,0,0,0,.42-.14c.36-.18.71-.38,1.06-.58a2,2,0,0,0,.47-.34c.29-.32.54-.67.82-1s.53-.61.77-1a6.09,6.09,0,0,0,.72-1.63,7,7,0,0,0,.18-1,8.66,8.66,0,0,0-.23-2.28A2.27,2.27,0,0,1,214.35,264.58Z" fill="currentColor"/><path d="M153,266.87a9.07,9.07,0,0,0,1.65,4.3,10.37,10.37,0,0,0,1.84,1.72,4.89,4.89,0,0,0,1.74,1c1.19.27,2.4.8,3.66.21.1-.05.26,0,.39,0,1.46.14,2.6-.73,3.8-1.3a2.62,2.62,0,0,0,1-1.49,27.1,27.1,0,0,0,1-3c.42-1.93-.44-3.39-1.12-4.94a9.62,9.62,0,0,0-1.46-1.83,10.9,10.9,0,0,0-1.25-1.64,6.44,6.44,0,0,0-5.43-1.09c-1.89.3-3,1.58-4.08,3-.25.34-.64.62-.77,1-.4,1.13-.7,2.29-1,3.44l.09,0A3.48,3.48,0,0,0,153,266.87Z" fill="currentColor"/><path d="M54.28,18.51s0,0,0-.05c-.15-.47-.28-.94-.46-1.39a7.45,7.45,0,0,0-.94-1.61,8.82,8.82,0,0,0-2-1.7.9.9,0,0,0-.52-.25c-.28.05-.43-.1-.63-.19s-.65-.41-1.08-.22c-.1,0-.26,0-.39,0l-.51,0h-.16l-.82.08c-.44.06-.88.1-1.31.19a2.54,2.54,0,0,0-1.17.44c-.07.06-.17.08-.25.14-.31.2-.6.43-.93.6s-.3.48-.51.67a1.6,1.6,0,0,0-.38.4c-.14.27-.23.56-.36.84-.22.47-.47.94-.7,1.41-.06.12,0,.28-.09.41-.15.36-.35.7-.47,1.07a4.33,4.33,0,0,0-.09.89c0,.23-.06.46-.07.69s0,.25,0,.38l0,0a2.48,2.48,0,0,1,0,.27,2.8,2.8,0,0,0,0,.29c.11.64.22,1.29.34,1.93a2.23,2.23,0,0,0,.22.69c.18.32.19.72.46,1,.06.05.09.27.2.35l1.13.77c.06,0,.1.1.17.12.62.22,1.25.45,1.89.65a1.83,1.83,0,0,0,.57.08c.41,0,.82,0,1.23,0,.23,0,.45,0,.68,0a2,2,0,0,0,.26-.05L49,27.32c.07,0,.13-.08.2-.13s.11-.1.16-.1a5.73,5.73,0,0,0,1.77-.52,3.26,3.26,0,0,0,.64-.43c.25-.18.57-.29.71-.62a.64.64,0,0,1,.25-.33c.37-.21.38-.64.59-1a4.47,4.47,0,0,0,.38-1,2.69,2.69,0,0,0,.16-.45c.06-.36.09-.72.15-1.07a10.28,10.28,0,0,0,.19-1.06,11.1,11.1,0,0,0,0-1.29C54.21,19.11,54.09,18.8,54.28,18.51Z" fill="currentColor"/><path d="M128.15,54.29s0,0,0,0c-.15-.47-.28-.94-.46-1.39a7.45,7.45,0,0,0-.94-1.61,8.82,8.82,0,0,0-2-1.7.9.9,0,0,0-.52-.25c-.28.05-.43-.1-.63-.19s-.65-.41-1.08-.22c-.1,0-.26,0-.39,0l-.51,0h-.16l-.82.08c-.44.06-.88.1-1.31.19a2.54,2.54,0,0,0-1.17.44c-.07.06-.17.08-.25.14-.31.2-.6.43-.93.6s-.3.48-.51.67a1.6,1.6,0,0,0-.38.4c-.14.27-.23.56-.36.84-.22.47-.47.94-.7,1.41-.06.12,0,.28-.09.41-.15.36-.35.7-.47,1.07a4.33,4.33,0,0,0-.09.89c0,.23-.06.46-.07.69s0,.25,0,.38l0,0a1.26,1.26,0,0,1,0,.27,2.8,2.8,0,0,0,0,.29c.11.64.22,1.29.34,1.93a2.23,2.23,0,0,0,.22.69c.18.32.19.72.46,1,.06.05.09.27.2.35l1.13.77c.06,0,.1.1.16.12.63.22,1.26.45,1.9.65a1.83,1.83,0,0,0,.57.08c.41,0,.82,0,1.23,0,.23,0,.45,0,.68,0a2,2,0,0,0,.26,0l1.32-.08c.07,0,.13-.08.2-.13s.11-.1.16-.1a5.73,5.73,0,0,0,1.77-.52,3.26,3.26,0,0,0,.64-.43c.25-.18.57-.29.71-.62a.71.71,0,0,1,.25-.34c.37-.2.38-.63.59-.94a4.47,4.47,0,0,0,.38-1,2.69,2.69,0,0,0,.16-.45c.06-.36.09-.72.15-1.07a10.28,10.28,0,0,0,.19-1.06,11.1,11.1,0,0,0,0-1.29C128.08,54.89,128,54.58,128.15,54.29Z" fill="currentColor"/><path d="M9.45,18.82a2.74,2.74,0,0,0-.39-1.27A7.13,7.13,0,0,0,8,16a14.82,14.82,0,0,0-1.28-1.35A5.27,5.27,0,0,0,5.88,14c-.21-.12-.5-.12-.66-.27a1.52,1.52,0,0,0-1-.33,9.1,9.1,0,0,0-1.56.07,6,6,0,0,0-.82.18c-.49.14-1,.25-1.48.43a6.22,6.22,0,0,0-.92.48.75.75,0,0,0-.18.13,2.67,2.67,0,0,1-.53.58,3.58,3.58,0,0,0-.94,1,12.75,12.75,0,0,0-.71,1.15,2.84,2.84,0,0,0-.43,1.42,10.38,10.38,0,0,0,0,2,16.09,16.09,0,0,0,.68,2.92A3.73,3.73,0,0,0-2,25.12c.31.34.59.71.89,1.06s.57.6.87.89a3.6,3.6,0,0,0,.68.5,11.13,11.13,0,0,0,1.06.48c.05,0,.11,0,.16,0s.38-.06.51,0a1.21,1.21,0,0,0,1,0L3.52,28a6.65,6.65,0,0,0,.78-.09c.39-.11.76-.26,1.14-.39a2.71,2.71,0,0,0,.43-.14c.36-.18.71-.37,1-.58a2.08,2.08,0,0,0,.48-.34c.28-.32.54-.67.81-1a11.56,11.56,0,0,0,.77-1,5.9,5.9,0,0,0,.9-2.63,8.66,8.66,0,0,0-.22-2.28A2.21,2.21,0,0,1,9.45,18.82Z" fill="currentColor"/><path d="M79,53.45a2.74,2.74,0,0,0-.39-1.27,7.08,7.08,0,0,0-1-1.55,15,15,0,0,0-1.29-1.36,4.49,4.49,0,0,0-.86-.62c-.2-.12-.5-.12-.66-.27a1.5,1.5,0,0,0-1-.33,9,9,0,0,0-1.56.07,4.62,4.62,0,0,0-.82.18,14.78,14.78,0,0,0-1.48.43,6.64,6.64,0,0,0-.92.47.86.86,0,0,0-.18.14,3.69,3.69,0,0,1-.53.58,3.77,3.77,0,0,0-.95,1c-.27.36-.48.76-.71,1.14a3,3,0,0,0-.42,1.43,9.64,9.64,0,0,0,0,2,15.29,15.29,0,0,0,.68,2.92,3.7,3.7,0,0,0,.66,1.37c.32.34.59.71.9,1a10.42,10.42,0,0,0,.87.89,3.1,3.1,0,0,0,.68.51c.34.18.7.32,1.06.47,0,0,.1,0,.16,0s.37-.06.5,0a1.25,1.25,0,0,0,.95,0l.44-.08a6.65,6.65,0,0,0,.78-.1c.39-.1.77-.25,1.15-.38a3,3,0,0,0,.42-.14c.36-.18.71-.38,1.06-.58a2,2,0,0,0,.47-.34c.29-.32.54-.67.82-1s.53-.61.77-1a6.24,6.24,0,0,0,.72-1.63,7,7,0,0,0,.18-1,8.66,8.66,0,0,0-.23-2.28A2.27,2.27,0,0,1,79,53.45Z" fill="currentColor"/><path d="M103.49,17.39c-.47-1.71-2-2.34-3.17-3.4a3.24,3.24,0,0,0-.95-.52,17.75,17.75,0,0,0-1.86-.64,3.74,3.74,0,0,0-1.72-.25,10.44,10.44,0,0,0-2.61,1,14.22,14.22,0,0,0-2.08,1.5,4.76,4.76,0,0,0-1.23,1.22,6.53,6.53,0,0,0-1.18,2.48c-.08.77-.58,1.51-.11,2.33a2.23,2.23,0,0,1,.4,1.35c-.15.6.19.94.38,1.38a5.82,5.82,0,0,0,.45.94c.33.49.61,1.12,1.08,1.38a7.87,7.87,0,0,0,3.56,1.45c.34,0,.66.39,1,.41a7.22,7.22,0,0,0,3-.84A4,4,0,0,1,100,27a3.14,3.14,0,0,0,1.61-.2,4.76,4.76,0,0,0,1.93-2.63c.39-1.28,1-2.53.63-4l.28,0C104.14,19.24,103.74,18.33,103.49,17.39Z" fill="currentColor"/><path d="M53.32,90.13a.06.06,0,0,0,0-.06c-.15-.46-.27-.93-.45-1.38a7.92,7.92,0,0,0-.95-1.61,9.08,9.08,0,0,0-2-1.71c-.16-.11-.37-.27-.53-.24s-.42-.11-.63-.19-.65-.42-1.07-.23c-.11.05-.27,0-.4,0a4.35,4.35,0,0,0-.51,0l-.15,0-.82.08c-.44.06-.88.1-1.31.19a2.36,2.36,0,0,0-1.17.44,2,2,0,0,1-.25.13,9.43,9.43,0,0,1-.94.61c-.28.15-.29.48-.51.66a1.74,1.74,0,0,0-.37.4c-.15.27-.23.57-.36.85-.23.47-.48.93-.7,1.41-.06.12,0,.28-.09.41A11.21,11.21,0,0,0,39.69,91a4.32,4.32,0,0,0-.1.88c0,.24-.05.47-.06.7a2.53,2.53,0,0,0,0,.38h0a2.4,2.4,0,0,1,0,.28c0,.09,0,.19,0,.28.11.65.22,1.3.35,1.94a2,2,0,0,0,.21.69c.18.32.19.71.47,1,.06.06.08.27.19.35.37.27.76.52,1.13.77.06,0,.11.11.17.13L44,99a1.83,1.83,0,0,0,.57.08c.41,0,.82,0,1.23,0l.69,0,.26,0L48,98.93c.07,0,.14-.08.21-.12s.1-.1.15-.1a5.55,5.55,0,0,0,1.78-.53,3.14,3.14,0,0,0,.63-.42c.26-.18.57-.29.71-.62a.68.68,0,0,1,.25-.34c.38-.21.38-.64.59-.94a4.37,4.37,0,0,0,.39-1,3.39,3.39,0,0,0,.15-.45c.06-.35.09-.71.15-1.06s.17-.71.2-1.07,0-.85,0-1.28S53.13,90.42,53.32,90.13Z" fill="currentColor"/><path d="M8.48,90.44a2.74,2.74,0,0,0-.39-1.27,6.85,6.85,0,0,0-1-1.55,15,15,0,0,0-1.29-1.36,4.49,4.49,0,0,0-.86-.62c-.2-.12-.5-.12-.66-.28a1.54,1.54,0,0,0-1-.32,9,9,0,0,0-1.56.07,4.62,4.62,0,0,0-.82.18c-.5.13-1,.25-1.48.42a8,8,0,0,0-.92.48.86.86,0,0,0-.18.14,3.22,3.22,0,0,1-.53.57,4,4,0,0,0-1,1c-.27.36-.48.76-.71,1.14a3,3,0,0,0-.42,1.43,9.63,9.63,0,0,0,0,2,15.47,15.47,0,0,0,.68,2.92A3.7,3.7,0,0,0-3,96.74c.32.34.59.71.9,1.05a10.42,10.42,0,0,0,.87.89,3.45,3.45,0,0,0,.68.51c.34.18.7.32,1.06.47,0,0,.1,0,.16,0s.37-.06.5,0a1.21,1.21,0,0,0,1,0l.44-.08a6.65,6.65,0,0,0,.78-.1c.39-.1.77-.26,1.15-.39A2,2,0,0,0,4.9,99c.36-.18.71-.38,1.06-.58a2,2,0,0,0,.47-.34c.29-.32.54-.67.82-1s.53-.61.77-1a6.24,6.24,0,0,0,.72-1.63,7,7,0,0,0,.18-1,8.66,8.66,0,0,0-.23-2.28A2.33,2.33,0,0,1,8.48,90.44Z" fill="currentColor"/><path d="M102.52,89c-.46-1.71-2-2.35-3.17-3.4a2.82,2.82,0,0,0-.95-.52,15.57,15.57,0,0,0-1.85-.64,3.93,3.93,0,0,0-1.72-.26,10.32,10.32,0,0,0-2.61,1,13.83,13.83,0,0,0-2.08,1.49,5,5,0,0,0-1.24,1.22,6.63,6.63,0,0,0-1.17,2.49c-.09.76-.58,1.5-.12,2.33A2.18,2.18,0,0,1,88,94.1c-.14.61.2,1,.38,1.39a5.45,5.45,0,0,0,.46.94c.32.49.61,1.12,1.08,1.37a8,8,0,0,0,3.55,1.46c.34,0,.67.39,1,.41a7.23,7.23,0,0,0,3-.85,4,4,0,0,1,1.62-.19,3.08,3.08,0,0,0,1.6-.21,4.8,4.8,0,0,0,1.94-2.62c.39-1.29,1-2.54.63-4l.27,0C103.17,90.86,102.78,90,102.52,89Z" fill="currentColor"/><path d="M17.63,55.74A9,9,0,0,0,19.29,60a10,10,0,0,0,1.83,1.72,4.89,4.89,0,0,0,1.74,1c1.19.26,2.4.8,3.66.21a.75.75,0,0,1,.39,0c1.46.14,2.6-.73,3.8-1.3a2.68,2.68,0,0,0,1-1.49,27.1,27.1,0,0,0,1-3c.42-1.93-.44-3.39-1.12-4.94a9.62,9.62,0,0,0-1.46-1.83,10.9,10.9,0,0,0-1.25-1.64,6.44,6.44,0,0,0-5.43-1.09c-1.88.3-3,1.58-4.08,3-.25.34-.64.62-.77,1-.4,1.13-.7,2.29-1,3.44l.09,0A3.39,3.39,0,0,0,17.63,55.74Z" fill="currentColor"/><path d="M130.73,124.94a0,0,0,0,0,0,0c-.15-.47-.27-.94-.45-1.39a8.2,8.2,0,0,0-.95-1.61,8.77,8.77,0,0,0-2-1.7c-.16-.12-.37-.27-.53-.25s-.42-.1-.63-.19-.65-.41-1.07-.22c-.11,0-.27,0-.4,0s-.34,0-.51,0h-.15l-.82.08c-.44.06-.88.1-1.31.2a2.35,2.35,0,0,0-1.17.43,2,2,0,0,1-.25.14c-.31.2-.61.43-.94.6s-.29.48-.51.67a1.56,1.56,0,0,0-.37.4c-.15.27-.23.57-.36.84-.23.47-.48.94-.7,1.41-.06.12,0,.28-.09.41a11.21,11.21,0,0,0-.47,1.07,4.33,4.33,0,0,0-.1.89c0,.23,0,.46-.06.7a2.4,2.4,0,0,0,0,.37l0,0c0,.09,0,.18,0,.27a2.71,2.71,0,0,0,0,.29c.11.64.22,1.29.35,1.94a2.12,2.12,0,0,0,.21.69c.18.31.19.71.47,1,.06.05.08.27.19.35.37.27.76.51,1.13.77a.88.88,0,0,0,.17.12c.63.22,1.26.45,1.89.65a2.19,2.19,0,0,0,.57.09l1.24,0,.68,0c.08,0,.17,0,.26,0l1.31-.08a.6.6,0,0,0,.21-.13s.1-.1.15-.1a5.79,5.79,0,0,0,1.78-.52,3.2,3.2,0,0,0,.63-.43c.26-.18.57-.29.71-.62a.7.7,0,0,1,.25-.33c.38-.21.38-.64.59-1a4.49,4.49,0,0,0,.39-1,4,4,0,0,0,.15-.45c.06-.36.09-.72.15-1.07s.17-.71.2-1.06,0-.86,0-1.29S130.54,125.23,130.73,124.94Z" fill="currentColor"/><path d="M81.55,124.1a2.74,2.74,0,0,0-.39-1.27,7.13,7.13,0,0,0-1-1.55,14.82,14.82,0,0,0-1.28-1.35,4.74,4.74,0,0,0-.86-.63c-.21-.12-.5-.12-.66-.27a1.52,1.52,0,0,0-1-.33,9.1,9.1,0,0,0-1.56.07,4.62,4.62,0,0,0-.82.18c-.49.13-1,.25-1.48.43a6.22,6.22,0,0,0-.92.48.75.75,0,0,0-.18.13,2.93,2.93,0,0,1-.53.58,3.58,3.58,0,0,0-.94,1,11.49,11.49,0,0,0-.71,1.15,2.84,2.84,0,0,0-.43,1.42,10.38,10.38,0,0,0,0,2,16.09,16.09,0,0,0,.68,2.92,3.73,3.73,0,0,0,.67,1.37c.31.34.58.71.89,1.06s.57.6.87.88a3.27,3.27,0,0,0,.68.51c.34.19.71.32,1.06.48,0,0,.11,0,.16,0s.38-.06.51,0a1.21,1.21,0,0,0,1,0l.44-.08a5,5,0,0,0,.78-.1c.39-.1.76-.25,1.14-.38a3.09,3.09,0,0,0,.43-.14c.36-.18.71-.38,1-.58a2.08,2.08,0,0,0,.48-.34c.28-.32.54-.67.81-1a11.82,11.82,0,0,0,.77-1,5.9,5.9,0,0,0,.9-2.63,8.66,8.66,0,0,0-.22-2.28A2.27,2.27,0,0,1,81.55,124.1Z" fill="currentColor"/><path d="M20.21,126.39a8.87,8.87,0,0,0,1.65,4.3,10.37,10.37,0,0,0,1.84,1.72,4.85,4.85,0,0,0,1.73,1c1.19.27,2.41.8,3.67.21.1,0,.26,0,.39,0,1.45.14,2.6-.73,3.8-1.3a2.62,2.62,0,0,0,1-1.49,29.3,29.3,0,0,0,1-3c.42-1.93-.45-3.39-1.12-4.94a9.3,9.3,0,0,0-1.47-1.83,10.23,10.23,0,0,0-1.24-1.64,6.44,6.44,0,0,0-5.43-1.09c-1.89.3-3.05,1.58-4.09,3-.24.34-.64.62-.77,1-.4,1.13-.7,2.29-1,3.44l.09,0A2.07,2.07,0,0,0,20.21,126.39Z" fill="currentColor"/><path d="M186.84,18.51s0,0,0-.05c-.15-.47-.28-.94-.46-1.39a7.45,7.45,0,0,0-.94-1.61,8.82,8.82,0,0,0-2-1.7.9.9,0,0,0-.52-.25c-.28.05-.43-.1-.63-.19s-.65-.41-1.08-.22c-.1,0-.26,0-.39,0s-.34,0-.51,0h-.16l-.82.08c-.44.06-.88.1-1.31.19a2.54,2.54,0,0,0-1.17.44c-.07.06-.17.08-.25.14-.31.2-.6.43-.93.6s-.3.48-.51.67a1.6,1.6,0,0,0-.38.4c-.14.27-.23.56-.36.84-.22.47-.47.94-.7,1.41-.06.12,0,.28-.09.41-.15.36-.35.7-.47,1.07a4.33,4.33,0,0,0-.09.89c0,.23-.06.46-.07.69s0,.25,0,.38l0,0a1.26,1.26,0,0,1,0,.27,2.8,2.8,0,0,0,0,.29c.11.64.22,1.29.34,1.93a2.23,2.23,0,0,0,.22.69c.18.32.19.72.46,1,.06.05.09.27.2.35l1.13.77c.06,0,.1.1.16.12.63.22,1.26.45,1.9.65a1.83,1.83,0,0,0,.57.08c.41,0,.82,0,1.23,0,.23,0,.45,0,.68,0a2,2,0,0,0,.26-.05l1.32-.08c.07,0,.13-.08.2-.13s.11-.1.16-.1a5.73,5.73,0,0,0,1.77-.52,3.26,3.26,0,0,0,.64-.43c.25-.18.57-.29.71-.62a.64.64,0,0,1,.25-.33c.37-.21.38-.64.59-1a4.47,4.47,0,0,0,.38-1,2.69,2.69,0,0,0,.16-.45c.06-.36.09-.72.15-1.07a10.28,10.28,0,0,0,.19-1.06,11.1,11.1,0,0,0,0-1.29C186.77,19.11,186.65,18.8,186.84,18.51Z" fill="currentColor"/><path d="M260.71,54.29s0,0,0,0c-.15-.47-.28-.94-.46-1.39a7.45,7.45,0,0,0-.94-1.61,8.82,8.82,0,0,0-2-1.7.9.9,0,0,0-.52-.25c-.28.05-.43-.1-.63-.19s-.66-.41-1.08-.22c-.1,0-.26,0-.39,0l-.51,0h-.16l-.82.08c-.44.06-.88.1-1.31.19a2.5,2.5,0,0,0-1.17.44c-.07.06-.17.08-.25.14-.31.2-.6.43-.93.6s-.3.48-.51.67a1.6,1.6,0,0,0-.38.4c-.14.27-.23.56-.36.84-.22.47-.47.94-.7,1.41-.06.12,0,.28-.09.41-.15.36-.35.7-.47,1.07A4.33,4.33,0,0,0,247,56c0,.23-.06.46-.07.69s0,.25,0,.38l0,0a2.51,2.51,0,0,1,0,.27,1.4,1.4,0,0,0,0,.29c.11.64.22,1.29.34,1.93a2.23,2.23,0,0,0,.22.69c.18.32.19.72.46,1,.06.05.09.27.2.35l1.13.77c.06,0,.1.1.16.12.63.22,1.26.45,1.9.65a1.83,1.83,0,0,0,.57.08c.41,0,.82,0,1.23,0,.23,0,.45,0,.68,0a2.38,2.38,0,0,0,.26,0l1.32-.08c.07,0,.13-.08.2-.13s.1-.1.16-.1a5.73,5.73,0,0,0,1.77-.52,3.26,3.26,0,0,0,.64-.43c.25-.18.57-.29.7-.62a.8.8,0,0,1,.26-.34c.37-.2.38-.63.59-.94a4.47,4.47,0,0,0,.38-1,2.69,2.69,0,0,0,.16-.45c.06-.36.09-.72.15-1.07s.16-.71.19-1.06a11.1,11.1,0,0,0,0-1.29C260.64,54.89,260.52,54.58,260.71,54.29Z" fill="currentColor"/><path d="M142,18.82a2.74,2.74,0,0,0-.39-1.27,7.13,7.13,0,0,0-1-1.55,14.82,14.82,0,0,0-1.28-1.35,5.27,5.27,0,0,0-.86-.63c-.21-.12-.5-.12-.66-.27a1.52,1.52,0,0,0-1-.33,9.1,9.1,0,0,0-1.56.07,5.71,5.71,0,0,0-.82.18c-.49.14-1,.25-1.48.43a6.22,6.22,0,0,0-.92.48.75.75,0,0,0-.18.13,2.67,2.67,0,0,1-.53.58,3.58,3.58,0,0,0-.94,1,12.75,12.75,0,0,0-.71,1.15,2.84,2.84,0,0,0-.43,1.42,10.38,10.38,0,0,0,0,2,16.09,16.09,0,0,0,.68,2.92,3.73,3.73,0,0,0,.67,1.37c.31.34.59.71.89,1.06s.57.6.87.89a3.6,3.6,0,0,0,.68.5,11.13,11.13,0,0,0,1.06.48s.11,0,.16,0,.38-.06.51,0a1.21,1.21,0,0,0,.95,0l.44-.08a6.65,6.65,0,0,0,.78-.09c.39-.11.76-.26,1.14-.39a3.09,3.09,0,0,0,.43-.14c.36-.18.71-.37,1-.58a2.08,2.08,0,0,0,.48-.34c.28-.32.54-.67.81-1a11.56,11.56,0,0,0,.77-1,5.9,5.9,0,0,0,.9-2.63,8.66,8.66,0,0,0-.22-2.28A2.21,2.21,0,0,1,142,18.82Z" fill="currentColor"/><path d="M211.53,53.45a2.74,2.74,0,0,0-.39-1.27,7.08,7.08,0,0,0-1-1.55,15,15,0,0,0-1.29-1.36,4.49,4.49,0,0,0-.86-.62c-.2-.12-.5-.12-.66-.27a1.51,1.51,0,0,0-1-.33,9.17,9.17,0,0,0-1.57.07,4.71,4.71,0,0,0-.81.18,14.78,14.78,0,0,0-1.48.43,6.64,6.64,0,0,0-.92.47.86.86,0,0,0-.18.14,3.69,3.69,0,0,1-.53.58,3.61,3.61,0,0,0-1,1c-.27.36-.48.76-.71,1.14a3,3,0,0,0-.42,1.43,9.64,9.64,0,0,0,0,2,15.29,15.29,0,0,0,.68,2.92,3.7,3.7,0,0,0,.66,1.37c.31.34.59.71.9,1a10.42,10.42,0,0,0,.87.89,3.1,3.1,0,0,0,.68.51c.34.18.7.32,1.06.47,0,0,.1,0,.16,0s.37-.06.5,0a1.25,1.25,0,0,0,.95,0l.44-.08a6.65,6.65,0,0,0,.78-.1c.39-.1.77-.25,1.15-.38A3,3,0,0,0,208,62c.36-.18.71-.38,1.06-.58a2,2,0,0,0,.47-.34c.29-.32.54-.67.82-1s.53-.61.77-1a6.24,6.24,0,0,0,.72-1.63,7,7,0,0,0,.18-1,8.66,8.66,0,0,0-.23-2.28A2.27,2.27,0,0,1,211.53,53.45Z" fill="currentColor"/><path d="M236.05,17.39c-.47-1.71-2-2.34-3.17-3.4a3.24,3.24,0,0,0-.95-.52,17.75,17.75,0,0,0-1.86-.64,3.74,3.74,0,0,0-1.72-.25,10.44,10.44,0,0,0-2.61,1,14.22,14.22,0,0,0-2.08,1.5,4.76,4.76,0,0,0-1.23,1.22,6.53,6.53,0,0,0-1.18,2.48c-.08.77-.58,1.51-.11,2.33a2.23,2.23,0,0,1,.4,1.35c-.15.6.19.94.38,1.38a5.82,5.82,0,0,0,.45.94c.33.49.61,1.12,1.08,1.38A7.87,7.87,0,0,0,227,27.64c.34,0,.66.39,1,.41a7.22,7.22,0,0,0,3-.84,4,4,0,0,1,1.61-.2,3.14,3.14,0,0,0,1.61-.2,4.76,4.76,0,0,0,1.93-2.63c.39-1.28,1-2.53.63-4l.28,0C236.7,19.24,236.3,18.33,236.05,17.39Z" fill="currentColor"/><path d="M185.88,90.13a.06.06,0,0,0,0-.06c-.15-.46-.27-.93-.45-1.38a7.92,7.92,0,0,0-1-1.61,9.08,9.08,0,0,0-1.95-1.71c-.16-.11-.37-.27-.53-.24s-.43-.11-.63-.19-.65-.42-1.07-.23c-.11.05-.27,0-.4,0a4.35,4.35,0,0,0-.51,0l-.15,0-.82.08c-.44.06-.88.1-1.32.19a2.36,2.36,0,0,0-1.16.44,2,2,0,0,1-.25.13,9.43,9.43,0,0,1-.94.61c-.28.15-.29.48-.51.66a1.74,1.74,0,0,0-.37.4c-.15.27-.23.57-.36.85-.23.47-.48.93-.7,1.41-.06.12,0,.28-.09.41a11.21,11.21,0,0,0-.47,1.07,4.32,4.32,0,0,0-.1.88c0,.24-.05.47-.06.7a2.53,2.53,0,0,0,0,.38h0a2.4,2.4,0,0,1,0,.28c0,.09,0,.19,0,.28.11.65.22,1.3.35,1.94a2,2,0,0,0,.21.69c.18.32.19.71.47,1,.05.06.08.27.19.35.37.27.75.52,1.13.77.06,0,.11.11.17.13l1.89.65a1.83,1.83,0,0,0,.57.08c.41,0,.82,0,1.23,0l.69,0,.26,0,1.31-.09c.07,0,.14-.08.21-.12s.1-.1.15-.1a5.55,5.55,0,0,0,1.78-.53,3.14,3.14,0,0,0,.63-.42c.26-.18.57-.29.71-.62a.68.68,0,0,1,.25-.34c.38-.21.38-.64.59-.94a4.37,4.37,0,0,0,.39-1,3.39,3.39,0,0,0,.15-.45c.06-.35.09-.71.15-1.06s.17-.71.2-1.07,0-.85,0-1.28S185.69,90.42,185.88,90.13Z" fill="currentColor"/><path d="M141,90.44a2.74,2.74,0,0,0-.39-1.27,6.85,6.85,0,0,0-1-1.55,15,15,0,0,0-1.29-1.36,4.49,4.49,0,0,0-.86-.62c-.2-.12-.5-.12-.66-.28a1.56,1.56,0,0,0-1-.32,9.17,9.17,0,0,0-1.57.07,4.71,4.71,0,0,0-.81.18c-.5.13-1,.25-1.48.42a8,8,0,0,0-.92.48.86.86,0,0,0-.18.14,3.22,3.22,0,0,1-.53.57,3.81,3.81,0,0,0-.95,1c-.27.36-.48.76-.71,1.14a3,3,0,0,0-.42,1.43,9.63,9.63,0,0,0,0,2,15.47,15.47,0,0,0,.68,2.92,3.7,3.7,0,0,0,.66,1.37c.31.34.59.71.9,1.05a10.42,10.42,0,0,0,.87.89,3.45,3.45,0,0,0,.68.51c.34.18.7.32,1.06.47,0,0,.1,0,.16,0s.37-.06.5,0a1.21,1.21,0,0,0,.95,0l.44-.08a6.65,6.65,0,0,0,.78-.1c.39-.1.77-.26,1.15-.39a2,2,0,0,0,.42-.13c.36-.18.71-.38,1.06-.58a2,2,0,0,0,.47-.34c.29-.32.54-.67.82-1s.53-.61.77-1a6.24,6.24,0,0,0,.72-1.63,7,7,0,0,0,.18-1,8.66,8.66,0,0,0-.23-2.28A2.33,2.33,0,0,1,141,90.44Z" fill="currentColor"/><path d="M235.08,89c-.46-1.71-2-2.35-3.17-3.4a2.82,2.82,0,0,0-.95-.52,15.57,15.57,0,0,0-1.85-.64,3.93,3.93,0,0,0-1.72-.26,10.32,10.32,0,0,0-2.61,1,13.83,13.83,0,0,0-2.08,1.49,5,5,0,0,0-1.24,1.22,6.63,6.63,0,0,0-1.17,2.49c-.09.76-.58,1.5-.12,2.33a2.18,2.18,0,0,1,.4,1.34c-.14.61.2,1,.38,1.39a5.45,5.45,0,0,0,.46.94c.32.49.6,1.12,1.08,1.37A8,8,0,0,0,226,99.26c.34,0,.67.39,1,.41a7.23,7.23,0,0,0,2.95-.85,4,4,0,0,1,1.62-.19,3.08,3.08,0,0,0,1.6-.21,4.8,4.8,0,0,0,1.94-2.62c.39-1.29,1-2.54.63-4l.27,0C235.73,90.86,235.34,90,235.08,89Z" fill="currentColor"/><path d="M150.19,55.74a9,9,0,0,0,1.66,4.3,10,10,0,0,0,1.83,1.72,4.89,4.89,0,0,0,1.74,1c1.19.26,2.4.8,3.66.21a.75.75,0,0,1,.39,0c1.46.14,2.6-.73,3.8-1.3a2.68,2.68,0,0,0,1-1.49,27.1,27.1,0,0,0,1-3c.42-1.93-.44-3.39-1.12-4.94a9.62,9.62,0,0,0-1.46-1.83,10.9,10.9,0,0,0-1.25-1.64A6.44,6.44,0,0,0,156,47.7c-1.89.3-3,1.58-4.08,3-.25.34-.64.62-.77,1-.4,1.13-.7,2.29-1,3.44l.09,0A3.39,3.39,0,0,0,150.19,55.74Z" fill="currentColor"/><path d="M263.29,124.94a0,0,0,0,0,0,0c-.15-.47-.27-.94-.45-1.39a8.2,8.2,0,0,0-.95-1.61,8.77,8.77,0,0,0-1.95-1.7c-.16-.12-.37-.27-.53-.25s-.42-.1-.63-.19-.65-.41-1.07-.22c-.11,0-.27,0-.4,0s-.34,0-.51,0h-.15l-.82.08c-.44.06-.88.1-1.31.2a2.35,2.35,0,0,0-1.17.43,2,2,0,0,1-.25.14c-.31.2-.61.43-.94.6s-.29.48-.51.67a1.56,1.56,0,0,0-.37.4c-.15.27-.23.57-.36.84-.23.47-.48.94-.7,1.41-.06.12,0,.28-.09.41a11.21,11.21,0,0,0-.47,1.07,4.33,4.33,0,0,0-.1.89c0,.23-.05.46-.06.7a2.4,2.4,0,0,0,0,.37l0,0a2.48,2.48,0,0,1,0,.27c0,.09,0,.19,0,.29.11.64.22,1.29.35,1.94a2.12,2.12,0,0,0,.21.69c.18.31.19.71.47,1,.06.05.08.27.19.35.37.27.76.51,1.13.77a.88.88,0,0,0,.17.12c.63.22,1.26.45,1.89.65a2.19,2.19,0,0,0,.57.09l1.23,0q.34,0,.69,0c.08,0,.17,0,.26,0l1.31-.08a.6.6,0,0,0,.21-.13s.1-.1.15-.1a5.79,5.79,0,0,0,1.78-.52,3.2,3.2,0,0,0,.63-.43c.26-.18.57-.29.71-.62a.7.7,0,0,1,.25-.33c.38-.21.38-.64.59-1a4.49,4.49,0,0,0,.39-1,4,4,0,0,0,.15-.45c.06-.36.09-.72.15-1.07s.17-.71.2-1.06,0-.86,0-1.29S263.1,125.23,263.29,124.94Z" fill="currentColor"/><path d="M214.11,124.1a2.74,2.74,0,0,0-.39-1.27,7.13,7.13,0,0,0-1-1.55,14.82,14.82,0,0,0-1.28-1.35,4.74,4.74,0,0,0-.86-.63c-.21-.12-.5-.12-.67-.27a1.48,1.48,0,0,0-1-.33,9.1,9.1,0,0,0-1.56.07,4.62,4.62,0,0,0-.82.18c-.49.13-1,.25-1.48.43a6.22,6.22,0,0,0-.92.48.75.75,0,0,0-.18.13,3.26,3.26,0,0,1-.53.58,3.58,3.58,0,0,0-.94,1,11.49,11.49,0,0,0-.71,1.15,2.84,2.84,0,0,0-.43,1.42,10.38,10.38,0,0,0,0,2A16.09,16.09,0,0,0,202,129a3.73,3.73,0,0,0,.67,1.37c.31.34.58.71.89,1.06s.57.6.87.88a3.27,3.27,0,0,0,.68.51c.34.19.71.32,1.06.48,0,0,.11,0,.16,0s.38-.06.51,0a1.21,1.21,0,0,0,1,0l.44-.08a5,5,0,0,0,.78-.1c.39-.1.76-.25,1.14-.38a3.09,3.09,0,0,0,.43-.14c.36-.18.71-.38,1.05-.58a2.08,2.08,0,0,0,.48-.34c.28-.32.54-.67.81-1s.53-.61.77-1a5.9,5.9,0,0,0,.9-2.63,9.1,9.1,0,0,0-.22-2.28A2.27,2.27,0,0,1,214.11,124.1Z" fill="currentColor"/><path d="M152.77,126.39a8.87,8.87,0,0,0,1.65,4.3,10.66,10.66,0,0,0,1.83,1.72,5,5,0,0,0,1.74,1c1.19.27,2.41.8,3.67.21.1,0,.26,0,.39,0,1.45.14,2.59-.73,3.8-1.3a2.62,2.62,0,0,0,1-1.49,29.3,29.3,0,0,0,1-3c.42-1.93-.45-3.39-1.12-4.94a9.3,9.3,0,0,0-1.47-1.83,10.23,10.23,0,0,0-1.24-1.64,6.45,6.45,0,0,0-5.43-1.09c-1.89.3-3.05,1.58-4.09,3-.24.34-.64.62-.77,1-.4,1.13-.7,2.29-1,3.44l.09,0A2.07,2.07,0,0,0,152.77,126.39Z" fill="currentColor"/></pattern></defs><rect width="283.46" height="283.46" fill="url(#a)"/></svg>
