<svg xmlns="http://www.w3.org/2000/svg" xmlns:xlink="http://www.w3.org/1999/xlink" viewBox="0 0 283.46 283.46"><defs><pattern id="a" width="283.46" height="283.46" patternUnits="userSpaceOnUse" viewBox="0 0 283.46 283.46"><rect width="283.46" height="283.46" fill="none"/><path d="M147,293.7a12.46,12.46,0,0,1,.71-2,32.59,32.59,0,0,1,2.05-3.52c3.08-4.57,6.21-9.11,9.31-13.66.54-.79,1-1.63,1.58-2.41s1.35-1.08,2-.58a1.42,1.42,0,0,1,.34,2.11c-1.09,1.67-2.23,3.31-3.36,5-2.58,3.75-5.2,7.47-7.74,11.25-1,1.44-2,2.85-2.22,4.71a1.36,1.36,0,0,1-1.32,1.18C147.43,295.74,146.84,295.09,147,293.7Z" fill="currentColor"/><path d="M152.35,298c-1.55-.35-1.79-.58-1.58-1.74a6.28,6.28,0,0,1,.62-1.78,57.32,57.32,0,0,1,5.4-7.89c2.42-3.27,4.89-6.51,7.34-9.76.14-.19.26-.41.41-.59a1.24,1.24,0,0,1,1.71-.27,1.23,1.23,0,0,1,.55,1.8,15.57,15.57,0,0,1-1.3,2c-2.69,3.58-5.41,7.13-8.11,10.7a43.35,43.35,0,0,0-4.69,7.22C152.64,297.81,152.47,297.89,152.35,298Z" fill="currentColor"/><path d="M157.9,300.88a15,15,0,0,1,2.21-5.08c1.13-1.93,2.39-3.78,3.57-5.68,1.84-3,3.64-6,5.51-9a16.61,16.61,0,0,1,1.93-2.43,1.29,1.29,0,0,1,1.75,0,1,1,0,0,1,.43,1.26,7.28,7.28,0,0,1-.7,1.25c-2.18,3.45-4.38,6.88-6.53,10.34-1.95,3.12-3.84,6.27-5.76,9.41-.12.2-.29.37-.51.66Z" fill="currentColor"/><path d="M247.27,274.14a1.89,1.89,0,0,1,1.52,1.22,1.09,1.09,0,0,1-.39,1.29c-.61.49-1.3.91-1.9,1.43-2.88,2.51-5.74,5-8.62,7.57a64.63,64.63,0,0,0-7.76,7.76c-.35.44-.74.89-1.4.62s-.71-.83-.55-1.66a4.67,4.67,0,0,1,1.25-2.28c1.49-1.55,2.91-3.18,4.49-4.63,3.35-3.08,6.77-6.07,10.17-9.07.78-.68,1.62-1.3,2.45-1.92A3.26,3.26,0,0,1,247.27,274.14Z" fill="currentColor"/><path d="M259.66,283.85c-2.51,1.27-4.36,3.5-6.5,5.4-3,2.71-6,5.49-9,8.26-.58.54-1.08,1.17-1.64,1.74s-1.42.78-1.92.34a1.75,1.75,0,0,1-.38-2,7.36,7.36,0,0,1,1.19-1.48c2.93-2.72,5.89-5.4,8.83-8.1,1.35-1.24,2.63-2.57,4-3.73a23.31,23.31,0,0,1,3.4-2.21,1.71,1.71,0,0,1,1.35,0A1.29,1.29,0,0,1,259.66,283.85Z" fill="currentColor"/><path d="M252.64,278.82a11.33,11.33,0,0,1,1.23,1.15,1,1,0,0,1-.22,1.48l-.18.15q-7,5.46-13.92,10.94c-1.06.84-2.08,1.74-3.11,2.62-.24.21-.44.46-.69.66a1.26,1.26,0,0,1-1.73.06,1.32,1.32,0,0,1-.21-1.75,9,9,0,0,1,1.57-1.79q7.51-6.1,15.1-12.13A25.67,25.67,0,0,1,252.64,278.82Z" fill="currentColor"/><path d="M75.24,285.27a4.56,4.56,0,0,1-2.32.2,70.17,70.17,0,0,0-11.22.8c-4,.53-8.05,1.27-12.07,1.9a5.87,5.87,0,0,1-1.66.15,1.24,1.24,0,0,1-.85-.67,1.21,1.21,0,0,1,.25-1.07,4.55,4.55,0,0,1,1.71-.8c3.05-.62,6.1-1.22,9.17-1.73,2.2-.36,4.43-.65,6.65-.79,2.55-.16,5.1-.17,7.66-.13a6.48,6.48,0,0,1,2.25.68C75.43,284.08,75.47,284.65,75.24,285.27Z" fill="currentColor"/><path d="M211.38,287.31a4.43,4.43,0,0,1,.1.59.83.83,0,0,1-.64.89,1.56,1.56,0,0,1-2-.77,15.6,15.6,0,0,1-.85-2c-1.12-3.16-2.2-6.33-3.33-9.48a62.09,62.09,0,0,0-3.65-8.32,15.16,15.16,0,0,1-.93-2.19.84.84,0,0,1,.35-1,1.31,1.31,0,0,1,1.56,0,3.87,3.87,0,0,1,.54.78c.81,1.47,1.68,2.91,2.38,4.42.87,1.88,1.66,3.8,2.38,5.74,1.26,3.36,2.44,6.75,3.66,10.13C211.05,286.46,211.2,286.83,211.38,287.31Z" fill="currentColor"/><path d="M194.42,266.4c1.5-1,2.16-1,2.73.09a74.07,74.07,0,0,1,3.57,7.54c1.5,4,2.75,8,4.11,12,0,.15.11.29.16.45.22.77.12,1.23-.33,1.48a1.44,1.44,0,0,1-1.92-.36,12.48,12.48,0,0,1-1.17-2.34c-.89-2.48-1.77-4.95-2.56-7.46a45.52,45.52,0,0,0-3.54-8.86A23.59,23.59,0,0,1,194.42,266.4Z" fill="currentColor"/><path d="M189.13,269.79a8.56,8.56,0,0,1-.18-1.21,1.18,1.18,0,0,1,1-1.18.92.92,0,0,1,1.18.53c.69,1.35,1.42,2.68,2,4.07.77,1.83,1.42,3.71,2.12,5.57.93,2.46,1.86,4.92,2.76,7.39.35,1,.66,2,.92,3a1.07,1.07,0,0,1-.6,1.39,1.34,1.34,0,0,1-1.81-.66c-.7-1.69-1.3-3.42-2-5.12-1.78-4.34-3.05-8.89-5.15-13.1C189.31,270.28,189.26,270.12,189.13,269.79Z" fill="currentColor"/><path d="M313.81,59.9c-.8-.2-1.64-.4-2.48-.63-4.22-1.19-8.43-2.4-12.66-3.57a3.87,3.87,0,0,0-1.87-.14,4.71,4.71,0,0,1-3-.48c-1.85-.74-3.68-1.54-5.53-2.25-2.16-.82-4.35-1.57-6.52-2.37a9.59,9.59,0,0,1-1.73-.77,1.55,1.55,0,0,1-.57-1.91.83.83,0,0,1,.89-.64,5.66,5.66,0,0,1,1.15.27l13.44,4.27c4.71,1.49,9.43,2.93,14.12,4.46a45.18,45.18,0,0,1,4.61,1.91C314.43,58.41,314.43,58.75,313.81,59.9Z" fill="currentColor"/><path d="M277,155.49c.83.13,2.19.24,3.51.54,3.41.8,6.82,1.66,10.21,2.53s6.78,1.75,10.14,2.71c2.15.61,4.28,1.3,6.36,2.11a7.39,7.39,0,0,1,2.3,1.65c.25.24.23.89.16,1.32s-.54.54-1,.51a2.38,2.38,0,0,1-2-.64,4.3,4.3,0,0,0-2.34-1.13q-7.26-2-14.53-4.05c-2.31-.63-4.63-1.23-6.95-1.82a34,34,0,0,0-7.28-1.33,1.11,1.11,0,0,1-1.15-.68,1.16,1.16,0,0,1,1-1.71C275.82,155.47,276.14,155.49,277,155.49Z" fill="currentColor"/><path d="M283.21,56.44c2.47.36,5.17.65,7.84,1.15,4.86.9,9.71,1.9,14.55,2.93,1.4.29,2.76.79,4.13,1.22A2.16,2.16,0,0,1,311.14,63a1.18,1.18,0,0,1-.14,1.34c-.3.35-.67.3-1.09.2-2.56-.64-5.11-1.32-7.69-1.85-5.24-1.06-10.49-2-15.75-3-1.41-.27-2.85-.36-4.27-.57a4.48,4.48,0,0,1-1.37-.37,1,1,0,0,1-.52-1.21,1.42,1.42,0,0,1,.77-.77A13.73,13.73,0,0,1,283.21,56.44Z" fill="currentColor"/><path d="M274.56,151.77c0-.68-.07-1.28-.1-1.91a5.17,5.17,0,0,1,3.18,0q2.82.57,5.61,1.28c6,1.52,11.84,3.31,17.66,5.3a45.78,45.78,0,0,1,4.83,2.1,9.28,9.28,0,0,1,1.95,1.37c.47.4.54.95,0,1.64-2.17-.53-4.16-1.71-6.31-2.42s-4.41-1.42-6.63-2.1-4.28-1.28-6.43-1.9-4.45-1.32-6.7-1.86S277.14,152.29,274.56,151.77Z" fill="currentColor"/><path d="M308,171.11a3.35,3.35,0,0,1-.82-.11,36.2,36.2,0,0,0-9.06-3c-5.92-1.33-11.84-2.67-17.87-3.43a5.54,5.54,0,0,1-1.39-.34,1.4,1.4,0,0,1-.44-2,1.43,1.43,0,0,1,1.05-.33c1.75.18,3.51.33,5.23.66,5.24,1,10.49,2,15.69,3.25a43.62,43.62,0,0,1,6.05,2.24,2.42,2.42,0,0,1,1.64,1.62A5.41,5.41,0,0,1,308,171.11Z" fill="currentColor"/><path d="M283.68,62.7c1.5.25,3,.54,4.49.75,4.59.64,9.18,1.22,13.77,1.88,1.74.25,3.46.6,5.17,1a6.83,6.83,0,0,1,2,.81,1.55,1.55,0,0,1,.77,1.63.8.8,0,0,1-.78.77,3.61,3.61,0,0,1-1.16-.22,31.47,31.47,0,0,0-6.09-1.23c-5.46-.76-10.9-1.56-16.35-2.36a18.74,18.74,0,0,1-2.1-.47,1.71,1.71,0,0,1-.64-.3,1.53,1.53,0,0,1-.42-1.53A1.18,1.18,0,0,1,283.68,62.7Z" fill="currentColor"/><path d="M301.29,4a1.86,1.86,0,0,1,1.52,1.21,1.09,1.09,0,0,1-.39,1.29c-.61.5-1.3.91-1.9,1.43-2.88,2.51-5.74,5-8.62,7.57a64.72,64.72,0,0,0-7.76,7.77c-.35.43-.74.89-1.4.62s-.71-.84-.54-1.67A4.52,4.52,0,0,1,283.45,20c1.48-1.56,2.9-3.19,4.48-4.64,3.35-3.07,6.77-6.06,10.18-9.07.77-.68,1.61-1.3,2.44-1.91A2.87,2.87,0,0,1,301.29,4Z" fill="currentColor"/><path d="M123.34,164.35c-2-.5-3.85-.95-5.69-1.44-6.63-1.75-13.26-3.53-19.89-5.27q-4-1.06-8.13-2c-1-.24-2-.32-3.07-.48-.85-.13-1.3-.52-1.28-1.14a1.52,1.52,0,0,1,1.21-1.56,4.24,4.24,0,0,1,1.42-.06,35.61,35.61,0,0,1,4.23.73q12.49,3.27,25,6.65a25.81,25.81,0,0,1,5.81,2.19C123.86,162.48,123.92,162.78,123.34,164.35Z" fill="currentColor"/><path d="M86.43,163.77c-.45-1.84-.29-2.21,1.14-2.5a12,12,0,0,1,5.23.11c4.51,1.07,9,2.16,13.51,3.24a90.17,90.17,0,0,1,10.81,3.12c1.19.44,2.35,1,3.51,1.51a1.54,1.54,0,0,1,.9,1.56c0,.77-.51,1.19-1.24,1-3-.93-5.91-2-8.92-2.76-6.73-1.68-13.38-3.76-20.26-4.83C89.62,164,88.11,163.91,86.43,163.77Z" fill="currentColor"/><path d="M30.35,59.9c-.8-.2-1.65-.4-2.48-.63-4.22-1.19-8.43-2.4-12.66-3.57a3.91,3.91,0,0,0-1.88-.14,4.71,4.71,0,0,1-3-.48c-1.84-.74-3.67-1.54-5.53-2.25C2.63,52,.44,51.26-1.72,50.46a9.29,9.29,0,0,1-1.73-.77A1.56,1.56,0,0,1-4,47.78a.83.83,0,0,1,.89-.64A5.91,5.91,0,0,1-2,47.41l13.44,4.27c4.7,1.49,9.42,2.93,14.11,4.46a46.31,46.31,0,0,1,4.62,1.91C31,58.41,31,58.75,30.35,59.9Z" fill="currentColor"/><path d="M89.48,145.73A15.14,15.14,0,0,1,91,146c5.93,1.86,11.87,3.71,17.79,5.63,3.11,1,6.2,2.09,9.27,3.19a22.47,22.47,0,0,1,2.81,1.32,1.81,1.81,0,0,1,1,1.52c.1,1-.55,1.6-1.44,1.2-7.18-3.17-14.79-5.06-22.25-7.38-2.21-.68-4.44-1.29-6.66-1.94a7.54,7.54,0,0,1-1.11-.44c-.57-.27-1.18-.51-1.44-1.18C88.8,147.46,88.84,147.27,89.48,145.73Z" fill="currentColor"/><path d="M87.27,266.71c-1.59-1.31-3.06-2.52-4.52-3.75-5.22-4.44-10.44-8.9-15.67-13.33q-3.19-2.7-6.47-5.32c-.8-.64-1.7-1.16-2.56-1.75s-.95-1-.66-1.57a1.52,1.52,0,0,1,1.76-.9,4.2,4.2,0,0,1,1.3.56A37.6,37.6,0,0,1,64,243.13q9.85,8.34,19.65,16.76a25.69,25.69,0,0,1,4.3,4.48C88.55,265.26,88.47,265.55,87.27,266.71Z" fill="currentColor"/><path d="M54.22,250.28c.38-1.85.69-2.11,2.11-1.77A12,12,0,0,1,61,250.88c3.6,2.9,7.19,5.83,10.79,8.74a90.3,90.3,0,0,1,8.41,7.47c.88.92,1.7,1.9,2.51,2.88a1.52,1.52,0,0,1,.15,1.79.9.9,0,0,1-1.54.34c-2.28-2.11-4.47-4.35-6.86-6.33-5.35-4.42-10.45-9.16-16.2-13.09C57,251.83,55.67,251.13,54.22,250.28Z" fill="currentColor"/><path d="M64.74,235.32a14.87,14.87,0,0,1,1.24.92c4.56,4.24,9.12,8.47,13.63,12.75,2.38,2.24,4.69,4.55,7,6.88a21.67,21.67,0,0,1,2,2.4,1.83,1.83,0,0,1,.27,1.81c-.35.95-1.19,1.2-1.82.46-5.11-6-11.17-10.94-16.9-16.24-1.7-1.57-3.45-3.08-5.17-4.63a7.39,7.39,0,0,1-.81-.87,2.42,2.42,0,0,1-.8-1.68C63.38,236.59,63.5,236.43,64.74,235.32Z" fill="currentColor"/><path d="M79.06,43.63c-.31-.09-.61-.18-.92-.25A119.6,119.6,0,0,0,58.2,40.71c-3.27-.19-6.54-.34-9.81-.53-.72,0-1.43-.14-2.14-.25a1.08,1.08,0,0,1-.93-1,1.28,1.28,0,0,1,.83-1.32,5.21,5.21,0,0,1,1.41-.19c3.52.09,7,.09,10.54.33,3.66.25,7.32.66,11,1.15a46.41,46.41,0,0,1,9.61,1.87,2.15,2.15,0,0,1,1.58,1.3A1.07,1.07,0,0,1,79.06,43.63Z" fill="currentColor"/><path d="M-6.48,155.49c.83.13,2.19.24,3.5.54,3.42.8,6.82,1.66,10.22,2.53s6.78,1.75,10.14,2.71c2.14.61,4.28,1.3,6.35,2.11A7.43,7.43,0,0,1,26,165c.25.24.23.89.16,1.32s-.54.54-1,.51a2.38,2.38,0,0,1-2-.64,4.26,4.26,0,0,0-2.34-1.13Q13.67,163,6.41,161c-2.31-.63-4.63-1.23-6.95-1.82a34,34,0,0,0-7.29-1.33A1.09,1.09,0,0,1-9,157.21a1.16,1.16,0,0,1,1-1.71C-7.64,155.47-7.32,155.49-6.48,155.49Z" fill="currentColor"/><path d="M49.23,43.9c1.34.12,2.46.2,3.57.32,7.55.82,15.1,1.6,22.64,2.49a31.88,31.88,0,0,1,4.63,1.21,2.73,2.73,0,0,1,.86.41,1.17,1.17,0,0,1,.47,1.28c-.16.55-.63.68-1.14.67a2.58,2.58,0,0,1-.48,0c-7.63-1.43-15.37-2-23.08-2.85-2.3-.26-4.6-.57-6.9-.87a5.89,5.89,0,0,1-1.38-.32,1.19,1.19,0,0,1,.32-2.27A2.27,2.27,0,0,1,49.23,43.9Z" fill="currentColor"/><path d="M40.07,150.27a4.67,4.67,0,0,1-.76-.31,1.63,1.63,0,0,1-.68-1.89,9,9,0,0,1,.79-2,36.91,36.91,0,0,1,4.62-7c4-4.85,8.11-9.63,12.18-14.44a14,14,0,0,1,1-1.06,1.34,1.34,0,0,1,2.09,0,1.6,1.6,0,0,1,0,2.17c-4.73,4.43-8.37,9.82-12.65,14.65a33.94,33.94,0,0,0-5.84,9A4.11,4.11,0,0,1,40.07,150.27Z" fill="currentColor"/><path d="M49.25,30.13a42.43,42.43,0,0,1,7.5.8c4.81.72,9.63,1.46,14.43,2.28,2.59.44,5.16,1,7.72,1.65a4.36,4.36,0,0,1,1.64.91,1.12,1.12,0,0,1,.22,1.51,1.19,1.19,0,0,1-1.3.36c-2.18-.47-4.36-1-6.56-1.36-4-.66-8.05-1.22-12.08-1.8-3.48-.5-7-.95-10.43-1.47A3.19,3.19,0,0,1,49,32.28C48.58,32,48.69,31.54,49.25,30.13Z" fill="currentColor"/><path d="M185.4,197.57c-10.9-.8-21.74-.36-32.42,2.65a6,6,0,0,1-.53-.78c-.39-.88-.27-1.48.51-1.79a28,28,0,0,1,3.86-1.24A78.86,78.86,0,0,1,167,195a101.35,101.35,0,0,1,11.94-.38,17.83,17.83,0,0,1,5.88.94C185.66,195.85,185.73,196.14,185.4,197.57Z" fill="currentColor"/><path d="M158.49,154c0-3.51.08-7,.14-10.54a8,8,0,0,1,.23-1.89,1.11,1.11,0,0,1,2-.43,2.07,2.07,0,0,1,.47,1.27c0,1.2-.25,2.39-.23,3.59.12,6,.25,12,.48,17.95.06,1.74.46,3.47.67,5.22.14,1.18.23,2.38.3,3.57a1,1,0,0,1-.78,1.06,1.53,1.53,0,0,1-1.61-.77,7,7,0,0,1-.21-.93,64.94,64.94,0,0,1-1.34-13.55c0-1.52,0-3,0-4.55Z" fill="currentColor"/><path d="M192.9,108.92c2.4.08,4.79.13,7.18.24a6.61,6.61,0,0,1,3.65,1,4.05,4.05,0,0,1,1,1,1,1,0,0,1,.07.89c-.11.21-.5.3-.78.39a1.1,1.1,0,0,1-.47,0c-4.43-.88-8.9-.58-13.36-.57a96.08,96.08,0,0,0-13.13,1c-1,.14-2,.4-3.06.53a1.12,1.12,0,0,1-1.41-1c-.15-.75.05-1.28.84-1.48a36.86,36.86,0,0,1,5.37-1.12c3.49-.35,7-.54,10.5-.75,1.19-.07,2.39,0,3.59,0Z" fill="currentColor"/><path d="M64.88,130.23c-1.29,1.53-2.53,3-3.75,4.44-3.11,3.75-6.27,7.47-9.31,11.28a28.4,28.4,0,0,0-4.12,7c-.09.22-.14.46-.25.68a.93.93,0,0,1-1.58.19,1.84,1.84,0,0,1-.5-1.77,11.63,11.63,0,0,1,.6-1.81,24.37,24.37,0,0,1,3.39-5.77c4.15-5.07,8.37-10.08,12.56-15.11a3.73,3.73,0,0,1,.32-.36,1.17,1.17,0,0,1,1.89,0A6.8,6.8,0,0,1,64.88,130.23Z" fill="currentColor"/><path d="M206.91,149.6a1,1,0,0,1-1.09.91,5.56,5.56,0,0,1-1.09-.48,32.2,32.2,0,0,0-8.13-3.47c-5.21-1.54-10.48-2.86-15.72-4.28a21.09,21.09,0,0,1-2.06-.6,1.18,1.18,0,0,1-.86-1.49,1.2,1.2,0,0,1,1.51-1.09c1.57.28,3.16.52,4.7.92a157.84,157.84,0,0,1,15.63,4.57,27.56,27.56,0,0,1,5.82,2.79A2.84,2.84,0,0,1,206.91,149.6Z" fill="currentColor"/><path d="M145.89,156.87c.42-4.69.83-9.3,1.25-13.91,0-.48.07-1,.15-1.43s.27-1.13.94-1.24a1.61,1.61,0,0,1,1.79,1.23,8.71,8.71,0,0,1,0,1.91c-.19,2.07-.47,4.13-.62,6.2-.22,3.18-.43,6.37-.53,9.56a30,30,0,0,0,1,8.53,10,10,0,0,1,.34,2.35,1,1,0,0,1-1.4.84,2,2,0,0,1-1.34-1.54c-.4-1.8-.94-3.57-1.16-5.39C146,161.61,146,159.21,145.89,156.87Z" fill="currentColor"/><path d="M207.09,106.29c-2-.29-3.92-.66-5.89-.85a72.86,72.86,0,0,0-21.65,1.28c-1.09.22-2.15.61-3.22.9-.74.2-1.21,0-1.44-.44a1.41,1.41,0,0,1,.41-1.91,9,9,0,0,1,2.21-.89c2.1-.45,4.21-.87,6.33-1.18,2.29-.34,4.59-.66,6.89-.77A53.17,53.17,0,0,1,205,103.66a3.8,3.8,0,0,1,2.26,1.2C207.53,105.24,207.52,105.44,207.09,106.29Z" fill="currentColor"/><path d="M-.26,56.44c2.47.36,5.18.65,7.84,1.15,4.87.9,9.72,1.9,14.56,2.93,1.4.29,2.76.79,4.13,1.22A2.18,2.18,0,0,1,27.68,63a1.2,1.2,0,0,1-.15,1.34c-.3.35-.67.3-1.09.2-2.55-.64-5.1-1.32-7.68-1.85-5.24-1.06-10.5-2-15.75-3C1.6,59.34.15,59.25-1.27,59a4.5,4.5,0,0,1-1.36-.37,1,1,0,0,1-.53-1.21,1.43,1.43,0,0,1,.78-.77A13.58,13.58,0,0,1-.26,56.44Z" fill="currentColor"/><path d="M209.42,140.86a35.1,35.1,0,0,0-8-4q-7.35-2.91-14.7-5.82c-.88-.35-1.82-.57-2.72-.89-1.71-.6-1.9-1.19-1.06-3.07a2.25,2.25,0,0,1,2.06.15c2.52,1,5,2,7.56,3,3.49,1.39,7,2.77,10.45,4.2,1.55.64,3.08,1.33,4.57,2.1a9.88,9.88,0,0,1,2.11,1.53C210.63,139,210.58,139.37,209.42,140.86Z" fill="currentColor"/><path d="M151.24,102.45a12,12,0,0,1-1.67-.77c-5.13-3.38-10.39-6.56-15.28-10.29l-2.09-1.6a17.89,17.89,0,0,0-5.57-3.2,1.26,1.26,0,0,1-.86-1.7,1,1,0,0,1,1-.82,5.16,5.16,0,0,1,1.16.22,13.38,13.38,0,0,1,4.88,2.49c5,3.86,10.26,7.29,15.54,10.72a19,19,0,0,1,3,2.4C152.14,100.67,152.06,101.32,151.24,102.45Z" fill="currentColor"/><path d="M16.84,89.83c.22,1.9.39,3.8.66,5.69a137.86,137.86,0,0,0,2.38,14.15c.32,1.31.72,2.61,1.05,3.92a7.7,7.7,0,0,1,.22,1.65,1.19,1.19,0,0,1-1.1,1.08,1,1,0,0,1-1.18-.6,8,8,0,0,1-.46-1.35c-.64-2.47-1.33-4.92-1.88-7.41-.5-2.33-.87-4.69-1.25-7-.32-2-.64-3.94-.82-5.92s-.18-4.14-.24-6.21a4.46,4.46,0,0,1,.09-1,1.28,1.28,0,0,1,1.26-1.19A1.48,1.48,0,0,1,17,86.94c0,1,0,1.92,0,2.87Z" fill="currentColor"/><path d="M124.64,202.85a44.93,44.93,0,0,0-5.54,5.58c-1.57,1.7-3.1,3.44-4.71,5.1a98.68,98.68,0,0,0-8.11,9.46,10.86,10.86,0,0,1-1.4,1.62,1.4,1.4,0,0,1-1.08.24,1.25,1.25,0,0,1-.81-1.33,3.71,3.71,0,0,1,.6-1.27c2-2.53,3.82-5.13,5.92-7.53,3.31-3.8,6.75-7.46,10.17-11.16a22.88,22.88,0,0,1,2.27-2.13c1.18-1,1.89-.75,2.61.66A2.16,2.16,0,0,1,124.64,202.85Z" fill="currentColor"/><path d="M60.3,198.24a34.13,34.13,0,0,1,.78-7.12c1.23-5.2,2.44-10.41,3.68-15.61a18.73,18.73,0,0,1,.82-2.5,1,1,0,0,1,1.4-.48c1,.47,1.34,1.05,1,2.08a152,152,0,0,0-4.73,20.75,37.87,37.87,0,0,0-.27,5c0,.39,0,.8,0,1.19s-.06,1-.62,1.17a1.35,1.35,0,0,1-1.6-.72,11.57,11.57,0,0,1-.46-2.1A13.27,13.27,0,0,1,60.3,198.24Z" fill="currentColor"/><path d="M-8.91,151.77c0-.68-.06-1.28-.09-1.91a5.17,5.17,0,0,1,3.18,0c1.87.38,3.75.81,5.6,1.28,6,1.52,11.84,3.31,17.66,5.3a44.89,44.89,0,0,1,4.83,2.1,9.34,9.34,0,0,1,2,1.37c.46.4.54.95,0,1.64-2.17-.53-4.16-1.71-6.32-2.42s-4.41-1.42-6.62-2.1-4.29-1.28-6.44-1.9-4.44-1.32-6.69-1.86S-6.33,152.29-8.91,151.77Z" fill="currentColor"/><path d="M37.24,143a1.76,1.76,0,0,1-1.43-2.15,10.72,10.72,0,0,1,2.17-4c2.51-2.9,5.06-5.77,7.53-8.7s4.88-5.91,7.31-8.88c.2-.24.37-.52.58-.77.63-.77,1.21-.92,1.83-.47a1.51,1.51,0,0,1,.54,2.09,13,13,0,0,1-1.17,1.51q-5.2,6.12-10.42,12.22c-1.09,1.28-2.21,2.52-3.28,3.82a12.09,12.09,0,0,0-2.46,4.07,3,3,0,0,1-.64,1C37.66,142.91,37.38,142.94,37.24,143Z" fill="currentColor"/><path d="M144.35,62.69c2.76.45,5.37.82,8,1.31q6.36,1.2,12.69,2.53c2.19.46,4.35,1,6.51,1.63a18.26,18.26,0,0,1,2.43,1,1.61,1.61,0,0,1,.54,2.39,1.21,1.21,0,0,1-1.08.1c-2.43-1.35-5.14-1.72-7.78-2.31-4-.9-8-1.67-12-2.46-2.66-.53-5.34-1-8-1.51a4.91,4.91,0,0,1-1.16-.27,2,2,0,0,1-.87-.76,1.51,1.51,0,0,1-.09-1.12C143.65,63,144.11,62.83,144.35,62.69Z" fill="currentColor"/><path d="M72.22,201.13c-.27-2.37.38-5.11,1-7.83.88-4.13,1.95-8.22,3-12.32a31,31,0,0,1,1.28-3.85,1.22,1.22,0,0,1,2-.58,1,1,0,0,1,.56,1.2c-.18.7-.47,1.36-.65,2.06-1.57,6.1-3.11,12.2-4.21,18.41a35.89,35.89,0,0,0-.26,4.53c0,.72,0,1.44-.1,2.15a1.18,1.18,0,0,1-1.24,1.19,1.32,1.32,0,0,1-1.34-1.39c0-.63,0-1.27,0-1.91C72.22,202.39,72.22,202,72.22,201.13Z" fill="currentColor"/><path d="M112.07,133.8c-.36-.32-.81-.54-1-.9a1,1,0,0,1,.62-1.37c1-.48,2-.92,3.06-1.33,5.4-2.18,10.79-4.36,16.2-6.49,1.85-.72,3.76-1.29,5.65-1.9a3.73,3.73,0,0,1,1.41-.15,1.48,1.48,0,0,1,1.28,1.71c-.05.33-.36.83-.63.89-5.31,1.22-10.18,3.68-15.28,5.47-3,1.05-6,2.28-8.93,3.4C113.72,133.4,112.94,133.56,112.07,133.8Z" fill="currentColor"/><path d="M174.36,204.41c-6.05.13-12.12.27-18.09,1.49a10,10,0,0,1-1.9.19,1.4,1.4,0,0,1-1.26-1.85,1.31,1.31,0,0,1,.85-.69,39.06,39.06,0,0,1,4-.74,83.92,83.92,0,0,1,11.19-1.07c3.74,0,7.49,0,11.23.16a16.84,16.84,0,0,1,3.7.87.72.72,0,0,1,.48,1,1,1,0,0,1-.65.57,8.37,8.37,0,0,1-1.66.1Z" fill="currentColor"/><path d="M151,161.4c.2-3.42.42-6.85.6-10.28.12-2.23.2-4.46.29-6.69,0-.24,0-.48,0-.72,0-.78.33-1.21.83-1.27a1.49,1.49,0,0,1,1.64.74,4.41,4.41,0,0,1,.41,1.83c0,1.68,0,3.36-.11,5-.16,2.71-.29,5.42-.59,8.12a37.3,37.3,0,0,0,.49,11,10.45,10.45,0,0,1,.2,1.66c0,.73-.59,1.11-1.32.91a1.87,1.87,0,0,1-1.37-1.52c-.36-1.72-.7-3.44-.9-5.18a30.53,30.53,0,0,1,0-3.58Z" fill="currentColor"/><path d="M58.53,64.37c1.75.94,1.89,1.25,1,2.95-2.33,4.73-4.85,9.35-7.64,13.83-1.82,2.91-3.46,5.93-5.19,8.89-.19.34-.43.66-.65,1a2.39,2.39,0,0,1-.75-.06c-1.1-.5-1.34-.84-1-1.79a22.74,22.74,0,0,1,1.45-3.27c1-1.81,2.08-3.6,3.21-5.34a130.43,130.43,0,0,0,8-14.44A3.36,3.36,0,0,1,58.53,64.37Z" fill="currentColor"/><path d="M122.36,88.74a10.36,10.36,0,0,1,1.37.5c1.85.94,3.72,1.83,5.5,2.88,3.49,2.08,6.91,4.27,10.38,6.38,2,1.24,4.13,2.4,6.17,3.64a8.48,8.48,0,0,1,1.68,1.3,1.29,1.29,0,0,1,.19,1.73c-.3.38-.87.43-1.54.07-2.38-1.29-4.79-2.53-7.11-3.92-5.46-3.28-10.88-6.64-16.3-10a3.12,3.12,0,0,1-1-.91,1.52,1.52,0,0,1,0-1.13C121.72,89.08,122.08,88.94,122.36,88.74Z" fill="currentColor"/><path d="M120.9,199.07a6.84,6.84,0,0,1-.72,1.27c-.86.95-1.75,1.87-2.67,2.75-3.51,3.39-7,6.75-10.55,10.13a35,35,0,0,0-4.95,5.51c-.49.73-.9.9-1.33.67a1.53,1.53,0,0,1-.85-1.78,7.18,7.18,0,0,1,1.72-2.85c1.27-1.33,2.54-2.66,3.86-3.93q6.21-6,12.44-12c.29-.28.57-.56.88-.82a1,1,0,0,1,1.31-.14A5.86,5.86,0,0,1,120.9,199.07Z" fill="currentColor"/><path d="M172.79,66.94c-.16,0-.34.08-.47,0a145.6,145.6,0,0,0-17.15-5.86c-2.9-.85-5.8-1.73-8.69-2.62a22.13,22.13,0,0,1-2.45-.95,1.2,1.2,0,0,1-.61-1.6c.2-.57.69-.62,1.17-.58a6.66,6.66,0,0,1,1.4.27c5.42,1.62,10.83,3.22,16.23,4.89,2.51.78,5,1.65,7.45,2.55a14.08,14.08,0,0,1,2.76,1.41C173.29,65,173.31,65.56,172.79,66.94Z" fill="currentColor"/><path d="M24.51,171.11a3.35,3.35,0,0,1-.82-.11,36.28,36.28,0,0,0-9.07-3c-5.92-1.33-11.83-2.67-17.86-3.43a5.54,5.54,0,0,1-1.39-.34,1.39,1.39,0,0,1-.45-2A1.44,1.44,0,0,1-4,161.88c1.75.18,3.51.33,5.23.66,5.24,1,10.49,2,15.69,3.25a44,44,0,0,1,6,2.24,2.4,2.4,0,0,1,1.64,1.62A5.36,5.36,0,0,1,24.51,171.11Z" fill="currentColor"/><path d="M28.68,113.49c0,.74-.24,1.18-.76,1.33a1.29,1.29,0,0,1-1.67-.92c-1.2-3.72-2.54-7.4-3.54-11.17a106.59,106.59,0,0,1-2.6-13.39,19.66,19.66,0,0,1-.17-2.87,1.37,1.37,0,0,1,.61-.91,1.19,1.19,0,0,1,1.51.3,4.35,4.35,0,0,1,.55,1.56A115.69,115.69,0,0,0,24.8,99.68a46,46,0,0,0,2.57,9A14.44,14.44,0,0,1,28.68,113.49Z" fill="currentColor"/><path d="M178.6,26.09a1.53,1.53,0,0,1,.7-2,5.45,5.45,0,0,1,2.1-.31c1.83.18,3.65.43,5.45.78,4.31.84,8.59,1.8,12.91,2.61,2.27.43,4.59.63,6.88.95,1.16.17,1.54.76,1.21,1.8a1.18,1.18,0,0,1-1.46.91c-1.43-.15-2.87-.29-4.28-.56-4.47-.84-8.93-1.75-13.4-2.62l-4.94-.95a5.63,5.63,0,0,0-3.07.09A1.76,1.76,0,0,1,178.6,26.09Z" fill="currentColor"/><path d="M207,144.48c-2.89-2.17-6.18-3.19-9.41-4.31s-6.67-2.17-10-3.14c-1.52-.44-3.11-.6-4.68-.89-.83-.16-1.16-.52-1.16-1.25,0-1,.43-1.63,1.29-1.69a12.7,12.7,0,0,1,4.69.77c3,.92,5.87,2,8.86,2.85a64.52,64.52,0,0,1,8.25,3.13,6.41,6.41,0,0,1,2.72,1.9C208.12,142.69,208,143.21,207,144.48Z" fill="currentColor"/><path d="M10,90.92c.06.67.16,1.62.24,2.57.33,4,.62,8,1,11.91a30.79,30.79,0,0,0,2.11,9.52,4.17,4.17,0,0,1,.19.44c.16.55.34,1.14-.22,1.53a1.62,1.62,0,0,1-2.11-.49,6.64,6.64,0,0,1-.5-1.08,33.33,33.33,0,0,1-2.19-9.27c-.46-4.44-.77-8.89-1.08-13.34a25.19,25.19,0,0,1,.1-3.58A1.2,1.2,0,0,1,8.85,88a1.23,1.23,0,0,1,1.23,1.41C10.08,89.84,10,90.23,10,90.92Z" fill="currentColor"/><path d="M147,10.24a12.13,12.13,0,0,1,.71-2,31.65,31.65,0,0,1,2.05-3.52C152.79.15,155.92-4.39,159-8.95c.54-.79,1-1.63,1.58-2.4s1.35-1.08,2-.58a1.41,1.41,0,0,1,.34,2.1c-1.09,1.68-2.23,3.32-3.36,5-2.58,3.75-5.2,7.48-7.74,11.26-1,1.44-2,2.84-2.22,4.71a1.36,1.36,0,0,1-1.32,1.17C147.43,12.27,146.84,11.63,147,10.24Z" fill="currentColor"/><path d="M131.54,81.17c0-.07.06-.3.12-.53a.84.84,0,0,1,1.17-.48,5.06,5.06,0,0,1,.92.74,96.54,96.54,0,0,0,12,10c2.4,1.73,4.83,3.4,7.23,5.13a11.65,11.65,0,0,1,1.8,1.56,1.9,1.9,0,0,1,.37,1.09.84.84,0,0,1-1.25.89c-1.19-.65-2.37-1.33-3.52-2a102.54,102.54,0,0,1-11-8.1c-2.34-1.92-4.59-4-6.88-6A2.47,2.47,0,0,1,131.54,81.17Z" fill="currentColor"/><path d="M73.42,8.68a60.22,60.22,0,0,0-10.67-.15,61.34,61.34,0,0,0-15.56,2.65c-.07,0-.14.07-.22.09-.76.21-1.17.09-1.45-.4A1.33,1.33,0,0,1,46,9a4.64,4.64,0,0,1,1.07-.53A47.64,47.64,0,0,1,52.37,7,59.39,59.39,0,0,1,66.2,5.8c1.76.09,3.52.12,5.27.26a8.83,8.83,0,0,1,2.32.5,2.68,2.68,0,0,1,1.06.9.78.78,0,0,1-.61,1.22Z" fill="currentColor"/><path d="M178.47,31.18a1.44,1.44,0,0,1,.75-2.27,11,11,0,0,1,3.09,0c1.73.27,3.45.67,5.16,1.08,5.67,1.37,11.33,2.78,17.09,3.75,1,.16,1.39.6,1.41,1.34a1.35,1.35,0,0,1-1.49,1.48c-1.19-.17-2.37-.4-3.54-.66-4.52-1-9-2.08-13.55-3.12-2.65-.61-5.25-1.44-8-1.27A2.07,2.07,0,0,1,178.47,31.18Z" fill="currentColor"/><path d="M201.41,73.81c-.67-1.27-1.36-2.52-2-3.8q-1.83-3.63-3.61-7.29a3.1,3.1,0,0,1-.3-1.13.83.83,0,0,1,.61-.91,1.42,1.42,0,0,1,2,.72c1.59,3.13,3.12,6.29,4.74,9.39a62.76,62.76,0,0,0,5.47,9,11.25,11.25,0,0,0,2.16,2.2A7.6,7.6,0,0,1,212,83.79a1,1,0,0,1,0,1.32,1.56,1.56,0,0,1-1.94.37,4.71,4.71,0,0,1-.72-.62A27.36,27.36,0,0,1,206.73,82c-1.89-2.67-3.66-5.41-5.48-8.12Z" fill="currentColor"/><path d="M70.77,14c-4.88,0-9.74.47-14.59,1-2.62.27-5.21.78-7.82,1.17-.88.13-1.29-.06-1.61-.67A1,1,0,0,1,47.16,14a4.38,4.38,0,0,1,1.12-.39,96.12,96.12,0,0,1,24.29-1.91,26.64,26.64,0,0,1,3.1.28,7.74,7.74,0,0,1,1.78.64.61.61,0,0,1,0,1A4.37,4.37,0,0,1,76,14C74.28,14,72.52,14,70.77,14Z" fill="currentColor"/><path d="M.22,62.7c1.49.25,3,.54,4.49.75,4.59.64,9.18,1.22,13.77,1.88,1.73.25,3.46.6,5.17,1a6.83,6.83,0,0,1,2,.81,1.58,1.58,0,0,1,.77,1.63.8.8,0,0,1-.78.77,3.56,3.56,0,0,1-1.16-.22,31.72,31.72,0,0,0-6.1-1.23C12.91,67.31,7.46,66.51,2,65.71a19.42,19.42,0,0,1-2.11-.47,1.78,1.78,0,0,1-.64-.3,1.52,1.52,0,0,1-.41-1.53A1.18,1.18,0,0,1,.22,62.7Z" fill="currentColor"/><path d="M17.83,4a1.86,1.86,0,0,1,1.52,1.21A1.09,1.09,0,0,1,19,6.53c-.62.5-1.31.91-1.9,1.43-2.89,2.51-5.75,5-8.62,7.57A64.07,64.07,0,0,0,.67,23.3c-.34.43-.73.89-1.4.62s-.71-.84-.54-1.67A4.59,4.59,0,0,1,0,20c1.48-1.56,2.91-3.19,4.49-4.64,3.34-3.07,6.76-6.06,10.17-9.07.78-.68,1.61-1.3,2.45-1.91A2.87,2.87,0,0,1,17.83,4Z" fill="currentColor"/><path d="M213.21,67.64a78.05,78.05,0,0,0,6.3,10.27c.46.64,1,1.23,1.46,1.89a6.72,6.72,0,0,1,.75,1.46.88.88,0,0,1-.65,1.11,1.58,1.58,0,0,1-1.58-.21,3.55,3.55,0,0,1-.64-.7,70.81,70.81,0,0,1-7.42-11.12c-1.21-2.42-2.69-4.7-4-7.06-.58-1-1.1-2.11-1.62-3.19a1,1,0,0,1,.29-1.29,1.43,1.43,0,0,1,1.76-.06,3.3,3.3,0,0,1,.6.74Z" fill="currentColor"/><path d="M54.32,93.77A4.82,4.82,0,0,1,55,91.29c1.6-3.47,3.24-6.92,4.88-10.37,1.26-2.66,2.51-5.33,3.82-8a25.09,25.09,0,0,1,1.69-2.87,1,1,0,0,1,1.45-.42,1.34,1.34,0,0,1,.8,1.76c-.42.94-.94,1.83-1.39,2.76q-3.68,7.51-7.33,15c-.56,1.14-1.13,2.28-1.68,3.43-.14.28-.25.58-.4.86C56.12,94.86,55.69,94.91,54.32,93.77Z" fill="currentColor"/><path d="M87.07,67.75c-.82-1.51-.75-2,.55-2.43a53.81,53.81,0,0,1,5.3-1.43A159.39,159.39,0,0,0,111.16,59a9.67,9.67,0,0,1,1.37-.39,1.17,1.17,0,0,1,1.27.86,1.26,1.26,0,0,1-.47,1.48,6.71,6.71,0,0,1-1.1.46A121.24,121.24,0,0,1,95.17,66c-2.11.43-4.19,1-6.29,1.43C88.27,67.6,87.64,67.66,87.07,67.75Z" fill="currentColor"/><path d="M30.22,13.73c-2.51,1.27-4.37,3.51-6.5,5.4-3,2.71-6,5.5-9,8.26-.58.54-1.09,1.17-1.65,1.74s-1.41.78-1.91.34a1.74,1.74,0,0,1-.38-2A7.15,7.15,0,0,1,12,26c2.93-2.71,5.88-5.4,8.82-8.1,1.36-1.24,2.63-2.57,4.05-3.73A23.31,23.31,0,0,1,28.22,12a1.76,1.76,0,0,1,1.35,0A1.29,1.29,0,0,1,30.22,13.73Z" fill="currentColor"/><path d="M152.35,14.53c-1.55-.35-1.79-.58-1.58-1.74a6.17,6.17,0,0,1,.62-1.78,57.32,57.32,0,0,1,5.4-7.89c2.42-3.28,4.89-6.51,7.34-9.77.14-.19.26-.4.41-.59a1.25,1.25,0,0,1,1.71-.27,1.24,1.24,0,0,1,.55,1.81,16.3,16.3,0,0,1-1.3,2C162.81-.13,160.09,3.43,157.39,7a43.43,43.43,0,0,0-4.69,7.23C152.64,14.35,152.47,14.42,152.35,14.53Z" fill="currentColor"/><path d="M135.36,118.76a9.44,9.44,0,0,0-5.12.93q-7.47,2.91-14.94,5.85c-1.11.44-2.16,1-3.25,1.51a8.54,8.54,0,0,1-1.23.3c-.24-.67-.45-1.24-.66-1.8.19-.27.27-.55.45-.64,1.35-.69,2.68-1.41,4.08-2,4.88-2,9.77-3.93,14.67-5.88a16.66,16.66,0,0,1,2.73-.87,6.81,6.81,0,0,1,2.11,0,1.44,1.44,0,0,1,.76.53,1.91,1.91,0,0,1,.46.82A5.31,5.31,0,0,1,135.36,118.76Z" fill="currentColor"/><path d="M148.79,48.06a6,6,0,0,1,1.17.58,29.31,29.31,0,0,0,8.82,4.71c3.34,1.28,6.69,2.58,10,3.85.9.34,1.8.65,2.71.95a7.83,7.83,0,0,1,2.9,1.62,1.52,1.52,0,0,1,.28,2.16,2.09,2.09,0,0,1-.71,0c-4.92-1.86-9.84-3.72-14.74-5.63-1.85-.73-3.69-1.52-5.46-2.43a48,48,0,0,1-4.28-2.62,2.4,2.4,0,0,1-1.14-2A4.06,4.06,0,0,1,148.79,48.06Z" fill="currentColor"/><path d="M184.85,191.69c-1.38-.07-2.65-.06-3.89-.23a38.29,38.29,0,0,0-7.64-.17,99.17,99.17,0,0,0-13.54,1.44,7.69,7.69,0,0,1-.94.16,1.73,1.73,0,0,1-1.94-2.1,1,1,0,0,1,1-.86c2.14-.23,4.28-.42,6.41-.66a105.31,105.31,0,0,1,16-.41,18.81,18.81,0,0,1,3.06.44C184.42,189.52,185,190.21,184.85,191.69Z" fill="currentColor"/><path d="M65.39,198.6A40.24,40.24,0,0,1,67,190.87c1-3.53,2-7.06,2.94-10.6.27-1,.39-2,.64-3,.21-.85.67-1.18,1.32-1.07a1.6,1.6,0,0,1,1.4,1.41,5.9,5.9,0,0,1-.17,1.17,96,96,0,0,1-3.27,12.49,27.45,27.45,0,0,0-1.72,8.88,1.93,1.93,0,0,1,0,.24c-.07.71-.42,1.16-.93,1.2a1.58,1.58,0,0,1-1.68-1.06,4,4,0,0,1-.07-.48C65.44,199.61,65.42,199.22,65.39,198.6Z" fill="currentColor"/><path d="M157.9,17.41a15,15,0,0,1,2.21-5.07c1.13-1.93,2.39-3.78,3.57-5.69,1.84-3,3.64-6,5.51-9a16.69,16.69,0,0,1,1.93-2.44,1.3,1.3,0,0,1,1.75,0,1.05,1.05,0,0,1,.43,1.27,8.12,8.12,0,0,1-.7,1.25c-2.18,3.44-4.38,6.88-6.53,10.34-1.95,3.12-3.84,6.27-5.76,9.4a7.59,7.59,0,0,1-.51.66Z" fill="currentColor"/><path d="M23.19,8.7a12.74,12.74,0,0,1,1.24,1.15,1,1,0,0,1-.22,1.48l-.18.15q-7,5.48-13.92,10.94C9.05,23.26,8,24.16,7,25c-.25.21-.45.47-.69.66a1.26,1.26,0,0,1-1.74.06A1.33,1.33,0,0,1,4.37,24a8.92,8.92,0,0,1,1.56-1.79Q13.46,16.13,21,10.09A25.37,25.37,0,0,1,23.19,8.7Z" fill="currentColor"/><path d="M234.49,58.92c.67-.48,1.37-1,2.08-1.48,3.64-2.44,7.3-4.86,10.93-7.32a3.84,3.84,0,0,0,1.32-1.34,4.66,4.66,0,0,1,2.32-2c1.76-.93,3.55-1.8,5.3-2.75,2-1.11,4-2.3,6-3.43a9.49,9.49,0,0,1,1.7-.82,1.56,1.56,0,0,1,1.83.8.83.83,0,0,1-.09,1.1,6.52,6.52,0,0,1-1,.71l-12,7.46c-4.18,2.62-8.34,5.28-12.55,7.85A42.21,42.21,0,0,1,236,60C235.22,60.36,235,60.14,234.49,58.92Z" fill="currentColor"/><path d="M263.55,130c-.71.45-1.81,1.26-3,1.89-3.1,1.64-6.23,3.22-9.37,4.79s-6.26,3.12-9.43,4.6c-2,.95-4.08,1.82-6.18,2.57a7.62,7.62,0,0,1-2.82.27c-.35,0-.76-.52-1-.89s.06-.76.38-1a2.36,2.36,0,0,1,1.91-.8,4.38,4.38,0,0,0,2.51-.68q6.82-3.22,13.62-6.47c2.16-1,4.31-2.1,6.45-3.17a34.39,34.39,0,0,0,6.37-3.78,1.1,1.1,0,0,1,1.31-.24,1.17,1.17,0,0,1,.36,2C264.44,129.23,264.18,129.42,263.55,130Z" fill="currentColor"/><path d="M257,37.86c-1.87,1.65-3.85,3.52-5.95,5.23q-5.77,4.66-11.67,9.18c-1.14.87-2.39,1.59-3.61,2.35a2.17,2.17,0,0,1-1.84.29,1.18,1.18,0,0,1-.92-1c-.07-.45.2-.7.56-1,2.14-1.53,4.31-3,6.38-4.65,4.21-3.3,8.37-6.66,12.52-10,1.12-.9,2.13-1.93,3.21-2.88a4.08,4.08,0,0,1,1.16-.8,1,1,0,0,1,1.26.38,1.39,1.39,0,0,1,.09,1.09A13.07,13.07,0,0,1,257,37.86Z" fill="currentColor"/><path d="M259.54,79.69c-.62,1.82-1.28,3.61-1.83,5.44A140.11,140.11,0,0,0,253.84,99c-.26,1.32-.45,2.67-.71,4a7.85,7.85,0,0,1-.5,1.58,1.2,1.2,0,0,1-1.45.51,1,1,0,0,1-.82-1,9.78,9.78,0,0,1,.16-1.43c.47-2.5.88-5,1.45-7.49.53-2.33,1.2-4.63,1.86-6.93.55-1.91,1.1-3.83,1.78-5.7s1.6-3.82,2.42-5.73a4.56,4.56,0,0,1,.49-.82,1.29,1.29,0,0,1,1.65-.54,1.46,1.46,0,0,1,.75,1.8c-.37.88-.81,1.74-1.21,2.6Z" fill="currentColor"/><path d="M267.82,131.2l1.32,1.37a5.22,5.22,0,0,1-2.37,2.12c-1.67.94-3.37,1.85-5.08,2.71-5.49,2.76-11.11,5.26-16.81,7.57a43.63,43.63,0,0,1-5,1.58,9,9,0,0,1-2.37.25c-.62,0-1-.36-1.12-1.22,2-1,4.27-1.43,6.36-2.3s4.26-1.82,6.38-2.77,4.08-1.83,6.11-2.78,4.22-1.92,6.27-3S265.53,132.49,267.82,131.2Z" fill="currentColor"/><path d="M229.9,138.49c.43-.28.55-.42.69-.45a36.46,36.46,0,0,0,8.81-3.69c5.34-2.88,10.68-5.75,15.73-9.12a5.91,5.91,0,0,1,1.27-.66,1.39,1.39,0,0,1,1.68,1.25,1.44,1.44,0,0,1-.58.94c-1.44,1-2.87,2.06-4.38,2.93-4.63,2.66-9.26,5.34-14,7.83a42.74,42.74,0,0,1-6,2.27,2.4,2.4,0,0,1-2.31-.15A5.83,5.83,0,0,1,229.9,138.49Z" fill="currentColor"/><path d="M260.19,106.14c-.3.68-.72,1-1.25.89a1.3,1.3,0,0,1-1.13-1.54c.5-3.88.86-7.78,1.55-11.62a108.54,108.54,0,0,1,3.34-13.23A18,18,0,0,1,263.77,78a1.33,1.33,0,0,1,.93-.57,1.2,1.2,0,0,1,1.25.92,4.5,4.5,0,0,1-.17,1.64c-1.46,3.91-2.2,8-3.23,12a45.48,45.48,0,0,0-1.48,9.21A14.64,14.64,0,0,1,260.19,106.14Z" fill="currentColor"/><path d="M252.87,77.77c-.23.63-.55,1.53-.88,2.43-1.39,3.73-2.81,7.46-4.16,11.21a30.76,30.76,0,0,0-2.13,9.51,3.85,3.85,0,0,1,0,.48c-.08.56-.18,1.17-.85,1.29a1.63,1.63,0,0,1-1.7-1.34,6.76,6.76,0,0,1,0-1.19,33.37,33.37,0,0,1,2-9.33c1.48-4.21,3.09-8.37,4.7-12.53a25.07,25.07,0,0,1,1.61-3.19,1.2,1.2,0,0,1,1.66-.44,1.23,1.23,0,0,1,.52,1.8C253.41,76.83,253.2,77.17,252.87,77.77Z" fill="currentColor"/><path d="M251.89,34.17c-1.16,1-2.35,1.92-3.48,2.93-3.46,3.08-6.89,6.2-10.36,9.26-1.32,1.16-2.7,2.25-4.1,3.31a7,7,0,0,1-1.9,1,1.56,1.56,0,0,1-1.74-.48.78.78,0,0,1-.08-1.08,3.16,3.16,0,0,1,.92-.74A31.87,31.87,0,0,0,236,44.5q6.17-5.49,12.39-10.92c.54-.47,1.13-.88,1.72-1.3a2.18,2.18,0,0,1,.64-.29,1.54,1.54,0,0,1,1.44.68A1.19,1.19,0,0,1,251.89,34.17Z" fill="currentColor"/><path d="M247.27-9.32a1.85,1.85,0,0,1,1.52,1.22,1.08,1.08,0,0,1-.39,1.28c-.61.5-1.3.91-1.9,1.43-2.88,2.51-5.74,5.05-8.62,7.57A64.72,64.72,0,0,0,230.12,10c-.35.43-.74.89-1.4.62s-.71-.83-.55-1.66a4.58,4.58,0,0,1,1.25-2.28c1.49-1.56,2.91-3.18,4.49-4.64,3.35-3.07,6.77-6.06,10.17-9.06.78-.69,1.62-1.3,2.45-1.92A3.26,3.26,0,0,1,247.27-9.32Z" fill="currentColor"/><path d="M259.66.39c-2.51,1.26-4.36,3.5-6.5,5.4-3,2.7-6,5.49-9,8.26-.58.54-1.08,1.17-1.64,1.73s-1.42.78-1.92.34a1.73,1.73,0,0,1-.38-2,7.15,7.15,0,0,1,1.19-1.49c2.93-2.71,5.89-5.39,8.83-8.1,1.35-1.24,2.63-2.56,4-3.73a23.31,23.31,0,0,1,3.4-2.21,1.76,1.76,0,0,1,1.35,0C259.65-1.08,259.91-.49,259.66.39Z" fill="currentColor"/><path d="M252.64-4.64a10.41,10.41,0,0,1,1.23,1.15A1,1,0,0,1,253.65-2a1.3,1.3,0,0,1-.18.15q-7,5.48-13.92,11c-1.06.84-2.08,1.74-3.11,2.62-.24.2-.44.46-.69.66a1.26,1.26,0,0,1-1.73.05,1.32,1.32,0,0,1-.21-1.75,8.91,8.91,0,0,1,1.57-1.78q7.51-6.11,15.1-12.14C251.1-3.75,251.8-4.11,252.64-4.64Z" fill="currentColor"/><path d="M177.64,37.91c-.43-.73.06-1.93.79-2a12.74,12.74,0,0,1,2.62,0c2.76.4,5.5.89,8.26,1.3,3.7.55,7.41,1,11.12,1.58a12.87,12.87,0,0,1,2.54.6,1.39,1.39,0,0,1,.3,2.22,1.52,1.52,0,0,1-1.07.33c-5.51-.89-11.07-1.38-16.52-2.61-1.86-.43-3.79-.51-5.68-.77a16.54,16.54,0,0,1-1.86-.37C177.93,38.2,177.76,38,177.64,37.91Z" fill="currentColor"/><path d="M75.24,1.8a4.35,4.35,0,0,1-2.32.2,71.35,71.35,0,0,0-11.22.8c-4,.53-8.05,1.27-12.07,1.91A5.86,5.86,0,0,1,48,4.85a1.21,1.21,0,0,1-.85-.67,1.21,1.21,0,0,1,.25-1.07,4.38,4.38,0,0,1,1.71-.79c3.05-.62,6.1-1.23,9.17-1.73,2.2-.36,4.43-.65,6.65-.79,2.55-.16,5.1-.18,7.66-.13a6.28,6.28,0,0,1,2.25.68C75.43.61,75.47,1.18,75.24,1.8Z" fill="currentColor"/><path d="M192.93,97.68c2.52.16,5.53.33,8.54.57a9.06,9.06,0,0,1,2.07.55,2,2,0,0,1,1.25,1.35c.22.65-.14,1.14-.83,1-7.24-1.69-14.46-.52-21.67.19-1.1.11-2.18.49-3.29.61s-1.59-.34-1.68-1.49c0-.69.15-1.07.84-1.24a19.35,19.35,0,0,1,2.81-.54C184.79,98.32,188.61,98,192.93,97.68Z" fill="currentColor"/><path d="M118.54,70.26c-.14.16-.32.57-.63.71a8.79,8.79,0,0,1-1.83.55c-4.14.9-8.29,1.74-12.42,2.69-3,.67-6,.91-8.87,2a1,1,0,0,1-1.24-.44A1.26,1.26,0,0,1,93.67,74a7.29,7.29,0,0,1,1.94-.9c1.3-.35,2.64-.6,4-.88q8.1-1.7,16.19-3.37a7.73,7.73,0,0,1,1.66-.17C118.08,68.75,118.54,69.36,118.54,70.26Z" fill="currentColor"/><path d="M205.83,64.67c1.17,2.45,2.39,4.87,3.47,7.36a26.27,26.27,0,0,0,4.83,7.66c.11.11.24.22.34.34a1.3,1.3,0,0,1,.25,1.54,1.61,1.61,0,0,1-1.94.44,3.89,3.89,0,0,1-1.11-.9,30.16,30.16,0,0,1-4.1-6.16c-1.24-2.76-2.52-5.51-3.9-8.21-.79-1.56-1.8-3-2.73-4.5-.3-.48-.64-1-.18-1.51a1.48,1.48,0,0,1,2.13-.13,4.58,4.58,0,0,1,.93,1.08c.63,1,1.22,2.06,1.82,3.09Z" fill="currentColor"/><path d="M75.76,94.05a4.26,4.26,0,0,1,.07-.6.82.82,0,0,1,.86-.67,1.55,1.55,0,0,1,1.74,1.29,13.94,13.94,0,0,1,.27,2.13c.21,3.34.38,6.69.6,10a60.65,60.65,0,0,0,1.22,9,16.89,16.89,0,0,1,.28,2.36.84.84,0,0,1-.62.91,1.32,1.32,0,0,1-1.5-.43,4,4,0,0,1-.31-.9c-.37-1.63-.8-3.25-1.06-4.9-.32-2-.55-4.11-.71-6.18-.28-3.58-.49-7.16-.72-10.74C75.85,95,75.81,94.55,75.76,94.05Z" fill="currentColor"/><path d="M115.55,198.36a5.87,5.87,0,0,1-.56.76c-1.08,1.06-2.18,2.1-3.26,3.16q-5,4.84-9.88,9.71a7.38,7.38,0,0,0-1.87,2.42,5.24,5.24,0,0,1-1.8,1.83,1.36,1.36,0,0,1-1.9-.41,1.14,1.14,0,0,1-.06-1.53,17.16,17.16,0,0,1,1.63-2.06c4.2-4.13,8.43-8.21,12.64-12.34,1-.94,1.84-2,2.75-3a1.18,1.18,0,0,1,1.24-.51A2,2,0,0,1,115.55,198.36Z" fill="currentColor"/><path d="M123.71,36.28c-.25.31-.39.61-.63.75a1.69,1.69,0,0,1-1.82-.07,9,9,0,0,1-1.47-1.23,36.47,36.47,0,0,1-6.44-8.57q-2.77-5.3-5.51-10.62a4.26,4.26,0,0,1-.36-1.13.79.79,0,0,1,.69-.82,2,2,0,0,1,2.07.92c.42.67.74,1.41,1.11,2.12,1.47,2.83,2.93,5.66,4.42,8.48A31.19,31.19,0,0,0,122.61,35,13,13,0,0,1,123.71,36.28Z" fill="currentColor"/><path d="M128.66,35a1.28,1.28,0,0,1-1.4,1,2.75,2.75,0,0,1-1.3-.46,5.38,5.38,0,0,1-1-1,36.24,36.24,0,0,1-5.25-8.24c-1.45-3.19-3-6.33-4.49-9.5a6.36,6.36,0,0,1-.32-.64c-.28-.68-.17-1.25.26-1.49a1.54,1.54,0,0,1,1.77.16,3.52,3.52,0,0,1,.53.79c1,2,2.1,3.93,3.11,5.92.5,1,.94,2,1.37,3.05a36.86,36.86,0,0,0,6.3,9.81A4.52,4.52,0,0,1,128.66,35Z" fill="currentColor"/><path d="M52.91,89.5c-1.89-1-2.06-1.22-1.43-2.63,1.1-2.47,2.2-5,3.5-7.32,1.72-3.14,3.4-6.3,4.89-9.55a4.46,4.46,0,0,1,1.49-2.12,1.22,1.22,0,0,1,1.53,0,1.26,1.26,0,0,1,.44,1.68c-2.07,4-4.17,8-6.25,12.07C56,83.74,54.91,85.87,53.81,88,53.56,88.47,53.26,88.92,52.91,89.5Z" fill="currentColor"/><path d="M86.31,118.82c-1.72.58-2.36.41-2.61-.83a74.81,74.81,0,0,1-1.34-8.24c-.36-4.21-.45-8.44-.66-12.65,0-.16,0-.32,0-.48,0-.81.22-1.22.72-1.34a1.45,1.45,0,0,1,1.75.88,12,12,0,0,1,.48,2.57c.17,2.63.34,5.25.4,7.88a46.51,46.51,0,0,0,1,9.49A23.12,23.12,0,0,1,86.31,118.82Z" fill="currentColor"/><path d="M128.18,113.32c-6.89,3.81-14.22,6.33-21.27,9.45-1-1.45-1-2,.18-2.76a13.73,13.73,0,0,1,2.13-1.08c3.08-1.33,6.19-2.6,9.25-4,2.48-1.11,4.91-2.33,7.36-3.51C127.57,110.61,128.12,111,128.18,113.32Z" fill="currentColor"/><path d="M134.34,33.34c-1,1.08-1.76,1.25-2.7.55a10.84,10.84,0,0,1-1.52-1.51,33,33,0,0,1-4.31-6.6c-1.32-2.46-2.59-5-3.78-7.48a23.59,23.59,0,0,1-1.19-3.62,1.05,1.05,0,0,1,.71-1.34,1.29,1.29,0,0,1,1.48.5,8,8,0,0,1,.45,1.09A93.16,93.16,0,0,0,130,27.73a48.1,48.1,0,0,0,3.34,4.37C133.64,32.53,134,32.93,134.34,33.34Z" fill="currentColor"/><path d="M34.7,261.43l-.93-.26a119.47,119.47,0,0,0-19.93-2.66c-3.27-.2-6.55-.34-9.82-.53-.71,0-1.43-.14-2.14-.25a1.06,1.06,0,0,1-.92-1,1.26,1.26,0,0,1,.82-1.32,5.28,5.28,0,0,1,1.42-.19c3.51.09,7,.08,10.54.32s7.31.67,11,1.16a46.28,46.28,0,0,1,9.61,1.87,2.17,2.17,0,0,1,1.59,1.3A1.07,1.07,0,0,1,34.7,261.43Z" fill="currentColor"/><path d="M4.86,261.7c1.35.12,2.46.2,3.58.32,7.54.82,15.1,1.6,22.64,2.49a31.88,31.88,0,0,1,4.63,1.21,2.68,2.68,0,0,1,.85.41,1.15,1.15,0,0,1,.47,1.28c-.15.54-.62.68-1.14.67a2.58,2.58,0,0,1-.48,0c-7.63-1.43-15.37-2-23.07-2.86-2.31-.25-4.6-.56-6.9-.86A6,6,0,0,1,4.05,264a1.19,1.19,0,0,1,.33-2.28A2.6,2.6,0,0,1,4.86,261.7Z" fill="currentColor"/><path d="M4.89,247.93a42.22,42.22,0,0,1,7.49.8c4.82.72,9.63,1.46,14.43,2.28,2.6.44,5.16,1.05,7.72,1.65a4.34,4.34,0,0,1,1.64.9,1.13,1.13,0,0,1,.23,1.52,1.21,1.21,0,0,1-1.3.36c-2.19-.47-4.36-1-6.57-1.36-4-.66-8-1.22-12.08-1.8-3.48-.5-7-.95-10.43-1.48a3.09,3.09,0,0,1-1.43-.72C4.21,249.77,4.32,249.34,4.89,247.93Z" fill="currentColor"/><path d="M182.11,228.35a1.51,1.51,0,0,1,.69-2,5.51,5.51,0,0,1,2.11-.32c1.82.18,3.64.43,5.44.78,4.31.84,8.6,1.81,12.91,2.62,2.28.42,4.59.63,6.88,1,1.16.16,1.54.75,1.21,1.8a1.2,1.2,0,0,1-1.46.91c-1.43-.16-2.87-.3-4.28-.57-4.47-.84-8.93-1.74-13.4-2.62l-4.94-.95a5.59,5.59,0,0,0-3.06.1A1.76,1.76,0,0,1,182.11,228.35Z" fill="currentColor"/><path d="M133.73,240.33a13.19,13.19,0,0,1,.71-2,33.15,33.15,0,0,1,2.05-3.51c3.09-4.57,6.21-9.11,9.31-13.67.54-.79,1-1.63,1.58-2.4.66-.92,1.35-1.09,2-.59a1.42,1.42,0,0,1,.34,2.11c-1.09,1.67-2.23,3.31-3.36,5-2.58,3.75-5.2,7.48-7.73,11.25-1,1.45-2.06,2.85-2.22,4.72a1.37,1.37,0,0,1-1.32,1.17C134.21,242.36,133.62,241.71,133.73,240.33Z" fill="currentColor"/><path d="M47.31,220.28a59.28,59.28,0,0,0-10.67-.14,61.61,61.61,0,0,0-15.55,2.64,2.18,2.18,0,0,1-.23.09c-.76.21-1.16.1-1.45-.4a1.35,1.35,0,0,1,.48-1.87,4.92,4.92,0,0,1,1.08-.53,49.05,49.05,0,0,1,5.29-1.52,59.44,59.44,0,0,1,13.83-1.15c1.76.09,3.52.12,5.27.26a9.15,9.15,0,0,1,2.32.5,2.71,2.71,0,0,1,1.07.9.78.78,0,0,1-.62,1.22Z" fill="currentColor"/><path d="M182,233.45a1.44,1.44,0,0,1,.74-2.28,11,11,0,0,1,3.09,0c1.73.26,3.45.66,5.16,1.07,5.67,1.38,11.33,2.78,17.09,3.75,1,.17,1.39.61,1.41,1.35a1.35,1.35,0,0,1-1.49,1.47c-1.19-.17-2.37-.39-3.53-.66-4.53-1-9-2.08-13.56-3.12-2.64-.61-5.25-1.44-8-1.26C182.53,233.8,182.17,233.52,182,233.45Z" fill="currentColor"/><path d="M44.66,225.6c-4.88.05-9.74.47-14.59,1-2.62.28-5.21.79-7.82,1.18-.88.13-1.29-.07-1.61-.68a1,1,0,0,1,.41-1.44,4.8,4.8,0,0,1,1.12-.39,96.2,96.2,0,0,1,24.29-1.91,26.65,26.65,0,0,1,3.1.29,7.55,7.55,0,0,1,1.78.63.62.62,0,0,1,0,1,4.43,4.43,0,0,1-1.37.33C48.17,225.63,46.42,225.6,44.66,225.6Z" fill="currentColor"/><path d="M283.76,183.77a1.87,1.87,0,0,1,.6,1.85,1.08,1.08,0,0,1-1,.86c-.79.08-1.59,0-2.38.15-3.79.51-7.57,1.05-11.36,1.58a64.84,64.84,0,0,0-10.76,2.22c-.52.17-1.1.34-1.51-.25s-.13-1.09.47-1.69a4.52,4.52,0,0,1,2.29-1.21c2.1-.49,4.18-1.06,6.3-1.41,4.48-.73,9-1.34,13.48-2,1-.14,2.06-.2,3.1-.26A3.21,3.21,0,0,1,283.76,183.77Z" fill="currentColor"/><path d="M288.77,198.69c-2.79-.32-5.57.52-8.4.93-4,.59-8.05,1.28-12.07,1.95-.79.13-1.55.37-2.33.54s-1.61-.13-1.79-.77a1.73,1.73,0,0,1,.77-1.85,6.51,6.51,0,0,1,1.81-.59c3.94-.66,7.88-1.27,11.83-1.92,1.81-.29,3.6-.69,5.42-.89a23.94,23.94,0,0,1,4.06,0,1.77,1.77,0,0,1,1.11.76A1.29,1.29,0,0,1,288.77,198.69Z" fill="currentColor"/><path d="M139.14,244.61c-1.56-.35-1.8-.57-1.59-1.74a6.39,6.39,0,0,1,.62-1.78,59.49,59.49,0,0,1,5.4-7.89c2.43-3.27,4.9-6.51,7.34-9.76.15-.19.26-.41.41-.59a1.24,1.24,0,0,1,1.71-.27,1.22,1.22,0,0,1,.55,1.8,16.41,16.41,0,0,1-1.3,2c-2.69,3.57-5.41,7.12-8.11,10.69a44.74,44.74,0,0,0-4.69,7.23C139.42,244.43,139.26,244.51,139.14,244.61Z" fill="currentColor"/><path d="M144.69,247.5a14.9,14.9,0,0,1,2.2-5.08c1.13-1.92,2.39-3.78,3.57-5.68,1.85-3,3.65-6,5.52-9a16.11,16.11,0,0,1,1.92-2.44,1.31,1.31,0,0,1,1.76,0,1,1,0,0,1,.42,1.27,7.36,7.36,0,0,1-.7,1.25c-2.18,3.44-4.38,6.87-6.53,10.33-1.95,3.12-3.84,6.27-5.76,9.41a7.59,7.59,0,0,1-.51.66Z" fill="currentColor"/><path d="M285.67,190.62a13,13,0,0,1,.4,1.64,1,1,0,0,1-1,1.12l-.23,0c-5.88.5-11.77,1-17.64,1.49-1.36.12-2.7.31-4,.48-.32,0-.63.14-1,.17a1.26,1.26,0,0,1-1.47-.91,1.31,1.31,0,0,1,.79-1.57,8.76,8.76,0,0,1,2.29-.63q9.63-1,19.29-1.83C283.89,190.53,284.68,190.61,285.67,190.62Z" fill="currentColor"/><path d="M236.49,251.76c.67-.47,1.37-1,2.08-1.47,3.64-2.45,7.3-4.87,10.93-7.33a3.84,3.84,0,0,0,1.32-1.34,4.71,4.71,0,0,1,2.32-2c1.76-.93,3.55-1.8,5.3-2.75,2-1.11,4-2.29,6-3.43a9.44,9.44,0,0,1,1.7-.81,1.55,1.55,0,0,1,1.83.8.81.81,0,0,1-.09,1.09,6.52,6.52,0,0,1-1,.71l-12,7.46c-4.18,2.62-8.34,5.28-12.55,7.86a44.13,44.13,0,0,1-4.44,2.27C237.22,253.2,237,253,236.49,251.76Z" fill="currentColor"/><path d="M259,230.7c-1.87,1.66-3.85,3.52-5.95,5.23-3.85,3.12-7.75,6.16-11.67,9.18-1.13.88-2.39,1.59-3.61,2.36a2.17,2.17,0,0,1-1.84.28,1.18,1.18,0,0,1-.92-1c-.07-.45.2-.7.56-1,2.14-1.54,4.31-3,6.38-4.66,4.21-3.3,8.37-6.66,12.53-10,1.11-.91,2.12-1.94,3.2-2.89a4.54,4.54,0,0,1,1.16-.8,1,1,0,0,1,1.26.38,1.39,1.39,0,0,1,.09,1.09A13.07,13.07,0,0,1,259,230.7Z" fill="currentColor"/><path d="M253.89,227c-1.16,1-2.35,1.92-3.48,2.93-3.46,3.08-6.89,6.2-10.36,9.26-1.32,1.16-2.7,2.25-4.1,3.31a7,7,0,0,1-1.9,1,1.56,1.56,0,0,1-1.74-.47.8.8,0,0,1-.08-1.09,3.33,3.33,0,0,1,.92-.74,31.87,31.87,0,0,0,4.89-3.85q6.17-5.47,12.39-10.92a19.77,19.77,0,0,1,1.72-1.29,2,2,0,0,1,.64-.3,1.53,1.53,0,0,1,1.44.69A1.18,1.18,0,0,1,253.89,227Z" fill="currentColor"/><path d="M214.07,165.55a1.89,1.89,0,0,1,1.52,1.22,1.07,1.07,0,0,1-.39,1.28c-.62.5-1.3.91-1.9,1.43-2.88,2.51-5.75,5.05-8.62,7.57a64.71,64.71,0,0,0-7.76,7.77c-.35.43-.74.89-1.41.62s-.7-.83-.54-1.66a4.63,4.63,0,0,1,1.25-2.28c1.49-1.56,2.91-3.18,4.49-4.63,3.34-3.08,6.77-6.07,10.17-9.07.78-.69,1.62-1.3,2.45-1.92A3.26,3.26,0,0,1,214.07,165.55Z" fill="currentColor"/><path d="M226.46,175.26c-2.51,1.27-4.36,3.5-6.5,5.4-3.05,2.7-6,5.49-9,8.26-.58.54-1.09,1.17-1.65,1.74a1.39,1.39,0,0,1-1.91.34,1.75,1.75,0,0,1-.38-2,7.09,7.09,0,0,1,1.19-1.48c2.93-2.72,5.89-5.4,8.83-8.1,1.35-1.24,2.63-2.57,4-3.73a21.77,21.77,0,0,1,3.4-2.21,1.71,1.71,0,0,1,1.35,0A1.29,1.29,0,0,1,226.46,175.26Z" fill="currentColor"/><path d="M219.43,170.23a10.69,10.69,0,0,1,1.24,1.15,1,1,0,0,1-.22,1.48l-.18.15q-7,5.46-13.92,10.94c-1.06.84-2.08,1.74-3.11,2.62-.24.21-.44.46-.69.66a1.27,1.27,0,0,1-1.73.06,1.32,1.32,0,0,1-.21-1.75,8.41,8.41,0,0,1,1.57-1.79q7.51-6.1,15.1-12.14C217.89,171.13,218.6,170.76,219.43,170.23Z" fill="currentColor"/><path d="M181.15,240.17c-.44-.72,0-1.93.78-2a12.07,12.07,0,0,1,2.62,0c2.76.4,5.5.9,8.26,1.3,3.71.55,7.42,1,11.12,1.59a12.42,12.42,0,0,1,2.55.59,1.39,1.39,0,0,1,.29,2.22,1.46,1.46,0,0,1-1.07.33c-5.5-.89-11.07-1.37-16.52-2.61-1.85-.42-3.78-.51-5.68-.77a17,17,0,0,1-1.86-.36A1.63,1.63,0,0,1,181.15,240.17Z" fill="currentColor"/><path d="M49.13,213.4a4.46,4.46,0,0,1-2.32.21,69,69,0,0,0-11.22.8c-4,.52-8,1.26-12.07,1.9a6.26,6.26,0,0,1-1.66.15,1.24,1.24,0,0,1-.85-.67,1.2,1.2,0,0,1,.26-1.08,4.34,4.34,0,0,1,1.7-.79c3.05-.62,6.1-1.22,9.18-1.73,2.2-.36,4.42-.65,6.64-.79,2.55-.16,5.11-.17,7.66-.13a6.22,6.22,0,0,1,2.25.68C49.32,212.21,49.37,212.78,49.13,213.4Z" fill="currentColor"/><path d="M124.79,272.5c-.25.31-.39.62-.63.76a1.71,1.71,0,0,1-1.82-.08,9.52,9.52,0,0,1-1.47-1.22,36.73,36.73,0,0,1-6.44-8.58q-2.78-5.29-5.51-10.61a4.51,4.51,0,0,1-.36-1.13.8.8,0,0,1,.69-.83,2,2,0,0,1,2.07.92c.42.67.74,1.42,1.11,2.12,1.47,2.83,2.93,5.66,4.42,8.48a31,31,0,0,0,6.84,8.85A13,13,0,0,1,124.79,272.5Z" fill="currentColor"/><path d="M129.74,271.26a1.29,1.29,0,0,1-1.4,1,2.88,2.88,0,0,1-1.3-.47,5.38,5.38,0,0,1-1-1,36.18,36.18,0,0,1-5.25-8.23c-1.45-3.19-3-6.34-4.49-9.5-.1-.22-.24-.42-.32-.64-.28-.68-.17-1.26.26-1.5A1.53,1.53,0,0,1,118,251a3.25,3.25,0,0,1,.53.78c1,2,2.1,3.94,3.11,5.92.5,1,.94,2,1.37,3.05a36.7,36.7,0,0,0,6.3,9.81A5.14,5.14,0,0,1,129.74,271.26Z" fill="currentColor"/><path d="M135.42,269.56c-1,1.08-1.76,1.25-2.7.56a11.49,11.49,0,0,1-1.52-1.52,33,33,0,0,1-4.31-6.6c-1.32-2.46-2.59-4.95-3.78-7.48a23.24,23.24,0,0,1-1.19-3.62,1.05,1.05,0,0,1,.71-1.34,1.3,1.3,0,0,1,1.48.5,8.62,8.62,0,0,1,.45,1.09A93.85,93.85,0,0,0,131.05,264a48,48,0,0,0,3.34,4.36C134.72,268.75,135.08,269.16,135.42,269.56Z" fill="currentColor"/><path d="M92.33,117a9.19,9.19,0,0,1-.17,1.22,1.18,1.18,0,0,1-1.27.86.93.93,0,0,1-1-.84c-.29-1.48-.63-3-.81-4.46-.23-2-.34-4-.5-6-.21-2.62-.44-5.24-.62-7.86-.07-1-.1-2.06-.07-3.09a1.05,1.05,0,0,1,.95-1.17,1.36,1.36,0,0,1,1.57,1.13c.2,1.82.3,3.65.5,5.47.51,4.67.48,9.38,1.34,14C92.29,116.5,92.29,116.66,92.33,117Z" fill="currentColor"/><path d="M221.71,198.23a3.27,3.27,0,0,1,.07-.52.81.81,0,0,1,.86-.59,1.55,1.55,0,0,1,1.74,1.13,10.7,10.7,0,0,1,.27,1.86c.21,2.91.38,5.83.6,8.74a47.61,47.61,0,0,0,1.21,7.85,11.88,11.88,0,0,1,.29,2.06.74.74,0,0,1-.63.79,1.43,1.43,0,0,1-1.49-.38,3.1,3.1,0,0,1-.31-.78c-.37-1.42-.81-2.84-1.06-4.28-.32-1.78-.55-3.58-.71-5.38-.29-3.12-.49-6.24-.73-9.36C221.8,199,221.76,198.67,221.71,198.23Z" fill="currentColor"/><path d="M232.26,219.83c-1.72.5-2.36.35-2.61-.73a59.29,59.29,0,0,1-1.35-7.18c-.36-3.67-.44-7.35-.65-11,0-.14,0-.28,0-.42,0-.7.22-1.06.72-1.16a1.51,1.51,0,0,1,1.75.76,9.69,9.69,0,0,1,.47,2.25c.18,2.28.35,4.57.41,6.86a35.08,35.08,0,0,0,1,8.28A17.66,17.66,0,0,1,232.26,219.83Z" fill="currentColor"/><path d="M238.28,218.26a8.66,8.66,0,0,1-.17,1.06,1.18,1.18,0,0,1-1.27.75.9.9,0,0,1-1-.73c-.29-1.29-.63-2.58-.81-3.89-.24-1.72-.34-3.46-.5-5.19-.22-2.28-.44-4.56-.62-6.84a24.35,24.35,0,0,1-.08-2.7,1,1,0,0,1,1-1c.8,0,1.49.33,1.57,1,.2,1.59.3,3.19.5,4.77.51,4.07.48,8.18,1.34,12.22C238.24,217.81,238.24,218,238.28,218.26Z" fill="currentColor"/><path d="M211.38,3.84a4.34,4.34,0,0,1,.1.6.82.82,0,0,1-.64.88,1.57,1.57,0,0,1-2-.76,15.13,15.13,0,0,1-.85-2c-1.12-3.15-2.2-6.32-3.33-9.47A61.53,61.53,0,0,0,201-15.21a16.17,16.17,0,0,1-.93-2.19.84.84,0,0,1,.35-1,1.31,1.31,0,0,1,1.56,0,3.87,3.87,0,0,1,.54.78c.81,1.46,1.68,2.9,2.38,4.42.87,1.87,1.66,3.8,2.38,5.74,1.26,3.36,2.44,6.75,3.66,10.12C211.05,3,211.2,3.37,211.38,3.84Z" fill="currentColor"/><path d="M194.42-17.06c1.5-1,2.16-1,2.73.08a75.25,75.25,0,0,1,3.57,7.55c1.5,3.94,2.75,8,4.11,12L205,3c.22.78.12,1.24-.33,1.48a1.42,1.42,0,0,1-1.92-.36,11.9,11.9,0,0,1-1.17-2.34c-.89-2.47-1.77-4.95-2.56-7.46a46,46,0,0,0-3.54-8.86A23.38,23.38,0,0,1,194.42-17.06Z" fill="currentColor"/><path d="M189.13-13.68a8.33,8.33,0,0,1-.18-1.21,1.19,1.19,0,0,1,1-1.18.93.93,0,0,1,1.18.53c.69,1.35,1.42,2.68,2,4.07.77,1.83,1.42,3.72,2.12,5.58.93,2.46,1.86,4.91,2.76,7.38.35,1,.66,2,.92,3a1.07,1.07,0,0,1-.6,1.39,1.36,1.36,0,0,1-1.81-.66c-.7-1.69-1.3-3.43-2-5.12-1.78-4.35-3.05-8.89-5.15-13.11C189.31-13.19,189.26-13.34,189.13-13.68Z" fill="currentColor"/><path d="M94,71.48a6.74,6.74,0,0,1-.46-1.74c0-.62.64-.87,1.16-1.08A9.08,9.08,0,0,1,96,68.23q7.66-1.85,15.36-3.67c.92-.22,1.88-.34,2.82-.47a2.32,2.32,0,0,1,.94.12,1.43,1.43,0,0,1,.88,1.54c-.09.54-.46.76-1,.88q-7.71,1.68-15.41,3.42C97.84,70.45,96.07,70.94,94,71.48Z" fill="currentColor"/><path d="M.29,183.77a1.83,1.83,0,0,1,.6,1.85,1.08,1.08,0,0,1-1,.86c-.79.08-1.59,0-2.37.15-3.79.51-7.58,1.05-11.36,1.58a64.63,64.63,0,0,0-10.76,2.22c-.53.17-1.1.34-1.51-.25s-.14-1.09.46-1.69a4.55,4.55,0,0,1,2.3-1.21c2.09-.49,4.17-1.06,6.29-1.41,4.49-.73,9-1.34,13.49-2,1-.14,2.06-.2,3.09-.26A3.21,3.21,0,0,1,.29,183.77Z" fill="currentColor"/><path d="M5.31,198.69c-2.8-.32-5.58.52-8.4.93-4,.59-8.06,1.28-12.08,1.95-.78.13-1.55.37-2.33.54s-1.61-.13-1.78-.77a1.71,1.71,0,0,1,.76-1.85,6.47,6.47,0,0,1,1.82-.59c3.93-.66,7.88-1.27,11.82-1.92,1.81-.29,3.61-.69,5.43-.89a23.82,23.82,0,0,1,4.05,0,1.79,1.79,0,0,1,1.12.76A1.3,1.3,0,0,1,5.31,198.69Z" fill="currentColor"/><path d="M2.2,190.62a10.22,10.22,0,0,1,.4,1.64,1,1,0,0,1-1,1.12l-.24,0c-5.88.5-11.76,1-17.64,1.49-1.35.12-2.69.31-4,.48-.32,0-.62.14-.94.17a1.26,1.26,0,0,1-1.48-.91,1.33,1.33,0,0,1,.8-1.57,8.79,8.79,0,0,1,2.28-.63q9.64-1,19.29-1.83C.42,190.53,1.22,190.61,2.2,190.62Z" fill="currentColor"/></pattern></defs><rect width="283.46" height="283.46" fill="url(#a)"/></svg>
