<svg xmlns="http://www.w3.org/2000/svg" height="540" width="440" viewBox="0 0 423 386"><path d="M423 386H0V0h423zM309 272.09c.67 1.9 1.66 3.68 1.89 5.56.47 4 .1 8.05.84 11.94a252.05 252.05 0 014.1 62.16c-.56 9.65 1.29 11.8 10.73 14a61.21 61.21 0 006.91 1c4.11.47 6.06-.85 5.82-5.54a143.12 143.12 0 01.3-20c1.88-21.06 4-42.09 6.29-63.11.15-1.42 1.7-2.87 2.92-4 4-3.66 9.09-6.56 12.1-10.9a60.92 60.92 0 0113.71-13.86C405.87 225.59 416 181.28 399 145.79c-.87-1.82-.76-4.36-.45-6.47 1-6.72 3-13.36 3.36-20.1.9-15.72-1.88-30.83-10-44.6 3.43-2 6.83-3.53 9.63-5.79s5.74-4.89 7.34-8c6-11.75 3.77-14.24-7.4-15.65-7.72-1-15.71.22-23.86.45-.27-5.58-1.69-11.56-9.39-13.46-.72-.18-1.2-1.48-1.74-2.29-3.66-5.47-8-7.14-14.62-5.83a5.6 5.6 0 01-3.9-.61c-8.42-6-16.73-6.17-25.57-.62a6.64 6.64 0 01-4.45.93c-9.09-1.88-15.21 1.65-18 10.56-.36 1.18-1 3.17-1.69 3.24-6.81.67-7.74 5.81-8.35 10.35-8.13-.55-15.9-1.56-23.64-1.41-4.05.07-8.05 2.17-12.07 3.36 1.48 4.12 2.31 8.66 4.62 12.26 2.7 4.22 6.69 7.62 10.08 11.33-2.5 2.72-4.95 5.4-7.39 8.07-4.53-2-8.84-4.23-13.34-5.92C232 69.5 216 68.77 200.66 78.21c-2.85 1.76-4.71 1.62-7.61.15-27.53-13.9-53.85-12.45-78.76 6.54-1.49 1.14-4.28 1.42-6.23 1-18.15-4-33 1.63-43.76 16.65a13.52 13.52 0 01-4.13 4.15c-17.13 9.19-26.23 24-30.24 42.51-2.9 13.4-2.95 26.62 3.85 38.88a15.86 15.86 0 011.78 11.51c-2.79 16.34.88 31.06 12.39 43.49a16.06 16.06 0 013.15 5.49c5.14 14.67 13.64 26.55 27.4 34.39 1.45.83 2.54 3.24 2.78 5 .83 6.26 1.24 12.58 1.74 18.88 1.29 16.09 3.25 32.16 3.49 48.27.12 7.9 6.75 13 15 12.75 9.85-.27 10.4-.82 9.94-11.78-.06-1.5-.2-3-.17-4.5.31-13.8.46-27.6 1-41.39.26-6.13 1.61-12.2 2-18.34.17-2.71 1.2-3.86 3.38-5.31 4.67-3.11 8.89-6.89 13.26-10.43 1-.85 2-1.85 3.34-3.19 1.38 7.57 2.3 14.29 3.87 20.86 4.54 19 5.46 38.3 5.08 57.58-.2 10.07 5 13.21 12.1 14.38a49.76 49.76 0 006.47.46c5.85.19 5.92-.1 6-6.15.25-14.65 0-29.34 1.24-43.91 1.2-14.37 4-28.61 6-42.61.55-.31.71-.47.83-.46 15.42 1.91 30.57 1.11 45.38-4.06 1-.35 2.86.47 3.77 1.33a59 59 0 0027.74 15.14c2.87.67 3.55 2.18 4 4.74 3.82 22.17 7.82 44.29 6.39 67a7.94 7.94 0 002.49 5.57 19.65 19.65 0 0016.2 4.93c4-.48 5.63-2.25 5.43-6.59-.46-9.64-1-19.35-.29-28.94 1.19-15.58 3.35-31.08 5.21-46.6a5.08 5.08 0 011.86-3.13c4.59-3.29 9.27-6.42 14.97-10.38z" fill="#fff"/><path d="M309 272.09c-5.74 4-10.42 7.09-15 10.41a5.08 5.08 0 00-1.86 3.13c-1.86 15.52-4 31-5.21 46.6-.73 9.59-.17 19.3.29 28.94.2 4.34-1.47 6.11-5.43 6.59a19.65 19.65 0 01-16.2-4.93 7.94 7.94 0 01-2.49-5.57c1.43-22.69-2.57-44.81-6.39-67-.44-2.56-1.12-4.07-4-4.74a59 59 0 01-27.74-15.14c-.91-.86-2.77-1.68-3.77-1.33-14.81 5.17-30 6-45.38 4.06-.12 0-.28.15-.83.46-2 14-4.78 28.24-6 42.61-1.22 14.57-1 29.26-1.24 43.91-.1 6.05-.17 6.34-6 6.15a49.76 49.76 0 01-6.47-.46c-7.1-1.17-12.3-4.31-12.1-14.38.38-19.28-.54-38.62-5.08-57.58-1.57-6.57-2.49-13.29-3.87-20.86-1.39 1.34-2.3 2.34-3.34 3.19-4.37 3.54-8.59 7.32-13.26 10.43-2.18 1.45-3.21 2.6-3.38 5.31-.39 6.14-1.74 12.21-2 18.34-.58 13.79-.73 27.59-1 41.39 0 1.5.11 3 .17 4.5.46 11-.09 11.51-9.94 11.78-8.27.23-14.9-4.85-15-12.75-.21-16.09-2.17-32.15-3.48-48.25-.5-6.3-.91-12.62-1.74-18.88-.24-1.81-1.33-4.22-2.78-5-13.76-7.84-22.26-19.72-27.4-34.39a16.06 16.06 0 00-3.08-5.54c-11.51-12.43-15.18-27.15-12.39-43.49a15.86 15.86 0 00-1.78-11.51c-6.83-12.26-6.83-25.48-3.9-38.88 4-18.51 13.11-33.32 30.24-42.51a13.52 13.52 0 004.13-4.15c10.75-15 25.61-20.62 43.76-16.65 2 .42 4.74.14 6.23-1 24.91-19 51.23-20.44 78.76-6.54 2.9 1.47 4.76 1.61 7.61-.15C216 68.77 232 69.5 248.21 75.58c4.5 1.69 8.81 3.9 13.34 5.92 2.44-2.67 4.89-5.35 7.39-8.07-3.39-3.71-7.38-7.11-10.08-11.33-2.31-3.6-3.14-8.14-4.62-12.26 4-1.19 8-3.29 12.07-3.36 7.74-.15 15.51.86 23.64 1.41.61-4.54 1.54-9.68 8.35-10.35.67-.07 1.33-2.06 1.69-3.24 2.75-8.91 8.87-12.44 18-10.56a6.64 6.64 0 004.45-.93c8.84-5.55 17.15-5.35 25.57.62a5.6 5.6 0 003.9.61c6.59-1.31 11 .36 14.62 5.83.54.81 1 2.11 1.74 2.29 7.7 1.9 9.12 7.88 9.39 13.46 8.15-.23 16.14-1.42 23.86-.45 11.17 1.41 13.38 3.9 7.4 15.65-1.6 3.12-4.54 5.75-7.34 8s-6.2 3.78-9.63 5.79c8.14 13.77 10.92 28.88 10 44.6-.38 6.74-2.36 13.38-3.36 20.1-.31 2.11-.42 4.65.45 6.47 17 35.49 6.85 79.8-24.37 103.64a60.92 60.92 0 00-13.71 13.86c-3 4.34-8.07 7.24-12.1 10.9-1.22 1.11-2.77 2.56-2.92 4-2.25 21-4.41 42.05-6.29 63.11a143.12 143.12 0 00-.3 20c.24 4.69-1.71 6-5.82 5.54a61.21 61.21 0 01-6.91-1c-9.44-2.21-11.29-4.36-10.73-14a252.05 252.05 0 00-4.1-62.16c-.74-3.89-.37-8-.84-11.94-.25-1.96-1.24-3.73-1.95-5.64zm-173-1.64c9.11 3.52 18.1 3.78 28.33 0-3.35-1.4-5.64-2.31-7.89-3.31a47.92 47.92 0 01-6.28-3.05 37.74 37.74 0 01-4.55-4l1-1.26c23.56 9.79 47.48 12.09 71.44 4.5-.26-3.61-.47-6.44-.73-10a14.16 14.16 0 012.61 1.22 20.51 20.51 0 012.33 2.6c12.54 17.49 30.33 24.12 51 24.74 13 .38 23.16-5 31.26-14.85 1.31-1.59 2.78-3.05 4.35-4.76 1.46 2.31 2.17 4.54 3.71 5.68 5.92 4.38 12.55 6.83 20.11 5.65 14.41-2.26 24.24-10.24 29.69-23.74 1.11-2.75 2.35-5.45 3.54-8.17l1.9.38c.24 2.26.49 4.52.77 7.08a18.94 18.94 0 002-1.16c30.56-22.4 41.41-63.59 25.54-97.89-2.38-5.14-3.05-9.77-1.36-15.25 5.95-19.33 3.44-38.23-3.89-56.68-.52-1.29-2.35-2-3.57-3.06-.63 1.33-1.76 2.65-1.8 4a74.11 74.11 0 01-8.15 31.67c-3.44 6.84-6.44 13.89-9.5 20.91-3.17 7.26-7 14-13.41 19-12.25 9.37-27.14 8.77-36.66-2.65-10.56-12.68-19.75-26.47-25.78-42-2.14-5.51-3.13-11.57-3.88-17.48-1-8-.76-8-8.47-10.7-3-1.06-5.45-2-8.16.6-3.91 3.72-8.09 7.16-12.35 10.89.11-.87.18-1.65.31-2.43s.31-1.58.52-2.63c-25.16-8.18-49.61-13.31-69.73 11-3.42-5.27.61-7.91 2.32-11.75-31.18-15.36-59.41-10.12-86 10.67a7.87 7.87 0 011-2.66c.32-.64.54-1.34.93-2.36-23.12-.54-39.13 9.18-47.41 31.18l-1.43-.83-1.72-6c-22.86 14.53-33.81 58.07-18.2 72.75l6-7.19 1.68.53C38 197.6 35 215.29 48.14 233l2.29-5.4h1.77c.55 2.22 1.08 4.44 1.65 6.65 1.72 6.72 2.63 13.81 5.37 20.1 5.62 12.85 15.93 21.52 28.15 28a39.39 39.39 0 014.36 3.11l-.63 1.35-7.75-1.37c.69 5 .89 9.65 2 14.07 4.55 17.58 5.58 35.5 5.37 53.53-.05 3.92 1.66 6.2 5 6.89s7 .54 10.53.75c0-12.87-.65-24.73.18-36.47s3.17-23.09 4.72-33.76L94 287.4l.18-1.54c19 2.36 31.81-5.86 39.77-22.66a44.34 44.34 0 012.65-4.3l1.61.6zM324.76 57.13c-8.54 7.19-22 7.33-29.53-.68-3.69-4-7.57-4.72-12.2-5.13-8.81-.79-17.38.35-26.39 2.69 8 12.63 20.07 17.23 33.31 20.28.51 4.6.76 9.26 1.56 13.82 3.87 22.19 18.25 38.48 31.67 55.19 3.42 4.27 8.86 5 14.26 4.35 11.93-1.38 19.62-8.22 24.55-18.79 4.15-8.9 8.7-17.61 12.67-26.59a102.82 102.82 0 005-15.11c.34-1.27-.88-3-1.79-5.66a21 21 0 00-1.43 2.56c-.76 4-2.71 7.09-7.21 6.73-4.15-.34-5.63-3.46-6.26-7.28-.2-1.22-1.58-2.24-3.26-4.48 3.29-1.65 6.6-4.53 10.06-4.73 3.66-.21 7.47 2.13 11.46 3.43-.76-6.6 2.87-9.67 9.56-10.35 2.39-.25 4.75-1.55 6.94-2.71 4.9-2.57 9.12-5.87 11.1-12.17-13-3.11-25.34-6.43-37.21 2.26-1.64 1.2-4.18 2.2-6.06 1.87-6.39-1.12-11.17 1.12-16.63 4.45-8.46 5.16-17.04 2.74-24.17-3.95zm31.36-6.88c2.84 3 9.56 3 13.9-1.34 1.53-1.53 3-4.61 2.44-6.29-.51-1.51-3.9-2-5.9-3.1-1.29-.73-3.25-1.68-3.41-2.77-1.25-8.1-5.78-10.86-13.56-8.06-1.2.43-3.1.61-4 0-9.53-6.9-18.67-5.42-26.58.25-2.18-.86-3.65-2-5-1.88-6.13.49-10.32 5.17-10.88 11.7-.15 1.78-.27 3.57-.35 4.65-2.66-.82-5.59-2.39-6.18-1.77-1.48 1.58-2.87 4.35-2.49 6.27a8.38 8.38 0 004.54 5.4 44.25 44.25 0 0013.92 3c6.16.12 8.32-2.45 9.06-9.11 4.53 5.47 9.47 10.64 16.34 9.62 6.03-.97 11.8-4.2 18.15-6.57zm-191.84 310a261.66 261.66 0 017.93-86.65c-11.65 6.1-22.14 6.29-33.31 2.66.25 2.55.28 4.36.64 6.11 1.43 7 3.71 13.92 4.32 21 1.29 15.07 1.85 30.21 2.49 45.33.34 8.15 1.68 10 9.92 11.15 2.27.27 4.59.2 8.01.37zm179.9-82.44h-29.63a31.68 31.68 0 00.06 6.05c4.09 22.93 8.3 45.83 5.93 69.33a5.1 5.1 0 002.53 4.08c3.61 1.34 7.49 2 12.27 3.14-1.47-28.88 3.54-55.94 8.84-82.63zm-84.15 10a23.67 23.67 0 00.49 4c6.16 20.54 7.3 41.56 6.44 62.83-.06 1.69 1.85 4.21 3.51 5.11 9.25 5 12.93 2.8 12.87-7.31-.1-18.34.16-36.63 4.2-54.67.89-3.95.69-8.15 1-11.94zM375.25 82.2c-2.56-1.23-4-2.56-5.14-2.33-1.42.29-2.57 1.86-3.84 2.87 1.16.86 2.36 2.45 3.47 2.4 1.47-.07 2.87-1.44 5.51-2.94z"/><path d="M136 270.45l2.3-10.95-1.61-.6a44.34 44.34 0 00-2.65 4.3c-8 16.8-20.82 25-39.77 22.66L94 287.4l17.2 3.13c-1.55 10.67-3.89 22.16-4.72 33.76s-.18 23.6-.18 36.47c-3.48-.21-7.09-.06-10.53-.75s-5.1-3-5-6.89c.21-18-.82-35.95-5.37-53.53-1.15-4.42-1.35-9.09-2-14.07l7.75 1.37.63-1.35a39.39 39.39 0 00-4.36-3.11c-12.22-6.51-22.53-15.18-28.15-28-2.74-6.29-3.65-13.38-5.37-20.1-.57-2.21-1.1-4.43-1.65-6.65h-1.82L48.14 233C35 215.29 38 197.6 47.51 179.63l-1.68-.53-6 7.19c-15.61-14.68-4.66-58.22 18.2-72.75l1.72 6 1.43.83c8.28-22 24.29-31.72 47.41-31.18-.39 1-.61 1.72-.93 2.36a7.87 7.87 0 00-1 2.66c26.58-20.79 54.81-26 86-10.67-1.71 3.84-5.74 6.48-2.32 11.75 20.12-24.33 44.57-19.2 69.73-11-.21 1-.39 1.83-.52 2.63s-.2 1.56-.31 2.43c4.26-3.73 8.44-7.17 12.35-10.89 2.71-2.58 5.21-1.66 8.16-.6 7.71 2.74 7.44 2.66 8.47 10.7.75 5.91 1.74 12 3.88 17.48 6 15.5 15.22 29.29 25.78 42 9.52 11.42 24.41 12 36.66 2.65 6.44-4.93 10.24-11.7 13.41-19 3.06-7 6.06-14.07 9.5-20.91a74.11 74.11 0 008.15-31.67c0-1.34 1.17-2.66 1.8-4 1.22 1 3.05 1.77 3.57 3.06 7.33 18.45 9.84 37.35 3.89 56.68-1.69 5.48-1 10.11 1.36 15.25 15.87 34.3 5 75.49-25.54 97.89a18.94 18.94 0 01-2 1.16c-.28-2.56-.53-4.82-.77-7.08l-1.9-.38c-1.19 2.72-2.43 5.42-3.54 8.17-5.45 13.5-15.28 21.48-29.69 23.74-7.56 1.18-14.19-1.27-20.11-5.65-1.54-1.14-2.25-3.37-3.71-5.68-1.57 1.71-3 3.17-4.35 4.76-8.1 9.85-18.31 15.23-31.26 14.85-20.71-.62-38.5-7.25-51-24.74a20.51 20.51 0 00-2.33-2.6 14.16 14.16 0 00-2.61-1.22c.26 3.58.47 6.41.73 10-24 7.59-47.88 5.29-71.44-4.5l-1 1.26a37.74 37.74 0 004.55 4 47.92 47.92 0 006.28 3.05c2.25 1 4.54 1.91 7.89 3.31-10.37 3.79-19.36 3.56-28.42.01z" fill="#fff"/><path d="M324.76 57.13c7.13 6.69 15.71 9.11 24.16 3.95 5.46-3.33 10.24-5.57 16.63-4.45 1.88.33 4.42-.67 6.06-1.87 11.87-8.69 24.2-5.37 37.21-2.26-2 6.3-6.2 9.6-11.1 12.17-2.19 1.16-4.55 2.46-6.94 2.71-6.69.68-10.32 3.75-9.56 10.35-4-1.3-7.8-3.64-11.46-3.43-3.46.2-6.77 3.08-10.06 4.73 1.68 2.24 3.06 3.26 3.26 4.48.63 3.82 2.11 6.94 6.26 7.28 4.5.36 6.45-2.7 7.21-6.73a21 21 0 011.43-2.56c.91 2.7 2.13 4.39 1.79 5.66a102.82 102.82 0 01-5 15.11c-4 9-8.52 17.69-12.67 26.59-4.93 10.57-12.62 17.41-24.55 18.79-5.4.62-10.84-.08-14.26-4.35-13.42-16.71-27.8-33-31.67-55.19-.8-4.56-1.05-9.22-1.56-13.82-13.24-3.05-25.31-7.65-33.31-20.28 9-2.34 17.58-3.48 26.39-2.69 4.63.41 8.51 1.18 12.2 5.13 7.51 8.01 21 7.87 29.54.68zM314.2 81.29c-4.91-7.52-16.75-7.76-20.87-1.06-.6 1-.39 2.46-.56 3.71 4.09.51 3.75 5 6.33 7a6.4 6.4 0 009.72-2.46c1-2 1.21-4.41 1.8-6.71zM346.9 119c-6.68.57-7.84 2.33-4.95 6.89zm-16.84-1l-2.42 1.35c1.16 1.91 2.25 3.88 3.56 5.68.15.2 1.55-.5 2.37-.78z" fill="#fff"/><path d="M356.12 50.25c-6.35 2.37-12.09 5.6-18.17 6.51-6.87 1-11.81-4.15-16.34-9.62-.74 6.66-2.9 9.23-9.06 9.11a44.25 44.25 0 01-13.92-3 8.38 8.38 0 01-4.54-5.4c-.38-1.92 1-4.69 2.49-6.27.59-.62 3.52.95 6.18 1.77.08-1.08.2-2.87.35-4.65.56-6.53 4.75-11.21 10.88-11.7 1.38-.11 2.85 1 5 1.88 7.91-5.67 17.05-7.15 26.58-.25.89.65 2.79.47 4 0 7.78-2.8 12.31 0 13.56 8.06.16 1.09 2.12 2 3.41 2.77 2 1.13 5.39 1.59 5.9 3.1.56 1.68-.91 4.76-2.44 6.29-4.32 4.39-11 4.37-13.88 1.4zM164.28 360.22c-3.42-.17-5.74-.1-8-.42-8.24-1.17-9.58-3-9.92-11.15-.64-15.12-1.2-30.26-2.49-45.33-.61-7.06-2.89-14-4.32-21-.36-1.75-.39-3.56-.64-6.11 11.17 3.63 21.66 3.44 33.31-2.66a261.66 261.66 0 00-7.94 86.67zM344.18 277.78c-5.3 26.69-10.31 53.75-8.84 82.6-4.78-1.16-8.66-1.8-12.27-3.14a5.1 5.1 0 01-2.53-4.08c2.37-23.5-1.84-46.4-5.93-69.33a31.68 31.68 0 01-.06-6.05zM260 287.77l28.48-2c-.28 3.79-.08 8-1 11.94-4 18-4.3 36.33-4.2 54.67.06 10.11-3.62 12.3-12.87 7.31-1.66-.9-3.57-3.42-3.51-5.11.86-21.27-.28-42.29-6.44-62.83a23.67 23.67 0 01-.46-3.98zM375.25 82.2c-2.64 1.5-4 2.87-5.51 2.94-1.11 0-2.31-1.54-3.47-2.4 1.27-1 2.42-2.58 3.84-2.87 1.13-.23 2.58 1.13 5.14 2.33z" fill="#fff"/><path d="M314.2 81.29l-3.58.44c-.59 2.3-.8 4.7-1.8 6.71a6.4 6.4 0 01-9.72 2.46c-2.58-1.91-2.24-6.45-6.33-7 .17-1.25 0-2.73.56-3.71 4.12-6.66 15.96-6.42 20.87 1.1zm-7 2.67c-1.85-1.45-2.89-2.89-3.68-2.76-1.37.23-2.58 1.43-3.86 2.22.8.86 1.59 2.42 2.41 2.43 1.38.03 2.76-.93 5.16-1.85zM346.9 119l-4.9 6.91c-2.94-4.56-1.78-6.32 4.9-6.91zM330.06 118l3.51 6.25c-.82.28-2.22 1-2.37.78-1.31-1.8-2.4-3.77-3.56-5.68z"/><path d="M307.23 84c-2.4 1-3.78 1.92-5.13 1.89-.82 0-1.61-1.57-2.41-2.43 1.28-.79 2.49-2 3.86-2.22.79-.17 1.83 1.27 3.68 2.76z" fill="#fff"/></svg>