<svg xmlns="http://www.w3.org/2000/svg" xmlns:xlink="http://www.w3.org/1999/xlink" viewBox="0 0 283.46 283.46"><defs><pattern id="a" width="283.46" height="283.46" patternUnits="userSpaceOnUse" viewBox="0 0 283.46 283.46"><rect width="283.46" height="283.46" fill="none"/><path d="M45.31,264.6a1,1,0,0,1,1.2,0,46,46,0,0,1,6.07,3.93c1.48,1.15,3,2.27,4.38,3.5,2.4,2.12,4.78,4.26,7.07,6.48a38.53,38.53,0,0,1,3.7,4.18q3.48,4.53,6.79,9.17a81.21,81.21,0,0,1,5.06,7.93,18.66,18.66,0,0,0,2.88,4c1,1.05,1.88,2.24,2.83,3.35a37.57,37.57,0,0,0,4.19,4.08,19.38,19.38,0,0,1,4,4.93,31.31,31.31,0,0,0,5.91,7.46,39.63,39.63,0,0,1,4.1,4c.71.84,1.58,1.56,2.33,2.37,1.69,1.82,3.42,3.61,5,5.51,2,2.37,3.88,4.82,5.64,7.37,2.46,3.53,4.53,7.28,6.65,11,1.33,2.34,2.48,4.79,3.71,7.19,1.92,3.74,3.61,7.58,5.22,11.46,1,2.45,2.15,4.85,3.23,7.28s2.06,4.69,3.1,7c.21.48.45,1,.7,1.42,1.17,2.18,2.33,4.37,3.53,6.53,1.86,3.37,3.4,6.9,5.1,10.35.64,1.31,1.34,2.59,2,3.91,1.69,3.5,3.38,7,5,10.54.94,2.06,2.16,4,3.19,6a31,31,0,0,0,3.74,5.62c.42.5.92.95,1.34,1.47a24.56,24.56,0,0,1,3.16,4.88,32.36,32.36,0,0,0,2.35,3.84,24.63,24.63,0,0,0,1.52,2c.54.64,1.15,1.22,1.68,1.87s1.25,1.6,1.86,2.41a15.11,15.11,0,0,0,.93,1.29,11.57,11.57,0,0,1,1.68,2.37c.66,1.16,1.35,2.29,2,3.46a16.31,16.31,0,0,1,1,2.29,89.35,89.35,0,0,0,5.44,11.8c1.88,3.51,3.83,7,5.9,10.38.66,1.09,1.42,2.13,2.18,3.16,1.86,2.53,3.61,5.14,5.67,7.52,2.61,3,5.26,6,7.88,9a33.43,33.43,0,0,1,4.28,5.89c1,1.74,1.78,3.54,2.58,5.35a4.26,4.26,0,0,1,.18.93l-1.1.65a1.61,1.61,0,0,1-.41-.15,10.62,10.62,0,0,1-1.91-1.82c-1.38-1.59-2.55-3.39-4.48-4.49a18.28,18.28,0,0,1-2.4-1.91,94.22,94.22,0,0,1-7.38-6.73,69.2,69.2,0,0,1-7.91-8.94q-1.49-2.13-3-4.24c-1.58-2.24-3.13-4.5-4.75-6.71s-3.24-4.32-4.94-6.41c-1.57-1.92-3.24-3.75-4.86-5.63-.44-.5-.89-1-1.29-1.51-1.32-1.72-2.64-3.44-3.91-5.19s-2.71-3.82-4.08-5.72c-1.24-1.72-2.47-3.45-3.79-5.12-2.23-2.8-4.54-5.54-6.77-8.34-1.93-2.42-3.82-4.87-5.71-7.33s-3.92-5.13-5.84-7.73a48.81,48.81,0,0,1-4.79-7.78c-.81-1.72-1.72-3.39-2.63-5.05-.47-.86-1-1.66-1.57-2.47A7.66,7.66,0,0,0,128,406.6c-.37-.27-.27-.61.08-1a2.36,2.36,0,0,1,1.47.57,35.62,35.62,0,0,1,6.31,4.71,12.07,12.07,0,0,1,1.54,1.82c1.27,1.87,2.55,3.73,3.7,5.66a26.77,26.77,0,0,0,5.21,6.17c.69.62,1.33,1.3,2,1.95s1.2,1.18,1.81,1.75a3,3,0,0,0,.61.31,2.64,2.64,0,0,0-.13-.82c-1.12-2-2.26-4-3.4-6a8.47,8.47,0,0,1-1.17-2.51,2.76,2.76,0,0,0-.43-.81c-1.61-2.49-3-5.08-4.43-7.7-1.55-2.94-2.86-6-4.35-8.95-.88-1.73-2-3.36-3-5-.8-1.27-1.71-2.47-2.5-3.75-.93-1.5-1.87-3-2.65-4.59a55.47,55.47,0,0,1-2.88-6.26,15.75,15.75,0,0,0-1-2.29c-.75-1.4-1.56-2.78-2.34-4.16-.07-.12-.16-.22-.22-.33l-2.43-4.87-3-5.91c-.83-1.66-1.62-3.35-2.48-5A41.56,41.56,0,0,0,110.9,354a7,7,0,0,1-.51-.78c-1.15-2-2.5-3.95-3.82-5.89-2.43-3.59-5.15-7-7.83-10.37-1.8-2.3-3.71-4.5-5.57-6.75-1.66-2-3.09-4.2-4.58-6.33-.73-1.05-1.52-2.05-2.32-3.05A28.31,28.31,0,0,1,83.72,317c-.7-1.23-1.47-2.42-2.23-3.61-1.58-2.45-3.15-4.91-4.76-7.34-.93-1.39-2-2.73-2.91-4.11q-2.19-3.17-4.36-6.34c-1-1.42-1.94-2.85-2.94-4.26a20.9,20.9,0,0,0-1.31-1.67c-.86-1-1.76-2-2.62-3-2.24-2.63-4.46-5.28-6.69-7.91-2.77-3.28-5.56-6.54-8.31-9.83A13.76,13.76,0,0,1,46,266.6,11.2,11.2,0,0,1,45.31,264.6Z" fill="currentColor"/><path d="M48.85,306.75c.16.31.25.51.36.7,2.18,3.71,4.17,7.53,6.1,11.37,1.4,2.79,2.93,5.51,4.33,8.3.93,1.86,1.73,3.78,2.59,5.68,1.07,2.37,2.12,4.75,3.2,7.11s2.17,4.73,3.29,7.07c.62,1.32,1.34,2.61,2,3.92q2,4.08,3.92,8.18c.85,1.79,1.71,3.58,2.54,5.39,1,2.14,1.91,4.31,2.91,6.45,1.19,2.57,2.24,5.21,3.25,7.86,1.34,3.53,2.59,7.1,3.6,10.75.58,2.1,1.21,4.18,1.8,6.27.79,2.77,1.54,5.56,2.36,8.32.34,1.12.85,2.2,1.28,3.3.08.22.19.43.26.65a18.66,18.66,0,0,0,2.95,5.79c.44.55.34.74-.5,1.11a3.33,3.33,0,0,1-1-1.08,34.53,34.53,0,0,1-4.34-8.1c-.26-.76-.65-1.47-1-2.21-.74-1.74-1.44-3.49-2.21-5.22-1.17-2.64-2.26-5.32-3.6-7.86-2-3.85-3.84-7.79-5.9-11.6-1.91-3.54-3.92-7-5.86-10.54-1.42-2.57-2.83-5.14-4.2-7.73-1.09-2-2.1-4.13-3.18-6.18-.82-1.54-1.69-3.06-2.58-4.58A75.12,75.12,0,0,1,57,341.24a36.46,36.46,0,0,0-1.78-3.39c-1.75-3.2-3.75-6.24-5.63-9.36-2.25-3.73-4.69-7.33-7-11-2-3.21-3.74-6.57-5.46-9.94C34.9,303.28,32.74,299,30.14,295a11.21,11.21,0,0,1-.77-1.35,25.45,25.45,0,0,0-3.76-5.49,36,36,0,0,0-3.69-3.92l-1.61-1.38c-.36-.31-.71-.63-1-1A1,1,0,0,1,19,281c.05-.28.08-.56.13-.84a1.23,1.23,0,0,1,1.15-1.08,7.13,7.13,0,0,1,3.63.32,27.43,27.43,0,0,1,5.17,2.93c2.36,1.65,4.65,3.41,7,5.06,2.83,2,5.57,4.07,8.51,5.89,3.42,2.1,6.82,4.26,10.06,6.64a58.14,58.14,0,0,1,8.78,7.58c.89,1,1.79,1.95,2.65,3a79.94,79.94,0,0,0,6.21,6.41,123.34,123.34,0,0,0,11.34,9.19,38.55,38.55,0,0,1,7.46,7.31A74.47,74.47,0,0,1,97.32,343c2.66,4.75,5.15,9.58,7.81,14.32,1.94,3.47,4.07,6.83,6.05,10.27,1.37,2.38,2.66,4.8,3.91,7.24a107,107,0,0,1,4.2,10.22c1,2.64,2.2,5.24,3.34,7.83.67,1.51,1.38,3,2.15,4.47.57,1.08,1.27,2.1,1.91,3.15a2.78,2.78,0,0,1,.36.76.54.54,0,0,1-.2.47.61.61,0,0,1-.5.13,1.35,1.35,0,0,1-.59-.37,33.1,33.1,0,0,1-3.38-4c-1.71-2.66-3.52-5.26-5.23-7.92a32.56,32.56,0,0,1-1.94-3.46c-1-2.05-2.26-3.93-3.45-5.86-1.06-1.74-2-3.52-3-5.28-.85-1.48-1.71-2.94-2.56-4.42-1.62-2.83-3.2-5.68-4.87-8.48-1.12-1.87-2.32-3.69-3.55-5.48-2.72-4-5.57-7.86-8.59-11.62-2.19-2.74-4.61-5.25-7-7.77a111.31,111.31,0,0,1-7.43-8.37A74.19,74.19,0,0,0,68,321.15c-1.39-1.35-2.72-2.76-4.1-4.12-.57-.56-1.19-1.06-1.8-1.6s-1.4-1.26-2.13-1.87a15.68,15.68,0,0,0-1.88-1.48,34.59,34.59,0,0,0-3.51-1.85,15.78,15.78,0,0,1-4.64-3A1.49,1.49,0,0,0,48.85,306.75Z" fill="currentColor"/><path d="M105.23,270.32c.59.47.69,1.19,1,1.8.12.28.17.59.31.86a37.42,37.42,0,0,0,8.16,10.77c.64.58,1.3,1.14,2,1.69a29.87,29.87,0,0,1,4.2,4.72,71.2,71.2,0,0,1,7.25,11.48c1.24,2.37,2.52,4.72,3.8,7.07a35,35,0,0,0,4.34,6.11,53.85,53.85,0,0,1,5.36,7.27,20.17,20.17,0,0,1,2.49,5.41,5,5,0,0,0,.76,1.34,4.5,4.5,0,0,1,.77,1.49,2.2,2.2,0,0,1-1,2.49c-1,.73-1.44.95-2.15-.29-.51-.9-1.06-1.78-1.52-2.71a17.85,17.85,0,0,0-3.75-4.91,23.93,23.93,0,0,1-4.61-5.88c-.35-.65-.75-1.27-1.09-1.91a6.5,6.5,0,0,0-2.17-2.37,24.46,24.46,0,0,1-3.77-2.94,13.07,13.07,0,0,0-1.9-1.36c-1.7-1.2-3.42-2.37-5.08-3.6a19.58,19.58,0,0,1-3.7-4,21.5,21.5,0,0,1-3.84-8.46c-.63-2.73-1.17-5.5-1.85-8.22a47,47,0,0,0-2.52-7.83,22,22,0,0,1-1.45-4.74c-.13-.65-.28-1.29-.38-1.94A1.29,1.29,0,0,1,105.23,270.32Z" fill="currentColor"/><path d="M246.13,354.87c-.11.45-.36.65-.74.53a2.93,2.93,0,0,1-.88-.45,27,27,0,0,1-3.21-2.55c-.88-.92-1.85-1.75-2.78-2.62a39.36,39.36,0,0,1-4.86-5.53,67.45,67.45,0,0,1-4-6,10.67,10.67,0,0,1-.74-1.37c-.88-2.24-1.93-4.41-3-6.58s-2.15-4.62-3.22-6.93a71.19,71.19,0,0,0-5.1-9.31,76.12,76.12,0,0,0-5.2-7.43l-2.28-2.71c-1.82-2.18-3.33-4.58-4.95-6.9a59.45,59.45,0,0,0-3.87-5.24c-1-1.1-1.75-2.35-2.69-3.47-1.54-1.85-3-3.8-4.36-5.76-.3-.42-.55-.89-.82-1.33l-1.57-2.52c-.07-.12-.18-.25-.18-.37a.75.75,0,0,1,.12-.52.6.6,0,0,1,.49-.17,2,2,0,0,1,1.08.62c1.23,1.39,2.7,2.51,4.05,3.76a59.55,59.55,0,0,0,5.11,3.73c1.05.81,2.16,1.53,3.19,2.37a58.56,58.56,0,0,1,6.15,5.64c.47.52,1,1,1.52,1.48a38.51,38.51,0,0,1,4.58,5.39c1.33,2,2.5,4,3.7,6.05a60.79,60.79,0,0,1,4,8.43c1.68,4.22,3.43,8.4,5.22,12.57.89,2.07,1.92,4.09,2.92,6.13s1.92,3.78,2.89,5.66c.17.34.38.65.58,1a6.76,6.76,0,0,1,.46.72,48.88,48.88,0,0,0,3.37,5.71c1.31,2.08,2.58,4.18,3.88,6.27C245.35,353.75,245.77,354.33,246.13,354.87Z" fill="currentColor"/><path d="M328.13,100.06c-.57-.41-1-.78-1.53-1.09a18.79,18.79,0,0,1-4.45-4.09,89,89,0,0,1-5.66-7.73,13.56,13.56,0,0,0-3.23-3.48,34.46,34.46,0,0,1-7.71-8.26c-1.42-2-2.57-4.22-3.91-6.29-1.06-1.65-2.17-3.26-3.28-4.87a16.35,16.35,0,0,0-2.65-2.92,5.18,5.18,0,0,0-2.1-1.21c-.46-.13-.7.09-.62.58a2.65,2.65,0,0,0,.24.77,13.26,13.26,0,0,0,.82,1.59q1.21,1.84,2.48,3.67c2,2.85,4.07,5.63,5.88,8.59a89.49,89.49,0,0,0,6,8.92c2.81,3.54,5.72,7,8.75,10.34,1.66,1.83,3.3,3.69,5,5.47,1.54,1.61,3.15,3.15,4.77,4.68,2.66,2.51,5.35,5,7.86,7.66,1.09,1.16,2.15,2.36,3.19,3.57s1.81,2.13,2.62,3.26c1.93,2.7,3.76,5.46,5.42,8.32.74,1.28,1.55,2.51,2.34,3.76s1.44,2.3,2.18,3.43c.45.71,1,1.38,1.41,2.08,1.3,1.92,2.45,3.92,3.57,5.94.64,1.14,1.3,2.27,1.94,3.42.17.31.32.64.5.94,1.17,2,2.23,4,3.59,5.92.42.59.84,1.17,1.3,1.72a21.25,21.25,0,0,1,2.23,3.11c.27.48.64.91.94,1.38a4,4,0,0,1,.27.68,5.69,5.69,0,0,1-.62.21.76.76,0,0,1-.87-.39,8.11,8.11,0,0,0-2.59-2.59c-.64-.46-1.27-.94-1.89-1.43a17.11,17.11,0,0,1-3.27-3.62,38.51,38.51,0,0,1-2.91-5.2,40.69,40.69,0,0,0-6.74-9.83c-1-1.06-1.9-2.16-2.86-3.23-.61-.69-1.25-1.34-1.86-2-1.17-1.31-2.35-2.61-3.47-4-.75-.88-1.41-1.84-2.11-2.76-1.25-1.66-2.49-3.33-3.77-5-.73-.94-1.55-1.82-2.32-2.73a3.94,3.94,0,0,0-1.3-1,14.49,14.49,0,0,1-2.74-1.82c-1.81-1.48-3.58-3-5.37-4.5a76.82,76.82,0,0,1-6.21-5.9c-.67-.69-1.38-1.32-2.08-2a1.94,1.94,0,0,0-.47-.34,6.46,6.46,0,0,1-1.89-1.61c-.94-1-1.74-2.18-2.59-3.29-1-1.3-2.06-2.54-3.06-3.84s-2-2.69-3-4c-.57-.77-1.13-1.55-1.72-2.31-1.17-1.53-2.22-3.12-3.24-4.75-.86-1.38-1.78-2.74-2.64-4.13a66.24,66.24,0,0,1-4.24-8.25c-1.42-3.27-2.64-6.59-3.91-9.9-.52-1.35-1.14-2.69-1.75-4-1.33-2.88-2.81-5.69-4.34-8.48-1-1.81-2.05-3.59-3.18-5.34-.92-1.44-1.74-2.95-2.62-4.42-.36-.61-.77-1.21-1.13-1.83-.63-1.1-1.24-2.21-1.83-3.34a6.51,6.51,0,0,1-.42-1.22,3.11,3.11,0,0,0-.59-1.39.5.5,0,0,1,0-.63,1,1,0,0,1,1.27-.5,5.55,5.55,0,0,1,1.36.62,35.07,35.07,0,0,1,5.09,4.05c2.06,1.95,3.94,4.07,5.89,6.11a81.49,81.49,0,0,1,5.57,6.59c1.29,1.68,2.6,3.35,3.85,5.05.87,1.19,1.66,2.44,2.49,3.67,1.07,1.59,2.13,3.18,3.21,4.77L302,63.18c.18.26.36.53.56.78,2.32,3,4.61,6,7,9,1.59,2,3.32,3.77,5,5.65,1.41,1.58,2.82,3.16,4.25,4.71,1.57,1.71,3,3.52,4.49,5.3a35.32,35.32,0,0,1,4.59,7.1,11.51,11.51,0,0,0,.68,1.12,4.06,4.06,0,0,1,.69,1.62c.16.83,0,1.16-.69,1.47C328.41,100,328.28,100,328.13,100.06Z" fill="currentColor"/><path d="M45.31-18.86a1,1,0,0,1,1.2,0,46,46,0,0,1,6.07,3.94c1.48,1.15,3,2.27,4.38,3.5C59.36-9.33,61.74-7.18,64-5a37.61,37.61,0,0,1,3.7,4.18q3.48,4.51,6.79,9.17a78.88,78.88,0,0,1,5.06,7.93,18.92,18.92,0,0,0,2.88,4c1,1,1.88,2.24,2.83,3.34a37.57,37.57,0,0,0,4.19,4.08,19.43,19.43,0,0,1,4,4.94,31.51,31.51,0,0,0,5.91,7.46,38.63,38.63,0,0,1,4.1,4c.71.84,1.58,1.56,2.33,2.37,1.69,1.82,3.42,3.61,5,5.5,2,2.38,3.88,4.83,5.64,7.37,2.46,3.53,4.53,7.28,6.65,11,1.33,2.34,2.48,4.79,3.71,7.18,1.92,3.74,3.61,7.58,5.22,11.46,1,2.46,2.15,4.86,3.23,7.28s2.06,4.7,3.1,7c.21.49.45,1,.7,1.43,1.17,2.18,2.33,4.36,3.53,6.53,1.86,3.37,3.4,6.9,5.1,10.35.64,1.31,1.34,2.59,2,3.9,1.69,3.51,3.38,7,5,10.54.94,2.06,2.16,4,3.19,6a31,31,0,0,0,3.74,5.61c.42.51.92,1,1.34,1.47A24.35,24.35,0,0,1,166.1,154a31.46,31.46,0,0,0,2.35,3.83,24.63,24.63,0,0,0,1.52,2c.54.65,1.15,1.23,1.68,1.87.65.79,1.25,1.6,1.86,2.41a13.68,13.68,0,0,0,.93,1.29,11.91,11.91,0,0,1,1.68,2.38c.66,1.15,1.35,2.29,2,3.46a15.69,15.69,0,0,1,1,2.28,88.18,88.18,0,0,0,5.44,11.8c1.88,3.52,3.83,7,5.9,10.38.66,1.09,1.42,2.13,2.18,3.17,1.86,2.52,3.61,5.14,5.67,7.51,2.61,3,5.26,6,7.88,9a33.36,33.36,0,0,1,4.28,5.88c1,1.74,1.78,3.55,2.58,5.36a4.29,4.29,0,0,1,.18.92l-1.1.65a1.63,1.63,0,0,1-.41-.14,10.34,10.34,0,0,1-1.91-1.83c-1.38-1.59-2.55-3.38-4.48-4.49a19.08,19.08,0,0,1-2.4-1.9,94.22,94.22,0,0,1-7.38-6.73,69.29,69.29,0,0,1-7.91-8.95l-3-4.23c-1.58-2.24-3.13-4.5-4.75-6.71s-3.24-4.32-4.94-6.41c-1.57-1.92-3.24-3.76-4.86-5.63-.44-.5-.89-1-1.29-1.52-1.32-1.72-2.64-3.44-3.91-5.18s-2.71-3.83-4.08-5.73c-1.24-1.72-2.47-3.45-3.79-5.11-2.23-2.81-4.54-5.55-6.77-8.35-1.93-2.42-3.82-4.87-5.71-7.33s-3.92-5.12-5.84-7.72a48.81,48.81,0,0,1-4.79-7.78c-.81-1.72-1.72-3.39-2.63-5.06-.47-.85-1-1.66-1.57-2.46a7.52,7.52,0,0,0-1.76-1.8c-.37-.27-.27-.61.08-.94a2.41,2.41,0,0,1,1.47.56,36.17,36.17,0,0,1,6.31,4.72,12.07,12.07,0,0,1,1.54,1.82c1.27,1.86,2.55,3.72,3.7,5.66a26.72,26.72,0,0,0,5.21,6.16c.69.63,1.33,1.31,2,2s1.2,1.18,1.81,1.75a3.1,3.1,0,0,0,.61.3,2.64,2.64,0,0,0-.13-.82c-1.12-2-2.26-4-3.4-6a8.59,8.59,0,0,1-1.17-2.51,2.64,2.64,0,0,0-.43-.81c-1.61-2.5-3-5.09-4.43-7.71-1.55-2.93-2.86-6-4.35-8.94-.88-1.73-2-3.36-3-5-.8-1.27-1.71-2.47-2.5-3.75-.93-1.5-1.87-3-2.65-4.59a57.13,57.13,0,0,1-2.88-6.26,16.37,16.37,0,0,0-1-2.3c-.75-1.4-1.56-2.77-2.34-4.16a3.78,3.78,0,0,1-.22-.33l-2.43-4.86-3-5.92c-.83-1.66-1.62-3.34-2.48-5a41,41,0,0,0-3.41-5.65,8,8,0,0,1-.51-.78c-1.15-2-2.5-3.95-3.82-5.89-2.43-3.59-5.15-7-7.83-10.38-1.8-2.29-3.71-4.5-5.57-6.75-1.66-2-3.09-4.19-4.58-6.32-.73-1-1.52-2.06-2.32-3.06a28.21,28.21,0,0,1-2.55-3.85c-.7-1.23-1.47-2.42-2.23-3.61-1.58-2.45-3.15-4.91-4.76-7.34-.93-1.4-2-2.74-2.91-4.12-1.46-2.1-2.91-4.22-4.36-6.33-1-1.42-1.94-2.85-2.94-4.26a20.9,20.9,0,0,0-1.31-1.67c-.86-1-1.76-2-2.62-3C60.35.52,58.13-2.12,55.9-4.76,53.13-8,50.34-11.3,47.59-14.59A14.11,14.11,0,0,1,46-16.86,11.2,11.2,0,0,1,45.31-18.86Z" fill="currentColor"/><path d="M250,236.84c-.66-.52-1.19-1-1.77-1.4a19.79,19.79,0,0,1-4.93-5.23,89.42,89.42,0,0,1-5.73-9.79,14.21,14.21,0,0,0-3.48-4.42,35.5,35.5,0,0,1-8.31-10.5c-1.41-2.58-2.45-5.33-3.75-7.95-1-2.08-2.14-4.11-3.24-6.15a17.36,17.36,0,0,0-2.83-3.71,5.87,5.87,0,0,0-2.5-1.58c-.57-.17-.92.09-.93.7a3.12,3.12,0,0,0,.15,1,13.54,13.54,0,0,0,.74,2c.78,1.57,1.61,3.11,2.45,4.64,2,3.61,4.11,7.13,5.84,10.87a92,92,0,0,0,6,11.27q4.36,6.73,9.21,13.12c1.78,2.33,3.52,4.69,5.38,7,1.67,2,3.44,4,5.23,6,2.93,3.2,5.92,6.36,8.62,9.77,1.17,1.48,2.3,3,3.4,4.54a49.29,49.29,0,0,1,2.73,4.14,105.22,105.22,0,0,1,5.29,10.5c.69,1.61,1.49,3.17,2.25,4.74s1.39,2.9,2.11,4.34c.45.88.95,1.74,1.41,2.62,1.28,2.43,2.36,4.95,3.39,7.49.58,1.44,1.2,2.87,1.8,4.31.16.39.27.8.44,1.19a78.7,78.7,0,0,0,3.43,7.47c.42.73.85,1.47,1.33,2.17a22.19,22.19,0,0,1,2.25,3.93c.25.61.64,1.16.94,1.75a4.43,4.43,0,0,1,.2.85,6.69,6.69,0,0,1-.85.24.89.89,0,0,1-1.06-.52,8.44,8.44,0,0,0-2.83-3.3c-.73-.59-1.45-1.2-2.15-1.83a17.47,17.47,0,0,1-3.5-4.6,40.09,40.09,0,0,1-2.69-6.55,41.79,41.79,0,0,0-6.7-12.43c-1-1.35-2-2.75-3-4.11-.65-.87-1.35-1.7-2-2.58-1.24-1.66-2.5-3.32-3.69-5-.78-1.12-1.44-2.33-2.16-3.5-1.28-2.1-2.53-4.21-3.86-6.29-.76-1.19-1.64-2.31-2.45-3.47a4.12,4.12,0,0,0-1.48-1.3,15.23,15.23,0,0,1-3.19-2.34c-2-1.9-4-3.85-6.05-5.77a84.26,84.26,0,0,1-6.85-7.53c-.72-.88-1.51-1.69-2.28-2.52a1.94,1.94,0,0,0-.55-.44,7.06,7.06,0,0,1-2.12-2.06c-1-1.32-1.8-2.77-2.68-4.17-1-1.65-2.15-3.23-3.18-4.87s-2-3.41-3.06-5.11c-.59-1-1.15-2-1.75-2.92a61.64,61.64,0,0,1-3.21-6c-.84-1.75-1.75-3.47-2.57-5.22a68.2,68.2,0,0,1-3.77-10.39c-1.15-4.09-2-8.25-3-12.4-.39-1.7-.92-3.38-1.43-5.05-1.13-3.61-2.46-7.15-3.86-10.66-.91-2.28-1.91-4.53-3-6.73-.9-1.82-1.65-3.72-2.48-5.57-.35-.78-.76-1.53-1.09-2.31-.58-1.39-1.15-2.79-1.67-4.21a7.68,7.68,0,0,1-.3-1.53,3.25,3.25,0,0,0-.47-1.74.62.62,0,0,1,.09-.79,1.53,1.53,0,0,1,1.76-.58,6.87,6.87,0,0,1,1.65.82,36.47,36.47,0,0,1,5.77,5.2c2.28,2.49,4.28,5.18,6.39,7.78a82.08,82.08,0,0,1,5.86,8.37c1.33,2.13,2.68,4.24,4,6.4.89,1.5,1.65,3.08,2.47,4.63,1,2,2.1,4,3.17,6q1.26,2.38,2.54,4.75c.18.33.36.67.56,1,2.4,3.79,4.73,7.63,7.23,11.37,1.65,2.47,3.52,4.8,5.31,7.18,1.5,2,3,4,4.54,6,1.68,2.17,3.17,4.47,4.73,6.72a37,37,0,0,1,4.48,9,8.54,8.54,0,0,0,.65,1.41,4.41,4.41,0,0,1,.55,2,1.54,1.54,0,0,1-1.22,1.8C250.41,236.74,250.23,236.78,250,236.84Z" fill="currentColor"/><path d="M61.59,39.17a1.44,1.44,0,0,1,1.22.64c1.51,1.88,3,3.8,4.57,5.61a18.53,18.53,0,0,1,2.56,3.52,28.72,28.72,0,0,0,2.31,3.22c1.93,2.69,3.89,5.35,5.77,8.06,1.22,1.75,2.28,3.6,3.49,5.35s2.45,3.36,3.72,5S88,74,89.35,75.81c1.89,2.49,3.77,5,5.43,7.63s3.41,5.34,5.08,8c2.57,4.14,4.78,8.48,7.1,12.76,1,1.88,2,3.77,3.05,5.61.94,1.64,2,3.23,3,4.83q2.25,3.52,4.54,7c.65,1,1.33,2,2,2.91q2.67,3.68,5.12,7.49c2.52,3.89,4.76,7.94,7.07,12,1.86,3.24,3.76,6.46,5.66,9.67,1.16,2,2.3,3.92,3.54,5.83q3.31,5.12,6.74,10.16a56.34,56.34,0,0,0,3.5,4.64,48.36,48.36,0,0,0,5.47,5.14,24,24,0,0,1,3.72,3.88,2.18,2.18,0,0,0,.35.45,30.74,30.74,0,0,1,4.05,4.91c.84,1.08,1.63,2.2,2.43,3.31,1.06,1.46,2.07,2.94,3.17,4.36.89,1.16,1.87,2.25,2.84,3.35,2.79,3.15,5.4,6.45,7.95,9.8,1.49,1.95,3.05,3.85,4.59,5.78,1,1.21,1.92,2.45,2.93,3.64,2,2.31,3.95,4.59,5.91,6.89,1.16,1.37,2.28,2.78,3.44,4.15q2.43,2.87,5.12,5.49c3.19,3.1,6.74,5.78,10.16,8.62q4.19,3.49,8.27,7.13a53,53,0,0,0,5.77,4.58,45.81,45.81,0,0,1,7.29,6.69,1,1,0,0,1,.3,1.16.57.57,0,0,1-.81.3,3.3,3.3,0,0,1-.53-.46,5,5,0,0,0-2.5-1.54,3.69,3.69,0,0,1-1.37-.72c-1-.8-2.12-1.56-3.19-2.33a49.41,49.41,0,0,1-4.16-3.2c-1.88-1.65-3.92-3.12-5.77-4.8a69.91,69.91,0,0,0-7.55-5.75,37.93,37.93,0,0,1-5.77-4.79,101.35,101.35,0,0,0-9.44-8.37c-2.43-1.94-4.88-3.87-7.26-5.88a50.18,50.18,0,0,1-6-6.07c-1.34-1.6-2.72-3.15-4-4.76-1.14-1.39-2.21-2.83-3.34-4.23-1.42-1.77-2.71-3.64-4-5.5s-2.57-3.52-3.89-5.24c-1-1.27-2-2.5-3.05-3.73a4.72,4.72,0,0,0-.76-.61c-.07.17-.14.26-.12.31a36.4,36.4,0,0,1,1.82,6.69c.53,2.44.88,4.92,1.34,7.38.55,2.92.9,5.88,1.29,8.83a59.39,59.39,0,0,0,1.87,10.16,23.79,23.79,0,0,0,2.39,5.59c.5.8.9,1.66,1.44,2.44,1,1.4,2,2.76,3,4.14.11.15.28.3.3.47a.9.9,0,0,1-.12.65.72.72,0,0,1-.61.22,6.4,6.4,0,0,1-2.38-1.21c-1.18-1.09-2.44-2.1-3.58-3.23a43.54,43.54,0,0,1-6.35-8,45.17,45.17,0,0,1-4.69-11.07c-1.63-5.53-3.24-11.06-4.92-16.58-1.36-4.47-2.79-8.93-4.24-13.37a68.4,68.4,0,0,0-3.11-7.77c-1.59-3.44-3.55-6.67-5.38-10-.66-1.2-1.41-2.35-2.14-3.51-2.27-3.66-4.29-7.45-6.26-11.28-.91-1.77-1.83-3.53-2.73-5.3-.47-.93-.88-1.89-1.39-2.79-1.92-3.32-3.47-6.83-5.17-10.26-1.05-2.12-2.06-4.25-3.15-6.35a88.1,88.1,0,0,0-5.27-8.74c-1-1.45-1.89-3-2.83-4.42-1.17-1.83-2.33-3.66-3.52-5.49-1.39-2.13-2.77-4.28-4.21-6.39a54,54,0,0,1-3-5.59,96.12,96.12,0,0,0-5.56-10c-1.5-2.18-2.84-4.47-4.28-6.68-2.13-3.25-4.37-6.41-6.76-9.46-1.64-2.08-3.1-4.29-4.64-6.44-1-1.43-2-2.84-3.06-4.26-1.18-1.65-2.39-3.29-3.53-5a8.44,8.44,0,0,1-.93-2,15.31,15.31,0,0,0-1.37-3.1c-1-1.69-2-3.3-3.1-4.91-1.42-2.12-2.73-4.32-4.06-6.5a4,4,0,0,1-.75-2.81A5.15,5.15,0,0,0,61.59,39.17Z" fill="currentColor"/><path d="M48.85,23.28c.16.31.25.51.36.7,2.18,3.72,4.17,7.53,6.1,11.38,1.4,2.78,2.93,5.51,4.33,8.3.93,1.85,1.73,3.77,2.59,5.67,1.07,2.37,2.12,4.75,3.2,7.12s2.17,4.72,3.29,7.07c.62,1.32,1.34,2.6,2,3.92q2,4.08,3.92,8.17c.85,1.8,1.71,3.59,2.54,5.39,1,2.15,1.91,4.32,2.91,6.45,1.19,2.58,2.24,5.21,3.25,7.86,1.34,3.54,2.59,7.11,3.6,10.76.58,2.09,1.21,4.17,1.8,6.26.79,2.78,1.54,5.56,2.36,8.32.34,1.13.85,2.2,1.28,3.3.08.22.19.44.26.66a18.66,18.66,0,0,0,2.95,5.79c.44.55.34.74-.5,1.11a3.44,3.44,0,0,1-1-1.08,34.4,34.4,0,0,1-4.34-8.11c-.26-.75-.65-1.46-1-2.2-.74-1.74-1.44-3.5-2.21-5.23-1.17-2.63-2.26-5.31-3.6-7.86-2-3.84-3.84-7.78-5.9-11.6-1.91-3.53-3.92-7-5.86-10.53-1.42-2.57-2.83-5.14-4.2-7.73-1.09-2-2.1-4.14-3.18-6.18-.82-1.55-1.69-3.07-2.58-4.58A74.46,74.46,0,0,1,57,57.77a37.76,37.76,0,0,0-1.78-3.39c-1.75-3.19-3.75-6.24-5.63-9.36-2.25-3.72-4.69-7.32-7-11-2-3.22-3.74-6.57-5.46-9.94a143.08,143.08,0,0,0-6.94-12.54,13,13,0,0,1-.77-1.35,25.2,25.2,0,0,0-3.76-5.49A35.07,35.07,0,0,0,21.92.77C21.39.3,20.84-.15,20.31-.62c-.36-.31-.71-.62-1-.95a1,1,0,0,1-.28-.9c.05-.28.08-.57.13-.85a1.23,1.23,0,0,1,1.15-1.07,7.13,7.13,0,0,1,3.63.32,27.39,27.39,0,0,1,5.17,2.92c2.36,1.66,4.65,3.42,7,5.07,2.83,2,5.57,4.07,8.51,5.88,3.42,2.11,6.82,4.26,10.06,6.64A58.78,58.78,0,0,1,63.42,24c.89,1,1.79,1.95,2.65,3a83.42,83.42,0,0,0,6.21,6.41,121.6,121.6,0,0,0,11.34,9.18,38.6,38.6,0,0,1,7.46,7.32,73.79,73.79,0,0,1,6.24,9.64c2.66,4.74,5.15,9.58,7.81,14.32,1.94,3.46,4.07,6.82,6.05,10.26,1.37,2.38,2.66,4.8,3.91,7.24a108.21,108.21,0,0,1,4.2,10.23c1,2.64,2.2,5.23,3.34,7.83.67,1.51,1.38,3,2.15,4.46.57,1.09,1.27,2.11,1.91,3.16a2.87,2.87,0,0,1,.36.75.55.55,0,0,1-.2.48.61.61,0,0,1-.5.12,1.26,1.26,0,0,1-.59-.37,33,33,0,0,1-3.38-4c-1.71-2.67-3.52-5.27-5.23-7.92a32.7,32.7,0,0,1-1.94-3.47c-1-2-2.26-3.92-3.45-5.86-1.06-1.73-2-3.52-3-5.28l-2.56-4.41c-1.62-2.83-3.2-5.69-4.87-8.49-1.12-1.87-2.32-3.68-3.55-5.47-2.72-4-5.57-7.86-8.59-11.63-2.19-2.74-4.61-5.24-7-7.77a109.23,109.23,0,0,1-7.43-8.36A74.29,74.29,0,0,0,68,37.68c-1.39-1.35-2.72-2.75-4.1-4.11-.57-.56-1.19-1.07-1.8-1.6s-1.4-1.26-2.13-1.87a13.89,13.89,0,0,0-1.88-1.48,34.59,34.59,0,0,0-3.51-1.85,15.81,15.81,0,0,1-4.64-3A1.52,1.52,0,0,0,48.85,23.28Z" fill="currentColor"/><path d="M37.07,168.52c.85,1.44,1.64,2.83,2.48,4.18A39.29,39.29,0,0,0,45,179.76c2.05,2,4.05,4.12,6.21,6,1.7,1.51,3.43,3,5.08,4.52,1.33,1.25,2.58,2.58,3.83,3.9.45.47.81,1,1.22,1.55.29-.16.23-.4.2-.61-.16-1-.28-2-.51-3-.76-3.25-1.48-6.51-2.38-9.73-.73-2.6-1.66-5.16-2.57-7.71-1.07-3-2.15-6-3.44-9C51,161.85,49,158.1,47,154.37c-1.1-2.09-2.14-4.2-3.24-6.29-.58-1.1-1.19-2.19-1.83-3.26-2.67-4.47-5.38-8.91-8.27-13.24-1.64-2.44-3.33-4.84-5-7.27-1.42-2.1-2.82-4.22-4.23-6.32-2.5-3.74-4.56-7.74-6.85-11.6-.45-.77-.95-1.51-1.36-2.29q-1.66-3.19-3.27-6.41c-.66-1.32-1.28-2.65-1.89-4a6.9,6.9,0,0,1-.42-1.26.52.52,0,0,1,.29-.67c.15,0,.38.13.57.23s.1.14.15.21.26.37.37.56c.66,1.11,1.28,2.24,2,3.33,1.82,2.9,3.64,5.81,5.52,8.67,1.3,2,2.72,3.85,4.09,5.76.75,1,1.51,2.09,2.29,3.12.34.46.72.9,1.1,1.33,1.38,1.57,2.77,3.12,4.15,4.69,1.69,1.94,3.4,3.88,5.06,5.85,2.36,2.83,4.7,5.69,7,8.55.73.9,1.34,1.89,2,2.82s1.28,1.7,1.92,2.55c1.23,1.64,2.53,3.23,3.69,4.91a90.29,90.29,0,0,1,6,9.44c.47.91,1.05,1.76,1.52,2.66.8,1.53,1.57,3.08,2.34,4.63A88.06,88.06,0,0,1,64.62,171a90.78,90.78,0,0,1,2.89,10.26c.45,2,1,4.05,1.45,6.09.81,3.69,1.57,7.39,2.35,11.08.33,1.57.67,3.13,1,4.7.52,2.43,1.06,4.86,1.56,7.3.75,3.66,1.65,7.29,2.56,10.91A53.87,53.87,0,0,0,78,226.73c.52,1.41.86,2.89,1.33,4.32s1,3.12,1.58,4.68c.83,2.44,1.59,4.9,2.52,7.3.82,2.11,1.77,4.18,2.77,6.21.9,1.84,1.93,3.61,3,5.39a42,42,0,0,0,4.4,6.18,25,25,0,0,1,1.54,2c.33.5.15.9-.39,1.18a2.21,2.21,0,0,1-2.71-.32,4.06,4.06,0,0,1-.5-.43c-1.33-1.5-2.7-3-3.94-4.52s-2.15-3-3.15-4.48c-.65-1-1.15-2.1-1.75-3.14-2.2-3.82-4.28-7.7-6.31-11.61-1.08-2.09-2.2-4.17-3.24-6.28-1.25-2.51-2.43-5-3.66-7.57-.7-1.43-1.45-2.85-2.19-4.27-.91-1.73-1.81-3.47-2.74-5.19a89,89,0,0,0-7.64-11.73c-1.14-1.49-2.34-2.92-3.44-4.43-1.25-1.73-2.44-3.51-3.61-5.29-2-3-4-6-5.83-9.11-1.3-2.12-2.43-4.35-3.62-6.53s-2.12-4.51-3.17-6.77c-.32-.68-.59-1.39-.85-2.1a1.58,1.58,0,0,1-.06-1.17A.72.72,0,0,1,37.07,168.52Z" fill="currentColor"/><path d="M239.55,175a2.34,2.34,0,0,1-2.62-.83,7.49,7.49,0,0,1-.76-.84c-1.17-1.74-2.74-3.13-4-4.75-.67-.85-1.21-1.8-1.88-2.66-2.14-2.76-4.28-5.53-6.57-8.17-1.06-1.21-2-2.48-3.05-3.74-1.6-2-3.17-4-4.79-6-1.17-1.42-2.41-2.79-3.58-4.21s-2.52-3.07-3.7-4.66c-1.42-1.9-3.07-3.6-4.65-5.35-1.4-1.54-2.83-3-4.26-4.56-1.2-1.27-2.47-2.48-3.64-3.78-1.68-1.85-3.31-3.76-4.95-5.65-1-1.18-2-2.38-3-3.57-.24-.29-.48-.59-.69-.9-2.4-3.51-4.77-7-7.19-10.55-.95-1.35-2-2.65-3-3.93-1.32-1.61-2.65-3.21-4-4.75-1.9-2.1-3.88-4.12-5.82-6.19a34.1,34.1,0,0,1-3-3.79c-2.5-3.57-4.57-7.41-6.83-11.12a34.05,34.05,0,0,1-1.73-3.72q-1.29-2.84-2.57-5.69a24.6,24.6,0,0,1-2.08-6,3,3,0,0,1,0-1.11,1,1,0,0,1,1.81-.52,9.62,9.62,0,0,1,2,2.93q.6,1.36,1.11,2.76c1,2.8,2.29,5.5,3.6,8.18a9.48,9.48,0,0,0,1.74,2.57c2.31,2.31,4.52,4.71,6.89,6.94a41.62,41.62,0,0,0,4.75,3.8c2.12,1.49,4.14,3.14,6.19,4.73,1,.78,2,1.58,3,2.41.68.58,1.3,1.23,2,1.85l1.07,1.07a5,5,0,0,0-.19-.88c-.58-1.14-1.1-2.31-1.78-3.39-.78-1.23-1.73-2.37-2.56-3.57q-2.66-3.85-5.26-7.74c-.89-1.34-1.78-2.68-2.57-4.08a88.24,88.24,0,0,1-7.39-15.93c-.33-1-.69-2.06-1.08-3.08-.2-.52-.49-1-.72-1.53-.35-.77-.66-1.57-1-2.33a12,12,0,0,0-1-1.7c-.66-.93-1.38-1.8-2.05-2.72a14.43,14.43,0,0,1-1.75-3.7,1.86,1.86,0,0,1,.05-1.39,1.13,1.13,0,0,1,1.75-.48,4,4,0,0,1,.79,1c1.19,1.87,2.36,3.75,3.54,5.62.71,1.12,1.4,2.25,2.14,3.35.58.86,1.2,1.69,1.81,2.53,1.35,1.87,2.65,3.79,4.07,5.61,1.53,2,3.19,3.86,4.75,5.82,1.41,1.77,2.8,3.58,4.13,5.41s2.68,3.78,3.94,5.72c1,1.58,1.94,3.24,2.9,4.87.07.12.11.25.19.37a52,52,0,0,1,4.46,8.36c.86,1.84,1.75,3.67,2.61,5.51.66,1.42,1.29,2.85,1.94,4.27l2.55,5.54c.45,1,.91,2,1.36,3,1.66,3.67,3.52,7.23,5.51,10.72,1.88,3.28,3.91,6.48,5.77,9.77,1.66,2.93,3.7,5.59,5.63,8.33.84,1.2,1.83,2.29,2.75,3.43,2.67,3.31,5.41,6.57,7.81,10.08,1.49,2.18,3,4.39,4.3,6.67a98.57,98.57,0,0,1,4.93,9.24c.28.6.62,1.18.95,1.75a14.81,14.81,0,0,1,1.26,3.15A3,3,0,0,1,239.55,175Z" fill="currentColor"/><path d="M109.05,167.77c-.35.28-.18.52-.13.77.29,1.41.59,2.82.86,4.24.17.86.24,1.75.43,2.6a37.45,37.45,0,0,0,3.69,9.86c.85,1.56,1.74,3.09,2.64,4.62,1.67,2.87,3.33,5.76,4.73,8.8.7,1.54,1.51,3,2.32,4.51a80.33,80.33,0,0,1,5,11.16c1,2.9,2.09,5.8,3.19,8.68a50.4,50.4,0,0,0,3,6.36c1.15,2.09,2.21,4.22,3.34,6.32,1.38,2.56,2.75,5.11,4.19,7.63s3.05,5.14,4.58,7.7c1,1.75,2.07,3.51,3.16,5.23,1.24,2,2.54,3.92,3.81,5.89a62.15,62.15,0,0,0,4.32,6c.55.66,1.16,1.28,1.73,1.94s1,1.28,1.58,1.89a12.86,12.86,0,0,0,1.42,1.34c1,.78,2,1.56,3,2.28s2,1.26,3,1.88c.37.23.77.42,1.12.68a.47.47,0,0,1,.11.46.61.61,0,0,1-.39.33,1.5,1.5,0,0,1-.79-.08c-.48-.22-.91-.52-1.39-.76-1.58-.79-3.18-1.54-4.75-2.35-.86-.44-1.68-.95-2.51-1.44a48.63,48.63,0,0,1-8.29-6c-.83-.76-1.73-1.46-2.61-2.17a37.82,37.82,0,0,1-5.36-5.67c-1.52-1.89-3.16-3.69-4.8-5.47-1.94-2.11-3.89-4.2-5.84-6.3-.82-.89-1.6-1.82-2.46-2.68a16.54,16.54,0,0,1-2.1-3c-.64-1-1.26-2.07-2-3.06a65,65,0,0,1-4.21-6.71,40.35,40.35,0,0,1-2-3.79c-.8-2-1.45-4-2.13-6a5.64,5.64,0,0,1-.25-1.42,59.3,59.3,0,0,0-1.6-8.92,32,32,0,0,0-1.69-5.63c-.5-1.2-1.1-2.35-1.62-3.55s-1.14-2.62-1.64-4c-.7-1.87-1.26-3.81-2-5.64-.93-2.21-1.44-4.57-2.17-6.84q-.9-2.79-1.79-5.6c-.94-3-1.86-6-2.82-9-.84-2.62-1.44-5.31-2.06-8-.11-.47-.18-.95-.25-1.42q-.87-5.54-1.72-11.06a48.8,48.8,0,0,1-.43-6.74,1.8,1.8,0,0,1,.28-1.16.62.62,0,0,1,.95-.11,4.93,4.93,0,0,1,.52.89c.24.6.41,1.24.67,1.83a5.57,5.57,0,0,0,.75,1.21c1.4,1.7,2.84,3.38,4.25,5.08a96.89,96.89,0,0,1,6.39,8.68c1.28,2,2.49,4,3.65,6a73.21,73.21,0,0,1,4.53,8.92c.4,1,.87,2,1.35,3a38.5,38.5,0,0,1,1.94,5.12c.35,1.07.52,2.21.77,3.32a.65.65,0,0,1,0,.39.85.85,0,0,1-.37.38.57.57,0,0,1-.5-.07,4.55,4.55,0,0,1-.58-.85c-1.31-2.34-2.57-4.71-3.93-7q-2.26-3.87-4.67-7.64A22,22,0,0,0,112.2,171c-.9-1-1.85-2-2.78-2.92A3.47,3.47,0,0,0,109.05,167.77Z" fill="currentColor"/><path d="M305.73,219.81l2.68,5.86a18.15,18.15,0,0,1,1.18,4.36c.28,1.53.53,3.06.77,4.6.15.93.27,1.87.39,2.81.41,3.13-8.5.42-9.9-3.15s-2.92-7.38-4.46-11c-1.09-2.61-2.32-5.17-3.48-7.76q-2.32-5.17-5.11-10.12c-1.58-2.81-3.31-5.51-5.08-8.2a31.46,31.46,0,0,0-2-2.71c-1.36-1.62-2.63-3.33-3.92-5-.75-1-1.45-2-2.16-3q-2.67-3.76-5.32-7.54a10.87,10.87,0,0,0-.78-1c-1.62-1.78-3.28-3.52-5.08-5.14-1.54-1.39-3-2.84-4.55-4.26a1.89,1.89,0,0,1-.2-.2c-.22-.27-.39-.54-.2-.9a.64.64,0,0,1,.86-.29,16.51,16.51,0,0,1,2.33,1,31.33,31.33,0,0,1,9.22,8.28c.73.93,1.49,1.83,2.18,2.78.52.73,1,1.51,1.45,2.27.61,1,1.17,1.95,1.85,2.85s1.45,1.75,2.2,2.59a43.8,43.8,0,0,0,5.06,5c1,.77,1.93,1.53,2.95,2.21,3.69,2.48,7.24,5.14,10.75,7.87C298.66,203,300,204,301.39,205a26.44,26.44,0,0,1,5,5.16c1.4,1.84,2.66,3.79,4,5.66,1.11,1.53,2.22,3.06,3.44,4.51s2.51,2.69,3.77,4c.58.63,1.15,1.25,1.7,1.9,1.14,1.33,2.27,2.66,3.38,4,.72.88,1.43,1.76,2.08,2.69,1.22,1.74,2.47,3.47,3.57,5.29s2,3.74,3,5.61a1.9,1.9,0,0,1,0,1.89,1,1,0,0,1-1.3.49,6,6,0,0,0-1.07-.28,6.91,6.91,0,0,1-1.83-.72c-.94-.54-1.82-1.18-2.73-1.78a21.47,21.47,0,0,1-4.3-3.88,46.87,46.87,0,0,1-5.86-8.52c-.81-1.5-1.59-3-2.42-4.5a21,21,0,0,0-4.73-6A2.47,2.47,0,0,0,305.73,219.81Z" fill="currentColor"/><path d="M180.5,155.3c-.58.26-1.05.48-1.52.68a1.18,1.18,0,0,1-1.71-.49,9.11,9.11,0,0,1-1.4-2.93,45.84,45.84,0,0,0-4-10.89,22.84,22.84,0,0,0-4.48-6,36.37,36.37,0,0,1-6-7.66,32,32,0,0,1-3.11-6.36,67.13,67.13,0,0,1-2.68-9.69c-.31-1.76-.65-3.53-1.07-5.27a38.64,38.64,0,0,1-.89-7c-.08-1.56-.19-3.11-.27-4.67a5.29,5.29,0,0,0-1-2.89,11.31,11.31,0,0,0-2.52-2.65A21,21,0,0,1,147.24,87c-2.07-2.07-4.09-4.2-6.29-6.14a13.48,13.48,0,0,1-2.33-2.66c-.88-1.33-1.88-2.6-2.82-3.9a47,47,0,0,1-3.12-5.24c-.53-1-1.08-1.88-1.68-2.79a7.39,7.39,0,0,0-1.26-1.52A34,34,0,0,1,126.16,61a69.48,69.48,0,0,0-5.85-6.16,3.28,3.28,0,0,1-.62-.77c-1-1.62-2-3.22-2.87-4.89A14.35,14.35,0,0,1,116,46.6a.94.94,0,0,1,0-.55.69.69,0,0,1,.33-.41.58.58,0,0,1,.48.16A27.22,27.22,0,0,0,122,50.7c1.51,1.14,2.94,2.38,4.39,3.59,3.3,2.75,6.61,5.49,9.88,8.28a39.32,39.32,0,0,1,3.79,3.62c1.39,1.54,2.62,3.22,3.91,4.85a57.14,57.14,0,0,1,5.12,8.49,125.1,125.1,0,0,0,6.8,11c1.17,1.71,2.32,3.45,3.4,5.23a76.92,76.92,0,0,1,4.62,8.46c.84,1.85,1.62,3.73,2.3,5.64,1.58,4.45,3,9,4.64,13.39,1.51,4.13,3,8.27,4.76,12.3,1.17,2.63,2.2,5.33,3.2,8a35.45,35.45,0,0,1,1.8,8.15A15.54,15.54,0,0,1,180.5,155.3Z" fill="currentColor"/><path d="M108.28,321.63a5.24,5.24,0,0,1-.65-.81c-.84-1.57-1.64-3.15-2.46-4.73A30.76,30.76,0,0,0,98,307.25c-1.52-1.33-3-2.72-4.52-4.06a30.74,30.74,0,0,1-4.39-5.1,88,88,0,0,1-6.87-11.32q-3.29-6.37-6.25-12.89c-1.12-2.44-2.12-4.93-3.18-7.4a115.78,115.78,0,0,0-5.3-11.29,44.87,44.87,0,0,0-4-5.7c-.53-.66-1.11-1.28-1.62-2-2.11-2.85-4.24-5.67-6.28-8.58s-4.07-6.12-6.15-9.15c-1.32-1.92-2.74-3.76-4.11-5.64-.33-.45-.65-.89-1-1.34a52.47,52.47,0,0,0-3.8-4.93,28.79,28.79,0,0,1-4.37-6.09,25.57,25.57,0,0,1-1-2.35,2.12,2.12,0,0,1,.06-1.63c.38-.88,1.18-1,2-.31a9.29,9.29,0,0,1,1.58,1.73,32.36,32.36,0,0,0,4.55,5.19c2.15,2.08,4.27,4.22,6.46,6.25a145.8,145.8,0,0,1,13.55,14.6c1.58,1.92,3,4,4.46,6a127.54,127.54,0,0,1,7,11.43q3,5.37,5.56,11c2.94,6.58,5.89,13.16,8.79,19.76a86,86,0,0,0,4.62,9.39c1.09,1.84,2.31,3.61,3.49,5.4,2.2,3.33,4.34,6.7,6.26,10.19a105.78,105.78,0,0,1,4.74,9.54,11.48,11.48,0,0,1,.55,1.72A1.61,1.61,0,0,1,108.28,321.63Z" fill="currentColor"/><path d="M44.66,100.06c-.57-.41-1-.78-1.53-1.09a18.94,18.94,0,0,1-4.44-4.09A89,89,0,0,1,33,87.15a13.6,13.6,0,0,0-3.24-3.48,34.66,34.66,0,0,1-7.71-8.26c-1.42-2-2.56-4.22-3.9-6.29-1.06-1.65-2.18-3.26-3.28-4.87a16.35,16.35,0,0,0-2.65-2.92,5.22,5.22,0,0,0-2.11-1.21c-.46-.13-.69.09-.61.58a3,3,0,0,0,.23.77,15,15,0,0,0,.83,1.59c.8,1.23,1.64,2.45,2.48,3.67,2,2.85,4.06,5.63,5.88,8.59a87.81,87.81,0,0,0,6,8.92c2.8,3.54,5.71,7,8.74,10.34,1.66,1.83,3.3,3.69,5,5.47,1.54,1.61,3.15,3.15,4.77,4.68,2.66,2.51,5.35,5,7.86,7.66,1.08,1.16,2.15,2.36,3.19,3.57s1.81,2.13,2.62,3.26c1.92,2.7,3.76,5.46,5.42,8.32.73,1.28,1.55,2.51,2.33,3.76s1.44,2.3,2.18,3.43c.46.71.95,1.38,1.42,2.08,1.29,1.92,2.45,3.92,3.57,5.94.63,1.14,1.29,2.27,1.93,3.42.18.31.32.64.5.94,1.17,2,2.24,4,3.59,5.92.42.59.85,1.17,1.3,1.72a21.32,21.32,0,0,1,2.24,3.11c.27.48.64.91.94,1.38a4,4,0,0,1,.27.68,5.69,5.69,0,0,1-.62.21.78.78,0,0,1-.88-.39,8,8,0,0,0-2.58-2.59c-.64-.46-1.27-.94-1.89-1.43a16.84,16.84,0,0,1-3.27-3.62,38.51,38.51,0,0,1-2.91-5.2A41.26,41.26,0,0,0,64,137.07c-1-1.06-1.9-2.16-2.86-3.23-.61-.69-1.25-1.34-1.86-2-1.17-1.31-2.35-2.61-3.48-4-.74-.88-1.41-1.84-2.1-2.76-1.26-1.66-2.49-3.33-3.77-5-.74-.94-1.56-1.82-2.33-2.73a3.84,3.84,0,0,0-1.3-1,14.82,14.82,0,0,1-2.74-1.82c-1.8-1.48-3.57-3-5.37-4.5a78.51,78.51,0,0,1-6.21-5.9c-.66-.69-1.37-1.32-2.07-2a2,2,0,0,0-.48-.34,6.55,6.55,0,0,1-1.88-1.61c-.94-1-1.74-2.18-2.59-3.29-1-1.3-2.07-2.54-3.07-3.84s-2-2.69-3-4c-.57-.77-1.13-1.55-1.71-2.31C16,85.23,14.94,83.64,13.92,82c-.87-1.38-1.79-2.74-2.64-4.13A64.92,64.92,0,0,1,7,69.63C5.62,66.36,4.4,63,3.13,59.73,2.61,58.38,2,57,1.37,55.72,0,52.84-1.44,50-3,47.24q-1.48-2.72-3.17-5.34c-.93-1.44-1.75-2.95-2.62-4.42-.37-.61-.78-1.21-1.13-1.83-.63-1.1-1.25-2.21-1.83-3.34a7.35,7.35,0,0,1-.43-1.22,3.11,3.11,0,0,0-.59-1.39.5.5,0,0,1,0-.63,1,1,0,0,1,1.27-.5,5.55,5.55,0,0,1,1.36.62A36.18,36.18,0,0,1-5,33.24C-3,35.19-1.12,37.31.84,39.35A81.37,81.37,0,0,1,6.4,45.94C7.69,47.62,9,49.29,10.26,51c.87,1.19,1.66,2.44,2.48,3.67L16,59.43l2.57,3.75c.18.26.36.53.55.78,2.33,3,4.61,6,7,9,1.58,2,3.31,3.77,5,5.65,1.41,1.58,2.81,3.16,4.25,4.71,1.56,1.71,3,3.52,4.49,5.3a35.32,35.32,0,0,1,4.59,7.1,8.57,8.57,0,0,0,.68,1.12,4.37,4.37,0,0,1,.69,1.62c.15.83,0,1.16-.7,1.47C45,100,44.81,100,44.66,100.06Z" fill="currentColor"/><path d="M143.05,222.15a1.4,1.4,0,0,1,1.14.64c1.43,1.82,2.83,3.67,4.33,5.43a19.15,19.15,0,0,1,2.44,3.4,30.17,30.17,0,0,0,2.2,3.11c1.84,2.59,3.71,5.17,5.51,7.78,1.16,1.69,2.19,3.47,3.34,5.15s2.33,3.25,3.54,4.85,2.64,3.35,3.92,5.06c1.79,2.41,3.58,4.81,5.18,7.37s3.27,5.14,4.87,7.73c2.46,4,4.61,8.15,6.85,12.26,1,1.8,1.93,3.62,2.95,5.39.9,1.57,1.88,3.11,2.85,4.65q2.16,3.39,4.35,6.77c.62.95,1.28,1.88,1.94,2.8q2.53,3.54,4.9,7.22c2.4,3.76,4.57,7.65,6.8,11.51,1.79,3.12,3.62,6.21,5.45,9.31,1.11,1.87,2.21,3.76,3.39,5.6q3.18,4.94,6.46,9.8c1,1.54,2.15,3,3.33,4.48a49.72,49.72,0,0,0,5.14,5,24.1,24.1,0,0,1,3.51,3.77,2.44,2.44,0,0,0,.33.43,30.9,30.9,0,0,1,3.84,4.76c.8,1.05,1.56,2.13,2.32,3.2,1,1.4,2,2.84,3,4.21.85,1.12,1.78,2.18,2.69,3.25,2.64,3.06,5.12,6.25,7.55,9.49,1.42,1.89,2.9,3.73,4.36,5.59.92,1.18,1.83,2.37,2.78,3.53,1.85,2.23,3.74,4.44,5.6,6.68,1.1,1.32,2.16,2.69,3.26,4q2.31,2.78,4.84,5.34c3,3,6.32,5.65,9.52,8.44q3.93,3.42,7.76,7a56.24,56.24,0,0,0,5.41,4.49,45.48,45.48,0,0,1,6.85,6.53,1,1,0,0,1,.31,1.1.49.49,0,0,1-.73.27,3.1,3.1,0,0,1-.5-.46,5.07,5.07,0,0,0-2.33-1.52,3.75,3.75,0,0,1-1.27-.72c-1-.79-2-1.54-3-2.3-1.32-1-2.65-2-3.88-3.14-1.77-1.62-3.67-3.07-5.42-4.71a70.73,70.73,0,0,0-7.06-5.65,38.17,38.17,0,0,1-5.41-4.68,100.62,100.62,0,0,0-8.86-8.18c-2.28-1.91-4.57-3.8-6.8-5.77a51.52,51.52,0,0,1-5.62-5.91c-1.26-1.54-2.57-3.06-3.82-4.61-1.08-1.35-2.11-2.74-3.17-4.09-1.36-1.72-2.58-3.52-3.82-5.32s-2.44-3.39-3.7-5.06c-.94-1.23-1.92-2.42-2.89-3.62a5.55,5.55,0,0,0-.72-.59c0,.15-.12.24-.1.29a36.81,36.81,0,0,1,1.86,6.37c.55,2.32.94,4.68,1.44,7,.59,2.78,1,5.58,1.42,8.38a60.51,60.51,0,0,0,2,9.66,24.47,24.47,0,0,0,2.34,5.35c.48.77.88,1.6,1.38,2.35.92,1.35,1.89,2.67,2.84,4a1.24,1.24,0,0,1,.29.45.89.89,0,0,1-.09.61.62.62,0,0,1-.56.18,6.29,6.29,0,0,1-2.21-1.2c-1.1-1.07-2.28-2.05-3.36-3.16a45.12,45.12,0,0,1-6-7.7,46.55,46.55,0,0,1-4.6-10.6c-1.65-5.27-3.28-10.54-5-15.8-1.38-4.27-2.81-8.52-4.26-12.77a72.36,72.36,0,0,0-3.06-7.42c-1.56-3.3-3.44-6.41-5.21-9.59-.64-1.15-1.36-2.26-2.05-3.38-2.19-3.52-4.14-7.17-6.05-10.84-.88-1.69-1.77-3.39-2.64-5.08-.46-.89-.86-1.82-1.36-2.68-1.85-3.19-3.36-6.55-5-9.84-1-2-2-4.08-3.06-6.1a88.32,88.32,0,0,0-5.07-8.4c-.93-1.4-1.81-2.84-2.71-4.26q-1.68-2.66-3.37-5.29c-1.33-2.06-2.66-4.12-4-6.16a56,56,0,0,1-2.95-5.37,96.59,96.59,0,0,0-5.37-9.64c-1.43-2.1-2.72-4.3-4.11-6.44-2-3.12-4.17-6.17-6.45-9.12-1.55-2-2.94-4.15-4.41-6.23l-2.92-4.11c-1.13-1.6-2.28-3.17-3.37-4.8a8.42,8.42,0,0,1-.91-2,15.73,15.73,0,0,0-1.34-3c-.93-1.62-1.94-3.18-3-4.73-1.35-2-2.62-4.16-3.89-6.26a4.06,4.06,0,0,1-.77-2.68A5.41,5.41,0,0,0,143.05,222.15Z" fill="currentColor"/><path d="M81.51,178.72a1,1,0,0,1,1.3.19,13.35,13.35,0,0,1,1.43,1.48,31,31,0,0,1,2.43,3.66,69.28,69.28,0,0,1,5.16,11c1.12,3,2.25,6,3.35,9.08,1.17,3.24,2.09,6.54,3,9.84.69,2.43,1.43,4.85,2.19,7.27q2.1,6.69,4.77,13.22c.77,1.87,1.46,3.77,2.27,5.63.69,1.58,1.49,3.11,2.24,4.67A46.33,46.33,0,0,0,112,249a7.68,7.68,0,0,0,.66,1c2.84,3.35,5.66,6.71,8.55,10,1.15,1.33,2.47,2.51,3.67,3.79,2.3,2.45,4.82,4.63,7.26,6.9,1.48,1.37,3.05,2.61,4.61,3.87s3,2.39,4.54,3.51a24.45,24.45,0,0,0,6.14,3.43c2.26.82,4.43,1.89,6.62,2.92a62.37,62.37,0,0,1,6.07,3.63,31.29,31.29,0,0,1,3,2.07c1.06.84,2.06,1.79,3,2.73a51.39,51.39,0,0,1,6,6.88c.86,1.18,1.62,2.45,2.4,3.69a1.88,1.88,0,0,1,.26.83.6.6,0,0,1-.3.45.49.49,0,0,1-.44-.09,4.13,4.13,0,0,1-.6-.65,21.79,21.79,0,0,0-8.26-6.66,16,16,0,0,0-3.77-1.12c-2-.33-4-.69-6-1.12a20,20,0,0,1-8.33-4.19,61.33,61.33,0,0,1-7.69-7.35c-1.42-1.61-2.81-3.25-4.2-4.89a19.38,19.38,0,0,0-5-4.4,45.72,45.72,0,0,0-4.65-2.44,72.69,72.69,0,0,0-6.92-2.28,25.22,25.22,0,0,1-7.93-4,35,35,0,0,1-6.71-6.51,26.56,26.56,0,0,1-3.17-5.17c-.44-.94-.83-1.89-1.23-2.84-.25-.59-.5-1.19-.71-1.79-.43-1.31-.84-2.62-1.25-3.92a3.07,3.07,0,0,1-.13-.5,22.28,22.28,0,0,0-.91-3.19,16.43,16.43,0,0,0-2-3.9,37.9,37.9,0,0,0-3.27-4.16,26,26,0,0,1-3-4.35,12.34,12.34,0,0,1-1.64-5.22c-.06-.92-.23-1.85-.37-2.77a18.49,18.49,0,0,1-.17-3.78c.24-3.37.53-6.74.69-10.12a69.44,69.44,0,0,0,.07-9.68c-.15-1.77-.37-3.54-.6-5.31a6,6,0,0,0-.42-1.47c-.42-1-.91-2-1.35-2.94-.67-1.49-1.32-3-2-4.49-.14-.32-.25-.64-.39-1a5.45,5.45,0,0,1-.6-2.34A7.58,7.58,0,0,0,81.51,178.72Z" fill="currentColor"/><path d="M249.42,30.42c-.3.25-.1.51,0,.77.45,1.47.9,2.94,1.33,4.42.26.89.44,1.8.72,2.69a49.44,49.44,0,0,0,4.69,10.39c1,1.66,2,3.29,3.07,4.93,1.94,3.08,3.86,6.16,5.55,9.38.86,1.63,1.81,3.22,2.76,4.8a106.27,106.27,0,0,1,6.09,11.81c1.35,3,2.69,6.11,4.08,9.15a68,68,0,0,0,3.59,6.74c1.34,2.23,2.61,4.49,3.93,6.73,1.62,2.72,3.23,5.44,4.9,8.13s3.52,5.5,5.29,8.24c1.2,1.87,2.39,3.75,3.62,5.6,1.42,2.12,2.89,4.21,4.34,6.32s3.09,4.41,4.82,6.48c.61.72,1.26,1.4,1.88,2.12s1.13,1.39,1.73,2a16.19,16.19,0,0,0,1.51,1.48c1,.88,2.08,1.75,3.16,2.57s2.06,1.44,3.09,2.15c.38.26.79.49,1.15.77a.61.61,0,0,1,.16.48.46.46,0,0,1-.33.32,1.54,1.54,0,0,1-.76-.14c-.48-.26-.93-.61-1.41-.88-1.6-.93-3.21-1.82-4.8-2.76-.87-.52-1.71-1.1-2.56-1.67a61.46,61.46,0,0,1-8.59-6.73c-.89-.84-1.83-1.62-2.75-2.42a49.88,49.88,0,0,1-5.77-6.21c-1.68-2-3.45-4-5.23-6-2.09-2.3-4.2-4.59-6.3-6.89-.89-1-1.75-2-2.66-2.93a21.49,21.49,0,0,1-2.35-3.19c-.74-1.1-1.45-2.22-2.23-3.29-1.71-2.33-3.34-4.7-4.81-7.19-.79-1.34-1.69-2.64-2.36-4-1-2.07-1.85-4.21-2.74-6.33a6.94,6.94,0,0,1-.42-1.48,73,73,0,0,0-2.59-9.27,42.16,42.16,0,0,0-2.28-5.89c-.63-1.27-1.33-2.5-2-3.76s-1.4-2.78-2-4.19c-.89-2-1.65-4-2.61-5.94-1.14-2.34-1.91-4.79-2.88-7.17-.79-2-1.59-3.92-2.37-5.88-1.26-3.14-2.49-6.28-3.76-9.41-1.12-2.75-2-5.55-2.92-8.35-.16-.49-.29-1-.42-1.48q-1.49-5.73-3-11.47a55.42,55.42,0,0,1-1.22-6.94,1.76,1.76,0,0,1,.12-1.18.55.55,0,0,1,.89,0,5.32,5.32,0,0,1,.6,1c.31.63.54,1.3.86,1.92a8.08,8.08,0,0,0,.85,1.3c1.54,1.85,3.11,3.68,4.66,5.52,2.52,3,4.88,6.14,7.12,9.37Q254,28.08,256,31.34a95.38,95.38,0,0,1,5.38,9.48c.51,1.06,1.08,2.1,1.65,3.13a51.35,51.35,0,0,1,2.45,5.4c.47,1.12.77,2.3,1.13,3.45a.61.61,0,0,1,0,.4.66.66,0,0,1-.3.37.59.59,0,0,1-.48-.11,6.6,6.6,0,0,1-.66-.91c-1.52-2.5-3-5-4.58-7.5-1.74-2.76-3.52-5.5-5.36-8.19A28.36,28.36,0,0,0,252.8,34c-1-1.09-2-2.14-3-3.2A3,3,0,0,0,249.42,30.42Z" fill="currentColor"/><path d="M305.52,188.07c-.34.6-.56.77-1,.59a14.9,14.9,0,0,1-2.41-1.17,20.4,20.4,0,0,1-3.85-3.34,41.69,41.69,0,0,0-4.19-4c-.94-.79-1.86-1.6-2.74-2.45a32.12,32.12,0,0,0-6.86-5c-2.18-1.22-4.39-2.41-6.63-3.53-1.56-.79-3.2-1.41-4.77-2.17-1.15-.55-2.26-1.2-3.38-1.8s-2.2-1.11-3.26-1.73a133,133,0,0,1-15.91-10.61c-1.56-1.24-3.19-2.37-4.77-3.58-.71-.54-1.38-1.15-2.05-1.74q-3-2.66-6.08-5.32a24.85,24.85,0,0,1-2.49-2.31c-.64-.76-1.27-1.52-2-2.23a50.65,50.65,0,0,1-6.31-8.54c-3.11-5-6-10.08-8.88-15.18-2.12-3.75-4.29-7.47-6.72-11-2.59-3.79-5.23-7.55-7.78-11.35a86.58,86.58,0,0,1-7.6-13.12c-1.11-2.51-2.15-5-3.21-7.58a103.14,103.14,0,0,0-6-12c-2.2-3.76-4.56-7.41-6.83-11.11-1.51-2.46-2.89-5-4.3-7.51q-1.76-3.16-3.46-6.35c-.31-.58-.54-1.21-.82-1.81-.56-1.2-1.14-2.39-1.7-3.58a1.6,1.6,0,0,1-.23-.52,1.24,1.24,0,0,1,.1-.78c.22-.26.54-.06.74.13a3.41,3.41,0,0,1,1.07,1.46,6.51,6.51,0,0,0,.9,1.76c2.46,3.35,5,6.66,7.75,9.77a91.72,91.72,0,0,1,9.6,13c1,1.56,2,3.12,2.85,4.73,1,1.82,1.93,3.69,2.86,5.55,1.21,2.41,2.36,4.85,3.6,7.24,1.92,3.74,3.83,7.49,5.88,11.17,1.15,2,2.53,4,3.88,5.92,1.63,2.33,3.32,4.6,5,6.87,2,2.69,4.11,5.31,6.09,8,1.65,2.25,3.21,4.56,4.76,6.87.85,1.26,1.63,2.56,2.39,3.86,1,1.72,1.95,3.46,2.94,5.18a15.35,15.35,0,0,0,2.92,3.8,29.47,29.47,0,0,1,2.87,3.32c2,2.43,3.72,5,5.52,7.55a47.14,47.14,0,0,0,7.26,8.13c2,1.79,4,3.57,6.08,5.32a77.26,77.26,0,0,0,7.16,5.33c1.1.75,2.18,1.51,3.24,2.3a71.41,71.41,0,0,0,9.69,6.15c2,1,4.07,2,6,3.13a78.75,78.75,0,0,1,10.6,6.83A53.7,53.7,0,0,1,301,180.71c1.08,1.49,2,3.09,3,4.66C304.5,186.24,305,187.15,305.52,188.07Z" fill="currentColor"/><path d="M227.94,167.23a12.34,12.34,0,0,1,.46,1.59,29.44,29.44,0,0,0,1.52,5c.36,1.05.76,2.09,1.13,3.13a5.89,5.89,0,0,0,1.35,2.23c2.3,2.34,4.54,4.74,6.85,7.08a33.86,33.86,0,0,0,4.62,3.54c1.76,1.27,3.55,2.51,5.23,3.89,1.28,1.05,2.4,2.3,3.58,3.47a52.28,52.28,0,0,1,4.7,6,3.36,3.36,0,0,0,.41.56A8.68,8.68,0,0,1,260,207a37.12,37.12,0,0,0,2.6,4.27c.91,1.39,1.82,2.79,2.79,4.14a32.89,32.89,0,0,0,4.65,5.49,51.63,51.63,0,0,1,4,4.22c1.58,1.75,3.13,3.53,4.67,5.31a55.64,55.64,0,0,1,7.89,12.05,61.57,61.57,0,0,0,3.65,6.85c1,1.55,1.91,3.17,2.93,4.72q2.19,3.28,4.48,6.51a56.49,56.49,0,0,0,3.71,4.48c.52.59,1.05,1.17,1.59,1.75A15,15,0,0,0,305.3,269a.5.5,0,0,1,.18.62.61.61,0,0,1-.65.41,1.18,1.18,0,0,1-.4-.1,2.57,2.57,0,0,1-.49-.26,45.75,45.75,0,0,1-8.75-7A75.94,75.94,0,0,1,288.1,254a23.42,23.42,0,0,0-2.38-2.89,34.32,34.32,0,0,0-4.84-4.57c-.24-.18-.51-.31-.93-.56.15,1.08.28,2,.4,2.88.3,2.24.63,4.48.87,6.73a96.23,96.23,0,0,0,1.92,12.05c.88,3.69,1.64,7.41,2.51,11.1.41,1.75,1,3.48,1.45,5.21.79,2.71,1.78,5.35,2.8,8a17.62,17.62,0,0,0,3.21,5.63c.06.06.07.16.14.32-.1.1-.19.3-.33.34a2.08,2.08,0,0,1-.66,0,.22.22,0,0,1-.13-.06,12.63,12.63,0,0,1-3.34-3.26c-.48-.84-1.12-1.59-1.62-2.42A53.07,53.07,0,0,1,282,281.28c-.85-2.6-1.66-5.21-2.41-7.83-1.16-4-2.21-8-3.39-12-1.25-4.26-2.51-8.52-3.92-12.73-1.31-3.95-2.76-7.85-4.26-11.74-.77-2-1.75-3.88-2.68-5.79-1.47-3-3-6.06-4.47-9.09-.45-.91-.85-1.85-1.28-2.77a4.26,4.26,0,0,0-1-1.48.91.91,0,0,1-.33-.58,3,3,0,0,0-.7-1.63q-3.74-5.61-7.91-10.9c-2-2.54-4.12-5-6.36-7.33-2.47-2.57-4.7-5.35-7-8a14.57,14.57,0,0,1-1.2-1.52,13,13,0,0,0-2.71-2.74,15.62,15.62,0,0,1-3.39-4.19,16.54,16.54,0,0,1-2-6.73,19.22,19.22,0,0,1,.09-4.42,13.57,13.57,0,0,1,.42-1.89C227.49,167.68,227.69,167.54,227.94,167.23Z" fill="currentColor"/><path d="M14.82,18.4a7.14,7.14,0,0,1,1.73,1.92c1.75,2.58,3.37,5.24,5,7.9a31.29,31.29,0,0,0,2.14,3c2.26,2.89,4.57,5.72,6.72,8.71.61.85,1.2,1.71,1.76,2.58q1.48,2.34,2.94,4.69a8.54,8.54,0,0,1,.79,1.49,9.21,9.21,0,0,0,1.1,2c2.61,3.64,5.24,7.27,7.82,10.94,1,1.46,2,3,2.92,4.52,1.13,1.8,2.25,3.6,3.34,5.43s2,3.52,3,5.28c.14.24.27.49.42.73C56,80,57.38,82.45,58.83,84.88c1.11,1.87,2.29,3.7,3.41,5.56,1.9,3.16,3.74,6.35,5.43,9.6.83,1.59,1.59,3.2,2.38,4.8.9,1.8,1.83,3.6,2.71,5.42s1.88,3.88,2.8,5.83q2.89,6.16,5.79,12.33c.6,1.27,1.27,2.52,1.92,3.77q2.07,4,4.15,8c.39.75.82,1.48,1.23,2.22a4.66,4.66,0,0,1,.33.62.47.47,0,0,1-.06.43.7.7,0,0,1-.48,0c-.09,0-.21-.16-.3-.26-1.24-1.39-2.47-2.8-3.73-4.16a14.77,14.77,0,0,1-1.65-2.29c-.66-1-1.29-2.09-1.93-3.13-.5-.81-1-1.64-1.51-2.41-1.84-2.58-3.46-5.3-5.13-8l-3.51-5.67c-.47-.77-.91-1.55-1.37-2.31L63.64,106c-1.47-2.42-3-4.83-4.41-7.27-1-1.67-1.87-3.38-2.75-5.1-1.24-2.42-2.39-4.89-3.67-7.3S50.27,81.78,49,79.53c-1-1.72-2-3.44-3-5.15-.48-.82-.94-1.64-1.42-2.46-1.44-2.5-2.67-5.08-4-7.64-1-1.94-1.9-3.88-3-5.75a46.41,46.41,0,0,1-2.9-6.09,22.48,22.48,0,0,0-2.6-4.82L25.89,39c-.19-.27-.4-.53-.58-.81-1.6-2.56-3.27-5.09-4.77-7.71-1.22-2.12-2.23-4.34-3.37-6.51A46.3,46.3,0,0,1,15,19.14,6.25,6.25,0,0,1,14.82,18.4Z" fill="currentColor"/><path d="M228.33,298.79a2.65,2.65,0,0,1-.41-.41c-.49-.86-1-1.73-1.46-2.6a13.51,13.51,0,0,0-4.5-4.55c-1-.64-1.92-1.32-2.89-2a13.84,13.84,0,0,1-2.75-2.6,37.28,37.28,0,0,1-4.17-6.09q-2-3.49-3.69-7.11c-.65-1.35-1.22-2.75-1.84-4.12a48.5,48.5,0,0,0-3.11-6.25,18.78,18.78,0,0,0-2.47-3c-.33-.35-.7-.66-1-1-1.31-1.49-2.63-3-3.88-4.5s-2.5-3.26-3.78-4.86c-.81-1-1.69-2-2.54-3l-.6-.71a22,22,0,0,0-2.36-2.56,12.4,12.4,0,0,1-2.69-3.21,10.81,10.81,0,0,1-.59-1.3,1.22,1.22,0,0,1,.11-1,.89.89,0,0,1,1.37-.4,4.38,4.38,0,0,1,1,.87,14.56,14.56,0,0,0,2.85,2.64c1.37,1,2.71,2.09,4.11,3.08a65.71,65.71,0,0,1,8.55,7.34c1,1,1.86,2.1,2.76,3.17a55.25,55.25,0,0,1,4.28,6.14,54.27,54.27,0,0,1,3.3,6q2.58,5.49,5.11,11a36.46,36.46,0,0,0,2.74,5.17c.66,1,1.41,1.94,2.13,2.89a64.54,64.54,0,0,1,3.81,5.48,44.6,44.6,0,0,1,2.8,5.24,5.55,5.55,0,0,1,.3,1A1.1,1.1,0,0,1,228.33,298.79Z" fill="currentColor"/><path d="M105.23-13.15c.59.47.69,1.2,1,1.81.12.27.17.59.31.85A37.28,37.28,0,0,0,114.68.28c.64.59,1.3,1.14,2,1.69a29.5,29.5,0,0,1,4.2,4.73,71.11,71.11,0,0,1,7.25,11.47c1.24,2.38,2.52,4.72,3.8,7.08a35.34,35.34,0,0,0,4.34,6.1,53.94,53.94,0,0,1,5.36,7.28,20.25,20.25,0,0,1,2.49,5.4,5,5,0,0,0,.76,1.35,4.4,4.4,0,0,1,.77,1.49,2.21,2.21,0,0,1-1,2.49c-1,.72-1.44.94-2.15-.3-.51-.9-1.06-1.78-1.52-2.71a17.8,17.8,0,0,0-3.75-4.9,24.17,24.17,0,0,1-4.61-5.89c-.35-.64-.75-1.26-1.09-1.91a6.55,6.55,0,0,0-2.17-2.36,23.92,23.92,0,0,1-3.77-2.95,13.87,13.87,0,0,0-1.9-1.36c-1.7-1.19-3.42-2.36-5.08-3.6a19.32,19.32,0,0,1-3.7-4A21.38,21.38,0,0,1,111,11c-.63-2.73-1.17-5.49-1.85-8.21a47,47,0,0,0-2.52-7.83,22,22,0,0,1-1.45-4.75c-.13-.64-.28-1.28-.38-1.94A1.3,1.3,0,0,1,105.23-13.15Z" fill="currentColor"/><path d="M246.13,71.41c-.11.45-.36.65-.74.53a3.18,3.18,0,0,1-.88-.45,27.09,27.09,0,0,1-3.21-2.56c-.88-.92-1.85-1.75-2.78-2.61a39.93,39.93,0,0,1-4.86-5.53,69.1,69.1,0,0,1-4-6,10,10,0,0,1-.74-1.37c-.88-2.24-1.93-4.4-3-6.58s-2.15-4.61-3.22-6.93a70.44,70.44,0,0,0-5.1-9.3,74.93,74.93,0,0,0-5.2-7.43l-2.28-2.71c-1.82-2.18-3.33-4.58-4.95-6.91a59.31,59.31,0,0,0-3.87-5.23c-1-1.11-1.75-2.35-2.69-3.48-1.54-1.85-3-3.8-4.36-5.76-.3-.42-.55-.88-.82-1.32-.52-.85-1-1.69-1.57-2.53-.07-.12-.18-.24-.18-.37a.76.76,0,0,1,.12-.52.59.59,0,0,1,.49-.16,2,2,0,0,1,1.08.62c1.23,1.38,2.7,2.51,4.05,3.76C199,0,200.83,1,202.51,2.31c1.05.8,2.16,1.53,3.19,2.37a57.5,57.5,0,0,1,6.15,5.64c.47.52,1,1,1.52,1.48A38,38,0,0,1,218,17.19c1.33,1.95,2.5,4,3.7,6a60.91,60.91,0,0,1,4,8.44c1.68,4.21,3.43,8.39,5.22,12.56.89,2.08,1.92,4.1,2.92,6.13s1.92,3.78,2.89,5.67c.17.33.38.65.58,1a7.8,7.8,0,0,1,.46.71,48.19,48.19,0,0,0,3.37,5.72c1.31,2.08,2.58,4.18,3.88,6.26C245.35,70.29,245.77,70.86,246.13,71.41Z" fill="currentColor"/><path d="M262.75,189.53c1,1.16,2.05,2.3,3,3.46.67.81,1.27,1.67,1.93,2.49a9.86,9.86,0,0,0,2.42,2.27c.83.54,1.67,1.05,2.53,1.53a13,13,0,0,1,3,2.18,16.57,16.57,0,0,1,2,2.67,10.37,10.37,0,0,1,1.06,2.44,1.72,1.72,0,0,1-.5,1.91c-.42.43-.88.82-1.33,1.22a1.24,1.24,0,0,1-1.15.33,7.52,7.52,0,0,1-1.64-.46,23.68,23.68,0,0,1-2.43-1.32,16.42,16.42,0,0,1-3.55-3.16,26.89,26.89,0,0,1-3.29-4.64c-.54-.93-1-1.92-1.52-2.86a43.51,43.51,0,0,0-3.54-5.75c-.63-.8-1.38-1.5-2-2.33a12.08,12.08,0,0,0-3.24-2.63,4.5,4.5,0,0,0-1.65-.7,4.61,4.61,0,0,1-1.07-.4.56.56,0,0,1-.18-.95,1.3,1.3,0,0,1,1-.52,2.36,2.36,0,0,1,.84.09c1.21.4,2.41.8,3.6,1.27a11.85,11.85,0,0,1,3.52,2.05C261.28,188.34,262,188.93,262.75,189.53Z" fill="currentColor"/><path d="M-33.45,236.84c-.65-.52-1.18-1-1.76-1.4a19.79,19.79,0,0,1-4.93-5.23,89.5,89.5,0,0,1-5.74-9.79A14.21,14.21,0,0,0-49.36,216a35.62,35.62,0,0,1-8.3-10.5c-1.42-2.58-2.45-5.33-3.75-7.95-1-2.08-2.15-4.11-3.25-6.15a16.73,16.73,0,0,0-2.83-3.71A5.84,5.84,0,0,0-70,186.11c-.57-.17-.93.09-.93.7a3.45,3.45,0,0,0,.14,1,13.58,13.58,0,0,0,.75,2c.78,1.57,1.61,3.11,2.45,4.64,2,3.61,4.1,7.13,5.84,10.87a90.63,90.63,0,0,0,6,11.27q4.35,6.73,9.21,13.12c1.77,2.33,3.52,4.69,5.37,7,1.67,2,3.44,4,5.23,6,2.94,3.2,5.92,6.36,8.62,9.77,1.18,1.48,2.31,3,3.4,4.54a46.94,46.94,0,0,1,2.73,4.14,105.3,105.3,0,0,1,5.3,10.5c.69,1.61,1.49,3.17,2.25,4.74s1.38,2.9,2.11,4.34c.44.88.94,1.74,1.41,2.62,1.27,2.43,2.35,4.95,3.38,7.49.59,1.44,1.21,2.87,1.8,4.31.16.39.28.8.45,1.19a76.29,76.29,0,0,0,3.43,7.47c.42.73.84,1.47,1.32,2.17a22.24,22.24,0,0,1,2.26,3.93c.25.61.64,1.16.93,1.75a4.4,4.4,0,0,1,.21.85,6.36,6.36,0,0,1-.86.24.9.9,0,0,1-1.06-.52,8.41,8.41,0,0,0-2.82-3.3q-1.11-.88-2.16-1.83a17.43,17.43,0,0,1-3.49-4.6,39.22,39.22,0,0,1-2.69-6.55,42.25,42.25,0,0,0-6.7-12.43c-1.05-1.35-2-2.75-3.05-4.11-.65-.87-1.34-1.7-2-2.58-1.25-1.66-2.51-3.32-3.7-5-.78-1.12-1.44-2.33-2.15-3.5-1.29-2.1-2.54-4.21-3.86-6.29-.76-1.19-1.64-2.31-2.45-3.47a4.2,4.2,0,0,0-1.48-1.3A15,15,0,0,1-38,254.8c-2-1.9-4-3.85-6-5.77a81.33,81.33,0,0,1-6.85-7.53c-.72-.88-1.51-1.69-2.28-2.52a2.09,2.09,0,0,0-.55-.44,7,7,0,0,1-2.12-2.06c-1-1.32-1.81-2.77-2.68-4.17-1-1.65-2.15-3.23-3.18-4.87s-2-3.41-3.07-5.11c-.58-1-1.14-2-1.74-2.92a61.73,61.73,0,0,1-3.22-6c-.83-1.75-1.74-3.47-2.56-5.22a67.19,67.19,0,0,1-3.78-10.39c-1.15-4.09-2-8.25-3-12.4-.39-1.7-.91-3.38-1.43-5.05-1.12-3.61-2.45-7.15-3.85-10.66-.92-2.28-1.91-4.53-3-6.73-.9-1.82-1.65-3.72-2.47-5.57-.35-.78-.76-1.53-1.09-2.31-.59-1.39-1.15-2.79-1.68-4.21a7.67,7.67,0,0,1-.29-1.53,3.25,3.25,0,0,0-.47-1.74.6.6,0,0,1,.09-.79,1.53,1.53,0,0,1,1.76-.58,7,7,0,0,1,1.64.82,36.54,36.54,0,0,1,5.78,5.2c2.27,2.49,4.27,5.18,6.39,7.78a83.69,83.69,0,0,1,5.86,8.37c1.32,2.13,2.68,4.24,4,6.4.88,1.5,1.65,3.08,2.46,4.63,1.06,2,2.11,4,3.17,6,.84,1.59,1.7,3.17,2.55,4.75.18.33.35.67.55,1,2.4,3.79,4.74,7.63,7.23,11.37,1.65,2.47,3.53,4.8,5.31,7.18,1.5,2,3,4,4.54,6,1.68,2.17,3.18,4.47,4.73,6.72a36.61,36.61,0,0,1,4.48,9,10.57,10.57,0,0,0,.65,1.41,4.54,4.54,0,0,1,.56,2,1.54,1.54,0,0,1-1.23,1.8A5.6,5.6,0,0,1-33.45,236.84Z" fill="currentColor"/><path d="M22.26,219.81c1,2.08,1.83,4,2.69,5.86A18.15,18.15,0,0,1,26.13,230c.28,1.53.52,3.06.76,4.6.15.93.27,1.87.4,2.81.4,3.13-8.5.42-9.91-3.15s-2.92-7.38-4.45-11c-1.1-2.61-2.33-5.17-3.49-7.76q-2.31-5.17-5.1-10.12c-1.59-2.81-3.32-5.51-5.09-8.2a29.42,29.42,0,0,0-2-2.71c-1.37-1.62-2.64-3.33-3.93-5-.74-1-1.45-2-2.16-3q-2.66-3.76-5.32-7.54a10.76,10.76,0,0,0-.77-1c-1.63-1.78-3.29-3.52-5.08-5.14-1.55-1.39-3-2.84-4.56-4.26l-.2-.2c-.21-.27-.39-.54-.19-.9a.63.63,0,0,1,.85-.29,16.14,16.14,0,0,1,2.34,1,31.42,31.42,0,0,1,9.21,8.28c.73.93,1.49,1.83,2.18,2.78.53.73,1,1.51,1.45,2.27.61,1,1.18,1.95,1.85,2.85s1.45,1.75,2.21,2.59a43,43,0,0,0,5.06,5c1,.77,1.93,1.53,2.94,2.21,3.69,2.48,7.25,5.14,10.75,7.87C15.19,203,16.56,204,17.92,205a26.16,26.16,0,0,1,5,5.16c1.41,1.84,2.66,3.79,4,5.66,1.11,1.53,2.22,3.06,3.44,4.51s2.51,2.69,3.77,4c.58.63,1.15,1.25,1.7,1.9,1.13,1.33,2.27,2.66,3.37,4,.72.88,1.43,1.76,2.08,2.69,1.22,1.74,2.47,3.47,3.57,5.29s2,3.74,3,5.61a1.9,1.9,0,0,1,0,1.89,1,1,0,0,1-1.31.49,5.82,5.82,0,0,0-1.07-.28,7,7,0,0,1-1.83-.72c-.94-.54-1.82-1.18-2.72-1.78a21.8,21.8,0,0,1-4.31-3.88,46.82,46.82,0,0,1-5.85-8.52c-.81-1.5-1.6-3-2.42-4.5a21,21,0,0,0-4.73-6A2.46,2.46,0,0,0,22.26,219.81Z" fill="currentColor"/><path d="M-140.42,222.15a1.39,1.39,0,0,1,1.14.64c1.44,1.82,2.83,3.67,4.34,5.43a19.67,19.67,0,0,1,2.44,3.4,28.71,28.71,0,0,0,2.2,3.11c1.84,2.59,3.7,5.17,5.51,7.78,1.16,1.69,2.18,3.47,3.34,5.15s2.33,3.25,3.53,4.85,2.65,3.35,3.92,5.06c1.8,2.41,3.59,4.81,5.18,7.37s3.27,5.14,4.88,7.73c2.46,4,4.61,8.15,6.85,12.26,1,1.8,1.92,3.62,2.94,5.39.91,1.57,1.88,3.11,2.86,4.65q2.15,3.39,4.35,6.77c.62.95,1.27,1.88,1.93,2.8q2.55,3.54,4.9,7.22c2.41,3.76,4.58,7.65,6.8,11.51,1.79,3.12,3.62,6.21,5.45,9.31,1.12,1.87,2.22,3.76,3.4,5.6q3.18,4.94,6.46,9.8c1,1.54,2.14,3,3.33,4.48a48.74,48.74,0,0,0,5.14,5A25.1,25.1,0,0,1-46,361.25a2,2,0,0,0,.33.43,30.9,30.9,0,0,1,3.84,4.76c.8,1.05,1.55,2.13,2.32,3.2,1,1.4,2,2.84,3,4.21.85,1.12,1.77,2.18,2.69,3.25,2.64,3.06,5.12,6.25,7.54,9.49,1.42,1.89,2.9,3.73,4.36,5.59.93,1.18,1.83,2.37,2.79,3.53,1.85,2.23,3.74,4.44,5.59,6.68,1.11,1.32,2.16,2.69,3.27,4q2.29,2.78,4.83,5.34c3,3,6.33,5.65,9.53,8.44q3.93,3.42,7.76,7a53.9,53.9,0,0,0,5.41,4.49,46,46,0,0,1,6.85,6.53,1,1,0,0,1,.31,1.1.51.51,0,0,1-.74.27,3,3,0,0,1-.49-.46,5.12,5.12,0,0,0-2.33-1.52,3.57,3.57,0,0,1-1.27-.72c-1-.79-2-1.54-3-2.3-1.33-1-2.65-2-3.89-3.14C11,429.79,9,428.34,7.3,426.7a73.09,73.09,0,0,0-7.06-5.65,37.62,37.62,0,0,1-5.41-4.68A102.06,102.06,0,0,0-14,408.19c-2.28-1.91-4.58-3.8-6.81-5.77a51.43,51.43,0,0,1-5.61-5.91c-1.27-1.54-2.57-3.06-3.83-4.61-1.08-1.35-2.1-2.74-3.17-4.09-1.35-1.72-2.58-3.52-3.81-5.32s-2.45-3.39-3.71-5.06c-.93-1.23-1.91-2.42-2.89-3.62a5.42,5.42,0,0,0-.71-.59c-.06.15-.13.24-.1.29a36.78,36.78,0,0,1,1.85,6.37c.56,2.32,1,4.68,1.44,7,.59,2.78,1,5.58,1.43,8.38a58.39,58.39,0,0,0,2,9.66,24.47,24.47,0,0,0,2.34,5.35c.47.77.87,1.6,1.38,2.35.92,1.35,1.89,2.67,2.84,4,.1.14.26.29.28.45a.83.83,0,0,1-.08.61.64.64,0,0,1-.56.18,6.12,6.12,0,0,1-2.21-1.2c-1.11-1.07-2.29-2.05-3.36-3.16a44.62,44.62,0,0,1-6-7.7,46.12,46.12,0,0,1-4.6-10.6c-1.65-5.27-3.28-10.54-5-15.8-1.37-4.27-2.8-8.52-4.25-12.77a72.43,72.43,0,0,0-3.07-7.42c-1.55-3.3-3.43-6.41-5.2-9.59-.64-1.15-1.36-2.26-2.06-3.38-2.18-3.52-4.14-7.17-6-10.84l-2.64-5.08c-.46-.89-.85-1.82-1.35-2.68-1.85-3.19-3.37-6.55-5-9.84-1-2-2-4.08-3-6.1a90.54,90.54,0,0,0-5.08-8.4c-.93-1.4-1.8-2.84-2.71-4.26-1.12-1.77-2.23-3.53-3.37-5.29-1.33-2.06-2.66-4.12-4-6.16a58.33,58.33,0,0,1-3-5.37,96.59,96.59,0,0,0-5.37-9.64c-1.43-2.1-2.71-4.3-4.1-6.44-2-3.12-4.17-6.17-6.45-9.12-1.55-2-3-4.15-4.42-6.23l-2.91-4.11c-1.13-1.6-2.29-3.17-3.37-4.8a8,8,0,0,1-.91-2,16.39,16.39,0,0,0-1.34-3c-.93-1.62-1.95-3.18-3-4.73-1.36-2-2.62-4.16-3.89-6.26a4,4,0,0,1-.77-2.68A4.9,4.9,0,0,0-140.42,222.15Z" fill="currentColor"/><path d="M-34,30.42c-.29.25-.1.51,0,.77.45,1.47.9,2.94,1.33,4.42.26.89.43,1.8.72,2.69a49.44,49.44,0,0,0,4.69,10.39c1,1.66,2,3.29,3.06,4.93,1.94,3.08,3.87,6.16,5.56,9.38.86,1.63,1.8,3.22,2.75,4.8a104.67,104.67,0,0,1,6.1,11.81c1.34,3,2.68,6.11,4.07,9.15A70.21,70.21,0,0,0-2.2,95.5C-.86,97.73.41,100,1.74,102.23c1.61,2.72,3.23,5.44,4.9,8.13s3.52,5.5,5.28,8.24c1.21,1.87,2.39,3.75,3.63,5.6,1.42,2.12,2.89,4.21,4.33,6.32s3.1,4.41,4.83,6.48c.6.72,1.26,1.4,1.87,2.12s1.14,1.39,1.74,2a15.05,15.05,0,0,0,1.51,1.48c1,.88,2.08,1.75,3.15,2.57s2.06,1.44,3.09,2.15c.39.26.79.49,1.16.77a.61.61,0,0,1,.16.48.46.46,0,0,1-.34.32,1.5,1.5,0,0,1-.75-.14c-.49-.26-.94-.61-1.42-.88-1.59-.93-3.2-1.82-4.79-2.76-.87-.52-1.72-1.1-2.57-1.67a61.46,61.46,0,0,1-8.59-6.73c-.88-.84-1.82-1.62-2.74-2.42a49.88,49.88,0,0,1-5.77-6.21c-1.68-2-3.45-4-5.23-6l-6.3-6.89c-.89-1-1.75-2-2.67-2.93a22.22,22.22,0,0,1-2.35-3.19c-.73-1.1-1.44-2.22-2.23-3.29-1.71-2.33-3.34-4.7-4.81-7.19-.79-1.34-1.68-2.64-2.35-4-1-2.07-1.86-4.21-2.74-6.33a6.94,6.94,0,0,1-.42-1.48,73,73,0,0,0-2.59-9.27,42.16,42.16,0,0,0-2.28-5.89c-.63-1.27-1.34-2.5-2-3.76s-1.39-2.78-2-4.19c-.89-2-1.66-4-2.61-5.94C-31.32,55.44-32.08,53-33,50.61q-1.2-2.94-2.38-5.88c-1.25-3.14-2.49-6.28-3.76-9.41-1.11-2.75-2-5.55-2.92-8.35-.16-.49-.29-1-.41-1.48l-3-11.47a57.31,57.31,0,0,1-1.22-6.94,1.77,1.77,0,0,1,.13-1.18.54.54,0,0,1,.88,0,5.32,5.32,0,0,1,.6,1c.31.63.55,1.3.87,1.92a6.92,6.92,0,0,0,.85,1.3c1.54,1.85,3.11,3.68,4.65,5.52,2.52,3,4.88,6.14,7.12,9.37,1.46,2.1,2.85,4.24,4.19,6.41A99.54,99.54,0,0,1-22,40.82c.5,1.06,1.07,2.1,1.64,3.13a49.46,49.46,0,0,1,2.46,5.4c.46,1.12.76,2.3,1.13,3.45a.61.61,0,0,1,0,.4.68.68,0,0,1-.31.37.56.56,0,0,1-.47-.11,6.6,6.6,0,0,1-.66-.91c-1.53-2.5-3-5-4.58-7.5-1.74-2.76-3.52-5.5-5.36-8.19A29.67,29.67,0,0,0-30.66,34c-1-1.09-2-2.14-3-3.2A3,3,0,0,0-34,30.42Z" fill="currentColor"/><path d="M22.06,188.07c-.35.6-.57.77-1,.59a14.41,14.41,0,0,1-2.4-1.17,20.09,20.09,0,0,1-3.85-3.34,42.79,42.79,0,0,0-4.19-4c-.94-.79-1.87-1.6-2.75-2.45a32.31,32.31,0,0,0-6.85-5c-2.19-1.22-4.39-2.41-6.63-3.53-1.56-.79-3.2-1.41-4.78-2.17-1.15-.55-2.25-1.2-3.38-1.8S-16,164.08-17,163.46a131.37,131.37,0,0,1-15.91-10.61c-1.56-1.24-3.2-2.37-4.77-3.58-.71-.54-1.38-1.15-2.06-1.74l-6.07-5.32a25,25,0,0,1-2.5-2.31c-.64-.76-1.26-1.52-1.95-2.23a50.71,50.71,0,0,1-6.32-8.54c-3.1-5-6-10.08-8.88-15.18-2.12-3.75-4.29-7.47-6.72-11-2.58-3.79-5.22-7.55-7.78-11.35a86.58,86.58,0,0,1-7.6-13.12c-1.1-2.51-2.15-5-3.2-7.58a103.21,103.21,0,0,0-6-12c-2.19-3.76-4.55-7.41-6.83-11.11-1.5-2.46-2.88-5-4.29-7.51-1.18-2.11-2.33-4.23-3.47-6.35-.31-.58-.53-1.21-.82-1.81-.56-1.2-1.13-2.39-1.7-3.58a1.57,1.57,0,0,1-.22-.52c0-.26,0-.61.1-.78s.53-.06.74.13a3.5,3.5,0,0,1,1.07,1.46,6.78,6.78,0,0,0,.89,1.76c2.47,3.35,5,6.66,7.76,9.77a92.5,92.5,0,0,1,9.6,13c1,1.56,2,3.12,2.85,4.73,1,1.82,1.92,3.69,2.86,5.55,1.2,2.41,2.36,4.85,3.59,7.24,1.93,3.74,3.84,7.49,5.89,11.17a69.22,69.22,0,0,0,3.88,5.92c1.62,2.33,3.32,4.6,5,6.87,2,2.69,4.1,5.31,6.09,8,1.64,2.25,3.2,4.56,4.76,6.87.84,1.26,1.62,2.56,2.39,3.86,1,1.72,1.94,3.46,2.93,5.18a15.39,15.39,0,0,0,2.93,3.8,29.39,29.39,0,0,1,2.86,3.32c2,2.43,3.72,5,5.53,7.55a47.08,47.08,0,0,0,7.25,8.13c2,1.79,4,3.57,6.08,5.32a76.08,76.08,0,0,0,7.17,5.33c1.09.75,2.17,1.51,3.23,2.3a71.51,71.51,0,0,0,9.7,6.15c2,1,4.07,2,6,3.13a78,78,0,0,1,10.59,6.83,54.06,54.06,0,0,1,9.83,10.16c1.08,1.49,2,3.09,3,4.66C21,186.24,21.53,187.15,22.06,188.07Z" fill="currentColor"/><path d="M-55.52,167.23a14.2,14.2,0,0,1,.46,1.59,29.44,29.44,0,0,0,1.52,5c.36,1.05.75,2.09,1.12,3.13a5.92,5.92,0,0,0,1.36,2.23c2.3,2.34,4.54,4.74,6.85,7.08a34.39,34.39,0,0,0,4.61,3.54c1.77,1.27,3.56,2.51,5.23,3.89,1.28,1.05,2.4,2.3,3.59,3.47a52.28,52.28,0,0,1,4.7,6,2.88,2.88,0,0,0,.41.56,8.66,8.66,0,0,1,2.21,3.3,40.17,40.17,0,0,0,2.6,4.27c.92,1.39,1.82,2.79,2.8,4.14a32.42,32.42,0,0,0,4.65,5.49,51.51,51.51,0,0,1,4,4.22c1.58,1.75,3.14,3.53,4.67,5.31a55.27,55.27,0,0,1,7.89,12.05,61.65,61.65,0,0,0,3.66,6.85c1,1.55,1.9,3.17,2.93,4.72,1.45,2.19,2.95,4.36,4.47,6.51,1.13,1.58,2.44,3,3.72,4.48.52.59,1.05,1.17,1.58,1.75A15.44,15.44,0,0,0,21.83,269a.48.48,0,0,1,.18.62.59.59,0,0,1-.64.41,1.07,1.07,0,0,1-.4-.1,2.3,2.3,0,0,1-.49-.26,45.44,45.44,0,0,1-8.75-7A74.89,74.89,0,0,1,4.64,254a23.5,23.5,0,0,0-2.39-2.89,34.25,34.25,0,0,0-4.83-4.57c-.24-.18-.52-.31-.93-.56.15,1.08.28,2,.4,2.88.29,2.24.63,4.48.87,6.73A96.21,96.21,0,0,0-.33,267.61c.89,3.69,1.64,7.41,2.51,11.1.42,1.75.95,3.48,1.46,5.21.79,2.71,1.77,5.35,2.79,8a17.46,17.46,0,0,0,3.22,5.63c.06.06.07.16.13.32s-.19.3-.33.34a2.08,2.08,0,0,1-.66,0,.2.2,0,0,1-.12-.06,12.82,12.82,0,0,1-3.35-3.26c-.48-.84-1.11-1.59-1.62-2.42a53.07,53.07,0,0,1-5.17-11.19c-.84-2.6-1.65-5.21-2.41-7.83-1.15-4-2.21-8-3.38-12-1.26-4.26-2.52-8.52-3.92-12.73-1.32-3.95-2.77-7.85-4.26-11.74-.77-2-1.75-3.88-2.68-5.79-1.47-3-3-6.06-4.47-9.09-.45-.91-.85-1.85-1.29-2.77a4.13,4.13,0,0,0-1-1.48.91.91,0,0,1-.33-.58,3,3,0,0,0-.7-1.63q-3.72-5.61-7.91-10.9c-2-2.54-4.11-5-6.35-7.33-2.48-2.57-4.71-5.35-7-8a13.35,13.35,0,0,1-1.2-1.52,13.08,13.08,0,0,0-2.72-2.74,15.77,15.77,0,0,1-3.38-4.19,16.39,16.39,0,0,1-2-6.73,19.22,19.22,0,0,1,.09-4.42,13.57,13.57,0,0,1,.42-1.89C-56,167.68-55.77,167.54-55.52,167.23Z" fill="currentColor"/><path d="M250-46.62c-.66-.53-1.19-1-1.77-1.41a19.75,19.75,0,0,1-4.93-5.22A91.34,91.34,0,0,1,237.59-63a14.1,14.1,0,0,0-3.48-4.42A35.54,35.54,0,0,1,225.8-78c-1.41-2.58-2.45-5.32-3.75-7.94-1-2.08-2.14-4.11-3.24-6.15A17.42,17.42,0,0,0,216-95.78a5.76,5.76,0,0,0-2.5-1.57c-.57-.18-.92.08-.93.7a3.22,3.22,0,0,0,.15,1,14,14,0,0,0,.74,2c.78,1.56,1.61,3.1,2.45,4.64,2,3.61,4.11,7.12,5.84,10.87a92.59,92.59,0,0,0,6,11.26c2.91,4.49,6,8.88,9.21,13.13,1.78,2.33,3.52,4.69,5.38,6.95,1.67,2.05,3.44,4,5.23,6,2.93,3.2,5.92,6.36,8.62,9.77q1.75,2.24,3.4,4.54c1,1.35,1.91,2.71,2.73,4.14a105.38,105.38,0,0,1,5.29,10.51c.69,1.6,1.49,3.16,2.25,4.74s1.39,2.9,2.11,4.33c.45.89.95,1.74,1.41,2.62,1.28,2.43,2.36,5,3.39,7.49.58,1.44,1.2,2.87,1.8,4.31.16.39.27.81.44,1.2a78.53,78.53,0,0,0,3.43,7.46c.42.74.85,1.48,1.33,2.18A21.84,21.84,0,0,1,286,26.35c.25.61.64,1.16.94,1.75a4.26,4.26,0,0,1,.2.85c-.33.09-.59.2-.85.24a.89.89,0,0,1-1.06-.52,8.37,8.37,0,0,0-2.83-3.3c-.73-.59-1.45-1.2-2.15-1.84a17.15,17.15,0,0,1-3.5-4.6A40.09,40.09,0,0,1,274,12.38,41.92,41.92,0,0,0,267.34,0c-1-1.34-2-2.74-3-4.1-.65-.87-1.35-1.71-2-2.58-1.24-1.67-2.5-3.32-3.69-5-.78-1.13-1.44-2.33-2.16-3.5-1.28-2.1-2.53-4.22-3.86-6.29-.76-1.19-1.64-2.31-2.45-3.47a4.12,4.12,0,0,0-1.48-1.3,15.64,15.64,0,0,1-3.19-2.35c-2-1.9-4-3.85-6.05-5.76A83,83,0,0,1,232.57-42c-.72-.87-1.51-1.68-2.28-2.52a2.13,2.13,0,0,0-.55-.44A6.83,6.83,0,0,1,227.62-47c-1-1.31-1.8-2.76-2.68-4.17-1-1.64-2.15-3.22-3.18-4.87s-2-3.4-3.06-5.1c-.59-1-1.15-2-1.75-2.93a61.64,61.64,0,0,1-3.21-6c-.84-1.75-1.75-3.46-2.57-5.22a67.7,67.7,0,0,1-3.77-10.38c-1.15-4.1-2-8.26-3-12.4-.39-1.71-.92-3.38-1.43-5-1.13-3.61-2.46-7.15-3.86-10.66-.91-2.29-1.91-4.53-3-6.74-.9-1.82-1.65-3.71-2.48-5.57-.35-.77-.76-1.52-1.09-2.31-.58-1.39-1.15-2.79-1.67-4.21a7.58,7.58,0,0,1-.3-1.52,3.29,3.29,0,0,0-.47-1.75.61.61,0,0,1,.09-.78,1.5,1.5,0,0,1,1.76-.58,6.84,6.84,0,0,1,1.65.81,37,37,0,0,1,5.77,5.21c2.28,2.48,4.28,5.18,6.39,7.78a79.93,79.93,0,0,1,5.86,8.37c1.33,2.12,2.68,4.23,4,6.39.89,1.51,1.65,3.09,2.47,4.63,1,2,2.1,4,3.17,6q1.26,2.37,2.54,4.74c.18.34.36.67.56,1,2.4,3.8,4.73,7.64,7.23,11.37,1.65,2.48,3.52,4.8,5.31,7.19,1.5,2,3,4,4.54,6,1.68,2.17,3.17,4.46,4.73,6.72a36.9,36.9,0,0,1,4.48,9,8.18,8.18,0,0,0,.65,1.41,4.41,4.41,0,0,1,.55,2,1.55,1.55,0,0,1-1.22,1.8Z" fill="currentColor"/><path d="M108.28,38.16a5.19,5.19,0,0,1-.65-.8c-.84-1.57-1.64-3.16-2.46-4.73A30.62,30.62,0,0,0,98,23.79c-1.52-1.34-3-2.72-4.52-4.06a31.57,31.57,0,0,1-4.39-5.1A88.64,88.64,0,0,1,82.18,3.31Q78.89-3.06,75.93-9.58C74.81-12,73.81-14.52,72.75-17a115.94,115.94,0,0,0-5.3-11.3,44.76,44.76,0,0,0-4-5.69c-.53-.67-1.11-1.29-1.62-2-2.11-2.85-4.24-5.68-6.28-8.58s-4.07-6.13-6.15-9.16c-1.32-1.91-2.74-3.76-4.11-5.64-.33-.44-.65-.89-1-1.34a53.8,53.8,0,0,0-3.8-4.93,28.28,28.28,0,0,1-4.37-6.09,25.39,25.39,0,0,1-1-2.34,2.12,2.12,0,0,1,.06-1.63c.38-.88,1.18-1,2-.31a9.23,9.23,0,0,1,1.58,1.72A31.94,31.94,0,0,0,43.34-69c2.15,2.08,4.27,4.23,6.46,6.25A148,148,0,0,1,63.35-48.2c1.58,1.92,3,4,4.46,6a127.7,127.7,0,0,1,7,11.44c2,3.57,3.89,7.24,5.56,11C83.36-13.15,86.31-6.57,89.21,0a85.1,85.1,0,0,0,4.62,9.39c1.09,1.85,2.31,3.62,3.49,5.41,2.2,3.33,4.34,6.7,6.26,10.19a104.31,104.31,0,0,1,4.74,9.53,12.26,12.26,0,0,1,.55,1.72A1.6,1.6,0,0,1,108.28,38.16Z" fill="currentColor"/><path d="M143.05-61.31a1.4,1.4,0,0,1,1.14.64c1.43,1.81,2.83,3.67,4.33,5.42A19.23,19.23,0,0,1,151-51.84a31.29,31.29,0,0,0,2.2,3.11c1.84,2.59,3.71,5.16,5.51,7.78,1.16,1.68,2.19,3.46,3.34,5.15s2.33,3.25,3.54,4.84,2.64,3.36,3.92,5.07c1.79,2.4,3.58,4.81,5.18,7.36s3.27,5.14,4.87,7.73c2.46,4,4.61,8.16,6.85,12.27,1,1.8,1.93,3.61,2.95,5.39.9,1.57,1.88,3.11,2.85,4.64,1.44,2.27,2.89,4.52,4.35,6.77.62.95,1.28,1.88,1.94,2.81q2.53,3.54,4.9,7.22c2.4,3.75,4.57,7.64,6.8,11.51,1.79,3.11,3.62,6.21,5.45,9.3,1.11,1.88,2.21,3.77,3.39,5.6q3.18,4.93,6.46,9.8c1,1.54,2.15,3,3.33,4.48a47.75,47.75,0,0,0,5.14,5,23.74,23.74,0,0,1,3.51,3.78,3.5,3.5,0,0,0,.33.43A30.9,30.9,0,0,1,241.61,83c.8,1,1.56,2.13,2.32,3.2,1,1.4,2,2.83,3,4.21.85,1.12,1.78,2.18,2.69,3.24,2.64,3.06,5.12,6.25,7.55,9.49,1.42,1.89,2.9,3.73,4.36,5.59.92,1.18,1.83,2.38,2.78,3.53,1.85,2.24,3.74,4.45,5.6,6.68,1.1,1.33,2.16,2.69,3.26,4q2.31,2.78,4.84,5.33c3,3,6.32,5.66,9.52,8.44q3.93,3.42,7.76,7a54.8,54.8,0,0,0,5.41,4.49,46,46,0,0,1,6.85,6.54,1,1,0,0,1,.31,1.1.49.49,0,0,1-.73.26,3.57,3.57,0,0,1-.5-.45,5,5,0,0,0-2.33-1.53,3.9,3.9,0,0,1-1.27-.71c-1-.8-2-1.55-3-2.3-1.32-1-2.65-2-3.88-3.14-1.77-1.62-3.67-3.07-5.42-4.71a69.33,69.33,0,0,0-7.06-5.65,38.24,38.24,0,0,1-5.41-4.69,100.62,100.62,0,0,0-8.86-8.18c-2.28-1.91-4.57-3.8-6.8-5.77a50.62,50.62,0,0,1-5.62-5.9c-1.26-1.55-2.57-3.06-3.82-4.62-1.08-1.34-2.11-2.73-3.17-4.09-1.36-1.71-2.58-3.51-3.82-5.32s-2.44-3.39-3.7-5c-.94-1.23-1.92-2.43-2.89-3.62a4.87,4.87,0,0,0-.72-.6c0,.16-.12.25-.1.3a36.55,36.55,0,0,1,1.86,6.37c.55,2.32.94,4.67,1.44,7,.59,2.78,1,5.58,1.42,8.38a60.74,60.74,0,0,0,2,9.66,24.68,24.68,0,0,0,2.34,5.35c.48.77.88,1.6,1.38,2.34.92,1.36,1.89,2.67,2.84,4a1.43,1.43,0,0,1,.29.45.87.87,0,0,1-.09.61.61.61,0,0,1-.56.19,6.16,6.16,0,0,1-2.21-1.21c-1.1-1.07-2.28-2-3.36-3.15a45.19,45.19,0,0,1-6-7.71,46.48,46.48,0,0,1-4.6-10.59c-1.65-5.27-3.28-10.55-5-15.81-1.38-4.27-2.81-8.52-4.26-12.76a73.47,73.47,0,0,0-3.06-7.43c-1.56-3.29-3.44-6.41-5.21-9.59-.64-1.15-1.36-2.25-2.05-3.37-2.19-3.52-4.14-7.17-6.05-10.84-.88-1.7-1.77-3.39-2.64-5.09-.46-.89-.86-1.81-1.36-2.67-1.85-3.2-3.36-6.55-5-9.85-1-2-2-4.08-3.06-6.09a89.75,89.75,0,0,0-5.07-8.41c-.93-1.4-1.81-2.84-2.71-4.26-1.12-1.76-2.24-3.53-3.37-5.28-1.33-2.06-2.66-4.13-4-6.16a56,56,0,0,1-2.95-5.37,96.74,96.74,0,0,0-5.37-9.65c-1.43-2.1-2.72-4.3-4.11-6.43-2-3.13-4.17-6.18-6.45-9.13-1.55-2-2.94-4.15-4.41-6.22-1-1.38-1.95-2.75-2.92-4.12-1.13-1.59-2.28-3.17-3.37-4.79a8.81,8.81,0,0,1-.91-2,15.82,15.82,0,0,0-1.34-3c-.93-1.62-1.94-3.17-3-4.73-1.35-2-2.62-4.15-3.89-6.25a4.08,4.08,0,0,1-.77-2.68A5.26,5.26,0,0,0,143.05-61.31Z" fill="currentColor"/><path d="M81.51-104.74a1,1,0,0,1,1.3.18,13.35,13.35,0,0,1,1.43,1.48,31.81,31.81,0,0,1,2.43,3.66,69.28,69.28,0,0,1,5.16,11c1.12,3,2.25,6,3.35,9.09,1.17,3.23,2.09,6.53,3,9.83.69,2.44,1.43,4.86,2.19,7.27q2.1,6.7,4.77,13.22c.77,1.88,1.46,3.78,2.27,5.63.69,1.58,1.49,3.12,2.24,4.67A45,45,0,0,0,112-34.52a7,7,0,0,0,.66,1c2.84,3.35,5.66,6.72,8.55,10,1.15,1.33,2.47,2.51,3.67,3.8,2.3,2.44,4.82,4.63,7.26,6.89,1.48,1.37,3.05,2.62,4.61,3.88s3,2.38,4.54,3.51A24.77,24.77,0,0,0,147.42-2c2.26.81,4.43,1.89,6.62,2.91a62.46,62.46,0,0,1,6.07,3.64,29.6,29.6,0,0,1,3,2.07c1.06.84,2.06,1.78,3,2.73a50.18,50.18,0,0,1,6,6.88c.86,1.18,1.62,2.44,2.4,3.68a1.88,1.88,0,0,1,.26.83.63.63,0,0,1-.3.46.49.49,0,0,1-.44-.09,4.21,4.21,0,0,1-.6-.66,21.67,21.67,0,0,0-8.26-6.65,15.52,15.52,0,0,0-3.77-1.12c-2-.33-4-.7-6-1.12a20.15,20.15,0,0,1-8.33-4.19A62.14,62.14,0,0,1,139.51,0c-1.42-1.61-2.81-3.25-4.2-4.88a19.38,19.38,0,0,0-5-4.4,42,42,0,0,0-4.65-2.44A72.76,72.76,0,0,0,118.78-14,25.19,25.19,0,0,1,110.85-18a35.65,35.65,0,0,1-6.71-6.51A26.93,26.93,0,0,1,101-29.68c-.44-.93-.83-1.89-1.23-2.84-.25-.59-.5-1.18-.71-1.79-.43-1.3-.84-2.61-1.25-3.92a3,3,0,0,1-.13-.49,22.41,22.41,0,0,0-.91-3.2,16.55,16.55,0,0,0-2-3.89A37,37,0,0,0,91.5-50a26.84,26.84,0,0,1-3-4.35,12.43,12.43,0,0,1-1.64-5.22c-.06-.93-.23-1.85-.37-2.78a18.45,18.45,0,0,1-.17-3.78c.24-3.37.53-6.73.69-10.11a69.59,69.59,0,0,0,.07-9.69c-.15-1.76-.37-3.53-.6-5.3A6,6,0,0,0,86-92.68c-.42-1-.91-1.95-1.35-2.93-.67-1.5-1.32-3-2-4.5-.14-.31-.25-.64-.39-1a5.52,5.52,0,0,1-.6-2.34A7.44,7.44,0,0,0,81.51-104.74Z" fill="currentColor"/><path d="M227.94-116.23a11.9,11.9,0,0,1,.46,1.59,29.07,29.07,0,0,0,1.52,5c.36,1.05.76,2.09,1.13,3.14a5.89,5.89,0,0,0,1.35,2.23c2.3,2.34,4.54,4.74,6.85,7.08a34.68,34.68,0,0,0,4.62,3.54c1.76,1.27,3.55,2.51,5.23,3.88,1.28,1.06,2.4,2.31,3.58,3.47a53.16,53.16,0,0,1,4.7,6,3,3,0,0,0,.41.56A8.64,8.64,0,0,1,260-76.42a37,37,0,0,0,2.6,4.26c.91,1.4,1.82,2.8,2.79,4.14a33,33,0,0,0,4.65,5.5,51.63,51.63,0,0,1,4,4.22c1.58,1.75,3.13,3.52,4.67,5.31a55.58,55.58,0,0,1,7.89,12,62.61,62.61,0,0,0,3.65,6.86c1,1.55,1.91,3.17,2.93,4.71q2.19,3.3,4.48,6.52a54.6,54.6,0,0,0,3.71,4.47c.52.59,1.05,1.17,1.59,1.75a14.58,14.58,0,0,0,2.32,2.19.49.49,0,0,1,.18.61.62.62,0,0,1-.65.42,1.47,1.47,0,0,1-.4-.1,3.29,3.29,0,0,1-.49-.26,45.75,45.75,0,0,1-8.75-7,75.19,75.19,0,0,1-7.09-8.72,23.33,23.33,0,0,0-2.38-2.88,33.76,33.76,0,0,0-4.84-4.57,9.33,9.33,0,0,0-.93-.56c.15,1.08.28,2,.4,2.87.3,2.25.63,4.49.87,6.74a96.23,96.23,0,0,0,1.92,12c.88,3.68,1.64,7.4,2.51,11.09.41,1.76,1,3.48,1.45,5.21.79,2.71,1.78,5.36,2.8,8a17.41,17.41,0,0,0,3.21,5.63,1.6,1.6,0,0,1,.14.33c-.1.1-.19.29-.33.34a2.09,2.09,0,0,1-.66,0,.22.22,0,0,1-.13-.06,12.59,12.59,0,0,1-3.34-3.25c-.48-.84-1.12-1.6-1.62-2.42A53.15,53.15,0,0,1,282-2.19c-.85-2.59-1.66-5.2-2.41-7.83-1.16-4-2.21-8-3.39-12-1.25-4.26-2.51-8.51-3.92-12.73C271-38.71,269.52-42.62,268-46.5c-.77-2-1.75-3.88-2.68-5.8-1.47-3-3-6.05-4.47-9.08-.45-.92-.85-1.85-1.28-2.77a4.3,4.3,0,0,0-1-1.49.91.91,0,0,1-.33-.58,3,3,0,0,0-.7-1.63q-3.74-5.61-7.91-10.89c-2-2.54-4.12-5-6.36-7.34-2.47-2.57-4.7-5.34-7-8a14.57,14.57,0,0,1-1.2-1.52,12.8,12.8,0,0,0-2.71-2.74,15.66,15.66,0,0,1-3.39-4.2,16.49,16.49,0,0,1-2-6.72,19.21,19.21,0,0,1,.09-4.42,13.57,13.57,0,0,1,.42-1.89C227.49-115.78,227.69-115.93,227.94-116.23Z" fill="currentColor"/><path d="M228.33,15.33a3.23,3.23,0,0,1-.41-.42l-1.46-2.59A13.63,13.63,0,0,0,222,7.76c-1-.64-1.92-1.31-2.89-2a13.61,13.61,0,0,1-2.75-2.61,37.64,37.64,0,0,1-4.17-6.08q-2-3.51-3.69-7.11c-.65-1.36-1.22-2.75-1.84-4.13a49,49,0,0,0-3.11-6.24,19.31,19.31,0,0,0-2.47-3c-.33-.34-.7-.65-1-1-1.31-1.49-2.63-3-3.88-4.51s-2.5-3.25-3.78-4.86c-.81-1-1.69-2-2.54-3l-.6-.7A22.06,22.06,0,0,0,186.87-40a12.35,12.35,0,0,1-2.69-3.2,10.28,10.28,0,0,1-.59-1.31,1.19,1.19,0,0,1,.11-1,.89.89,0,0,1,1.37-.4,4.15,4.15,0,0,1,1,.87,14.56,14.56,0,0,0,2.85,2.64c1.37,1,2.71,2.09,4.11,3.07A66.56,66.56,0,0,1,201.58-32c1,1,1.86,2.09,2.76,3.17a54.33,54.33,0,0,1,4.28,6.14,53.39,53.39,0,0,1,3.3,6c1.72,3.66,3.43,7.31,5.11,11a37,37,0,0,0,2.74,5.17c.66,1,1.41,1.93,2.13,2.89a64.39,64.39,0,0,1,3.81,5.47,44.73,44.73,0,0,1,2.8,5.25,5.3,5.3,0,0,1,.3,1A1.1,1.1,0,0,1,228.33,15.33Z" fill="currentColor"/><path d="M-33.45-46.62c-.65-.53-1.18-1-1.76-1.41a19.75,19.75,0,0,1-4.93-5.22A91.43,91.43,0,0,1-45.88-63a14.1,14.1,0,0,0-3.48-4.42A35.67,35.67,0,0,1-57.66-78c-1.42-2.58-2.45-5.32-3.75-7.94-1-2.08-2.15-4.11-3.25-6.15a16.79,16.79,0,0,0-2.83-3.72A5.73,5.73,0,0,0-70-97.35c-.57-.18-.93.08-.93.7a3.55,3.55,0,0,0,.14,1,14,14,0,0,0,.75,2c.78,1.56,1.61,3.1,2.45,4.64,2,3.61,4.1,7.12,5.84,10.87a91.22,91.22,0,0,0,6,11.26c2.9,4.49,6,8.88,9.21,13.13,1.77,2.33,3.52,4.69,5.37,6.95,1.67,2.05,3.44,4,5.23,6,2.94,3.2,5.92,6.36,8.62,9.77q1.77,2.24,3.4,4.54a48.46,48.46,0,0,1,2.73,4.14,105.46,105.46,0,0,1,5.3,10.51c.69,1.6,1.49,3.16,2.25,4.74s1.38,2.9,2.11,4.33c.44.89.94,1.74,1.41,2.62,1.27,2.43,2.35,5,3.38,7.49.59,1.44,1.21,2.87,1.8,4.31.16.39.28.81.45,1.2a76.12,76.12,0,0,0,3.43,7.46c.42.74.84,1.48,1.32,2.18a21.89,21.89,0,0,1,2.26,3.93c.25.61.64,1.16.93,1.75a4.22,4.22,0,0,1,.21.85,8.27,8.27,0,0,1-.86.24.9.9,0,0,1-1.06-.52,8.35,8.35,0,0,0-2.82-3.3c-.74-.59-1.46-1.2-2.16-1.84a17.11,17.11,0,0,1-3.49-4.6,39.22,39.22,0,0,1-2.69-6.55A42.38,42.38,0,0,0-16.12,0c-1.05-1.34-2-2.74-3.05-4.1-.65-.87-1.34-1.71-2-2.58-1.25-1.67-2.51-3.32-3.7-5-.78-1.13-1.44-2.33-2.15-3.5-1.29-2.1-2.54-4.22-3.86-6.29-.76-1.19-1.64-2.31-2.45-3.47a4.2,4.2,0,0,0-1.48-1.3A15.37,15.37,0,0,1-38-28.67c-2-1.9-4-3.85-6-5.76A80.18,80.18,0,0,1-50.89-42c-.72-.87-1.51-1.68-2.28-2.52a2.32,2.32,0,0,0-.55-.44A6.72,6.72,0,0,1-55.84-47a47.7,47.7,0,0,1-2.68-4.17c-1-1.64-2.15-3.22-3.18-4.87s-2-3.4-3.07-5.1c-.58-1-1.14-2-1.74-2.93a61.73,61.73,0,0,1-3.22-6c-.83-1.75-1.74-3.46-2.56-5.22a66.7,66.7,0,0,1-3.78-10.38c-1.15-4.1-2-8.26-3-12.4-.39-1.71-.91-3.38-1.43-5-1.12-3.61-2.45-7.15-3.85-10.66-.92-2.29-1.91-4.53-3-6.74-.9-1.82-1.65-3.71-2.47-5.57-.35-.77-.76-1.52-1.09-2.31-.59-1.39-1.15-2.79-1.68-4.21a7.57,7.57,0,0,1-.29-1.52,3.29,3.29,0,0,0-.47-1.75.59.59,0,0,1,.09-.78,1.5,1.5,0,0,1,1.76-.58,7,7,0,0,1,1.64.81,37.1,37.1,0,0,1,5.78,5.21c2.27,2.48,4.27,5.18,6.39,7.78a81.45,81.45,0,0,1,5.86,8.37c1.32,2.12,2.68,4.23,4,6.39.88,1.51,1.65,3.09,2.46,4.63l3.17,6c.84,1.58,1.7,3.16,2.55,4.74.18.34.35.67.55,1,2.4,3.8,4.74,7.64,7.23,11.37,1.65,2.48,3.53,4.8,5.31,7.19,1.5,2,3,4,4.54,6,1.68,2.17,3.18,4.46,4.73,6.72a36.55,36.55,0,0,1,4.48,9,10,10,0,0,0,.65,1.41,4.55,4.55,0,0,1,.56,2,1.55,1.55,0,0,1-1.23,1.8Z" fill="currentColor"/><path d="M-140.42-61.31a1.39,1.39,0,0,1,1.14.64c1.44,1.81,2.83,3.67,4.34,5.42a19.75,19.75,0,0,1,2.44,3.41,29.73,29.73,0,0,0,2.2,3.11c1.84,2.59,3.7,5.16,5.51,7.78,1.16,1.68,2.18,3.46,3.34,5.15s2.33,3.25,3.53,4.84,2.65,3.36,3.92,5.07c1.8,2.4,3.59,4.81,5.18,7.36s3.27,5.14,4.88,7.73c2.46,4,4.61,8.16,6.85,12.27,1,1.8,1.92,3.61,2.94,5.39.91,1.57,1.88,3.11,2.86,4.64,1.43,2.27,2.88,4.52,4.35,6.77.62.95,1.27,1.88,1.93,2.81q2.55,3.54,4.9,7.22c2.41,3.75,4.58,7.64,6.8,11.51,1.79,3.11,3.62,6.21,5.45,9.3,1.12,1.88,2.22,3.77,3.4,5.6q3.18,4.93,6.46,9.8c1,1.54,2.14,3,3.33,4.48a46.85,46.85,0,0,0,5.14,5A24.7,24.7,0,0,1-46,77.79a2.73,2.73,0,0,0,.33.43A30.9,30.9,0,0,1-41.85,83c.8,1,1.55,2.13,2.32,3.2,1,1.4,2,2.83,3,4.21.85,1.12,1.77,2.18,2.69,3.24,2.64,3.06,5.12,6.25,7.54,9.49,1.42,1.89,2.9,3.73,4.36,5.59.93,1.18,1.83,2.38,2.79,3.53,1.85,2.24,3.74,4.45,5.59,6.68,1.11,1.33,2.16,2.69,3.27,4q2.29,2.78,4.83,5.33c3,3,6.33,5.66,9.53,8.44q3.93,3.42,7.76,7a52.58,52.58,0,0,0,5.41,4.49,46.54,46.54,0,0,1,6.85,6.54,1,1,0,0,1,.31,1.1.5.5,0,0,1-.74.26,3.49,3.49,0,0,1-.49-.45,5.06,5.06,0,0,0-2.33-1.53,3.71,3.71,0,0,1-1.27-.71c-1-.8-2-1.55-3-2.3-1.33-1-2.65-2-3.89-3.14C11,146.33,9,144.88,7.3,143.24a71.6,71.6,0,0,0-7.06-5.65,37.69,37.69,0,0,1-5.41-4.69A102.06,102.06,0,0,0-14,124.72c-2.28-1.91-4.58-3.8-6.81-5.77a50.54,50.54,0,0,1-5.61-5.9c-1.27-1.55-2.57-3.06-3.83-4.62-1.08-1.34-2.1-2.73-3.17-4.09-1.35-1.71-2.58-3.51-3.81-5.32s-2.45-3.39-3.71-5c-.93-1.23-1.91-2.43-2.89-3.62a4.77,4.77,0,0,0-.71-.6c-.06.16-.13.25-.1.3a36.52,36.52,0,0,1,1.85,6.37c.56,2.32,1,4.67,1.44,7,.59,2.78,1,5.58,1.43,8.38a58.6,58.6,0,0,0,2,9.66,24.68,24.68,0,0,0,2.34,5.35c.47.77.87,1.6,1.38,2.34.92,1.36,1.89,2.67,2.84,4,.1.15.26.3.28.45a.82.82,0,0,1-.08.61.62.62,0,0,1-.56.19,6,6,0,0,1-2.21-1.21c-1.11-1.07-2.29-2-3.36-3.15a44.7,44.7,0,0,1-6-7.71,46,46,0,0,1-4.6-10.59c-1.65-5.27-3.28-10.55-5-15.81-1.37-4.27-2.8-8.52-4.25-12.76a73.54,73.54,0,0,0-3.07-7.43c-1.55-3.29-3.43-6.41-5.2-9.59-.64-1.15-1.36-2.25-2.06-3.37-2.18-3.52-4.14-7.17-6-10.84l-2.64-5.09c-.46-.89-.85-1.81-1.35-2.67-1.85-3.2-3.37-6.55-5-9.85-1-2-2-4.08-3-6.09a92,92,0,0,0-5.08-8.41c-.93-1.4-1.8-2.84-2.71-4.26-1.12-1.76-2.23-3.53-3.37-5.28-1.33-2.06-2.66-4.13-4-6.16a58.33,58.33,0,0,1-3-5.37,96.74,96.74,0,0,0-5.37-9.65c-1.43-2.1-2.71-4.3-4.1-6.43-2-3.13-4.17-6.18-6.45-9.13-1.55-2-3-4.15-4.42-6.22L-127-36.78c-1.13-1.59-2.29-3.17-3.37-4.79a8.39,8.39,0,0,1-.91-2,16.48,16.48,0,0,0-1.34-3c-.93-1.62-1.95-3.17-3-4.73-1.36-2-2.62-4.15-3.89-6.25a4,4,0,0,1-.77-2.68A4.77,4.77,0,0,0-140.42-61.31Z" fill="currentColor"/><path d="M-55.52-116.23a13.62,13.62,0,0,1,.46,1.59,29.07,29.07,0,0,0,1.52,5c.36,1.05.75,2.09,1.12,3.14a5.92,5.92,0,0,0,1.36,2.23c2.3,2.34,4.54,4.74,6.85,7.08a35.24,35.24,0,0,0,4.61,3.54c1.77,1.27,3.56,2.51,5.23,3.88,1.28,1.06,2.4,2.31,3.59,3.47a53.16,53.16,0,0,1,4.7,6,2.61,2.61,0,0,0,.41.56,8.62,8.62,0,0,1,2.21,3.31,40,40,0,0,0,2.6,4.26c.92,1.4,1.82,2.8,2.8,4.14a32.49,32.49,0,0,0,4.65,5.5,51.51,51.51,0,0,1,4,4.22Q-7-55.67-4.74-53a55.21,55.21,0,0,1,7.89,12,62.69,62.69,0,0,0,3.66,6.86c1,1.55,1.9,3.17,2.93,4.71,1.45,2.2,2.95,4.37,4.47,6.52a56.84,56.84,0,0,0,3.72,4.47c.52.59,1.05,1.17,1.58,1.75a15,15,0,0,0,2.32,2.19.47.47,0,0,1,.18.61.6.6,0,0,1-.64.42,1.31,1.31,0,0,1-.4-.1,2.87,2.87,0,0,1-.49-.26,45.44,45.44,0,0,1-8.75-7A74.16,74.16,0,0,1,4.64-29.5a23.41,23.41,0,0,0-2.39-2.88,33.68,33.68,0,0,0-4.83-4.57,10.67,10.67,0,0,0-.93-.56c.15,1.08.28,2,.4,2.87.29,2.25.63,4.49.87,6.74a96.21,96.21,0,0,0,1.91,12c.89,3.68,1.64,7.4,2.51,11.09C2.6-3,3.13-1.28,3.64.45c.79,2.71,1.77,5.36,2.79,8a17.26,17.26,0,0,0,3.22,5.63,1.24,1.24,0,0,1,.13.33c-.09.1-.19.29-.33.34a2.09,2.09,0,0,1-.66,0,.2.2,0,0,1-.12-.06,12.78,12.78,0,0,1-3.35-3.25C4.84,10.59,4.21,9.83,3.7,9A53.15,53.15,0,0,1-1.47-2.19C-2.31-4.78-3.12-7.39-3.88-10-5-14-6.09-18-7.26-22c-1.26-4.26-2.52-8.51-3.92-12.73-1.32-3.94-2.77-7.85-4.26-11.73-.77-2-1.75-3.88-2.68-5.8-1.47-3-3-6.05-4.47-9.08-.45-.92-.85-1.85-1.29-2.77a4.17,4.17,0,0,0-1-1.49.91.91,0,0,1-.33-.58,3,3,0,0,0-.7-1.63q-3.72-5.61-7.91-10.89c-2-2.54-4.11-5-6.35-7.34-2.48-2.57-4.71-5.34-7-8a13.35,13.35,0,0,1-1.2-1.52,12.85,12.85,0,0,0-2.72-2.74,15.82,15.82,0,0,1-3.38-4.2,16.34,16.34,0,0,1-2-6.72,19.21,19.21,0,0,1,.09-4.42,13.57,13.57,0,0,1,.42-1.89C-56-115.78-55.77-115.93-55.52-116.23Z" fill="currentColor"/></pattern></defs><rect width="283.46" height="283.46" fill="url(#a)"/></svg>
