<svg xmlns="http://www.w3.org/2000/svg" xmlns:xlink="http://www.w3.org/1999/xlink" viewBox="0 0 283.46 283.46"><defs><pattern id="a" width="283.46" height="283.46" patternUnits="userSpaceOnUse" viewBox="0 0 283.46 283.46"><rect width="283.46" height="283.46" fill="none"/><path d="M275.49,296.64a5.72,5.72,0,0,1-2.35,4.82,25.36,25.36,0,0,1-7.68,3.83,2.25,2.25,0,0,1-1.17.09,1.72,1.72,0,0,1-.92-.69.78.78,0,0,1,.35-1c.39-.27.82-.49,1.23-.73q2.3-1.31,4.58-2.62c.21-.12.43-.23.62-.36,2.83-1.94,3.24-3.18,2.3-6.29-.36-1.22-.8-2.43-1.2-3.64a11.26,11.26,0,0,1,1.91-10.86,26.28,26.28,0,0,1,5.35-5.13,1.26,1.26,0,0,1,1.56-.09,1.5,1.5,0,0,1,.73,1.43,1.88,1.88,0,0,1-.49,1c-.69.66-1.45,1.25-2.2,1.85a16.44,16.44,0,0,0-3.84,4.55,7.58,7.58,0,0,0-.69,6.68c.4,1.22.85,2.42,1.19,3.65S275.25,295.47,275.49,296.64Z" fill="currentColor"/><path d="M187.11,306.48a12.9,12.9,0,0,1-.91,4.64c-.91,2-1.92,4-2.92,6a2.43,2.43,0,0,1-.76.89,1,1,0,0,1-.87.1,1.11,1.11,0,0,1-.43-.77,1.9,1.9,0,0,1,.17-.93c.45-1.2.87-2.41,1.4-3.56a21.32,21.32,0,0,0,1.8-5.69,7.5,7.5,0,0,0-2-6.41c-1.64-1.85-3.33-3.67-4.95-5.55a22.07,22.07,0,0,1-2.29-3.07,7.34,7.34,0,0,1,.21-8.35A19.6,19.6,0,0,1,179,280.1a1.24,1.24,0,0,1,1.9.16,1.36,1.36,0,0,1,0,1.94c-.43.48-1,.86-1.37,1.34a33.8,33.8,0,0,0-2.36,3,3.88,3.88,0,0,0,.06,4.51,24,24,0,0,0,2.08,2.63c1.69,1.93,3.43,3.8,5.11,5.73A10.4,10.4,0,0,1,187.11,306.48Z" fill="currentColor"/><path d="M83.2,279.07A1.65,1.65,0,0,1,83,276c4.17-2.49,8.11-3.53,13.09.25A24.78,24.78,0,0,1,99,278.76a12,12,0,0,0,9.33,3.58c2.39-.06,4.77-.36,7.16-.59,1.59-.16,3.17-.4,4.75-.57a6.69,6.69,0,0,1,1.67,0c.23,0,.48.38.58.64a.77.77,0,0,1-.24.62,2.11,2.11,0,0,1-.81.46,15.19,15.19,0,0,1-2.52.76A69.07,69.07,0,0,1,108,284.81a13.11,13.11,0,0,1-9.36-3.62l-1.94-1.79c-.29-.27-.58-.55-.88-.8-3.72-3-7-3.27-11.2-.57C84.13,278.33,83.7,278.69,83.2,279.07Z" fill="currentColor"/><path d="M295.74,169.82a2.91,2.91,0,0,1-2.59-2.51,20.94,20.94,0,0,1-.48-3.54c-.12-1.43-.18-2.87-.26-4.3a3.52,3.52,0,0,0-2.82-3.44c-.84-.24-1.7-.4-2.56-.59-1.32-.3-2.67-.51-4-.9a8.4,8.4,0,0,1-6.28-6.55,13.08,13.08,0,0,1-.17-5.46c.31-1.65.75-3.27,1.18-4.89a6.07,6.07,0,0,1,.67-1.52,1.41,1.41,0,0,1,2.08-.47,1.24,1.24,0,0,1,.63,1.8,20.39,20.39,0,0,0-1.74,6.44,10.74,10.74,0,0,0,.33,4.51,5.25,5.25,0,0,0,3.81,3.93,23.21,23.21,0,0,0,2.34.51c1.17.22,2.37.37,3.53.66a7.59,7.59,0,0,1,5.09,3.67,9,9,0,0,1,.93,3.92c.07,1.12,0,2.24,0,3.36.06,1.35.2,2.7.29,4.05C295.79,168.88,295.75,169.26,295.74,169.82Z" fill="currentColor"/><path d="M312.86,74.1c-.39,0-.82.19-1.11.05-2.93-1.42-5.13.07-7.06,1.94a12.16,12.16,0,0,0-2.3,3.6,49.74,49.74,0,0,0-2.26,5.8,7.72,7.72,0,0,1-5.68,5.29,39.58,39.58,0,0,1-9,1.08,4.07,4.07,0,0,1-1.82-.44,1.15,1.15,0,0,1-.55-.94c0-.27.44-.6.76-.73A4.49,4.49,0,0,1,285,89.6c2.37-.3,4.76-.51,7.11-.93A6.88,6.88,0,0,0,298,83.43a34.75,34.75,0,0,1,2.76-6.87,8.93,8.93,0,0,1,5.39-4.79,23.24,23.24,0,0,1,3.75-.58,2.51,2.51,0,0,1,2,.7C312.47,72.4,312.5,72.45,312.86,74.1Z" fill="currentColor"/><path d="M288.86,43c-.13,1-.38,2.79-.6,4.61a12.76,12.76,0,0,0,.13,5.22,6.17,6.17,0,0,0,3.53,4.26,9.45,9.45,0,0,1,1.72.84,1.55,1.55,0,0,1,.52,1c.06.4-.55.72-1.1.62a8.47,8.47,0,0,1-6.5-4.73,12.41,12.41,0,0,1-1.12-7.46c.17-1.19.36-2.37.53-3.55.08-.55.09-1.11.17-1.67.41-2.86-1-4.72-3.38-6-.85-.45-1.74-.8-2.57-1.29a8.83,8.83,0,0,1-1.68-1.31,2,2,0,0,1-.49-1.05,1,1,0,0,1,.25-.84.93.93,0,0,1,.84-.23c2.68,1.54,5.69,2.55,7.77,5A8.88,8.88,0,0,1,288.86,43Z" fill="currentColor"/><path d="M289.79,201.74c-1.06-.15-2.65-.31-4.22-.6a21.16,21.16,0,0,0-11.05,1.25,8.66,8.66,0,0,0-4.54,3.73,10.17,10.17,0,0,1-.87,1.42,1.57,1.57,0,0,1-1,.49,1.16,1.16,0,0,1-1-1.14,3.23,3.23,0,0,1,.27-1.15,10.27,10.27,0,0,1,6-5.83c3.89-1.37,7.87-2.19,12-1.47a27.23,27.23,0,0,0,12.33-.84c1.69-.48,3.39-.91,5.1-1.34a8.12,8.12,0,0,1,1.41-.2.75.75,0,0,1,.87.63,1.75,1.75,0,0,1-.32,1.07,1.66,1.66,0,0,1-.78.52,50.42,50.42,0,0,1-12.46,3.37C291.12,201.7,290.72,201.69,289.79,201.74Z" fill="currentColor"/><path d="M82.84,17.38c-3.51.5-5.87,2.8-8.3,5a6.12,6.12,0,0,0-2.09,4.44c-.06,1.27-.16,2.55-.19,3.83a14,14,0,0,1-5.63,11.16,32.73,32.73,0,0,1-8,4.74,19.28,19.28,0,0,1-3,.82,2,2,0,0,1-2-.64.72.72,0,0,1,.19-1.19,4.15,4.15,0,0,1,.68-.22c3.21-.67,5.88-2.43,8.52-4.25a24.19,24.19,0,0,0,2.25-1.79A12.73,12.73,0,0,0,69.77,30c.08-1.35.09-2.71.16-4.07a7.77,7.77,0,0,1,2.65-5.47,27.17,27.17,0,0,1,5.53-4.18,19.36,19.36,0,0,1,2-.88,2,2,0,0,1,1.85.11A1.77,1.77,0,0,1,82.84,17.38Z" fill="currentColor"/><path d="M23.34,147.66a3.93,3.93,0,0,1,2.55-.87,15.21,15.21,0,0,0,7-2.91,7.86,7.86,0,0,0,2.92-5.31c.18-1.27.33-2.54.47-3.81a13.47,13.47,0,0,1,6.11-9.87,21,21,0,0,1,6.67-3.19,12.3,12.3,0,0,1,3.3-.42c1.38,0,1.81.88,1.44,2.51a16.92,16.92,0,0,0-13.17,7,13.57,13.57,0,0,0-2,6.07c-.15,1.27-.28,2.55-.52,3.8a8.27,8.27,0,0,1-3.62,5.44,16.18,16.18,0,0,1-7.8,2.83A3.27,3.27,0,0,1,23.34,147.66Z" fill="currentColor"/><path d="M184.19,186.91c.56,1.64.52,2.14-.34,2.76a11.28,11.28,0,0,1-2.28,1.32,32.24,32.24,0,0,1-8.48,2.47,14.71,14.71,0,0,1-3.11,0,6.7,6.7,0,0,1-5.11-3.18c-.6-1-1.13-1.94-1.63-2.94a5.48,5.48,0,0,0-5.38-3.29,21.47,21.47,0,0,0-5.71.51,4.92,4.92,0,0,0-2.11,1,1.31,1.31,0,0,1-2.21-.22c-.8-1.06-.61-1.89.62-2.5a18,18,0,0,1,6-1.45,22.88,22.88,0,0,1,4.3,0,7.35,7.35,0,0,1,6.13,4.05c.38.7.75,1.41,1.09,2.13a5,5,0,0,0,5.48,3,27.34,27.34,0,0,0,5.17-.93c2-.58,3.89-1.44,5.83-2.17Z" fill="currentColor"/><path d="M76.9,126c1.41.21,2.86.32,4.25.64a9.35,9.35,0,0,1,6.81,5.5c.58,1.32,1.05,2.68,1.56,4,.19.52.33,1.07.53,1.59a4.75,4.75,0,0,0,4.71,3.4,25.73,25.73,0,0,0,4.29-.31c2.2-.34,4.39-.81,6.58-1.23a1.58,1.58,0,0,1,.71-.05c.27.08.63.25.72.47a1,1,0,0,1-.2.85,3.63,3.63,0,0,1-1.14.84,11.13,11.13,0,0,1-2,.69c-2.1.48-4.21.91-6.31,1.35l-.24,0c-5,.63-7.93-1.14-9.7-5.81-.48-1.26-.9-2.56-1.32-3.85a6.89,6.89,0,0,0-5.65-4.9c-2.46-.48-4.89-.74-7.28.33a4.87,4.87,0,0,1-1.62.33,1.1,1.1,0,0,1-1.07-.81,1.17,1.17,0,0,1,.45-1.47A11.1,11.1,0,0,1,76.9,126Z" fill="currentColor"/><path d="M12.27,169.82a2.92,2.92,0,0,1-2.59-2.51,20,20,0,0,1-.47-3.54c-.13-1.43-.19-2.87-.26-4.3A3.53,3.53,0,0,0,6.13,156c-.84-.24-1.71-.4-2.56-.59-1.33-.3-2.68-.51-4-.9A8.38,8.38,0,0,1-6.68,148a13.25,13.25,0,0,1-.18-5.46c.32-1.65.75-3.27,1.18-4.89A6.45,6.45,0,0,1-5,136.12a1.42,1.42,0,0,1,2.08-.47,1.24,1.24,0,0,1,.64,1.8A20.13,20.13,0,0,0-4,143.89a10.74,10.74,0,0,0,.32,4.51,5.27,5.27,0,0,0,3.82,3.93,23,23,0,0,0,2.33.51c1.18.22,2.37.37,3.53.66a7.54,7.54,0,0,1,5.09,3.67,8.83,8.83,0,0,1,.93,3.92c.07,1.12,0,2.24,0,3.36.06,1.35.19,2.7.28,4.05A12.54,12.54,0,0,1,12.27,169.82Z" fill="currentColor"/><path d="M190.89,123.69c-3,1.14-4.45,3-4.31,5.59a7.79,7.79,0,0,0,.73,2.75,39.54,39.54,0,0,0,2.13,3.74,48,48,0,0,1,3.91,6.59,7.63,7.63,0,0,1-.36,7.34,19.53,19.53,0,0,1-1.8,2.52,18.1,18.1,0,0,1-4.66,3.73,4.67,4.67,0,0,1-1.79.49.81.81,0,0,1-.67-1.22,9.44,9.44,0,0,1,1.23-1.45c.93-.88,1.93-1.67,2.85-2.56a18.25,18.25,0,0,0,2.08-2.32,5.53,5.53,0,0,0,.57-6.09c-.55-1.07-1.19-2.08-1.83-3.09-.93-1.49-1.92-3-2.84-4.45a13.43,13.43,0,0,1-1.88-4.64,8.58,8.58,0,0,1,4.33-9.56,1.37,1.37,0,0,1,2.21.9A10.34,10.34,0,0,1,190.89,123.69Z" fill="currentColor"/><path d="M100.59,113l1.76-1.66c1.15-1.11,2.33-2.18,3.42-3.35a5.73,5.73,0,0,0,1.57-5.51,30.92,30.92,0,0,0-1.26-3.85c-.55-1.41-1.27-2.75-1.81-4.17a9.64,9.64,0,0,1,1.66-10.3A17.14,17.14,0,0,1,110.87,80a4.76,4.76,0,0,1,1.09-.46,1.22,1.22,0,0,1,1.44.56,1.44,1.44,0,0,1-.32,1.92,6.87,6.87,0,0,1-.81.51,14.58,14.58,0,0,0-4.46,3.92,6.8,6.8,0,0,0-1.17,7.38c.56,1.41,1.21,2.78,1.87,4.15a17.45,17.45,0,0,1,1.48,4.78,8.26,8.26,0,0,1-1.58,6.56,15.62,15.62,0,0,1-5.47,4.55C102.08,114.31,101.24,114.29,100.59,113Z" fill="currentColor"/><path d="M83.09,90.83a3.29,3.29,0,0,1-2.35.07c-3.15-.87-6.3-1.77-9.44-2.67-.46-.13-.89-.34-1.34-.51a15.25,15.25,0,0,1-9.39-9.61A21.89,21.89,0,0,0,59.24,75a7.56,7.56,0,0,0-9.71-3.23c-.82.41-1.49.56-2.17-.1a1.25,1.25,0,0,1,.2-2,7.4,7.4,0,0,1,2.19-.94c3.93-.67,7.48,0,10.17,3.27a14.93,14.93,0,0,1,2.66,4.52c.06.15.11.3.16.45a12.59,12.59,0,0,0,8,8.32c1.86.72,3.74,1.37,5.63,2s3.78,1.27,5.66,2C82.72,89.53,83.4,89.86,83.09,90.83Z" fill="currentColor"/><path d="M168,125c-.21,0-.42,0-.51-.07a2.63,2.63,0,0,1-.75-.86c-.06-.18.2-.61.43-.74,1-.58,2-1,2.91-1.65a28.65,28.65,0,0,0,3.23-2.46,5.08,5.08,0,0,0,1.73-4.52c-.17-1.42-.43-2.84-.7-4.25a17.91,17.91,0,0,1,.19-8.3,11.25,11.25,0,0,1,1.22-2.85,17.86,17.86,0,0,1,8.6-7.33c.94-.38,1.78-.19,2.07.48a1.58,1.58,0,0,1-.91,2.16,17.14,17.14,0,0,0-5.63,4,11.65,11.65,0,0,0-3.32,10.76c.14.86.31,1.72.52,2.58a17.28,17.28,0,0,1,.36,4.76,6.75,6.75,0,0,1-2.26,4.86,14.13,14.13,0,0,1-6.28,3.34A8,8,0,0,1,168,125Z" fill="currentColor"/><path d="M41.68,21.49c-1.36,1.05-2.62,1.91-3.74,2.91A31.41,31.41,0,0,0,34.38,28c-1.94,2.38-1.85,4.84.08,7.18.87,1,1.79,2,2.62,3.13a28.34,28.34,0,0,1,2.15,3.16,8.34,8.34,0,0,1,0,8.48,18.63,18.63,0,0,1-5,5.74,2.37,2.37,0,0,1-1.07.44A.82.82,0,0,1,32.23,55a9,9,0,0,1,.86-1.43c.86-1.15,1.72-2.3,2.63-3.42a11.24,11.24,0,0,0,1.78-3.37A5,5,0,0,0,37,42c-1.15-1.62-2.41-3.18-3.68-4.72a12.06,12.06,0,0,1-2.18-3.42,7.38,7.38,0,0,1,1.12-7.68,30.74,30.74,0,0,1,6.35-5.8,4.56,4.56,0,0,1,.82-.49,1.35,1.35,0,0,1,1.82.63A6.25,6.25,0,0,1,41.68,21.49Z" fill="currentColor"/><path d="M42.34,7.8c-1.06-.15-2.66-.31-4.22-.6a21.26,21.26,0,0,0-11,1.26,8.59,8.59,0,0,0-4.54,3.72,9.46,9.46,0,0,1-.88,1.43,1.51,1.51,0,0,1-1,.48,1.15,1.15,0,0,1-1-1.14,3.17,3.17,0,0,1,.27-1.14,10.33,10.33,0,0,1,6-5.84,23.69,23.69,0,0,1,12-1.47,27.23,27.23,0,0,0,12.33-.83c1.68-.48,3.39-.91,5.09-1.34a8.38,8.38,0,0,1,1.42-.21.76.76,0,0,1,.87.64,1.72,1.72,0,0,1-.32,1.06,1.57,1.57,0,0,1-.79.52A50.25,50.25,0,0,1,44.07,7.72C43.67,7.76,43.27,7.76,42.34,7.8Z" fill="currentColor"/><path d="M93.64,195.13A5.71,5.71,0,0,1,91.3,200a25.22,25.22,0,0,1-7.69,3.84,2.23,2.23,0,0,1-1.17.08,1.63,1.63,0,0,1-.91-.68.78.78,0,0,1,.35-1c.39-.28.82-.49,1.23-.73l4.58-2.62c.21-.12.42-.23.62-.37,2.82-1.93,3.23-3.18,2.3-6.28-.37-1.23-.8-2.43-1.2-3.64a11.23,11.23,0,0,1,1.91-10.86,25.72,25.72,0,0,1,5.34-5.13,1.28,1.28,0,0,1,1.57-.09,1.48,1.48,0,0,1,.72,1.42,1.75,1.75,0,0,1-.49,1c-.69.66-1.45,1.26-2.2,1.85a17,17,0,0,0-3.84,4.56,7.64,7.64,0,0,0-.69,6.68c.41,1.21.86,2.41,1.19,3.65S93.41,194,93.64,195.13Z" fill="currentColor"/><path d="M275.49,13.17A5.69,5.69,0,0,1,273.14,18a24.91,24.91,0,0,1-7.68,3.83,2.15,2.15,0,0,1-1.17.09,1.65,1.65,0,0,1-.92-.68.77.77,0,0,1,.35-1c.39-.28.82-.49,1.23-.73l4.58-2.62a6.34,6.34,0,0,0,.62-.37c2.83-1.93,3.24-3.18,2.3-6.28-.36-1.23-.8-2.43-1.2-3.65A11.24,11.24,0,0,1,273.16-4.3a26,26,0,0,1,5.35-5.13,1.26,1.26,0,0,1,1.56-.09,1.49,1.49,0,0,1,.73,1.42,1.88,1.88,0,0,1-.49,1c-.69.66-1.45,1.26-2.2,1.85a16.63,16.63,0,0,0-3.84,4.56A7.58,7.58,0,0,0,273.58,6c.4,1.21.85,2.41,1.19,3.64S275.25,12,275.49,13.17Z" fill="currentColor"/><path d="M150.23,208.26c.35,1.07-.06,1.53-.75,1.69a16.36,16.36,0,0,1-2.6.41,32.23,32.23,0,0,1-11.15-1,16.84,16.84,0,0,1-8.46-5.15,23.68,23.68,0,0,0-3-2.74,4.38,4.38,0,0,0-4.51-.63,20,20,0,0,0-4.89,2.49A1.26,1.26,0,0,1,113,203a1.37,1.37,0,0,1,0-1.76,1.29,1.29,0,0,1,.16-.17,14.8,14.8,0,0,1,8-3.36,6.56,6.56,0,0,1,4.63,1.65,15.57,15.57,0,0,1,2,2c3.37,4.06,7.85,5.9,13,6.4,2.3.22,4.62.22,6.93.33C148.59,208.16,149.38,208.21,150.23,208.26Z" fill="currentColor"/><path d="M134.17,37.62a33.39,33.39,0,0,1-7.84-1,12.06,12.06,0,0,1-6.66-4,7.15,7.15,0,0,1-1.79-4.1c-.08-1.19-.25-2.38-.38-3.57a5.63,5.63,0,0,0-2.65-4.34,16,16,0,0,0-6.26-2.29c-.94-.15-1.9-.23-2.84-.41a1.51,1.51,0,0,1-1.25-1.29.94.94,0,0,1,.71-1.08,2,2,0,0,1,.47-.06,20.32,20.32,0,0,1,10,3,10.41,10.41,0,0,1,3.5,3.87,6.54,6.54,0,0,1,.63,2,35.84,35.84,0,0,1,.43,3.57,5.79,5.79,0,0,0,2.93,4.69,16.21,16.21,0,0,0,6.77,2.25c2.38.27,4.78.34,7.18.5a9,9,0,0,1,1.65.16.93.93,0,0,1,.55.68.88.88,0,0,1-.42.74,7,7,0,0,1-1.84.46C136.09,37.58,135.13,37.57,134.17,37.62Z" fill="currentColor"/><path d="M187.11,23a12.82,12.82,0,0,1-.91,4.64c-.91,2-1.92,4-2.92,6a2.46,2.46,0,0,1-.76.9,1,1,0,0,1-.87.09,1.11,1.11,0,0,1-.43-.77,1.92,1.92,0,0,1,.17-.93c.45-1.19.87-2.4,1.4-3.56a21.25,21.25,0,0,0,1.8-5.68,7.49,7.49,0,0,0-2-6.41c-1.64-1.86-3.33-3.67-4.95-5.55a22.67,22.67,0,0,1-2.29-3.07A7.35,7.35,0,0,1,175.6.34,19.85,19.85,0,0,1,179-3.36a1.23,1.23,0,0,1,1.9.16,1.36,1.36,0,0,1,0,1.94c-.43.47-1,.85-1.37,1.34a32.41,32.41,0,0,0-2.36,3,3.88,3.88,0,0,0,.06,4.51,25,25,0,0,0,2.08,2.63C181,12.14,182.76,14,184.44,16A10.38,10.38,0,0,1,187.11,23Z" fill="currentColor"/><path d="M158.91,53.79a2.57,2.57,0,0,1-.53,2.87,31,31,0,0,1-3.45,2.94,37.66,37.66,0,0,1-8.52,4.3,11.46,11.46,0,0,1-8.63,0c-3.63-1.56-6.72-.57-9.28,2.24a44,44,0,0,0-2.72,3.63c-.23.32-.36.71-.6,1a.76.76,0,0,1-.61.27,1.25,1.25,0,0,1-.65-.59,1.45,1.45,0,0,1,0-.92c1.44-4.24,4.6-8.43,9.89-8.87a8.71,8.71,0,0,1,3.3.38c.69.2,1.35.48,2,.72a7.16,7.16,0,0,0,4.46.14,35.22,35.22,0,0,0,12.32-6.18A10.08,10.08,0,0,1,158.91,53.79Z" fill="currentColor"/><path d="M83.2-4.4A1.74,1.74,0,0,1,82-6a1.76,1.76,0,0,1,1-1.51C87.21-10,91.15-11,96.13-7.26A25.66,25.66,0,0,1,99-4.71a12,12,0,0,0,9.33,3.59c2.39-.06,4.77-.36,7.16-.6,1.59-.15,3.17-.39,4.75-.57a6.68,6.68,0,0,1,1.67,0c.23,0,.48.37.58.63a.76.76,0,0,1-.24.62,2.27,2.27,0,0,1-.81.47,16.21,16.21,0,0,1-2.52.76A70.26,70.26,0,0,1,108,1.35a13.11,13.11,0,0,1-9.36-3.62L96.67-4.06c-.29-.27-.58-.55-.88-.81-3.72-3-7-3.26-11.2-.56C84.13-5.14,83.7-4.77,83.2-4.4Z" fill="currentColor"/><path d="M96.32,56.57a6.68,6.68,0,0,0-1.41-4.15c-.87-1.34-1.83-2.62-2.72-4a14.13,14.13,0,0,1-2.53-6.15c-.52-4.07,1.2-6.34,4-8a1.24,1.24,0,0,1,2,.61,1.07,1.07,0,0,1-.34,1.47c-.19.15-.42.25-.61.39a5.65,5.65,0,0,0-2.35,6.5A11.75,11.75,0,0,0,94,47c.8,1.19,1.64,2.36,2.45,3.54a13.77,13.77,0,0,1,2.46,5.42,7.49,7.49,0,0,1-1.12,5.73,15.12,15.12,0,0,1-7,5.66,2.73,2.73,0,0,1-2.08.21.8.8,0,0,1-.34-1.34,16.94,16.94,0,0,1,1.6-1,17,17,0,0,0,5.43-5.32A4.79,4.79,0,0,0,96.32,56.57Z" fill="currentColor"/><path d="M173.67,153a1.33,1.33,0,0,1,.31,2,6.23,6.23,0,0,1-1.19,1.16c-2.43,1.92-5.32,2.88-8.2,3.86a31,31,0,0,1-3,.8,10.09,10.09,0,0,1-9.23-2.05c-.61-.51-1.21-1-1.84-1.53a6.58,6.58,0,0,0-8,.14c-.26.18-.44.46-.69.65a.94.94,0,0,1-1.26-.32,1.64,1.64,0,0,1,0-2.2,5.5,5.5,0,0,1,1.7-1.26,16.93,16.93,0,0,1,5.12-1.2,4.42,4.42,0,0,1,3.54,1.14c.72.63,1.43,1.28,2.12,1.95a7.69,7.69,0,0,0,7.53,2,35.4,35.4,0,0,0,10.89-4.28,15.18,15.18,0,0,1,1.7-.88A1.4,1.4,0,0,1,173.67,153Z" fill="currentColor"/><path d="M29.39,74.1c-.38,0-.81.19-1.1.05-2.93-1.42-5.13.07-7.07,1.94a12.34,12.34,0,0,0-2.29,3.6,48.08,48.08,0,0,0-2.27,5.8A7.69,7.69,0,0,1,11,90.78a39.71,39.71,0,0,1-9,1.08,4.08,4.08,0,0,1-1.83-.44,1.2,1.2,0,0,1-.55-.94c0-.27.45-.6.76-.73a4.54,4.54,0,0,1,1.18-.15c2.38-.3,4.77-.51,7.12-.93a6.87,6.87,0,0,0,5.88-5.24,34.75,34.75,0,0,1,2.76-6.87,9,9,0,0,1,5.4-4.79,23.3,23.3,0,0,1,3.74-.58,2.54,2.54,0,0,1,2,.7C29,72.4,29,72.45,29.39,74.1Z" fill="currentColor"/><path d="M55.4,109.19a10.51,10.51,0,0,1-6.9-2.7c-1.39-1.31-2.57-2.84-3.82-4.28-.26-.3-.41-.69-.64-1-1.46-2-2.34-2.63-5.36-1.65a15.77,15.77,0,0,0-2.51,1.37,1.48,1.48,0,0,1-2.12-.35,1.25,1.25,0,0,1,.12-1.74,10,10,0,0,1,7.08-2.45A4.17,4.17,0,0,1,44,97.63c.87.92,1.67,1.92,2.48,2.91s1.62,2.19,2.56,3.16a8.45,8.45,0,0,0,8.56,2.44c2.79-.69,5.54-1.56,8.3-2.34a4.89,4.89,0,0,1,1.4-.27,1,1,0,0,1,.74.46,1.18,1.18,0,0,1-.06.88,1.61,1.61,0,0,1-.66.66A36,36,0,0,1,55.4,109.19Z" fill="currentColor"/><path d="M53.58,190.51a9.19,9.19,0,0,1-4.8-1.33A7.67,7.67,0,0,1,45.93,186c-.52-1.16-1-2.36-1.42-3.56-.25-.67-.47-1.35-.7-2-1-2.94-3.37-4.32-6.53-4.19A15.13,15.13,0,0,0,30,178.47c-.61.37-1.21.78-1.85,1.1a1.15,1.15,0,0,1-1.34-.16c-.5-.42-.81-1.27-.48-1.72,1-1.39,1.9-3,4-3a8.39,8.39,0,0,0,2.07-.56,14.75,14.75,0,0,1,6.63-.57,8.43,8.43,0,0,1,6.4,4.53,28.9,28.9,0,0,1,1.38,3.31c.37,1,.66,2,1,2.95a5.11,5.11,0,0,0,3.76,3.38c1.16.29,2.34.49,3.51.75.92.21,1.33.64,1.21,1.19-.17.7-.77.76-1.31.83A11.37,11.37,0,0,1,53.58,190.51Z" fill="currentColor"/><path d="M75.62,164c-1,0-2.08.06-3.12,0a8.41,8.41,0,0,1-7.09-4.24c-.53-.89-1.09-1.77-1.58-2.69-1.32-2.47-4-3.24-6.57-2.86a6.91,6.91,0,0,0-3.67,1.62,7,7,0,0,1-.75.6,1.33,1.33,0,0,1-1.75-.11,1.43,1.43,0,0,1-.43-1.73,3.21,3.21,0,0,1,1-1.26,11.78,11.78,0,0,1,6.75-2.11,8.5,8.5,0,0,1,6.92,3.7,24.68,24.68,0,0,1,1.73,2.88,6.28,6.28,0,0,0,5.37,3.46,46.73,46.73,0,0,0,8.85.08c.55,0,1.11-.11,1.67-.13s.87.18.86.63a1.3,1.3,0,0,1-.53,1,7.29,7.29,0,0,1-2.22.83c-1.81.28-3.64.41-5.47.6Z" fill="currentColor"/><path d="M201.16,61.52a2.48,2.48,0,0,1-.5,2.87,19.35,19.35,0,0,1-10.47,6.78,6,6,0,0,1-3.08,0c-1.22-.37-2.45-.72-3.66-1.11-1.06-.36-2.12-.74-3.16-1.15-3.53-1.4-7.31.63-9,2.8-.14.19-.25.41-.4.6s-.58.67-1,.46a1.58,1.58,0,0,1-.76-.83,2.4,2.4,0,0,1,0-1.38,4.06,4.06,0,0,1,.9-1.39c3.28-3.36,7-4.21,11.15-2.68,1.12.42,2.22.9,3.33,1.36A8.82,8.82,0,0,0,192,67.7a24.27,24.27,0,0,0,7.42-5.18C199.87,62,200.32,61.4,201.16,61.52Z" fill="currentColor"/><path d="M156.83,2.8a1.67,1.67,0,0,1-1,1.48c-1.12.61-2.22,1.25-3.27,2a5.93,5.93,0,0,0-1.4,1.29,4.37,4.37,0,0,0-.59,5.14,24.21,24.21,0,0,0,1.77,2.55c1.36,1.87,2.8,3.68,4.11,5.59,3,4.46,1.51,8.87-1,11.66a15.24,15.24,0,0,1-1.92,1.76.81.81,0,0,1-1.26-.14,1.38,1.38,0,0,1-.08-1.09,11.46,11.46,0,0,1,1-1.64c.39-.6.81-1.18,1.2-1.78,1.72-2.6,1.86-5.22,0-7.81-1.11-1.56-2.3-3.06-3.42-4.62-.88-1.22-1.76-2.46-2.54-3.75a7.45,7.45,0,0,1,2-9.25,15.87,15.87,0,0,1,3.67-2.23,5.09,5.09,0,0,1,1.38-.35A1.33,1.33,0,0,1,156.83,2.8Z" fill="currentColor"/><path d="M123.56,164c-.17.74-.43,2.15-.82,3.53-.48,1.69-1.08,3.34-1.61,5-.68,2.12-.33,3.6,2.11,5a18.5,18.5,0,0,0,2.64,1.08c.53.19,1.09.29,1.61.49.17.08.39.4.35.55a1.07,1.07,0,0,1-.48.71,6.55,6.55,0,0,1-4.21-.28,6.79,6.79,0,0,1-4.53-8.78c.39-1.38.86-2.74,1.3-4.11a23.23,23.23,0,0,0,.73-2.28,7.29,7.29,0,0,0-5.64-9.1c-.62-.15-1.26-.2-1.89-.32a3.57,3.57,0,0,1-.9-.26,1.44,1.44,0,0,1-.65-1.65,1.11,1.11,0,0,1,1.24-.9,15,15,0,0,1,3.29.56C120.51,154.68,123.37,158.21,123.56,164Z" fill="currentColor"/><path d="M134.32,114.86a14,14,0,0,1-1.81,6.23c-.7,1.35-1.51,2.64-2.12,4a19.69,19.69,0,0,0-1.34,4.08,4.56,4.56,0,0,0,2.27,5.11,21.18,21.18,0,0,0,2.6,1.2,13.11,13.11,0,0,1,1.77.72,1.2,1.2,0,0,1,.46,1c-.05.3-.45.56-.71.82a.31.31,0,0,1-.23.05c-3.91-.3-7.8-2.19-8.64-6.56a9.63,9.63,0,0,1,.23-5,40.59,40.59,0,0,1,1.59-4c.61-1.3,1.32-2.55,2-3.81a11.53,11.53,0,0,0,1.29-4.34,3.46,3.46,0,0,0-2-4,1.88,1.88,0,0,1-1.29-1.57c-.09-1,.54-1.57,1.46-1.3a6,6,0,0,1,3.07,2.19A7.36,7.36,0,0,1,134.32,114.86Z" fill="currentColor"/><path d="M268.22,59.6a14.12,14.12,0,0,1-1.82,6.24c-.69,1.35-1.51,2.64-2.12,4a20.42,20.42,0,0,0-1.34,4.07,4.57,4.57,0,0,0,2.27,5.12,21.18,21.18,0,0,0,2.6,1.2,13.11,13.11,0,0,1,1.77.72,1.19,1.19,0,0,1,.46,1c-.05.3-.45.55-.71.82a.3.3,0,0,1-.23,0c-3.91-.3-7.8-2.19-8.64-6.56a9.63,9.63,0,0,1,.23-5,40.59,40.59,0,0,1,1.59-4c.61-1.3,1.33-2.55,2-3.81a11.53,11.53,0,0,0,1.29-4.34,3.46,3.46,0,0,0-2-3.95,1.85,1.85,0,0,1-1.29-1.57c-.1-1,.53-1.58,1.45-1.3a5.91,5.91,0,0,1,3.07,2.19A7.4,7.4,0,0,1,268.22,59.6Z" fill="currentColor"/><path d="M133,91.09c-.94-.51-1.29-1.1-1.16-1.89A1.81,1.81,0,0,1,133,87.79c3.42-1.39,7.39-1.51,9.61,2.89.5,1,.9,2,1.34,3.07a6,6,0,0,0,6.17,4,35.91,35.91,0,0,0,4.75-.5c1.81-.3,3.59-.77,5.38-1.15a11.23,11.23,0,0,1,1.89-.29c.26,0,.74.22.77.4a2.15,2.15,0,0,1-.15,1.33c-.16.29-.63.45-1,.59a35.71,35.71,0,0,1-10.23,2.29,16.36,16.36,0,0,1-4.49-.52A6.64,6.64,0,0,1,143,96.78,27.77,27.77,0,0,1,141.49,94c-.25-.5-.41-1-.64-1.54-1.41-3.12-4.14-3.87-7.06-2Z" fill="currentColor"/><path d="M19.82,123.29l-2-.1a6.52,6.52,0,0,1-5.93-4.49A20.26,20.26,0,0,1,11,114a20.43,20.43,0,0,0-.62-2.79,2.35,2.35,0,0,0-1.9-1.63,11.47,11.47,0,0,0-5,.25c-.54.13-1.06.36-1.61.45a1.35,1.35,0,0,1-1.51-.9,1.18,1.18,0,0,1,.4-1.48c1.78-1.18,7.13-1.6,9.08-.73a5.34,5.34,0,0,1,2.66,2.66,12.35,12.35,0,0,1,1.19,4.36A21.69,21.69,0,0,0,14.4,118a3.35,3.35,0,0,0,2.89,2.54,26.58,26.58,0,0,0,3.33.3c1.27,0,2.55-.11,3.82-.16a11.53,11.53,0,0,1,1.44,0,1.11,1.11,0,0,1,1.07.79c.13.41-.18.79-.8,1a5.05,5.05,0,0,1-.92.26c-.87.13-1.74.25-2.61.34S20.71,123.21,19.82,123.29Z" fill="currentColor"/><path d="M5.4,43c-.13,1-.38,2.79-.61,4.61a13.12,13.12,0,0,0,.13,5.22,6.16,6.16,0,0,0,3.54,4.26,9.69,9.69,0,0,1,1.71.84,1.56,1.56,0,0,1,.53,1c.05.4-.55.72-1.11.62a8.47,8.47,0,0,1-6.5-4.73A12.41,12.41,0,0,1,2,47.31c.16-1.19.36-2.37.52-3.55.08-.55.1-1.11.18-1.67.4-2.86-1-4.72-3.39-6-.84-.45-1.74-.8-2.56-1.29a8.53,8.53,0,0,1-1.68-1.31,2,2,0,0,1-.5-1.05,1.09,1.09,0,0,1,.26-.84.92.92,0,0,1,.84-.23c2.67,1.54,5.69,2.55,7.77,5A8.92,8.92,0,0,1,5.4,43Z" fill="currentColor"/><path d="M232.29,144.23a3.9,3.9,0,0,1,2.54-.87,15.17,15.17,0,0,0,7-2.91,7.86,7.86,0,0,0,2.92-5.31c.18-1.26.33-2.53.48-3.81a13.49,13.49,0,0,1,6.1-9.87,21.32,21.32,0,0,1,6.68-3.19,12.66,12.66,0,0,1,3.3-.42c1.37,0,1.81.88,1.44,2.52a16.92,16.92,0,0,0-13.18,7,13.74,13.74,0,0,0-2,6.07c-.14,1.27-.28,2.55-.51,3.8a8.32,8.32,0,0,1-3.63,5.44,16.3,16.3,0,0,1-7.8,2.84A3.25,3.25,0,0,1,232.29,144.23Z" fill="currentColor"/><path d="M207.8,168.26a2.91,2.91,0,0,1-.57-3.56,20.9,20.9,0,0,1,1.74-3.13c.76-1.22,1.57-2.4,2.37-3.6a3.54,3.54,0,0,0-.2-4.44c-.53-.69-1.13-1.34-1.7-2-.88-1-1.84-2-2.64-3.09a8.38,8.38,0,0,1-1.11-9,13.32,13.32,0,0,1,3.13-4.48c1.24-1.12,2.56-2.16,3.87-3.2a6.49,6.49,0,0,1,1.45-.83,1.43,1.43,0,0,1,2,.88,1.25,1.25,0,0,1-.57,1.82,20.24,20.24,0,0,0-5.25,4.12,10.55,10.55,0,0,0-2.44,3.8,5.26,5.26,0,0,0,.7,5.43,22.36,22.36,0,0,0,1.57,1.81c.8.89,1.67,1.72,2.43,2.64a7.59,7.59,0,0,1,1.88,6,9,9,0,0,1-1.61,3.7c-.61.93-1.36,1.78-2,2.7-.76,1.12-1.46,2.28-2.2,3.42A12.85,12.85,0,0,1,207.8,168.26Z" fill="currentColor"/><path d="M247.13,23.74c-1.36,1.05-2.62,1.91-3.74,2.91a31.32,31.32,0,0,0-3.55,3.55c-2,2.38-1.86,4.84.08,7.18.86,1,1.78,2,2.61,3.13a30.92,30.92,0,0,1,2.16,3.16,8.34,8.34,0,0,1-.05,8.48,18.55,18.55,0,0,1-5,5.75,2.35,2.35,0,0,1-1.07.43.82.82,0,0,1-.87-1.09,9,9,0,0,1,.86-1.43c.86-1.15,1.72-2.3,2.63-3.42A11.24,11.24,0,0,0,243,49a5,5,0,0,0-.53-4.8c-1.15-1.63-2.41-3.19-3.68-4.72a12.35,12.35,0,0,1-2.18-3.42,7.4,7.4,0,0,1,1.12-7.69,30.74,30.74,0,0,1,6.35-5.8,5.23,5.23,0,0,1,.82-.49,1.38,1.38,0,0,1,1.83.63A6.36,6.36,0,0,1,247.13,23.74Z" fill="currentColor"/><path d="M226.26,12.13c-1.07-.15-2.66-.31-4.23-.6A21.26,21.26,0,0,0,211,12.79a8.63,8.63,0,0,0-4.54,3.72,10.28,10.28,0,0,1-.87,1.43,1.55,1.55,0,0,1-1,.48,1.15,1.15,0,0,1-1-1.14,3.17,3.17,0,0,1,.27-1.14,10.32,10.32,0,0,1,6-5.84,23.64,23.64,0,0,1,12-1.47A27.21,27.21,0,0,0,234.16,8c1.69-.48,3.39-.91,5.1-1.34a8.27,8.27,0,0,1,1.41-.21.75.75,0,0,1,.87.64,1.72,1.72,0,0,1-.32,1.06,1.59,1.59,0,0,1-.78.52A50.44,50.44,0,0,1,228,12.05C227.59,12.09,227.18,12.09,226.26,12.13Z" fill="currentColor"/><path d="M238.34,70.67c-.39,0-.82.19-1.11,0-2.93-1.42-5.13.07-7.06,1.94a12.09,12.09,0,0,0-2.3,3.61,49.59,49.59,0,0,0-2.26,5.79,7.69,7.69,0,0,1-5.68,5.29,40.23,40.23,0,0,1-9,1.09A4.08,4.08,0,0,1,209.1,88a1.15,1.15,0,0,1-.55-.94c0-.27.44-.6.76-.73a4.49,4.49,0,0,1,1.18-.14c2.37-.31,4.76-.52,7.11-.94A6.89,6.89,0,0,0,223.49,80a34.83,34.83,0,0,1,2.75-6.87,8.94,8.94,0,0,1,5.4-4.79,22.2,22.2,0,0,1,3.75-.59,2.52,2.52,0,0,1,2,.71C238,69,238,69,238.34,70.67Z" fill="currentColor"/><path d="M259.31,103.26a10.46,10.46,0,0,1-6.91-2.69c-1.38-1.31-2.56-2.84-3.81-4.29-.26-.3-.42-.69-.65-1-1.46-2-2.34-2.63-5.36-1.64a15.26,15.26,0,0,0-2.5,1.37,1.5,1.5,0,0,1-2.13-.36,1.26,1.26,0,0,1,.13-1.74,10,10,0,0,1,7.07-2.45,4.22,4.22,0,0,1,2.79,1.25c.88.93,1.67,1.93,2.48,2.91S252,96.8,253,97.77a8.46,8.46,0,0,0,8.56,2.44c2.79-.69,5.54-1.56,8.31-2.34a5.26,5.26,0,0,1,1.39-.27,1,1,0,0,1,.74.47,1.11,1.11,0,0,1-.06.87,1.5,1.5,0,0,1-.66.66A36,36,0,0,1,259.31,103.26Z" fill="currentColor"/><path d="M267.15,180.76a9.31,9.31,0,0,1-4.8-1.33,7.65,7.65,0,0,1-2.84-3.18c-.53-1.16-1-2.36-1.42-3.56-.26-.67-.47-1.36-.7-2-1-3-3.37-4.32-6.53-4.19a15,15,0,0,0-7.26,2.26c-.61.37-1.21.77-1.85,1.1a1.15,1.15,0,0,1-1.34-.16c-.49-.42-.81-1.27-.48-1.73,1-1.38,1.9-3,4-3a8.39,8.39,0,0,0,2.07-.56,14.89,14.89,0,0,1,6.63-.58,8.42,8.42,0,0,1,6.4,4.54,29.26,29.26,0,0,1,1.39,3.31c.37,1,.66,2,1,2.95a5.1,5.1,0,0,0,3.75,3.38c1.16.29,2.35.49,3.51.75.93.21,1.34.64,1.21,1.19s-.76.75-1.31.82A11.35,11.35,0,0,1,267.15,180.76Z" fill="currentColor"/><path d="M228.76,119.87c-.7,0-1.34-.06-2-.11a6.52,6.52,0,0,1-5.94-4.49,21.25,21.25,0,0,1-.95-4.68,20.4,20.4,0,0,0-.61-2.79,2.37,2.37,0,0,0-1.91-1.62,11.12,11.12,0,0,0-5,.25c-.55.12-1.07.35-1.61.44a1.36,1.36,0,0,1-1.52-.9,1.16,1.16,0,0,1,.4-1.47c1.78-1.19,7.13-1.61,9.09-.73a5.34,5.34,0,0,1,2.65,2.65,12.58,12.58,0,0,1,1.2,4.36,20.78,20.78,0,0,0,.73,3.74,3.32,3.32,0,0,0,2.88,2.54,26.58,26.58,0,0,0,3.33.3c1.28,0,2.55-.11,3.83-.16a11.37,11.37,0,0,1,1.43,0,1.13,1.13,0,0,1,1.08.8c.12.4-.18.78-.8,1a4.36,4.36,0,0,1-.92.26c-.87.14-1.74.25-2.62.35Z" fill="currentColor"/><path d="M213.34,43c-.13,1-.38,2.79-.61,4.61a13.12,13.12,0,0,0,.13,5.22,6.16,6.16,0,0,0,3.54,4.26,9.69,9.69,0,0,1,1.71.84,1.51,1.51,0,0,1,.53,1c.05.4-.55.72-1.11.62a8.47,8.47,0,0,1-6.5-4.73,12.41,12.41,0,0,1-1.11-7.46c.16-1.19.36-2.37.52-3.55.08-.55.1-1.11.18-1.67.4-2.86-1-4.72-3.38-6-.85-.45-1.75-.8-2.57-1.29A8.53,8.53,0,0,1,203,33.49a2,2,0,0,1-.5-1.05,1.09,1.09,0,0,1,.26-.84.92.92,0,0,1,.84-.23c2.67,1.54,5.69,2.55,7.77,5A8.92,8.92,0,0,1,213.34,43Z" fill="currentColor"/><path d="M93.7,255.75c-3.32-1.26-6.5-.4-9.68.33a6.19,6.19,0,0,0-4,2.86c-.67,1.09-1.37,2.16-2,3.26a14,14,0,0,1-10.33,7,32.3,32.3,0,0,1-9.31.26,18.59,18.59,0,0,1-3-.73,2,2,0,0,1-1.4-1.51.72.72,0,0,1,.73-.95,3.22,3.22,0,0,1,.7.14c3.14,1,6.33.73,9.52.41a25.1,25.1,0,0,0,2.84-.47,12.79,12.79,0,0,0,8.38-5.9c.73-1.15,1.4-2.34,2.11-3.49a7.76,7.76,0,0,1,5-3.5,27,27,0,0,1,6.87-1,19.3,19.3,0,0,1,2.14.18,2,2,0,0,1,1.57,1A1.76,1.76,0,0,1,93.7,255.75Z" fill="currentColor"/><path d="M47.75,204c-.38,1.68-.8,3.14-1,4.63a32.39,32.39,0,0,0-.46,5c0,3.08,1.66,4.91,4.64,5.47,1.34.26,2.69.44,4,.75a27.58,27.58,0,0,1,3.68,1.05A8.31,8.31,0,0,1,64,227.49a18.53,18.53,0,0,1-.19,7.63,2.58,2.58,0,0,1-.54,1,.82.82,0,0,1-1.37-.28,8.44,8.44,0,0,1-.25-1.65c-.08-1.44-.15-2.88-.16-4.32a11.3,11.3,0,0,0-.79-3.72,5,5,0,0,0-3.48-3.36c-1.92-.52-3.88-.92-5.84-1.29a12.38,12.38,0,0,1-3.86-1.24,7.38,7.38,0,0,1-4.05-6.62,30.45,30.45,0,0,1,1.19-8.53,4.4,4.4,0,0,1,.32-.9,1.36,1.36,0,0,1,1.8-.68A8,8,0,0,1,47.75,204Z" fill="currentColor"/><path d="M6.33,201.74c-1.07-.15-2.66-.31-4.23-.6a21.17,21.17,0,0,0-11,1.25,8.67,8.67,0,0,0-4.53,3.73,11.28,11.28,0,0,1-.88,1.42,1.54,1.54,0,0,1-1,.49,1.17,1.17,0,0,1-1-1.14,3.45,3.45,0,0,1,.27-1.15,10.3,10.3,0,0,1,6-5.83c3.9-1.37,7.87-2.19,12-1.47a27.18,27.18,0,0,0,12.32-.84c1.69-.48,3.4-.91,5.1-1.34a8.4,8.4,0,0,1,1.41-.2.76.76,0,0,1,.88.63,1.82,1.82,0,0,1-.32,1.07,1.69,1.69,0,0,1-.79.52,50.23,50.23,0,0,1-12.45,3.37C7.66,201.7,7.26,201.69,6.33,201.74Z" fill="currentColor"/><path d="M278,239.75a5.71,5.71,0,0,1-2.35,4.81,25.28,25.28,0,0,1-7.68,3.84,2.28,2.28,0,0,1-1.18.09,1.73,1.73,0,0,1-.91-.69.78.78,0,0,1,.35-1c.39-.27.82-.49,1.23-.73l4.58-2.62c.21-.12.42-.23.62-.36,2.82-1.94,3.23-3.19,2.3-6.29-.37-1.22-.8-2.43-1.2-3.64a11.26,11.26,0,0,1,1.91-10.86,26,26,0,0,1,5.34-5.13,1.28,1.28,0,0,1,1.57-.09,1.49,1.49,0,0,1,.72,1.43,1.75,1.75,0,0,1-.49,1c-.69.66-1.44,1.25-2.2,1.85a16.79,16.79,0,0,0-3.84,4.55,7.64,7.64,0,0,0-.69,6.68c.41,1.22.86,2.42,1.19,3.65S277.71,238.58,278,239.75Z" fill="currentColor"/><path d="M138.63,272.18a33.39,33.39,0,0,1-7.84-1,12,12,0,0,1-6.66-4,7.16,7.16,0,0,1-1.8-4.1c-.08-1.19-.24-2.38-.38-3.57a5.6,5.6,0,0,0-2.65-4.34,16.11,16.11,0,0,0-6.25-2.29c-1-.15-1.91-.23-2.84-.41A1.53,1.53,0,0,1,109,251.2a.93.93,0,0,1,.72-1.08,1.84,1.84,0,0,1,.47-.06,20.32,20.32,0,0,1,10,3,10.41,10.41,0,0,1,3.5,3.87,6.91,6.91,0,0,1,.63,2c.2,1.18.34,2.38.43,3.57a5.78,5.78,0,0,0,2.92,4.69,16.16,16.16,0,0,0,6.78,2.25c2.38.27,4.78.34,7.17.5a10,10,0,0,1,1.66.16,1,1,0,0,1,.55.68.91.91,0,0,1-.42.74,7.39,7.39,0,0,1-1.85.47C140.55,272.14,139.59,272.14,138.63,272.18Z" fill="currentColor"/><path d="M191,235.29a12.86,12.86,0,0,1-.91,4.64c-.9,2-1.92,4-2.91,6a2.45,2.45,0,0,1-.77.89,1,1,0,0,1-.86.1,1.12,1.12,0,0,1-.44-.77,2,2,0,0,1,.17-.93c.45-1.19.88-2.4,1.41-3.56A21.66,21.66,0,0,0,188.5,236a7.45,7.45,0,0,0-2-6.41c-1.64-1.85-3.33-3.67-4.94-5.55a22,22,0,0,1-2.3-3.06,7.37,7.37,0,0,1,.21-8.36,19.6,19.6,0,0,1,3.39-3.71,1.23,1.23,0,0,1,1.9.17,1.34,1.34,0,0,1,0,1.93c-.42.48-1,.86-1.37,1.34a35.32,35.32,0,0,0-2.36,3,3.91,3.91,0,0,0,.07,4.52,21.74,21.74,0,0,0,2.08,2.62c1.68,1.93,3.43,3.8,5.1,5.73A10.37,10.37,0,0,1,191,235.29Z" fill="currentColor"/><path d="M233.72,263.76a2.57,2.57,0,0,1-.53,2.86,30.05,30.05,0,0,1-3.46,2.94,37.45,37.45,0,0,1-8.52,4.3,11.46,11.46,0,0,1-8.63,0c-3.62-1.56-6.71-.57-9.27,2.24a40.33,40.33,0,0,0-2.73,3.62c-.23.32-.35.72-.6,1s-.45.33-.6.27a1.2,1.2,0,0,1-.65-.58,1.35,1.35,0,0,1,0-.93c1.44-4.23,4.6-8.42,9.89-8.86a9,9,0,0,1,3.3.37c.68.2,1.35.49,2,.73a7.19,7.19,0,0,0,4.47.13,35,35,0,0,0,12.32-6.17A9.89,9.89,0,0,1,233.72,263.76Z" fill="currentColor"/><path d="M83.2,227.58a1.65,1.65,0,0,1-.16-3.12c4.17-2.49,8.11-3.53,13.09.26A25.66,25.66,0,0,1,99,227.27a12,12,0,0,0,9.33,3.59c2.39-.07,4.77-.37,7.16-.6,1.59-.15,3.17-.4,4.75-.57a6.68,6.68,0,0,1,1.67,0c.23,0,.48.37.58.63a.76.76,0,0,1-.24.62,2.27,2.27,0,0,1-.81.47,15.16,15.16,0,0,1-2.52.75A69.07,69.07,0,0,1,108,233.32a13.1,13.1,0,0,1-9.36-3.61c-.64-.61-1.29-1.2-1.94-1.8-.29-.27-.58-.55-.88-.8-3.72-3-7-3.27-11.2-.57C84.13,226.84,83.7,227.2,83.2,227.58Z" fill="currentColor"/><path d="M22.55,232.13a6.66,6.66,0,0,0,2.32,3.72c1.16,1.1,2.39,2.13,3.56,3.21a14.08,14.08,0,0,1,3.87,5.41c1.45,3.84.3,6.44-2,8.72a1.25,1.25,0,0,1-2.06-.14,1.08,1.08,0,0,1,0-1.51c.15-.19.35-.34.5-.52a5.64,5.64,0,0,0,.8-6.86,11.81,11.81,0,0,0-2.47-3.23c-1.05-1-2.14-1.92-3.2-2.88a13.71,13.71,0,0,1-3.63-4.71A7.55,7.55,0,0,1,20,227.5a15,15,0,0,1,5.48-7.1,2.69,2.69,0,0,1,2-.68.8.8,0,0,1,.64,1.22,15.73,15.73,0,0,1-1.32,1.39,17,17,0,0,0-4.06,6.43A4.74,4.74,0,0,0,22.55,232.13Z" fill="currentColor"/><path d="M192.55,258.11a2.51,2.51,0,0,1-.5,2.88,19.31,19.31,0,0,1-10.47,6.77,5.85,5.85,0,0,1-3.08,0c-1.23-.36-2.46-.71-3.67-1.11s-2.11-.74-3.15-1.15c-3.53-1.39-7.32.63-9,2.81-.15.19-.26.41-.4.6s-.59.66-1,.46a1.58,1.58,0,0,1-.75-.84,2.29,2.29,0,0,1,0-1.37,3.86,3.86,0,0,1,.91-1.39c3.28-3.37,7-4.22,11.14-2.69,1.13.42,2.23.9,3.33,1.36a8.8,8.8,0,0,0,7.44-.13,24.43,24.43,0,0,0,7.41-5.19C191.25,258.6,191.7,258,192.55,258.11Z" fill="currentColor"/><path d="M154,221.46a1.65,1.65,0,0,1-1,1.49c-1.11.6-2.21,1.25-3.27,2a6.12,6.12,0,0,0-1.39,1.3,4.35,4.35,0,0,0-.59,5.13,24.58,24.58,0,0,0,1.76,2.55c1.37,1.87,2.81,3.68,4.11,5.59,3.05,4.47,1.52,8.87-1,11.67a13.91,13.91,0,0,1-1.92,1.75.79.79,0,0,1-1.25-.13,1.38,1.38,0,0,1-.08-1.09,10.15,10.15,0,0,1,1-1.64c.39-.6.8-1.19,1.2-1.79,1.71-2.6,1.86-5.22,0-7.81-1.11-1.56-2.3-3.06-3.41-4.61-.89-1.23-1.76-2.46-2.55-3.75a7.46,7.46,0,0,1,2.05-9.26,16.36,16.36,0,0,1,3.67-2.23,5.09,5.09,0,0,1,1.37-.34A1.3,1.3,0,0,1,154,221.46Z" fill="currentColor"/><path d="M261.05,269.51a14.12,14.12,0,0,1-1.82,6.23c-.69,1.35-1.51,2.64-2.11,4a19.44,19.44,0,0,0-1.35,4.07A4.56,4.56,0,0,0,258,289a21.18,21.18,0,0,0,2.6,1.2,14.56,14.56,0,0,1,1.77.72,1.17,1.17,0,0,1,.46,1c-.05.3-.45.56-.71.82a.35.35,0,0,1-.23.06c-3.91-.31-7.8-2.2-8.64-6.56a9.78,9.78,0,0,1,.23-5,40.41,40.41,0,0,1,1.59-4c.61-1.31,1.33-2.56,2-3.82a11.72,11.72,0,0,0,1.3-4.34,3.48,3.48,0,0,0-2-3.95,1.85,1.85,0,0,1-1.29-1.57c-.1-1,.54-1.57,1.45-1.29a5.89,5.89,0,0,1,3.07,2.18A7.43,7.43,0,0,1,261.05,269.51Z" fill="currentColor"/><path d="M21.37,265.78c.55.81,1.59,2.32,2.64,3.83a13,13,0,0,0,3.6,3.78,6.15,6.15,0,0,0,5.48.78,10,10,0,0,1,1.83-.52,1.57,1.57,0,0,1,1,.36c.31.26.07.9-.4,1.2a8.45,8.45,0,0,1-8,.85,12.41,12.41,0,0,1-5.83-4.78c-.67-1-1.32-2-2-3-.31-.46-.68-.89-1-1.35-1.62-2.39-3.9-2.84-6.54-2.18-.92.23-1.83.57-2.76.77a9,9,0,0,1-2.13.15,2,2,0,0,1-1.07-.45,1,1,0,0,1-.38-.79c0-.26.26-.69.47-.74,3-.64,5.93-1.92,9.15-1.47A8.91,8.91,0,0,1,21.37,265.78Z" fill="currentColor"/><path d="M251.29,205.82c-1.36,1.05-2.62,1.91-3.75,2.91a32.16,32.16,0,0,0-3.55,3.55c-1.94,2.38-1.86,4.84.08,7.18.87,1,1.79,2,2.61,3.13a27.88,27.88,0,0,1,2.16,3.15,8.35,8.35,0,0,1,0,8.49,18.63,18.63,0,0,1-5,5.74,2.41,2.41,0,0,1-1.07.44.82.82,0,0,1-.87-1.09,8.61,8.61,0,0,1,.86-1.43c.86-1.16,1.72-2.31,2.63-3.42a11.1,11.1,0,0,0,1.77-3.37,5,5,0,0,0-.52-4.81c-1.15-1.63-2.41-3.18-3.68-4.72a12.2,12.2,0,0,1-2.18-3.42,7.36,7.36,0,0,1,1.12-7.68,30.26,30.26,0,0,1,6.35-5.81,4.51,4.51,0,0,1,.82-.48,1.35,1.35,0,0,1,1.82.62A8.1,8.1,0,0,1,251.29,205.82Z" fill="currentColor"/><path d="M227.17,193.27c-1.06-.15-2.65-.32-4.22-.6a21.16,21.16,0,0,0-11,1.25,8.66,8.66,0,0,0-4.54,3.73,10.17,10.17,0,0,1-.87,1.42,1.51,1.51,0,0,1-1,.48,1.14,1.14,0,0,1-1-1.13,3.23,3.23,0,0,1,.27-1.15,10.27,10.27,0,0,1,6-5.83c3.89-1.37,7.87-2.19,12-1.47a27.23,27.23,0,0,0,12.33-.84c1.69-.48,3.39-.91,5.1-1.34a8.12,8.12,0,0,1,1.41-.2.74.74,0,0,1,.87.63,1.75,1.75,0,0,1-.32,1.07,1.66,1.66,0,0,1-.78.52,50.42,50.42,0,0,1-12.46,3.37C228.5,193.23,228.1,193.22,227.17,193.27Z" fill="currentColor"/><path d="M219,233.94c-.12,1-.37,2.79-.6,4.61a12.93,12.93,0,0,0,.13,5.22,6.16,6.16,0,0,0,3.54,4.26,9.69,9.69,0,0,1,1.71.84,1.55,1.55,0,0,1,.52,1c.06.39-.54.71-1.1.62a8.48,8.48,0,0,1-6.5-4.74,12.38,12.38,0,0,1-1.11-7.46c.16-1.18.36-2.36.52-3.55.08-.55.1-1.11.18-1.66.4-2.87-1-4.73-3.39-6-.84-.45-1.74-.8-2.56-1.28a9,9,0,0,1-1.69-1.32,2,2,0,0,1-.49-1.05,1.13,1.13,0,0,1,.25-.84,1,1,0,0,1,.85-.23c2.67,1.55,5.68,2.55,7.77,5.05A8.88,8.88,0,0,1,219,233.94Z" fill="currentColor"/><path d="M261.05-14a14.12,14.12,0,0,1-1.82,6.24c-.69,1.34-1.51,2.64-2.11,4A19.83,19.83,0,0,0,255.77.37,4.57,4.57,0,0,0,258,5.49a21.18,21.18,0,0,0,2.6,1.2,14.52,14.52,0,0,1,1.77.71,1.19,1.19,0,0,1,.46,1c-.05.3-.45.55-.71.82a.34.34,0,0,1-.23.05c-3.91-.3-7.8-2.2-8.64-6.56a9.74,9.74,0,0,1,.23-5,40.59,40.59,0,0,1,1.59-4c.61-1.3,1.33-2.55,2-3.81a11.72,11.72,0,0,0,1.3-4.34,3.48,3.48,0,0,0-2-4A1.85,1.85,0,0,1,255.11-20c-.1-1,.54-1.58,1.45-1.3a5.91,5.91,0,0,1,3.07,2.19A7.39,7.39,0,0,1,261.05-14Z" fill="currentColor"/></pattern></defs><rect width="283.46" height="283.46" fill="url(#a)"/></svg>
