<svg xmlns="http://www.w3.org/2000/svg" xmlns:xlink="http://www.w3.org/1999/xlink" viewBox="0 0 283.46 283.46"><defs><pattern id="a" width="283.46" height="283.46" patternUnits="userSpaceOnUse" viewBox="0 0 283.46 283.46"><rect width="283.46" height="283.46" fill="none"/><path d="M518.73,9.71c-1.1,0-1.62,0-2.14,0a46.72,46.72,0,0,0-10,1.6c-5.54,1.35-10.91,3.21-16.29,5a141.76,141.76,0,0,0-19.19,8.1c-1.13.58-2.19,1.31-3.27,2-2.57,1.58-5.12,3.17-7.7,4.72-1.25.76-2.54,1.46-3.83,2.15a7.69,7.69,0,0,1-1.51.64,3.4,3.4,0,0,1-4.6-3.21,9.72,9.72,0,0,1,1.74-6.4A51.43,51.43,0,0,1,456.1,19c3.1-3.32,6.34-6.5,9.52-9.74l1.83-1.9C467,6.48,466.39,7,466,7.11A200.17,200.17,0,0,0,444.3,14.2a135.64,135.64,0,0,0-24.93,12.61c-.91.6-1.85,1.17-2.82,1.69a15.14,15.14,0,0,1-2.5,1.12,3.43,3.43,0,0,1-4.53-4.13,10.37,10.37,0,0,1,2.19-4.32c2.22-2.63,4.46-5.25,6.75-7.83,1.75-2,3.6-3.84,5.38-5.79a13.9,13.9,0,0,0,1-1.47c-.3-.2-.46-.39-.57-.37q-3.78.74-7.54,1.5c-1.17.24-2.34.49-3.5.76-14.3,3.36-27.73,8.92-40.67,15.65-3,1.55-5.77,3.5-8.66,5.24-1.17.71-2.35,1.42-3.58,2-1.77.84-3.24.5-4.47-1.8a5.75,5.75,0,0,1-.25-4.22,23.84,23.84,0,0,1,3.24-7.4,82.6,82.6,0,0,1,6-7.74q1.93-2.28,3.84-4.59a16.6,16.6,0,0,0,.86-1.42c-1.3.32-2.19.47-3,.75a235.53,235.53,0,0,0-26.17,10,106.76,106.76,0,0,0-16.31,9c-.9.63-1.76,1.31-2.66,1.93-1.05.72-2.1,1.46-3.21,2.09a2.25,2.25,0,0,1-2.79-.36,4.72,4.72,0,0,1-1.71-4.34,19.3,19.3,0,0,1,3.21-8c1-1.43,2-2.83,2.93-4.25.24-.36.43-.75.67-1.16a2.22,2.22,0,0,0-2.19.24c-2.48,1.18-5,2.31-7.37,3.65q-7.41,4.17-14.68,8.57c-2.88,1.76-5.67,3.68-8.42,5.62a20.89,20.89,0,0,0-2.51,2.47,1.55,1.55,0,0,1-2.4-.15,1.34,1.34,0,0,1,0-2.12,34.79,34.79,0,0,1,4-3.28c3.66-2.41,7.38-4.72,11.12-7,3.35-2,6.74-4,10.14-6a64.41,64.41,0,0,1,12.88-6A28.39,28.39,0,0,1,324,4.6a2,2,0,0,1,1.95.74,1.37,1.37,0,0,1,.29,1.73c-.32.54-.69,1.06-1.06,1.57-1.81,2.49-3.72,4.91-5.41,7.48A42.3,42.3,0,0,0,317,21.38a4.34,4.34,0,0,0-.27,3.07,7.38,7.38,0,0,0,1.48-.57c2.22-1.45,4.36-3,6.6-4.41a121.83,121.83,0,0,1,12.54-6.75c6.19-3,12.63-5.37,19-7.87,3.84-1.49,7.78-2.72,11.7-4a22,22,0,0,1,4-.83c1.93-.25,3,1.22,2.15,2.87a17.17,17.17,0,0,1-2.07,2.84c-2.9,3.48-5.88,6.9-8.75,10.4a26.71,26.71,0,0,0-4.51,8c-.45,1.27-1.39,2.59-.35,4,1.43.19,2.42-.77,3.42-1.44a146.71,146.71,0,0,1,19.5-10.56c3.54-1.67,7.16-3.23,10.86-4.56a156.9,156.9,0,0,1,18.88-5.88c4.37-1,8.72-2,13.1-3a12,12,0,0,1,3.27-.28,2,2,0,0,1,1.74,3.11,10.22,10.22,0,0,1-1.47,1.94q-5,5.26-9.93,10.48a39.89,39.89,0,0,0-5.11,6.69,6,6,0,0,0-.64,1.47.84.84,0,0,0,.21.71.87.87,0,0,0,.75.12c.91-.41,1.82-.84,2.69-1.33,3.49-2,6.93-4.09,10.44-6a121.44,121.44,0,0,1,14.9-6.94c4.35-1.68,8.71-3.35,13.11-4.9A72.56,72.56,0,0,1,466.72,4.3c1.44-.24,2.87-.57,4.31-.81a1.7,1.7,0,0,1,1.67.74,1.55,1.55,0,0,1,0,2.21,42,42,0,0,1-3.26,3.28A144.85,144.85,0,0,0,457.83,21.2a24.65,24.65,0,0,0-4.57,6.7,12.18,12.18,0,0,0-.74,2.57.89.89,0,0,0,1.27.92c1.49-.7,2.95-1.44,4.37-2.25,5.69-3.29,11.17-6.95,17.2-9.64,3.67-1.64,7.42-3.11,11.16-4.56,2.9-1.12,5.84-2.16,8.79-3.13s5.79-1.74,8.69-2.6c.79-.23,1.6-.43,2.38-.68a46.94,46.94,0,0,1,12.47-1.87,4.82,4.82,0,0,1,1.36.16,2.43,2.43,0,0,1,1.73,3.38A13.71,13.71,0,0,1,520,13.13a53.51,53.51,0,0,0-4.46,6.47,9.46,9.46,0,0,0-1.45,4c-.2,2,.55,2.76,2.5,2.47a15.76,15.76,0,0,0,3.43-1q5.13-2,10.2-4.09a141.86,141.86,0,0,1,20.59-6.81c3.83-.94,7.7-1.77,11.6-2.37a37.46,37.46,0,0,1,6.87-.18,6.28,6.28,0,0,1,4.43,1.92,3.87,3.87,0,0,1,.66,1.15.7.7,0,0,1-.71.9,7,7,0,0,1-1.57-.42,13.71,13.71,0,0,0-6-.78,60.62,60.62,0,0,0-11.68,1.86,164.14,164.14,0,0,0-22.53,7.12c-2.88,1.18-5.7,2.5-8.59,3.64A55,55,0,0,1,517.6,29c-2.42.66-4.31-.44-5.51-2.91a6.68,6.68,0,0,1-.23-5,20.4,20.4,0,0,1,2.95-5.76Z" fill="currentColor"/><path d="M452.73,198.18c-1.1,0-1.62,0-2.14,0a47.25,47.25,0,0,0-10,1.6c-5.54,1.35-10.92,3.21-16.29,5a141.94,141.94,0,0,0-19.2,8.11c-1.13.58-2.18,1.31-3.27,2-2.56,1.57-5.12,3.16-7.69,4.72-1.26.75-2.54,1.45-3.83,2.15a7.65,7.65,0,0,1-1.51.63,3.4,3.4,0,0,1-4.61-3.2,9.71,9.71,0,0,1,1.75-6.4,50.11,50.11,0,0,1,4.19-5.33c3.09-3.32,6.33-6.5,9.51-9.75.63-.63,1.24-1.28,1.83-1.89-.47-.89-1.05-.36-1.48-.25a200.89,200.89,0,0,0-21.67,7.09,134.62,134.62,0,0,0-24.92,12.61c-.91.6-1.85,1.17-2.82,1.69a15.48,15.48,0,0,1-2.5,1.11,3.42,3.42,0,0,1-4.53-4.13,10.59,10.59,0,0,1,2.18-4.32c2.23-2.63,4.47-5.25,6.76-7.82,1.74-2,3.59-3.85,5.37-5.79a15.24,15.24,0,0,0,1.05-1.48c-.3-.2-.46-.39-.57-.36-2.52.48-5,1-7.54,1.5-1.17.24-2.34.48-3.5.76-14.3,3.35-27.73,8.91-40.67,15.64-3,1.56-5.77,3.5-8.67,5.25-1.17.7-2.34,1.42-3.58,2-1.76.84-3.23.5-4.46-1.81a5.68,5.68,0,0,1-.25-4.21,23.38,23.38,0,0,1,3.24-7.4,84.22,84.22,0,0,1,6-7.74c1.29-1.53,2.58-3.06,3.84-4.6a14.15,14.15,0,0,0,.87-1.41c-1.31.31-2.19.47-3,.74a234.21,234.21,0,0,0-26.16,10,106.29,106.29,0,0,0-16.31,9c-.9.62-1.76,1.3-2.66,1.92-1.06.72-2.1,1.47-3.21,2.09a2.24,2.24,0,0,1-2.79-.36,4.68,4.68,0,0,1-1.71-4.33,19.32,19.32,0,0,1,3.2-8c1-1.43,2-2.83,2.93-4.25.25-.36.44-.75.68-1.16a2.22,2.22,0,0,0-2.19.25c-2.48,1.18-5,2.3-7.38,3.65q-7.4,4.17-14.67,8.57c-2.89,1.75-5.67,3.67-8.43,5.62a21.56,21.56,0,0,0-2.51,2.46,1.53,1.53,0,0,1-2.39-.14,1.35,1.35,0,0,1,0-2.13,38,38,0,0,1,4-3.28c3.66-2.4,7.38-4.72,11.12-7,3.35-2.05,6.74-4,10.14-6a64.08,64.08,0,0,1,12.88-6,29.77,29.77,0,0,1,2.92-.75,2,2,0,0,1,2,.74,1.35,1.35,0,0,1,.29,1.72c-.33.54-.69,1.06-1.06,1.57-1.81,2.49-3.73,4.92-5.42,7.48a44.39,44.39,0,0,0-2.73,5.26,4.36,4.36,0,0,0-.28,3.08,7.24,7.24,0,0,0,1.49-.58c2.21-1.45,4.36-3,6.6-4.41a125.82,125.82,0,0,1,12.54-6.75c6.19-3,12.63-5.37,19-7.86,3.83-1.5,7.78-2.73,11.7-4a21.86,21.86,0,0,1,4-.84c1.92-.24,3,1.22,2.15,2.88a17.17,17.17,0,0,1-2.07,2.84c-2.91,3.48-5.88,6.9-8.75,10.4a26.23,26.23,0,0,0-4.51,8c-.45,1.28-1.4,2.6-.36,4,1.43.19,2.42-.78,3.42-1.45a147.87,147.87,0,0,1,19.5-10.56c3.55-1.67,7.17-3.22,10.86-4.55a157.46,157.46,0,0,1,18.88-5.88c4.37-1,8.73-2,13.1-3a12.11,12.11,0,0,1,3.28-.28,2,2,0,0,1,1.74,3.1,9.87,9.87,0,0,1-1.48,1.94q-4.94,5.26-9.92,10.49a39.69,39.69,0,0,0-5.11,6.68,6.73,6.73,0,0,0-.65,1.48.8.8,0,0,0,.22.7.88.88,0,0,0,.74.13,29.47,29.47,0,0,0,2.7-1.34c3.48-2,6.92-4.08,10.44-6a120.81,120.81,0,0,1,14.9-6.95c4.35-1.68,8.71-3.34,13.1-4.89a73.1,73.1,0,0,1,12.41-3.5c1.45-.23,2.87-.57,4.31-.8a1.68,1.68,0,0,1,1.68.73,1.57,1.57,0,0,1,0,2.21,44,44,0,0,1-3.26,3.29,143.19,143.19,0,0,0-11.63,11.48,24.16,24.16,0,0,0-4.58,6.7,12.43,12.43,0,0,0-.74,2.57.89.89,0,0,0,1.28.91c1.48-.69,2.95-1.43,4.36-2.25,5.7-3.28,11.18-6.94,17.21-9.64,3.66-1.64,7.41-3.1,11.16-4.55q4.35-1.69,8.79-3.13c2.87-.94,5.79-1.74,8.69-2.6.79-.24,1.59-.43,2.38-.68a46.92,46.92,0,0,1,12.46-1.87,4.55,4.55,0,0,1,1.37.16,2.42,2.42,0,0,1,1.72,3.37,13.11,13.11,0,0,1-1.92,2.93,55.89,55.89,0,0,0-4.46,6.47,9.41,9.41,0,0,0-1.44,4c-.21,2,.55,2.77,2.5,2.48a16.36,16.36,0,0,0,3.43-1q5.13-2,10.2-4.08a141.9,141.9,0,0,1,20.59-6.82c3.83-.94,7.7-1.76,11.59-2.37a36.72,36.72,0,0,1,6.88-.17,6.2,6.2,0,0,1,4.42,1.92,3.64,3.64,0,0,1,.66,1.15.69.69,0,0,1-.7.9,8.35,8.35,0,0,1-1.58-.42,13.52,13.52,0,0,0-6-.78,61.26,61.26,0,0,0-11.68,1.85,163.7,163.7,0,0,0-22.53,7.12c-2.88,1.18-5.7,2.51-8.6,3.65a56.45,56.45,0,0,1-5.74,1.85c-2.42.67-4.32-.44-5.51-2.91a6.71,6.71,0,0,1-.24-5,20.43,20.43,0,0,1,3-5.76C450,202,451.19,200.36,452.73,198.18Z" fill="currentColor"/><path d="M249.44,78.81a2,2,0,0,0,2.11-.65,150.64,150.64,0,0,1,18.33-13,146.53,146.53,0,0,1,19.06-9.6c4.24-1.77,8.63-3.08,13-4.49a8.46,8.46,0,0,1,2.28-.4,2.08,2.08,0,0,1,1.91,3.16,10,10,0,0,1-1.31,2c-1.8,2.3-3.65,4.55-5.43,6.86a35.77,35.77,0,0,0-4.74,8,3.32,3.32,0,0,0-.21,3.09c.8.51,1.5.12,2.17-.28,2-1.22,4-2.45,6-3.72a141.24,141.24,0,0,1,16.93-9.77c.55-.25,1.12-.46,1.68-.69,6.47-2.68,13-5.1,19.65-7.4,4.24-1.48,8.47-3,12.82-4.09a19,19,0,0,1,5.62-.67,4.71,4.71,0,0,1,3.23,1.47,3.13,3.13,0,0,1,.69,3.69A14.1,14.1,0,0,1,361.62,55c-1.56,2.14-3.18,4.24-4.8,6.34a34.46,34.46,0,0,0-3,4.48,4.67,4.67,0,0,0,1.21-.25c.68-.39,1.32-.85,2-1.3a78,78,0,0,1,24-11.11c2.33-.64,4.68-1.18,7-1.66a13.76,13.76,0,0,1,3.08-.19,2.18,2.18,0,0,1,1.82,1.35,1.57,1.57,0,0,1-.1,2c-.17,0-.37.15-.49.09a6.55,6.55,0,0,0-4.28-.39,61.59,61.59,0,0,0-11.47,3.12c-3.54,1.38-7.09,2.81-10.48,4.54-2.69,1.38-5.16,3.24-7.72,4.89-1.17.75-2.29,1.61-3.51,2.27-1.95,1-3.36.2-3.67-2.08a5.88,5.88,0,0,1,1.09-4.32c1.18-1.66,2.44-3.26,3.66-4.89,1.38-1.84,2.76-3.68,4.1-5.55a15.7,15.7,0,0,0,1-1.87,3,3,0,0,0-3-.78,43.92,43.92,0,0,0-5.58,1.06c-6.59,1.8-13,4.2-19.39,6.62-4.2,1.6-8.46,3.09-12.53,5a100.45,100.45,0,0,0-16,9.31c-1.77,1.26-3.59,2.48-5.44,3.63a25.73,25.73,0,0,1-2.82,1.3c-1.33.61-2.35.06-3.22-.95a5.69,5.69,0,0,1-.9-5.82,24.2,24.2,0,0,1,2-4.37A78.81,78.81,0,0,1,301,56c.36-.47.67-1,1.09-1.61a4.2,4.2,0,0,0-2.7.26,114.82,114.82,0,0,0-31.19,14.73,167.68,167.68,0,0,0-14.09,10.45A24.35,24.35,0,0,1,250.84,82c-1.14.66-1.88.43-2.73-.61a4.48,4.48,0,0,1-1-3.51,11.66,11.66,0,0,1,1.23-3.81,119.54,119.54,0,0,1,7.6-12.2c.65-.95,1.31-1.89,1.9-2.89a9.7,9.7,0,0,0,.58-1.66,15.78,15.78,0,0,0-4.74.61A94.25,94.25,0,0,0,231.94,67c-6.41,3.7-12.58,7.78-18.7,12A59.31,59.31,0,0,1,208,81.9a5.68,5.68,0,0,1-1.2.48,3.83,3.83,0,0,1-4.89-3.09,9.79,9.79,0,0,1,.24-4.53,41.11,41.11,0,0,1,5.46-12.15c2.24-3.52,4.58-7,6.86-10.46.57-.88,1.06-1.82,1.76-3a5.15,5.15,0,0,0-1.44,0c-2.74,1-5.51,2-8.2,3.22-4.53,2-8.89,4.33-13.23,6.74a117.56,117.56,0,0,0-12.42,8.22c-4.44,3.26-8.77,6.67-13.17,10a21,21,0,0,1-3.3,2.11c-2.83,1.4-5.51-.3-5.68-3.58a12.33,12.33,0,0,1,1.5-6.75c1.87-3.33,3.85-6.6,5.82-9.87,1.19-2,2.45-3.91,3.66-5.88a11.59,11.59,0,0,0,.63-1.39,2,2,0,0,0-2.08,0c-1.84.76-3.72,1.45-5.49,2.36-9.2,4.75-18.11,10-26.05,16.89-1.72,1.5-3.53,2.88-5.35,4.24a15.09,15.09,0,0,1-2.89,1.76c-2.33,1-4.54-.11-5.36-2.61a9,9,0,0,1,.21-5.57,22.54,22.54,0,0,1,1.51-3.71c1.78-3.49,3.64-6.93,5.47-10.4.16-.3.28-.62.42-.91-.49-.44-.9-.2-1.27,0a87.88,87.88,0,0,0-18.68,12.45c-1.58,1.39-3.09,2.87-4.61,4.33s-1.81,1.38-3.08-.69a2.79,2.79,0,0,1,.47-.86c5.13-4.79,10.31-9.51,16.49-12.85,2.21-1.2,4.26-2.71,6.47-3.91a37.38,37.38,0,0,1,7.14-3.11,1.58,1.58,0,0,1,1.86.47,1.85,1.85,0,0,1,.18,2.25c-.54.92-1.14,1.8-1.73,2.68a70.48,70.48,0,0,0-8,15.38,13.2,13.2,0,0,0-.6,2.87,7.41,7.41,0,0,0,.26,1.75,4.73,4.73,0,0,0,1.48-.2,27.42,27.42,0,0,0,3.57-2.14c2.65-2,5.26-4,7.84-6.14A125,125,0,0,1,150,58.38a94.58,94.58,0,0,1,11-6c1.25-.59,2.44-1.32,3.68-2a18.78,18.78,0,0,1,6.47-1.73c2.22-.26,3.44,1.45,2.55,3.57a16.43,16.43,0,0,1-1.17,2.09c-3,4.92-6.09,9.8-9.05,14.76a24,24,0,0,0-1.86,4.42,4.69,4.69,0,0,0-.07,3.52,5.21,5.21,0,0,0,1.51-.27,24.21,24.21,0,0,0,3.12-1.89c4.87-3.55,9.68-7.2,14.57-10.71,2.63-1.88,5.35-3.63,8.1-5.3s5.81-3.51,8.83-5a137.15,137.15,0,0,1,15.39-7,8.41,8.41,0,0,1,4.05-.57,2.37,2.37,0,0,1,2,2.9,6.61,6.61,0,0,1-.81,2c-.93,1.52-1.92,3-2.9,4.47-2.88,4.36-6,8.55-8.31,13.31a28.59,28.59,0,0,0-2.89,8.61c-.28,2,.49,2.74,2.3,2a13.32,13.32,0,0,0,2.33-1.16c2.29-1.41,4.56-2.87,6.84-4.31,3.16-2,6.28-4.09,9.51-6,4-2.37,8.1-4.73,12.29-6.81a78.61,78.61,0,0,1,17-6.17,14.39,14.39,0,0,1,4.09-.33c2,.11,3,1.75,2.42,3.78a7.62,7.62,0,0,1-1,1.88c-2.23,3.42-4.54,6.77-6.72,10.23-1.22,1.94-2.26,4-3.32,6.07A9.71,9.71,0,0,0,249.44,78.81Z" fill="currentColor"/><path d="M235.26,9.71c-1.09,0-1.61,0-2.13,0a46.62,46.62,0,0,0-10,1.6c-5.54,1.35-10.92,3.21-16.29,5a141.89,141.89,0,0,0-19.2,8.1c-1.13.58-2.18,1.31-3.27,2-2.56,1.58-5.12,3.17-7.7,4.72-1.25.76-2.53,1.46-3.82,2.15a7.53,7.53,0,0,1-1.52.64,3.4,3.4,0,0,1-4.6-3.21,9.73,9.73,0,0,1,1.75-6.4A50.11,50.11,0,0,1,172.64,19c3.09-3.32,6.33-6.5,9.51-9.74.63-.64,1.24-1.29,1.83-1.9-.47-.88-1-.36-1.48-.25a200.89,200.89,0,0,0-21.67,7.09,135.24,135.24,0,0,0-24.92,12.61c-.91.6-1.85,1.17-2.82,1.69a15.25,15.25,0,0,1-2.51,1.12,3.42,3.42,0,0,1-4.52-4.13,10.47,10.47,0,0,1,2.18-4.32c2.23-2.63,4.47-5.25,6.76-7.83,1.74-2,3.59-3.84,5.37-5.79a14,14,0,0,0,1-1.47c-.3-.2-.46-.39-.58-.37q-3.76.74-7.53,1.5c-1.17.24-2.34.49-3.5.76-14.31,3.36-27.73,8.92-40.67,15.65-3,1.55-5.78,3.5-8.67,5.24a40.48,40.48,0,0,1-3.58,2c-1.76.84-3.23.5-4.46-1.8a5.7,5.7,0,0,1-.25-4.22,23.38,23.38,0,0,1,3.24-7.4,82.49,82.49,0,0,1,6-7.74C82.67,8.19,84,6.66,85.22,5.12a16,16,0,0,0,.87-1.42c-1.31.32-2.19.47-3,.75a236.13,236.13,0,0,0-26.16,10,106.29,106.29,0,0,0-16.31,9c-.9.63-1.76,1.31-2.66,1.93-1.06.72-2.1,1.46-3.21,2.09a2.25,2.25,0,0,1-2.79-.36,4.69,4.69,0,0,1-1.71-4.34,19.28,19.28,0,0,1,3.2-8c1-1.43,2-2.83,2.93-4.25.25-.36.44-.75.67-1.16a2.21,2.21,0,0,0-2.18.24c-2.48,1.18-5,2.31-7.38,3.65q-7.39,4.17-14.67,8.57c-2.89,1.76-5.67,3.68-8.43,5.62a21.65,21.65,0,0,0-2.51,2.47,1.54,1.54,0,0,1-2.39-.15,1.34,1.34,0,0,1,0-2.12,35.66,35.66,0,0,1,4-3.28c3.66-2.41,7.38-4.72,11.12-7,3.35-2,6.74-4,10.14-6a64.67,64.67,0,0,1,12.88-6,29.77,29.77,0,0,1,2.92-.75,2,2,0,0,1,2,.74,1.37,1.37,0,0,1,.29,1.73c-.33.54-.69,1.06-1.06,1.57-1.81,2.49-3.73,4.91-5.42,7.48a43.63,43.63,0,0,0-2.73,5.26,4.33,4.33,0,0,0-.28,3.07,7.49,7.49,0,0,0,1.49-.57c2.21-1.45,4.36-3,6.6-4.41a121.83,121.83,0,0,1,12.54-6.75c6.19-3,12.63-5.37,19-7.87,3.83-1.49,7.77-2.72,11.7-4a21.84,21.84,0,0,1,4-.83c1.92-.25,3,1.22,2.15,2.87a17.76,17.76,0,0,1-2.07,2.84c-2.91,3.48-5.88,6.9-8.75,10.4a26.28,26.28,0,0,0-4.51,8c-.45,1.27-1.4,2.59-.36,4,1.43.19,2.42-.77,3.42-1.44A146.71,146.71,0,0,1,98,16.17c3.55-1.67,7.17-3.23,10.86-4.56a157.46,157.46,0,0,1,18.88-5.88c4.37-1,8.73-2,13.1-3a12.07,12.07,0,0,1,3.28-.28,2,2,0,0,1,1.74,3.11,10.27,10.27,0,0,1-1.48,1.94Q139.49,12.79,134.5,18a39.36,39.36,0,0,0-5.11,6.69,6.45,6.45,0,0,0-.65,1.47.82.82,0,0,0,.22.71.85.85,0,0,0,.74.12c.92-.41,1.83-.84,2.7-1.33,3.48-2,6.92-4.09,10.44-6a120.75,120.75,0,0,1,14.9-6.94c4.35-1.68,8.7-3.35,13.1-4.9A73.07,73.07,0,0,1,183.25,4.3c1.45-.24,2.87-.57,4.31-.81a1.72,1.72,0,0,1,1.68.74,1.57,1.57,0,0,1,0,2.21A43.87,43.87,0,0,1,186,9.72,144.85,144.85,0,0,0,174.37,21.2a24.46,24.46,0,0,0-4.58,6.7,12.8,12.8,0,0,0-.74,2.57.9.9,0,0,0,1.28.92c1.48-.7,2.95-1.44,4.36-2.25,5.7-3.29,11.18-6.95,17.21-9.64,3.66-1.64,7.41-3.11,11.16-4.56q4.35-1.68,8.79-3.13c2.87-.94,5.79-1.74,8.69-2.6.79-.23,1.59-.43,2.38-.68a46.92,46.92,0,0,1,12.46-1.87,4.89,4.89,0,0,1,1.37.16,2.42,2.42,0,0,1,1.72,3.38,13.34,13.34,0,0,1-1.92,2.93,55.89,55.89,0,0,0-4.46,6.47,9.31,9.31,0,0,0-1.44,4c-.21,2,.54,2.76,2.5,2.47a15.76,15.76,0,0,0,3.43-1q5.13-2,10.2-4.09a141.45,141.45,0,0,1,20.59-6.81c3.83-.94,7.7-1.77,11.59-2.37a37.59,37.59,0,0,1,6.88-.18,6.24,6.24,0,0,1,4.42,1.92,3.87,3.87,0,0,1,.66,1.15.69.69,0,0,1-.7.9,7.08,7.08,0,0,1-1.58-.42,13.66,13.66,0,0,0-5.95-.78A60.5,60.5,0,0,0,271,16.33a163.7,163.7,0,0,0-22.53,7.12c-2.88,1.18-5.7,2.5-8.6,3.64A54.11,54.11,0,0,1,234.14,29c-2.42.66-4.32-.44-5.51-2.91a6.73,6.73,0,0,1-.24-5,20.43,20.43,0,0,1,3-5.76C232.53,13.58,233.73,11.89,235.26,9.71Z" fill="currentColor"/><path d="M178.41,176.73a2,2,0,0,0,2.11-.65A149.76,149.76,0,0,1,198.84,163a145.22,145.22,0,0,1,19.06-9.59c4.25-1.78,8.63-3.09,13-4.5a8.54,8.54,0,0,1,2.29-.4,2.09,2.09,0,0,1,1.91,3.16,10.42,10.42,0,0,1-1.32,2c-1.8,2.29-3.64,4.55-5.43,6.85a35.61,35.61,0,0,0-4.74,8,3.37,3.37,0,0,0-.21,3.09,1.93,1.93,0,0,0,2.18-.29c2-1.22,4-2.44,6-3.72a142.6,142.6,0,0,1,16.93-9.77c.55-.25,1.12-.46,1.68-.69,6.48-2.68,13-5.09,19.65-7.4,4.24-1.48,8.47-3,12.82-4.08a18.75,18.75,0,0,1,5.62-.68,4.69,4.69,0,0,1,3.23,1.47,3.12,3.12,0,0,1,.69,3.69,13.78,13.78,0,0,1-1.58,2.77c-1.56,2.15-3.19,4.24-4.81,6.34a34.46,34.46,0,0,0-3,4.48,4.27,4.27,0,0,0,1.2-.25c.68-.39,1.32-.85,2-1.3a77.82,77.82,0,0,1,24-11.11c2.33-.64,4.69-1.18,7.05-1.66a14.38,14.38,0,0,1,3.08-.19,2.2,2.2,0,0,1,1.82,1.35,1.57,1.57,0,0,1-.1,2c-.16,0-.37.15-.49.09a6.53,6.53,0,0,0-4.27-.39,62.68,62.68,0,0,0-11.48,3.12c-3.54,1.38-7.09,2.81-10.48,4.54-2.69,1.38-5.16,3.24-7.72,4.89-1.17.75-2.29,1.61-3.51,2.27-1.95,1.05-3.36.2-3.67-2.08a5.84,5.84,0,0,1,1.1-4.32c1.18-1.66,2.44-3.25,3.65-4.89,1.38-1.84,2.77-3.68,4.11-5.55a15.52,15.52,0,0,0,1-1.86,3,3,0,0,0-3-.79,43.92,43.92,0,0,0-5.58,1.06c-6.59,1.8-13,4.2-19.39,6.63-4.2,1.59-8.45,3.09-12.53,5a100.52,100.52,0,0,0-16,9.3c-1.77,1.27-3.59,2.48-5.43,3.63a24.14,24.14,0,0,1-2.83,1.3c-1.33.61-2.34.06-3.22-1a5.69,5.69,0,0,1-.9-5.82,24.91,24.91,0,0,1,2-4.37,79.93,79.93,0,0,1,6.78-9.51c.36-.47.67-1,1.09-1.6a4.14,4.14,0,0,0-2.7.25,114.35,114.35,0,0,0-31.18,14.74A164,164,0,0,0,183,177.7a23.71,23.71,0,0,1-3.23,2.22c-1.14.66-1.88.43-2.72-.61a4.41,4.41,0,0,1-1-3.51,11.72,11.72,0,0,1,1.22-3.81,120.06,120.06,0,0,1,7.6-12.19c.65-1,1.31-1.9,1.9-2.89a10.18,10.18,0,0,0,.58-1.67,16.15,16.15,0,0,0-4.74.61,94.25,94.25,0,0,0-21.75,9.09c-6.41,3.7-12.58,7.78-18.7,12a58.12,58.12,0,0,1-5.23,2.92,6.59,6.59,0,0,1-1.21.47,3.83,3.83,0,0,1-4.89-3.09,9.66,9.66,0,0,1,.25-4.53,41.09,41.09,0,0,1,5.45-12.15c2.24-3.52,4.58-7,6.86-10.46.58-.88,1.06-1.82,1.76-3a5.06,5.06,0,0,0-1.43,0c-2.75,1-5.52,2-8.21,3.22-4.52,2-8.89,4.33-13.23,6.74a116.11,116.11,0,0,0-12.42,8.23c-4.44,3.25-8.77,6.67-13.17,10a21.15,21.15,0,0,1-3.3,2.1c-2.83,1.4-5.51-.29-5.68-3.58a12.33,12.33,0,0,1,1.5-6.75c1.88-3.33,3.85-6.6,5.82-9.87,1.19-2,2.45-3.91,3.66-5.88a13.48,13.48,0,0,0,.64-1.39,2,2,0,0,0-2.08,0c-1.84.77-3.72,1.45-5.49,2.36-9.21,4.75-18.12,10-26.06,16.9-1.71,1.49-3.53,2.87-5.35,4.23a14.32,14.32,0,0,1-2.89,1.76c-2.33,1-4.54-.11-5.36-2.61a9,9,0,0,1,.21-5.56,23.18,23.18,0,0,1,1.51-3.72c1.79-3.49,3.65-6.93,5.47-10.4.16-.3.29-.62.42-.91-.49-.44-.89-.19-1.27,0A87.46,87.46,0,0,0,39.8,164.36c-1.58,1.39-3.09,2.87-4.61,4.33s-1.81,1.38-3.08-.69a3,3,0,0,1,.47-.86c5.13-4.79,10.32-9.5,16.49-12.85,2.21-1.2,4.27-2.71,6.47-3.91a38,38,0,0,1,7.14-3.11,1.59,1.59,0,0,1,1.86.47,1.82,1.82,0,0,1,.18,2.25c-.53.92-1.13,1.8-1.73,2.68a70.71,70.71,0,0,0-8,15.38,12.7,12.7,0,0,0-.59,2.88,7.33,7.33,0,0,0,.25,1.74,4.46,4.46,0,0,0,1.48-.2,24.8,24.8,0,0,0,3.57-2.14c2.65-2,5.26-4.05,7.84-6.14A122.94,122.94,0,0,1,79,156.31a97,97,0,0,1,11-6c1.26-.59,2.44-1.32,3.68-2a18.78,18.78,0,0,1,6.47-1.73c2.22-.26,3.44,1.45,2.55,3.57a15.29,15.29,0,0,1-1.17,2.09c-3,4.92-6.09,9.8-9,14.76a24.81,24.81,0,0,0-1.86,4.43,4.64,4.64,0,0,0-.06,3.52,5.2,5.2,0,0,0,1.5-.28,25.32,25.32,0,0,0,3.12-1.88c4.87-3.56,9.68-7.2,14.58-10.72,2.62-1.88,5.34-3.62,8.09-5.3s5.81-3.5,8.83-5a139,139,0,0,1,15.39-7,8.41,8.41,0,0,1,4.05-.57,2.37,2.37,0,0,1,2,2.9,6.66,6.66,0,0,1-.81,2c-.92,1.51-1.92,3-2.89,4.46-2.88,4.36-6,8.55-8.32,13.31a28.87,28.87,0,0,0-2.89,8.61c-.28,2,.49,2.75,2.3,2.06a14.46,14.46,0,0,0,2.33-1.16c2.29-1.42,4.56-2.87,6.84-4.32,3.17-2,6.28-4.09,9.51-6,4.05-2.37,8.11-4.74,12.3-6.81a78,78,0,0,1,17-6.18,14.83,14.83,0,0,1,4.09-.33c2,.11,3,1.75,2.43,3.78a7.39,7.39,0,0,1-1,1.89c-2.23,3.41-4.54,6.77-6.71,10.22-1.23,1.95-2.27,4-3.33,6.07A9.76,9.76,0,0,0,178.41,176.73Z" fill="currentColor"/><path d="M413.19,103.33c-1.1,0-1.62,0-2.14,0a46.73,46.73,0,0,0-10,1.61c-5.54,1.34-10.91,3.2-16.29,5a141.81,141.81,0,0,0-19.19,8.11c-1.13.58-2.19,1.31-3.27,2-2.57,1.57-5.12,3.17-7.7,4.72-1.25.75-2.54,1.45-3.83,2.15a7.1,7.1,0,0,1-1.51.63,3.4,3.4,0,0,1-4.6-3.2,9.71,9.71,0,0,1,1.74-6.4,51.43,51.43,0,0,1,4.19-5.33c3.1-3.32,6.34-6.5,9.52-9.74l1.83-1.9c-.47-.88-1.06-.36-1.48-.25a200.17,200.17,0,0,0-21.67,7.09,135,135,0,0,0-24.93,12.61c-.91.6-1.85,1.17-2.82,1.69a14.31,14.31,0,0,1-2.5,1.11A3.43,3.43,0,0,1,304,119.1a10.39,10.39,0,0,1,2.19-4.31c2.22-2.63,4.46-5.25,6.75-7.83,1.75-2,3.6-3.85,5.38-5.79a14,14,0,0,0,1-1.48c-.3-.19-.46-.38-.57-.36-2.52.48-5,1-7.54,1.5-1.17.24-2.34.48-3.5.76-14.3,3.35-27.73,8.91-40.67,15.64-3,1.56-5.77,3.5-8.66,5.25-1.17.7-2.35,1.42-3.58,2-1.77.84-3.24.5-4.47-1.81a5.73,5.73,0,0,1-.25-4.21,23.84,23.84,0,0,1,3.24-7.4,82.6,82.6,0,0,1,6-7.74q1.94-2.3,3.84-4.6a14.59,14.59,0,0,0,.86-1.41c-1.3.32-2.19.47-3,.74a233.63,233.63,0,0,0-26.17,10,106.76,106.76,0,0,0-16.31,9c-.9.63-1.76,1.3-2.66,1.92-1.05.73-2.1,1.47-3.21,2.09a2.24,2.24,0,0,1-2.79-.36,4.69,4.69,0,0,1-1.71-4.33,19.39,19.39,0,0,1,3.21-8c1-1.42,2-2.82,2.93-4.25.24-.35.43-.75.67-1.16a2.25,2.25,0,0,0-2.19.25c-2.48,1.18-5,2.3-7.37,3.65q-7.41,4.17-14.68,8.57c-2.88,1.75-5.67,3.67-8.42,5.62a21.58,21.58,0,0,0-2.51,2.46,1.54,1.54,0,0,1-2.4-.14,1.35,1.35,0,0,1,0-2.13,37,37,0,0,1,4-3.28c3.66-2.4,7.38-4.72,11.12-7,3.35-2,6.74-4,10.14-6a63.82,63.82,0,0,1,12.88-6,28.39,28.39,0,0,1,2.92-.75,2,2,0,0,1,2,.74,1.36,1.36,0,0,1,.29,1.72c-.32.54-.69,1.06-1.06,1.57-1.81,2.49-3.72,4.92-5.41,7.48a43,43,0,0,0-2.74,5.26,4.36,4.36,0,0,0-.27,3.08,8,8,0,0,0,1.48-.57c2.22-1.46,4.36-3,6.6-4.42a125.82,125.82,0,0,1,12.54-6.75c6.19-3,12.63-5.37,19-7.86,3.83-1.5,7.78-2.73,11.7-4a22,22,0,0,1,4-.84c1.93-.24,3,1.23,2.15,2.88a17.17,17.17,0,0,1-2.07,2.84c-2.9,3.48-5.88,6.9-8.75,10.4a26.78,26.78,0,0,0-4.51,8c-.45,1.28-1.39,2.6-.35,4,1.43.19,2.42-.78,3.42-1.45A149,149,0,0,1,276,109.78c3.54-1.67,7.16-3.22,10.86-4.55a156.9,156.9,0,0,1,18.88-5.88c4.37-1,8.72-2,13.1-3a12,12,0,0,1,3.27-.28,2,2,0,0,1,1.74,3.11,10.54,10.54,0,0,1-1.47,1.94q-5,5.25-9.93,10.48a40.22,40.22,0,0,0-5.11,6.68,6.25,6.25,0,0,0-.64,1.48.82.82,0,0,0,.21.7.84.84,0,0,0,.75.13c.91-.41,1.82-.84,2.69-1.34,3.49-2,6.93-4.08,10.44-6a121.44,121.44,0,0,1,14.9-6.94c4.35-1.69,8.71-3.35,13.11-4.9a72.58,72.58,0,0,1,12.41-3.5c1.44-.23,2.87-.57,4.31-.8a1.71,1.71,0,0,1,1.67.73,1.57,1.57,0,0,1,0,2.22,43.86,43.86,0,0,1-3.26,3.28,144.85,144.85,0,0,0-11.63,11.48,24.49,24.49,0,0,0-4.57,6.7,12.18,12.18,0,0,0-.74,2.57.88.88,0,0,0,1.27.91c1.49-.69,2.95-1.43,4.37-2.25,5.69-3.28,11.17-6.94,17.2-9.64,3.66-1.64,7.42-3.1,11.16-4.55,2.9-1.13,5.84-2.17,8.79-3.13s5.79-1.74,8.69-2.6c.79-.23,1.6-.43,2.38-.68a46.94,46.94,0,0,1,12.47-1.87,4.48,4.48,0,0,1,1.36.16,2.42,2.42,0,0,1,1.73,3.37,13.46,13.46,0,0,1-1.92,2.93,52.84,52.84,0,0,0-4.46,6.48,9.33,9.33,0,0,0-1.45,4c-.2,2,.55,2.77,2.5,2.48a16.34,16.34,0,0,0,3.43-1q5.13-2,10.2-4.09a141.86,141.86,0,0,1,20.59-6.81c3.83-.94,7.7-1.77,11.6-2.38a36.6,36.6,0,0,1,6.87-.17,6.24,6.24,0,0,1,4.43,1.92,3.64,3.64,0,0,1,.66,1.15.7.7,0,0,1-.71.9,8.25,8.25,0,0,1-1.57-.42,13.56,13.56,0,0,0-6-.78A60.62,60.62,0,0,0,448.93,110a164.1,164.1,0,0,0-22.53,7.11c-2.88,1.18-5.7,2.51-8.59,3.65a57.45,57.45,0,0,1-5.75,1.85c-2.42.67-4.31-.44-5.51-2.9a6.68,6.68,0,0,1-.23-5,20.4,20.4,0,0,1,2.95-5.76Z" fill="currentColor"/><path d="M313.66,267.27a2,2,0,0,0,2.11-.65,151.74,151.74,0,0,1,18.33-13.05A144.6,144.6,0,0,1,353.16,244c4.24-1.77,8.63-3.08,13-4.49a7.75,7.75,0,0,1,2.28-.4,2.08,2.08,0,0,1,1.91,3.16,9.9,9.9,0,0,1-1.32,2c-1.79,2.29-3.64,4.55-5.43,6.85a36,36,0,0,0-4.73,8,3.32,3.32,0,0,0-.21,3.09c.79.51,1.5.12,2.17-.29,2-1.22,4-2.44,6-3.72a142.53,142.53,0,0,1,16.93-9.76c.55-.26,1.12-.46,1.67-.7,6.48-2.68,13-5.09,19.66-7.39,4.24-1.48,8.47-3,12.82-4.09a18.7,18.7,0,0,1,5.62-.67,4.7,4.7,0,0,1,3.23,1.46,3.13,3.13,0,0,1,.69,3.69,13.82,13.82,0,0,1-1.59,2.77c-1.56,2.15-3.18,4.24-4.8,6.35a33.79,33.79,0,0,0-3,4.48,5.15,5.15,0,0,0,1.21-.25c.67-.4,1.32-.85,2-1.3a78,78,0,0,1,24-11.12q3.49-.94,7-1.66a14.51,14.51,0,0,1,3.09-.18,2.16,2.16,0,0,1,1.81,1.34,1.56,1.56,0,0,1-.09,2c-.17,0-.37.16-.49.1a6.56,6.56,0,0,0-4.28-.4A61.61,61.61,0,0,0,440.81,246a110.45,110.45,0,0,0-10.48,4.54,89.32,89.32,0,0,0-7.72,4.88c-1.18.76-2.3,1.61-3.51,2.27-2,1.06-3.37.2-3.67-2.08a5.85,5.85,0,0,1,1.09-4.31c1.18-1.66,2.44-3.26,3.66-4.89,1.37-1.85,2.76-3.68,4.1-5.56a15.55,15.55,0,0,0,1-1.86,3,3,0,0,0-3-.79,47.9,47.9,0,0,0-5.59,1.06c-6.58,1.8-13,4.21-19.38,6.63-4.21,1.59-8.46,3.09-12.53,5a100.4,100.4,0,0,0-16,9.3c-1.78,1.27-3.59,2.49-5.44,3.63a24.06,24.06,0,0,1-2.82,1.31,2.56,2.56,0,0,1-3.22-1,5.66,5.66,0,0,1-.9-5.81,25,25,0,0,1,2-4.38,80.83,80.83,0,0,1,6.79-9.51c.36-.47.67-1,1.09-1.6a4.18,4.18,0,0,0-2.71.25,115.08,115.08,0,0,0-31.18,14.74,168.13,168.13,0,0,0-14.09,10.44,25.1,25.1,0,0,1-3.23,2.23c-1.14.66-1.88.42-2.73-.62a4.42,4.42,0,0,1-1-3.5,11.71,11.71,0,0,1,1.23-3.82,119.4,119.4,0,0,1,7.6-12.19c.64-1,1.31-1.9,1.9-2.89a9.7,9.7,0,0,0,.58-1.66,15.79,15.79,0,0,0-4.74.6,94.72,94.72,0,0,0-21.75,9.1c-6.41,3.69-12.58,7.77-18.7,12a57,57,0,0,1-5.24,2.92,6.5,6.5,0,0,1-1.2.47,3.82,3.82,0,0,1-4.89-3.08,9.79,9.79,0,0,1,.24-4.53,41.29,41.29,0,0,1,5.45-12.16c2.24-3.51,4.59-7,6.87-10.45.57-.88,1.06-1.82,1.76-3a5,5,0,0,0-1.44,0c-2.75,1-5.51,2-8.21,3.21-4.52,2-8.88,4.34-13.22,6.74a117.64,117.64,0,0,0-12.42,8.23c-4.44,3.25-8.77,6.67-13.17,10a22.5,22.5,0,0,1-3.3,2.11c-2.84,1.39-5.51-.3-5.68-3.59a12.29,12.29,0,0,1,1.49-6.74c1.88-3.33,3.86-6.6,5.82-9.88,1.19-2,2.46-3.91,3.67-5.87a13.41,13.41,0,0,0,.63-1.39,2,2,0,0,0-2.08,0c-1.84.77-3.72,1.45-5.49,2.37-9.2,4.75-18.12,10-26.05,16.89-1.72,1.49-3.53,2.87-5.35,4.24a14.82,14.82,0,0,1-2.9,1.75c-2.32,1-4.53-.11-5.36-2.61a9.1,9.1,0,0,1,.21-5.56,22.69,22.69,0,0,1,1.52-3.72c1.78-3.48,3.64-6.93,5.47-10.39.16-.31.28-.63.41-.92-.49-.44-.89-.19-1.26,0a88.28,88.28,0,0,0-18.69,12.44c-1.57,1.39-3.08,2.87-4.6,4.33s-1.81,1.39-3.08-.69a2.79,2.79,0,0,1,.47-.86c5.13-4.79,10.31-9.5,16.49-12.85,2.21-1.2,4.26-2.71,6.47-3.91a38.6,38.6,0,0,1,7.13-3.11,1.57,1.57,0,0,1,1.86.48,1.83,1.83,0,0,1,.19,2.24c-.54.92-1.14,1.8-1.73,2.69a70.64,70.64,0,0,0-7.95,15.37,13.28,13.28,0,0,0-.6,2.88,6.91,6.91,0,0,0,.26,1.74,4.47,4.47,0,0,0,1.48-.19,27.42,27.42,0,0,0,3.57-2.14c2.65-2,5.26-4.05,7.84-6.15a122.94,122.94,0,0,1,11.4-7.88,94.58,94.58,0,0,1,11-6c1.25-.59,2.44-1.33,3.68-2a18.71,18.71,0,0,1,6.46-1.72c2.23-.26,3.45,1.44,2.56,3.57a16,16,0,0,1-1.18,2.09c-3,4.91-6.09,9.79-9,14.75a24.39,24.39,0,0,0-1.86,4.43,4.69,4.69,0,0,0-.07,3.52,5,5,0,0,0,1.51-.28,24.14,24.14,0,0,0,3.12-1.88c4.87-3.56,9.67-7.2,14.57-10.71,2.63-1.88,5.35-3.63,8.09-5.31,2.9-1.76,5.82-3.5,8.84-5a137.08,137.08,0,0,1,15.39-7,8.14,8.14,0,0,1,4-.57,2.37,2.37,0,0,1,2,2.89,6.94,6.94,0,0,1-.81,2c-.93,1.51-1.92,3-2.9,4.46-2.88,4.37-6,8.55-8.31,13.32a28.35,28.35,0,0,0-2.89,8.6c-.28,2,.49,2.75,2.3,2.06A14.88,14.88,0,0,0,273,267c2.29-1.41,4.56-2.87,6.84-4.31,3.16-2,6.28-4.09,9.51-6,4-2.37,8.1-4.74,12.29-6.81a77.9,77.9,0,0,1,17-6.17,14.77,14.77,0,0,1,4.09-.34c2,.12,3,1.76,2.42,3.78a7.69,7.69,0,0,1-1,1.89c-2.24,3.41-4.54,6.77-6.72,10.22-1.22,1.95-2.26,4-3.33,6.07A10.71,10.71,0,0,0,313.66,267.27Z" fill="currentColor"/><path d="M169.26,198.18c-1.09,0-1.62,0-2.14,0a47.35,47.35,0,0,0-10,1.6c-5.54,1.35-10.91,3.21-16.28,5a141.94,141.94,0,0,0-19.2,8.11c-1.13.58-2.18,1.31-3.27,2-2.57,1.57-5.12,3.16-7.7,4.72-1.25.75-2.54,1.45-3.82,2.15a7.5,7.5,0,0,1-1.52.63,3.4,3.4,0,0,1-4.6-3.2,9.66,9.66,0,0,1,1.75-6.4,50,50,0,0,1,4.18-5.33c3.1-3.32,6.34-6.5,9.52-9.75.62-.63,1.24-1.28,1.83-1.89-.47-.89-1-.36-1.48-.25a200.17,200.17,0,0,0-21.67,7.09,134.62,134.62,0,0,0-24.92,12.61c-.92.6-1.86,1.17-2.83,1.69a15.1,15.1,0,0,1-2.5,1.11A3.43,3.43,0,0,1,60.05,214a10.61,10.61,0,0,1,2.19-4.32c2.22-2.63,4.46-5.25,6.75-7.82,1.75-2,3.6-3.85,5.38-5.79a15.14,15.14,0,0,0,1-1.48c-.3-.2-.45-.39-.57-.36-2.52.48-5,1-7.54,1.5-1.17.24-2.34.48-3.5.76-14.3,3.35-27.73,8.91-40.67,15.64-3,1.56-5.77,3.5-8.66,5.25-1.17.7-2.35,1.42-3.58,2-1.77.84-3.24.5-4.47-1.81a5.68,5.68,0,0,1-.24-4.21,23.59,23.59,0,0,1,3.23-7.4,84.32,84.32,0,0,1,6-7.74q1.94-2.3,3.84-4.6a12.79,12.79,0,0,0,.86-1.41c-1.3.31-2.19.47-3,.74a233.63,233.63,0,0,0-26.17,10,107.23,107.23,0,0,0-16.31,9c-.9.62-1.76,1.3-2.66,1.92-1.05.72-2.1,1.47-3.21,2.09a2.24,2.24,0,0,1-2.79-.36,4.69,4.69,0,0,1-1.7-4.33,19.19,19.19,0,0,1,3.2-8c1-1.43,2-2.83,2.93-4.25.24-.36.43-.75.67-1.16a2.22,2.22,0,0,0-2.19.25c-2.47,1.18-5,2.3-7.37,3.65q-7.41,4.17-14.68,8.57c-2.88,1.75-5.67,3.67-8.42,5.62a20.8,20.8,0,0,0-2.51,2.46,1.53,1.53,0,0,1-2.39-.14,1.34,1.34,0,0,1,0-2.13,37,37,0,0,1,4-3.28c3.66-2.4,7.38-4.72,11.12-7,3.35-2.05,6.74-4,10.14-6a63.82,63.82,0,0,1,12.88-6,29.06,29.06,0,0,1,2.92-.75,2,2,0,0,1,2,.74,1.35,1.35,0,0,1,.28,1.72c-.32.54-.69,1.06-1.06,1.57-1.81,2.49-3.72,4.92-5.41,7.48a43,43,0,0,0-2.74,5.26,4.41,4.41,0,0,0-.27,3.08,7.72,7.72,0,0,0,1.49-.58c2.21-1.45,4.36-3,6.59-4.41a125.82,125.82,0,0,1,12.54-6.75c6.19-3,12.63-5.37,19-7.86,3.84-1.5,7.78-2.73,11.7-4a22,22,0,0,1,4-.84c1.93-.24,3,1.22,2.16,2.88a17.23,17.23,0,0,1-2.08,2.84c-2.9,3.48-5.88,6.9-8.75,10.4a26.66,26.66,0,0,0-4.51,8c-.45,1.28-1.39,2.6-.35,4,1.43.19,2.42-.78,3.42-1.45A147.87,147.87,0,0,1,32,204.63c3.54-1.67,7.17-3.22,10.86-4.55a156.9,156.9,0,0,1,18.88-5.88c4.37-1,8.73-2,13.1-3a12,12,0,0,1,3.27-.28,2,2,0,0,1,1.74,3.1A9.82,9.82,0,0,1,78.42,196q-4.94,5.26-9.93,10.49a40.22,40.22,0,0,0-5.11,6.68,6.69,6.69,0,0,0-.64,1.48.82.82,0,0,0,.21.7.91.91,0,0,0,.75.13c.91-.41,1.82-.84,2.69-1.34,3.49-2,6.93-4.08,10.44-6a120.94,120.94,0,0,1,14.91-6.95c4.34-1.68,8.7-3.34,13.1-4.89a72.58,72.58,0,0,1,12.41-3.5c1.44-.23,2.87-.57,4.31-.8a1.68,1.68,0,0,1,1.67.73,1.55,1.55,0,0,1,0,2.21,42.17,42.17,0,0,1-3.26,3.29,143.07,143.07,0,0,0-11.62,11.48,24.16,24.16,0,0,0-4.58,6.7,11.84,11.84,0,0,0-.74,2.57.89.89,0,0,0,1.27.91c1.49-.69,3-1.43,4.37-2.25,5.69-3.28,11.17-6.94,17.2-9.64,3.67-1.64,7.42-3.1,11.17-4.55,2.89-1.13,5.83-2.17,8.78-3.13s5.8-1.74,8.7-2.6c.79-.24,1.59-.43,2.37-.68a46.94,46.94,0,0,1,12.47-1.87,4.48,4.48,0,0,1,1.36.16,2.42,2.42,0,0,1,1.73,3.37,13.46,13.46,0,0,1-1.92,2.93,54.67,54.67,0,0,0-4.46,6.47,9.55,9.55,0,0,0-1.45,4c-.2,2,.55,2.77,2.51,2.48a16.45,16.45,0,0,0,3.42-1q5.13-2,10.21-4.08a141.37,141.37,0,0,1,20.58-6.82c3.83-.94,7.7-1.76,11.6-2.37a36.62,36.62,0,0,1,6.87-.17,6.22,6.22,0,0,1,4.43,1.92,3.64,3.64,0,0,1,.66,1.15.7.7,0,0,1-.71.9,8.46,8.46,0,0,1-1.57-.42,13.53,13.53,0,0,0-5.95-.78A61.14,61.14,0,0,0,205,204.79a164.27,164.27,0,0,0-22.54,7.12c-2.88,1.18-5.7,2.51-8.59,3.65a57.27,57.27,0,0,1-5.74,1.85c-2.42.67-4.32-.44-5.52-2.91a6.66,6.66,0,0,1-.23-5,20.4,20.4,0,0,1,3-5.76C166.53,202,167.73,200.36,169.26,198.18Z" fill="currentColor"/><path d="M18.61,25.76c-.07,0-.14,0-.19,0s-.09-.09-.14-.14a1.24,1.24,0,0,1,.27,0S18.59,25.71,18.61,25.76Z" fill="currentColor"/><path d="M-34,78.81a2,2,0,0,0,2.11-.65,149.87,149.87,0,0,1,18.33-13,145.27,145.27,0,0,1,19.06-9.6c4.24-1.77,8.62-3.08,13-4.49a8.46,8.46,0,0,1,2.28-.4,2.08,2.08,0,0,1,1.91,3.16,10,10,0,0,1-1.32,2c-1.8,2.3-3.64,4.55-5.43,6.86a35.35,35.35,0,0,0-4.73,8A3.35,3.35,0,0,0,11,73.71c.8.51,1.51.12,2.18-.28,2-1.22,4-2.45,6-3.72a141.24,141.24,0,0,1,16.93-9.77c.55-.25,1.12-.46,1.68-.69,6.48-2.68,13-5.1,19.65-7.4,4.25-1.48,8.47-3,12.82-4.09a19.13,19.13,0,0,1,5.63-.67,4.71,4.71,0,0,1,3.23,1.47,3.14,3.14,0,0,1,.69,3.69A14.63,14.63,0,0,1,78.16,55c-1.56,2.14-3.19,4.24-4.8,6.34a34.46,34.46,0,0,0-3,4.48,4.67,4.67,0,0,0,1.21-.25c.67-.39,1.31-.85,2-1.3a78,78,0,0,1,24-11.11c2.32-.64,4.68-1.18,7-1.66a13.85,13.85,0,0,1,3.09-.19,2.18,2.18,0,0,1,1.81,1.35,1.58,1.58,0,0,1-.09,2c-.17,0-.37.15-.49.09a6.57,6.57,0,0,0-4.28-.39,61.59,61.59,0,0,0-11.47,3.12C89.58,58.86,86,60.29,82.64,62c-2.69,1.38-5.15,3.24-7.72,4.89-1.17.75-2.29,1.61-3.51,2.27-1.94,1-3.36.2-3.67-2.08a5.88,5.88,0,0,1,1.1-4.32c1.18-1.66,2.44-3.26,3.66-4.89,1.37-1.84,2.76-3.68,4.1-5.55a14.33,14.33,0,0,0,1-1.87,3,3,0,0,0-3-.78A44.25,44.25,0,0,0,69,50.75c-6.59,1.8-13,4.2-19.38,6.62-4.21,1.6-8.46,3.09-12.54,5a100.8,100.8,0,0,0-16,9.31c-1.78,1.26-3.59,2.48-5.44,3.63a25.05,25.05,0,0,1-2.83,1.3c-1.32.61-2.34.06-3.22-.95a5.71,5.71,0,0,1-.9-5.82,25.67,25.67,0,0,1,2-4.37A80,80,0,0,1,17.5,56c.35-.47.66-1,1.09-1.61a4.23,4.23,0,0,0-2.71.26A114.76,114.76,0,0,0-15.3,69.33,166.21,166.21,0,0,0-29.4,79.78,23.71,23.71,0,0,1-32.63,82c-1.13.66-1.88.43-2.72-.61a4.41,4.41,0,0,1-1-3.51,11.66,11.66,0,0,1,1.23-3.81,119.54,119.54,0,0,1,7.6-12.2c.64-.95,1.3-1.89,1.89-2.89A8.9,8.9,0,0,0-25,57.32a15.71,15.71,0,0,0-4.73.61A94.25,94.25,0,0,0-51.52,67c-6.41,3.7-12.59,7.78-18.71,12a57.75,57.75,0,0,1-5.23,2.91,5.76,5.76,0,0,1-1.21.48,3.82,3.82,0,0,1-4.88-3.09,9.79,9.79,0,0,1,.24-4.53,41.35,41.35,0,0,1,5.45-12.15c2.24-3.52,4.59-7,6.86-10.46.58-.88,1.07-1.82,1.76-3a5.08,5.08,0,0,0-1.43,0c-2.75,1-5.52,2-8.21,3.22-4.52,2-8.89,4.33-13.22,6.74a118.73,118.73,0,0,0-12.43,8.22c-4.44,3.26-8.76,6.67-13.17,10A20.42,20.42,0,0,1-119,79.4c-2.84,1.4-5.52-.3-5.68-3.58a12.32,12.32,0,0,1,1.49-6.75c1.88-3.33,3.85-6.6,5.82-9.87,1.19-2,2.46-3.91,3.66-5.88a11.65,11.65,0,0,0,.64-1.39,2,2,0,0,0-2.08,0c-1.84.76-3.72,1.45-5.49,2.36-9.21,4.75-18.12,10-26.05,16.89-1.72,1.5-3.54,2.88-5.36,4.24a14.79,14.79,0,0,1-2.89,1.76c-2.33,1-4.54-.11-5.36-2.61a9.06,9.06,0,0,1,.21-5.57,23.45,23.45,0,0,1,1.51-3.71c1.79-3.49,3.65-6.93,5.47-10.4.16-.3.29-.62.42-.91-.49-.44-.89-.2-1.26,0a87.7,87.7,0,0,0-18.69,12.45c-1.58,1.39-3.08,2.87-4.6,4.33s-1.81,1.38-3.09-.69a3.28,3.28,0,0,1,.47-.86c5.13-4.79,10.32-9.51,16.5-12.85,2.21-1.2,4.26-2.71,6.47-3.91a37.3,37.3,0,0,1,7.13-3.11,1.57,1.57,0,0,1,1.86.47,1.82,1.82,0,0,1,.18,2.25c-.53.92-1.13,1.8-1.72,2.68a70.48,70.48,0,0,0-7.95,15.38A12.63,12.63,0,0,0-158,73a7.33,7.33,0,0,0,.25,1.75,4.76,4.76,0,0,0,1.49-.2,26.65,26.65,0,0,0,3.56-2.14c2.66-2,5.26-4,7.84-6.14a126.41,126.41,0,0,1,11.4-7.89,95.54,95.54,0,0,1,11-6c1.25-.59,2.44-1.32,3.67-2a18.78,18.78,0,0,1,6.47-1.73c2.22-.26,3.44,1.45,2.55,3.57a14.29,14.29,0,0,1-1.17,2.09c-3,4.92-6.09,9.8-9,14.76a24,24,0,0,0-1.87,4.42,4.64,4.64,0,0,0-.06,3.52,5.21,5.21,0,0,0,1.5-.27,23.55,23.55,0,0,0,3.12-1.89c4.87-3.55,9.68-7.2,14.58-10.71,2.62-1.88,5.34-3.63,8.09-5.3,2.9-1.77,5.82-3.51,8.84-5a137,137,0,0,1,15.38-7,8.41,8.41,0,0,1,4.05-.57,2.38,2.38,0,0,1,2,2.9,6.63,6.63,0,0,1-.82,2c-.92,1.52-1.91,3-2.89,4.47-2.88,4.36-6,8.55-8.32,13.31a28.87,28.87,0,0,0-2.89,8.61c-.27,2,.5,2.74,2.3,2a13,13,0,0,0,2.33-1.16c2.3-1.41,4.57-2.87,6.84-4.31,3.17-2,6.29-4.09,9.51-6,4-2.37,8.11-4.73,12.3-6.81a78.53,78.53,0,0,1,17-6.17,14.45,14.45,0,0,1,4.09-.33c2,.11,3,1.75,2.43,3.78a7.33,7.33,0,0,1-1,1.88C-25.68,64-28,67.34-30.16,70.8c-1.22,1.94-2.26,4-3.33,6.07A10.48,10.48,0,0,0-34,78.81Z" fill="currentColor"/><path d="M-48.2,9.71c-1.09,0-1.62,0-2.14,0a46.72,46.72,0,0,0-10,1.6c-5.54,1.35-10.91,3.21-16.29,5a142.3,142.3,0,0,0-19.19,8.1c-1.13.58-2.19,1.31-3.27,2-2.57,1.58-5.12,3.17-7.7,4.72-1.25.76-2.54,1.46-3.82,2.15a7.53,7.53,0,0,1-1.52.64,3.4,3.4,0,0,1-4.6-3.21,9.67,9.67,0,0,1,1.75-6.4A50,50,0,0,1-110.83,19c3.1-3.32,6.34-6.5,9.52-9.74l1.83-1.9c-.47-.88-1-.36-1.48-.25a200.17,200.17,0,0,0-21.67,7.09,135.24,135.24,0,0,0-24.92,12.61c-.92.6-1.86,1.17-2.83,1.69a15.14,15.14,0,0,1-2.5,1.12,3.43,3.43,0,0,1-4.53-4.13,10.37,10.37,0,0,1,2.19-4.32c2.22-2.63,4.46-5.25,6.75-7.83,1.75-2,3.6-3.84,5.38-5.79a13.9,13.9,0,0,0,1-1.47c-.3-.2-.45-.39-.57-.37q-3.78.74-7.54,1.5c-1.17.24-2.34.49-3.5.76-14.3,3.36-27.73,8.92-40.67,15.65-3,1.55-5.77,3.5-8.66,5.24-1.17.71-2.35,1.42-3.58,2-1.77.84-3.24.5-4.47-1.8a5.7,5.7,0,0,1-.24-4.22,23.59,23.59,0,0,1,3.23-7.4,84.32,84.32,0,0,1,6-7.74q1.94-2.28,3.84-4.59a14.32,14.32,0,0,0,.86-1.42c-1.3.32-2.19.47-3,.75a235.53,235.53,0,0,0-26.17,10,106.76,106.76,0,0,0-16.31,9c-.9.63-1.76,1.31-2.66,1.93s-2.1,1.46-3.21,2.09a2.25,2.25,0,0,1-2.79-.36,4.69,4.69,0,0,1-1.7-4.34,19.14,19.14,0,0,1,3.2-8c1-1.43,2-2.83,2.93-4.25.24-.36.43-.75.67-1.16a2.22,2.22,0,0,0-2.19.24c-2.48,1.18-5,2.31-7.37,3.65q-7.41,4.17-14.68,8.57c-2.88,1.76-5.67,3.68-8.42,5.62a20.89,20.89,0,0,0-2.51,2.47,1.54,1.54,0,0,1-2.39-.15,1.33,1.33,0,0,1,0-2.12,34.79,34.79,0,0,1,4-3.28c3.66-2.41,7.38-4.72,11.12-7,3.35-2,6.74-4,10.14-6a64.41,64.41,0,0,1,12.88-6,28.39,28.39,0,0,1,2.92-.75,2,2,0,0,1,2,.74,1.37,1.37,0,0,1,.28,1.73c-.32.54-.69,1.06-1.06,1.57-1.81,2.49-3.72,4.91-5.41,7.48a42.3,42.3,0,0,0-2.74,5.26,4.39,4.39,0,0,0-.27,3.07,7.73,7.73,0,0,0,1.49-.57c2.21-1.45,4.36-3,6.59-4.41a121.83,121.83,0,0,1,12.54-6.75c6.19-3,12.63-5.37,19-7.87,3.84-1.49,7.78-2.72,11.7-4a22,22,0,0,1,4-.83c1.93-.25,3,1.22,2.16,2.87a17.23,17.23,0,0,1-2.08,2.84c-2.9,3.48-5.88,6.9-8.75,10.4a26.71,26.71,0,0,0-4.51,8c-.45,1.27-1.39,2.59-.35,4,1.43.19,2.42-.77,3.42-1.44a146.71,146.71,0,0,1,19.5-10.56c3.54-1.67,7.16-3.23,10.86-4.56a156.9,156.9,0,0,1,18.88-5.88c4.37-1,8.72-2,13.1-3a12,12,0,0,1,3.27-.28,2,2,0,0,1,1.74,3.11A10.22,10.22,0,0,1-139,7.53Q-144,12.79-149,18a39.89,39.89,0,0,0-5.11,6.69,6.42,6.42,0,0,0-.64,1.47.84.84,0,0,0,.21.71.87.87,0,0,0,.75.12c.91-.41,1.82-.84,2.69-1.33,3.49-2,6.93-4.09,10.44-6a121.44,121.44,0,0,1,14.9-6.94c4.35-1.68,8.71-3.35,13.11-4.9A72.56,72.56,0,0,1-100.21,4.3c1.44-.24,2.87-.57,4.31-.81a1.7,1.7,0,0,1,1.67.74,1.55,1.55,0,0,1,0,2.21,42,42,0,0,1-3.26,3.28A144.72,144.72,0,0,0-109.09,21.2a24.46,24.46,0,0,0-4.58,6.7,12.18,12.18,0,0,0-.74,2.57.89.89,0,0,0,1.27.92c1.49-.7,3-1.44,4.37-2.25,5.69-3.29,11.17-6.95,17.2-9.64,3.67-1.64,7.42-3.11,11.17-4.56,2.89-1.12,5.83-2.16,8.78-3.13s5.8-1.74,8.69-2.6c.79-.23,1.6-.43,2.38-.68A46.94,46.94,0,0,1-48.08,6.66a4.82,4.82,0,0,1,1.36.16A2.43,2.43,0,0,1-45,10.2a13.71,13.71,0,0,1-1.92,2.93,53.51,53.51,0,0,0-4.46,6.47,9.46,9.46,0,0,0-1.45,4c-.2,2,.55,2.76,2.5,2.47a15.76,15.76,0,0,0,3.43-1q5.13-2,10.2-4.09A141.86,141.86,0,0,1-16.1,14.25c3.83-.94,7.7-1.77,11.6-2.37a37.46,37.46,0,0,1,6.87-.18A6.28,6.28,0,0,1,6.8,13.62a3.87,3.87,0,0,1,.66,1.15.7.7,0,0,1-.71.9,7,7,0,0,1-1.57-.42,13.68,13.68,0,0,0-5.95-.78,60.38,60.38,0,0,0-11.68,1.86A163.84,163.84,0,0,0-35,23.45c-2.88,1.18-5.7,2.5-8.59,3.64A54.87,54.87,0,0,1-49.32,29c-2.42.66-4.32-.44-5.52-2.91a6.68,6.68,0,0,1-.23-5,20.4,20.4,0,0,1,3-5.76Z" fill="currentColor"/><path d="M-105.06,176.73a2,2,0,0,0,2.11-.65A150.64,150.64,0,0,1-84.62,163a144.6,144.6,0,0,1,19.06-9.59c4.24-1.78,8.62-3.09,13-4.5a8.46,8.46,0,0,1,2.28-.4,2.09,2.09,0,0,1,1.91,3.16,10,10,0,0,1-1.32,2c-1.79,2.29-3.64,4.55-5.43,6.85a36,36,0,0,0-4.73,8,3.32,3.32,0,0,0-.21,3.09c.79.5,1.5.12,2.17-.29,2-1.22,4-2.44,6-3.72A142.6,142.6,0,0,1-35,157.86c.55-.25,1.11-.46,1.67-.69,6.48-2.68,13.05-5.09,19.66-7.4,4.24-1.48,8.47-3,12.82-4.08A18.71,18.71,0,0,1,4.79,145,4.71,4.71,0,0,1,8,146.48a3.15,3.15,0,0,1,.69,3.69,13.82,13.82,0,0,1-1.59,2.77c-1.56,2.15-3.18,4.24-4.8,6.34a34.46,34.46,0,0,0-3,4.48,4.28,4.28,0,0,0,1.21-.25c.67-.39,1.32-.85,2-1.3a78,78,0,0,1,24-11.11c2.33-.64,4.68-1.18,7-1.66a14.51,14.51,0,0,1,3.09-.19,2.2,2.2,0,0,1,1.81,1.35,1.56,1.56,0,0,1-.09,2c-.17,0-.37.15-.49.09a6.55,6.55,0,0,0-4.28-.39,62.37,62.37,0,0,0-11.47,3.12,113.08,113.08,0,0,0-10.48,4.54c-2.7,1.38-5.16,3.24-7.72,4.89-1.18.75-2.3,1.61-3.51,2.27-1.95,1.05-3.37.2-3.67-2.08A5.88,5.88,0,0,1-2.2,160.7C-1,159,.24,157.45,1.46,155.81c1.37-1.84,2.76-3.68,4.1-5.55a15.55,15.55,0,0,0,1-1.86,3,3,0,0,0-3-.79A44.07,44.07,0,0,0-2,148.67c-6.58,1.8-13,4.2-19.38,6.63-4.21,1.59-8.46,3.09-12.54,5a100,100,0,0,0-16,9.3q-2.67,1.91-5.44,3.63a23.41,23.41,0,0,1-2.83,1.3c-1.32.61-2.34.06-3.21-1a5.66,5.66,0,0,1-.9-5.82,24.87,24.87,0,0,1,2-4.37,80,80,0,0,1,6.79-9.51c.36-.47.67-1,1.09-1.6a4.18,4.18,0,0,0-2.71.25,114.49,114.49,0,0,0-31.18,14.74,162.28,162.28,0,0,0-14.09,10.44,25,25,0,0,1-3.23,2.22c-1.14.66-1.88.43-2.73-.61a4.41,4.41,0,0,1-1-3.51,11.74,11.74,0,0,1,1.23-3.81,118.32,118.32,0,0,1,7.6-12.19c.64-1,1.31-1.9,1.9-2.89a10.18,10.18,0,0,0,.58-1.67,16.1,16.1,0,0,0-4.74.61,94.25,94.25,0,0,0-21.75,9.09c-6.41,3.7-12.58,7.78-18.7,12a57,57,0,0,1-5.24,2.92,6.5,6.5,0,0,1-1.2.47,3.82,3.82,0,0,1-4.89-3.09,9.79,9.79,0,0,1,.24-4.53,41.35,41.35,0,0,1,5.45-12.15c2.24-3.52,4.59-7,6.87-10.46.57-.88,1.06-1.82,1.76-3a5.15,5.15,0,0,0-1.44,0c-2.75,1-5.52,2-8.21,3.22-4.52,2-8.88,4.33-13.22,6.74a116.11,116.11,0,0,0-12.42,8.23c-4.44,3.25-8.77,6.67-13.17,10a21.63,21.63,0,0,1-3.3,2.1c-2.84,1.4-5.51-.29-5.68-3.58a12.32,12.32,0,0,1,1.49-6.75c1.88-3.33,3.86-6.6,5.82-9.87,1.19-2,2.46-3.91,3.67-5.88a13.41,13.41,0,0,0,.63-1.39,2,2,0,0,0-2.08,0c-1.84.77-3.72,1.45-5.49,2.36-9.2,4.75-18.12,10-26.05,16.9-1.72,1.49-3.53,2.87-5.35,4.23a14.39,14.39,0,0,1-2.9,1.76c-2.32,1-4.53-.11-5.36-2.61a9.1,9.1,0,0,1,.21-5.56,22.34,22.34,0,0,1,1.52-3.72c1.78-3.49,3.64-6.93,5.47-10.4.16-.3.28-.62.41-.91-.49-.44-.89-.19-1.26,0a87.53,87.53,0,0,0-18.69,12.44c-1.57,1.39-3.08,2.87-4.6,4.33s-1.81,1.38-3.08-.69a3,3,0,0,1,.46-.86c5.14-4.79,10.32-9.5,16.5-12.85,2.21-1.2,4.26-2.71,6.47-3.91a37.94,37.94,0,0,1,7.13-3.11,1.59,1.59,0,0,1,1.86.47,1.84,1.84,0,0,1,.19,2.25c-.54.92-1.14,1.8-1.73,2.68a70.71,70.71,0,0,0-7.95,15.38,13.28,13.28,0,0,0-.6,2.88,6.91,6.91,0,0,0,.26,1.74,4.46,4.46,0,0,0,1.48-.2,25.36,25.36,0,0,0,3.57-2.14c2.65-2,5.26-4.05,7.84-6.14a124.15,124.15,0,0,1,11.39-7.88,97.18,97.18,0,0,1,11-6c1.25-.59,2.44-1.32,3.68-2a18.67,18.67,0,0,1,6.46-1.73c2.23-.26,3.44,1.45,2.56,3.57a15.35,15.35,0,0,1-1.18,2.09c-3,4.92-6.09,9.8-9,14.76a24.13,24.13,0,0,0-1.87,4.43,4.69,4.69,0,0,0-.06,3.52,5.27,5.27,0,0,0,1.51-.28,26.08,26.08,0,0,0,3.12-1.88c4.87-3.56,9.67-7.2,14.57-10.72,2.63-1.88,5.34-3.62,8.09-5.3,2.9-1.76,5.82-3.5,8.84-5a139,139,0,0,1,15.39-7,8.37,8.37,0,0,1,4.05-.57,2.38,2.38,0,0,1,2,2.9,6.94,6.94,0,0,1-.81,2c-.93,1.51-1.92,3-2.9,4.46-2.88,4.36-6,8.55-8.32,13.31a28.57,28.57,0,0,0-2.88,8.61c-.28,2,.49,2.75,2.3,2.06a14.88,14.88,0,0,0,2.33-1.16c2.29-1.42,4.56-2.87,6.84-4.32,3.16-2,6.28-4.09,9.51-6,4-2.37,8.1-4.74,12.29-6.81a77.93,77.93,0,0,1,17-6.18,14.76,14.76,0,0,1,4.09-.33c2,.11,3,1.75,2.42,3.78a7.69,7.69,0,0,1-1,1.89c-2.24,3.41-4.55,6.77-6.72,10.22-1.22,1.95-2.26,4-3.33,6.07A10.48,10.48,0,0,0-105.06,176.73Z" fill="currentColor"/><path d="M129.72,103.33c-1.09,0-1.61,0-2.13,0a46.64,46.64,0,0,0-10,1.61c-5.54,1.34-10.92,3.2-16.29,5a141.94,141.94,0,0,0-19.2,8.11c-1.13.58-2.18,1.31-3.27,2-2.56,1.57-5.12,3.17-7.7,4.72-1.25.75-2.53,1.45-3.82,2.15a7,7,0,0,1-1.52.63,3.4,3.4,0,0,1-4.6-3.2,9.71,9.71,0,0,1,1.75-6.4,50.11,50.11,0,0,1,4.19-5.33c3.09-3.32,6.33-6.5,9.51-9.74.63-.64,1.24-1.29,1.83-1.9-.47-.88-1-.36-1.48-.25a200.89,200.89,0,0,0-21.67,7.09,134.62,134.62,0,0,0-24.92,12.61c-.91.6-1.85,1.17-2.82,1.69A14.41,14.41,0,0,1,25,123.23a3.42,3.42,0,0,1-4.52-4.13,10.49,10.49,0,0,1,2.18-4.31c2.23-2.63,4.47-5.25,6.76-7.83,1.74-2,3.59-3.85,5.37-5.79a14.11,14.11,0,0,0,1.05-1.48c-.3-.19-.46-.38-.58-.36-2.51.48-5,1-7.54,1.5-1.16.24-2.33.48-3.49.76C10,104.94-3.46,110.5-16.4,117.23c-3,1.56-5.78,3.5-8.67,5.25-1.17.7-2.34,1.42-3.58,2-1.76.84-3.23.5-4.46-1.81a5.68,5.68,0,0,1-.25-4.21,23.38,23.38,0,0,1,3.24-7.4,82.49,82.49,0,0,1,6-7.74c1.29-1.53,2.58-3.06,3.84-4.6a14.15,14.15,0,0,0,.87-1.41c-1.31.32-2.19.47-3,.74a234.21,234.21,0,0,0-26.16,10,106.29,106.29,0,0,0-16.31,9c-.9.63-1.76,1.3-2.66,1.92-1.06.73-2.1,1.47-3.21,2.09a2.24,2.24,0,0,1-2.79-.36,4.67,4.67,0,0,1-1.71-4.33,19.37,19.37,0,0,1,3.2-8c1-1.42,2-2.82,2.93-4.25a12.64,12.64,0,0,0,.67-1.16,2.23,2.23,0,0,0-2.18.25c-2.48,1.18-5,2.3-7.38,3.65q-7.39,4.17-14.67,8.57c-2.89,1.75-5.67,3.67-8.43,5.62a22.4,22.4,0,0,0-2.51,2.46,1.53,1.53,0,0,1-2.39-.14,1.35,1.35,0,0,1,0-2.13,38,38,0,0,1,4-3.28c3.66-2.4,7.38-4.72,11.12-7,3.35-2,6.74-4,10.14-6a64.08,64.08,0,0,1,12.88-6A29.77,29.77,0,0,1-65,98.22a2,2,0,0,1,2,.74,1.36,1.36,0,0,1,.29,1.72c-.33.54-.69,1.06-1.06,1.57-1.81,2.49-3.73,4.92-5.42,7.48A44.39,44.39,0,0,0-72,115a4.36,4.36,0,0,0-.28,3.08,8.16,8.16,0,0,0,1.49-.57c2.21-1.46,4.36-3,6.59-4.42a127.09,127.09,0,0,1,12.55-6.75c6.19-3,12.63-5.37,19-7.86,3.83-1.5,7.77-2.73,11.7-4a21.86,21.86,0,0,1,4-.84c1.92-.24,3,1.23,2.15,2.88a17.76,17.76,0,0,1-2.07,2.84c-2.91,3.48-5.88,6.9-8.75,10.4a26.35,26.35,0,0,0-4.51,8c-.45,1.28-1.4,2.6-.36,4C-29,122-28,121-27,120.34A149,149,0,0,1-7.5,109.78c3.55-1.67,7.17-3.22,10.86-4.55a157.46,157.46,0,0,1,18.88-5.88c4.37-1,8.73-2,13.1-3a12.07,12.07,0,0,1,3.28-.28,2,2,0,0,1,1.74,3.11,10.6,10.6,0,0,1-1.48,1.94Q33.95,106.4,29,111.63a39.69,39.69,0,0,0-5.11,6.68,6.73,6.73,0,0,0-.65,1.48.8.8,0,0,0,.22.7.82.82,0,0,0,.74.13,29.47,29.47,0,0,0,2.7-1.34c3.48-2,6.92-4.08,10.44-6a120.75,120.75,0,0,1,14.9-6.94c4.35-1.69,8.7-3.35,13.1-4.9a73.1,73.1,0,0,1,12.41-3.5c1.45-.23,2.87-.57,4.31-.8a1.73,1.73,0,0,1,1.68.73,1.58,1.58,0,0,1,0,2.22,45.85,45.85,0,0,1-3.26,3.28,144.85,144.85,0,0,0-11.63,11.48,24.31,24.31,0,0,0-4.58,6.7,12.8,12.8,0,0,0-.74,2.57.89.89,0,0,0,1.28.91c1.48-.69,2.95-1.43,4.36-2.25,5.7-3.28,11.18-6.94,17.21-9.64,3.66-1.64,7.41-3.1,11.16-4.55q4.35-1.69,8.79-3.13c2.87-.94,5.79-1.74,8.69-2.6.79-.23,1.59-.43,2.38-.68a46.92,46.92,0,0,1,12.46-1.87,4.55,4.55,0,0,1,1.37.16,2.42,2.42,0,0,1,1.72,3.37,13.11,13.11,0,0,1-1.92,2.93,55.16,55.16,0,0,0-4.46,6.48,9.32,9.32,0,0,0-1.44,4c-.21,2,.54,2.77,2.5,2.48a16.34,16.34,0,0,0,3.43-1q5.13-2,10.2-4.09a141.45,141.45,0,0,1,20.59-6.81c3.83-.94,7.7-1.77,11.59-2.38a36.72,36.72,0,0,1,6.88-.17,6.2,6.2,0,0,1,4.42,1.92,3.64,3.64,0,0,1,.66,1.15.69.69,0,0,1-.7.9,8.35,8.35,0,0,1-1.58-.42,13.52,13.52,0,0,0-5.95-.78A60.5,60.5,0,0,0,165.47,110a163.66,163.66,0,0,0-22.53,7.11c-2.88,1.18-5.7,2.51-8.6,3.65a56.45,56.45,0,0,1-5.74,1.85c-2.42.67-4.32-.44-5.51-2.9a6.73,6.73,0,0,1-.24-5,20.43,20.43,0,0,1,3-5.76C127,107.2,128.19,105.51,129.72,103.33Z" fill="currentColor"/><path d="M30.2,267.27a2,2,0,0,0,2.11-.65,150.18,150.18,0,0,1,18.33-13.05A144,144,0,0,1,69.7,244c4.24-1.77,8.62-3.08,13-4.49a7.82,7.82,0,0,1,2.29-.4,2.09,2.09,0,0,1,1.91,3.16,10.35,10.35,0,0,1-1.32,2c-1.8,2.29-3.64,4.55-5.43,6.85a35.61,35.61,0,0,0-4.74,8,3.38,3.38,0,0,0-.21,3.09c.8.51,1.51.12,2.18-.29,2-1.22,4-2.44,6-3.72a142.53,142.53,0,0,1,16.93-9.76c.55-.26,1.12-.46,1.68-.7,6.48-2.68,13-5.09,19.65-7.39,4.24-1.48,8.47-3,12.82-4.09a18.78,18.78,0,0,1,5.62-.67,4.68,4.68,0,0,1,3.23,1.46,3.12,3.12,0,0,1,.69,3.69,13.78,13.78,0,0,1-1.58,2.77c-1.56,2.15-3.19,4.24-4.8,6.35a32.84,32.84,0,0,0-3,4.48,5.16,5.16,0,0,0,1.2-.25c.68-.4,1.32-.85,2-1.3a77.79,77.79,0,0,1,24-11.12c2.32-.63,4.68-1.18,7-1.66a14.41,14.41,0,0,1,3.08-.18,2.17,2.17,0,0,1,1.82,1.34,1.58,1.58,0,0,1-.09,2c-.17,0-.37.16-.49.1a6.57,6.57,0,0,0-4.28-.4A61.61,61.61,0,0,0,157.35,246a111.75,111.75,0,0,0-10.49,4.54,90.88,90.88,0,0,0-7.72,4.88c-1.17.76-2.29,1.61-3.51,2.27-1.95,1.06-3.36.2-3.67-2.08a5.86,5.86,0,0,1,1.1-4.31c1.18-1.66,2.44-3.26,3.65-4.89,1.38-1.85,2.77-3.68,4.11-5.56a15.52,15.52,0,0,0,1-1.86,3,3,0,0,0-3-.79,48.13,48.13,0,0,0-5.58,1.06c-6.59,1.8-13,4.21-19.39,6.63-4.2,1.59-8.45,3.09-12.53,5a100.75,100.75,0,0,0-16,9.3c-1.78,1.27-3.59,2.49-5.44,3.63a23.46,23.46,0,0,1-2.83,1.31c-1.32.6-2.34.05-3.22-1a5.69,5.69,0,0,1-.9-5.81,25,25,0,0,1,2-4.38,81.94,81.94,0,0,1,6.78-9.51c.36-.47.67-1,1.09-1.6a4.15,4.15,0,0,0-2.7.25A114.94,114.94,0,0,0,48.92,257.8a168.28,168.28,0,0,0-14.1,10.44,23.78,23.78,0,0,1-3.23,2.23c-1.13.66-1.88.42-2.72-.62a4.38,4.38,0,0,1-1-3.5,11.71,11.71,0,0,1,1.23-3.82,121.09,121.09,0,0,1,7.59-12.19c.65-1,1.31-1.9,1.9-2.89a8.9,8.9,0,0,0,.58-1.66,15.83,15.83,0,0,0-4.74.6,94.47,94.47,0,0,0-21.74,9.1C6.29,259.18.11,263.26-6,267.45a58.12,58.12,0,0,1-5.23,2.92,6.32,6.32,0,0,1-1.21.47,3.83,3.83,0,0,1-4.89-3.08,9.79,9.79,0,0,1,.25-4.53,41,41,0,0,1,5.45-12.16c2.24-3.51,4.59-7,6.86-10.45.58-.88,1.07-1.82,1.76-3a5,5,0,0,0-1.43,0c-2.75,1-5.52,2-8.21,3.21-4.52,2-8.89,4.34-13.22,6.74a117.78,117.78,0,0,0-12.43,8.23c-4.44,3.25-8.77,6.67-13.17,10a22,22,0,0,1-3.3,2.11c-2.83,1.39-5.51-.3-5.68-3.59a12.3,12.3,0,0,1,1.5-6.74c1.88-3.33,3.85-6.6,5.82-9.88,1.19-2,2.45-3.91,3.66-5.87a11.65,11.65,0,0,0,.64-1.39,2,2,0,0,0-2.08,0c-1.84.77-3.72,1.45-5.49,2.37-9.21,4.75-18.12,10-26,16.89-1.72,1.49-3.54,2.87-5.36,4.24a14.74,14.74,0,0,1-2.89,1.75c-2.33,1-4.54-.11-5.36-2.61a9,9,0,0,1,.21-5.56,23.56,23.56,0,0,1,1.51-3.72c1.79-3.48,3.65-6.93,5.47-10.39.16-.31.29-.63.42-.92-.49-.44-.89-.19-1.26,0a88,88,0,0,0-18.69,12.44c-1.58,1.39-3.08,2.87-4.6,4.33s-1.82,1.39-3.09-.69a3.28,3.28,0,0,1,.47-.86c5.13-4.79,10.32-9.5,16.49-12.85,2.21-1.2,4.27-2.71,6.48-3.91a38.6,38.6,0,0,1,7.13-3.11,1.58,1.58,0,0,1,1.86.48,1.81,1.81,0,0,1,.18,2.24c-.53.92-1.13,1.8-1.73,2.69a70.64,70.64,0,0,0-8,15.37,13.27,13.27,0,0,0-.59,2.88,7.33,7.33,0,0,0,.25,1.74A4.5,4.5,0,0,0-92,263a27.3,27.3,0,0,0,3.56-2.14c2.66-2,5.26-4.05,7.84-6.15a124.29,124.29,0,0,1,11.4-7.88,94.71,94.71,0,0,1,11-6c1.25-.59,2.44-1.33,3.67-2a18.76,18.76,0,0,1,6.47-1.72c2.22-.26,3.44,1.44,2.55,3.57a14.83,14.83,0,0,1-1.17,2.09c-3,4.91-6.09,9.79-9,14.75a24.43,24.43,0,0,0-1.87,4.43,4.64,4.64,0,0,0-.06,3.52,4.88,4.88,0,0,0,1.5-.28,24.14,24.14,0,0,0,3.12-1.88c4.87-3.56,9.68-7.2,14.58-10.71,2.62-1.88,5.34-3.63,8.09-5.31s5.82-3.5,8.83-5a137.08,137.08,0,0,1,15.39-7,8.18,8.18,0,0,1,4.05-.57,2.36,2.36,0,0,1,2,2.89,6.41,6.41,0,0,1-.81,2c-.92,1.51-1.91,3-2.89,4.46-2.88,4.37-6,8.55-8.32,13.32a28.91,28.91,0,0,0-2.89,8.6c-.28,2,.49,2.75,2.3,2.06A14.46,14.46,0,0,0-10.43,267c2.3-1.41,4.56-2.87,6.84-4.31,3.17-2,6.29-4.09,9.51-6C10,254.32,14,252,18.22,249.88a78,78,0,0,1,17-6.17,14.83,14.83,0,0,1,4.09-.34c2,.12,3,1.76,2.43,3.78a7.39,7.39,0,0,1-1,1.89c-2.23,3.41-4.54,6.77-6.71,10.22-1.23,1.95-2.27,4-3.33,6.07A10.71,10.71,0,0,0,30.2,267.27Z" fill="currentColor"/></pattern></defs><rect width="283.46" height="283.46" fill="url(#a)"/></svg>
